// WIP
// problème si name est pas définit

var track = {
    "header": {
        "keySignatures": [{
                "key": "C",
                "scale": "major",
                "ticks": 0
            },
            {
                "key": "C",
                "scale": "major",
                "ticks": 0
            },
            {
                "key": "C",
                "scale": "major",
                "ticks": 0
            },
            {
                "key": "C",
                "scale": "major",
                "ticks": 0
            },
            {
                "key": "C",
                "scale": "major",
                "ticks": 0
            },
            {
                "key": "C",
                "scale": "major",
                "ticks": 0
            },
            {
                "key": "C",
                "scale": "major",
                "ticks": 0
            },
            {
                "key": "C",
                "scale": "major",
                "ticks": 0
            },
            {
                "key": "C",
                "scale": "major",
                "ticks": 0
            },
            {
                "key": "C",
                "scale": "major",
                "ticks": 0
            },
            {
                "key": "C",
                "scale": "major",
                "ticks": 0
            },
            {
                "key": "C",
                "scale": "major",
                "ticks": 1920
            },
            {
                "key": "C",
                "scale": "major",
                "ticks": 3840
            }
        ],
        "meta": [{
            "text": "Marqueur ##",
            "ticks": 26880,
            "type": "marker"
        }],
        "name": "",
        "ppq": 480,
        "tempos": [{
                "bpm": 120,
                "ticks": 0
            },
            {
                "bpm": 120,
                "ticks": 0
            },
            {
                "bpm": 120,
                "ticks": 1920
            },
            {
                "bpm": 120,
                "ticks": 3840
            },
            {
                "bpm": 120,
                "ticks": 5760
            },
            {
                "bpm": 120,
                "ticks": 7680
            },
            {
                "bpm": 120,
                "ticks": 9600
            },
            {
                "bpm": 120,
                "ticks": 11520
            },
            {
                "bpm": 120,
                "ticks": 13440
            },
            {
                "bpm": 120,
                "ticks": 15360
            },
            {
                "bpm": 120,
                "ticks": 17280
            },
            {
                "bpm": 120,
                "ticks": 19200
            },
            {
                "bpm": 120,
                "ticks": 21120
            }
        ],
        "timeSignatures": [{
                "ticks": 0,
                "timeSignature": [
                    4,
                    4
                ],
                "measures": 0
            },
            {
                "ticks": 0,
                "timeSignature": [
                    4,
                    4
                ],
                "measures": 0
            },
            {
                "ticks": 0,
                "timeSignature": [
                    4,
                    4
                ],
                "measures": 0
            },
            {
                "ticks": 0,
                "timeSignature": [
                    4,
                    4
                ],
                "measures": 0
            },
            {
                "ticks": 0,
                "timeSignature": [
                    4,
                    4
                ],
                "measures": 0
            },
            {
                "ticks": 0,
                "timeSignature": [
                    4,
                    4
                ],
                "measures": 0
            },
            {
                "ticks": 0,
                "timeSignature": [
                    4,
                    4
                ],
                "measures": 0
            },
            {
                "ticks": 0,
                "timeSignature": [
                    4,
                    4
                ],
                "measures": 0
            },
            {
                "ticks": 0,
                "timeSignature": [
                    4,
                    4
                ],
                "measures": 0
            },
            {
                "ticks": 0,
                "timeSignature": [
                    4,
                    4
                ],
                "measures": 0
            },
            {
                "ticks": 0,
                "timeSignature": [
                    4,
                    4
                ],
                "measures": 0
            },
            {
                "ticks": 1920,
                "timeSignature": [
                    4,
                    4
                ],
                "measures": 1
            },
            {
                "ticks": 3840,
                "timeSignature": [
                    4,
                    4
                ],
                "measures": 2
            }
        ]
    },
    "tracks": [
        {
            "channel": 0,
            "controlChanges": {},
            "pitchBends": [],
            "instrument": {
                "family": "piano",
                "number": 0,
                "name": "acoustic grand piano"
            },
            "name": "",
            "notes": [],
            "endOfTrackTicks": 264960
        },
        {
            "channel": 0,
            "controlChanges": {},
            "pitchBends": [],
            "instrument": {
                "family": "piano",
                "number": 0,
                "name": "acoustic grand piano"
            },
            "name": "",
            "notes": [],
            "endOfTrackTicks": 264960
        },
        {
            "channel": 0,
            "controlChanges": {},
            "pitchBends": [],
            "instrument": {
                "family": "piano",
                "number": 0,
                "name": "acoustic grand piano"
            },
            "name": "",
            "notes": [],
            "endOfTrackTicks": 264960
        },
        {
            "channel": 0,
            "controlChanges": {},
            "pitchBends": [],
            "instrument": {
                "family": "piano",
                "number": 0,
                "name": "acoustic grand piano"
            },
            "name": "",
            "notes": [],
            "endOfTrackTicks": 264960
        },
        {
            "channel": 0,
            "controlChanges": {},
            "pitchBends": [],
            "instrument": {
                "family": "piano",
                "number": 0,
                "name": "acoustic grand piano"
            },
            "name": "",
            "notes": [],
            "endOfTrackTicks": 264960
        },
        {
            "channel": 0,
            "controlChanges": {},
            "pitchBends": [],
            "instrument": {
                "family": "piano",
                "number": 0,
                "name": "acoustic grand piano"
            },
            "name": "",
            "notes": [],
            "endOfTrackTicks": 264960
        },
        {
            "channel": 0,
            "controlChanges": {},
            "pitchBends": [],
            "instrument": {
                "family": "piano",
                "number": 0,
                "name": "acoustic grand piano"
            },
            "name": "",
            "notes": [],
            "endOfTrackTicks": 264960
        },
        {
            "channel": 0,
            "controlChanges": {},
            "pitchBends": [],
            "instrument": {
                "family": "piano",
                "number": 0,
                "name": "acoustic grand piano"
            },
            "name": "",
            "notes": [],
            "endOfTrackTicks": 264960
        },
        {
            "channel": 0,
            "controlChanges": {},
            "pitchBends": [],
            "instrument": {
                "family": "piano",
                "number": 0,
                "name": "acoustic grand piano"
            },
            "name": "",
            "notes": [],
            "endOfTrackTicks": 264960
        },
        {
            "channel": 0,
            "controlChanges": {},
            "pitchBends": [],
            "instrument": {
                "family": "piano",
                "number": 0,
                "name": "acoustic grand piano"
            },
            "name": "",
            "notes": [],
            "endOfTrackTicks": 264960
        },
        {
            "channel": 0,
            "controlChanges": {},
            "pitchBends": [],
            "instrument": {
                "family": "piano",
                "number": 0,
                "name": "acoustic grand piano"
            },
            "name": "",
            "notes": [],
            "endOfTrackTicks": 264960
        },
        {
            "channel": 0,
            "controlChanges": {},
            "pitchBends": [],
            "instrument": {
                "family": "piano",
                "number": 0,
                "name": "acoustic grand piano"
            },
            "name": "",
            "notes": [],
            "endOfTrackTicks": 264960
        },
        {
            "channel": 0,
            "controlChanges": {},
            "pitchBends": [],
            "instrument": {
                "family": "piano",
                "number": 0,
                "name": "acoustic grand piano"
            },
            "name": "Membrane",
            "notes": [{
                    "duration": 0.18541666666666667,
                    "durationTicks": 178,
                    "midi": 55,
                    "name": "G3",
                    "ticks": 0,
                    "time": 0,
                    "velocity": 0.9212598425196851
                },
                {
                    "duration": 0.12604166666666672,
                    "durationTicks": 121,
                    "midi": 55,
                    "name": "G3",
                    "ticks": 360,
                    "time": 0.375,
                    "velocity": 0.9212598425196851
                },
                {
                    "duration": 0.10416666666666663,
                    "durationTicks": 100,
                    "midi": 55,
                    "name": "G3",
                    "ticks": 720,
                    "time": 0.75,
                    "velocity": 0.8503937007874016
                },
                {
                    "duration": 0.7333333333333334,
                    "durationTicks": 704,
                    "midi": 55,
                    "name": "G3",
                    "ticks": 960,
                    "time": 1,
                    "velocity": 0.9212598425196851
                },
                {
                    "duration": 0.2625000000000002,
                    "durationTicks": 252,
                    "midi": 55,
                    "name": "G3",
                    "ticks": 1920,
                    "time": 2,
                    "velocity": 0.9212598425196851
                },
                {
                    "duration": 0.12083333333333357,
                    "durationTicks": 116,
                    "midi": 55,
                    "name": "G3",
                    "ticks": 2220,
                    "time": 2.3125,
                    "velocity": 0.8503937007874016
                },
                {
                    "duration": 0.14374999999999982,
                    "durationTicks": 138,
                    "midi": 55,
                    "name": "G3",
                    "ticks": 2580,
                    "time": 2.6875,
                    "velocity": 0.9212598425196851
                },
                {
                    "duration": 0.7635416666666668,
                    "durationTicks": 733,
                    "midi": 55,
                    "name": "G3",
                    "ticks": 2820,
                    "time": 2.9375,
                    "velocity": 0.9212598425196851
                },
                {
                    "duration": 0.2489583333333334,
                    "durationTicks": 239,
                    "midi": 55,
                    "name": "G3",
                    "ticks": 3840,
                    "time": 4,
                    "velocity": 0.9212598425196851
                },
                {
                    "duration": 0.13124999999999964,
                    "durationTicks": 126,
                    "midi": 55,
                    "name": "G3",
                    "ticks": 4200,
                    "time": 4.375,
                    "velocity": 0.9212598425196851
                },
                {
                    "duration": 0.11770833333333286,
                    "durationTicks": 113,
                    "midi": 55,
                    "name": "G3",
                    "ticks": 4500,
                    "time": 4.6875,
                    "velocity": 0.9212598425196851
                },
                {
                    "duration": 0.8145833333333332,
                    "durationTicks": 782,
                    "midi": 55,
                    "name": "G3",
                    "ticks": 4740,
                    "time": 4.9375,
                    "velocity": 0.8503937007874016
                },
                {
                    "duration": 0.20833333333333304,
                    "durationTicks": 200,
                    "midi": 55,
                    "name": "G3",
                    "ticks": 5760,
                    "time": 6,
                    "velocity": 0.9212598425196851
                },
                {
                    "duration": 0.15625,
                    "durationTicks": 150,
                    "midi": 55,
                    "name": "G3",
                    "ticks": 6120,
                    "time": 6.375,
                    "velocity": 0.8503937007874016
                },
                {
                    "duration": 0.12916666666666643,
                    "durationTicks": 124,
                    "midi": 55,
                    "name": "G3",
                    "ticks": 6420,
                    "time": 6.6875,
                    "velocity": 0.9212598425196851
                },
                {
                    "duration": 0.822916666666667,
                    "durationTicks": 790,
                    "midi": 55,
                    "name": "G3",
                    "ticks": 6720,
                    "time": 7,
                    "velocity": 0.8503937007874016
                },
                {
                    "duration": 0.25416666666666643,
                    "durationTicks": 244,
                    "midi": 55,
                    "name": "G3",
                    "ticks": 7680,
                    "time": 8,
                    "velocity": 0.9212598425196851
                },
                {
                    "duration": 0.12708333333333321,
                    "durationTicks": 122,
                    "midi": 55,
                    "name": "G3",
                    "ticks": 8040,
                    "time": 8.375,
                    "velocity": 0.9212598425196851
                },
                {
                    "duration": 0.10624999999999929,
                    "durationTicks": 102,
                    "midi": 55,
                    "name": "G3",
                    "ticks": 8400,
                    "time": 8.75,
                    "velocity": 0.9212598425196851
                },
                {
                    "duration": 0.7593750000000004,
                    "durationTicks": 729,
                    "midi": 55,
                    "name": "G3",
                    "ticks": 8640,
                    "time": 9,
                    "velocity": 0.9212598425196851
                },
                {
                    "duration": 0.19791666666666607,
                    "durationTicks": 190,
                    "midi": 55,
                    "name": "G3",
                    "ticks": 9600,
                    "time": 10,
                    "velocity": 0.9212598425196851
                },
                {
                    "duration": 0.14687499999999964,
                    "durationTicks": 141,
                    "midi": 55,
                    "name": "G3",
                    "ticks": 9960,
                    "time": 10.375,
                    "velocity": 0.9212598425196851
                },
                {
                    "duration": 0.11666666666666714,
                    "durationTicks": 112,
                    "midi": 55,
                    "name": "G3",
                    "ticks": 10260,
                    "time": 10.6875,
                    "velocity": 0.9212598425196851
                },
                {
                    "duration": 0.8218750000000004,
                    "durationTicks": 789,
                    "midi": 55,
                    "name": "G3",
                    "ticks": 10560,
                    "time": 11,
                    "velocity": 0.9212598425196851
                },
                {
                    "duration": 0.2520833333333332,
                    "durationTicks": 242,
                    "midi": 55,
                    "name": "G3",
                    "ticks": 11520,
                    "time": 12,
                    "velocity": 0.9212598425196851
                },
                {
                    "duration": 0.1437500000000007,
                    "durationTicks": 138,
                    "midi": 55,
                    "name": "G3",
                    "ticks": 11880,
                    "time": 12.375,
                    "velocity": 0.9212598425196851
                },
                {
                    "duration": 0.14479166666666643,
                    "durationTicks": 139,
                    "midi": 55,
                    "name": "G3",
                    "ticks": 12240,
                    "time": 12.75,
                    "velocity": 0.9212598425196851
                },
                {
                    "duration": 0.7843750000000007,
                    "durationTicks": 753,
                    "midi": 55,
                    "name": "G3",
                    "ticks": 12480,
                    "time": 13,
                    "velocity": 0.8503937007874016
                },
                {
                    "duration": 0.22812500000000036,
                    "durationTicks": 219,
                    "midi": 55,
                    "name": "G3",
                    "ticks": 13440,
                    "time": 14,
                    "velocity": 0.8503937007874016
                },
                {
                    "duration": 0.13437500000000036,
                    "durationTicks": 129,
                    "midi": 55,
                    "name": "G3",
                    "ticks": 13800,
                    "time": 14.375,
                    "velocity": 0.8503937007874016
                },
                {
                    "duration": 0.1281250000000007,
                    "durationTicks": 123,
                    "midi": 55,
                    "name": "G3",
                    "ticks": 14100,
                    "time": 14.6875,
                    "velocity": 0.9212598425196851
                },
                {
                    "duration": 0.9135416666666671,
                    "durationTicks": 877,
                    "midi": 55,
                    "name": "G3",
                    "ticks": 14400,
                    "time": 15,
                    "velocity": 0.9212598425196851
                }
            ],
            "endOfTrackTicks": 15277
        },
        {
            "channel": 0,
            "controlChanges": {},
            "pitchBends": [],
            "instrument": {
                "family": "piano",
                "number": 0,
                "name": "acoustic grand piano"
            },
            "name": "Membrane",
            "notes": [{
                    "duration": 0.18541666666666679,
                    "durationTicks": 178,
                    "midi": 55,
                    "name": "G3",
                    "ticks": 1920,
                    "time": 2,
                    "velocity": 0.9212598425196851
                },
                {
                    "duration": 0.1260416666666666,
                    "durationTicks": 121,
                    "midi": 55,
                    "name": "G3",
                    "ticks": 2280,
                    "time": 2.375,
                    "velocity": 0.9212598425196851
                },
                {
                    "duration": 0.10416666666666652,
                    "durationTicks": 100,
                    "midi": 55,
                    "name": "G3",
                    "ticks": 2640,
                    "time": 2.75,
                    "velocity": 0.8503937007874016
                },
                {
                    "duration": 0.7333333333333334,
                    "durationTicks": 704,
                    "midi": 55,
                    "name": "G3",
                    "ticks": 2880,
                    "time": 3,
                    "velocity": 0.9212598425196851
                },
                {
                    "duration": 0.2625000000000002,
                    "durationTicks": 252,
                    "midi": 55,
                    "name": "G3",
                    "ticks": 3840,
                    "time": 4,
                    "velocity": 0.9212598425196851
                },
                {
                    "duration": 0.12083333333333357,
                    "durationTicks": 116,
                    "midi": 55,
                    "name": "G3",
                    "ticks": 4140,
                    "time": 4.3125,
                    "velocity": 0.8503937007874016
                },
                {
                    "duration": 0.14374999999999982,
                    "durationTicks": 138,
                    "midi": 55,
                    "name": "G3",
                    "ticks": 4500,
                    "time": 4.6875,
                    "velocity": 0.9212598425196851
                },
                {
                    "duration": 0.7635416666666668,
                    "durationTicks": 733,
                    "midi": 55,
                    "name": "G3",
                    "ticks": 4740,
                    "time": 4.9375,
                    "velocity": 0.9212598425196851
                },
                {
                    "duration": 0.2489583333333334,
                    "durationTicks": 239,
                    "midi": 55,
                    "name": "G3",
                    "ticks": 5760,
                    "time": 6,
                    "velocity": 0.9212598425196851
                },
                {
                    "duration": 0.13124999999999964,
                    "durationTicks": 126,
                    "midi": 55,
                    "name": "G3",
                    "ticks": 6120,
                    "time": 6.375,
                    "velocity": 0.9212598425196851
                },
                {
                    "duration": 0.11770833333333286,
                    "durationTicks": 113,
                    "midi": 55,
                    "name": "G3",
                    "ticks": 6420,
                    "time": 6.6875,
                    "velocity": 0.9212598425196851
                },
                {
                    "duration": 0.8145833333333332,
                    "durationTicks": 782,
                    "midi": 55,
                    "name": "G3",
                    "ticks": 6660,
                    "time": 6.9375,
                    "velocity": 0.8503937007874016
                },
                {
                    "duration": 0.20833333333333393,
                    "durationTicks": 200,
                    "midi": 55,
                    "name": "G3",
                    "ticks": 7680,
                    "time": 8,
                    "velocity": 0.9212598425196851
                },
                {
                    "duration": 0.15625,
                    "durationTicks": 150,
                    "midi": 55,
                    "name": "G3",
                    "ticks": 8040,
                    "time": 8.375,
                    "velocity": 0.8503937007874016
                },
                {
                    "duration": 0.12916666666666643,
                    "durationTicks": 124,
                    "midi": 55,
                    "name": "G3",
                    "ticks": 8340,
                    "time": 8.6875,
                    "velocity": 0.9212598425196851
                },
                {
                    "duration": 0.8229166666666661,
                    "durationTicks": 790,
                    "midi": 55,
                    "name": "G3",
                    "ticks": 8640,
                    "time": 9,
                    "velocity": 0.8503937007874016
                },
                {
                    "duration": 0.25416666666666643,
                    "durationTicks": 244,
                    "midi": 55,
                    "name": "G3",
                    "ticks": 9600,
                    "time": 10,
                    "velocity": 0.9212598425196851
                },
                {
                    "duration": 0.12708333333333321,
                    "durationTicks": 122,
                    "midi": 55,
                    "name": "G3",
                    "ticks": 9960,
                    "time": 10.375,
                    "velocity": 0.9212598425196851
                },
                {
                    "duration": 0.10624999999999929,
                    "durationTicks": 102,
                    "midi": 55,
                    "name": "G3",
                    "ticks": 10320,
                    "time": 10.75,
                    "velocity": 0.9212598425196851
                },
                {
                    "duration": 0.7593750000000004,
                    "durationTicks": 729,
                    "midi": 55,
                    "name": "G3",
                    "ticks": 10560,
                    "time": 11,
                    "velocity": 0.9212598425196851
                },
                {
                    "duration": 0.19791666666666607,
                    "durationTicks": 190,
                    "midi": 55,
                    "name": "G3",
                    "ticks": 11520,
                    "time": 12,
                    "velocity": 0.9212598425196851
                },
                {
                    "duration": 0.14687499999999964,
                    "durationTicks": 141,
                    "midi": 55,
                    "name": "G3",
                    "ticks": 11880,
                    "time": 12.375,
                    "velocity": 0.9212598425196851
                },
                {
                    "duration": 0.11666666666666714,
                    "durationTicks": 112,
                    "midi": 55,
                    "name": "G3",
                    "ticks": 12180,
                    "time": 12.6875,
                    "velocity": 0.9212598425196851
                },
                {
                    "duration": 0.8218750000000004,
                    "durationTicks": 789,
                    "midi": 55,
                    "name": "G3",
                    "ticks": 12480,
                    "time": 13,
                    "velocity": 0.9212598425196851
                },
                {
                    "duration": 0.2520833333333332,
                    "durationTicks": 242,
                    "midi": 55,
                    "name": "G3",
                    "ticks": 13440,
                    "time": 14,
                    "velocity": 0.9212598425196851
                },
                {
                    "duration": 0.1437500000000007,
                    "durationTicks": 138,
                    "midi": 55,
                    "name": "G3",
                    "ticks": 13800,
                    "time": 14.375,
                    "velocity": 0.9212598425196851
                },
                {
                    "duration": 0.14479166666666643,
                    "durationTicks": 139,
                    "midi": 55,
                    "name": "G3",
                    "ticks": 14160,
                    "time": 14.75,
                    "velocity": 0.9212598425196851
                },
                {
                    "duration": 0.7843750000000007,
                    "durationTicks": 753,
                    "midi": 55,
                    "name": "G3",
                    "ticks": 14400,
                    "time": 15,
                    "velocity": 0.8503937007874016
                },
                {
                    "duration": 0.22812499999999858,
                    "durationTicks": 219,
                    "midi": 55,
                    "name": "G3",
                    "ticks": 15360,
                    "time": 16,
                    "velocity": 0.8503937007874016
                },
                {
                    "duration": 0.13437499999999858,
                    "durationTicks": 129,
                    "midi": 55,
                    "name": "G3",
                    "ticks": 15720,
                    "time": 16.375,
                    "velocity": 0.8503937007874016
                },
                {
                    "duration": 0.1281250000000007,
                    "durationTicks": 123,
                    "midi": 55,
                    "name": "G3",
                    "ticks": 16020,
                    "time": 16.6875,
                    "velocity": 0.9212598425196851
                },
                {
                    "duration": 0.9135416666666671,
                    "durationTicks": 877,
                    "midi": 55,
                    "name": "G3",
                    "ticks": 16320,
                    "time": 17,
                    "velocity": 0.9212598425196851
                }
            ],
            "endOfTrackTicks": 17197
        },
        {
            "channel": 0,
            "controlChanges": {},
            "pitchBends": [],
            "instrument": {
                "family": "piano",
                "number": 0,
                "name": "acoustic grand piano"
            },
            "name": "Membrane",
            "notes": [{
                    "duration": 0.18541666666666679,
                    "durationTicks": 178,
                    "midi": 55,
                    "name": "G3",
                    "ticks": 3840,
                    "time": 4,
                    "velocity": 0.9212598425196851
                },
                {
                    "duration": 0.1260416666666666,
                    "durationTicks": 121,
                    "midi": 55,
                    "name": "G3",
                    "ticks": 4200,
                    "time": 4.375,
                    "velocity": 0.9212598425196851
                },
                {
                    "duration": 0.10416666666666696,
                    "durationTicks": 100,
                    "midi": 55,
                    "name": "G3",
                    "ticks": 4560,
                    "time": 4.75,
                    "velocity": 0.8503937007874016
                },
                {
                    "duration": 0.7333333333333334,
                    "durationTicks": 704,
                    "midi": 55,
                    "name": "G3",
                    "ticks": 4800,
                    "time": 5,
                    "velocity": 0.9212598425196851
                },
                {
                    "duration": 0.2625000000000002,
                    "durationTicks": 252,
                    "midi": 55,
                    "name": "G3",
                    "ticks": 5760,
                    "time": 6,
                    "velocity": 0.9212598425196851
                },
                {
                    "duration": 0.12083333333333357,
                    "durationTicks": 116,
                    "midi": 55,
                    "name": "G3",
                    "ticks": 6060,
                    "time": 6.3125,
                    "velocity": 0.8503937007874016
                },
                {
                    "duration": 0.14374999999999982,
                    "durationTicks": 138,
                    "midi": 55,
                    "name": "G3",
                    "ticks": 6420,
                    "time": 6.6875,
                    "velocity": 0.9212598425196851
                },
                {
                    "duration": 0.7635416666666668,
                    "durationTicks": 733,
                    "midi": 55,
                    "name": "G3",
                    "ticks": 6660,
                    "time": 6.9375,
                    "velocity": 0.9212598425196851
                },
                {
                    "duration": 0.2489583333333325,
                    "durationTicks": 239,
                    "midi": 55,
                    "name": "G3",
                    "ticks": 7680,
                    "time": 8,
                    "velocity": 0.9212598425196851
                },
                {
                    "duration": 0.13124999999999964,
                    "durationTicks": 126,
                    "midi": 55,
                    "name": "G3",
                    "ticks": 8040,
                    "time": 8.375,
                    "velocity": 0.9212598425196851
                },
                {
                    "duration": 0.11770833333333286,
                    "durationTicks": 113,
                    "midi": 55,
                    "name": "G3",
                    "ticks": 8340,
                    "time": 8.6875,
                    "velocity": 0.9212598425196851
                },
                {
                    "duration": 0.8145833333333332,
                    "durationTicks": 782,
                    "midi": 55,
                    "name": "G3",
                    "ticks": 8580,
                    "time": 8.9375,
                    "velocity": 0.8503937007874016
                },
                {
                    "duration": 0.20833333333333393,
                    "durationTicks": 200,
                    "midi": 55,
                    "name": "G3",
                    "ticks": 9600,
                    "time": 10,
                    "velocity": 0.9212598425196851
                },
                {
                    "duration": 0.15625,
                    "durationTicks": 150,
                    "midi": 55,
                    "name": "G3",
                    "ticks": 9960,
                    "time": 10.375,
                    "velocity": 0.8503937007874016
                },
                {
                    "duration": 0.12916666666666643,
                    "durationTicks": 124,
                    "midi": 55,
                    "name": "G3",
                    "ticks": 10260,
                    "time": 10.6875,
                    "velocity": 0.9212598425196851
                },
                {
                    "duration": 0.8229166666666661,
                    "durationTicks": 790,
                    "midi": 55,
                    "name": "G3",
                    "ticks": 10560,
                    "time": 11,
                    "velocity": 0.8503937007874016
                },
                {
                    "duration": 0.25416666666666643,
                    "durationTicks": 244,
                    "midi": 55,
                    "name": "G3",
                    "ticks": 11520,
                    "time": 12,
                    "velocity": 0.9212598425196851
                },
                {
                    "duration": 0.12708333333333321,
                    "durationTicks": 122,
                    "midi": 55,
                    "name": "G3",
                    "ticks": 11880,
                    "time": 12.375,
                    "velocity": 0.9212598425196851
                },
                {
                    "duration": 0.10624999999999929,
                    "durationTicks": 102,
                    "midi": 55,
                    "name": "G3",
                    "ticks": 12240,
                    "time": 12.75,
                    "velocity": 0.9212598425196851
                },
                {
                    "duration": 0.7593750000000004,
                    "durationTicks": 729,
                    "midi": 55,
                    "name": "G3",
                    "ticks": 12480,
                    "time": 13,
                    "velocity": 0.9212598425196851
                },
                {
                    "duration": 0.19791666666666607,
                    "durationTicks": 190,
                    "midi": 55,
                    "name": "G3",
                    "ticks": 13440,
                    "time": 14,
                    "velocity": 0.9212598425196851
                },
                {
                    "duration": 0.14687499999999964,
                    "durationTicks": 141,
                    "midi": 55,
                    "name": "G3",
                    "ticks": 13800,
                    "time": 14.375,
                    "velocity": 0.9212598425196851
                },
                {
                    "duration": 0.11666666666666714,
                    "durationTicks": 112,
                    "midi": 55,
                    "name": "G3",
                    "ticks": 14100,
                    "time": 14.6875,
                    "velocity": 0.9212598425196851
                },
                {
                    "duration": 0.8218750000000004,
                    "durationTicks": 789,
                    "midi": 55,
                    "name": "G3",
                    "ticks": 14400,
                    "time": 15,
                    "velocity": 0.9212598425196851
                },
                {
                    "duration": 0.252083333333335,
                    "durationTicks": 242,
                    "midi": 55,
                    "name": "G3",
                    "ticks": 15360,
                    "time": 16,
                    "velocity": 0.9212598425196851
                },
                {
                    "duration": 0.1437500000000007,
                    "durationTicks": 138,
                    "midi": 55,
                    "name": "G3",
                    "ticks": 15720,
                    "time": 16.375,
                    "velocity": 0.9212598425196851
                },
                {
                    "duration": 0.14479166666666643,
                    "durationTicks": 139,
                    "midi": 55,
                    "name": "G3",
                    "ticks": 16080,
                    "time": 16.75,
                    "velocity": 0.9212598425196851
                },
                {
                    "duration": 0.7843750000000007,
                    "durationTicks": 753,
                    "midi": 55,
                    "name": "G3",
                    "ticks": 16320,
                    "time": 17,
                    "velocity": 0.8503937007874016
                },
                {
                    "duration": 0.22812499999999858,
                    "durationTicks": 219,
                    "midi": 55,
                    "name": "G3",
                    "ticks": 17280,
                    "time": 18,
                    "velocity": 0.8503937007874016
                },
                {
                    "duration": 0.13437499999999858,
                    "durationTicks": 129,
                    "midi": 55,
                    "name": "G3",
                    "ticks": 17640,
                    "time": 18.375,
                    "velocity": 0.8503937007874016
                },
                {
                    "duration": 0.1281250000000007,
                    "durationTicks": 123,
                    "midi": 55,
                    "name": "G3",
                    "ticks": 17940,
                    "time": 18.6875,
                    "velocity": 0.9212598425196851
                },
                {
                    "duration": 0.9135416666666671,
                    "durationTicks": 877,
                    "midi": 55,
                    "name": "G3",
                    "ticks": 18240,
                    "time": 19,
                    "velocity": 0.9212598425196851
                }
            ],
            "endOfTrackTicks": 19117
        },
        {
            "channel": 0,
            "controlChanges": {},
            "pitchBends": [],
            "instrument": {
                "family": "piano",
                "number": 0,
                "name": "acoustic grand piano"
            },
            "name": "Membrane",
            "notes": [{
                    "duration": 0.18541666666666679,
                    "durationTicks": 178,
                    "midi": 55,
                    "name": "G3",
                    "ticks": 5760,
                    "time": 6,
                    "velocity": 0.9212598425196851
                },
                {
                    "duration": 0.1260416666666666,
                    "durationTicks": 121,
                    "midi": 55,
                    "name": "G3",
                    "ticks": 6120,
                    "time": 6.375,
                    "velocity": 0.9212598425196851
                },
                {
                    "duration": 0.10416666666666696,
                    "durationTicks": 100,
                    "midi": 55,
                    "name": "G3",
                    "ticks": 6480,
                    "time": 6.75,
                    "velocity": 0.8503937007874016
                },
                {
                    "duration": 0.7333333333333334,
                    "durationTicks": 704,
                    "midi": 55,
                    "name": "G3",
                    "ticks": 6720,
                    "time": 7,
                    "velocity": 0.9212598425196851
                },
                {
                    "duration": 0.2624999999999993,
                    "durationTicks": 252,
                    "midi": 55,
                    "name": "G3",
                    "ticks": 7680,
                    "time": 8,
                    "velocity": 0.9212598425196851
                },
                {
                    "duration": 0.12083333333333357,
                    "durationTicks": 116,
                    "midi": 55,
                    "name": "G3",
                    "ticks": 7980,
                    "time": 8.3125,
                    "velocity": 0.8503937007874016
                },
                {
                    "duration": 0.1437500000000007,
                    "durationTicks": 138,
                    "midi": 55,
                    "name": "G3",
                    "ticks": 8340,
                    "time": 8.6875,
                    "velocity": 0.9212598425196851
                },
                {
                    "duration": 0.7635416666666668,
                    "durationTicks": 733,
                    "midi": 55,
                    "name": "G3",
                    "ticks": 8580,
                    "time": 8.9375,
                    "velocity": 0.9212598425196851
                },
                {
                    "duration": 0.2489583333333325,
                    "durationTicks": 239,
                    "midi": 55,
                    "name": "G3",
                    "ticks": 9600,
                    "time": 10,
                    "velocity": 0.9212598425196851
                },
                {
                    "duration": 0.13124999999999964,
                    "durationTicks": 126,
                    "midi": 55,
                    "name": "G3",
                    "ticks": 9960,
                    "time": 10.375,
                    "velocity": 0.9212598425196851
                },
                {
                    "duration": 0.11770833333333286,
                    "durationTicks": 113,
                    "midi": 55,
                    "name": "G3",
                    "ticks": 10260,
                    "time": 10.6875,
                    "velocity": 0.9212598425196851
                },
                {
                    "duration": 0.8145833333333332,
                    "durationTicks": 782,
                    "midi": 55,
                    "name": "G3",
                    "ticks": 10500,
                    "time": 10.9375,
                    "velocity": 0.8503937007874016
                },
                {
                    "duration": 0.20833333333333393,
                    "durationTicks": 200,
                    "midi": 55,
                    "name": "G3",
                    "ticks": 11520,
                    "time": 12,
                    "velocity": 0.9212598425196851
                },
                {
                    "duration": 0.15625,
                    "durationTicks": 150,
                    "midi": 55,
                    "name": "G3",
                    "ticks": 11880,
                    "time": 12.375,
                    "velocity": 0.8503937007874016
                },
                {
                    "duration": 0.12916666666666643,
                    "durationTicks": 124,
                    "midi": 55,
                    "name": "G3",
                    "ticks": 12180,
                    "time": 12.6875,
                    "velocity": 0.9212598425196851
                },
                {
                    "duration": 0.8229166666666661,
                    "durationTicks": 790,
                    "midi": 55,
                    "name": "G3",
                    "ticks": 12480,
                    "time": 13,
                    "velocity": 0.8503937007874016
                },
                {
                    "duration": 0.25416666666666643,
                    "durationTicks": 244,
                    "midi": 55,
                    "name": "G3",
                    "ticks": 13440,
                    "time": 14,
                    "velocity": 0.9212598425196851
                },
                {
                    "duration": 0.12708333333333321,
                    "durationTicks": 122,
                    "midi": 55,
                    "name": "G3",
                    "ticks": 13800,
                    "time": 14.375,
                    "velocity": 0.9212598425196851
                },
                {
                    "duration": 0.10624999999999929,
                    "durationTicks": 102,
                    "midi": 55,
                    "name": "G3",
                    "ticks": 14160,
                    "time": 14.75,
                    "velocity": 0.9212598425196851
                },
                {
                    "duration": 0.7593750000000004,
                    "durationTicks": 729,
                    "midi": 55,
                    "name": "G3",
                    "ticks": 14400,
                    "time": 15,
                    "velocity": 0.9212598425196851
                },
                {
                    "duration": 0.19791666666666785,
                    "durationTicks": 190,
                    "midi": 55,
                    "name": "G3",
                    "ticks": 15360,
                    "time": 16,
                    "velocity": 0.9212598425196851
                },
                {
                    "duration": 0.14687500000000142,
                    "durationTicks": 141,
                    "midi": 55,
                    "name": "G3",
                    "ticks": 15720,
                    "time": 16.375,
                    "velocity": 0.9212598425196851
                },
                {
                    "duration": 0.11666666666666714,
                    "durationTicks": 112,
                    "midi": 55,
                    "name": "G3",
                    "ticks": 16020,
                    "time": 16.6875,
                    "velocity": 0.9212598425196851
                },
                {
                    "duration": 0.8218749999999986,
                    "durationTicks": 789,
                    "midi": 55,
                    "name": "G3",
                    "ticks": 16320,
                    "time": 17,
                    "velocity": 0.9212598425196851
                },
                {
                    "duration": 0.252083333333335,
                    "durationTicks": 242,
                    "midi": 55,
                    "name": "G3",
                    "ticks": 17280,
                    "time": 18,
                    "velocity": 0.9212598425196851
                },
                {
                    "duration": 0.1437500000000007,
                    "durationTicks": 138,
                    "midi": 55,
                    "name": "G3",
                    "ticks": 17640,
                    "time": 18.375,
                    "velocity": 0.9212598425196851
                },
                {
                    "duration": 0.14479166666666643,
                    "durationTicks": 139,
                    "midi": 55,
                    "name": "G3",
                    "ticks": 18000,
                    "time": 18.75,
                    "velocity": 0.9212598425196851
                },
                {
                    "duration": 0.7843750000000007,
                    "durationTicks": 753,
                    "midi": 55,
                    "name": "G3",
                    "ticks": 18240,
                    "time": 19,
                    "velocity": 0.8503937007874016
                },
                {
                    "duration": 0.22812499999999858,
                    "durationTicks": 219,
                    "midi": 55,
                    "name": "G3",
                    "ticks": 19200,
                    "time": 20,
                    "velocity": 0.8503937007874016
                },
                {
                    "duration": 0.13437499999999858,
                    "durationTicks": 129,
                    "midi": 55,
                    "name": "G3",
                    "ticks": 19560,
                    "time": 20.375,
                    "velocity": 0.8503937007874016
                },
                {
                    "duration": 0.1281250000000007,
                    "durationTicks": 123,
                    "midi": 55,
                    "name": "G3",
                    "ticks": 19860,
                    "time": 20.6875,
                    "velocity": 0.9212598425196851
                },
                {
                    "duration": 0.9135416666666671,
                    "durationTicks": 877,
                    "midi": 55,
                    "name": "G3",
                    "ticks": 20160,
                    "time": 21,
                    "velocity": 0.9212598425196851
                }
            ],
            "endOfTrackTicks": 21037
        },
        {
            "channel": 0,
            "controlChanges": {},
            "pitchBends": [],
            "instrument": {
                "family": "piano",
                "number": 0,
                "name": "acoustic grand piano"
            },
            "name": "Membrane",
            "notes": [{
                    "duration": 0.18541666666666679,
                    "durationTicks": 178,
                    "midi": 55,
                    "name": "G3",
                    "ticks": 7680,
                    "time": 8,
                    "velocity": 0.9212598425196851
                },
                {
                    "duration": 0.1260416666666675,
                    "durationTicks": 121,
                    "midi": 55,
                    "name": "G3",
                    "ticks": 8040,
                    "time": 8.375,
                    "velocity": 0.9212598425196851
                },
                {
                    "duration": 0.10416666666666607,
                    "durationTicks": 100,
                    "midi": 55,
                    "name": "G3",
                    "ticks": 8400,
                    "time": 8.75,
                    "velocity": 0.8503937007874016
                },
                {
                    "duration": 0.7333333333333343,
                    "durationTicks": 704,
                    "midi": 55,
                    "name": "G3",
                    "ticks": 8640,
                    "time": 9,
                    "velocity": 0.9212598425196851
                },
                {
                    "duration": 0.2624999999999993,
                    "durationTicks": 252,
                    "midi": 55,
                    "name": "G3",
                    "ticks": 9600,
                    "time": 10,
                    "velocity": 0.9212598425196851
                },
                {
                    "duration": 0.12083333333333357,
                    "durationTicks": 116,
                    "midi": 55,
                    "name": "G3",
                    "ticks": 9900,
                    "time": 10.3125,
                    "velocity": 0.8503937007874016
                },
                {
                    "duration": 0.1437500000000007,
                    "durationTicks": 138,
                    "midi": 55,
                    "name": "G3",
                    "ticks": 10260,
                    "time": 10.6875,
                    "velocity": 0.9212598425196851
                },
                {
                    "duration": 0.7635416666666668,
                    "durationTicks": 733,
                    "midi": 55,
                    "name": "G3",
                    "ticks": 10500,
                    "time": 10.9375,
                    "velocity": 0.9212598425196851
                },
                {
                    "duration": 0.2489583333333325,
                    "durationTicks": 239,
                    "midi": 55,
                    "name": "G3",
                    "ticks": 11520,
                    "time": 12,
                    "velocity": 0.9212598425196851
                },
                {
                    "duration": 0.13124999999999964,
                    "durationTicks": 126,
                    "midi": 55,
                    "name": "G3",
                    "ticks": 11880,
                    "time": 12.375,
                    "velocity": 0.9212598425196851
                },
                {
                    "duration": 0.11770833333333286,
                    "durationTicks": 113,
                    "midi": 55,
                    "name": "G3",
                    "ticks": 12180,
                    "time": 12.6875,
                    "velocity": 0.9212598425196851
                },
                {
                    "duration": 0.8145833333333332,
                    "durationTicks": 782,
                    "midi": 55,
                    "name": "G3",
                    "ticks": 12420,
                    "time": 12.9375,
                    "velocity": 0.8503937007874016
                },
                {
                    "duration": 0.20833333333333393,
                    "durationTicks": 200,
                    "midi": 55,
                    "name": "G3",
                    "ticks": 13440,
                    "time": 14,
                    "velocity": 0.9212598425196851
                },
                {
                    "duration": 0.15625,
                    "durationTicks": 150,
                    "midi": 55,
                    "name": "G3",
                    "ticks": 13800,
                    "time": 14.375,
                    "velocity": 0.8503937007874016
                },
                {
                    "duration": 0.12916666666666643,
                    "durationTicks": 124,
                    "midi": 55,
                    "name": "G3",
                    "ticks": 14100,
                    "time": 14.6875,
                    "velocity": 0.9212598425196851
                },
                {
                    "duration": 0.8229166666666661,
                    "durationTicks": 790,
                    "midi": 55,
                    "name": "G3",
                    "ticks": 14400,
                    "time": 15,
                    "velocity": 0.8503937007874016
                },
                {
                    "duration": 0.25416666666666643,
                    "durationTicks": 244,
                    "midi": 55,
                    "name": "G3",
                    "ticks": 15360,
                    "time": 16,
                    "velocity": 0.9212598425196851
                },
                {
                    "duration": 0.127083333333335,
                    "durationTicks": 122,
                    "midi": 55,
                    "name": "G3",
                    "ticks": 15720,
                    "time": 16.375,
                    "velocity": 0.9212598425196851
                },
                {
                    "duration": 0.10624999999999929,
                    "durationTicks": 102,
                    "midi": 55,
                    "name": "G3",
                    "ticks": 16080,
                    "time": 16.75,
                    "velocity": 0.9212598425196851
                },
                {
                    "duration": 0.7593749999999986,
                    "durationTicks": 729,
                    "midi": 55,
                    "name": "G3",
                    "ticks": 16320,
                    "time": 17,
                    "velocity": 0.9212598425196851
                },
                {
                    "duration": 0.19791666666666785,
                    "durationTicks": 190,
                    "midi": 55,
                    "name": "G3",
                    "ticks": 17280,
                    "time": 18,
                    "velocity": 0.9212598425196851
                },
                {
                    "duration": 0.14687500000000142,
                    "durationTicks": 141,
                    "midi": 55,
                    "name": "G3",
                    "ticks": 17640,
                    "time": 18.375,
                    "velocity": 0.9212598425196851
                },
                {
                    "duration": 0.11666666666666714,
                    "durationTicks": 112,
                    "midi": 55,
                    "name": "G3",
                    "ticks": 17940,
                    "time": 18.6875,
                    "velocity": 0.9212598425196851
                },
                {
                    "duration": 0.8218749999999986,
                    "durationTicks": 789,
                    "midi": 55,
                    "name": "G3",
                    "ticks": 18240,
                    "time": 19,
                    "velocity": 0.9212598425196851
                },
                {
                    "duration": 0.252083333333335,
                    "durationTicks": 242,
                    "midi": 55,
                    "name": "G3",
                    "ticks": 19200,
                    "time": 20,
                    "velocity": 0.9212598425196851
                },
                {
                    "duration": 0.1437500000000007,
                    "durationTicks": 138,
                    "midi": 55,
                    "name": "G3",
                    "ticks": 19560,
                    "time": 20.375,
                    "velocity": 0.9212598425196851
                },
                {
                    "duration": 0.14479166666666643,
                    "durationTicks": 139,
                    "midi": 55,
                    "name": "G3",
                    "ticks": 19920,
                    "time": 20.75,
                    "velocity": 0.9212598425196851
                },
                {
                    "duration": 0.7843750000000007,
                    "durationTicks": 753,
                    "midi": 55,
                    "name": "G3",
                    "ticks": 20160,
                    "time": 21,
                    "velocity": 0.8503937007874016
                },
                {
                    "duration": 0.22812499999999858,
                    "durationTicks": 219,
                    "midi": 55,
                    "name": "G3",
                    "ticks": 21120,
                    "time": 22,
                    "velocity": 0.8503937007874016
                },
                {
                    "duration": 0.13437499999999858,
                    "durationTicks": 129,
                    "midi": 55,
                    "name": "G3",
                    "ticks": 21480,
                    "time": 22.375,
                    "velocity": 0.8503937007874016
                },
                {
                    "duration": 0.1281250000000007,
                    "durationTicks": 123,
                    "midi": 55,
                    "name": "G3",
                    "ticks": 21780,
                    "time": 22.6875,
                    "velocity": 0.9212598425196851
                },
                {
                    "duration": 0.9135416666666671,
                    "durationTicks": 877,
                    "midi": 55,
                    "name": "G3",
                    "ticks": 22080,
                    "time": 23,
                    "velocity": 0.9212598425196851
                }
            ],
            "endOfTrackTicks": 22957
        },
        {
            "channel": 0,
            "controlChanges": {},
            "pitchBends": [],
            "instrument": {
                "family": "piano",
                "number": 0,
                "name": "acoustic grand piano"
            },
            "name": "Membrane",
            "notes": [{
                    "duration": 0.18541666666666679,
                    "durationTicks": 178,
                    "midi": 55,
                    "name": "G3",
                    "ticks": 9600,
                    "time": 10,
                    "velocity": 0.9212598425196851
                },
                {
                    "duration": 0.1260416666666675,
                    "durationTicks": 121,
                    "midi": 55,
                    "name": "G3",
                    "ticks": 9960,
                    "time": 10.375,
                    "velocity": 0.9212598425196851
                },
                {
                    "duration": 0.10416666666666607,
                    "durationTicks": 100,
                    "midi": 55,
                    "name": "G3",
                    "ticks": 10320,
                    "time": 10.75,
                    "velocity": 0.8503937007874016
                },
                {
                    "duration": 0.7333333333333343,
                    "durationTicks": 704,
                    "midi": 55,
                    "name": "G3",
                    "ticks": 10560,
                    "time": 11,
                    "velocity": 0.9212598425196851
                },
                {
                    "duration": 0.2624999999999993,
                    "durationTicks": 252,
                    "midi": 55,
                    "name": "G3",
                    "ticks": 11520,
                    "time": 12,
                    "velocity": 0.9212598425196851
                },
                {
                    "duration": 0.12083333333333357,
                    "durationTicks": 116,
                    "midi": 55,
                    "name": "G3",
                    "ticks": 11820,
                    "time": 12.3125,
                    "velocity": 0.8503937007874016
                },
                {
                    "duration": 0.1437500000000007,
                    "durationTicks": 138,
                    "midi": 55,
                    "name": "G3",
                    "ticks": 12180,
                    "time": 12.6875,
                    "velocity": 0.9212598425196851
                },
                {
                    "duration": 0.7635416666666668,
                    "durationTicks": 733,
                    "midi": 55,
                    "name": "G3",
                    "ticks": 12420,
                    "time": 12.9375,
                    "velocity": 0.9212598425196851
                },
                {
                    "duration": 0.2489583333333325,
                    "durationTicks": 239,
                    "midi": 55,
                    "name": "G3",
                    "ticks": 13440,
                    "time": 14,
                    "velocity": 0.9212598425196851
                },
                {
                    "duration": 0.13124999999999964,
                    "durationTicks": 126,
                    "midi": 55,
                    "name": "G3",
                    "ticks": 13800,
                    "time": 14.375,
                    "velocity": 0.9212598425196851
                },
                {
                    "duration": 0.11770833333333286,
                    "durationTicks": 113,
                    "midi": 55,
                    "name": "G3",
                    "ticks": 14100,
                    "time": 14.6875,
                    "velocity": 0.9212598425196851
                },
                {
                    "duration": 0.8145833333333332,
                    "durationTicks": 782,
                    "midi": 55,
                    "name": "G3",
                    "ticks": 14340,
                    "time": 14.9375,
                    "velocity": 0.8503937007874016
                },
                {
                    "duration": 0.20833333333333215,
                    "durationTicks": 200,
                    "midi": 55,
                    "name": "G3",
                    "ticks": 15360,
                    "time": 16,
                    "velocity": 0.9212598425196851
                },
                {
                    "duration": 0.15625,
                    "durationTicks": 150,
                    "midi": 55,
                    "name": "G3",
                    "ticks": 15720,
                    "time": 16.375,
                    "velocity": 0.8503937007874016
                },
                {
                    "duration": 0.12916666666666643,
                    "durationTicks": 124,
                    "midi": 55,
                    "name": "G3",
                    "ticks": 16020,
                    "time": 16.6875,
                    "velocity": 0.9212598425196851
                },
                {
                    "duration": 0.8229166666666679,
                    "durationTicks": 790,
                    "midi": 55,
                    "name": "G3",
                    "ticks": 16320,
                    "time": 17,
                    "velocity": 0.8503937007874016
                },
                {
                    "duration": 0.25416666666666643,
                    "durationTicks": 244,
                    "midi": 55,
                    "name": "G3",
                    "ticks": 17280,
                    "time": 18,
                    "velocity": 0.9212598425196851
                },
                {
                    "duration": 0.127083333333335,
                    "durationTicks": 122,
                    "midi": 55,
                    "name": "G3",
                    "ticks": 17640,
                    "time": 18.375,
                    "velocity": 0.9212598425196851
                },
                {
                    "duration": 0.10624999999999929,
                    "durationTicks": 102,
                    "midi": 55,
                    "name": "G3",
                    "ticks": 18000,
                    "time": 18.75,
                    "velocity": 0.9212598425196851
                },
                {
                    "duration": 0.7593749999999986,
                    "durationTicks": 729,
                    "midi": 55,
                    "name": "G3",
                    "ticks": 18240,
                    "time": 19,
                    "velocity": 0.9212598425196851
                },
                {
                    "duration": 0.19791666666666785,
                    "durationTicks": 190,
                    "midi": 55,
                    "name": "G3",
                    "ticks": 19200,
                    "time": 20,
                    "velocity": 0.9212598425196851
                },
                {
                    "duration": 0.14687500000000142,
                    "durationTicks": 141,
                    "midi": 55,
                    "name": "G3",
                    "ticks": 19560,
                    "time": 20.375,
                    "velocity": 0.9212598425196851
                },
                {
                    "duration": 0.11666666666666714,
                    "durationTicks": 112,
                    "midi": 55,
                    "name": "G3",
                    "ticks": 19860,
                    "time": 20.6875,
                    "velocity": 0.9212598425196851
                },
                {
                    "duration": 0.8218749999999986,
                    "durationTicks": 789,
                    "midi": 55,
                    "name": "G3",
                    "ticks": 20160,
                    "time": 21,
                    "velocity": 0.9212598425196851
                },
                {
                    "duration": 0.252083333333335,
                    "durationTicks": 242,
                    "midi": 55,
                    "name": "G3",
                    "ticks": 21120,
                    "time": 22,
                    "velocity": 0.9212598425196851
                },
                {
                    "duration": 0.1437500000000007,
                    "durationTicks": 138,
                    "midi": 55,
                    "name": "G3",
                    "ticks": 21480,
                    "time": 22.375,
                    "velocity": 0.9212598425196851
                },
                {
                    "duration": 0.14479166666666643,
                    "durationTicks": 139,
                    "midi": 55,
                    "name": "G3",
                    "ticks": 21840,
                    "time": 22.75,
                    "velocity": 0.9212598425196851
                },
                {
                    "duration": 0.7843750000000007,
                    "durationTicks": 753,
                    "midi": 55,
                    "name": "G3",
                    "ticks": 22080,
                    "time": 23,
                    "velocity": 0.8503937007874016
                },
                {
                    "duration": 0.22812499999999858,
                    "durationTicks": 219,
                    "midi": 55,
                    "name": "G3",
                    "ticks": 23040,
                    "time": 24,
                    "velocity": 0.8503937007874016
                },
                {
                    "duration": 0.13437499999999858,
                    "durationTicks": 129,
                    "midi": 55,
                    "name": "G3",
                    "ticks": 23400,
                    "time": 24.375,
                    "velocity": 0.8503937007874016
                },
                {
                    "duration": 0.1281250000000007,
                    "durationTicks": 123,
                    "midi": 55,
                    "name": "G3",
                    "ticks": 23700,
                    "time": 24.6875,
                    "velocity": 0.9212598425196851
                },
                {
                    "duration": 0.9135416666666671,
                    "durationTicks": 877,
                    "midi": 55,
                    "name": "G3",
                    "ticks": 24000,
                    "time": 25,
                    "velocity": 0.9212598425196851
                }
            ],
            "endOfTrackTicks": 24877
        },
        {
            "channel": 0,
            "controlChanges": {},
            "pitchBends": [],
            "instrument": {
                "family": "piano",
                "number": 0,
                "name": "acoustic grand piano"
            },
            "name": "Membrane",
            "notes": [{
                    "duration": 0.18541666666666679,
                    "durationTicks": 178,
                    "midi": 55,
                    "name": "G3",
                    "ticks": 11520,
                    "time": 12,
                    "velocity": 0.9212598425196851
                },
                {
                    "duration": 0.1260416666666675,
                    "durationTicks": 121,
                    "midi": 55,
                    "name": "G3",
                    "ticks": 11880,
                    "time": 12.375,
                    "velocity": 0.9212598425196851
                },
                {
                    "duration": 0.10416666666666607,
                    "durationTicks": 100,
                    "midi": 55,
                    "name": "G3",
                    "ticks": 12240,
                    "time": 12.75,
                    "velocity": 0.8503937007874016
                },
                {
                    "duration": 0.7333333333333343,
                    "durationTicks": 704,
                    "midi": 55,
                    "name": "G3",
                    "ticks": 12480,
                    "time": 13,
                    "velocity": 0.9212598425196851
                },
                {
                    "duration": 0.2624999999999993,
                    "durationTicks": 252,
                    "midi": 55,
                    "name": "G3",
                    "ticks": 13440,
                    "time": 14,
                    "velocity": 0.9212598425196851
                },
                {
                    "duration": 0.12083333333333357,
                    "durationTicks": 116,
                    "midi": 55,
                    "name": "G3",
                    "ticks": 13740,
                    "time": 14.3125,
                    "velocity": 0.8503937007874016
                },
                {
                    "duration": 0.1437500000000007,
                    "durationTicks": 138,
                    "midi": 55,
                    "name": "G3",
                    "ticks": 14100,
                    "time": 14.6875,
                    "velocity": 0.9212598425196851
                },
                {
                    "duration": 0.7635416666666668,
                    "durationTicks": 733,
                    "midi": 55,
                    "name": "G3",
                    "ticks": 14340,
                    "time": 14.9375,
                    "velocity": 0.9212598425196851
                },
                {
                    "duration": 0.24895833333333428,
                    "durationTicks": 239,
                    "midi": 55,
                    "name": "G3",
                    "ticks": 15360,
                    "time": 16,
                    "velocity": 0.9212598425196851
                },
                {
                    "duration": 0.13125000000000142,
                    "durationTicks": 126,
                    "midi": 55,
                    "name": "G3",
                    "ticks": 15720,
                    "time": 16.375,
                    "velocity": 0.9212598425196851
                },
                {
                    "duration": 0.11770833333333286,
                    "durationTicks": 113,
                    "midi": 55,
                    "name": "G3",
                    "ticks": 16020,
                    "time": 16.6875,
                    "velocity": 0.9212598425196851
                },
                {
                    "duration": 0.814583333333335,
                    "durationTicks": 782,
                    "midi": 55,
                    "name": "G3",
                    "ticks": 16260,
                    "time": 16.9375,
                    "velocity": 0.8503937007874016
                },
                {
                    "duration": 0.20833333333333215,
                    "durationTicks": 200,
                    "midi": 55,
                    "name": "G3",
                    "ticks": 17280,
                    "time": 18,
                    "velocity": 0.9212598425196851
                },
                {
                    "duration": 0.15625,
                    "durationTicks": 150,
                    "midi": 55,
                    "name": "G3",
                    "ticks": 17640,
                    "time": 18.375,
                    "velocity": 0.8503937007874016
                },
                {
                    "duration": 0.12916666666666643,
                    "durationTicks": 124,
                    "midi": 55,
                    "name": "G3",
                    "ticks": 17940,
                    "time": 18.6875,
                    "velocity": 0.9212598425196851
                },
                {
                    "duration": 0.8229166666666679,
                    "durationTicks": 790,
                    "midi": 55,
                    "name": "G3",
                    "ticks": 18240,
                    "time": 19,
                    "velocity": 0.8503937007874016
                },
                {
                    "duration": 0.25416666666666643,
                    "durationTicks": 244,
                    "midi": 55,
                    "name": "G3",
                    "ticks": 19200,
                    "time": 20,
                    "velocity": 0.9212598425196851
                },
                {
                    "duration": 0.127083333333335,
                    "durationTicks": 122,
                    "midi": 55,
                    "name": "G3",
                    "ticks": 19560,
                    "time": 20.375,
                    "velocity": 0.9212598425196851
                },
                {
                    "duration": 0.10624999999999929,
                    "durationTicks": 102,
                    "midi": 55,
                    "name": "G3",
                    "ticks": 19920,
                    "time": 20.75,
                    "velocity": 0.9212598425196851
                },
                {
                    "duration": 0.7593749999999986,
                    "durationTicks": 729,
                    "midi": 55,
                    "name": "G3",
                    "ticks": 20160,
                    "time": 21,
                    "velocity": 0.9212598425196851
                },
                {
                    "duration": 0.19791666666666785,
                    "durationTicks": 190,
                    "midi": 55,
                    "name": "G3",
                    "ticks": 21120,
                    "time": 22,
                    "velocity": 0.9212598425196851
                },
                {
                    "duration": 0.14687500000000142,
                    "durationTicks": 141,
                    "midi": 55,
                    "name": "G3",
                    "ticks": 21480,
                    "time": 22.375,
                    "velocity": 0.9212598425196851
                },
                {
                    "duration": 0.11666666666666714,
                    "durationTicks": 112,
                    "midi": 55,
                    "name": "G3",
                    "ticks": 21780,
                    "time": 22.6875,
                    "velocity": 0.9212598425196851
                },
                {
                    "duration": 0.8218749999999986,
                    "durationTicks": 789,
                    "midi": 55,
                    "name": "G3",
                    "ticks": 22080,
                    "time": 23,
                    "velocity": 0.9212598425196851
                },
                {
                    "duration": 0.25208333333333144,
                    "durationTicks": 242,
                    "midi": 55,
                    "name": "G3",
                    "ticks": 23040,
                    "time": 24,
                    "velocity": 0.9212598425196851
                },
                {
                    "duration": 0.1437500000000007,
                    "durationTicks": 138,
                    "midi": 55,
                    "name": "G3",
                    "ticks": 23400,
                    "time": 24.375,
                    "velocity": 0.9212598425196851
                },
                {
                    "duration": 0.14479166666666643,
                    "durationTicks": 139,
                    "midi": 55,
                    "name": "G3",
                    "ticks": 23760,
                    "time": 24.75,
                    "velocity": 0.9212598425196851
                },
                {
                    "duration": 0.7843750000000007,
                    "durationTicks": 753,
                    "midi": 55,
                    "name": "G3",
                    "ticks": 24000,
                    "time": 25,
                    "velocity": 0.8503937007874016
                },
                {
                    "duration": 0.22812499999999858,
                    "durationTicks": 219,
                    "midi": 55,
                    "name": "G3",
                    "ticks": 24960,
                    "time": 26,
                    "velocity": 0.8503937007874016
                },
                {
                    "duration": 0.13437499999999858,
                    "durationTicks": 129,
                    "midi": 55,
                    "name": "G3",
                    "ticks": 25320,
                    "time": 26.375,
                    "velocity": 0.8503937007874016
                },
                {
                    "duration": 0.1281250000000007,
                    "durationTicks": 123,
                    "midi": 55,
                    "name": "G3",
                    "ticks": 25620,
                    "time": 26.6875,
                    "velocity": 0.9212598425196851
                },
                {
                    "duration": 0.9135416666666671,
                    "durationTicks": 877,
                    "midi": 55,
                    "name": "G3",
                    "ticks": 25920,
                    "time": 27,
                    "velocity": 0.9212598425196851
                }
            ],
            "endOfTrackTicks": 26797
        },
        {
            "channel": 0,
            "controlChanges": {},
            "pitchBends": [],
            "instrument": {
                "family": "piano",
                "number": 0,
                "name": "acoustic grand piano"
            },
            "name": "Membrane",
            "notes": [{
                    "duration": 0.18541666666666679,
                    "durationTicks": 178,
                    "midi": 55,
                    "name": "G3",
                    "ticks": 13440,
                    "time": 14,
                    "velocity": 0.9212598425196851
                },
                {
                    "duration": 0.1260416666666675,
                    "durationTicks": 121,
                    "midi": 55,
                    "name": "G3",
                    "ticks": 13800,
                    "time": 14.375,
                    "velocity": 0.9212598425196851
                },
                {
                    "duration": 0.10416666666666607,
                    "durationTicks": 100,
                    "midi": 55,
                    "name": "G3",
                    "ticks": 14160,
                    "time": 14.75,
                    "velocity": 0.8503937007874016
                },
                {
                    "duration": 0.7333333333333343,
                    "durationTicks": 704,
                    "midi": 55,
                    "name": "G3",
                    "ticks": 14400,
                    "time": 15,
                    "velocity": 0.9212598425196851
                },
                {
                    "duration": 0.2624999999999993,
                    "durationTicks": 252,
                    "midi": 55,
                    "name": "G3",
                    "ticks": 15360,
                    "time": 16,
                    "velocity": 0.9212598425196851
                },
                {
                    "duration": 0.12083333333333357,
                    "durationTicks": 116,
                    "midi": 55,
                    "name": "G3",
                    "ticks": 15660,
                    "time": 16.3125,
                    "velocity": 0.8503937007874016
                },
                {
                    "duration": 0.1437500000000007,
                    "durationTicks": 138,
                    "midi": 55,
                    "name": "G3",
                    "ticks": 16020,
                    "time": 16.6875,
                    "velocity": 0.9212598425196851
                },
                {
                    "duration": 0.763541666666665,
                    "durationTicks": 733,
                    "midi": 55,
                    "name": "G3",
                    "ticks": 16260,
                    "time": 16.9375,
                    "velocity": 0.9212598425196851
                },
                {
                    "duration": 0.24895833333333428,
                    "durationTicks": 239,
                    "midi": 55,
                    "name": "G3",
                    "ticks": 17280,
                    "time": 18,
                    "velocity": 0.9212598425196851
                },
                {
                    "duration": 0.13125000000000142,
                    "durationTicks": 126,
                    "midi": 55,
                    "name": "G3",
                    "ticks": 17640,
                    "time": 18.375,
                    "velocity": 0.9212598425196851
                },
                {
                    "duration": 0.11770833333333286,
                    "durationTicks": 113,
                    "midi": 55,
                    "name": "G3",
                    "ticks": 17940,
                    "time": 18.6875,
                    "velocity": 0.9212598425196851
                },
                {
                    "duration": 0.814583333333335,
                    "durationTicks": 782,
                    "midi": 55,
                    "name": "G3",
                    "ticks": 18180,
                    "time": 18.9375,
                    "velocity": 0.8503937007874016
                },
                {
                    "duration": 0.20833333333333215,
                    "durationTicks": 200,
                    "midi": 55,
                    "name": "G3",
                    "ticks": 19200,
                    "time": 20,
                    "velocity": 0.9212598425196851
                },
                {
                    "duration": 0.15625,
                    "durationTicks": 150,
                    "midi": 55,
                    "name": "G3",
                    "ticks": 19560,
                    "time": 20.375,
                    "velocity": 0.8503937007874016
                },
                {
                    "duration": 0.12916666666666643,
                    "durationTicks": 124,
                    "midi": 55,
                    "name": "G3",
                    "ticks": 19860,
                    "time": 20.6875,
                    "velocity": 0.9212598425196851
                },
                {
                    "duration": 0.8229166666666679,
                    "durationTicks": 790,
                    "midi": 55,
                    "name": "G3",
                    "ticks": 20160,
                    "time": 21,
                    "velocity": 0.8503937007874016
                },
                {
                    "duration": 0.25416666666666643,
                    "durationTicks": 244,
                    "midi": 55,
                    "name": "G3",
                    "ticks": 21120,
                    "time": 22,
                    "velocity": 0.9212598425196851
                },
                {
                    "duration": 0.127083333333335,
                    "durationTicks": 122,
                    "midi": 55,
                    "name": "G3",
                    "ticks": 21480,
                    "time": 22.375,
                    "velocity": 0.9212598425196851
                },
                {
                    "duration": 0.10624999999999929,
                    "durationTicks": 102,
                    "midi": 55,
                    "name": "G3",
                    "ticks": 21840,
                    "time": 22.75,
                    "velocity": 0.9212598425196851
                },
                {
                    "duration": 0.7593749999999986,
                    "durationTicks": 729,
                    "midi": 55,
                    "name": "G3",
                    "ticks": 22080,
                    "time": 23,
                    "velocity": 0.9212598425196851
                },
                {
                    "duration": 0.19791666666666785,
                    "durationTicks": 190,
                    "midi": 55,
                    "name": "G3",
                    "ticks": 23040,
                    "time": 24,
                    "velocity": 0.9212598425196851
                },
                {
                    "duration": 0.14687500000000142,
                    "durationTicks": 141,
                    "midi": 55,
                    "name": "G3",
                    "ticks": 23400,
                    "time": 24.375,
                    "velocity": 0.9212598425196851
                },
                {
                    "duration": 0.11666666666666714,
                    "durationTicks": 112,
                    "midi": 55,
                    "name": "G3",
                    "ticks": 23700,
                    "time": 24.6875,
                    "velocity": 0.9212598425196851
                },
                {
                    "duration": 0.8218749999999986,
                    "durationTicks": 789,
                    "midi": 55,
                    "name": "G3",
                    "ticks": 24000,
                    "time": 25,
                    "velocity": 0.9212598425196851
                },
                {
                    "duration": 0.25208333333333144,
                    "durationTicks": 242,
                    "midi": 55,
                    "name": "G3",
                    "ticks": 24960,
                    "time": 26,
                    "velocity": 0.9212598425196851
                },
                {
                    "duration": 0.1437500000000007,
                    "durationTicks": 138,
                    "midi": 55,
                    "name": "G3",
                    "ticks": 25320,
                    "time": 26.375,
                    "velocity": 0.9212598425196851
                },
                {
                    "duration": 0.14479166666666643,
                    "durationTicks": 139,
                    "midi": 55,
                    "name": "G3",
                    "ticks": 25680,
                    "time": 26.75,
                    "velocity": 0.9212598425196851
                },
                {
                    "duration": 0.7843750000000007,
                    "durationTicks": 753,
                    "midi": 55,
                    "name": "G3",
                    "ticks": 25920,
                    "time": 27,
                    "velocity": 0.8503937007874016
                },
                {
                    "duration": 0.22812499999999858,
                    "durationTicks": 219,
                    "midi": 55,
                    "name": "G3",
                    "ticks": 26880,
                    "time": 28,
                    "velocity": 0.8503937007874016
                },
                {
                    "duration": 0.13437499999999858,
                    "durationTicks": 129,
                    "midi": 55,
                    "name": "G3",
                    "ticks": 27240,
                    "time": 28.375,
                    "velocity": 0.8503937007874016
                },
                {
                    "duration": 0.1281250000000007,
                    "durationTicks": 123,
                    "midi": 55,
                    "name": "G3",
                    "ticks": 27540,
                    "time": 28.6875,
                    "velocity": 0.9212598425196851
                },
                {
                    "duration": 0.9135416666666671,
                    "durationTicks": 877,
                    "midi": 55,
                    "name": "G3",
                    "ticks": 27840,
                    "time": 29,
                    "velocity": 0.9212598425196851
                }
            ],
            "endOfTrackTicks": 28717
        },
        {
            "channel": 0,
            "controlChanges": {},
            "pitchBends": [],
            "instrument": {
                "family": "piano",
                "number": 0,
                "name": "acoustic grand piano"
            },
            "name": "Membrane",
            "notes": [{
                    "duration": 0.185416666666665,
                    "durationTicks": 178,
                    "midi": 55,
                    "name": "G3",
                    "ticks": 15360,
                    "time": 16,
                    "velocity": 0.9212598425196851
                },
                {
                    "duration": 0.12604166666666572,
                    "durationTicks": 121,
                    "midi": 55,
                    "name": "G3",
                    "ticks": 15720,
                    "time": 16.375,
                    "velocity": 0.9212598425196851
                },
                {
                    "duration": 0.10416666666666785,
                    "durationTicks": 100,
                    "midi": 55,
                    "name": "G3",
                    "ticks": 16080,
                    "time": 16.75,
                    "velocity": 0.8503937007874016
                },
                {
                    "duration": 0.7333333333333343,
                    "durationTicks": 704,
                    "midi": 55,
                    "name": "G3",
                    "ticks": 16320,
                    "time": 17,
                    "velocity": 0.9212598425196851
                },
                {
                    "duration": 0.2624999999999993,
                    "durationTicks": 252,
                    "midi": 55,
                    "name": "G3",
                    "ticks": 17280,
                    "time": 18,
                    "velocity": 0.9212598425196851
                },
                {
                    "duration": 0.12083333333333357,
                    "durationTicks": 116,
                    "midi": 55,
                    "name": "G3",
                    "ticks": 17580,
                    "time": 18.3125,
                    "velocity": 0.8503937007874016
                },
                {
                    "duration": 0.1437500000000007,
                    "durationTicks": 138,
                    "midi": 55,
                    "name": "G3",
                    "ticks": 17940,
                    "time": 18.6875,
                    "velocity": 0.9212598425196851
                },
                {
                    "duration": 0.763541666666665,
                    "durationTicks": 733,
                    "midi": 55,
                    "name": "G3",
                    "ticks": 18180,
                    "time": 18.9375,
                    "velocity": 0.9212598425196851
                },
                {
                    "duration": 0.24895833333333428,
                    "durationTicks": 239,
                    "midi": 55,
                    "name": "G3",
                    "ticks": 19200,
                    "time": 20,
                    "velocity": 0.9212598425196851
                },
                {
                    "duration": 0.13125000000000142,
                    "durationTicks": 126,
                    "midi": 55,
                    "name": "G3",
                    "ticks": 19560,
                    "time": 20.375,
                    "velocity": 0.9212598425196851
                },
                {
                    "duration": 0.11770833333333286,
                    "durationTicks": 113,
                    "midi": 55,
                    "name": "G3",
                    "ticks": 19860,
                    "time": 20.6875,
                    "velocity": 0.9212598425196851
                },
                {
                    "duration": 0.814583333333335,
                    "durationTicks": 782,
                    "midi": 55,
                    "name": "G3",
                    "ticks": 20100,
                    "time": 20.9375,
                    "velocity": 0.8503937007874016
                },
                {
                    "duration": 0.20833333333333215,
                    "durationTicks": 200,
                    "midi": 55,
                    "name": "G3",
                    "ticks": 21120,
                    "time": 22,
                    "velocity": 0.9212598425196851
                },
                {
                    "duration": 0.15625,
                    "durationTicks": 150,
                    "midi": 55,
                    "name": "G3",
                    "ticks": 21480,
                    "time": 22.375,
                    "velocity": 0.8503937007874016
                },
                {
                    "duration": 0.12916666666666643,
                    "durationTicks": 124,
                    "midi": 55,
                    "name": "G3",
                    "ticks": 21780,
                    "time": 22.6875,
                    "velocity": 0.9212598425196851
                },
                {
                    "duration": 0.8229166666666679,
                    "durationTicks": 790,
                    "midi": 55,
                    "name": "G3",
                    "ticks": 22080,
                    "time": 23,
                    "velocity": 0.8503937007874016
                },
                {
                    "duration": 0.25416666666666643,
                    "durationTicks": 244,
                    "midi": 55,
                    "name": "G3",
                    "ticks": 23040,
                    "time": 24,
                    "velocity": 0.9212598425196851
                },
                {
                    "duration": 0.12708333333333144,
                    "durationTicks": 122,
                    "midi": 55,
                    "name": "G3",
                    "ticks": 23400,
                    "time": 24.375,
                    "velocity": 0.9212598425196851
                },
                {
                    "duration": 0.10624999999999929,
                    "durationTicks": 102,
                    "midi": 55,
                    "name": "G3",
                    "ticks": 23760,
                    "time": 24.75,
                    "velocity": 0.9212598425196851
                },
                {
                    "duration": 0.7593749999999986,
                    "durationTicks": 729,
                    "midi": 55,
                    "name": "G3",
                    "ticks": 24000,
                    "time": 25,
                    "velocity": 0.9212598425196851
                },
                {
                    "duration": 0.19791666666666785,
                    "durationTicks": 190,
                    "midi": 55,
                    "name": "G3",
                    "ticks": 24960,
                    "time": 26,
                    "velocity": 0.9212598425196851
                },
                {
                    "duration": 0.14687500000000142,
                    "durationTicks": 141,
                    "midi": 55,
                    "name": "G3",
                    "ticks": 25320,
                    "time": 26.375,
                    "velocity": 0.9212598425196851
                },
                {
                    "duration": 0.11666666666666714,
                    "durationTicks": 112,
                    "midi": 55,
                    "name": "G3",
                    "ticks": 25620,
                    "time": 26.6875,
                    "velocity": 0.9212598425196851
                },
                {
                    "duration": 0.8218749999999986,
                    "durationTicks": 789,
                    "midi": 55,
                    "name": "G3",
                    "ticks": 25920,
                    "time": 27,
                    "velocity": 0.9212598425196851
                },
                {
                    "duration": 0.25208333333333144,
                    "durationTicks": 242,
                    "midi": 55,
                    "name": "G3",
                    "ticks": 26880,
                    "time": 28,
                    "velocity": 0.9212598425196851
                },
                {
                    "duration": 0.1437500000000007,
                    "durationTicks": 138,
                    "midi": 55,
                    "name": "G3",
                    "ticks": 27240,
                    "time": 28.375,
                    "velocity": 0.9212598425196851
                },
                {
                    "duration": 0.14479166666666643,
                    "durationTicks": 139,
                    "midi": 55,
                    "name": "G3",
                    "ticks": 27600,
                    "time": 28.75,
                    "velocity": 0.9212598425196851
                },
                {
                    "duration": 0.7843750000000007,
                    "durationTicks": 753,
                    "midi": 55,
                    "name": "G3",
                    "ticks": 27840,
                    "time": 29,
                    "velocity": 0.8503937007874016
                },
                {
                    "duration": 0.22812499999999858,
                    "durationTicks": 219,
                    "midi": 55,
                    "name": "G3",
                    "ticks": 28800,
                    "time": 30,
                    "velocity": 0.8503937007874016
                },
                {
                    "duration": 0.13437499999999858,
                    "durationTicks": 129,
                    "midi": 55,
                    "name": "G3",
                    "ticks": 29160,
                    "time": 30.375,
                    "velocity": 0.8503937007874016
                },
                {
                    "duration": 0.1281250000000007,
                    "durationTicks": 123,
                    "midi": 55,
                    "name": "G3",
                    "ticks": 29460,
                    "time": 30.6875,
                    "velocity": 0.9212598425196851
                },
                {
                    "duration": 0.9135416666666671,
                    "durationTicks": 877,
                    "midi": 55,
                    "name": "G3",
                    "ticks": 29760,
                    "time": 31,
                    "velocity": 0.9212598425196851
                }
            ],
            "endOfTrackTicks": 30637
        },
        {
            "channel": 0,
            "controlChanges": {},
            "pitchBends": [],
            "instrument": {
                "family": "piano",
                "number": 0,
                "name": "acoustic grand piano"
            },
            "name": "Membrane",
            "notes": [{
                    "duration": 0.185416666666665,
                    "durationTicks": 178,
                    "midi": 55,
                    "name": "G3",
                    "ticks": 17280,
                    "time": 18,
                    "velocity": 0.9212598425196851
                },
                {
                    "duration": 0.12604166666666572,
                    "durationTicks": 121,
                    "midi": 55,
                    "name": "G3",
                    "ticks": 17640,
                    "time": 18.375,
                    "velocity": 0.9212598425196851
                },
                {
                    "duration": 0.10416666666666785,
                    "durationTicks": 100,
                    "midi": 55,
                    "name": "G3",
                    "ticks": 18000,
                    "time": 18.75,
                    "velocity": 0.8503937007874016
                },
                {
                    "duration": 0.7333333333333343,
                    "durationTicks": 704,
                    "midi": 55,
                    "name": "G3",
                    "ticks": 18240,
                    "time": 19,
                    "velocity": 0.9212598425196851
                },
                {
                    "duration": 0.2624999999999993,
                    "durationTicks": 252,
                    "midi": 55,
                    "name": "G3",
                    "ticks": 19200,
                    "time": 20,
                    "velocity": 0.9212598425196851
                },
                {
                    "duration": 0.12083333333333357,
                    "durationTicks": 116,
                    "midi": 55,
                    "name": "G3",
                    "ticks": 19500,
                    "time": 20.3125,
                    "velocity": 0.8503937007874016
                },
                {
                    "duration": 0.1437500000000007,
                    "durationTicks": 138,
                    "midi": 55,
                    "name": "G3",
                    "ticks": 19860,
                    "time": 20.6875,
                    "velocity": 0.9212598425196851
                },
                {
                    "duration": 0.763541666666665,
                    "durationTicks": 733,
                    "midi": 55,
                    "name": "G3",
                    "ticks": 20100,
                    "time": 20.9375,
                    "velocity": 0.9212598425196851
                },
                {
                    "duration": 0.24895833333333428,
                    "durationTicks": 239,
                    "midi": 55,
                    "name": "G3",
                    "ticks": 21120,
                    "time": 22,
                    "velocity": 0.9212598425196851
                },
                {
                    "duration": 0.13125000000000142,
                    "durationTicks": 126,
                    "midi": 55,
                    "name": "G3",
                    "ticks": 21480,
                    "time": 22.375,
                    "velocity": 0.9212598425196851
                },
                {
                    "duration": 0.11770833333333286,
                    "durationTicks": 113,
                    "midi": 55,
                    "name": "G3",
                    "ticks": 21780,
                    "time": 22.6875,
                    "velocity": 0.9212598425196851
                },
                {
                    "duration": 0.814583333333335,
                    "durationTicks": 782,
                    "midi": 55,
                    "name": "G3",
                    "ticks": 22020,
                    "time": 22.9375,
                    "velocity": 0.8503937007874016
                },
                {
                    "duration": 0.20833333333333215,
                    "durationTicks": 200,
                    "midi": 55,
                    "name": "G3",
                    "ticks": 23040,
                    "time": 24,
                    "velocity": 0.9212598425196851
                },
                {
                    "duration": 0.15625,
                    "durationTicks": 150,
                    "midi": 55,
                    "name": "G3",
                    "ticks": 23400,
                    "time": 24.375,
                    "velocity": 0.8503937007874016
                },
                {
                    "duration": 0.12916666666666643,
                    "durationTicks": 124,
                    "midi": 55,
                    "name": "G3",
                    "ticks": 23700,
                    "time": 24.6875,
                    "velocity": 0.9212598425196851
                },
                {
                    "duration": 0.8229166666666679,
                    "durationTicks": 790,
                    "midi": 55,
                    "name": "G3",
                    "ticks": 24000,
                    "time": 25,
                    "velocity": 0.8503937007874016
                },
                {
                    "duration": 0.25416666666666643,
                    "durationTicks": 244,
                    "midi": 55,
                    "name": "G3",
                    "ticks": 24960,
                    "time": 26,
                    "velocity": 0.9212598425196851
                },
                {
                    "duration": 0.12708333333333144,
                    "durationTicks": 122,
                    "midi": 55,
                    "name": "G3",
                    "ticks": 25320,
                    "time": 26.375,
                    "velocity": 0.9212598425196851
                },
                {
                    "duration": 0.10624999999999929,
                    "durationTicks": 102,
                    "midi": 55,
                    "name": "G3",
                    "ticks": 25680,
                    "time": 26.75,
                    "velocity": 0.9212598425196851
                },
                {
                    "duration": 0.7593749999999986,
                    "durationTicks": 729,
                    "midi": 55,
                    "name": "G3",
                    "ticks": 25920,
                    "time": 27,
                    "velocity": 0.9212598425196851
                },
                {
                    "duration": 0.19791666666666785,
                    "durationTicks": 190,
                    "midi": 55,
                    "name": "G3",
                    "ticks": 26880,
                    "time": 28,
                    "velocity": 0.9212598425196851
                },
                {
                    "duration": 0.14687500000000142,
                    "durationTicks": 141,
                    "midi": 55,
                    "name": "G3",
                    "ticks": 27240,
                    "time": 28.375,
                    "velocity": 0.9212598425196851
                },
                {
                    "duration": 0.11666666666666714,
                    "durationTicks": 112,
                    "midi": 55,
                    "name": "G3",
                    "ticks": 27540,
                    "time": 28.6875,
                    "velocity": 0.9212598425196851
                },
                {
                    "duration": 0.8218749999999986,
                    "durationTicks": 789,
                    "midi": 55,
                    "name": "G3",
                    "ticks": 27840,
                    "time": 29,
                    "velocity": 0.9212598425196851
                },
                {
                    "duration": 0.25208333333333144,
                    "durationTicks": 242,
                    "midi": 55,
                    "name": "G3",
                    "ticks": 28800,
                    "time": 30,
                    "velocity": 0.9212598425196851
                },
                {
                    "duration": 0.1437500000000007,
                    "durationTicks": 138,
                    "midi": 55,
                    "name": "G3",
                    "ticks": 29160,
                    "time": 30.375,
                    "velocity": 0.9212598425196851
                },
                {
                    "duration": 0.14479166666666643,
                    "durationTicks": 139,
                    "midi": 55,
                    "name": "G3",
                    "ticks": 29520,
                    "time": 30.75,
                    "velocity": 0.9212598425196851
                },
                {
                    "duration": 0.7843750000000007,
                    "durationTicks": 753,
                    "midi": 55,
                    "name": "G3",
                    "ticks": 29760,
                    "time": 31,
                    "velocity": 0.8503937007874016
                },
                {
                    "duration": 0.22812499999999858,
                    "durationTicks": 219,
                    "midi": 55,
                    "name": "G3",
                    "ticks": 30720,
                    "time": 32,
                    "velocity": 0.8503937007874016
                },
                {
                    "duration": 0.13437499999999858,
                    "durationTicks": 129,
                    "midi": 55,
                    "name": "G3",
                    "ticks": 31080,
                    "time": 32.375,
                    "velocity": 0.8503937007874016
                },
                {
                    "duration": 0.12812499999999716,
                    "durationTicks": 123,
                    "midi": 55,
                    "name": "G3",
                    "ticks": 31380,
                    "time": 32.6875,
                    "velocity": 0.9212598425196851
                },
                {
                    "duration": 0.9135416666666671,
                    "durationTicks": 877,
                    "midi": 55,
                    "name": "G3",
                    "ticks": 31680,
                    "time": 33,
                    "velocity": 0.9212598425196851
                }
            ],
            "endOfTrackTicks": 32557
        },
        {
            "channel": 0,
            "controlChanges": {},
            "pitchBends": [],
            "instrument": {
                "family": "piano",
                "number": 0,
                "name": "acoustic grand piano"
            },
            "name": "Membrane",
            "notes": [{
                    "duration": 0.185416666666665,
                    "durationTicks": 178,
                    "midi": 55,
                    "name": "G3",
                    "ticks": 19200,
                    "time": 20,
                    "velocity": 0.9212598425196851
                },
                {
                    "duration": 0.12604166666666572,
                    "durationTicks": 121,
                    "midi": 55,
                    "name": "G3",
                    "ticks": 19560,
                    "time": 20.375,
                    "velocity": 0.9212598425196851
                },
                {
                    "duration": 0.10416666666666785,
                    "durationTicks": 100,
                    "midi": 55,
                    "name": "G3",
                    "ticks": 19920,
                    "time": 20.75,
                    "velocity": 0.8503937007874016
                },
                {
                    "duration": 0.7333333333333343,
                    "durationTicks": 704,
                    "midi": 55,
                    "name": "G3",
                    "ticks": 20160,
                    "time": 21,
                    "velocity": 0.9212598425196851
                },
                {
                    "duration": 0.2624999999999993,
                    "durationTicks": 252,
                    "midi": 55,
                    "name": "G3",
                    "ticks": 21120,
                    "time": 22,
                    "velocity": 0.9212598425196851
                },
                {
                    "duration": 0.12083333333333357,
                    "durationTicks": 116,
                    "midi": 55,
                    "name": "G3",
                    "ticks": 21420,
                    "time": 22.3125,
                    "velocity": 0.8503937007874016
                },
                {
                    "duration": 0.1437500000000007,
                    "durationTicks": 138,
                    "midi": 55,
                    "name": "G3",
                    "ticks": 21780,
                    "time": 22.6875,
                    "velocity": 0.9212598425196851
                },
                {
                    "duration": 0.763541666666665,
                    "durationTicks": 733,
                    "midi": 55,
                    "name": "G3",
                    "ticks": 22020,
                    "time": 22.9375,
                    "velocity": 0.9212598425196851
                },
                {
                    "duration": 0.24895833333333428,
                    "durationTicks": 239,
                    "midi": 55,
                    "name": "G3",
                    "ticks": 23040,
                    "time": 24,
                    "velocity": 0.9212598425196851
                },
                {
                    "duration": 0.13125000000000142,
                    "durationTicks": 126,
                    "midi": 55,
                    "name": "G3",
                    "ticks": 23400,
                    "time": 24.375,
                    "velocity": 0.9212598425196851
                },
                {
                    "duration": 0.11770833333333286,
                    "durationTicks": 113,
                    "midi": 55,
                    "name": "G3",
                    "ticks": 23700,
                    "time": 24.6875,
                    "velocity": 0.9212598425196851
                },
                {
                    "duration": 0.8145833333333314,
                    "durationTicks": 782,
                    "midi": 55,
                    "name": "G3",
                    "ticks": 23940,
                    "time": 24.9375,
                    "velocity": 0.8503937007874016
                },
                {
                    "duration": 0.20833333333333215,
                    "durationTicks": 200,
                    "midi": 55,
                    "name": "G3",
                    "ticks": 24960,
                    "time": 26,
                    "velocity": 0.9212598425196851
                },
                {
                    "duration": 0.15625,
                    "durationTicks": 150,
                    "midi": 55,
                    "name": "G3",
                    "ticks": 25320,
                    "time": 26.375,
                    "velocity": 0.8503937007874016
                },
                {
                    "duration": 0.12916666666666643,
                    "durationTicks": 124,
                    "midi": 55,
                    "name": "G3",
                    "ticks": 25620,
                    "time": 26.6875,
                    "velocity": 0.9212598425196851
                },
                {
                    "duration": 0.8229166666666679,
                    "durationTicks": 790,
                    "midi": 55,
                    "name": "G3",
                    "ticks": 25920,
                    "time": 27,
                    "velocity": 0.8503937007874016
                },
                {
                    "duration": 0.25416666666666643,
                    "durationTicks": 244,
                    "midi": 55,
                    "name": "G3",
                    "ticks": 26880,
                    "time": 28,
                    "velocity": 0.9212598425196851
                },
                {
                    "duration": 0.12708333333333144,
                    "durationTicks": 122,
                    "midi": 55,
                    "name": "G3",
                    "ticks": 27240,
                    "time": 28.375,
                    "velocity": 0.9212598425196851
                },
                {
                    "duration": 0.10624999999999929,
                    "durationTicks": 102,
                    "midi": 55,
                    "name": "G3",
                    "ticks": 27600,
                    "time": 28.75,
                    "velocity": 0.9212598425196851
                },
                {
                    "duration": 0.7593749999999986,
                    "durationTicks": 729,
                    "midi": 55,
                    "name": "G3",
                    "ticks": 27840,
                    "time": 29,
                    "velocity": 0.9212598425196851
                },
                {
                    "duration": 0.1979166666666643,
                    "durationTicks": 190,
                    "midi": 55,
                    "name": "G3",
                    "ticks": 28800,
                    "time": 30,
                    "velocity": 0.9212598425196851
                },
                {
                    "duration": 0.14687500000000142,
                    "durationTicks": 141,
                    "midi": 55,
                    "name": "G3",
                    "ticks": 29160,
                    "time": 30.375,
                    "velocity": 0.9212598425196851
                },
                {
                    "duration": 0.11666666666666714,
                    "durationTicks": 112,
                    "midi": 55,
                    "name": "G3",
                    "ticks": 29460,
                    "time": 30.6875,
                    "velocity": 0.9212598425196851
                },
                {
                    "duration": 0.8218749999999986,
                    "durationTicks": 789,
                    "midi": 55,
                    "name": "G3",
                    "ticks": 29760,
                    "time": 31,
                    "velocity": 0.9212598425196851
                },
                {
                    "duration": 0.25208333333333144,
                    "durationTicks": 242,
                    "midi": 55,
                    "name": "G3",
                    "ticks": 30720,
                    "time": 32,
                    "velocity": 0.9212598425196851
                },
                {
                    "duration": 0.14374999999999716,
                    "durationTicks": 138,
                    "midi": 55,
                    "name": "G3",
                    "ticks": 31080,
                    "time": 32.375,
                    "velocity": 0.9212598425196851
                },
                {
                    "duration": 0.14479166666666288,
                    "durationTicks": 139,
                    "midi": 55,
                    "name": "G3",
                    "ticks": 31440,
                    "time": 32.75,
                    "velocity": 0.9212598425196851
                },
                {
                    "duration": 0.7843749999999972,
                    "durationTicks": 753,
                    "midi": 55,
                    "name": "G3",
                    "ticks": 31680,
                    "time": 33,
                    "velocity": 0.8503937007874016
                },
                {
                    "duration": 0.22812499999999858,
                    "durationTicks": 219,
                    "midi": 55,
                    "name": "G3",
                    "ticks": 32640,
                    "time": 34,
                    "velocity": 0.8503937007874016
                },
                {
                    "duration": 0.13437499999999858,
                    "durationTicks": 129,
                    "midi": 55,
                    "name": "G3",
                    "ticks": 33000,
                    "time": 34.375,
                    "velocity": 0.8503937007874016
                },
                {
                    "duration": 0.12812499999999716,
                    "durationTicks": 123,
                    "midi": 55,
                    "name": "G3",
                    "ticks": 33300,
                    "time": 34.6875,
                    "velocity": 0.9212598425196851
                },
                {
                    "duration": 0.9135416666666671,
                    "durationTicks": 877,
                    "midi": 55,
                    "name": "G3",
                    "ticks": 33600,
                    "time": 35,
                    "velocity": 0.9212598425196851
                }
            ],
            "endOfTrackTicks": 34477
        },
        {
            "channel": 0,
            "controlChanges": {},
            "pitchBends": [],
            "instrument": {
                "family": "piano",
                "number": 0,
                "name": "acoustic grand piano"
            },
            "name": "Membrane",
            "notes": [{
                    "duration": 0.185416666666665,
                    "durationTicks": 178,
                    "midi": 55,
                    "name": "G3",
                    "ticks": 21120,
                    "time": 22,
                    "velocity": 0.9212598425196851
                },
                {
                    "duration": 0.12604166666666572,
                    "durationTicks": 121,
                    "midi": 55,
                    "name": "G3",
                    "ticks": 21480,
                    "time": 22.375,
                    "velocity": 0.9212598425196851
                },
                {
                    "duration": 0.10416666666666785,
                    "durationTicks": 100,
                    "midi": 55,
                    "name": "G3",
                    "ticks": 21840,
                    "time": 22.75,
                    "velocity": 0.8503937007874016
                },
                {
                    "duration": 0.7333333333333343,
                    "durationTicks": 704,
                    "midi": 55,
                    "name": "G3",
                    "ticks": 22080,
                    "time": 23,
                    "velocity": 0.9212598425196851
                },
                {
                    "duration": 0.2624999999999993,
                    "durationTicks": 252,
                    "midi": 55,
                    "name": "G3",
                    "ticks": 23040,
                    "time": 24,
                    "velocity": 0.9212598425196851
                },
                {
                    "duration": 0.12083333333333357,
                    "durationTicks": 116,
                    "midi": 55,
                    "name": "G3",
                    "ticks": 23340,
                    "time": 24.3125,
                    "velocity": 0.8503937007874016
                },
                {
                    "duration": 0.1437500000000007,
                    "durationTicks": 138,
                    "midi": 55,
                    "name": "G3",
                    "ticks": 23700,
                    "time": 24.6875,
                    "velocity": 0.9212598425196851
                },
                {
                    "duration": 0.7635416666666686,
                    "durationTicks": 733,
                    "midi": 55,
                    "name": "G3",
                    "ticks": 23940,
                    "time": 24.9375,
                    "velocity": 0.9212598425196851
                },
                {
                    "duration": 0.24895833333333428,
                    "durationTicks": 239,
                    "midi": 55,
                    "name": "G3",
                    "ticks": 24960,
                    "time": 26,
                    "velocity": 0.9212598425196851
                },
                {
                    "duration": 0.13125000000000142,
                    "durationTicks": 126,
                    "midi": 55,
                    "name": "G3",
                    "ticks": 25320,
                    "time": 26.375,
                    "velocity": 0.9212598425196851
                },
                {
                    "duration": 0.11770833333333286,
                    "durationTicks": 113,
                    "midi": 55,
                    "name": "G3",
                    "ticks": 25620,
                    "time": 26.6875,
                    "velocity": 0.9212598425196851
                },
                {
                    "duration": 0.8145833333333314,
                    "durationTicks": 782,
                    "midi": 55,
                    "name": "G3",
                    "ticks": 25860,
                    "time": 26.9375,
                    "velocity": 0.8503937007874016
                },
                {
                    "duration": 0.20833333333333215,
                    "durationTicks": 200,
                    "midi": 55,
                    "name": "G3",
                    "ticks": 26880,
                    "time": 28,
                    "velocity": 0.9212598425196851
                },
                {
                    "duration": 0.15625,
                    "durationTicks": 150,
                    "midi": 55,
                    "name": "G3",
                    "ticks": 27240,
                    "time": 28.375,
                    "velocity": 0.8503937007874016
                },
                {
                    "duration": 0.12916666666666643,
                    "durationTicks": 124,
                    "midi": 55,
                    "name": "G3",
                    "ticks": 27540,
                    "time": 28.6875,
                    "velocity": 0.9212598425196851
                },
                {
                    "duration": 0.8229166666666679,
                    "durationTicks": 790,
                    "midi": 55,
                    "name": "G3",
                    "ticks": 27840,
                    "time": 29,
                    "velocity": 0.8503937007874016
                },
                {
                    "duration": 0.25416666666666643,
                    "durationTicks": 244,
                    "midi": 55,
                    "name": "G3",
                    "ticks": 28800,
                    "time": 30,
                    "velocity": 0.9212598425196851
                },
                {
                    "duration": 0.12708333333333144,
                    "durationTicks": 122,
                    "midi": 55,
                    "name": "G3",
                    "ticks": 29160,
                    "time": 30.375,
                    "velocity": 0.9212598425196851
                },
                {
                    "duration": 0.10624999999999929,
                    "durationTicks": 102,
                    "midi": 55,
                    "name": "G3",
                    "ticks": 29520,
                    "time": 30.75,
                    "velocity": 0.9212598425196851
                },
                {
                    "duration": 0.7593749999999986,
                    "durationTicks": 729,
                    "midi": 55,
                    "name": "G3",
                    "ticks": 29760,
                    "time": 31,
                    "velocity": 0.9212598425196851
                },
                {
                    "duration": 0.1979166666666643,
                    "durationTicks": 190,
                    "midi": 55,
                    "name": "G3",
                    "ticks": 30720,
                    "time": 32,
                    "velocity": 0.9212598425196851
                },
                {
                    "duration": 0.14687500000000142,
                    "durationTicks": 141,
                    "midi": 55,
                    "name": "G3",
                    "ticks": 31080,
                    "time": 32.375,
                    "velocity": 0.9212598425196851
                },
                {
                    "duration": 0.11666666666666714,
                    "durationTicks": 112,
                    "midi": 55,
                    "name": "G3",
                    "ticks": 31380,
                    "time": 32.6875,
                    "velocity": 0.9212598425196851
                },
                {
                    "duration": 0.8218749999999986,
                    "durationTicks": 789,
                    "midi": 55,
                    "name": "G3",
                    "ticks": 31680,
                    "time": 33,
                    "velocity": 0.9212598425196851
                },
                {
                    "duration": 0.25208333333333144,
                    "durationTicks": 242,
                    "midi": 55,
                    "name": "G3",
                    "ticks": 32640,
                    "time": 34,
                    "velocity": 0.9212598425196851
                },
                {
                    "duration": 0.14374999999999716,
                    "durationTicks": 138,
                    "midi": 55,
                    "name": "G3",
                    "ticks": 33000,
                    "time": 34.375,
                    "velocity": 0.9212598425196851
                },
                {
                    "duration": 0.14479166666666288,
                    "durationTicks": 139,
                    "midi": 55,
                    "name": "G3",
                    "ticks": 33360,
                    "time": 34.75,
                    "velocity": 0.9212598425196851
                },
                {
                    "duration": 0.7843749999999972,
                    "durationTicks": 753,
                    "midi": 55,
                    "name": "G3",
                    "ticks": 33600,
                    "time": 35,
                    "velocity": 0.8503937007874016
                },
                {
                    "duration": 0.22812499999999858,
                    "durationTicks": 219,
                    "midi": 55,
                    "name": "G3",
                    "ticks": 34560,
                    "time": 36,
                    "velocity": 0.8503937007874016
                },
                {
                    "duration": 0.13437499999999858,
                    "durationTicks": 129,
                    "midi": 55,
                    "name": "G3",
                    "ticks": 34920,
                    "time": 36.375,
                    "velocity": 0.8503937007874016
                },
                {
                    "duration": 0.12812499999999716,
                    "durationTicks": 123,
                    "midi": 55,
                    "name": "G3",
                    "ticks": 35220,
                    "time": 36.6875,
                    "velocity": 0.9212598425196851
                },
                {
                    "duration": 0.9135416666666671,
                    "durationTicks": 877,
                    "midi": 55,
                    "name": "G3",
                    "ticks": 35520,
                    "time": 37,
                    "velocity": 0.9212598425196851
                }
            ],
            "endOfTrackTicks": 36397
        },
        {
            "channel": 0,
            "controlChanges": {},
            "pitchBends": [],
            "instrument": {
                "family": "piano",
                "number": 0,
                "name": "acoustic grand piano"
            },
            "name": "Membrane",
            "notes": [{
                    "duration": 0.18541666666666856,
                    "durationTicks": 178,
                    "midi": 55,
                    "name": "G3",
                    "ticks": 23040,
                    "time": 24,
                    "velocity": 0.9212598425196851
                },
                {
                    "duration": 0.12604166666666572,
                    "durationTicks": 121,
                    "midi": 55,
                    "name": "G3",
                    "ticks": 23400,
                    "time": 24.375,
                    "velocity": 0.9212598425196851
                },
                {
                    "duration": 0.10416666666666785,
                    "durationTicks": 100,
                    "midi": 55,
                    "name": "G3",
                    "ticks": 23760,
                    "time": 24.75,
                    "velocity": 0.8503937007874016
                },
                {
                    "duration": 0.7333333333333343,
                    "durationTicks": 704,
                    "midi": 55,
                    "name": "G3",
                    "ticks": 24000,
                    "time": 25,
                    "velocity": 0.9212598425196851
                },
                {
                    "duration": 0.2624999999999993,
                    "durationTicks": 252,
                    "midi": 55,
                    "name": "G3",
                    "ticks": 24960,
                    "time": 26,
                    "velocity": 0.9212598425196851
                },
                {
                    "duration": 0.12083333333333357,
                    "durationTicks": 116,
                    "midi": 55,
                    "name": "G3",
                    "ticks": 25260,
                    "time": 26.3125,
                    "velocity": 0.8503937007874016
                },
                {
                    "duration": 0.1437500000000007,
                    "durationTicks": 138,
                    "midi": 55,
                    "name": "G3",
                    "ticks": 25620,
                    "time": 26.6875,
                    "velocity": 0.9212598425196851
                },
                {
                    "duration": 0.7635416666666686,
                    "durationTicks": 733,
                    "midi": 55,
                    "name": "G3",
                    "ticks": 25860,
                    "time": 26.9375,
                    "velocity": 0.9212598425196851
                },
                {
                    "duration": 0.24895833333333428,
                    "durationTicks": 239,
                    "midi": 55,
                    "name": "G3",
                    "ticks": 26880,
                    "time": 28,
                    "velocity": 0.9212598425196851
                },
                {
                    "duration": 0.13125000000000142,
                    "durationTicks": 126,
                    "midi": 55,
                    "name": "G3",
                    "ticks": 27240,
                    "time": 28.375,
                    "velocity": 0.9212598425196851
                },
                {
                    "duration": 0.11770833333333286,
                    "durationTicks": 113,
                    "midi": 55,
                    "name": "G3",
                    "ticks": 27540,
                    "time": 28.6875,
                    "velocity": 0.9212598425196851
                },
                {
                    "duration": 0.8145833333333314,
                    "durationTicks": 782,
                    "midi": 55,
                    "name": "G3",
                    "ticks": 27780,
                    "time": 28.9375,
                    "velocity": 0.8503937007874016
                },
                {
                    "duration": 0.2083333333333357,
                    "durationTicks": 200,
                    "midi": 55,
                    "name": "G3",
                    "ticks": 28800,
                    "time": 30,
                    "velocity": 0.9212598425196851
                },
                {
                    "duration": 0.15625,
                    "durationTicks": 150,
                    "midi": 55,
                    "name": "G3",
                    "ticks": 29160,
                    "time": 30.375,
                    "velocity": 0.8503937007874016
                },
                {
                    "duration": 0.12916666666666643,
                    "durationTicks": 124,
                    "midi": 55,
                    "name": "G3",
                    "ticks": 29460,
                    "time": 30.6875,
                    "velocity": 0.9212598425196851
                },
                {
                    "duration": 0.8229166666666643,
                    "durationTicks": 790,
                    "midi": 55,
                    "name": "G3",
                    "ticks": 29760,
                    "time": 31,
                    "velocity": 0.8503937007874016
                },
                {
                    "duration": 0.2541666666666629,
                    "durationTicks": 244,
                    "midi": 55,
                    "name": "G3",
                    "ticks": 30720,
                    "time": 32,
                    "velocity": 0.9212598425196851
                },
                {
                    "duration": 0.12708333333333144,
                    "durationTicks": 122,
                    "midi": 55,
                    "name": "G3",
                    "ticks": 31080,
                    "time": 32.375,
                    "velocity": 0.9212598425196851
                },
                {
                    "duration": 0.10625000000000284,
                    "durationTicks": 102,
                    "midi": 55,
                    "name": "G3",
                    "ticks": 31440,
                    "time": 32.75,
                    "velocity": 0.9212598425196851
                },
                {
                    "duration": 0.7593749999999986,
                    "durationTicks": 729,
                    "midi": 55,
                    "name": "G3",
                    "ticks": 31680,
                    "time": 33,
                    "velocity": 0.9212598425196851
                },
                {
                    "duration": 0.1979166666666643,
                    "durationTicks": 190,
                    "midi": 55,
                    "name": "G3",
                    "ticks": 32640,
                    "time": 34,
                    "velocity": 0.9212598425196851
                },
                {
                    "duration": 0.14687500000000142,
                    "durationTicks": 141,
                    "midi": 55,
                    "name": "G3",
                    "ticks": 33000,
                    "time": 34.375,
                    "velocity": 0.9212598425196851
                },
                {
                    "duration": 0.11666666666666714,
                    "durationTicks": 112,
                    "midi": 55,
                    "name": "G3",
                    "ticks": 33300,
                    "time": 34.6875,
                    "velocity": 0.9212598425196851
                },
                {
                    "duration": 0.8218749999999986,
                    "durationTicks": 789,
                    "midi": 55,
                    "name": "G3",
                    "ticks": 33600,
                    "time": 35,
                    "velocity": 0.9212598425196851
                },
                {
                    "duration": 0.25208333333333144,
                    "durationTicks": 242,
                    "midi": 55,
                    "name": "G3",
                    "ticks": 34560,
                    "time": 36,
                    "velocity": 0.9212598425196851
                },
                {
                    "duration": 0.14374999999999716,
                    "durationTicks": 138,
                    "midi": 55,
                    "name": "G3",
                    "ticks": 34920,
                    "time": 36.375,
                    "velocity": 0.9212598425196851
                },
                {
                    "duration": 0.14479166666666288,
                    "durationTicks": 139,
                    "midi": 55,
                    "name": "G3",
                    "ticks": 35280,
                    "time": 36.75,
                    "velocity": 0.9212598425196851
                },
                {
                    "duration": 0.7843749999999972,
                    "durationTicks": 753,
                    "midi": 55,
                    "name": "G3",
                    "ticks": 35520,
                    "time": 37,
                    "velocity": 0.8503937007874016
                },
                {
                    "duration": 0.22812499999999858,
                    "durationTicks": 219,
                    "midi": 55,
                    "name": "G3",
                    "ticks": 36480,
                    "time": 38,
                    "velocity": 0.8503937007874016
                },
                {
                    "duration": 0.13437499999999858,
                    "durationTicks": 129,
                    "midi": 55,
                    "name": "G3",
                    "ticks": 36840,
                    "time": 38.375,
                    "velocity": 0.8503937007874016
                },
                {
                    "duration": 0.12812499999999716,
                    "durationTicks": 123,
                    "midi": 55,
                    "name": "G3",
                    "ticks": 37140,
                    "time": 38.6875,
                    "velocity": 0.9212598425196851
                },
                {
                    "duration": 0.9135416666666671,
                    "durationTicks": 877,
                    "midi": 55,
                    "name": "G3",
                    "ticks": 37440,
                    "time": 39,
                    "velocity": 0.9212598425196851
                }
            ],
            "endOfTrackTicks": 38317
        },
        {
            "channel": 0,
            "controlChanges": {},
            "pitchBends": [],
            "instrument": {
                "family": "piano",
                "number": 0,
                "name": "acoustic grand piano"
            },
            "name": "Membrane",
            "notes": [{
                    "duration": 0.18541666666666856,
                    "durationTicks": 178,
                    "midi": 55,
                    "name": "G3",
                    "ticks": 26880,
                    "time": 28,
                    "velocity": 0.9212598425196851
                },
                {
                    "duration": 0.12604166666666572,
                    "durationTicks": 121,
                    "midi": 55,
                    "name": "G3",
                    "ticks": 27240,
                    "time": 28.375,
                    "velocity": 0.9212598425196851
                },
                {
                    "duration": 0.10416666666666785,
                    "durationTicks": 100,
                    "midi": 55,
                    "name": "G3",
                    "ticks": 27600,
                    "time": 28.75,
                    "velocity": 0.8503937007874016
                },
                {
                    "duration": 0.7333333333333343,
                    "durationTicks": 704,
                    "midi": 55,
                    "name": "G3",
                    "ticks": 27840,
                    "time": 29,
                    "velocity": 0.9212598425196851
                },
                {
                    "duration": 0.2624999999999993,
                    "durationTicks": 252,
                    "midi": 55,
                    "name": "G3",
                    "ticks": 28800,
                    "time": 30,
                    "velocity": 0.9212598425196851
                },
                {
                    "duration": 0.12083333333333357,
                    "durationTicks": 116,
                    "midi": 55,
                    "name": "G3",
                    "ticks": 29100,
                    "time": 30.3125,
                    "velocity": 0.8503937007874016
                },
                {
                    "duration": 0.1437500000000007,
                    "durationTicks": 138,
                    "midi": 55,
                    "name": "G3",
                    "ticks": 29460,
                    "time": 30.6875,
                    "velocity": 0.9212598425196851
                },
                {
                    "duration": 0.7635416666666686,
                    "durationTicks": 733,
                    "midi": 55,
                    "name": "G3",
                    "ticks": 29700,
                    "time": 30.9375,
                    "velocity": 0.9212598425196851
                },
                {
                    "duration": 0.24895833333333428,
                    "durationTicks": 239,
                    "midi": 55,
                    "name": "G3",
                    "ticks": 30720,
                    "time": 32,
                    "velocity": 0.9212598425196851
                },
                {
                    "duration": 0.13125000000000142,
                    "durationTicks": 126,
                    "midi": 55,
                    "name": "G3",
                    "ticks": 31080,
                    "time": 32.375,
                    "velocity": 0.9212598425196851
                },
                {
                    "duration": 0.11770833333333286,
                    "durationTicks": 113,
                    "midi": 55,
                    "name": "G3",
                    "ticks": 31380,
                    "time": 32.6875,
                    "velocity": 0.9212598425196851
                },
                {
                    "duration": 0.8145833333333314,
                    "durationTicks": 782,
                    "midi": 55,
                    "name": "G3",
                    "ticks": 31620,
                    "time": 32.9375,
                    "velocity": 0.8503937007874016
                }
            ],
            "endOfTrackTicks": 32402
        },
        {
            "channel": 0,
            "controlChanges": {},
            "pitchBends": [],
            "instrument": {
                "family": "piano",
                "number": 0,
                "name": "acoustic grand piano"
            },
            "name": "Membrane",
            "notes": [{
                    "duration": 0.18541666666666856,
                    "durationTicks": 178,
                    "midi": 55,
                    "name": "G3",
                    "ticks": 28800,
                    "time": 30,
                    "velocity": 0.9212598425196851
                },
                {
                    "duration": 0.12604166666666572,
                    "durationTicks": 121,
                    "midi": 55,
                    "name": "G3",
                    "ticks": 29160,
                    "time": 30.375,
                    "velocity": 0.9212598425196851
                },
                {
                    "duration": 0.1041666666666643,
                    "durationTicks": 100,
                    "midi": 55,
                    "name": "G3",
                    "ticks": 29520,
                    "time": 30.75,
                    "velocity": 0.8503937007874016
                },
                {
                    "duration": 0.7333333333333343,
                    "durationTicks": 704,
                    "midi": 55,
                    "name": "G3",
                    "ticks": 29760,
                    "time": 31,
                    "velocity": 0.9212598425196851
                },
                {
                    "duration": 0.26250000000000284,
                    "durationTicks": 252,
                    "midi": 55,
                    "name": "G3",
                    "ticks": 30720,
                    "time": 32,
                    "velocity": 0.9212598425196851
                },
                {
                    "duration": 0.12083333333333712,
                    "durationTicks": 116,
                    "midi": 55,
                    "name": "G3",
                    "ticks": 31020,
                    "time": 32.3125,
                    "velocity": 0.8503937007874016
                },
                {
                    "duration": 0.14374999999999716,
                    "durationTicks": 138,
                    "midi": 55,
                    "name": "G3",
                    "ticks": 31380,
                    "time": 32.6875,
                    "velocity": 0.9212598425196851
                },
                {
                    "duration": 0.7635416666666686,
                    "durationTicks": 733,
                    "midi": 55,
                    "name": "G3",
                    "ticks": 31620,
                    "time": 32.9375,
                    "velocity": 0.9212598425196851
                },
                {
                    "duration": 0.24895833333333428,
                    "durationTicks": 239,
                    "midi": 55,
                    "name": "G3",
                    "ticks": 32640,
                    "time": 34,
                    "velocity": 0.9212598425196851
                },
                {
                    "duration": 0.13125000000000142,
                    "durationTicks": 126,
                    "midi": 55,
                    "name": "G3",
                    "ticks": 33000,
                    "time": 34.375,
                    "velocity": 0.9212598425196851
                },
                {
                    "duration": 0.11770833333333286,
                    "durationTicks": 113,
                    "midi": 55,
                    "name": "G3",
                    "ticks": 33300,
                    "time": 34.6875,
                    "velocity": 0.9212598425196851
                },
                {
                    "duration": 0.8145833333333314,
                    "durationTicks": 782,
                    "midi": 55,
                    "name": "G3",
                    "ticks": 33540,
                    "time": 34.9375,
                    "velocity": 0.8503937007874016
                }
            ],
            "endOfTrackTicks": 34322
        },
        {
            "channel": 0,
            "controlChanges": {},
            "pitchBends": [],
            "instrument": {
                "family": "piano",
                "number": 0,
                "name": "acoustic grand piano"
            },
            "name": "Membrane",
            "notes": [{
                    "duration": 0.18541666666666856,
                    "durationTicks": 178,
                    "midi": 55,
                    "name": "G3",
                    "ticks": 30720,
                    "time": 32,
                    "velocity": 0.9212598425196851
                },
                {
                    "duration": 0.12604166666666572,
                    "durationTicks": 121,
                    "midi": 55,
                    "name": "G3",
                    "ticks": 31080,
                    "time": 32.375,
                    "velocity": 0.9212598425196851
                },
                {
                    "duration": 0.1041666666666643,
                    "durationTicks": 100,
                    "midi": 55,
                    "name": "G3",
                    "ticks": 31440,
                    "time": 32.75,
                    "velocity": 0.8503937007874016
                },
                {
                    "duration": 0.7333333333333343,
                    "durationTicks": 704,
                    "midi": 55,
                    "name": "G3",
                    "ticks": 31680,
                    "time": 33,
                    "velocity": 0.9212598425196851
                },
                {
                    "duration": 0.26250000000000284,
                    "durationTicks": 252,
                    "midi": 55,
                    "name": "G3",
                    "ticks": 32640,
                    "time": 34,
                    "velocity": 0.9212598425196851
                },
                {
                    "duration": 0.12083333333333712,
                    "durationTicks": 116,
                    "midi": 55,
                    "name": "G3",
                    "ticks": 32940,
                    "time": 34.3125,
                    "velocity": 0.8503937007874016
                },
                {
                    "duration": 0.14374999999999716,
                    "durationTicks": 138,
                    "midi": 55,
                    "name": "G3",
                    "ticks": 33300,
                    "time": 34.6875,
                    "velocity": 0.9212598425196851
                },
                {
                    "duration": 0.7635416666666686,
                    "durationTicks": 733,
                    "midi": 55,
                    "name": "G3",
                    "ticks": 33540,
                    "time": 34.9375,
                    "velocity": 0.9212598425196851
                },
                {
                    "duration": 0.24895833333333428,
                    "durationTicks": 239,
                    "midi": 55,
                    "name": "G3",
                    "ticks": 34560,
                    "time": 36,
                    "velocity": 0.9212598425196851
                },
                {
                    "duration": 0.13125000000000142,
                    "durationTicks": 126,
                    "midi": 55,
                    "name": "G3",
                    "ticks": 34920,
                    "time": 36.375,
                    "velocity": 0.9212598425196851
                },
                {
                    "duration": 0.11770833333333286,
                    "durationTicks": 113,
                    "midi": 55,
                    "name": "G3",
                    "ticks": 35220,
                    "time": 36.6875,
                    "velocity": 0.9212598425196851
                },
                {
                    "duration": 0.8145833333333314,
                    "durationTicks": 782,
                    "midi": 55,
                    "name": "G3",
                    "ticks": 35460,
                    "time": 36.9375,
                    "velocity": 0.8503937007874016
                }
            ],
            "endOfTrackTicks": 36242
        },
        {
            "channel": 0,
            "controlChanges": {},
            "pitchBends": [],
            "instrument": {
                "family": "piano",
                "number": 0,
                "name": "acoustic grand piano"
            },
            "name": "Membrane",
            "notes": [{
                    "duration": 0.18541666666666856,
                    "durationTicks": 178,
                    "midi": 55,
                    "name": "G3",
                    "ticks": 32640,
                    "time": 34,
                    "velocity": 0.9212598425196851
                },
                {
                    "duration": 0.12604166666666572,
                    "durationTicks": 121,
                    "midi": 55,
                    "name": "G3",
                    "ticks": 33000,
                    "time": 34.375,
                    "velocity": 0.9212598425196851
                },
                {
                    "duration": 0.1041666666666643,
                    "durationTicks": 100,
                    "midi": 55,
                    "name": "G3",
                    "ticks": 33360,
                    "time": 34.75,
                    "velocity": 0.8503937007874016
                }
            ],
            "endOfTrackTicks": 33600
        },
        {
            "channel": 0,
            "controlChanges": {},
            "pitchBends": [],
            "instrument": {
                "family": "piano",
                "number": 0,
                "name": "acoustic grand piano"
            },
            "name": "Membrane",
            "notes": [{
                    "duration": 0.18541666666666856,
                    "durationTicks": 178,
                    "midi": 55,
                    "name": "G3",
                    "ticks": 34560,
                    "time": 36,
                    "velocity": 0.9212598425196851
                },
                {
                    "duration": 0.12604166666666572,
                    "durationTicks": 121,
                    "midi": 55,
                    "name": "G3",
                    "ticks": 34920,
                    "time": 36.375,
                    "velocity": 0.9212598425196851
                },
                {
                    "duration": 0.1041666666666643,
                    "durationTicks": 100,
                    "midi": 55,
                    "name": "G3",
                    "ticks": 35280,
                    "time": 36.75,
                    "velocity": 0.8503937007874016
                },
                {
                    "duration": 0.7333333333333343,
                    "durationTicks": 704,
                    "midi": 55,
                    "name": "G3",
                    "ticks": 35520,
                    "time": 37,
                    "velocity": 0.9212598425196851
                },
                {
                    "duration": 0.26250000000000284,
                    "durationTicks": 252,
                    "midi": 55,
                    "name": "G3",
                    "ticks": 36480,
                    "time": 38,
                    "velocity": 0.9212598425196851
                },
                {
                    "duration": 0.12083333333333712,
                    "durationTicks": 116,
                    "midi": 55,
                    "name": "G3",
                    "ticks": 36780,
                    "time": 38.3125,
                    "velocity": 0.8503937007874016
                },
                {
                    "duration": 0.14374999999999716,
                    "durationTicks": 138,
                    "midi": 55,
                    "name": "G3",
                    "ticks": 37140,
                    "time": 38.6875,
                    "velocity": 0.9212598425196851
                },
                {
                    "duration": 0.7635416666666686,
                    "durationTicks": 733,
                    "midi": 55,
                    "name": "G3",
                    "ticks": 37380,
                    "time": 38.9375,
                    "velocity": 0.9212598425196851
                },
                {
                    "duration": 0.24895833333333428,
                    "durationTicks": 239,
                    "midi": 55,
                    "name": "G3",
                    "ticks": 38400,
                    "time": 40,
                    "velocity": 0.9212598425196851
                },
                {
                    "duration": 0.13125000000000142,
                    "durationTicks": 126,
                    "midi": 55,
                    "name": "G3",
                    "ticks": 38760,
                    "time": 40.375,
                    "velocity": 0.9212598425196851
                },
                {
                    "duration": 0.11770833333333286,
                    "durationTicks": 113,
                    "midi": 55,
                    "name": "G3",
                    "ticks": 39060,
                    "time": 40.6875,
                    "velocity": 0.9212598425196851
                },
                {
                    "duration": 0.8145833333333314,
                    "durationTicks": 782,
                    "midi": 55,
                    "name": "G3",
                    "ticks": 39300,
                    "time": 40.9375,
                    "velocity": 0.8503937007874016
                }
            ],
            "endOfTrackTicks": 40082
        },
        {
            "channel": 0,
            "controlChanges": {},
            "pitchBends": [],
            "instrument": {
                "family": "piano",
                "number": 0,
                "name": "acoustic grand piano"
            },
            "name": "Membrane",
            "notes": [{
                    "duration": 0.18541666666666856,
                    "durationTicks": 178,
                    "midi": 55,
                    "name": "G3",
                    "ticks": 36480,
                    "time": 38,
                    "velocity": 0.9212598425196851
                },
                {
                    "duration": 0.12604166666666572,
                    "durationTicks": 121,
                    "midi": 55,
                    "name": "G3",
                    "ticks": 36840,
                    "time": 38.375,
                    "velocity": 0.9212598425196851
                },
                {
                    "duration": 0.1041666666666714,
                    "durationTicks": 100,
                    "midi": 55,
                    "name": "G3",
                    "ticks": 37200,
                    "time": 38.75,
                    "velocity": 0.8503937007874016
                },
                {
                    "duration": 0.7333333333333343,
                    "durationTicks": 704,
                    "midi": 55,
                    "name": "G3",
                    "ticks": 37440,
                    "time": 39,
                    "velocity": 0.9212598425196851
                },
                {
                    "duration": 0.26250000000000284,
                    "durationTicks": 252,
                    "midi": 55,
                    "name": "G3",
                    "ticks": 38400,
                    "time": 40,
                    "velocity": 0.9212598425196851
                },
                {
                    "duration": 0.12083333333333712,
                    "durationTicks": 116,
                    "midi": 55,
                    "name": "G3",
                    "ticks": 38700,
                    "time": 40.3125,
                    "velocity": 0.8503937007874016
                },
                {
                    "duration": 0.14374999999999716,
                    "durationTicks": 138,
                    "midi": 55,
                    "name": "G3",
                    "ticks": 39060,
                    "time": 40.6875,
                    "velocity": 0.9212598425196851
                },
                {
                    "duration": 0.7635416666666686,
                    "durationTicks": 733,
                    "midi": 55,
                    "name": "G3",
                    "ticks": 39300,
                    "time": 40.9375,
                    "velocity": 0.9212598425196851
                },
                {
                    "duration": 0.24895833333333428,
                    "durationTicks": 239,
                    "midi": 55,
                    "name": "G3",
                    "ticks": 40320,
                    "time": 42,
                    "velocity": 0.9212598425196851
                },
                {
                    "duration": 0.13125000000000142,
                    "durationTicks": 126,
                    "midi": 55,
                    "name": "G3",
                    "ticks": 40680,
                    "time": 42.375,
                    "velocity": 0.9212598425196851
                },
                {
                    "duration": 0.11770833333333286,
                    "durationTicks": 113,
                    "midi": 55,
                    "name": "G3",
                    "ticks": 40980,
                    "time": 42.6875,
                    "velocity": 0.9212598425196851
                },
                {
                    "duration": 0.8145833333333314,
                    "durationTicks": 782,
                    "midi": 55,
                    "name": "G3",
                    "ticks": 41220,
                    "time": 42.9375,
                    "velocity": 0.8503937007874016
                }
            ],
            "endOfTrackTicks": 42002
        },
        {
            "channel": 0,
            "controlChanges": {},
            "pitchBends": [],
            "instrument": {
                "family": "piano",
                "number": 0,
                "name": "acoustic grand piano"
            },
            "name": "Membrane",
            "notes": [{
                    "duration": 0.18541666666666856,
                    "durationTicks": 178,
                    "midi": 55,
                    "name": "G3",
                    "ticks": 38400,
                    "time": 40,
                    "velocity": 0.9212598425196851
                },
                {
                    "duration": 0.12604166666666572,
                    "durationTicks": 121,
                    "midi": 55,
                    "name": "G3",
                    "ticks": 38760,
                    "time": 40.375,
                    "velocity": 0.9212598425196851
                },
                {
                    "duration": 0.1041666666666714,
                    "durationTicks": 100,
                    "midi": 55,
                    "name": "G3",
                    "ticks": 39120,
                    "time": 40.75,
                    "velocity": 0.8503937007874016
                },
                {
                    "duration": 0.7333333333333343,
                    "durationTicks": 704,
                    "midi": 55,
                    "name": "G3",
                    "ticks": 39360,
                    "time": 41,
                    "velocity": 0.9212598425196851
                },
                {
                    "duration": 0.26250000000000284,
                    "durationTicks": 252,
                    "midi": 55,
                    "name": "G3",
                    "ticks": 40320,
                    "time": 42,
                    "velocity": 0.9212598425196851
                },
                {
                    "duration": 0.12083333333333712,
                    "durationTicks": 116,
                    "midi": 55,
                    "name": "G3",
                    "ticks": 40620,
                    "time": 42.3125,
                    "velocity": 0.8503937007874016
                },
                {
                    "duration": 0.14374999999999716,
                    "durationTicks": 138,
                    "midi": 55,
                    "name": "G3",
                    "ticks": 40980,
                    "time": 42.6875,
                    "velocity": 0.9212598425196851
                },
                {
                    "duration": 0.7635416666666686,
                    "durationTicks": 733,
                    "midi": 55,
                    "name": "G3",
                    "ticks": 41220,
                    "time": 42.9375,
                    "velocity": 0.9212598425196851
                },
                {
                    "duration": 0.24895833333333428,
                    "durationTicks": 239,
                    "midi": 55,
                    "name": "G3",
                    "ticks": 42240,
                    "time": 44,
                    "velocity": 0.9212598425196851
                },
                {
                    "duration": 0.13125000000000142,
                    "durationTicks": 126,
                    "midi": 55,
                    "name": "G3",
                    "ticks": 42600,
                    "time": 44.375,
                    "velocity": 0.9212598425196851
                },
                {
                    "duration": 0.11770833333333286,
                    "durationTicks": 113,
                    "midi": 55,
                    "name": "G3",
                    "ticks": 42900,
                    "time": 44.6875,
                    "velocity": 0.9212598425196851
                },
                {
                    "duration": 0.8145833333333314,
                    "durationTicks": 782,
                    "midi": 55,
                    "name": "G3",
                    "ticks": 43140,
                    "time": 44.9375,
                    "velocity": 0.8503937007874016
                }
            ],
            "endOfTrackTicks": 43922
        },
        {
            "channel": 0,
            "controlChanges": {},
            "pitchBends": [],
            "instrument": {
                "family": "piano",
                "number": 0,
                "name": "acoustic grand piano"
            },
            "name": "Membrane",
            "notes": [{
                    "duration": 0.18541666666666856,
                    "durationTicks": 178,
                    "midi": 55,
                    "name": "G3",
                    "ticks": 40320,
                    "time": 42,
                    "velocity": 0.9212598425196851
                },
                {
                    "duration": 0.12604166666666572,
                    "durationTicks": 121,
                    "midi": 55,
                    "name": "G3",
                    "ticks": 40680,
                    "time": 42.375,
                    "velocity": 0.9212598425196851
                },
                {
                    "duration": 0.1041666666666714,
                    "durationTicks": 100,
                    "midi": 55,
                    "name": "G3",
                    "ticks": 41040,
                    "time": 42.75,
                    "velocity": 0.8503937007874016
                }
            ],
            "endOfTrackTicks": 41280
        },
        {
            "channel": 0,
            "controlChanges": {},
            "pitchBends": [],
            "instrument": {
                "family": "piano",
                "number": 0,
                "name": "acoustic grand piano"
            },
            "name": "Membrane",
            "notes": [{
                "duration": 0.7333333333333343,
                "durationTicks": 704,
                "midi": 55,
                "name": "G3",
                "ticks": 41280,
                "time": 43,
                "velocity": 0.9212598425196851
            }],
            "endOfTrackTicks": 42240
        },
        {
            "channel": 0,
            "controlChanges": {},
            "pitchBends": [],
            "instrument": {
                "family": "piano",
                "number": 0,
                "name": "acoustic grand piano"
            },
            "name": "Finn  -  Shaker 16th Downbeat",
            "notes": [{
                    "duration": 0.125,
                    "durationTicks": 120,
                    "midi": 59,
                    "name": "B3",
                    "ticks": 7683,
                    "time": 8.003125,
                    "velocity": 1
                },
                {
                    "duration": 0.125,
                    "durationTicks": 120,
                    "midi": 59,
                    "name": "B3",
                    "ticks": 8160,
                    "time": 8.5,
                    "velocity": 0.984251968503937
                },
                {
                    "duration": 0.125,
                    "durationTicks": 120,
                    "midi": 59,
                    "name": "B3",
                    "ticks": 8643,
                    "time": 9.003125,
                    "velocity": 1
                },
                {
                    "duration": 0.125,
                    "durationTicks": 120,
                    "midi": 59,
                    "name": "B3",
                    "ticks": 9120,
                    "time": 9.5,
                    "velocity": 0.968503937007874
                },
                {
                    "duration": 0.125,
                    "durationTicks": 120,
                    "midi": 59,
                    "name": "B3",
                    "ticks": 9603,
                    "time": 10.003125,
                    "velocity": 0.968503937007874
                },
                {
                    "duration": 0.125,
                    "durationTicks": 120,
                    "midi": 59,
                    "name": "B3",
                    "ticks": 10080,
                    "time": 10.5,
                    "velocity": 0.984251968503937
                },
                {
                    "duration": 0.125,
                    "durationTicks": 120,
                    "midi": 59,
                    "name": "B3",
                    "ticks": 10563,
                    "time": 11.003125,
                    "velocity": 1
                },
                {
                    "duration": 0.125,
                    "durationTicks": 120,
                    "midi": 59,
                    "name": "B3",
                    "ticks": 11040,
                    "time": 11.5,
                    "velocity": 0.968503937007874
                },
                {
                    "duration": 0.125,
                    "durationTicks": 120,
                    "midi": 59,
                    "name": "B3",
                    "ticks": 11523,
                    "time": 12.003125,
                    "velocity": 1
                },
                {
                    "duration": 0.125,
                    "durationTicks": 120,
                    "midi": 59,
                    "name": "B3",
                    "ticks": 12000,
                    "time": 12.5,
                    "velocity": 0.9921259842519685
                },
                {
                    "duration": 0.125,
                    "durationTicks": 120,
                    "midi": 59,
                    "name": "B3",
                    "ticks": 12483,
                    "time": 13.003125,
                    "velocity": 1
                },
                {
                    "duration": 0.125,
                    "durationTicks": 120,
                    "midi": 59,
                    "name": "B3",
                    "ticks": 12960,
                    "time": 13.5,
                    "velocity": 1
                },
                {
                    "duration": 0.125,
                    "durationTicks": 120,
                    "midi": 59,
                    "name": "B3",
                    "ticks": 13443,
                    "time": 14.003125,
                    "velocity": 1
                },
                {
                    "duration": 0.125,
                    "durationTicks": 120,
                    "midi": 59,
                    "name": "B3",
                    "ticks": 13920,
                    "time": 14.5,
                    "velocity": 0.984251968503937
                },
                {
                    "duration": 0.125,
                    "durationTicks": 120,
                    "midi": 59,
                    "name": "B3",
                    "ticks": 14403,
                    "time": 15.003125,
                    "velocity": 0.984251968503937
                },
                {
                    "duration": 0.125,
                    "durationTicks": 120,
                    "midi": 59,
                    "name": "B3",
                    "ticks": 14880,
                    "time": 15.5,
                    "velocity": 1
                },
                {
                    "duration": 0.125,
                    "durationTicks": 120,
                    "midi": 59,
                    "name": "B3",
                    "ticks": 15363,
                    "time": 16.003125,
                    "velocity": 0.984251968503937
                },
                {
                    "duration": 0.125,
                    "durationTicks": 120,
                    "midi": 59,
                    "name": "B3",
                    "ticks": 15840,
                    "time": 16.5,
                    "velocity": 1
                },
                {
                    "duration": 0.125,
                    "durationTicks": 120,
                    "midi": 59,
                    "name": "B3",
                    "ticks": 16323,
                    "time": 17.003125,
                    "velocity": 0.984251968503937
                },
                {
                    "duration": 0.125,
                    "durationTicks": 120,
                    "midi": 59,
                    "name": "B3",
                    "ticks": 16800,
                    "time": 17.5,
                    "velocity": 0.968503937007874
                },
                {
                    "duration": 0.125,
                    "durationTicks": 120,
                    "midi": 59,
                    "name": "B3",
                    "ticks": 17283,
                    "time": 18.003125,
                    "velocity": 1
                },
                {
                    "duration": 0.125,
                    "durationTicks": 120,
                    "midi": 59,
                    "name": "B3",
                    "ticks": 17760,
                    "time": 18.5,
                    "velocity": 1
                },
                {
                    "duration": 0.125,
                    "durationTicks": 120,
                    "midi": 59,
                    "name": "B3",
                    "ticks": 18243,
                    "time": 19.003125,
                    "velocity": 1
                },
                {
                    "duration": 0.125,
                    "durationTicks": 120,
                    "midi": 59,
                    "name": "B3",
                    "ticks": 18720,
                    "time": 19.5,
                    "velocity": 0.9763779527559056
                },
                {
                    "duration": 0.125,
                    "durationTicks": 120,
                    "midi": 59,
                    "name": "B3",
                    "ticks": 19203,
                    "time": 20.003125,
                    "velocity": 1
                },
                {
                    "duration": 0.125,
                    "durationTicks": 120,
                    "midi": 59,
                    "name": "B3",
                    "ticks": 19680,
                    "time": 20.5,
                    "velocity": 0.9921259842519685
                },
                {
                    "duration": 0.125,
                    "durationTicks": 120,
                    "midi": 59,
                    "name": "B3",
                    "ticks": 20163,
                    "time": 21.003125,
                    "velocity": 0.968503937007874
                },
                {
                    "duration": 0.125,
                    "durationTicks": 120,
                    "midi": 59,
                    "name": "B3",
                    "ticks": 20640,
                    "time": 21.5,
                    "velocity": 0.968503937007874
                },
                {
                    "duration": 0.125,
                    "durationTicks": 120,
                    "midi": 59,
                    "name": "B3",
                    "ticks": 21123,
                    "time": 22.003125,
                    "velocity": 0.968503937007874
                },
                {
                    "duration": 0.125,
                    "durationTicks": 120,
                    "midi": 59,
                    "name": "B3",
                    "ticks": 21600,
                    "time": 22.5,
                    "velocity": 0.9921259842519685
                },
                {
                    "duration": 0.125,
                    "durationTicks": 120,
                    "midi": 59,
                    "name": "B3",
                    "ticks": 22083,
                    "time": 23.003125,
                    "velocity": 1
                },
                {
                    "duration": 0.125,
                    "durationTicks": 120,
                    "midi": 59,
                    "name": "B3",
                    "ticks": 22560,
                    "time": 23.5,
                    "velocity": 0.968503937007874
                },
                {
                    "duration": 0.125,
                    "durationTicks": 120,
                    "midi": 59,
                    "name": "B3",
                    "ticks": 23043,
                    "time": 24.003125,
                    "velocity": 0.9921259842519685
                },
                {
                    "duration": 0.125,
                    "durationTicks": 120,
                    "midi": 59,
                    "name": "B3",
                    "ticks": 23520,
                    "time": 24.5,
                    "velocity": 1
                },
                {
                    "duration": 0.125,
                    "durationTicks": 120,
                    "midi": 59,
                    "name": "B3",
                    "ticks": 24003,
                    "time": 25.003125,
                    "velocity": 1
                },
                {
                    "duration": 0.125,
                    "durationTicks": 120,
                    "midi": 59,
                    "name": "B3",
                    "ticks": 24480,
                    "time": 25.5,
                    "velocity": 1
                }
            ],
            "endOfTrackTicks": 24960
        },
        {
            "channel": 0,
            "controlChanges": {},
            "pitchBends": [],
            "instrument": {
                "family": "piano",
                "number": 0,
                "name": "acoustic grand piano"
            },
            "name": "Finn  -  Shaker 16th Downbeat",
            "notes": [{
                    "duration": 0.125,
                    "durationTicks": 120,
                    "midi": 59,
                    "name": "B3",
                    "ticks": 26882,
                    "time": 28.00208333333333,
                    "velocity": 0.968503937007874
                },
                {
                    "duration": 0.125,
                    "durationTicks": 120,
                    "midi": 59,
                    "name": "B3",
                    "ticks": 27360,
                    "time": 28.5,
                    "velocity": 0.984251968503937
                },
                {
                    "duration": 0.125,
                    "durationTicks": 120,
                    "midi": 59,
                    "name": "B3",
                    "ticks": 27842,
                    "time": 29.00208333333333,
                    "velocity": 1
                },
                {
                    "duration": 0.125,
                    "durationTicks": 120,
                    "midi": 59,
                    "name": "B3",
                    "ticks": 28320,
                    "time": 29.5,
                    "velocity": 0.968503937007874
                },
                {
                    "duration": 0.125,
                    "durationTicks": 120,
                    "midi": 59,
                    "name": "B3",
                    "ticks": 28802,
                    "time": 30.00208333333333,
                    "velocity": 1
                },
                {
                    "duration": 0.125,
                    "durationTicks": 120,
                    "midi": 59,
                    "name": "B3",
                    "ticks": 29280,
                    "time": 30.5,
                    "velocity": 0.9921259842519685
                },
                {
                    "duration": 0.125,
                    "durationTicks": 120,
                    "midi": 59,
                    "name": "B3",
                    "ticks": 29762,
                    "time": 31.00208333333333,
                    "velocity": 1
                },
                {
                    "duration": 0.125,
                    "durationTicks": 120,
                    "midi": 59,
                    "name": "B3",
                    "ticks": 30240,
                    "time": 31.5,
                    "velocity": 1
                },
                {
                    "duration": 0.125,
                    "durationTicks": 120,
                    "midi": 59,
                    "name": "B3",
                    "ticks": 30722,
                    "time": 32.00208333333333,
                    "velocity": 1
                },
                {
                    "duration": 0.125,
                    "durationTicks": 120,
                    "midi": 59,
                    "name": "B3",
                    "ticks": 31200,
                    "time": 32.5,
                    "velocity": 0.984251968503937
                },
                {
                    "duration": 0.125,
                    "durationTicks": 120,
                    "midi": 59,
                    "name": "B3",
                    "ticks": 31682,
                    "time": 33.00208333333333,
                    "velocity": 0.984251968503937
                },
                {
                    "duration": 0.125,
                    "durationTicks": 120,
                    "midi": 59,
                    "name": "B3",
                    "ticks": 32160,
                    "time": 33.5,
                    "velocity": 1
                },
                {
                    "duration": 0.125,
                    "durationTicks": 120,
                    "midi": 59,
                    "name": "B3",
                    "ticks": 32642,
                    "time": 34.00208333333333,
                    "velocity": 0.984251968503937
                },
                {
                    "duration": 0.125,
                    "durationTicks": 120,
                    "midi": 59,
                    "name": "B3",
                    "ticks": 33120,
                    "time": 34.5,
                    "velocity": 0.968503937007874
                }
            ],
            "endOfTrackTicks": 33600
        },
        {
            "channel": 0,
            "controlChanges": {},
            "pitchBends": [],
            "instrument": {
                "family": "piano",
                "number": 0,
                "name": "acoustic grand piano"
            },
            "name": "Finn  -  Shaker 16th Downbeat",
            "notes": [{
                    "duration": 0.125,
                    "durationTicks": 120,
                    "midi": 59,
                    "name": "B3",
                    "ticks": 34563,
                    "time": 36.003125,
                    "velocity": 1
                },
                {
                    "duration": 0.125,
                    "durationTicks": 120,
                    "midi": 59,
                    "name": "B3",
                    "ticks": 35040,
                    "time": 36.5,
                    "velocity": 0.984251968503937
                },
                {
                    "duration": 0.125,
                    "durationTicks": 120,
                    "midi": 59,
                    "name": "B3",
                    "ticks": 35523,
                    "time": 37.003125,
                    "velocity": 1
                },
                {
                    "duration": 0.125,
                    "durationTicks": 120,
                    "midi": 59,
                    "name": "B3",
                    "ticks": 36000,
                    "time": 37.5,
                    "velocity": 0.968503937007874
                },
                {
                    "duration": 0.125,
                    "durationTicks": 120,
                    "midi": 59,
                    "name": "B3",
                    "ticks": 36483,
                    "time": 38.003125,
                    "velocity": 0.968503937007874
                },
                {
                    "duration": 0.125,
                    "durationTicks": 120,
                    "midi": 59,
                    "name": "B3",
                    "ticks": 36960,
                    "time": 38.5,
                    "velocity": 0.984251968503937
                },
                {
                    "duration": 0.125,
                    "durationTicks": 120,
                    "midi": 59,
                    "name": "B3",
                    "ticks": 37443,
                    "time": 39.003125,
                    "velocity": 1
                },
                {
                    "duration": 0.125,
                    "durationTicks": 120,
                    "midi": 59,
                    "name": "B3",
                    "ticks": 37920,
                    "time": 39.5,
                    "velocity": 0.968503937007874
                },
                {
                    "duration": 0.125,
                    "durationTicks": 120,
                    "midi": 59,
                    "name": "B3",
                    "ticks": 38403,
                    "time": 40.003125,
                    "velocity": 1
                },
                {
                    "duration": 0.125,
                    "durationTicks": 120,
                    "midi": 59,
                    "name": "B3",
                    "ticks": 38880,
                    "time": 40.5,
                    "velocity": 0.9921259842519685
                },
                {
                    "duration": 0.125,
                    "durationTicks": 120,
                    "midi": 59,
                    "name": "B3",
                    "ticks": 39363,
                    "time": 41.003125,
                    "velocity": 1
                },
                {
                    "duration": 0.125,
                    "durationTicks": 120,
                    "midi": 59,
                    "name": "B3",
                    "ticks": 39840,
                    "time": 41.5,
                    "velocity": 1
                },
                {
                    "duration": 0.125,
                    "durationTicks": 120,
                    "midi": 59,
                    "name": "B3",
                    "ticks": 40323,
                    "time": 42.003125,
                    "velocity": 0.984251968503937
                },
                {
                    "duration": 0.125,
                    "durationTicks": 120,
                    "midi": 59,
                    "name": "B3",
                    "ticks": 40800,
                    "time": 42.5,
                    "velocity": 0.984251968503937
                },
                {
                    "duration": 0.125,
                    "durationTicks": 120,
                    "midi": 59,
                    "name": "B3",
                    "ticks": 41283,
                    "time": 43.003125,
                    "velocity": 1
                }
            ],
            "endOfTrackTicks": 41646
        },
        {
            "channel": 0,
            "controlChanges": {},
            "pitchBends": [],
            "instrument": {
                "family": "piano",
                "number": 0,
                "name": "acoustic grand piano"
            },
            "name": "Shaker",
            "notes": [{
                    "duration": 0.171875,
                    "durationTicks": 165,
                    "midi": 67,
                    "name": "G4",
                    "ticks": 5760,
                    "time": 6,
                    "velocity": 0.7322834645669292
                },
                {
                    "duration": 0.15625,
                    "durationTicks": 150,
                    "midi": 67,
                    "name": "G4",
                    "ticks": 6240,
                    "time": 6.5,
                    "velocity": 0.6850393700787402
                },
                {
                    "duration": 0.17916666666666714,
                    "durationTicks": 172,
                    "midi": 67,
                    "name": "G4",
                    "ticks": 6720,
                    "time": 7,
                    "velocity": 0.6850393700787402
                },
                {
                    "duration": 0.18229166666666696,
                    "durationTicks": 175,
                    "midi": 67,
                    "name": "G4",
                    "ticks": 7200,
                    "time": 7.5,
                    "velocity": 0.6850393700787402
                },
                {
                    "duration": 0.2604166666666661,
                    "durationTicks": 250,
                    "midi": 67,
                    "name": "G4",
                    "ticks": 7680,
                    "time": 8,
                    "velocity": 0.6850393700787402
                },
                {
                    "duration": 0.140625,
                    "durationTicks": 135,
                    "midi": 67,
                    "name": "G4",
                    "ticks": 8160,
                    "time": 8.5,
                    "velocity": 0.6850393700787402
                },
                {
                    "duration": 0.20104166666666679,
                    "durationTicks": 193,
                    "midi": 67,
                    "name": "G4",
                    "ticks": 8640,
                    "time": 9,
                    "velocity": 0.7322834645669292
                },
                {
                    "duration": 0.2218750000000007,
                    "durationTicks": 213,
                    "midi": 67,
                    "name": "G4",
                    "ticks": 9120,
                    "time": 9.5,
                    "velocity": 0.8031496062992126
                },
                {
                    "duration": 0.22708333333333286,
                    "durationTicks": 218,
                    "midi": 67,
                    "name": "G4",
                    "ticks": 9600,
                    "time": 10,
                    "velocity": 0.8031496062992126
                },
                {
                    "duration": 0.1843749999999993,
                    "durationTicks": 177,
                    "midi": 67,
                    "name": "G4",
                    "ticks": 10080,
                    "time": 10.5,
                    "velocity": 0.7322834645669292
                },
                {
                    "duration": 0.19791666666666607,
                    "durationTicks": 190,
                    "midi": 67,
                    "name": "G4",
                    "ticks": 10560,
                    "time": 11,
                    "velocity": 0.7322834645669292
                },
                {
                    "duration": 0.1999999999999993,
                    "durationTicks": 192,
                    "midi": 67,
                    "name": "G4",
                    "ticks": 11040,
                    "time": 11.5,
                    "velocity": 0.7322834645669292
                },
                {
                    "duration": 0.21145833333333286,
                    "durationTicks": 203,
                    "midi": 67,
                    "name": "G4",
                    "ticks": 11520,
                    "time": 12,
                    "velocity": 0.7322834645669292
                },
                {
                    "duration": 0.20104166666666679,
                    "durationTicks": 193,
                    "midi": 67,
                    "name": "G4",
                    "ticks": 12000,
                    "time": 12.5,
                    "velocity": 0.6614173228346457
                },
                {
                    "duration": 0.19791666666666607,
                    "durationTicks": 190,
                    "midi": 67,
                    "name": "G4",
                    "ticks": 12480,
                    "time": 13,
                    "velocity": 0.7322834645669292
                },
                {
                    "duration": 0.2687500000000007,
                    "durationTicks": 258,
                    "midi": 67,
                    "name": "G4",
                    "ticks": 12960,
                    "time": 13.5,
                    "velocity": 0.8031496062992126
                },
                {
                    "duration": 0.39791666666666714,
                    "durationTicks": 382,
                    "midi": 67,
                    "name": "G4",
                    "ticks": 13440,
                    "time": 14,
                    "velocity": 0.8031496062992126
                }
            ],
            "endOfTrackTicks": 13822
        },
        {
            "channel": 0,
            "controlChanges": {},
            "pitchBends": [],
            "instrument": {
                "family": "piano",
                "number": 0,
                "name": "acoustic grand piano"
            },
            "name": "Shaker",
            "notes": [{
                    "duration": 0.171875,
                    "durationTicks": 165,
                    "midi": 67,
                    "name": "G4",
                    "ticks": 13440,
                    "time": 14,
                    "velocity": 0.7322834645669292
                },
                {
                    "duration": 0.15625,
                    "durationTicks": 150,
                    "midi": 67,
                    "name": "G4",
                    "ticks": 13920,
                    "time": 14.5,
                    "velocity": 0.6850393700787402
                },
                {
                    "duration": 0.17916666666666714,
                    "durationTicks": 172,
                    "midi": 67,
                    "name": "G4",
                    "ticks": 14400,
                    "time": 15,
                    "velocity": 0.6850393700787402
                },
                {
                    "duration": 0.18229166666666607,
                    "durationTicks": 175,
                    "midi": 67,
                    "name": "G4",
                    "ticks": 14880,
                    "time": 15.5,
                    "velocity": 0.6850393700787402
                },
                {
                    "duration": 0.26041666666666785,
                    "durationTicks": 250,
                    "midi": 67,
                    "name": "G4",
                    "ticks": 15360,
                    "time": 16,
                    "velocity": 0.6850393700787402
                },
                {
                    "duration": 0.140625,
                    "durationTicks": 135,
                    "midi": 67,
                    "name": "G4",
                    "ticks": 15840,
                    "time": 16.5,
                    "velocity": 0.6850393700787402
                },
                {
                    "duration": 0.201041666666665,
                    "durationTicks": 193,
                    "midi": 67,
                    "name": "G4",
                    "ticks": 16320,
                    "time": 17,
                    "velocity": 0.7322834645669292
                },
                {
                    "duration": 0.2218750000000007,
                    "durationTicks": 213,
                    "midi": 67,
                    "name": "G4",
                    "ticks": 16800,
                    "time": 17.5,
                    "velocity": 0.8031496062992126
                },
                {
                    "duration": 0.22708333333333286,
                    "durationTicks": 218,
                    "midi": 67,
                    "name": "G4",
                    "ticks": 17280,
                    "time": 18,
                    "velocity": 0.8031496062992126
                },
                {
                    "duration": 0.1843749999999993,
                    "durationTicks": 177,
                    "midi": 67,
                    "name": "G4",
                    "ticks": 17760,
                    "time": 18.5,
                    "velocity": 0.7322834645669292
                },
                {
                    "duration": 0.19791666666666785,
                    "durationTicks": 190,
                    "midi": 67,
                    "name": "G4",
                    "ticks": 18240,
                    "time": 19,
                    "velocity": 0.7322834645669292
                },
                {
                    "duration": 0.1999999999999993,
                    "durationTicks": 192,
                    "midi": 67,
                    "name": "G4",
                    "ticks": 18720,
                    "time": 19.5,
                    "velocity": 0.7322834645669292
                },
                {
                    "duration": 0.21145833333333286,
                    "durationTicks": 203,
                    "midi": 67,
                    "name": "G4",
                    "ticks": 19200,
                    "time": 20,
                    "velocity": 0.7322834645669292
                },
                {
                    "duration": 0.201041666666665,
                    "durationTicks": 193,
                    "midi": 67,
                    "name": "G4",
                    "ticks": 19680,
                    "time": 20.5,
                    "velocity": 0.6614173228346457
                },
                {
                    "duration": 0.19791666666666785,
                    "durationTicks": 190,
                    "midi": 67,
                    "name": "G4",
                    "ticks": 20160,
                    "time": 21,
                    "velocity": 0.7322834645669292
                },
                {
                    "duration": 0.2687500000000007,
                    "durationTicks": 258,
                    "midi": 67,
                    "name": "G4",
                    "ticks": 20640,
                    "time": 21.5,
                    "velocity": 0.8031496062992126
                },
                {
                    "duration": 0.39791666666666714,
                    "durationTicks": 382,
                    "midi": 67,
                    "name": "G4",
                    "ticks": 21120,
                    "time": 22,
                    "velocity": 0.8031496062992126
                }
            ],
            "endOfTrackTicks": 21502
        },
        {
            "channel": 0,
            "controlChanges": {},
            "pitchBends": [],
            "instrument": {
                "family": "piano",
                "number": 0,
                "name": "acoustic grand piano"
            },
            "name": "Shaker",
            "notes": [{
                    "duration": 0.171875,
                    "durationTicks": 165,
                    "midi": 67,
                    "name": "G4",
                    "ticks": 21120,
                    "time": 22,
                    "velocity": 0.7322834645669292
                },
                {
                    "duration": 0.15625,
                    "durationTicks": 150,
                    "midi": 67,
                    "name": "G4",
                    "ticks": 21600,
                    "time": 22.5,
                    "velocity": 0.6850393700787402
                },
                {
                    "duration": 0.17916666666666714,
                    "durationTicks": 172,
                    "midi": 67,
                    "name": "G4",
                    "ticks": 22080,
                    "time": 23,
                    "velocity": 0.6850393700787402
                },
                {
                    "duration": 0.18229166666666785,
                    "durationTicks": 175,
                    "midi": 67,
                    "name": "G4",
                    "ticks": 22560,
                    "time": 23.5,
                    "velocity": 0.6850393700787402
                },
                {
                    "duration": 0.26041666666666785,
                    "durationTicks": 250,
                    "midi": 67,
                    "name": "G4",
                    "ticks": 23040,
                    "time": 24,
                    "velocity": 0.6850393700787402
                },
                {
                    "duration": 0.140625,
                    "durationTicks": 135,
                    "midi": 67,
                    "name": "G4",
                    "ticks": 23520,
                    "time": 24.5,
                    "velocity": 0.6850393700787402
                },
                {
                    "duration": 0.20104166666666856,
                    "durationTicks": 193,
                    "midi": 67,
                    "name": "G4",
                    "ticks": 24000,
                    "time": 25,
                    "velocity": 0.7322834645669292
                },
                {
                    "duration": 0.2218750000000007,
                    "durationTicks": 213,
                    "midi": 67,
                    "name": "G4",
                    "ticks": 24480,
                    "time": 25.5,
                    "velocity": 0.8031496062992126
                }
            ],
            "endOfTrackTicks": 24960
        },
        {
            "channel": 0,
            "controlChanges": {},
            "pitchBends": [],
            "instrument": {
                "family": "piano",
                "number": 0,
                "name": "acoustic grand piano"
            },
            "name": "Shaker",
            "notes": [{
                    "duration": 0.171875,
                    "durationTicks": 165,
                    "midi": 67,
                    "name": "G4",
                    "ticks": 26880,
                    "time": 28,
                    "velocity": 0.7322834645669292
                },
                {
                    "duration": 0.15625,
                    "durationTicks": 150,
                    "midi": 67,
                    "name": "G4",
                    "ticks": 27360,
                    "time": 28.5,
                    "velocity": 0.6850393700787402
                },
                {
                    "duration": 0.17916666666666714,
                    "durationTicks": 172,
                    "midi": 67,
                    "name": "G4",
                    "ticks": 27840,
                    "time": 29,
                    "velocity": 0.6850393700787402
                },
                {
                    "duration": 0.18229166666666785,
                    "durationTicks": 175,
                    "midi": 67,
                    "name": "G4",
                    "ticks": 28320,
                    "time": 29.5,
                    "velocity": 0.6850393700787402
                },
                {
                    "duration": 0.2604166666666643,
                    "durationTicks": 250,
                    "midi": 67,
                    "name": "G4",
                    "ticks": 28800,
                    "time": 30,
                    "velocity": 0.6850393700787402
                },
                {
                    "duration": 0.140625,
                    "durationTicks": 135,
                    "midi": 67,
                    "name": "G4",
                    "ticks": 29280,
                    "time": 30.5,
                    "velocity": 0.6850393700787402
                },
                {
                    "duration": 0.20104166666666856,
                    "durationTicks": 193,
                    "midi": 67,
                    "name": "G4",
                    "ticks": 29760,
                    "time": 31,
                    "velocity": 0.7322834645669292
                },
                {
                    "duration": 0.2218750000000007,
                    "durationTicks": 213,
                    "midi": 67,
                    "name": "G4",
                    "ticks": 30240,
                    "time": 31.5,
                    "velocity": 0.8031496062992126
                },
                {
                    "duration": 0.22708333333333286,
                    "durationTicks": 218,
                    "midi": 67,
                    "name": "G4",
                    "ticks": 30720,
                    "time": 32,
                    "velocity": 0.8031496062992126
                },
                {
                    "duration": 0.18437500000000284,
                    "durationTicks": 177,
                    "midi": 67,
                    "name": "G4",
                    "ticks": 31200,
                    "time": 32.5,
                    "velocity": 0.7322834645669292
                },
                {
                    "duration": 0.1979166666666643,
                    "durationTicks": 190,
                    "midi": 67,
                    "name": "G4",
                    "ticks": 31680,
                    "time": 33,
                    "velocity": 0.7322834645669292
                },
                {
                    "duration": 0.20000000000000284,
                    "durationTicks": 192,
                    "midi": 67,
                    "name": "G4",
                    "ticks": 32160,
                    "time": 33.5,
                    "velocity": 0.7322834645669292
                },
                {
                    "duration": 0.21145833333333286,
                    "durationTicks": 203,
                    "midi": 67,
                    "name": "G4",
                    "ticks": 32640,
                    "time": 34,
                    "velocity": 0.7322834645669292
                },
                {
                    "duration": 0.20104166666666856,
                    "durationTicks": 193,
                    "midi": 67,
                    "name": "G4",
                    "ticks": 33120,
                    "time": 34.5,
                    "velocity": 0.6614173228346457
                }
            ],
            "endOfTrackTicks": 33600
        },
        {
            "channel": 0,
            "controlChanges": {},
            "pitchBends": [],
            "instrument": {
                "family": "piano",
                "number": 0,
                "name": "acoustic grand piano"
            },
            "name": "Shaker",
            "notes": [{
                    "duration": 0.171875,
                    "durationTicks": 165,
                    "midi": 67,
                    "name": "G4",
                    "ticks": 34560,
                    "time": 36,
                    "velocity": 0.7322834645669292
                },
                {
                    "duration": 0.15625,
                    "durationTicks": 150,
                    "midi": 67,
                    "name": "G4",
                    "ticks": 35040,
                    "time": 36.5,
                    "velocity": 0.6850393700787402
                },
                {
                    "duration": 0.17916666666666714,
                    "durationTicks": 172,
                    "midi": 67,
                    "name": "G4",
                    "ticks": 35520,
                    "time": 37,
                    "velocity": 0.6850393700787402
                },
                {
                    "duration": 0.1822916666666643,
                    "durationTicks": 175,
                    "midi": 67,
                    "name": "G4",
                    "ticks": 36000,
                    "time": 37.5,
                    "velocity": 0.6850393700787402
                },
                {
                    "duration": 0.2604166666666714,
                    "durationTicks": 250,
                    "midi": 67,
                    "name": "G4",
                    "ticks": 36480,
                    "time": 38,
                    "velocity": 0.6850393700787402
                },
                {
                    "duration": 0.140625,
                    "durationTicks": 135,
                    "midi": 67,
                    "name": "G4",
                    "ticks": 36960,
                    "time": 38.5,
                    "velocity": 0.6850393700787402
                },
                {
                    "duration": 0.20104166666666856,
                    "durationTicks": 193,
                    "midi": 67,
                    "name": "G4",
                    "ticks": 37440,
                    "time": 39,
                    "velocity": 0.7322834645669292
                },
                {
                    "duration": 0.22187499999999716,
                    "durationTicks": 213,
                    "midi": 67,
                    "name": "G4",
                    "ticks": 37920,
                    "time": 39.5,
                    "velocity": 0.8031496062992126
                },
                {
                    "duration": 0.22708333333333286,
                    "durationTicks": 218,
                    "midi": 67,
                    "name": "G4",
                    "ticks": 38400,
                    "time": 40,
                    "velocity": 0.8031496062992126
                },
                {
                    "duration": 0.18437500000000284,
                    "durationTicks": 177,
                    "midi": 67,
                    "name": "G4",
                    "ticks": 38880,
                    "time": 40.5,
                    "velocity": 0.7322834645669292
                },
                {
                    "duration": 0.1979166666666714,
                    "durationTicks": 190,
                    "midi": 67,
                    "name": "G4",
                    "ticks": 39360,
                    "time": 41,
                    "velocity": 0.7322834645669292
                },
                {
                    "duration": 0.20000000000000284,
                    "durationTicks": 192,
                    "midi": 67,
                    "name": "G4",
                    "ticks": 39840,
                    "time": 41.5,
                    "velocity": 0.7322834645669292
                },
                {
                    "duration": 0.21145833333333286,
                    "durationTicks": 203,
                    "midi": 67,
                    "name": "G4",
                    "ticks": 40320,
                    "time": 42,
                    "velocity": 0.7322834645669292
                },
                {
                    "duration": 0.20104166666666856,
                    "durationTicks": 193,
                    "midi": 67,
                    "name": "G4",
                    "ticks": 40800,
                    "time": 42.5,
                    "velocity": 0.6614173228346457
                }
            ],
            "endOfTrackTicks": 41280
        },
        {
            "channel": 0,
            "controlChanges": {},
            "pitchBends": [],
            "instrument": {
                "family": "piano",
                "number": 0,
                "name": "acoustic grand piano"
            },
            "name": "Sharp Hi-Hat",
            "notes": [{
                    "duration": 0.27187499999999964,
                    "durationTicks": 261,
                    "midi": 59,
                    "name": "B3",
                    "ticks": 12720,
                    "time": 13.25,
                    "velocity": 0.8031496062992126
                },
                {
                    "duration": 0.29270833333333357,
                    "durationTicks": 281,
                    "midi": 59,
                    "name": "B3",
                    "ticks": 13200,
                    "time": 13.75,
                    "velocity": 0.8031496062992126
                },
                {
                    "duration": 0.24270833333333286,
                    "durationTicks": 233,
                    "midi": 59,
                    "name": "B3",
                    "ticks": 16560,
                    "time": 17.25,
                    "velocity": 0.8031496062992126
                },
                {
                    "duration": 0.2593749999999986,
                    "durationTicks": 249,
                    "midi": 59,
                    "name": "B3",
                    "ticks": 17040,
                    "time": 17.75,
                    "velocity": 0.8031496062992126
                },
                {
                    "duration": 0.279166666666665,
                    "durationTicks": 268,
                    "midi": 59,
                    "name": "B3",
                    "ticks": 20400,
                    "time": 21.25,
                    "velocity": 0.8031496062992126
                },
                {
                    "duration": 0.2718750000000014,
                    "durationTicks": 261,
                    "midi": 59,
                    "name": "B3",
                    "ticks": 20880,
                    "time": 21.75,
                    "velocity": 0.8503937007874016
                },
                {
                    "duration": 0.23020833333333357,
                    "durationTicks": 221,
                    "midi": 59,
                    "name": "B3",
                    "ticks": 24240,
                    "time": 25.25,
                    "velocity": 0.8031496062992126
                },
                {
                    "duration": 0.29166666666666785,
                    "durationTicks": 280,
                    "midi": 59,
                    "name": "B3",
                    "ticks": 24720,
                    "time": 25.75,
                    "velocity": 0.8031496062992126
                }
            ],
            "endOfTrackTicks": 25000
        },
        {
            "channel": 0,
            "controlChanges": {},
            "pitchBends": [],
            "instrument": {
                "family": "piano",
                "number": 0,
                "name": "acoustic grand piano"
            },
            "name": "Sharp Hi-Hat",
            "notes": [{
                    "duration": 0.22083333333333144,
                    "durationTicks": 212,
                    "midi": 59,
                    "name": "B3",
                    "ticks": 30000,
                    "time": 31.25,
                    "velocity": 0.8503937007874016
                },
                {
                    "duration": 0.23541666666666572,
                    "durationTicks": 226,
                    "midi": 59,
                    "name": "B3",
                    "ticks": 30480,
                    "time": 31.75,
                    "velocity": 0.8503937007874016
                }
            ],
            "endOfTrackTicks": 30720
        },
        {
            "channel": 0,
            "controlChanges": {},
            "pitchBends": [],
            "instrument": {
                "family": "piano",
                "number": 0,
                "name": "acoustic grand piano"
            },
            "name": "Sharp Hi-Hat",
            "notes": [],
            "endOfTrackTicks": 2880
        },
        {
            "channel": 0,
            "controlChanges": {},
            "pitchBends": [],
            "instrument": {
                "family": "piano",
                "number": 0,
                "name": "acoustic grand piano"
            },
            "name": "Sharp Hi-Hat",
            "notes": [{
                    "duration": 0.22083333333333144,
                    "durationTicks": 212,
                    "midi": 59,
                    "name": "B3",
                    "ticks": 37680,
                    "time": 39.25,
                    "velocity": 0.8503937007874016
                },
                {
                    "duration": 0.23541666666666572,
                    "durationTicks": 226,
                    "midi": 59,
                    "name": "B3",
                    "ticks": 38160,
                    "time": 39.75,
                    "velocity": 0.8503937007874016
                }
            ],
            "endOfTrackTicks": 38400
        },
        {
            "channel": 0,
            "controlChanges": {},
            "pitchBends": [],
            "instrument": {
                "family": "piano",
                "number": 0,
                "name": "acoustic grand piano"
            },
            "name": "Sharp Hi-Hat",
            "notes": [],
            "endOfTrackTicks": 2880
        },
        {
            "channel": 0,
            "controlChanges": {},
            "pitchBends": [],
            "instrument": {
                "family": "piano",
                "number": 0,
                "name": "acoustic grand piano"
            },
            "name": "Metal Machine",
            "notes": [],
            "endOfTrackTicks": 3840
        },
        {
            "channel": 0,
            "controlChanges": {},
            "pitchBends": [],
            "instrument": {
                "family": "piano",
                "number": 0,
                "name": "acoustic grand piano"
            },
            "name": "Metal Machine",
            "notes": [],
            "endOfTrackTicks": 3840
        },
        {
            "channel": 0,
            "controlChanges": {},
            "pitchBends": [],
            "instrument": {
                "family": "piano",
                "number": 0,
                "name": "acoustic grand piano"
            },
            "name": "Metal Machine",
            "notes": [],
            "endOfTrackTicks": 2880
        },
        {
            "channel": 0,
            "controlChanges": {},
            "pitchBends": [],
            "instrument": {
                "family": "piano",
                "number": 0,
                "name": "acoustic grand piano"
            },
            "name": "Metal Machine",
            "notes": [],
            "endOfTrackTicks": 3840
        },
        {
            "channel": 0,
            "controlChanges": {},
            "pitchBends": [],
            "instrument": {
                "family": "piano",
                "number": 0,
                "name": "acoustic grand piano"
            },
            "name": "Metal Machine",
            "notes": [],
            "endOfTrackTicks": 2880
        },
        {
            "channel": 0,
            "controlChanges": {},
            "pitchBends": [],
            "instrument": {
                "family": "piano",
                "number": 0,
                "name": "acoustic grand piano"
            },
            "name": "Metal Machine",
            "notes": [],
            "endOfTrackTicks": 3840
        },
        {
            "channel": 0,
            "controlChanges": {},
            "pitchBends": [],
            "instrument": {
                "family": "piano",
                "number": 0,
                "name": "acoustic grand piano"
            },
            "name": "Metal Machine",
            "notes": [],
            "endOfTrackTicks": 2880
        },
        {
            "channel": 0,
            "controlChanges": {},
            "pitchBends": [],
            "instrument": {
                "family": "piano",
                "number": 0,
                "name": "acoustic grand piano"
            },
            "name": "Human Clap",
            "notes": [{
                    "duration": 0.7062500000000007,
                    "durationTicks": 678,
                    "midi": 60,
                    "name": "C4",
                    "ticks": 19680,
                    "time": 20.5,
                    "velocity": 0.6299212598425197
                },
                {
                    "duration": 0.8083333333333336,
                    "durationTicks": 776,
                    "midi": 60,
                    "name": "C4",
                    "ticks": 20640,
                    "time": 21.5,
                    "velocity": 0.7322834645669292
                },
                {
                    "duration": 0.5885416666666679,
                    "durationTicks": 565,
                    "midi": 60,
                    "name": "C4",
                    "ticks": 21600,
                    "time": 22.5,
                    "velocity": 0.8031496062992126
                },
                {
                    "duration": 0.5,
                    "durationTicks": 480,
                    "midi": 60,
                    "name": "C4",
                    "ticks": 22560,
                    "time": 23.5,
                    "velocity": 0.9212598425196851
                },
                {
                    "duration": 0.7062500000000007,
                    "durationTicks": 678,
                    "midi": 60,
                    "name": "C4",
                    "ticks": 23520,
                    "time": 24.5,
                    "velocity": 0.6299212598425197
                },
                {
                    "duration": 0.5,
                    "durationTicks": 480,
                    "midi": 60,
                    "name": "C4",
                    "ticks": 24480,
                    "time": 25.5,
                    "velocity": 0.7322834645669292
                }
            ],
            "endOfTrackTicks": 24960
        },
        {
            "channel": 0,
            "controlChanges": {},
            "pitchBends": [],
            "instrument": {
                "family": "piano",
                "number": 0,
                "name": "acoustic grand piano"
            },
            "name": "Human Clap",
            "notes": [{
                    "duration": 0.7062500000000007,
                    "durationTicks": 678,
                    "midi": 60,
                    "name": "C4",
                    "ticks": 23520,
                    "time": 24.5,
                    "velocity": 0.6299212598425197
                },
                {
                    "duration": 0.8083333333333336,
                    "durationTicks": 776,
                    "midi": 60,
                    "name": "C4",
                    "ticks": 24480,
                    "time": 25.5,
                    "velocity": 0.7322834645669292
                },
                {
                    "duration": 0.5885416666666679,
                    "durationTicks": 565,
                    "midi": 60,
                    "name": "C4",
                    "ticks": 25440,
                    "time": 26.5,
                    "velocity": 0.8031496062992126
                },
                {
                    "duration": 0.5,
                    "durationTicks": 480,
                    "midi": 60,
                    "name": "C4",
                    "ticks": 26400,
                    "time": 27.5,
                    "velocity": 0.9212598425196851
                },
                {
                    "duration": 0.7062500000000007,
                    "durationTicks": 678,
                    "midi": 60,
                    "name": "C4",
                    "ticks": 27360,
                    "time": 28.5,
                    "velocity": 0.6299212598425197
                },
                {
                    "duration": 0.5,
                    "durationTicks": 480,
                    "midi": 60,
                    "name": "C4",
                    "ticks": 28320,
                    "time": 29.5,
                    "velocity": 0.7322834645669292
                }
            ],
            "endOfTrackTicks": 28800
        },
        {
            "channel": 0,
            "controlChanges": {},
            "pitchBends": [],
            "instrument": {
                "family": "piano",
                "number": 0,
                "name": "acoustic grand piano"
            },
            "name": "Human Clap",
            "notes": [{
                    "duration": 0.7062500000000007,
                    "durationTicks": 678,
                    "midi": 60,
                    "name": "C4",
                    "ticks": 27360,
                    "time": 28.5,
                    "velocity": 0.6299212598425197
                },
                {
                    "duration": 0.8083333333333336,
                    "durationTicks": 776,
                    "midi": 60,
                    "name": "C4",
                    "ticks": 28320,
                    "time": 29.5,
                    "velocity": 0.7322834645669292
                },
                {
                    "duration": 0.5885416666666643,
                    "durationTicks": 565,
                    "midi": 60,
                    "name": "C4",
                    "ticks": 29280,
                    "time": 30.5,
                    "velocity": 0.8031496062992126
                },
                {
                    "duration": 0.5,
                    "durationTicks": 480,
                    "midi": 60,
                    "name": "C4",
                    "ticks": 30240,
                    "time": 31.5,
                    "velocity": 0.9212598425196851
                },
                {
                    "duration": 0.7062499999999972,
                    "durationTicks": 678,
                    "midi": 60,
                    "name": "C4",
                    "ticks": 31200,
                    "time": 32.5,
                    "velocity": 0.6299212598425197
                },
                {
                    "duration": 0.8083333333333371,
                    "durationTicks": 776,
                    "midi": 60,
                    "name": "C4",
                    "ticks": 32160,
                    "time": 33.5,
                    "velocity": 0.7322834645669292
                },
                {
                    "duration": 0.5885416666666643,
                    "durationTicks": 565,
                    "midi": 60,
                    "name": "C4",
                    "ticks": 33120,
                    "time": 34.5,
                    "velocity": 0.8031496062992126
                }
            ],
            "endOfTrackTicks": 33685
        },
        {
            "channel": 0,
            "controlChanges": {},
            "pitchBends": [],
            "instrument": {
                "family": "piano",
                "number": 0,
                "name": "acoustic grand piano"
            },
            "name": "Human Clap",
            "notes": [{
                    "duration": 0.7062499999999972,
                    "durationTicks": 678,
                    "midi": 60,
                    "name": "C4",
                    "ticks": 35040,
                    "time": 36.5,
                    "velocity": 0.6299212598425197
                },
                {
                    "duration": 0.8083333333333371,
                    "durationTicks": 776,
                    "midi": 60,
                    "name": "C4",
                    "ticks": 36000,
                    "time": 37.5,
                    "velocity": 0.7322834645669292
                },
                {
                    "duration": 0.5885416666666714,
                    "durationTicks": 565,
                    "midi": 60,
                    "name": "C4",
                    "ticks": 36960,
                    "time": 38.5,
                    "velocity": 0.8031496062992126
                },
                {
                    "duration": 0.5,
                    "durationTicks": 480,
                    "midi": 60,
                    "name": "C4",
                    "ticks": 37920,
                    "time": 39.5,
                    "velocity": 0.9212598425196851
                },
                {
                    "duration": 0.7062499999999972,
                    "durationTicks": 678,
                    "midi": 60,
                    "name": "C4",
                    "ticks": 38880,
                    "time": 40.5,
                    "velocity": 0.6299212598425197
                },
                {
                    "duration": 0.8083333333333371,
                    "durationTicks": 776,
                    "midi": 60,
                    "name": "C4",
                    "ticks": 39840,
                    "time": 41.5,
                    "velocity": 0.7322834645669292
                },
                {
                    "duration": 0.5885416666666714,
                    "durationTicks": 565,
                    "midi": 60,
                    "name": "C4",
                    "ticks": 40800,
                    "time": 42.5,
                    "velocity": 0.8031496062992126
                }
            ],
            "endOfTrackTicks": 41365
        },
        {
            "channel": 0,
            "controlChanges": {},
            "pitchBends": [],
            "instrument": {
                "family": "piano",
                "number": 0,
                "name": "acoustic grand piano"
            },
            "name": "Finn  -  Snap",
            "notes": [{
                    "duration": 0.125,
                    "durationTicks": 120,
                    "midi": 39,
                    "name": "D#2",
                    "ticks": 27361,
                    "time": 28.501041666666666,
                    "velocity": 0.7244094488188977
                },
                {
                    "duration": 0.125,
                    "durationTicks": 120,
                    "midi": 39,
                    "name": "D#2",
                    "ticks": 28321,
                    "time": 29.501041666666666,
                    "velocity": 0.7244094488188977
                },
                {
                    "duration": 0.125,
                    "durationTicks": 120,
                    "midi": 39,
                    "name": "D#2",
                    "ticks": 29281,
                    "time": 30.501041666666666,
                    "velocity": 0.7244094488188977
                },
                {
                    "duration": 0.125,
                    "durationTicks": 120,
                    "midi": 39,
                    "name": "D#2",
                    "ticks": 30241,
                    "time": 31.501041666666666,
                    "velocity": 0.7244094488188977
                },
                {
                    "duration": 0.125,
                    "durationTicks": 120,
                    "midi": 39,
                    "name": "D#2",
                    "ticks": 31201,
                    "time": 32.501041666666666,
                    "velocity": 0.7244094488188977
                },
                {
                    "duration": 0.125,
                    "durationTicks": 120,
                    "midi": 39,
                    "name": "D#2",
                    "ticks": 32161,
                    "time": 33.501041666666666,
                    "velocity": 0.7244094488188977
                },
                {
                    "duration": 0.125,
                    "durationTicks": 120,
                    "midi": 39,
                    "name": "D#2",
                    "ticks": 33121,
                    "time": 34.501041666666666,
                    "velocity": 0.7244094488188977
                }
            ],
            "endOfTrackTicks": 33600
        },
        {
            "channel": 0,
            "controlChanges": {},
            "pitchBends": [],
            "instrument": {
                "family": "piano",
                "number": 0,
                "name": "acoustic grand piano"
            },
            "name": "Finn  -  Snap",
            "notes": [{
                    "duration": 0.125,
                    "durationTicks": 120,
                    "midi": 39,
                    "name": "D#2",
                    "ticks": 35041,
                    "time": 36.501041666666666,
                    "velocity": 0.7244094488188977
                },
                {
                    "duration": 0.125,
                    "durationTicks": 120,
                    "midi": 39,
                    "name": "D#2",
                    "ticks": 36001,
                    "time": 37.501041666666666,
                    "velocity": 0.7244094488188977
                },
                {
                    "duration": 0.125,
                    "durationTicks": 120,
                    "midi": 39,
                    "name": "D#2",
                    "ticks": 36961,
                    "time": 38.501041666666666,
                    "velocity": 0.7244094488188977
                },
                {
                    "duration": 0.125,
                    "durationTicks": 120,
                    "midi": 39,
                    "name": "D#2",
                    "ticks": 37921,
                    "time": 39.501041666666666,
                    "velocity": 0.7244094488188977
                },
                {
                    "duration": 0.125,
                    "durationTicks": 120,
                    "midi": 39,
                    "name": "D#2",
                    "ticks": 38881,
                    "time": 40.501041666666666,
                    "velocity": 0.7244094488188977
                },
                {
                    "duration": 0.125,
                    "durationTicks": 120,
                    "midi": 39,
                    "name": "D#2",
                    "ticks": 39841,
                    "time": 41.501041666666666,
                    "velocity": 0.7244094488188977
                },
                {
                    "duration": 0.125,
                    "durationTicks": 120,
                    "midi": 39,
                    "name": "D#2",
                    "ticks": 40801,
                    "time": 42.501041666666666,
                    "velocity": 0.7244094488188977
                }
            ],
            "endOfTrackTicks": 41280
        },
        {
            "channel": 0,
            "controlChanges": {},
            "pitchBends": [],
            "instrument": {
                "family": "piano",
                "number": 0,
                "name": "acoustic grand piano"
            },
            "name": "Human Clap",
            "notes": [{
                    "duration": 0.22604166666666714,
                    "durationTicks": 217,
                    "midi": 60,
                    "name": "C4",
                    "ticks": 27120,
                    "time": 28.25,
                    "velocity": 0.6614173228346457
                },
                {
                    "duration": 0.18020833333333286,
                    "durationTicks": 173,
                    "midi": 60,
                    "name": "C4",
                    "ticks": 27600,
                    "time": 28.75,
                    "velocity": 0.6614173228346457
                },
                {
                    "duration": 0.18333333333333357,
                    "durationTicks": 176,
                    "midi": 60,
                    "name": "C4",
                    "ticks": 28080,
                    "time": 29.25,
                    "velocity": 0.6614173228346457
                },
                {
                    "duration": 0.20520833333333144,
                    "durationTicks": 197,
                    "midi": 60,
                    "name": "C4",
                    "ticks": 28560,
                    "time": 29.75,
                    "velocity": 0.6614173228346457
                },
                {
                    "duration": 0.21666666666666856,
                    "durationTicks": 208,
                    "midi": 60,
                    "name": "C4",
                    "ticks": 29040,
                    "time": 30.25,
                    "velocity": 0.6850393700787402
                },
                {
                    "duration": 0.1979166666666643,
                    "durationTicks": 190,
                    "midi": 60,
                    "name": "C4",
                    "ticks": 29520,
                    "time": 30.75,
                    "velocity": 0.6850393700787402
                },
                {
                    "duration": 0.21041666666666714,
                    "durationTicks": 202,
                    "midi": 60,
                    "name": "C4",
                    "ticks": 30000,
                    "time": 31.25,
                    "velocity": 0.6850393700787402
                },
                {
                    "duration": 0.2218750000000007,
                    "durationTicks": 213,
                    "midi": 60,
                    "name": "C4",
                    "ticks": 30480,
                    "time": 31.75,
                    "velocity": 0.6850393700787402
                }
            ],
            "endOfTrackTicks": 30720
        },
        {
            "channel": 0,
            "controlChanges": {},
            "pitchBends": [],
            "instrument": {
                "family": "piano",
                "number": 0,
                "name": "acoustic grand piano"
            },
            "name": "Human Clap",
            "notes": [{
                    "duration": 0.22604166666666714,
                    "durationTicks": 217,
                    "midi": 60,
                    "name": "C4",
                    "ticks": 30960,
                    "time": 32.25,
                    "velocity": 0.6614173228346457
                },
                {
                    "duration": 0.18020833333333286,
                    "durationTicks": 173,
                    "midi": 60,
                    "name": "C4",
                    "ticks": 31440,
                    "time": 32.75,
                    "velocity": 0.6614173228346457
                },
                {
                    "duration": 0.18333333333333712,
                    "durationTicks": 176,
                    "midi": 60,
                    "name": "C4",
                    "ticks": 31920,
                    "time": 33.25,
                    "velocity": 0.6614173228346457
                },
                {
                    "duration": 0.20520833333333144,
                    "durationTicks": 197,
                    "midi": 60,
                    "name": "C4",
                    "ticks": 32400,
                    "time": 33.75,
                    "velocity": 0.6614173228346457
                },
                {
                    "duration": 0.21666666666666856,
                    "durationTicks": 208,
                    "midi": 60,
                    "name": "C4",
                    "ticks": 32880,
                    "time": 34.25,
                    "velocity": 0.6850393700787402
                },
                {
                    "duration": 0.1979166666666643,
                    "durationTicks": 190,
                    "midi": 60,
                    "name": "C4",
                    "ticks": 33360,
                    "time": 34.75,
                    "velocity": 0.6850393700787402
                }
            ],
            "endOfTrackTicks": 33600
        },
        {
            "channel": 0,
            "controlChanges": {},
            "pitchBends": [],
            "instrument": {
                "family": "piano",
                "number": 0,
                "name": "acoustic grand piano"
            },
            "name": "Human Clap",
            "notes": [{
                    "duration": 0.22604166666666714,
                    "durationTicks": 217,
                    "midi": 60,
                    "name": "C4",
                    "ticks": 34800,
                    "time": 36.25,
                    "velocity": 0.6614173228346457
                },
                {
                    "duration": 0.18020833333333286,
                    "durationTicks": 173,
                    "midi": 60,
                    "name": "C4",
                    "ticks": 35280,
                    "time": 36.75,
                    "velocity": 0.6614173228346457
                },
                {
                    "duration": 0.18333333333333712,
                    "durationTicks": 176,
                    "midi": 60,
                    "name": "C4",
                    "ticks": 35760,
                    "time": 37.25,
                    "velocity": 0.6614173228346457
                },
                {
                    "duration": 0.20520833333333144,
                    "durationTicks": 197,
                    "midi": 60,
                    "name": "C4",
                    "ticks": 36240,
                    "time": 37.75,
                    "velocity": 0.6614173228346457
                },
                {
                    "duration": 0.21666666666666856,
                    "durationTicks": 208,
                    "midi": 60,
                    "name": "C4",
                    "ticks": 36720,
                    "time": 38.25,
                    "velocity": 0.6850393700787402
                },
                {
                    "duration": 0.1979166666666714,
                    "durationTicks": 190,
                    "midi": 60,
                    "name": "C4",
                    "ticks": 37200,
                    "time": 38.75,
                    "velocity": 0.6850393700787402
                },
                {
                    "duration": 0.21041666666666714,
                    "durationTicks": 202,
                    "midi": 60,
                    "name": "C4",
                    "ticks": 37680,
                    "time": 39.25,
                    "velocity": 0.6850393700787402
                },
                {
                    "duration": 0.22187499999999716,
                    "durationTicks": 213,
                    "midi": 60,
                    "name": "C4",
                    "ticks": 38160,
                    "time": 39.75,
                    "velocity": 0.6850393700787402
                }
            ],
            "endOfTrackTicks": 38400
        },
        {
            "channel": 0,
            "controlChanges": {},
            "pitchBends": [],
            "instrument": {
                "family": "piano",
                "number": 0,
                "name": "acoustic grand piano"
            },
            "name": "Human Clap",
            "notes": [{
                    "duration": 0.22604166666666714,
                    "durationTicks": 217,
                    "midi": 60,
                    "name": "C4",
                    "ticks": 38640,
                    "time": 40.25,
                    "velocity": 0.6614173228346457
                },
                {
                    "duration": 0.18020833333333286,
                    "durationTicks": 173,
                    "midi": 60,
                    "name": "C4",
                    "ticks": 39120,
                    "time": 40.75,
                    "velocity": 0.6614173228346457
                },
                {
                    "duration": 0.18333333333333712,
                    "durationTicks": 176,
                    "midi": 60,
                    "name": "C4",
                    "ticks": 39600,
                    "time": 41.25,
                    "velocity": 0.6614173228346457
                },
                {
                    "duration": 0.20520833333333144,
                    "durationTicks": 197,
                    "midi": 60,
                    "name": "C4",
                    "ticks": 40080,
                    "time": 41.75,
                    "velocity": 0.6614173228346457
                },
                {
                    "duration": 0.21666666666666856,
                    "durationTicks": 208,
                    "midi": 60,
                    "name": "C4",
                    "ticks": 40560,
                    "time": 42.25,
                    "velocity": 0.6850393700787402
                },
                {
                    "duration": 0.1979166666666714,
                    "durationTicks": 190,
                    "midi": 60,
                    "name": "C4",
                    "ticks": 41040,
                    "time": 42.75,
                    "velocity": 0.6850393700787402
                }
            ],
            "endOfTrackTicks": 41280
        },
        {
            "channel": 0,
            "controlChanges": {},
            "pitchBends": [],
            "instrument": {
                "family": "piano",
                "number": 0,
                "name": "acoustic grand piano"
            },
            "name": "Retro Rock Kit",
            "notes": [{
                    "duration": 0.2979166666666657,
                    "durationTicks": 286,
                    "midi": 36,
                    "name": "C2",
                    "ticks": 26880,
                    "time": 28,
                    "velocity": 0.9212598425196851
                },
                {
                    "duration": 0.30833333333333357,
                    "durationTicks": 296,
                    "midi": 36,
                    "name": "C2",
                    "ticks": 27360,
                    "time": 28.5,
                    "velocity": 0.9212598425196851
                },
                {
                    "duration": 0.3031250000000014,
                    "durationTicks": 291,
                    "midi": 36,
                    "name": "C2",
                    "ticks": 27840,
                    "time": 29,
                    "velocity": 0.8503937007874016
                },
                {
                    "duration": 0.265625,
                    "durationTicks": 255,
                    "midi": 36,
                    "name": "C2",
                    "ticks": 28320,
                    "time": 29.5,
                    "velocity": 0.8503937007874016
                },
                {
                    "duration": 0.25416666666666643,
                    "durationTicks": 244,
                    "midi": 36,
                    "name": "C2",
                    "ticks": 28800,
                    "time": 30,
                    "velocity": 0.8503937007874016
                },
                {
                    "duration": 0.27708333333333357,
                    "durationTicks": 266,
                    "midi": 36,
                    "name": "C2",
                    "ticks": 29280,
                    "time": 30.5,
                    "velocity": 0.8503937007874016
                },
                {
                    "duration": 0.2843750000000007,
                    "durationTicks": 273,
                    "midi": 36,
                    "name": "C2",
                    "ticks": 29760,
                    "time": 31,
                    "velocity": 0.9212598425196851
                },
                {
                    "duration": 0.2687500000000007,
                    "durationTicks": 258,
                    "midi": 36,
                    "name": "C2",
                    "ticks": 30240,
                    "time": 31.5,
                    "velocity": 0.9212598425196851
                },
                {
                    "duration": 0.28958333333333286,
                    "durationTicks": 278,
                    "midi": 36,
                    "name": "C2",
                    "ticks": 30720,
                    "time": 32,
                    "velocity": 0.9212598425196851
                },
                {
                    "duration": 0.265625,
                    "durationTicks": 255,
                    "midi": 36,
                    "name": "C2",
                    "ticks": 31200,
                    "time": 32.5,
                    "velocity": 0.9212598425196851
                },
                {
                    "duration": 0.2541666666666629,
                    "durationTicks": 244,
                    "midi": 36,
                    "name": "C2",
                    "ticks": 31680,
                    "time": 33,
                    "velocity": 0.9212598425196851
                },
                {
                    "duration": 0.3062499999999986,
                    "durationTicks": 294,
                    "midi": 36,
                    "name": "C2",
                    "ticks": 32160,
                    "time": 33.5,
                    "velocity": 0.9212598425196851
                },
                {
                    "duration": 0.23854166666666288,
                    "durationTicks": 229,
                    "midi": 36,
                    "name": "C2",
                    "ticks": 32640,
                    "time": 34,
                    "velocity": 0.9212598425196851
                },
                {
                    "duration": 0.2916666666666643,
                    "durationTicks": 280,
                    "midi": 36,
                    "name": "C2",
                    "ticks": 33120,
                    "time": 34.5,
                    "velocity": 0.9212598425196851
                }
            ],
            "endOfTrackTicks": 33600
        },
        {
            "channel": 0,
            "controlChanges": {},
            "pitchBends": [],
            "instrument": {
                "family": "piano",
                "number": 0,
                "name": "acoustic grand piano"
            },
            "name": "Retro Rock Kit",
            "notes": [{
                    "duration": 0.2979166666666657,
                    "durationTicks": 286,
                    "midi": 36,
                    "name": "C2",
                    "ticks": 34560,
                    "time": 36,
                    "velocity": 0.9212598425196851
                },
                {
                    "duration": 0.3083333333333371,
                    "durationTicks": 296,
                    "midi": 36,
                    "name": "C2",
                    "ticks": 35040,
                    "time": 36.5,
                    "velocity": 0.9212598425196851
                },
                {
                    "duration": 0.3031250000000014,
                    "durationTicks": 291,
                    "midi": 36,
                    "name": "C2",
                    "ticks": 35520,
                    "time": 37,
                    "velocity": 0.8503937007874016
                },
                {
                    "duration": 0.265625,
                    "durationTicks": 255,
                    "midi": 36,
                    "name": "C2",
                    "ticks": 36000,
                    "time": 37.5,
                    "velocity": 0.8503937007874016
                },
                {
                    "duration": 0.2541666666666629,
                    "durationTicks": 244,
                    "midi": 36,
                    "name": "C2",
                    "ticks": 36480,
                    "time": 38,
                    "velocity": 0.8503937007874016
                },
                {
                    "duration": 0.2770833333333371,
                    "durationTicks": 266,
                    "midi": 36,
                    "name": "C2",
                    "ticks": 36960,
                    "time": 38.5,
                    "velocity": 0.8503937007874016
                },
                {
                    "duration": 0.28437499999999716,
                    "durationTicks": 273,
                    "midi": 36,
                    "name": "C2",
                    "ticks": 37440,
                    "time": 39,
                    "velocity": 0.9212598425196851
                },
                {
                    "duration": 0.26874999999999716,
                    "durationTicks": 258,
                    "midi": 36,
                    "name": "C2",
                    "ticks": 37920,
                    "time": 39.5,
                    "velocity": 0.9212598425196851
                },
                {
                    "duration": 0.28958333333333286,
                    "durationTicks": 278,
                    "midi": 36,
                    "name": "C2",
                    "ticks": 38400,
                    "time": 40,
                    "velocity": 0.9212598425196851
                },
                {
                    "duration": 0.265625,
                    "durationTicks": 255,
                    "midi": 36,
                    "name": "C2",
                    "ticks": 38880,
                    "time": 40.5,
                    "velocity": 0.9212598425196851
                },
                {
                    "duration": 0.2541666666666629,
                    "durationTicks": 244,
                    "midi": 36,
                    "name": "C2",
                    "ticks": 39360,
                    "time": 41,
                    "velocity": 0.9212598425196851
                },
                {
                    "duration": 0.3062499999999986,
                    "durationTicks": 294,
                    "midi": 36,
                    "name": "C2",
                    "ticks": 39840,
                    "time": 41.5,
                    "velocity": 0.9212598425196851
                },
                {
                    "duration": 0.23854166666666288,
                    "durationTicks": 229,
                    "midi": 36,
                    "name": "C2",
                    "ticks": 40320,
                    "time": 42,
                    "velocity": 0.9212598425196851
                },
                {
                    "duration": 0.2916666666666714,
                    "durationTicks": 280,
                    "midi": 36,
                    "name": "C2",
                    "ticks": 40800,
                    "time": 42.5,
                    "velocity": 0.9212598425196851
                }
            ],
            "endOfTrackTicks": 41280
        },
        {
            "channel": 0,
            "controlChanges": {},
            "pitchBends": [],
            "instrument": {
                "family": "piano",
                "number": 0,
                "name": "acoustic grand piano"
            },
            "name": "Retro Rock Kit",
            "notes": [{
                "duration": 0.31979166666666714,
                "durationTicks": 307,
                "midi": 36,
                "name": "C2",
                "ticks": 41280,
                "time": 43,
                "velocity": 0.9212598425196851
            }],
            "endOfTrackTicks": 41744
        },
        {
            "channel": 0,
            "controlChanges": {},
            "pitchBends": [],
            "instrument": {
                "family": "piano",
                "number": 0,
                "name": "acoustic grand piano"
            },
            "name": "Heavy Kick",
            "notes": [{
                    "duration": 0.59375,
                    "durationTicks": 570,
                    "midi": 36,
                    "name": "C2",
                    "ticks": 26880,
                    "time": 28,
                    "velocity": 0.8503937007874016
                },
                {
                    "duration": 0.6499999999999986,
                    "durationTicks": 624,
                    "midi": 36,
                    "name": "C2",
                    "ticks": 27840,
                    "time": 29,
                    "velocity": 0.8503937007874016
                },
                {
                    "duration": 0.6083333333333343,
                    "durationTicks": 584,
                    "midi": 36,
                    "name": "C2",
                    "ticks": 28800,
                    "time": 30,
                    "velocity": 0.9212598425196851
                },
                {
                    "duration": 0.5979166666666664,
                    "durationTicks": 574,
                    "midi": 36,
                    "name": "C2",
                    "ticks": 29760,
                    "time": 31,
                    "velocity": 0.8503937007874016
                },
                {
                    "duration": 0.5791666666666657,
                    "durationTicks": 556,
                    "midi": 36,
                    "name": "C2",
                    "ticks": 30720,
                    "time": 32,
                    "velocity": 0.9212598425196851
                },
                {
                    "duration": 0.578125,
                    "durationTicks": 555,
                    "midi": 36,
                    "name": "C2",
                    "ticks": 31680,
                    "time": 33,
                    "velocity": 0.8503937007874016
                },
                {
                    "duration": 0.5968749999999972,
                    "durationTicks": 573,
                    "midi": 36,
                    "name": "C2",
                    "ticks": 32640,
                    "time": 34,
                    "velocity": 0.8503937007874016
                }
            ],
            "endOfTrackTicks": 33600
        },
        {
            "channel": 0,
            "controlChanges": {},
            "pitchBends": [],
            "instrument": {
                "family": "piano",
                "number": 0,
                "name": "acoustic grand piano"
            },
            "name": "Heavy Kick",
            "notes": [{
                    "duration": 0.6291666666666629,
                    "durationTicks": 604,
                    "midi": 36,
                    "name": "C2",
                    "ticks": 34560,
                    "time": 36,
                    "velocity": 0.9212598425196851
                },
                {
                    "duration": 0.5854166666666671,
                    "durationTicks": 562,
                    "midi": 36,
                    "name": "C2",
                    "ticks": 35520,
                    "time": 37,
                    "velocity": 0.8503937007874016
                }
            ],
            "endOfTrackTicks": 36480
        },
        {
            "channel": 0,
            "controlChanges": {},
            "pitchBends": [],
            "instrument": {
                "family": "piano",
                "number": 0,
                "name": "acoustic grand piano"
            },
            "name": "Heavy Kick",
            "notes": [{
                    "duration": 0.59375,
                    "durationTicks": 570,
                    "midi": 36,
                    "name": "C2",
                    "ticks": 36480,
                    "time": 38,
                    "velocity": 0.8503937007874016
                },
                {
                    "duration": 0.6499999999999986,
                    "durationTicks": 624,
                    "midi": 36,
                    "name": "C2",
                    "ticks": 37440,
                    "time": 39,
                    "velocity": 0.8503937007874016
                },
                {
                    "duration": 0.6083333333333343,
                    "durationTicks": 584,
                    "midi": 36,
                    "name": "C2",
                    "ticks": 38400,
                    "time": 40,
                    "velocity": 0.9212598425196851
                },
                {
                    "duration": 0.5979166666666629,
                    "durationTicks": 574,
                    "midi": 36,
                    "name": "C2",
                    "ticks": 39360,
                    "time": 41,
                    "velocity": 0.8503937007874016
                },
                {
                    "duration": 0.5791666666666657,
                    "durationTicks": 556,
                    "midi": 36,
                    "name": "C2",
                    "ticks": 40320,
                    "time": 42,
                    "velocity": 0.9212598425196851
                }
            ],
            "endOfTrackTicks": 41280
        },
        {
            "channel": 0,
            "controlChanges": {},
            "pitchBends": [],
            "instrument": {
                "family": "piano",
                "number": 0,
                "name": "acoustic grand piano"
            },
            "name": "Heavy Kick",
            "notes": [{
                "duration": 0.578125,
                "durationTicks": 555,
                "midi": 36,
                "name": "C2",
                "ticks": 41280,
                "time": 43,
                "velocity": 0.8503937007874016
            }],
            "endOfTrackTicks": 42240
        },
        {
            "channel": 0,
            "controlChanges": {},
            "pitchBends": [],
            "instrument": {
                "family": "piano",
                "number": 0,
                "name": "acoustic grand piano"
            },
            "name": "Retro Rock Kit",
            "notes": [{
                    "duration": 0.6687499999999993,
                    "durationTicks": 642,
                    "midi": 40,
                    "name": "E2",
                    "ticks": 27360,
                    "time": 28.5,
                    "velocity": 0.9212598425196851
                },
                {
                    "duration": 0.7312499999999993,
                    "durationTicks": 702,
                    "midi": 40,
                    "name": "E2",
                    "ticks": 28320,
                    "time": 29.5,
                    "velocity": 0.968503937007874
                },
                {
                    "duration": 0.6333333333333329,
                    "durationTicks": 608,
                    "midi": 40,
                    "name": "E2",
                    "ticks": 29280,
                    "time": 30.5,
                    "velocity": 0.968503937007874
                },
                {
                    "duration": 0.7239583333333357,
                    "durationTicks": 695,
                    "midi": 40,
                    "name": "E2",
                    "ticks": 30240,
                    "time": 31.5,
                    "velocity": 0.968503937007874
                },
                {
                    "duration": 0.7406250000000014,
                    "durationTicks": 711,
                    "midi": 40,
                    "name": "E2",
                    "ticks": 31200,
                    "time": 32.5,
                    "velocity": 0.9212598425196851
                },
                {
                    "duration": 0.7635416666666686,
                    "durationTicks": 733,
                    "midi": 40,
                    "name": "E2",
                    "ticks": 32160,
                    "time": 33.5,
                    "velocity": 0.968503937007874
                }
            ],
            "endOfTrackTicks": 33600
        },
        {
            "channel": 0,
            "controlChanges": {},
            "pitchBends": [],
            "instrument": {
                "family": "piano",
                "number": 0,
                "name": "acoustic grand piano"
            },
            "name": "Retro Rock Kit",
            "notes": [{
                    "duration": 0.6687500000000028,
                    "durationTicks": 642,
                    "midi": 40,
                    "name": "E2",
                    "ticks": 35040,
                    "time": 36.5,
                    "velocity": 0.9212598425196851
                },
                {
                    "duration": 0.7312500000000028,
                    "durationTicks": 702,
                    "midi": 40,
                    "name": "E2",
                    "ticks": 36000,
                    "time": 37.5,
                    "velocity": 0.968503937007874
                },
                {
                    "duration": 0.6333333333333329,
                    "durationTicks": 608,
                    "midi": 40,
                    "name": "E2",
                    "ticks": 36960,
                    "time": 38.5,
                    "velocity": 0.968503937007874
                },
                {
                    "duration": 0.7239583333333286,
                    "durationTicks": 695,
                    "midi": 40,
                    "name": "E2",
                    "ticks": 37920,
                    "time": 39.5,
                    "velocity": 0.968503937007874
                },
                {
                    "duration": 0.7406250000000014,
                    "durationTicks": 711,
                    "midi": 40,
                    "name": "E2",
                    "ticks": 38880,
                    "time": 40.5,
                    "velocity": 0.9212598425196851
                },
                {
                    "duration": 0.4375,
                    "durationTicks": 420,
                    "midi": 40,
                    "name": "E2",
                    "ticks": 39840,
                    "time": 41.5,
                    "velocity": 0.968503937007874
                },
                {
                    "duration": 0.125,
                    "durationTicks": 120,
                    "midi": 40,
                    "name": "E2",
                    "ticks": 40320,
                    "time": 42,
                    "velocity": 0.4645669291338583
                },
                {
                    "duration": 0.125,
                    "durationTicks": 120,
                    "midi": 40,
                    "name": "E2",
                    "ticks": 40440,
                    "time": 42.125,
                    "velocity": 0.4645669291338583
                },
                {
                    "duration": 0.125,
                    "durationTicks": 120,
                    "midi": 40,
                    "name": "E2",
                    "ticks": 40560,
                    "time": 42.25,
                    "velocity": 0.6535433070866141
                }
            ],
            "endOfTrackTicks": 41280
        },
        {
            "channel": 0,
            "controlChanges": {},
            "pitchBends": [],
            "instrument": {
                "family": "piano",
                "number": 0,
                "name": "acoustic grand piano"
            },
            "name": "Metal Machine",
            "notes": [{
                    "duration": 0.09479166666666572,
                    "durationTicks": 91,
                    "midi": 55,
                    "name": "G3",
                    "ticks": 19219,
                    "time": 20.019791666666666,
                    "velocity": 0.6850393700787402
                },
                {
                    "duration": 0.15625,
                    "durationTicks": 150,
                    "midi": 67,
                    "name": "G4",
                    "ticks": 19431,
                    "time": 20.240625,
                    "velocity": 0.5511811023622047
                },
                {
                    "duration": 0.12812499999999716,
                    "durationTicks": 123,
                    "midi": 62,
                    "name": "D4",
                    "ticks": 19667,
                    "time": 20.486458333333335,
                    "velocity": 0.6614173228346457
                },
                {
                    "duration": 0.13854166666666856,
                    "durationTicks": 133,
                    "midi": 67,
                    "name": "G4",
                    "ticks": 19888,
                    "time": 20.716666666666665,
                    "velocity": 0.5826771653543307
                },
                {
                    "duration": 0.158333333333335,
                    "durationTicks": 152,
                    "midi": 55,
                    "name": "G3",
                    "ticks": 20150,
                    "time": 20.989583333333332,
                    "velocity": 0.7322834645669292
                },
                {
                    "duration": 0.13645833333333357,
                    "durationTicks": 131,
                    "midi": 67,
                    "name": "G4",
                    "ticks": 20400,
                    "time": 21.25,
                    "velocity": 0.5826771653543307
                },
                {
                    "duration": 0.11979166666666785,
                    "durationTicks": 115,
                    "midi": 62,
                    "name": "D4",
                    "ticks": 20648,
                    "time": 21.508333333333333,
                    "velocity": 0.6850393700787402
                },
                {
                    "duration": 0.140625,
                    "durationTicks": 135,
                    "midi": 67,
                    "name": "G4",
                    "ticks": 20866,
                    "time": 21.735416666666666,
                    "velocity": 0.6299212598425197
                },
                {
                    "duration": 0.125,
                    "durationTicks": 120,
                    "midi": 55,
                    "name": "G3",
                    "ticks": 21099,
                    "time": 21.978125,
                    "velocity": 0.6850393700787402
                },
                {
                    "duration": 0.1302083333333357,
                    "durationTicks": 125,
                    "midi": 67,
                    "name": "G4",
                    "ticks": 21328,
                    "time": 22.216666666666665,
                    "velocity": 0.6299212598425197
                },
                {
                    "duration": 0.11041666666666572,
                    "durationTicks": 106,
                    "midi": 62,
                    "name": "D4",
                    "ticks": 21578,
                    "time": 22.477083333333333,
                    "velocity": 0.7322834645669292
                },
                {
                    "duration": 0.12083333333333357,
                    "durationTicks": 116,
                    "midi": 67,
                    "name": "G4",
                    "ticks": 21815,
                    "time": 22.723958333333332,
                    "velocity": 0.6850393700787402
                },
                {
                    "duration": 0.13229166666666714,
                    "durationTicks": 127,
                    "midi": 55,
                    "name": "G3",
                    "ticks": 22083,
                    "time": 23.003125,
                    "velocity": 0.7322834645669292
                },
                {
                    "duration": 0.12187499999999929,
                    "durationTicks": 117,
                    "midi": 67,
                    "name": "G4",
                    "ticks": 22316,
                    "time": 23.245833333333334,
                    "velocity": 0.6614173228346457
                },
                {
                    "duration": 0.11458333333333215,
                    "durationTicks": 110,
                    "midi": 62,
                    "name": "D4",
                    "ticks": 22566,
                    "time": 23.50625,
                    "velocity": 0.8031496062992126
                },
                {
                    "duration": 0.11250000000000071,
                    "durationTicks": 108,
                    "midi": 67,
                    "name": "G4",
                    "ticks": 22774,
                    "time": 23.722916666666666,
                    "velocity": 0.7322834645669292
                }
            ],
            "endOfTrackTicks": 23040
        },
        {
            "channel": 0,
            "controlChanges": {},
            "pitchBends": [],
            "instrument": {
                "family": "piano",
                "number": 0,
                "name": "acoustic grand piano"
            },
            "name": "Metal Machine",
            "notes": [{
                    "duration": 0.09479166666666572,
                    "durationTicks": 91,
                    "midi": 55,
                    "name": "G3",
                    "ticks": 23059,
                    "time": 24.019791666666666,
                    "velocity": 0.6850393700787402
                },
                {
                    "duration": 0.15625,
                    "durationTicks": 150,
                    "midi": 67,
                    "name": "G4",
                    "ticks": 23271,
                    "time": 24.240625,
                    "velocity": 0.5511811023622047
                },
                {
                    "duration": 0.1281250000000007,
                    "durationTicks": 123,
                    "midi": 62,
                    "name": "D4",
                    "ticks": 23507,
                    "time": 24.48645833333333,
                    "velocity": 0.6614173228346457
                },
                {
                    "duration": 0.138541666666665,
                    "durationTicks": 133,
                    "midi": 67,
                    "name": "G4",
                    "ticks": 23728,
                    "time": 24.71666666666667,
                    "velocity": 0.5826771653543307
                },
                {
                    "duration": 0.158333333333335,
                    "durationTicks": 152,
                    "midi": 55,
                    "name": "G3",
                    "ticks": 23990,
                    "time": 24.989583333333332,
                    "velocity": 0.7322834645669292
                },
                {
                    "duration": 0.13645833333333357,
                    "durationTicks": 131,
                    "midi": 67,
                    "name": "G4",
                    "ticks": 24240,
                    "time": 25.25,
                    "velocity": 0.5826771653543307
                },
                {
                    "duration": 0.11979166666666785,
                    "durationTicks": 115,
                    "midi": 62,
                    "name": "D4",
                    "ticks": 24488,
                    "time": 25.508333333333333,
                    "velocity": 0.6850393700787402
                },
                {
                    "duration": 0.140625,
                    "durationTicks": 135,
                    "midi": 67,
                    "name": "G4",
                    "ticks": 24706,
                    "time": 25.735416666666666,
                    "velocity": 0.6299212598425197
                },
                {
                    "duration": 0.125,
                    "durationTicks": 120,
                    "midi": 55,
                    "name": "G3",
                    "ticks": 24939,
                    "time": 25.978125,
                    "velocity": 0.6850393700787402
                },
                {
                    "duration": 0.13020833333333215,
                    "durationTicks": 125,
                    "midi": 67,
                    "name": "G4",
                    "ticks": 25168,
                    "time": 26.21666666666667,
                    "velocity": 0.6299212598425197
                },
                {
                    "duration": 0.11041666666666572,
                    "durationTicks": 106,
                    "midi": 62,
                    "name": "D4",
                    "ticks": 25418,
                    "time": 26.477083333333333,
                    "velocity": 0.7322834645669292
                },
                {
                    "duration": 0.12083333333333357,
                    "durationTicks": 116,
                    "midi": 67,
                    "name": "G4",
                    "ticks": 25655,
                    "time": 26.723958333333332,
                    "velocity": 0.6850393700787402
                },
                {
                    "duration": 0.13229166666666714,
                    "durationTicks": 127,
                    "midi": 55,
                    "name": "G3",
                    "ticks": 25923,
                    "time": 27.003125,
                    "velocity": 0.7322834645669292
                },
                {
                    "duration": 0.12187499999999929,
                    "durationTicks": 117,
                    "midi": 67,
                    "name": "G4",
                    "ticks": 26156,
                    "time": 27.245833333333334,
                    "velocity": 0.6614173228346457
                },
                {
                    "duration": 0.11458333333333215,
                    "durationTicks": 110,
                    "midi": 62,
                    "name": "D4",
                    "ticks": 26406,
                    "time": 27.50625,
                    "velocity": 0.8031496062992126
                },
                {
                    "duration": 0.11250000000000071,
                    "durationTicks": 108,
                    "midi": 67,
                    "name": "G4",
                    "ticks": 26614,
                    "time": 27.722916666666666,
                    "velocity": 0.7322834645669292
                }
            ],
            "endOfTrackTicks": 26722
        },
        {
            "channel": 0,
            "controlChanges": {},
            "pitchBends": [],
            "instrument": {
                "family": "piano",
                "number": 0,
                "name": "acoustic grand piano"
            },
            "name": "Metal Machine",
            "notes": [{
                    "duration": 0.09479166666666572,
                    "durationTicks": 91,
                    "midi": 55,
                    "name": "G3",
                    "ticks": 26899,
                    "time": 28.019791666666666,
                    "velocity": 0.6850393700787402
                },
                {
                    "duration": 0.15625,
                    "durationTicks": 150,
                    "midi": 67,
                    "name": "G4",
                    "ticks": 27111,
                    "time": 28.240625,
                    "velocity": 0.5511811023622047
                },
                {
                    "duration": 0.1281250000000007,
                    "durationTicks": 123,
                    "midi": 62,
                    "name": "D4",
                    "ticks": 27347,
                    "time": 28.48645833333333,
                    "velocity": 0.6614173228346457
                },
                {
                    "duration": 0.138541666666665,
                    "durationTicks": 133,
                    "midi": 67,
                    "name": "G4",
                    "ticks": 27568,
                    "time": 28.71666666666667,
                    "velocity": 0.5826771653543307
                },
                {
                    "duration": 0.158333333333335,
                    "durationTicks": 152,
                    "midi": 55,
                    "name": "G3",
                    "ticks": 27830,
                    "time": 28.989583333333332,
                    "velocity": 0.7322834645669292
                },
                {
                    "duration": 0.13645833333333357,
                    "durationTicks": 131,
                    "midi": 67,
                    "name": "G4",
                    "ticks": 28080,
                    "time": 29.25,
                    "velocity": 0.5826771653543307
                },
                {
                    "duration": 0.11979166666666785,
                    "durationTicks": 115,
                    "midi": 62,
                    "name": "D4",
                    "ticks": 28328,
                    "time": 29.508333333333333,
                    "velocity": 0.6850393700787402
                },
                {
                    "duration": 0.140625,
                    "durationTicks": 135,
                    "midi": 67,
                    "name": "G4",
                    "ticks": 28546,
                    "time": 29.735416666666666,
                    "velocity": 0.6299212598425197
                },
                {
                    "duration": 0.125,
                    "durationTicks": 120,
                    "midi": 55,
                    "name": "G3",
                    "ticks": 28779,
                    "time": 29.978125,
                    "velocity": 0.6850393700787402
                },
                {
                    "duration": 0.13020833333333215,
                    "durationTicks": 125,
                    "midi": 67,
                    "name": "G4",
                    "ticks": 29008,
                    "time": 30.21666666666667,
                    "velocity": 0.6299212598425197
                },
                {
                    "duration": 0.11041666666666572,
                    "durationTicks": 106,
                    "midi": 62,
                    "name": "D4",
                    "ticks": 29258,
                    "time": 30.477083333333333,
                    "velocity": 0.7322834645669292
                },
                {
                    "duration": 0.12083333333333002,
                    "durationTicks": 116,
                    "midi": 67,
                    "name": "G4",
                    "ticks": 29495,
                    "time": 30.723958333333336,
                    "velocity": 0.6850393700787402
                },
                {
                    "duration": 0.1322916666666636,
                    "durationTicks": 127,
                    "midi": 55,
                    "name": "G3",
                    "ticks": 29763,
                    "time": 31.003125,
                    "velocity": 0.7322834645669292
                },
                {
                    "duration": 0.12187499999999929,
                    "durationTicks": 117,
                    "midi": 67,
                    "name": "G4",
                    "ticks": 29996,
                    "time": 31.245833333333334,
                    "velocity": 0.6614173228346457
                },
                {
                    "duration": 0.11458333333333215,
                    "durationTicks": 110,
                    "midi": 62,
                    "name": "D4",
                    "ticks": 30246,
                    "time": 31.50625,
                    "velocity": 0.8031496062992126
                },
                {
                    "duration": 0.11250000000000071,
                    "durationTicks": 108,
                    "midi": 67,
                    "name": "G4",
                    "ticks": 30454,
                    "time": 31.722916666666666,
                    "velocity": 0.7322834645669292
                }
            ],
            "endOfTrackTicks": 30720
        },
        {
            "channel": 0,
            "controlChanges": {},
            "pitchBends": [],
            "instrument": {
                "family": "piano",
                "number": 0,
                "name": "acoustic grand piano"
            },
            "name": "Metal Machine",
            "notes": [{
                    "duration": 0.09479166666667282,
                    "durationTicks": 91,
                    "midi": 55,
                    "name": "G3",
                    "ticks": 30739,
                    "time": 32.01979166666666,
                    "velocity": 0.6850393700787402
                },
                {
                    "duration": 0.15625,
                    "durationTicks": 150,
                    "midi": 67,
                    "name": "G4",
                    "ticks": 30951,
                    "time": 32.240625,
                    "velocity": 0.5511811023622047
                },
                {
                    "duration": 0.12812500000000426,
                    "durationTicks": 123,
                    "midi": 62,
                    "name": "D4",
                    "ticks": 31187,
                    "time": 32.48645833333333,
                    "velocity": 0.6614173228346457
                },
                {
                    "duration": 0.13854166666666856,
                    "durationTicks": 133,
                    "midi": 67,
                    "name": "G4",
                    "ticks": 31408,
                    "time": 32.71666666666667,
                    "velocity": 0.5826771653543307
                },
                {
                    "duration": 0.15833333333333144,
                    "durationTicks": 152,
                    "midi": 55,
                    "name": "G3",
                    "ticks": 31670,
                    "time": 32.989583333333336,
                    "velocity": 0.7322834645669292
                },
                {
                    "duration": 0.13645833333333712,
                    "durationTicks": 131,
                    "midi": 67,
                    "name": "G4",
                    "ticks": 31920,
                    "time": 33.25,
                    "velocity": 0.5826771653543307
                },
                {
                    "duration": 0.1197916666666643,
                    "durationTicks": 115,
                    "midi": 62,
                    "name": "D4",
                    "ticks": 32168,
                    "time": 33.50833333333333,
                    "velocity": 0.6850393700787402
                },
                {
                    "duration": 0.140625,
                    "durationTicks": 135,
                    "midi": 67,
                    "name": "G4",
                    "ticks": 32386,
                    "time": 33.735416666666666,
                    "velocity": 0.6299212598425197
                },
                {
                    "duration": 0.125,
                    "durationTicks": 120,
                    "midi": 55,
                    "name": "G3",
                    "ticks": 32619,
                    "time": 33.978125,
                    "velocity": 0.6850393700787402
                },
                {
                    "duration": 0.1302083333333286,
                    "durationTicks": 125,
                    "midi": 67,
                    "name": "G4",
                    "ticks": 32848,
                    "time": 34.21666666666667,
                    "velocity": 0.6299212598425197
                },
                {
                    "duration": 0.11041666666666572,
                    "durationTicks": 106,
                    "midi": 62,
                    "name": "D4",
                    "ticks": 33098,
                    "time": 34.47708333333333,
                    "velocity": 0.7322834645669292
                },
                {
                    "duration": 0.12083333333333002,
                    "durationTicks": 116,
                    "midi": 67,
                    "name": "G4",
                    "ticks": 33335,
                    "time": 34.723958333333336,
                    "velocity": 0.6850393700787402
                }
            ],
            "endOfTrackTicks": 33600
        },
        {
            "channel": 0,
            "controlChanges": {},
            "pitchBends": [],
            "instrument": {
                "family": "piano",
                "number": 0,
                "name": "acoustic grand piano"
            },
            "name": "Metal Machine",
            "notes": [{
                    "duration": 0.09479166666667282,
                    "durationTicks": 91,
                    "midi": 55,
                    "name": "G3",
                    "ticks": 34579,
                    "time": 36.01979166666666,
                    "velocity": 0.6850393700787402
                },
                {
                    "duration": 0.15625,
                    "durationTicks": 150,
                    "midi": 67,
                    "name": "G4",
                    "ticks": 34791,
                    "time": 36.240625,
                    "velocity": 0.5511811023622047
                },
                {
                    "duration": 0.12812500000000426,
                    "durationTicks": 123,
                    "midi": 62,
                    "name": "D4",
                    "ticks": 35027,
                    "time": 36.48645833333333,
                    "velocity": 0.6614173228346457
                },
                {
                    "duration": 0.13854166666666856,
                    "durationTicks": 133,
                    "midi": 67,
                    "name": "G4",
                    "ticks": 35248,
                    "time": 36.71666666666667,
                    "velocity": 0.5826771653543307
                },
                {
                    "duration": 0.15833333333333144,
                    "durationTicks": 152,
                    "midi": 55,
                    "name": "G3",
                    "ticks": 35510,
                    "time": 36.989583333333336,
                    "velocity": 0.7322834645669292
                },
                {
                    "duration": 0.13645833333333712,
                    "durationTicks": 131,
                    "midi": 67,
                    "name": "G4",
                    "ticks": 35760,
                    "time": 37.25,
                    "velocity": 0.5826771653543307
                },
                {
                    "duration": 0.1197916666666643,
                    "durationTicks": 115,
                    "midi": 62,
                    "name": "D4",
                    "ticks": 36008,
                    "time": 37.50833333333333,
                    "velocity": 0.6850393700787402
                },
                {
                    "duration": 0.140625,
                    "durationTicks": 135,
                    "midi": 67,
                    "name": "G4",
                    "ticks": 36226,
                    "time": 37.735416666666666,
                    "velocity": 0.6299212598425197
                },
                {
                    "duration": 0.125,
                    "durationTicks": 120,
                    "midi": 55,
                    "name": "G3",
                    "ticks": 36459,
                    "time": 37.978125,
                    "velocity": 0.6850393700787402
                },
                {
                    "duration": 0.1302083333333286,
                    "durationTicks": 125,
                    "midi": 67,
                    "name": "G4",
                    "ticks": 36688,
                    "time": 38.21666666666667,
                    "velocity": 0.6299212598425197
                },
                {
                    "duration": 0.11041666666666572,
                    "durationTicks": 106,
                    "midi": 62,
                    "name": "D4",
                    "ticks": 36938,
                    "time": 38.47708333333333,
                    "velocity": 0.7322834645669292
                },
                {
                    "duration": 0.12083333333333712,
                    "durationTicks": 116,
                    "midi": 67,
                    "name": "G4",
                    "ticks": 37175,
                    "time": 38.72395833333333,
                    "velocity": 0.6850393700787402
                },
                {
                    "duration": 0.13229166666667425,
                    "durationTicks": 127,
                    "midi": 55,
                    "name": "G3",
                    "ticks": 37443,
                    "time": 39.003125,
                    "velocity": 0.7322834645669292
                },
                {
                    "duration": 0.12187499999999574,
                    "durationTicks": 117,
                    "midi": 67,
                    "name": "G4",
                    "ticks": 37676,
                    "time": 39.24583333333334,
                    "velocity": 0.6614173228346457
                },
                {
                    "duration": 0.1145833333333357,
                    "durationTicks": 110,
                    "midi": 62,
                    "name": "D4",
                    "ticks": 37926,
                    "time": 39.50625,
                    "velocity": 0.8031496062992126
                },
                {
                    "duration": 0.11250000000000426,
                    "durationTicks": 108,
                    "midi": 67,
                    "name": "G4",
                    "ticks": 38134,
                    "time": 39.72291666666666,
                    "velocity": 0.7322834645669292
                }
            ],
            "endOfTrackTicks": 38400
        },
        {
            "channel": 0,
            "controlChanges": {},
            "pitchBends": [],
            "instrument": {
                "family": "piano",
                "number": 0,
                "name": "acoustic grand piano"
            },
            "name": "Metal Machine",
            "notes": [{
                    "duration": 0.09479166666666572,
                    "durationTicks": 91,
                    "midi": 55,
                    "name": "G3",
                    "ticks": 38419,
                    "time": 40.01979166666666,
                    "velocity": 0.6850393700787402
                },
                {
                    "duration": 0.15625,
                    "durationTicks": 150,
                    "midi": 67,
                    "name": "G4",
                    "ticks": 38631,
                    "time": 40.240625,
                    "velocity": 0.5511811023622047
                },
                {
                    "duration": 0.12812499999999716,
                    "durationTicks": 123,
                    "midi": 62,
                    "name": "D4",
                    "ticks": 38867,
                    "time": 40.48645833333333,
                    "velocity": 0.6614173228346457
                },
                {
                    "duration": 0.13854166666666856,
                    "durationTicks": 133,
                    "midi": 67,
                    "name": "G4",
                    "ticks": 39088,
                    "time": 40.71666666666667,
                    "velocity": 0.5826771653543307
                },
                {
                    "duration": 0.15833333333333854,
                    "durationTicks": 152,
                    "midi": 55,
                    "name": "G3",
                    "ticks": 39350,
                    "time": 40.98958333333333,
                    "velocity": 0.7322834645669292
                },
                {
                    "duration": 0.13645833333333712,
                    "durationTicks": 131,
                    "midi": 67,
                    "name": "G4",
                    "ticks": 39600,
                    "time": 41.25,
                    "velocity": 0.5826771653543307
                },
                {
                    "duration": 0.1197916666666643,
                    "durationTicks": 115,
                    "midi": 62,
                    "name": "D4",
                    "ticks": 39848,
                    "time": 41.50833333333333,
                    "velocity": 0.6850393700787402
                },
                {
                    "duration": 0.140625,
                    "durationTicks": 135,
                    "midi": 67,
                    "name": "G4",
                    "ticks": 40066,
                    "time": 41.735416666666666,
                    "velocity": 0.6299212598425197
                },
                {
                    "duration": 0.125,
                    "durationTicks": 120,
                    "midi": 55,
                    "name": "G3",
                    "ticks": 40299,
                    "time": 41.978125,
                    "velocity": 0.6850393700787402
                },
                {
                    "duration": 0.1302083333333286,
                    "durationTicks": 125,
                    "midi": 67,
                    "name": "G4",
                    "ticks": 40528,
                    "time": 42.21666666666667,
                    "velocity": 0.6299212598425197
                },
                {
                    "duration": 0.11041666666666572,
                    "durationTicks": 106,
                    "midi": 62,
                    "name": "D4",
                    "ticks": 40778,
                    "time": 42.47708333333333,
                    "velocity": 0.7322834645669292
                },
                {
                    "duration": 0.12083333333333712,
                    "durationTicks": 116,
                    "midi": 67,
                    "name": "G4",
                    "ticks": 41015,
                    "time": 42.72395833333333,
                    "velocity": 0.6850393700787402
                },
                {
                    "duration": 0.13229166666667425,
                    "durationTicks": 127,
                    "midi": 55,
                    "name": "G3",
                    "ticks": 41283,
                    "time": 43.003125,
                    "velocity": 0.7322834645669292
                },
                {
                    "duration": 0.12187499999999574,
                    "durationTicks": 117,
                    "midi": 67,
                    "name": "G4",
                    "ticks": 41516,
                    "time": 43.24583333333334,
                    "velocity": 0.6614173228346457
                },
                {
                    "duration": 0.1145833333333357,
                    "durationTicks": 110,
                    "midi": 62,
                    "name": "D4",
                    "ticks": 41766,
                    "time": 43.50625,
                    "velocity": 0.8031496062992126
                },
                {
                    "duration": 0.11250000000000426,
                    "durationTicks": 108,
                    "midi": 67,
                    "name": "G4",
                    "ticks": 41974,
                    "time": 43.72291666666666,
                    "velocity": 0.7322834645669292
                }
            ],
            "endOfTrackTicks": 42082
        },
        {
            "channel": 0,
            "controlChanges": {},
            "pitchBends": [],
            "instrument": {
                "family": "piano",
                "number": 0,
                "name": "acoustic grand piano"
            },
            "name": "Metal Machine",
            "notes": [],
            "endOfTrackTicks": 960
        },
        {
            "channel": 0,
            "controlChanges": {},
            "pitchBends": [],
            "instrument": {
                "family": "piano",
                "number": 0,
                "name": "acoustic grand piano"
            },
            "name": "Metal Machine",
            "notes": [],
            "endOfTrackTicks": 960
        }
    ]
}

var w = 512;
var h = 256;
var fps = 30;
var dur = 5;

function compExists(name) {
    for (var i = 1; i <= app.project.items.length; i++) {
        if (app.project.items[i] instanceof CompItem && app.project.items[i].name === name) {
            return true;
        }
    }
    return false;
}

var main_comp = app.project.items.addComp("MAIN", w, h, 1, dur, fps);


for (var i = 0; track.tracks.length; i++) {
    if (track.tracks[i].notes.length != 0) {
        if(!compExists(track.tracks[i].name)) {
            var subComp = app.project.items.addComp(track.tracks[i].name, w, h, 1, dur, fps);
            var subCompLayer = main_comp.layers.add(subComp);
        }
    }
}
