# Blender 4.1.0
# www.blender.org
mtllib ouais.mtl
o ouais
v -0.577351 -0.577351 0.577351
v -0.628155 -0.459177 0.628155
v -0.696840 -0.169795 0.696840
v -0.628155 -0.628155 0.459177
v -0.696840 -0.696840 0.169795
v -0.695267 -0.508235 0.508235
v -0.792125 -0.193013 0.579038
v -0.792125 -0.579038 0.193013
v -0.945442 -0.230371 0.230371
v -0.459177 -0.628155 0.628155
v -0.169795 -0.696840 0.696840
v -0.536592 -0.468082 0.702118
v -0.586983 -0.256020 0.768054
v -0.198698 -0.543643 0.815459
v -0.225221 -0.308105 0.924310
v -0.508235 -0.695267 0.508235
v -0.579038 -0.792125 0.193013
v -0.193013 -0.792125 0.579038
v -0.230371 -0.945442 0.230371
v -0.467203 -0.407553 0.446874
v -0.526741 -0.229745 0.503822
v -0.520078 -0.453676 0.328287
v -0.606339 -0.264462 0.382738
v -0.174812 -0.478289 0.524436
v -0.212159 -0.290236 0.636478
v -0.189280 -0.517874 0.374742
v -0.185118 -0.253243 0.366501
v -0.696840 0.169795 0.696840
v -0.628155 0.459177 0.628155
v -0.577352 0.577348 0.577352
v -0.792125 0.193013 0.579038
v -0.695267 0.508235 0.508235
v -0.945442 0.230371 0.230371
v -0.792125 0.579038 0.193013
v -0.628157 0.628152 0.459179
v -0.696842 0.696837 0.169796
v -0.602355 0.126337 0.788168
v -0.532063 0.481899 0.696192
v -0.190045 0.155387 0.969401
v -0.159140 0.561893 0.811759
v -0.459179 0.628152 0.628157
v -0.169796 0.696837 0.696842
v -0.546050 0.114527 0.522291
v -0.462105 0.418536 0.441998
v -0.671698 0.140880 0.336228
v -0.531075 0.481004 0.265837
v -0.185244 0.151461 0.690722
v -0.139726 0.493344 0.520999
v -0.163474 0.133661 0.318998
v -0.166543 0.588029 0.324987
v -0.508233 0.695258 0.508233
v -0.579037 0.792117 0.193012
v -0.193012 0.792117 0.579037
v -0.230370 0.945434 0.230370
v -0.696840 -0.696840 -0.169795
v -0.628155 -0.628155 -0.459177
v -0.792125 -0.579038 -0.193013
v -0.945442 -0.230371 -0.230371
v -0.695267 -0.508235 -0.508235
v -0.792125 -0.193013 -0.579038
v -0.577352 -0.577352 -0.577348
v -0.628157 -0.459179 -0.628152
v -0.696842 -0.169796 -0.696837
v -0.579038 -0.792125 -0.193013
v -0.508235 -0.695267 -0.508235
v -0.230371 -0.945442 -0.230371
v -0.193013 -0.792125 -0.579038
v -0.459179 -0.628157 -0.628152
v -0.169796 -0.696842 -0.696837
v -0.508233 -0.508233 -0.695258
v -0.579037 -0.193012 -0.792117
v -0.193012 -0.579037 -0.792117
v -0.230370 -0.230370 -0.945434
v -0.945442 0.230371 -0.230371
v -0.792125 0.579038 -0.193013
v -0.792125 0.193013 -0.579038
v -0.695267 0.508235 -0.508235
v -0.696842 0.696837 -0.169796
v -0.628157 0.628152 -0.459179
v -0.696842 0.169796 -0.696837
v -0.628157 0.459179 -0.628152
v -0.577354 0.577349 -0.577349
v -0.579037 0.792117 -0.193012
v -0.508233 0.695258 -0.508233
v -0.230370 0.945434 -0.230370
v -0.193012 0.792117 -0.579037
v -0.579037 0.193012 -0.792117
v -0.508233 0.508233 -0.695258
v -0.230370 0.230370 -0.945434
v -0.193012 0.579037 -0.792117
v -0.459177 0.628149 -0.628149
v -0.169795 0.696834 -0.696834
v 0.169795 -0.696840 0.696840
v 0.459177 -0.628155 0.628155
v 0.198698 -0.543643 0.815459
v 0.225221 -0.308105 0.924310
v 0.536588 -0.468083 0.702120
v 0.586979 -0.256021 0.768056
v 0.193013 -0.792125 0.579038
v 0.230371 -0.945442 0.230371
v 0.508235 -0.695267 0.508235
v 0.579038 -0.792125 0.193013
v 0.174812 -0.478289 0.524436
v 0.212159 -0.290236 0.636478
v 0.189280 -0.517874 0.374742
v 0.185118 -0.253243 0.366501
v 0.467196 -0.407550 0.446872
v 0.526733 -0.229743 0.503819
v 0.520070 -0.453674 0.328285
v 0.606331 -0.264461 0.382736
v 0.577348 -0.577352 0.577352
v 0.628152 -0.459179 0.628157
v 0.696837 -0.169796 0.696842
v 0.628152 -0.628157 0.459179
v 0.696837 -0.696842 0.169796
v 0.695258 -0.508233 0.508233
v 0.792117 -0.193012 0.579037
v 0.792117 -0.579037 0.193012
v 0.945434 -0.230370 0.230370
v 0.190039 0.155387 0.969403
v 0.159135 0.561893 0.811759
v 0.602352 0.126337 0.788171
v 0.532060 0.481900 0.696194
v 0.169796 0.696837 0.696842
v 0.459179 0.628152 0.628157
v 0.185237 0.151461 0.690724
v 0.139721 0.493345 0.521000
v 0.163469 0.133662 0.319000
v 0.166537 0.588030 0.324988
v 0.546043 0.114527 0.522288
v 0.462097 0.418534 0.441995
v 0.671690 0.140880 0.336228
v 0.531067 0.481001 0.265836
v 0.193012 0.792117 0.579037
v 0.230370 0.945434 0.230370
v 0.508233 0.695258 0.508233
v 0.579037 0.792117 0.193012
v 0.696837 0.169796 0.696842
v 0.628152 0.459179 0.628157
v 0.577349 0.577349 0.577354
v 0.792117 0.193012 0.579037
v 0.695258 0.508233 0.508233
v 0.945434 0.230370 0.230370
v 0.792117 0.579037 0.193012
v 0.628149 0.628149 0.459177
v 0.696834 0.696834 0.169795
v 0.230371 -0.945442 -0.230371
v 0.193013 -0.792125 -0.579038
v 0.579038 -0.792125 -0.193013
v 0.508235 -0.695267 -0.508235
v 0.169796 -0.696842 -0.696837
v 0.459179 -0.628157 -0.628152
v 0.193012 -0.579037 -0.792117
v 0.230370 -0.230370 -0.945434
v 0.508233 -0.508233 -0.695258
v 0.579037 -0.193012 -0.792117
v 0.696837 -0.696842 -0.169796
v 0.628152 -0.628157 -0.459179
v 0.792117 -0.579037 -0.193012
v 0.945434 -0.230370 -0.230370
v 0.695258 -0.508233 -0.508233
v 0.792117 -0.193012 -0.579037
v 0.577349 -0.577354 -0.577349
v 0.628149 -0.459177 -0.628149
v 0.696834 -0.169795 -0.696834
v 0.230370 0.945434 -0.230370
v 0.193012 0.792117 -0.579037
v 0.579037 0.792117 -0.193012
v 0.508233 0.695258 -0.508233
v 0.230370 0.230370 -0.945434
v 0.193012 0.579037 -0.792117
v 0.579037 0.193012 -0.792117
v 0.508233 0.508233 -0.695258
v 0.169795 0.696834 -0.696834
v 0.459177 0.628149 -0.628149
v 0.945434 0.230370 -0.230370
v 0.792117 0.579037 -0.193012
v 0.792117 0.193012 -0.579037
v 0.695258 0.508233 -0.508233
v 0.696834 0.696834 -0.169795
v 0.628149 0.628149 -0.459177
v 0.696834 0.169795 -0.696834
v 0.628149 0.459177 -0.628149
v 0.577346 0.577346 -0.577346
vn -0.5756 -0.5756 0.5808
vn -0.6519 -0.4254 0.6277
vn -0.7091 -0.1417 0.6907
vn -0.6428 -0.6428 0.4166
vn -0.6987 -0.6987 0.1537
vn -0.7453 -0.4715 0.4715
vn -0.8368 -0.1831 0.5161
vn -0.8368 -0.5161 0.1831
vn -0.9574 -0.2042 0.2042
vn -0.4161 -0.6347 0.6512
vn -0.1563 -0.6896 0.7071
vn -0.1150 -0.0427 0.9924
vn -0.3389 -0.4807 0.8088
vn -0.1242 0.2713 0.9544
vn -0.1889 -0.7253 0.6621
vn -0.4715 -0.7453 0.4715
vn -0.5161 -0.8368 0.1831
vn -0.1831 -0.8368 0.5161
vn -0.2042 -0.9574 0.2042
vn 0.6094 0.7708 -0.1856
vn 0.6240 -0.7763 -0.0893
vn 0.5295 0.6633 0.5288
vn 0.9357 -0.3085 0.1712
vn 0.0992 0.9950 -0.0133
vn -0.0516 -0.9957 -0.0767
vn 0.1128 0.8247 0.5542
vn -0.0392 -0.7426 0.6685
vn -0.6952 0.1652 0.6996
vn -0.6388 0.4157 0.6475
vn -0.5767 0.5767 0.5787
vn -0.8368 0.1831 0.5161
vn -0.7453 0.4715 0.4715
vn -0.9574 0.2042 0.2042
vn -0.8368 0.5161 0.1831
vn -0.6428 0.6428 0.4166
vn -0.6987 0.6987 0.1537
vn -0.3019 0.3787 0.8749
vn -0.1021 0.0583 0.9931
vn -0.3809 0.3219 0.8668
vn -0.4208 0.2870 0.8605
vn -0.4131 0.6328 0.6549
vn -0.1653 0.6942 0.7006
vn 0.6501 0.7575 -0.0590
vn 0.6582 -0.7267 -0.1967
vn 0.8771 0.3785 0.2957
vn 0.5893 -0.6307 0.5049
vn -0.7010 0.7126 -0.0278
vn -0.7655 -0.6423 -0.0394
vn -0.5778 0.5950 0.5587
vn -0.4425 -0.8190 0.3652
vn -0.4714 0.7453 0.4714
vn -0.5160 0.8368 0.1831
vn -0.1831 0.8368 0.5160
vn -0.2042 0.9574 0.2042
vn -0.6987 -0.6987 -0.1537
vn -0.6428 -0.6428 -0.4166
vn -0.8368 -0.5161 -0.1831
vn -0.9574 -0.2042 -0.2042
vn -0.7453 -0.4715 -0.4715
vn -0.8368 -0.1831 -0.5161
vn -0.5773 -0.5773 -0.5774
vn -0.6428 -0.4166 -0.6428
vn -0.6987 -0.1537 -0.6987
vn -0.5161 -0.8368 -0.1831
vn -0.4715 -0.7453 -0.4715
vn -0.2042 -0.9574 -0.2042
vn -0.1831 -0.8368 -0.5161
vn -0.4166 -0.6428 -0.6428
vn -0.1537 -0.6987 -0.6987
vn -0.4714 -0.4714 -0.7453
vn -0.5160 -0.1831 -0.8368
vn -0.1831 -0.5160 -0.8368
vn -0.2042 -0.2042 -0.9574
vn -0.9574 0.2042 -0.2042
vn -0.8368 0.5161 -0.1831
vn -0.8368 0.1831 -0.5161
vn -0.7453 0.4715 -0.4715
vn -0.6987 0.6987 -0.1537
vn -0.6428 0.6428 -0.4166
vn -0.6987 0.1537 -0.6987
vn -0.6428 0.4166 -0.6428
vn -0.5773 0.5774 -0.5774
vn -0.5160 0.8368 -0.1831
vn -0.4714 0.7453 -0.4715
vn -0.2042 0.9574 -0.2042
vn -0.1831 0.8367 -0.5161
vn -0.5160 0.1831 -0.8368
vn -0.4714 0.4715 -0.7453
vn -0.2042 0.2042 -0.9574
vn -0.1831 0.5161 -0.8367
vn -0.4166 0.6428 -0.6428
vn -0.1537 0.6987 -0.6987
vn 0.1563 -0.6896 0.7071
vn 0.4161 -0.6347 0.6512
vn 0.1242 0.2713 0.9544
vn 0.1889 -0.7253 0.6621
vn 0.1150 -0.0428 0.9924
vn 0.3389 -0.4807 0.8088
vn 0.1831 -0.8368 0.5161
vn 0.2042 -0.9574 0.2042
vn 0.4715 -0.7453 0.4715
vn 0.5161 -0.8368 0.1831
vn -0.0992 0.9950 -0.0133
vn 0.0516 -0.9957 -0.0767
vn -0.1128 0.8247 0.5542
vn 0.0392 -0.7426 0.6685
vn -0.6094 0.7708 -0.1856
vn -0.6240 -0.7763 -0.0893
vn -0.5295 0.6633 0.5288
vn -0.9357 -0.3085 0.1712
vn 0.5757 -0.5756 0.5807
vn 0.6519 -0.4254 0.6277
vn 0.7091 -0.1417 0.6907
vn 0.6428 -0.6428 0.4166
vn 0.6987 -0.6987 0.1537
vn 0.7453 -0.4714 0.4714
vn 0.8368 -0.1831 0.5160
vn 0.8368 -0.5160 0.1831
vn 0.9574 -0.2042 0.2042
vn 0.3809 0.3219 0.8668
vn 0.4208 0.2870 0.8605
vn 0.3019 0.3787 0.8749
vn 0.1021 0.0583 0.9931
vn 0.1653 0.6942 0.7006
vn 0.4131 0.6328 0.6549
vn 0.7010 0.7126 -0.0278
vn 0.7655 -0.6423 -0.0394
vn 0.5778 0.5950 0.5587
vn 0.4425 -0.8190 0.3652
vn -0.6501 0.7575 -0.0590
vn -0.6582 -0.7267 -0.1967
vn -0.8771 0.3785 0.2957
vn -0.5893 -0.6307 0.5049
vn 0.1831 0.8368 0.5160
vn 0.2042 0.9574 0.2042
vn 0.4715 0.7453 0.4714
vn 0.5161 0.8367 0.1831
vn 0.6952 0.1652 0.6996
vn 0.6388 0.4157 0.6474
vn 0.5767 0.5767 0.5787
vn 0.8368 0.1831 0.5160
vn 0.7453 0.4715 0.4714
vn 0.9574 0.2042 0.2042
vn 0.8367 0.5161 0.1831
vn 0.6428 0.6428 0.4166
vn 0.6987 0.6987 0.1537
vn 0.2042 -0.9574 -0.2042
vn 0.1831 -0.8368 -0.5161
vn 0.5161 -0.8368 -0.1831
vn 0.4715 -0.7453 -0.4715
vn 0.1537 -0.6987 -0.6987
vn 0.4166 -0.6428 -0.6428
vn 0.1831 -0.5160 -0.8368
vn 0.2042 -0.2042 -0.9574
vn 0.4715 -0.4714 -0.7453
vn 0.5161 -0.1831 -0.8367
vn 0.6987 -0.6987 -0.1537
vn 0.6428 -0.6428 -0.4166
vn 0.8368 -0.5160 -0.1831
vn 0.9574 -0.2042 -0.2042
vn 0.7453 -0.4714 -0.4715
vn 0.8367 -0.1831 -0.5161
vn 0.5774 -0.5773 -0.5774
vn 0.6428 -0.4166 -0.6428
vn 0.6987 -0.1537 -0.6987
vn 0.2042 0.9574 -0.2042
vn 0.1831 0.8367 -0.5161
vn 0.5161 0.8367 -0.1831
vn 0.4715 0.7453 -0.4715
vn 0.2042 0.2042 -0.9574
vn 0.1831 0.5161 -0.8367
vn 0.5161 0.1831 -0.8367
vn 0.4715 0.4715 -0.7453
vn 0.1537 0.6987 -0.6987
vn 0.4166 0.6428 -0.6428
vn 0.9574 0.2042 -0.2042
vn 0.8367 0.5161 -0.1831
vn 0.8367 0.1831 -0.5161
vn 0.7453 0.4715 -0.4715
vn 0.6987 0.6987 -0.1537
vn 0.6428 0.6428 -0.4166
vn 0.6987 0.1537 -0.6987
vn 0.6428 0.4166 -0.6428
vn 0.5774 0.5774 -0.5774
s 1
f 6//6 7//7 9//9 8//8
f 16//16 17//17 19//19 18//18
f 22//22 23//23 21//21 20//20
f 22//22 26//26 27//27 23//23
f 24//24 26//26 22//22 20//20
f 21//21 23//23 27//27 25//25
f 2//2 12//12 13//13 3//3
f 4//4 5//5 17//17 16//16
f 10//10 16//16 18//18 11//11
f 2//2 3//3 7//7 6//6
f 20//20 21//21 13//13 12//12
f 14//14 24//24 20//20 12//12
f 13//13 21//21 25//25 15//15
f 4//4 6//6 8//8 5//5
f 10//10 11//11 14//14 12//12
f 1//1 2//2 6//6 4//4
f 1//1 10//10 12//12 2//2
f 1//1 4//4 16//16 10//10
f 31//31 32//32 34//34 33//33
f 45//45 46//46 44//44 43//43
f 47//47 48//48 50//50 49//49
f 45//45 49//49 50//50 46//46
f 47//47 49//49 45//45 43//43
f 44//44 46//46 50//50 48//48
f 53//53 54//54 52//52 51//51
f 28//28 37//37 38//38 29//29
f 51//51 52//52 36//36 35//35
f 28//28 29//29 32//32 31//31
f 43//43 44//44 38//38 37//37
f 39//39 40//40 48//48 47//47
f 39//39 47//47 43//43 37//37
f 38//38 44//44 48//48 40//40
f 42//42 53//53 51//51 41//41
f 32//32 35//35 36//36 34//34
f 38//38 40//40 42//42 41//41
f 29//29 30//30 35//35 32//32
f 29//29 38//38 41//41 30//30
f 41//41 51//51 35//35 30//30
f 57//57 58//58 60//60 59//59
f 64//64 65//65 67//67 66//66
f 71//71 73//73 72//72 70//70
f 55//55 56//56 65//65 64//64
f 63//63 71//71 70//70 62//62
f 65//65 68//68 69//69 67//67
f 59//59 60//60 63//63 62//62
f 55//55 57//57 59//59 56//56
f 70//70 72//72 69//69 68//68
f 56//56 59//59 62//62 61//61
f 62//62 70//70 68//68 61//61
f 56//56 61//61 68//68 65//65
f 74//74 75//75 77//77 76//76
f 85//85 86//86 84//84 83//83
f 88//88 90//90 89//89 87//87
f 83//83 84//84 79//79 78//78
f 81//81 88//88 87//87 80//80
f 76//76 77//77 81//81 80//80
f 86//86 92//92 91//91 84//84
f 75//75 78//78 79//79 77//77
f 91//91 92//92 90//90 88//88
f 77//77 79//79 82//82 81//81
f 82//82 91//91 88//88 81//81
f 84//84 91//91 82//82 79//79
f 99//99 100//100 102//102 101//101
f 107//107 108//108 110//110 109//109
f 105//105 109//109 110//110 106//106
f 107//107 109//109 105//105 103//103
f 104//104 106//106 110//110 108//108
f 118//118 119//119 117//117 116//116
f 97//97 112//112 113//113 98//98
f 101//101 102//102 115//115 114//114
f 93//93 99//99 101//101 94//94
f 97//97 98//98 108//108 107//107
f 97//97 107//107 103//103 95//95
f 96//96 104//104 108//108 98//98
f 116//116 117//117 113//113 112//112
f 93//93 94//94 97//97 95//95
f 115//115 118//118 116//116 114//114
f 114//114 116//116 112//112 111//111
f 94//94 111//111 112//112 97//97
f 94//94 101//101 114//114 111//111
f 128//128 129//129 127//127 126//126
f 130//130 131//131 133//133 132//132
f 128//128 132//132 133//133 129//129
f 130//130 132//132 128//128 126//126
f 127//127 129//129 133//133 131//131
f 136//136 137//137 135//135 134//134
f 143//143 144//144 142//142 141//141
f 122//122 138//138 139//139 123//123
f 145//145 146//146 137//137 136//136
f 126//126 127//127 121//121 120//120
f 122//122 123//123 131//131 130//130
f 122//122 130//130 126//126 120//120
f 121//121 127//127 131//131 123//123
f 141//141 142//142 139//139 138//138
f 125//125 136//136 134//134 124//124
f 121//121 123//123 125//125 124//124
f 144//144 146//146 145//145 142//142
f 142//142 145//145 140//140 139//139
f 123//123 139//139 140//140 125//125
f 140//140 145//145 136//136 125//125
f 147//147 148//148 150//150 149//149
f 154//154 156//156 155//155 153//153
f 161//161 162//162 160//160 159//159
f 149//149 150//150 158//158 157//157
f 156//156 165//165 164//164 155//155
f 148//148 151//151 152//152 150//150
f 164//164 165//165 162//162 161//161
f 153//153 155//155 152//152 151//151
f 158//158 161//161 159//159 157//157
f 163//163 164//164 161//161 158//158
f 155//155 164//164 163//163 152//152
f 150//150 152//152 163//163 158//158
f 168//168 169//169 167//167 166//166
f 171//171 173//173 172//172 170//170
f 178//178 179//179 177//177 176//176
f 180//180 181//181 169//169 168//168
f 173//173 183//183 182//182 172//172
f 182//182 183//183 179//179 178//178
f 169//169 175//175 174//174 167//167
f 174//174 175//175 173//173 171//171
f 179//179 181//181 180//180 177//177
f 183//183 184//184 181//181 179//179
f 175//175 184//184 183//183 173//173
f 181//181 184//184 175//175 169//169
f 18//18 19//19 100//100 99//99
f 26//26 105//105 106//106 27//27
f 103//103 105//105 26//26 24//24
f 25//25 27//27 106//106 104//104
f 11//11 93//93 95//95 14//14
f 11//11 18//18 99//99 93//93
f 95//95 103//103 24//24 14//14
f 15//15 25//25 104//104 96//96
f 39//39 120//120 121//121 40//40
f 134//134 135//135 54//54 53//53
f 40//40 121//121 124//124 42//42
f 124//124 134//134 53//53 42//42
f 66//66 67//67 148//148 147//147
f 73//73 154//154 153//153 72//72
f 72//72 153//153 151//151 69//69
f 67//67 69//69 151//151 148//148
f 166//166 167//167 86//86 85//85
f 90//90 171//171 170//170 89//89
f 92//92 174//174 171//171 90//90
f 167//167 174//174 92//92 86//86
f 17//17 64//64 66//66 19//19
f 8//8 9//9 58//58 57//57
f 5//5 8//8 57//57 55//55
f 5//5 55//55 64//64 17//17
f 100//100 147//147 149//149 102//102
f 159//159 160//160 119//119 118//118
f 157//157 159//159 118//118 115//115
f 102//102 149//149 157//157 115//115
f 33//33 34//34 75//75 74//74
f 54//54 85//85 83//83 52//52
f 34//34 36//36 78//78 75//75
f 52//52 83//83 78//78 36//36
f 176//176 177//177 144//144 143//143
f 137//137 168//168 166//166 135//135
f 177//177 180//180 146//146 144//144
f 146//146 180//180 168//168 137//137
f 7//7 31//31 33//33 9//9
f 13//13 15//15 39//39 37//37
f 3//3 28//28 31//31 7//7
f 3//3 13//13 37//37 28//28
f 58//58 74//74 76//76 60//60
f 87//87 89//89 73//73 71//71
f 60//60 76//76 80//80 63//63
f 80//80 87//87 71//71 63//63
f 96//96 98//98 122//122 120//120
f 119//119 143//143 141//141 117//117
f 117//117 141//141 138//138 113//113
f 98//98 113//113 138//138 122//122
f 170//170 172//172 156//156 154//154
f 162//162 178//178 176//176 160//160
f 165//165 182//182 178//178 162//162
f 172//172 182//182 165//165 156//156
f 9//9 33//33 74//74 58//58
f 160//160 176//176 143//143 119//119
f 15//15 96//96 120//120 39//39
f 89//89 170//170 154//154 73//73
f 19//19 66//66 147//147 100//100
f 135//135 166//166 85//85 54//54
