{
  "header": {
    "keySignatures": [
      {
        "key": "C",
        "scale": "major",
        "ticks": 0
      }
    ],
    "meta": [
      {
        "text": "Marqueur ##",
        "ticks": 26880,
        "type": "marker"
      }
    ],
    "name": "",
    "ppq": 480,
    "tempos": [
      {
        "bpm": 120,
        "ticks": 0
      }
    ],
    "timeSignatures": [
      {
        "ticks": 0,
        "timeSignature": [
          4,
          4
        ],
        "measures": 0
      }
    ]
  },
  "tracks": [
    {
      "channel": 0,
      "controlChanges": {},
      "pitchBends": [],
      "instrument": {
        "family": "piano",
        "name": "acoustic grand piano",
        "number": 0
      },
      "name": "Intro",
      "notes": [
        {
          "duration": 4,
          "durationTicks": 3840,
          "midi": 76,
          "name": "E5",
          "ticks": 0,
          "time": 0,
          "velocity": 0.9448818897637795
        }
      ],
      "endOfTrackTicks": 3840
    },
    {
      "channel": 0,
      "controlChanges": {},
      "pitchBends": [],
      "instrument": {
        "family": "piano",
        "name": "acoustic grand piano",
        "number": 0
      },
      "name": "Clic 4",
      "notes": [
        {
          "duration": 2,
          "durationTicks": 1920,
          "midi": 77,
          "name": "F5",
          "ticks": 3840,
          "time": 4,
          "velocity": 0.9448818897637795
        },
        {
          "duration": 2,
          "durationTicks": 1920,
          "midi": 77,
          "name": "F5",
          "ticks": 5760,
          "time": 6,
          "velocity": 0.9448818897637795
        },
        {
          "duration": 2,
          "durationTicks": 1920,
          "midi": 77,
          "name": "F5",
          "ticks": 7680,
          "time": 8,
          "velocity": 0.9448818897637795
        },
        {
          "duration": 2,
          "durationTicks": 1920,
          "midi": 77,
          "name": "F5",
          "ticks": 9600,
          "time": 10,
          "velocity": 0.9448818897637795
        },
        {
          "duration": 2,
          "durationTicks": 1920,
          "midi": 77,
          "name": "F5",
          "ticks": 11520,
          "time": 12,
          "velocity": 0.9448818897637795
        },
        {
          "duration": 2,
          "durationTicks": 1920,
          "midi": 77,
          "name": "F5",
          "ticks": 13440,
          "time": 14,
          "velocity": 0.9448818897637795
        },
        {
          "duration": 2,
          "durationTicks": 1920,
          "midi": 77,
          "name": "F5",
          "ticks": 15360,
          "time": 16,
          "velocity": 0.9448818897637795
        },
        {
          "duration": 2,
          "durationTicks": 1920,
          "midi": 77,
          "name": "F5",
          "ticks": 17280,
          "time": 18,
          "velocity": 0.9448818897637795
        },
        {
          "duration": 2,
          "durationTicks": 1920,
          "midi": 77,
          "name": "F5",
          "ticks": 19200,
          "time": 20,
          "velocity": 0.9448818897637795
        },
        {
          "duration": 2,
          "durationTicks": 1920,
          "midi": 77,
          "name": "F5",
          "ticks": 21120,
          "time": 22,
          "velocity": 0.9448818897637795
        },
        {
          "duration": 2,
          "durationTicks": 1920,
          "midi": 77,
          "name": "F5",
          "ticks": 23040,
          "time": 24,
          "velocity": 0.9448818897637795
        },
        {
          "duration": 2,
          "durationTicks": 1920,
          "midi": 77,
          "name": "F5",
          "ticks": 24960,
          "time": 26,
          "velocity": 0.9448818897637795
        },
        {
          "duration": 2,
          "durationTicks": 1920,
          "midi": 77,
          "name": "F5",
          "ticks": 26880,
          "time": 28,
          "velocity": 0.9448818897637795
        },
        {
          "duration": 2,
          "durationTicks": 1920,
          "midi": 77,
          "name": "F5",
          "ticks": 28800,
          "time": 30,
          "velocity": 0.9448818897637795
        },
        {
          "duration": 2,
          "durationTicks": 1920,
          "midi": 77,
          "name": "F5",
          "ticks": 30720,
          "time": 32,
          "velocity": 0.9448818897637795
        },
        {
          "duration": 2,
          "durationTicks": 1920,
          "midi": 77,
          "name": "F5",
          "ticks": 32640,
          "time": 34,
          "velocity": 0.9448818897637795
        },
        {
          "duration": 2,
          "durationTicks": 1920,
          "midi": 77,
          "name": "F5",
          "ticks": 34560,
          "time": 36,
          "velocity": 0.9448818897637795
        },
        {
          "duration": 2,
          "durationTicks": 1920,
          "midi": 77,
          "name": "F5",
          "ticks": 36480,
          "time": 38,
          "velocity": 0.9448818897637795
        },
        {
          "duration": 2,
          "durationTicks": 1920,
          "midi": 77,
          "name": "F5",
          "ticks": 38400,
          "time": 40,
          "velocity": 0.9448818897637795
        },
        {
          "duration": 0.1666666666666643,
          "durationTicks": 160,
          "midi": 77,
          "name": "F5",
          "ticks": 40320,
          "time": 42,
          "velocity": 0.9448818897637795
        },
        {
          "duration": 0.1666666666666643,
          "durationTicks": 160,
          "midi": 77,
          "name": "F5",
          "ticks": 40800,
          "time": 42.5,
          "velocity": 0.9448818897637795
        },
        {
          "duration": 0.1666666666666643,
          "durationTicks": 160,
          "midi": 77,
          "name": "F5",
          "ticks": 41280,
          "time": 43,
          "velocity": 0.9448818897637795
        },
        {
          "duration": 0.1666666666666643,
          "durationTicks": 160,
          "midi": 77,
          "name": "F5",
          "ticks": 41760,
          "time": 43.5,
          "velocity": 0.9448818897637795
        },
        {
          "duration": 0.1666666666666643,
          "durationTicks": 160,
          "midi": 77,
          "name": "F5",
          "ticks": 42240,
          "time": 44,
          "velocity": 0.9448818897637795
        },
        {
          "duration": 0.1666666666666643,
          "durationTicks": 160,
          "midi": 77,
          "name": "F5",
          "ticks": 42720,
          "time": 44.5,
          "velocity": 0.9448818897637795
        },
        {
          "duration": 0.1666666666666643,
          "durationTicks": 160,
          "midi": 77,
          "name": "F5",
          "ticks": 43200,
          "time": 45,
          "velocity": 0.9448818897637795
        },
        {
          "duration": 0.1666666666666643,
          "durationTicks": 160,
          "midi": 77,
          "name": "F5",
          "ticks": 43680,
          "time": 45.5,
          "velocity": 0.9448818897637795
        },
        {
          "duration": 0.1666666666666643,
          "durationTicks": 160,
          "midi": 77,
          "name": "F5",
          "ticks": 44160,
          "time": 46,
          "velocity": 0.9448818897637795
        },
        {
          "duration": 0.1666666666666643,
          "durationTicks": 160,
          "midi": 77,
          "name": "F5",
          "ticks": 44640,
          "time": 46.5,
          "velocity": 0.9448818897637795
        },
        {
          "duration": 0.1666666666666643,
          "durationTicks": 160,
          "midi": 77,
          "name": "F5",
          "ticks": 45120,
          "time": 47,
          "velocity": 0.9448818897637795
        },
        {
          "duration": 0.1666666666666643,
          "durationTicks": 160,
          "midi": 77,
          "name": "F5",
          "ticks": 45600,
          "time": 47.5,
          "velocity": 0.9448818897637795
        },
        {
          "duration": 0.1666666666666643,
          "durationTicks": 160,
          "midi": 77,
          "name": "F5",
          "ticks": 46080,
          "time": 48,
          "velocity": 0.9448818897637795
        },
        {
          "duration": 0.1666666666666643,
          "durationTicks": 160,
          "midi": 77,
          "name": "F5",
          "ticks": 46560,
          "time": 48.5,
          "velocity": 0.9448818897637795
        }
      ],
      "endOfTrackTicks": 47040
    },
    {
      "channel": 0,
      "controlChanges": {},
      "pitchBends": [],
      "instrument": {
        "family": "piano",
        "name": "acoustic grand piano",
        "number": 0
      },
      "name": "tube harmonique 4",
      "notes": [
        {
          "duration": 2,
          "durationTicks": 1920,
          "midi": 55,
          "name": "G3",
          "ticks": 9600,
          "time": 10,
          "velocity": 0.9212598425196851
        },
        {
          "duration": 2,
          "durationTicks": 1920,
          "midi": 55,
          "name": "G3",
          "ticks": 11520,
          "time": 12,
          "velocity": 0.9212598425196851
        },
        {
          "duration": 2,
          "durationTicks": 1920,
          "midi": 55,
          "name": "G3",
          "ticks": 13440,
          "time": 14,
          "velocity": 0.9212598425196851
        },
        {
          "duration": 2,
          "durationTicks": 1920,
          "midi": 55,
          "name": "G3",
          "ticks": 15360,
          "time": 16,
          "velocity": 0.9212598425196851
        },
        {
          "duration": 2,
          "durationTicks": 1920,
          "midi": 55,
          "name": "G3",
          "ticks": 17280,
          "time": 18,
          "velocity": 0.9212598425196851
        },
        {
          "duration": 2,
          "durationTicks": 1920,
          "midi": 55,
          "name": "G3",
          "ticks": 19200,
          "time": 20,
          "velocity": 0.9212598425196851
        },
        {
          "duration": 2,
          "durationTicks": 1920,
          "midi": 55,
          "name": "G3",
          "ticks": 21120,
          "time": 22,
          "velocity": 0.9212598425196851
        },
        {
          "duration": 2,
          "durationTicks": 1920,
          "midi": 55,
          "name": "G3",
          "ticks": 23040,
          "time": 24,
          "velocity": 0.9212598425196851
        },
        {
          "duration": 2,
          "durationTicks": 1920,
          "midi": 55,
          "name": "G3",
          "ticks": 24960,
          "time": 26,
          "velocity": 0.9212598425196851
        },
        {
          "duration": 2,
          "durationTicks": 1920,
          "midi": 55,
          "name": "G3",
          "ticks": 26880,
          "time": 28,
          "velocity": 0.9212598425196851
        },
        {
          "duration": 2,
          "durationTicks": 1920,
          "midi": 55,
          "name": "G3",
          "ticks": 28800,
          "time": 30,
          "velocity": 0.9212598425196851
        },
        {
          "duration": 2,
          "durationTicks": 1920,
          "midi": 55,
          "name": "G3",
          "ticks": 32640,
          "time": 34,
          "velocity": 0.9212598425196851
        },
        {
          "duration": 2,
          "durationTicks": 1920,
          "midi": 55,
          "name": "G3",
          "ticks": 34560,
          "time": 36,
          "velocity": 0.9212598425196851
        },
        {
          "duration": 2,
          "durationTicks": 1920,
          "midi": 55,
          "name": "G3",
          "ticks": 36480,
          "time": 38,
          "velocity": 0.9212598425196851
        },
        {
          "duration": 2,
          "durationTicks": 1920,
          "midi": 55,
          "name": "G3",
          "ticks": 38400,
          "time": 40,
          "velocity": 0.9212598425196851
        },
        {
          "duration": 2,
          "durationTicks": 1920,
          "midi": 55,
          "name": "G3",
          "ticks": 40320,
          "time": 42,
          "velocity": 0.9212598425196851
        },
        {
          "duration": 2,
          "durationTicks": 1920,
          "midi": 55,
          "name": "G3",
          "ticks": 42240,
          "time": 44,
          "velocity": 0.9212598425196851
        },
        {
          "duration": 2,
          "durationTicks": 1920,
          "midi": 55,
          "name": "G3",
          "ticks": 44160,
          "time": 46,
          "velocity": 0.9212598425196851
        },
        {
          "duration": 2,
          "durationTicks": 1920,
          "midi": 55,
          "name": "G3",
          "ticks": 46080,
          "time": 48,
          "velocity": 0.9212598425196851
        }
      ],
      "endOfTrackTicks": 48000
    },
    {
      "channel": 0,
      "controlChanges": {},
      "pitchBends": [],
      "instrument": {
        "family": "piano",
        "name": "acoustic grand piano",
        "number": 0
      },
      "name": "tube 4 notes",
      "notes": [
        {
          "duration": 1.0010416666666657,
          "durationTicks": 961,
          "midi": 55,
          "name": "G3",
          "ticks": 24959,
          "time": 25.998958333333334,
          "velocity": 0.6850393700787402
        },
        {
          "duration": 1.0010416666666657,
          "durationTicks": 961,
          "midi": 55,
          "name": "G3",
          "ticks": 25919,
          "time": 26.998958333333334,
          "velocity": 0.6850393700787402
        },
        {
          "duration": 1.0010416666666657,
          "durationTicks": 961,
          "midi": 55,
          "name": "G3",
          "ticks": 26879,
          "time": 27.998958333333334,
          "velocity": 0.6850393700787402
        },
        {
          "duration": 1.0010416666666657,
          "durationTicks": 961,
          "midi": 55,
          "name": "G3",
          "ticks": 27839,
          "time": 28.998958333333334,
          "velocity": 0.6850393700787402
        },
        {
          "duration": 1.0010416666666657,
          "durationTicks": 961,
          "midi": 55,
          "name": "G3",
          "ticks": 28799,
          "time": 29.998958333333334,
          "velocity": 0.6850393700787402
        },
        {
          "duration": 1.0010416666666657,
          "durationTicks": 961,
          "midi": 55,
          "name": "G3",
          "ticks": 29759,
          "time": 30.998958333333334,
          "velocity": 0.6850393700787402
        },
        {
          "duration": 1.0010416666666657,
          "durationTicks": 961,
          "midi": 55,
          "name": "G3",
          "ticks": 32639,
          "time": 33.998958333333334,
          "velocity": 0.6850393700787402
        },
        {
          "duration": 1.0010416666666657,
          "durationTicks": 961,
          "midi": 55,
          "name": "G3",
          "ticks": 33599,
          "time": 34.998958333333334,
          "velocity": 0.6850393700787402
        },
        {
          "duration": 1.0010416666666657,
          "durationTicks": 961,
          "midi": 55,
          "name": "G3",
          "ticks": 34559,
          "time": 35.998958333333334,
          "velocity": 0.6850393700787402
        },
        {
          "duration": 1.0010416666666657,
          "durationTicks": 961,
          "midi": 55,
          "name": "G3",
          "ticks": 35519,
          "time": 36.998958333333334,
          "velocity": 0.6850393700787402
        },
        {
          "duration": 1.0010416666666657,
          "durationTicks": 961,
          "midi": 55,
          "name": "G3",
          "ticks": 36479,
          "time": 37.998958333333334,
          "velocity": 0.6850393700787402
        },
        {
          "duration": 1.0010416666666657,
          "durationTicks": 961,
          "midi": 55,
          "name": "G3",
          "ticks": 37439,
          "time": 38.998958333333334,
          "velocity": 0.6850393700787402
        },
        {
          "duration": 1.0010416666666657,
          "durationTicks": 961,
          "midi": 55,
          "name": "G3",
          "ticks": 38399,
          "time": 39.998958333333334,
          "velocity": 0.6850393700787402
        },
        {
          "duration": 1.0010416666666657,
          "durationTicks": 961,
          "midi": 55,
          "name": "G3",
          "ticks": 40319,
          "time": 41.998958333333334,
          "velocity": 0.6850393700787402
        },
        {
          "duration": 1.0010416666666657,
          "durationTicks": 961,
          "midi": 55,
          "name": "G3",
          "ticks": 41279,
          "time": 42.998958333333334,
          "velocity": 0.6850393700787402
        },
        {
          "duration": 1.0010416666666657,
          "durationTicks": 961,
          "midi": 55,
          "name": "G3",
          "ticks": 42239,
          "time": 43.998958333333334,
          "velocity": 0.6850393700787402
        },
        {
          "duration": 1.0010416666666657,
          "durationTicks": 961,
          "midi": 55,
          "name": "G3",
          "ticks": 43199,
          "time": 44.998958333333334,
          "velocity": 0.6850393700787402
        },
        {
          "duration": 1.0010416666666657,
          "durationTicks": 961,
          "midi": 55,
          "name": "G3",
          "ticks": 44159,
          "time": 45.998958333333334,
          "velocity": 0.6850393700787402
        },
        {
          "duration": 1.0010416666666657,
          "durationTicks": 961,
          "midi": 55,
          "name": "G3",
          "ticks": 45119,
          "time": 46.998958333333334,
          "velocity": 0.6850393700787402
        },
        {
          "duration": 1.0010416666666657,
          "durationTicks": 961,
          "midi": 55,
          "name": "G3",
          "ticks": 46079,
          "time": 47.998958333333334,
          "velocity": 0.6850393700787402
        }
      ],
      "endOfTrackTicks": 47040
    },
    {
      "channel": 0,
      "controlChanges": {},
      "pitchBends": [],
      "instrument": {
        "family": "piano",
        "name": "acoustic grand piano",
        "number": 0
      },
      "name": "tube 2 notes",
      "notes": [
        {
          "duration": 1.0010416666666666,
          "durationTicks": 961,
          "midi": 55,
          "name": "G3",
          "ticks": 5759,
          "time": 5.998958333333333,
          "velocity": 0.6850393700787402
        },
        {
          "duration": 1.0010416666666666,
          "durationTicks": 961,
          "midi": 55,
          "name": "G3",
          "ticks": 6719,
          "time": 6.998958333333333,
          "velocity": 0.6850393700787402
        },
        {
          "duration": 1.0010416666666666,
          "durationTicks": 961,
          "midi": 55,
          "name": "G3",
          "ticks": 7679,
          "time": 7.998958333333333,
          "velocity": 0.6850393700787402
        },
        {
          "duration": 1.0010416666666675,
          "durationTicks": 961,
          "midi": 55,
          "name": "G3",
          "ticks": 8639,
          "time": 8.998958333333333,
          "velocity": 0.6850393700787402
        },
        {
          "duration": 1.0010416666666675,
          "durationTicks": 961,
          "midi": 55,
          "name": "G3",
          "ticks": 9599,
          "time": 9.998958333333333,
          "velocity": 0.6850393700787402
        },
        {
          "duration": 1.0010416666666675,
          "durationTicks": 961,
          "midi": 55,
          "name": "G3",
          "ticks": 10559,
          "time": 10.998958333333333,
          "velocity": 0.6850393700787402
        },
        {
          "duration": 1.0010416666666675,
          "durationTicks": 961,
          "midi": 55,
          "name": "G3",
          "ticks": 11519,
          "time": 11.998958333333333,
          "velocity": 0.6850393700787402
        },
        {
          "duration": 1.0010416666666675,
          "durationTicks": 961,
          "midi": 55,
          "name": "G3",
          "ticks": 12479,
          "time": 12.998958333333333,
          "velocity": 0.6850393700787402
        },
        {
          "duration": 1.0010416666666675,
          "durationTicks": 961,
          "midi": 55,
          "name": "G3",
          "ticks": 13439,
          "time": 13.998958333333333,
          "velocity": 0.6850393700787402
        },
        {
          "duration": 1.0010416666666675,
          "durationTicks": 961,
          "midi": 55,
          "name": "G3",
          "ticks": 14399,
          "time": 14.998958333333333,
          "velocity": 0.6850393700787402
        },
        {
          "duration": 1.0010416666666675,
          "durationTicks": 961,
          "midi": 55,
          "name": "G3",
          "ticks": 15359,
          "time": 15.998958333333333,
          "velocity": 0.6850393700787402
        },
        {
          "duration": 1.0010416666666657,
          "durationTicks": 961,
          "midi": 55,
          "name": "G3",
          "ticks": 16319,
          "time": 16.998958333333334,
          "velocity": 0.6850393700787402
        },
        {
          "duration": 1.0010416666666657,
          "durationTicks": 961,
          "midi": 55,
          "name": "G3",
          "ticks": 17279,
          "time": 17.998958333333334,
          "velocity": 0.6850393700787402
        },
        {
          "duration": 1.0010416666666657,
          "durationTicks": 961,
          "midi": 55,
          "name": "G3",
          "ticks": 18239,
          "time": 18.998958333333334,
          "velocity": 0.6850393700787402
        },
        {
          "duration": 1.0010416666666657,
          "durationTicks": 961,
          "midi": 55,
          "name": "G3",
          "ticks": 19199,
          "time": 19.998958333333334,
          "velocity": 0.6850393700787402
        },
        {
          "duration": 1.0010416666666657,
          "durationTicks": 961,
          "midi": 55,
          "name": "G3",
          "ticks": 20159,
          "time": 20.998958333333334,
          "velocity": 0.6850393700787402
        },
        {
          "duration": 1.0010416666666657,
          "durationTicks": 961,
          "midi": 55,
          "name": "G3",
          "ticks": 21119,
          "time": 21.998958333333334,
          "velocity": 0.6850393700787402
        },
        {
          "duration": 1.0010416666666657,
          "durationTicks": 961,
          "midi": 55,
          "name": "G3",
          "ticks": 22079,
          "time": 22.998958333333334,
          "velocity": 0.6850393700787402
        },
        {
          "duration": 1.0010416666666657,
          "durationTicks": 961,
          "midi": 55,
          "name": "G3",
          "ticks": 23039,
          "time": 23.998958333333334,
          "velocity": 0.6850393700787402
        },
        {
          "duration": 1.0010416666666657,
          "durationTicks": 961,
          "midi": 55,
          "name": "G3",
          "ticks": 23999,
          "time": 24.998958333333334,
          "velocity": 0.6850393700787402
        }
      ],
      "endOfTrackTicks": 24960
    },
    {
      "channel": 0,
      "controlChanges": {},
      "pitchBends": [],
      "instrument": {
        "family": "piano",
        "name": "acoustic grand piano",
        "number": 0
      },
      "name": "grelot 1",
      "notes": [
        {
          "duration": 0.125,
          "durationTicks": 120,
          "midi": 59,
          "name": "B3",
          "ticks": 13443,
          "time": 14.003125,
          "velocity": 0.968503937007874
        },
        {
          "duration": 0.125,
          "durationTicks": 120,
          "midi": 59,
          "name": "B3",
          "ticks": 13923,
          "time": 14.503125,
          "velocity": 0.968503937007874
        },
        {
          "duration": 0.125,
          "durationTicks": 120,
          "midi": 59,
          "name": "B3",
          "ticks": 14403,
          "time": 15.003125,
          "velocity": 0.968503937007874
        },
        {
          "duration": 0.125,
          "durationTicks": 120,
          "midi": 59,
          "name": "B3",
          "ticks": 14883,
          "time": 15.503125,
          "velocity": 0.968503937007874
        },
        {
          "duration": 0.125,
          "durationTicks": 120,
          "midi": 59,
          "name": "B3",
          "ticks": 15363,
          "time": 16.003125,
          "velocity": 0.968503937007874
        },
        {
          "duration": 0.125,
          "durationTicks": 120,
          "midi": 59,
          "name": "B3",
          "ticks": 15843,
          "time": 16.503125,
          "velocity": 0.968503937007874
        },
        {
          "duration": 0.125,
          "durationTicks": 120,
          "midi": 59,
          "name": "B3",
          "ticks": 16323,
          "time": 17.003125,
          "velocity": 0.968503937007874
        },
        {
          "duration": 0.125,
          "durationTicks": 120,
          "midi": 59,
          "name": "B3",
          "ticks": 16803,
          "time": 17.503125,
          "velocity": 0.968503937007874
        },
        {
          "duration": 0.125,
          "durationTicks": 120,
          "midi": 59,
          "name": "B3",
          "ticks": 17283,
          "time": 18.003125,
          "velocity": 0.968503937007874
        },
        {
          "duration": 0.125,
          "durationTicks": 120,
          "midi": 59,
          "name": "B3",
          "ticks": 17763,
          "time": 18.503125,
          "velocity": 0.968503937007874
        },
        {
          "duration": 0.125,
          "durationTicks": 120,
          "midi": 59,
          "name": "B3",
          "ticks": 18243,
          "time": 19.003125,
          "velocity": 0.968503937007874
        },
        {
          "duration": 0.125,
          "durationTicks": 120,
          "midi": 59,
          "name": "B3",
          "ticks": 18723,
          "time": 19.503125,
          "velocity": 0.968503937007874
        },
        {
          "duration": 0.125,
          "durationTicks": 120,
          "midi": 59,
          "name": "B3",
          "ticks": 19203,
          "time": 20.003125,
          "velocity": 0.968503937007874
        },
        {
          "duration": 0.125,
          "durationTicks": 120,
          "midi": 59,
          "name": "B3",
          "ticks": 19683,
          "time": 20.503125,
          "velocity": 0.968503937007874
        },
        {
          "duration": 0.125,
          "durationTicks": 120,
          "midi": 59,
          "name": "B3",
          "ticks": 20163,
          "time": 21.003125,
          "velocity": 0.968503937007874
        },
        {
          "duration": 0.125,
          "durationTicks": 120,
          "midi": 59,
          "name": "B3",
          "ticks": 20643,
          "time": 21.503125,
          "velocity": 0.968503937007874
        },
        {
          "duration": 0.125,
          "durationTicks": 120,
          "midi": 59,
          "name": "B3",
          "ticks": 21123,
          "time": 22.003125,
          "velocity": 0.968503937007874
        },
        {
          "duration": 0.125,
          "durationTicks": 120,
          "midi": 59,
          "name": "B3",
          "ticks": 21603,
          "time": 22.503125,
          "velocity": 0.968503937007874
        },
        {
          "duration": 0.125,
          "durationTicks": 120,
          "midi": 59,
          "name": "B3",
          "ticks": 22083,
          "time": 23.003125,
          "velocity": 0.968503937007874
        },
        {
          "duration": 0.125,
          "durationTicks": 120,
          "midi": 59,
          "name": "B3",
          "ticks": 22563,
          "time": 23.503125,
          "velocity": 0.968503937007874
        },
        {
          "duration": 0.125,
          "durationTicks": 120,
          "midi": 59,
          "name": "B3",
          "ticks": 23043,
          "time": 24.003125,
          "velocity": 0.968503937007874
        },
        {
          "duration": 0.125,
          "durationTicks": 120,
          "midi": 59,
          "name": "B3",
          "ticks": 23523,
          "time": 24.503125,
          "velocity": 0.968503937007874
        },
        {
          "duration": 0.125,
          "durationTicks": 120,
          "midi": 59,
          "name": "B3",
          "ticks": 24003,
          "time": 25.003125,
          "velocity": 0.968503937007874
        },
        {
          "duration": 0.125,
          "durationTicks": 120,
          "midi": 59,
          "name": "B3",
          "ticks": 24483,
          "time": 25.503125,
          "velocity": 0.968503937007874
        },
        {
          "duration": 0.125,
          "durationTicks": 120,
          "midi": 59,
          "name": "B3",
          "ticks": 24963,
          "time": 26.003125,
          "velocity": 0.968503937007874
        },
        {
          "duration": 0.125,
          "durationTicks": 120,
          "midi": 59,
          "name": "B3",
          "ticks": 25443,
          "time": 26.503125,
          "velocity": 0.968503937007874
        },
        {
          "duration": 0.125,
          "durationTicks": 120,
          "midi": 59,
          "name": "B3",
          "ticks": 25923,
          "time": 27.003125,
          "velocity": 0.968503937007874
        },
        {
          "duration": 0.125,
          "durationTicks": 120,
          "midi": 59,
          "name": "B3",
          "ticks": 26403,
          "time": 27.503125,
          "velocity": 0.968503937007874
        },
        {
          "duration": 0.125,
          "durationTicks": 120,
          "midi": 59,
          "name": "B3",
          "ticks": 26883,
          "time": 28.003125,
          "velocity": 0.968503937007874
        },
        {
          "duration": 0.125,
          "durationTicks": 120,
          "midi": 59,
          "name": "B3",
          "ticks": 27363,
          "time": 28.503125,
          "velocity": 0.968503937007874
        },
        {
          "duration": 0.125,
          "durationTicks": 120,
          "midi": 59,
          "name": "B3",
          "ticks": 27843,
          "time": 29.003125,
          "velocity": 0.968503937007874
        },
        {
          "duration": 0.125,
          "durationTicks": 120,
          "midi": 59,
          "name": "B3",
          "ticks": 28323,
          "time": 29.503125,
          "velocity": 0.968503937007874
        },
        {
          "duration": 0.125,
          "durationTicks": 120,
          "midi": 59,
          "name": "B3",
          "ticks": 28803,
          "time": 30.003125,
          "velocity": 0.968503937007874
        },
        {
          "duration": 0.125,
          "durationTicks": 120,
          "midi": 59,
          "name": "B3",
          "ticks": 29283,
          "time": 30.503125,
          "velocity": 0.968503937007874
        },
        {
          "duration": 0.125,
          "durationTicks": 120,
          "midi": 59,
          "name": "B3",
          "ticks": 29763,
          "time": 31.003125,
          "velocity": 0.968503937007874
        },
        {
          "duration": 0.125,
          "durationTicks": 120,
          "midi": 59,
          "name": "B3",
          "ticks": 30243,
          "time": 31.503125,
          "velocity": 0.968503937007874
        },
        {
          "duration": 0.125,
          "durationTicks": 120,
          "midi": 59,
          "name": "B3",
          "ticks": 32643,
          "time": 34.003125,
          "velocity": 0.968503937007874
        },
        {
          "duration": 0.125,
          "durationTicks": 120,
          "midi": 59,
          "name": "B3",
          "ticks": 33123,
          "time": 34.503125,
          "velocity": 0.968503937007874
        },
        {
          "duration": 0.125,
          "durationTicks": 120,
          "midi": 59,
          "name": "B3",
          "ticks": 33603,
          "time": 35.003125,
          "velocity": 0.968503937007874
        },
        {
          "duration": 0.125,
          "durationTicks": 120,
          "midi": 59,
          "name": "B3",
          "ticks": 34083,
          "time": 35.503125,
          "velocity": 0.968503937007874
        },
        {
          "duration": 0.125,
          "durationTicks": 120,
          "midi": 59,
          "name": "B3",
          "ticks": 34563,
          "time": 36.003125,
          "velocity": 0.968503937007874
        },
        {
          "duration": 0.125,
          "durationTicks": 120,
          "midi": 59,
          "name": "B3",
          "ticks": 35043,
          "time": 36.503125,
          "velocity": 0.968503937007874
        },
        {
          "duration": 0.125,
          "durationTicks": 120,
          "midi": 59,
          "name": "B3",
          "ticks": 35523,
          "time": 37.003125,
          "velocity": 0.968503937007874
        },
        {
          "duration": 0.125,
          "durationTicks": 120,
          "midi": 59,
          "name": "B3",
          "ticks": 36003,
          "time": 37.503125,
          "velocity": 0.968503937007874
        },
        {
          "duration": 0.125,
          "durationTicks": 120,
          "midi": 59,
          "name": "B3",
          "ticks": 36483,
          "time": 38.003125,
          "velocity": 0.968503937007874
        },
        {
          "duration": 0.125,
          "durationTicks": 120,
          "midi": 59,
          "name": "B3",
          "ticks": 36963,
          "time": 38.503125,
          "velocity": 0.968503937007874
        },
        {
          "duration": 0.125,
          "durationTicks": 120,
          "midi": 59,
          "name": "B3",
          "ticks": 37443,
          "time": 39.003125,
          "velocity": 0.968503937007874
        },
        {
          "duration": 0.125,
          "durationTicks": 120,
          "midi": 59,
          "name": "B3",
          "ticks": 37923,
          "time": 39.503125,
          "velocity": 0.968503937007874
        },
        {
          "duration": 0.125,
          "durationTicks": 120,
          "midi": 59,
          "name": "B3",
          "ticks": 38403,
          "time": 40.003125,
          "velocity": 0.968503937007874
        },
        {
          "duration": 0.125,
          "durationTicks": 120,
          "midi": 59,
          "name": "B3",
          "ticks": 38883,
          "time": 40.503125,
          "velocity": 0.968503937007874
        },
        {
          "duration": 0.125,
          "durationTicks": 120,
          "midi": 59,
          "name": "B3",
          "ticks": 39363,
          "time": 41.003125,
          "velocity": 0.968503937007874
        },
        {
          "duration": 0.125,
          "durationTicks": 120,
          "midi": 59,
          "name": "B3",
          "ticks": 40323,
          "time": 42.003125,
          "velocity": 0.968503937007874
        },
        {
          "duration": 0.125,
          "durationTicks": 120,
          "midi": 59,
          "name": "B3",
          "ticks": 40803,
          "time": 42.503125,
          "velocity": 0.968503937007874
        },
        {
          "duration": 0.125,
          "durationTicks": 120,
          "midi": 59,
          "name": "B3",
          "ticks": 41283,
          "time": 43.003125,
          "velocity": 0.968503937007874
        },
        {
          "duration": 0.125,
          "durationTicks": 120,
          "midi": 59,
          "name": "B3",
          "ticks": 41763,
          "time": 43.503125,
          "velocity": 0.968503937007874
        },
        {
          "duration": 0.125,
          "durationTicks": 120,
          "midi": 59,
          "name": "B3",
          "ticks": 42243,
          "time": 44.003125,
          "velocity": 0.968503937007874
        },
        {
          "duration": 0.125,
          "durationTicks": 120,
          "midi": 59,
          "name": "B3",
          "ticks": 42723,
          "time": 44.503125,
          "velocity": 0.968503937007874
        },
        {
          "duration": 0.125,
          "durationTicks": 120,
          "midi": 59,
          "name": "B3",
          "ticks": 43203,
          "time": 45.003125,
          "velocity": 0.968503937007874
        },
        {
          "duration": 0.125,
          "durationTicks": 120,
          "midi": 59,
          "name": "B3",
          "ticks": 43683,
          "time": 45.503125,
          "velocity": 0.968503937007874
        },
        {
          "duration": 0.125,
          "durationTicks": 120,
          "midi": 59,
          "name": "B3",
          "ticks": 44163,
          "time": 46.003125,
          "velocity": 0.968503937007874
        },
        {
          "duration": 0.125,
          "durationTicks": 120,
          "midi": 59,
          "name": "B3",
          "ticks": 44643,
          "time": 46.503125,
          "velocity": 0.968503937007874
        },
        {
          "duration": 0.125,
          "durationTicks": 120,
          "midi": 59,
          "name": "B3",
          "ticks": 45123,
          "time": 47.003125,
          "velocity": 0.968503937007874
        },
        {
          "duration": 0.125,
          "durationTicks": 120,
          "midi": 59,
          "name": "B3",
          "ticks": 45603,
          "time": 47.503125,
          "velocity": 0.968503937007874
        },
        {
          "duration": 0.125,
          "durationTicks": 120,
          "midi": 59,
          "name": "B3",
          "ticks": 46083,
          "time": 48.003125,
          "velocity": 0.968503937007874
        },
        {
          "duration": 0.125,
          "durationTicks": 120,
          "midi": 59,
          "name": "B3",
          "ticks": 46563,
          "time": 48.503125,
          "velocity": 0.968503937007874
        }
      ],
      "endOfTrackTicks": 47040
    },
    {
      "channel": 0,
      "controlChanges": {},
      "pitchBends": [],
      "instrument": {
        "family": "piano",
        "name": "acoustic grand piano",
        "number": 0
      },
      "name": "caisse chaines",
      "notes": [
        {
          "duration": 0.125,
          "durationTicks": 120,
          "midi": 59,
          "name": "B3",
          "ticks": 17283,
          "time": 18.003125,
          "velocity": 0.968503937007874
        },
        {
          "duration": 0.125,
          "durationTicks": 120,
          "midi": 59,
          "name": "B3",
          "ticks": 19203,
          "time": 20.003125,
          "velocity": 0.968503937007874
        },
        {
          "duration": 0.125,
          "durationTicks": 120,
          "midi": 59,
          "name": "B3",
          "ticks": 21123,
          "time": 22.003125,
          "velocity": 0.968503937007874
        },
        {
          "duration": 0.125,
          "durationTicks": 120,
          "midi": 59,
          "name": "B3",
          "ticks": 23043,
          "time": 24.003125,
          "velocity": 0.968503937007874
        },
        {
          "duration": 0.125,
          "durationTicks": 120,
          "midi": 59,
          "name": "B3",
          "ticks": 24963,
          "time": 26.003125,
          "velocity": 0.968503937007874
        },
        {
          "duration": 0.125,
          "durationTicks": 120,
          "midi": 59,
          "name": "B3",
          "ticks": 26883,
          "time": 28.003125,
          "velocity": 0.968503937007874
        },
        {
          "duration": 0.125,
          "durationTicks": 120,
          "midi": 59,
          "name": "B3",
          "ticks": 28803,
          "time": 30.003125,
          "velocity": 0.968503937007874
        },
        {
          "duration": 0.125,
          "durationTicks": 120,
          "midi": 59,
          "name": "B3",
          "ticks": 32643,
          "time": 34.003125,
          "velocity": 0.968503937007874
        },
        {
          "duration": 0.125,
          "durationTicks": 120,
          "midi": 59,
          "name": "B3",
          "ticks": 34563,
          "time": 36.003125,
          "velocity": 0.968503937007874
        },
        {
          "duration": 0.125,
          "durationTicks": 120,
          "midi": 59,
          "name": "B3",
          "ticks": 36483,
          "time": 38.003125,
          "velocity": 0.968503937007874
        },
        {
          "duration": 0.125,
          "durationTicks": 120,
          "midi": 59,
          "name": "B3",
          "ticks": 38403,
          "time": 40.003125,
          "velocity": 0.968503937007874
        },
        {
          "duration": 0.125,
          "durationTicks": 120,
          "midi": 59,
          "name": "B3",
          "ticks": 40323,
          "time": 42.003125,
          "velocity": 0.968503937007874
        },
        {
          "duration": 0.125,
          "durationTicks": 120,
          "midi": 59,
          "name": "B3",
          "ticks": 42243,
          "time": 44.003125,
          "velocity": 0.968503937007874
        },
        {
          "duration": 0.125,
          "durationTicks": 120,
          "midi": 59,
          "name": "B3",
          "ticks": 44163,
          "time": 46.003125,
          "velocity": 0.968503937007874
        },
        {
          "duration": 0.125,
          "durationTicks": 120,
          "midi": 59,
          "name": "B3",
          "ticks": 46083,
          "time": 48.003125,
          "velocity": 0.968503937007874
        }
      ],
      "endOfTrackTicks": 47040
    },
    {
      "channel": 0,
      "controlChanges": {},
      "pitchBends": [],
      "instrument": {
        "family": "piano",
        "name": "acoustic grand piano",
        "number": 0
      },
      "name": "snap 1",
      "notes": [
        {
          "duration": 9,
          "durationTicks": 8640,
          "midi": 82,
          "name": "A#5",
          "ticks": 9120,
          "time": 9.5,
          "velocity": 0.9606299212598425
        },
        {
          "duration": 9,
          "durationTicks": 8640,
          "midi": 82,
          "name": "A#5",
          "ticks": 11040,
          "time": 11.5,
          "velocity": 0.9606299212598425
        },
        {
          "duration": 9,
          "durationTicks": 8640,
          "midi": 82,
          "name": "A#5",
          "ticks": 12960,
          "time": 13.5,
          "velocity": 0.9606299212598425
        },
        {
          "duration": 9,
          "durationTicks": 8640,
          "midi": 82,
          "name": "A#5",
          "ticks": 13920,
          "time": 14.5,
          "velocity": 0.9606299212598425
        },
        {
          "duration": 9,
          "durationTicks": 8640,
          "midi": 82,
          "name": "A#5",
          "ticks": 14880,
          "time": 15.5,
          "velocity": 0.9606299212598425
        },
        {
          "duration": 9,
          "durationTicks": 8640,
          "midi": 82,
          "name": "A#5",
          "ticks": 15840,
          "time": 16.5,
          "velocity": 0.9606299212598425
        },
        {
          "duration": 9,
          "durationTicks": 8640,
          "midi": 82,
          "name": "A#5",
          "ticks": 16800,
          "time": 17.5,
          "velocity": 0.9606299212598425
        },
        {
          "duration": 9,
          "durationTicks": 8640,
          "midi": 82,
          "name": "A#5",
          "ticks": 17760,
          "time": 18.5,
          "velocity": 0.9606299212598425
        },
        {
          "duration": 9,
          "durationTicks": 8640,
          "midi": 82,
          "name": "A#5",
          "ticks": 18720,
          "time": 19.5,
          "velocity": 0.9606299212598425
        },
        {
          "duration": 9,
          "durationTicks": 8640,
          "midi": 82,
          "name": "A#5",
          "ticks": 19680,
          "time": 20.5,
          "velocity": 0.9606299212598425
        },
        {
          "duration": 9,
          "durationTicks": 8640,
          "midi": 82,
          "name": "A#5",
          "ticks": 20640,
          "time": 21.5,
          "velocity": 0.9606299212598425
        },
        {
          "duration": 9,
          "durationTicks": 8640,
          "midi": 82,
          "name": "A#5",
          "ticks": 21600,
          "time": 22.5,
          "velocity": 0.9606299212598425
        },
        {
          "duration": 9,
          "durationTicks": 8640,
          "midi": 82,
          "name": "A#5",
          "ticks": 22560,
          "time": 23.5,
          "velocity": 0.9606299212598425
        },
        {
          "duration": 9,
          "durationTicks": 8640,
          "midi": 82,
          "name": "A#5",
          "ticks": 23520,
          "time": 24.5,
          "velocity": 0.9606299212598425
        },
        {
          "duration": 9,
          "durationTicks": 8640,
          "midi": 82,
          "name": "A#5",
          "ticks": 24480,
          "time": 25.5,
          "velocity": 0.9606299212598425
        },
        {
          "duration": 9,
          "durationTicks": 8640,
          "midi": 82,
          "name": "A#5",
          "ticks": 25440,
          "time": 26.5,
          "velocity": 0.9606299212598425
        },
        {
          "duration": 9,
          "durationTicks": 8640,
          "midi": 82,
          "name": "A#5",
          "ticks": 26400,
          "time": 27.5,
          "velocity": 0.9606299212598425
        },
        {
          "duration": 9,
          "durationTicks": 8640,
          "midi": 82,
          "name": "A#5",
          "ticks": 27360,
          "time": 28.5,
          "velocity": 0.9606299212598425
        },
        {
          "duration": 9,
          "durationTicks": 8640,
          "midi": 82,
          "name": "A#5",
          "ticks": 28320,
          "time": 29.5,
          "velocity": 0.9606299212598425
        },
        {
          "duration": 9,
          "durationTicks": 8640,
          "midi": 82,
          "name": "A#5",
          "ticks": 29280,
          "time": 30.5,
          "velocity": 0.9606299212598425
        },
        {
          "duration": 9,
          "durationTicks": 8640,
          "midi": 82,
          "name": "A#5",
          "ticks": 30240,
          "time": 31.5,
          "velocity": 0.9606299212598425
        },
        {
          "duration": 9,
          "durationTicks": 8640,
          "midi": 82,
          "name": "A#5",
          "ticks": 33120,
          "time": 34.5,
          "velocity": 0.9606299212598425
        },
        {
          "duration": 9,
          "durationTicks": 8640,
          "midi": 82,
          "name": "A#5",
          "ticks": 34080,
          "time": 35.5,
          "velocity": 0.9606299212598425
        },
        {
          "duration": 9,
          "durationTicks": 8640,
          "midi": 82,
          "name": "A#5",
          "ticks": 35040,
          "time": 36.5,
          "velocity": 0.9606299212598425
        },
        {
          "duration": 9,
          "durationTicks": 8640,
          "midi": 82,
          "name": "A#5",
          "ticks": 36000,
          "time": 37.5,
          "velocity": 0.9606299212598425
        },
        {
          "duration": 9,
          "durationTicks": 8640,
          "midi": 82,
          "name": "A#5",
          "ticks": 36960,
          "time": 38.5,
          "velocity": 0.9606299212598425
        },
        {
          "duration": 9,
          "durationTicks": 8640,
          "midi": 82,
          "name": "A#5",
          "ticks": 37920,
          "time": 39.5,
          "velocity": 0.9606299212598425
        },
        {
          "duration": 9,
          "durationTicks": 8640,
          "midi": 82,
          "name": "A#5",
          "ticks": 38880,
          "time": 40.5,
          "velocity": 0.9606299212598425
        },
        {
          "duration": 9,
          "durationTicks": 8640,
          "midi": 82,
          "name": "A#5",
          "ticks": 40800,
          "time": 42.5,
          "velocity": 0.9606299212598425
        },
        {
          "duration": 9,
          "durationTicks": 8640,
          "midi": 82,
          "name": "A#5",
          "ticks": 41760,
          "time": 43.5,
          "velocity": 0.9606299212598425
        },
        {
          "duration": 9,
          "durationTicks": 8640,
          "midi": 82,
          "name": "A#5",
          "ticks": 42720,
          "time": 44.5,
          "velocity": 0.9606299212598425
        },
        {
          "duration": 9,
          "durationTicks": 8640,
          "midi": 82,
          "name": "A#5",
          "ticks": 43680,
          "time": 45.5,
          "velocity": 0.9606299212598425
        },
        {
          "duration": 9,
          "durationTicks": 8640,
          "midi": 82,
          "name": "A#5",
          "ticks": 44640,
          "time": 46.5,
          "velocity": 0.9606299212598425
        },
        {
          "duration": 9,
          "durationTicks": 8640,
          "midi": 82,
          "name": "A#5",
          "ticks": 45600,
          "time": 47.5,
          "velocity": 0.9606299212598425
        },
        {
          "duration": 9,
          "durationTicks": 8640,
          "midi": 82,
          "name": "A#5",
          "ticks": 46560,
          "time": 48.5,
          "velocity": 0.9606299212598425
        }
      ],
      "endOfTrackTicks": 55200
    },
    {
      "channel": 0,
      "controlChanges": {},
      "pitchBends": [],
      "instrument": {
        "family": "piano",
        "name": "acoustic grand piano",
        "number": 0
      },
      "name": "pinceau coup sec 1",
      "notes": [
        {
          "duration": 2,
          "durationTicks": 1920,
          "midi": 67,
          "name": "G4",
          "ticks": 11520,
          "time": 12,
          "velocity": 0.7322834645669292
        },
        {
          "duration": 2,
          "durationTicks": 1920,
          "midi": 67,
          "name": "G4",
          "ticks": 13440,
          "time": 14,
          "velocity": 0.7322834645669292
        },
        {
          "duration": 2,
          "durationTicks": 1920,
          "midi": 67,
          "name": "G4",
          "ticks": 15360,
          "time": 16,
          "velocity": 0.7322834645669292
        },
        {
          "duration": 2,
          "durationTicks": 1920,
          "midi": 67,
          "name": "G4",
          "ticks": 17280,
          "time": 18,
          "velocity": 0.7322834645669292
        },
        {
          "duration": 2,
          "durationTicks": 1920,
          "midi": 67,
          "name": "G4",
          "ticks": 19200,
          "time": 20,
          "velocity": 0.7322834645669292
        },
        {
          "duration": 2,
          "durationTicks": 1920,
          "midi": 67,
          "name": "G4",
          "ticks": 21120,
          "time": 22,
          "velocity": 0.7322834645669292
        },
        {
          "duration": 2,
          "durationTicks": 1920,
          "midi": 67,
          "name": "G4",
          "ticks": 23040,
          "time": 24,
          "velocity": 0.7322834645669292
        },
        {
          "duration": 2,
          "durationTicks": 1920,
          "midi": 67,
          "name": "G4",
          "ticks": 24960,
          "time": 26,
          "velocity": 0.7322834645669292
        },
        {
          "duration": 2,
          "durationTicks": 1920,
          "midi": 67,
          "name": "G4",
          "ticks": 26880,
          "time": 28,
          "velocity": 0.7322834645669292
        },
        {
          "duration": 2,
          "durationTicks": 1920,
          "midi": 67,
          "name": "G4",
          "ticks": 28800,
          "time": 30,
          "velocity": 0.7322834645669292
        },
        {
          "duration": 0.171875,
          "durationTicks": 165,
          "midi": 67,
          "name": "G4",
          "ticks": 32640,
          "time": 34,
          "velocity": 0.7322834645669292
        },
        {
          "duration": 0.171875,
          "durationTicks": 165,
          "midi": 67,
          "name": "G4",
          "ticks": 33120,
          "time": 34.5,
          "velocity": 0.7322834645669292
        },
        {
          "duration": 0.171875,
          "durationTicks": 165,
          "midi": 67,
          "name": "G4",
          "ticks": 33600,
          "time": 35,
          "velocity": 0.7322834645669292
        },
        {
          "duration": 0.171875,
          "durationTicks": 165,
          "midi": 67,
          "name": "G4",
          "ticks": 34080,
          "time": 35.5,
          "velocity": 0.7322834645669292
        },
        {
          "duration": 0.171875,
          "durationTicks": 165,
          "midi": 67,
          "name": "G4",
          "ticks": 34560,
          "time": 36,
          "velocity": 0.7322834645669292
        },
        {
          "duration": 0.171875,
          "durationTicks": 165,
          "midi": 67,
          "name": "G4",
          "ticks": 35040,
          "time": 36.5,
          "velocity": 0.7322834645669292
        },
        {
          "duration": 0.171875,
          "durationTicks": 165,
          "midi": 67,
          "name": "G4",
          "ticks": 35520,
          "time": 37,
          "velocity": 0.7322834645669292
        },
        {
          "duration": 0.171875,
          "durationTicks": 165,
          "midi": 67,
          "name": "G4",
          "ticks": 36000,
          "time": 37.5,
          "velocity": 0.7322834645669292
        },
        {
          "duration": 0.171875,
          "durationTicks": 165,
          "midi": 67,
          "name": "G4",
          "ticks": 36480,
          "time": 38,
          "velocity": 0.7322834645669292
        },
        {
          "duration": 0.171875,
          "durationTicks": 165,
          "midi": 67,
          "name": "G4",
          "ticks": 36960,
          "time": 38.5,
          "velocity": 0.7322834645669292
        },
        {
          "duration": 0.171875,
          "durationTicks": 165,
          "midi": 67,
          "name": "G4",
          "ticks": 37440,
          "time": 39,
          "velocity": 0.7322834645669292
        },
        {
          "duration": 0.171875,
          "durationTicks": 165,
          "midi": 67,
          "name": "G4",
          "ticks": 37920,
          "time": 39.5,
          "velocity": 0.7322834645669292
        },
        {
          "duration": 0.171875,
          "durationTicks": 165,
          "midi": 67,
          "name": "G4",
          "ticks": 38400,
          "time": 40,
          "velocity": 0.7322834645669292
        },
        {
          "duration": 0.171875,
          "durationTicks": 165,
          "midi": 67,
          "name": "G4",
          "ticks": 38880,
          "time": 40.5,
          "velocity": 0.7322834645669292
        },
        {
          "duration": 0.171875,
          "durationTicks": 165,
          "midi": 67,
          "name": "G4",
          "ticks": 39360,
          "time": 41,
          "velocity": 0.7322834645669292
        },
        {
          "duration": 0.171875,
          "durationTicks": 165,
          "midi": 67,
          "name": "G4",
          "ticks": 40320,
          "time": 42,
          "velocity": 0.7322834645669292
        },
        {
          "duration": 0.171875,
          "durationTicks": 165,
          "midi": 67,
          "name": "G4",
          "ticks": 40800,
          "time": 42.5,
          "velocity": 0.7322834645669292
        },
        {
          "duration": 0.171875,
          "durationTicks": 165,
          "midi": 67,
          "name": "G4",
          "ticks": 41280,
          "time": 43,
          "velocity": 0.7322834645669292
        },
        {
          "duration": 0.171875,
          "durationTicks": 165,
          "midi": 67,
          "name": "G4",
          "ticks": 41760,
          "time": 43.5,
          "velocity": 0.7322834645669292
        },
        {
          "duration": 0.171875,
          "durationTicks": 165,
          "midi": 67,
          "name": "G4",
          "ticks": 42240,
          "time": 44,
          "velocity": 0.7322834645669292
        },
        {
          "duration": 0.171875,
          "durationTicks": 165,
          "midi": 67,
          "name": "G4",
          "ticks": 42720,
          "time": 44.5,
          "velocity": 0.7322834645669292
        },
        {
          "duration": 0.171875,
          "durationTicks": 165,
          "midi": 67,
          "name": "G4",
          "ticks": 43200,
          "time": 45,
          "velocity": 0.7322834645669292
        },
        {
          "duration": 0.171875,
          "durationTicks": 165,
          "midi": 67,
          "name": "G4",
          "ticks": 43680,
          "time": 45.5,
          "velocity": 0.7322834645669292
        },
        {
          "duration": 0.171875,
          "durationTicks": 165,
          "midi": 67,
          "name": "G4",
          "ticks": 44160,
          "time": 46,
          "velocity": 0.7322834645669292
        },
        {
          "duration": 0.171875,
          "durationTicks": 165,
          "midi": 67,
          "name": "G4",
          "ticks": 44640,
          "time": 46.5,
          "velocity": 0.7322834645669292
        },
        {
          "duration": 0.171875,
          "durationTicks": 165,
          "midi": 67,
          "name": "G4",
          "ticks": 45120,
          "time": 47,
          "velocity": 0.7322834645669292
        },
        {
          "duration": 0.171875,
          "durationTicks": 165,
          "midi": 67,
          "name": "G4",
          "ticks": 45600,
          "time": 47.5,
          "velocity": 0.7322834645669292
        },
        {
          "duration": 0.171875,
          "durationTicks": 165,
          "midi": 67,
          "name": "G4",
          "ticks": 46080,
          "time": 48,
          "velocity": 0.7322834645669292
        },
        {
          "duration": 0.171875,
          "durationTicks": 165,
          "midi": 67,
          "name": "G4",
          "ticks": 46560,
          "time": 48.5,
          "velocity": 0.7322834645669292
        }
      ],
      "endOfTrackTicks": 47040
    },
    {
      "channel": 0,
      "controlChanges": {},
      "pitchBends": [],
      "instrument": {
        "family": "piano",
        "name": "acoustic grand piano",
        "number": 0
      },
      "name": "scotch 1",
      "notes": [
        {
          "duration": 0.5,
          "durationTicks": 480,
          "midi": 78,
          "name": "F#5",
          "ticks": 12960,
          "time": 13.5,
          "velocity": 0.9212598425196851
        },
        {
          "duration": 0.5,
          "durationTicks": 480,
          "midi": 78,
          "name": "F#5",
          "ticks": 16800,
          "time": 17.5,
          "velocity": 0.9212598425196851
        },
        {
          "duration": 0.5,
          "durationTicks": 480,
          "midi": 78,
          "name": "F#5",
          "ticks": 20640,
          "time": 21.5,
          "velocity": 0.9212598425196851
        },
        {
          "duration": 0.5,
          "durationTicks": 480,
          "midi": 78,
          "name": "F#5",
          "ticks": 24480,
          "time": 25.5,
          "velocity": 0.9212598425196851
        },
        {
          "duration": 0.5,
          "durationTicks": 480,
          "midi": 78,
          "name": "F#5",
          "ticks": 28320,
          "time": 29.5,
          "velocity": 0.9212598425196851
        },
        {
          "duration": 0.5,
          "durationTicks": 480,
          "midi": 78,
          "name": "F#5",
          "ticks": 32160,
          "time": 33.5,
          "velocity": 0.9212598425196851
        },
        {
          "duration": 0.5,
          "durationTicks": 480,
          "midi": 78,
          "name": "F#5",
          "ticks": 34200,
          "time": 35.625,
          "velocity": 0.9212598425196851
        },
        {
          "duration": 0.5,
          "durationTicks": 480,
          "midi": 78,
          "name": "F#5",
          "ticks": 36000,
          "time": 37.5,
          "velocity": 0.9212598425196851
        },
        {
          "duration": 0.5,
          "durationTicks": 480,
          "midi": 78,
          "name": "F#5",
          "ticks": 38040,
          "time": 39.625,
          "velocity": 0.9212598425196851
        },
        {
          "duration": 0.5,
          "durationTicks": 480,
          "midi": 78,
          "name": "F#5",
          "ticks": 41760,
          "time": 43.5,
          "velocity": 0.9212598425196851
        },
        {
          "duration": 0.5,
          "durationTicks": 480,
          "midi": 78,
          "name": "F#5",
          "ticks": 43800,
          "time": 45.625,
          "velocity": 0.9212598425196851
        },
        {
          "duration": 0.5,
          "durationTicks": 480,
          "midi": 78,
          "name": "F#5",
          "ticks": 45600,
          "time": 47.5,
          "velocity": 0.9212598425196851
        }
      ],
      "endOfTrackTicks": 46080
    },
    {
      "channel": 0,
      "controlChanges": {},
      "pitchBends": [],
      "instrument": {
        "family": "piano",
        "name": "acoustic grand piano",
        "number": 0
      },
      "name": "ride metal medium 1",
      "notes": [
        {
          "duration": 1,
          "durationTicks": 960,
          "midi": 51,
          "name": "D#3",
          "ticks": 15360,
          "time": 16,
          "velocity": 0.2204724409448819
        },
        {
          "duration": 1,
          "durationTicks": 960,
          "midi": 51,
          "name": "D#3",
          "ticks": 19200,
          "time": 20,
          "velocity": 0.2204724409448819
        },
        {
          "duration": 1,
          "durationTicks": 960,
          "midi": 51,
          "name": "D#3",
          "ticks": 23040,
          "time": 24,
          "velocity": 0.2204724409448819
        },
        {
          "duration": 1,
          "durationTicks": 960,
          "midi": 51,
          "name": "D#3",
          "ticks": 26880,
          "time": 28,
          "velocity": 0.2204724409448819
        },
        {
          "duration": 1,
          "durationTicks": 960,
          "midi": 51,
          "name": "D#3",
          "ticks": 30720,
          "time": 32,
          "velocity": 0.2204724409448819
        },
        {
          "duration": 1,
          "durationTicks": 960,
          "midi": 51,
          "name": "D#3",
          "ticks": 32640,
          "time": 34,
          "velocity": 0.2204724409448819
        },
        {
          "duration": 1,
          "durationTicks": 960,
          "midi": 51,
          "name": "D#3",
          "ticks": 33120,
          "time": 34.5,
          "velocity": 0.2204724409448819
        },
        {
          "duration": 1,
          "durationTicks": 960,
          "midi": 51,
          "name": "D#3",
          "ticks": 33600,
          "time": 35,
          "velocity": 0.2204724409448819
        },
        {
          "duration": 1,
          "durationTicks": 960,
          "midi": 51,
          "name": "D#3",
          "ticks": 34080,
          "time": 35.5,
          "velocity": 0.2204724409448819
        },
        {
          "duration": 1,
          "durationTicks": 960,
          "midi": 51,
          "name": "D#3",
          "ticks": 34560,
          "time": 36,
          "velocity": 0.2204724409448819
        },
        {
          "duration": 1,
          "durationTicks": 960,
          "midi": 51,
          "name": "D#3",
          "ticks": 35040,
          "time": 36.5,
          "velocity": 0.2204724409448819
        },
        {
          "duration": 1,
          "durationTicks": 960,
          "midi": 51,
          "name": "D#3",
          "ticks": 35520,
          "time": 37,
          "velocity": 0.2204724409448819
        },
        {
          "duration": 1,
          "durationTicks": 960,
          "midi": 51,
          "name": "D#3",
          "ticks": 36000,
          "time": 37.5,
          "velocity": 0.2204724409448819
        },
        {
          "duration": 1,
          "durationTicks": 960,
          "midi": 51,
          "name": "D#3",
          "ticks": 36480,
          "time": 38,
          "velocity": 0.2204724409448819
        },
        {
          "duration": 1,
          "durationTicks": 960,
          "midi": 51,
          "name": "D#3",
          "ticks": 36960,
          "time": 38.5,
          "velocity": 0.2204724409448819
        },
        {
          "duration": 1,
          "durationTicks": 960,
          "midi": 51,
          "name": "D#3",
          "ticks": 37440,
          "time": 39,
          "velocity": 0.2204724409448819
        },
        {
          "duration": 1,
          "durationTicks": 960,
          "midi": 51,
          "name": "D#3",
          "ticks": 37920,
          "time": 39.5,
          "velocity": 0.2204724409448819
        },
        {
          "duration": 1,
          "durationTicks": 960,
          "midi": 51,
          "name": "D#3",
          "ticks": 38400,
          "time": 40,
          "velocity": 0.2204724409448819
        },
        {
          "duration": 1,
          "durationTicks": 960,
          "midi": 51,
          "name": "D#3",
          "ticks": 38880,
          "time": 40.5,
          "velocity": 0.2204724409448819
        },
        {
          "duration": 1,
          "durationTicks": 960,
          "midi": 51,
          "name": "D#3",
          "ticks": 39360,
          "time": 41,
          "velocity": 0.2204724409448819
        },
        {
          "duration": 1,
          "durationTicks": 960,
          "midi": 51,
          "name": "D#3",
          "ticks": 40320,
          "time": 42,
          "velocity": 0.2204724409448819
        },
        {
          "duration": 1,
          "durationTicks": 960,
          "midi": 51,
          "name": "D#3",
          "ticks": 40800,
          "time": 42.5,
          "velocity": 0.2204724409448819
        },
        {
          "duration": 1,
          "durationTicks": 960,
          "midi": 51,
          "name": "D#3",
          "ticks": 41280,
          "time": 43,
          "velocity": 0.2204724409448819
        },
        {
          "duration": 1,
          "durationTicks": 960,
          "midi": 51,
          "name": "D#3",
          "ticks": 41760,
          "time": 43.5,
          "velocity": 0.2204724409448819
        },
        {
          "duration": 1,
          "durationTicks": 960,
          "midi": 51,
          "name": "D#3",
          "ticks": 42240,
          "time": 44,
          "velocity": 0.2204724409448819
        },
        {
          "duration": 1,
          "durationTicks": 960,
          "midi": 51,
          "name": "D#3",
          "ticks": 42720,
          "time": 44.5,
          "velocity": 0.2204724409448819
        },
        {
          "duration": 1,
          "durationTicks": 960,
          "midi": 51,
          "name": "D#3",
          "ticks": 43200,
          "time": 45,
          "velocity": 0.2204724409448819
        },
        {
          "duration": 1,
          "durationTicks": 960,
          "midi": 51,
          "name": "D#3",
          "ticks": 43680,
          "time": 45.5,
          "velocity": 0.2204724409448819
        },
        {
          "duration": 1,
          "durationTicks": 960,
          "midi": 51,
          "name": "D#3",
          "ticks": 44160,
          "time": 46,
          "velocity": 0.2204724409448819
        },
        {
          "duration": 1,
          "durationTicks": 960,
          "midi": 51,
          "name": "D#3",
          "ticks": 44640,
          "time": 46.5,
          "velocity": 0.2204724409448819
        },
        {
          "duration": 1,
          "durationTicks": 960,
          "midi": 51,
          "name": "D#3",
          "ticks": 45120,
          "time": 47,
          "velocity": 0.2204724409448819
        },
        {
          "duration": 1,
          "durationTicks": 960,
          "midi": 51,
          "name": "D#3",
          "ticks": 45600,
          "time": 47.5,
          "velocity": 0.2204724409448819
        },
        {
          "duration": 1,
          "durationTicks": 960,
          "midi": 51,
          "name": "D#3",
          "ticks": 46080,
          "time": 48,
          "velocity": 0.2204724409448819
        },
        {
          "duration": 1,
          "durationTicks": 960,
          "midi": 51,
          "name": "D#3",
          "ticks": 46560,
          "time": 48.5,
          "velocity": 0.2204724409448819
        }
      ],
      "endOfTrackTicks": 47520
    },
    {
      "channel": 0,
      "controlChanges": {},
      "pitchBends": [],
      "instrument": {
        "family": "piano",
        "name": "acoustic grand piano",
        "number": 0
      },
      "name": "ride metal aigu 2",
      "notes": [
        {
          "duration": 0.5,
          "durationTicks": 480,
          "midi": 59,
          "name": "B3",
          "ticks": 18480,
          "time": 19.25,
          "velocity": 0.8031496062992126
        },
        {
          "duration": 0.5218750000000014,
          "durationTicks": 501,
          "midi": 59,
          "name": "B3",
          "ticks": 18960,
          "time": 19.75,
          "velocity": 0.8031496062992126
        },
        {
          "duration": 0.5,
          "durationTicks": 480,
          "midi": 59,
          "name": "B3",
          "ticks": 22320,
          "time": 23.25,
          "velocity": 0.8031496062992126
        },
        {
          "duration": 0.5218750000000014,
          "durationTicks": 501,
          "midi": 59,
          "name": "B3",
          "ticks": 22800,
          "time": 23.75,
          "velocity": 0.8031496062992126
        },
        {
          "duration": 0.5,
          "durationTicks": 480,
          "midi": 59,
          "name": "B3",
          "ticks": 26160,
          "time": 27.25,
          "velocity": 0.8031496062992126
        },
        {
          "duration": 0.5218750000000014,
          "durationTicks": 501,
          "midi": 59,
          "name": "B3",
          "ticks": 26640,
          "time": 27.75,
          "velocity": 0.8031496062992126
        },
        {
          "duration": 0.5,
          "durationTicks": 480,
          "midi": 59,
          "name": "B3",
          "ticks": 30000,
          "time": 31.25,
          "velocity": 0.8031496062992126
        },
        {
          "duration": 0.5218750000000014,
          "durationTicks": 501,
          "midi": 59,
          "name": "B3",
          "ticks": 30480,
          "time": 31.75,
          "velocity": 0.8031496062992126
        },
        {
          "duration": 0.5,
          "durationTicks": 480,
          "midi": 59,
          "name": "B3",
          "ticks": 35760,
          "time": 37.25,
          "velocity": 0.8031496062992126
        },
        {
          "duration": 0.5218750000000014,
          "durationTicks": 501,
          "midi": 59,
          "name": "B3",
          "ticks": 36240,
          "time": 37.75,
          "velocity": 0.8031496062992126
        },
        {
          "duration": 0.5,
          "durationTicks": 480,
          "midi": 59,
          "name": "B3",
          "ticks": 43440,
          "time": 45.25,
          "velocity": 0.8031496062992126
        },
        {
          "duration": 0.5218750000000014,
          "durationTicks": 501,
          "midi": 59,
          "name": "B3",
          "ticks": 43920,
          "time": 45.75,
          "velocity": 0.8031496062992126
        }
      ],
      "endOfTrackTicks": 46080
    },
    {
      "channel": 0,
      "controlChanges": {},
      "pitchBends": [],
      "instrument": {
        "family": "piano",
        "name": "acoustic grand piano",
        "number": 0
      },
      "name": "ride takata 16",
      "notes": [
        {
          "duration": 2,
          "durationTicks": 1920,
          "midi": 82,
          "name": "A#5",
          "ticks": 32640,
          "time": 34,
          "velocity": 0.9606299212598425
        },
        {
          "duration": 2,
          "durationTicks": 1920,
          "midi": 82,
          "name": "A#5",
          "ticks": 34560,
          "time": 36,
          "velocity": 0.9606299212598425
        },
        {
          "duration": 2,
          "durationTicks": 1920,
          "midi": 82,
          "name": "A#5",
          "ticks": 36480,
          "time": 38,
          "velocity": 0.9606299212598425
        },
        {
          "duration": 2,
          "durationTicks": 1920,
          "midi": 82,
          "name": "A#5",
          "ticks": 38400,
          "time": 40,
          "velocity": 0.9606299212598425
        },
        {
          "duration": 2,
          "durationTicks": 1920,
          "midi": 82,
          "name": "A#5",
          "ticks": 40320,
          "time": 42,
          "velocity": 0.9606299212598425
        },
        {
          "duration": 2,
          "durationTicks": 1920,
          "midi": 82,
          "name": "A#5",
          "ticks": 42240,
          "time": 44,
          "velocity": 0.9606299212598425
        },
        {
          "duration": 2,
          "durationTicks": 1920,
          "midi": 82,
          "name": "A#5",
          "ticks": 44160,
          "time": 46,
          "velocity": 0.9606299212598425
        },
        {
          "duration": 1,
          "durationTicks": 960,
          "midi": 82,
          "name": "A#5",
          "ticks": 46080,
          "time": 48,
          "velocity": 0.9606299212598425
        }
      ],
      "endOfTrackTicks": 47040
    },
    {
      "channel": 0,
      "controlChanges": {},
      "pitchBends": [],
      "instrument": {
        "family": "piano",
        "name": "acoustic grand piano",
        "number": 0
      },
      "name": "crash fin reverb 1",
      "notes": [
        {
          "duration": 17.5,
          "durationTicks": 16800,
          "midi": 59,
          "name": "B3",
          "ticks": 47040,
          "time": 49,
          "velocity": 0.9606299212598425
        }
      ],
      "endOfTrackTicks": 63840
    },
    {
      "channel": 0,
      "controlChanges": {},
      "pitchBends": [],
      "instrument": {
        "family": "piano",
        "name": "acoustic grand piano",
        "number": 0
      },
      "name": "crash sec 1",
      "notes": [
        {
          "duration": 1.9864583333333314,
          "durationTicks": 1907,
          "midi": 59,
          "name": "B3",
          "ticks": 32653,
          "time": 34.01354166666667,
          "velocity": 0.7637795275590551
        },
        {
          "duration": 2.0020833333333314,
          "durationTicks": 1922,
          "midi": 59,
          "name": "B3",
          "ticks": 34558,
          "time": 35.99791666666667,
          "velocity": 0.7322834645669292
        },
        {
          "duration": 1.9864583333333314,
          "durationTicks": 1907,
          "midi": 59,
          "name": "B3",
          "ticks": 34573,
          "time": 36.01354166666667,
          "velocity": 0.7637795275590551
        },
        {
          "duration": 2.0020833333333314,
          "durationTicks": 1922,
          "midi": 59,
          "name": "B3",
          "ticks": 36478,
          "time": 37.99791666666667,
          "velocity": 0.7322834645669292
        },
        {
          "duration": 1.9864583333333314,
          "durationTicks": 1907,
          "midi": 59,
          "name": "B3",
          "ticks": 36493,
          "time": 38.01354166666667,
          "velocity": 0.7637795275590551
        },
        {
          "duration": 2.0020833333333314,
          "durationTicks": 1922,
          "midi": 59,
          "name": "B3",
          "ticks": 38398,
          "time": 39.99791666666667,
          "velocity": 0.7322834645669292
        },
        {
          "duration": 1.9864583333333314,
          "durationTicks": 1907,
          "midi": 59,
          "name": "B3",
          "ticks": 38413,
          "time": 40.01354166666667,
          "velocity": 0.7637795275590551
        },
        {
          "duration": 1.9864583333333314,
          "durationTicks": 1907,
          "midi": 59,
          "name": "B3",
          "ticks": 40333,
          "time": 42.01354166666667,
          "velocity": 0.7637795275590551
        },
        {
          "duration": 2.0020833333333314,
          "durationTicks": 1922,
          "midi": 59,
          "name": "B3",
          "ticks": 42238,
          "time": 43.99791666666667,
          "velocity": 0.7322834645669292
        },
        {
          "duration": 1.9864583333333314,
          "durationTicks": 1907,
          "midi": 59,
          "name": "B3",
          "ticks": 42253,
          "time": 44.01354166666667,
          "velocity": 0.7637795275590551
        },
        {
          "duration": 2.0020833333333314,
          "durationTicks": 1922,
          "midi": 59,
          "name": "B3",
          "ticks": 44158,
          "time": 45.99791666666667,
          "velocity": 0.7322834645669292
        },
        {
          "duration": 1.9864583333333314,
          "durationTicks": 1907,
          "midi": 59,
          "name": "B3",
          "ticks": 44173,
          "time": 46.01354166666667,
          "velocity": 0.7637795275590551
        },
        {
          "duration": 2.0020833333333314,
          "durationTicks": 1922,
          "midi": 59,
          "name": "B3",
          "ticks": 46078,
          "time": 47.99791666666667,
          "velocity": 0.7322834645669292
        },
        {
          "duration": 1.9864583333333314,
          "durationTicks": 1907,
          "midi": 59,
          "name": "B3",
          "ticks": 46093,
          "time": 48.01354166666667,
          "velocity": 0.7637795275590551
        }
      ],
      "endOfTrackTicks": 48000
    },
    {
      "channel": 0,
      "controlChanges": {},
      "pitchBends": [],
      "instrument": {
        "family": "piano",
        "name": "acoustic grand piano",
        "number": 0
      },
      "name": "clave 4",
      "notes": [
        {
          "duration": 0.033333333333333215,
          "durationTicks": 32,
          "midi": 67,
          "name": "G4",
          "ticks": 12720,
          "time": 13.25,
          "velocity": 0.6614173228346457
        },
        {
          "duration": 0.07604166666666679,
          "durationTicks": 73,
          "midi": 67,
          "name": "G4",
          "ticks": 12840,
          "time": 13.375,
          "velocity": 0.5511811023622047
        },
        {
          "duration": 0.0947916666666675,
          "durationTicks": 91,
          "midi": 67,
          "name": "G4",
          "ticks": 13200,
          "time": 13.75,
          "velocity": 0.6141732283464567
        },
        {
          "duration": 0.047916666666667496,
          "durationTicks": 46,
          "midi": 67,
          "name": "G4",
          "ticks": 13680,
          "time": 14.25,
          "velocity": 0.7322834645669292
        },
        {
          "duration": 0.08750000000000036,
          "durationTicks": 84,
          "midi": 67,
          "name": "G4",
          "ticks": 13800,
          "time": 14.375,
          "velocity": 0.5984251968503937
        },
        {
          "duration": 0.16145833333333393,
          "durationTicks": 155,
          "midi": 67,
          "name": "G4",
          "ticks": 14160,
          "time": 14.75,
          "velocity": 0.7322834645669292
        },
        {
          "duration": 0.033333333333333215,
          "durationTicks": 32,
          "midi": 67,
          "name": "G4",
          "ticks": 14640,
          "time": 15.25,
          "velocity": 0.6850393700787402
        },
        {
          "duration": 0.08333333333333393,
          "durationTicks": 80,
          "midi": 67,
          "name": "G4",
          "ticks": 14760,
          "time": 15.375,
          "velocity": 0.6614173228346457
        },
        {
          "duration": 0.1572916666666675,
          "durationTicks": 151,
          "midi": 67,
          "name": "G4",
          "ticks": 15120,
          "time": 15.75,
          "velocity": 0.8031496062992126
        },
        {
          "duration": 0.05208333333333215,
          "durationTicks": 50,
          "midi": 67,
          "name": "G4",
          "ticks": 15600,
          "time": 16.25,
          "velocity": 0.7322834645669292
        },
        {
          "duration": 0.08437500000000142,
          "durationTicks": 81,
          "midi": 67,
          "name": "G4",
          "ticks": 15720,
          "time": 16.375,
          "velocity": 0.5984251968503937
        },
        {
          "duration": 0.21770833333333428,
          "durationTicks": 209,
          "midi": 67,
          "name": "G4",
          "ticks": 16080,
          "time": 16.75,
          "velocity": 0.8031496062992126
        },
        {
          "duration": 0.05208333333333215,
          "durationTicks": 50,
          "midi": 67,
          "name": "G4",
          "ticks": 16560,
          "time": 17.25,
          "velocity": 0.6850393700787402
        },
        {
          "duration": 0.09062499999999929,
          "durationTicks": 87,
          "midi": 67,
          "name": "G4",
          "ticks": 16680,
          "time": 17.375,
          "velocity": 0.6299212598425197
        },
        {
          "duration": 0.14791666666666714,
          "durationTicks": 142,
          "midi": 67,
          "name": "G4",
          "ticks": 17040,
          "time": 17.75,
          "velocity": 0.7322834645669292
        },
        {
          "duration": 0.05937499999999929,
          "durationTicks": 57,
          "midi": 67,
          "name": "G4",
          "ticks": 17520,
          "time": 18.25,
          "velocity": 0.7322834645669292
        },
        {
          "duration": 0.08854166666666785,
          "durationTicks": 85,
          "midi": 67,
          "name": "G4",
          "ticks": 17640,
          "time": 18.375,
          "velocity": 0.6299212598425197
        },
        {
          "duration": 0.24374999999999858,
          "durationTicks": 234,
          "midi": 67,
          "name": "G4",
          "ticks": 18000,
          "time": 18.75,
          "velocity": 0.8031496062992126
        },
        {
          "duration": 0.05416666666666714,
          "durationTicks": 52,
          "midi": 67,
          "name": "G4",
          "ticks": 18480,
          "time": 19.25,
          "velocity": 0.7322834645669292
        },
        {
          "duration": 0.09895833333333215,
          "durationTicks": 95,
          "midi": 67,
          "name": "G4",
          "ticks": 18600,
          "time": 19.375,
          "velocity": 0.6299212598425197
        },
        {
          "duration": 0.06979166666666714,
          "durationTicks": 67,
          "midi": 67,
          "name": "G4",
          "ticks": 18960,
          "time": 19.75,
          "velocity": 0.8031496062992126
        },
        {
          "duration": 0.09895833333333215,
          "durationTicks": 95,
          "midi": 67,
          "name": "G4",
          "ticks": 19080,
          "time": 19.875,
          "velocity": 0.5511811023622047
        },
        {
          "duration": 0.75,
          "durationTicks": 720,
          "midi": 67,
          "name": "G4",
          "ticks": 20400,
          "time": 21.25,
          "velocity": 0.6614173228346457
        },
        {
          "duration": 0.75,
          "durationTicks": 720,
          "midi": 67,
          "name": "G4",
          "ticks": 24240,
          "time": 25.25,
          "velocity": 0.6614173228346457
        },
        {
          "duration": 0.75,
          "durationTicks": 720,
          "midi": 67,
          "name": "G4",
          "ticks": 28080,
          "time": 29.25,
          "velocity": 0.6614173228346457
        },
        {
          "duration": 0.75,
          "durationTicks": 720,
          "midi": 67,
          "name": "G4",
          "ticks": 32880,
          "time": 34.25,
          "velocity": 0.6614173228346457
        },
        {
          "duration": 0.75,
          "durationTicks": 720,
          "midi": 67,
          "name": "G4",
          "ticks": 33840,
          "time": 35.25,
          "velocity": 0.6614173228346457
        },
        {
          "duration": 0.75,
          "durationTicks": 720,
          "midi": 67,
          "name": "G4",
          "ticks": 34800,
          "time": 36.25,
          "velocity": 0.6614173228346457
        },
        {
          "duration": 0.75,
          "durationTicks": 720,
          "midi": 67,
          "name": "G4",
          "ticks": 35760,
          "time": 37.25,
          "velocity": 0.6614173228346457
        },
        {
          "duration": 0.75,
          "durationTicks": 720,
          "midi": 67,
          "name": "G4",
          "ticks": 36720,
          "time": 38.25,
          "velocity": 0.6614173228346457
        },
        {
          "duration": 0.75,
          "durationTicks": 720,
          "midi": 67,
          "name": "G4",
          "ticks": 37680,
          "time": 39.25,
          "velocity": 0.6614173228346457
        },
        {
          "duration": 0.75,
          "durationTicks": 720,
          "midi": 67,
          "name": "G4",
          "ticks": 38640,
          "time": 40.25,
          "velocity": 0.6614173228346457
        },
        {
          "duration": 0.75,
          "durationTicks": 720,
          "midi": 67,
          "name": "G4",
          "ticks": 40560,
          "time": 42.25,
          "velocity": 0.6614173228346457
        },
        {
          "duration": 0.75,
          "durationTicks": 720,
          "midi": 67,
          "name": "G4",
          "ticks": 41520,
          "time": 43.25,
          "velocity": 0.6614173228346457
        },
        {
          "duration": 0.75,
          "durationTicks": 720,
          "midi": 67,
          "name": "G4",
          "ticks": 42480,
          "time": 44.25,
          "velocity": 0.6614173228346457
        },
        {
          "duration": 0.75,
          "durationTicks": 720,
          "midi": 67,
          "name": "G4",
          "ticks": 43440,
          "time": 45.25,
          "velocity": 0.6614173228346457
        },
        {
          "duration": 0.75,
          "durationTicks": 720,
          "midi": 67,
          "name": "G4",
          "ticks": 44400,
          "time": 46.25,
          "velocity": 0.6614173228346457
        },
        {
          "duration": 0.75,
          "durationTicks": 720,
          "midi": 67,
          "name": "G4",
          "ticks": 45360,
          "time": 47.25,
          "velocity": 0.6614173228346457
        },
        {
          "duration": 0.75,
          "durationTicks": 720,
          "midi": 67,
          "name": "G4",
          "ticks": 46320,
          "time": 48.25,
          "velocity": 0.6614173228346457
        }
      ],
      "endOfTrackTicks": 47040
    },
    {
      "channel": 0,
      "controlChanges": {},
      "pitchBends": [],
      "instrument": {
        "family": "piano",
        "name": "acoustic grand piano",
        "number": 0
      },
      "name": "clap a 1",
      "notes": [
        {
          "duration": 0.22604166666666714,
          "durationTicks": 217,
          "midi": 60,
          "name": "C4",
          "ticks": 32880,
          "time": 34.25,
          "velocity": 0.6614173228346457
        },
        {
          "duration": 0.22604166666666714,
          "durationTicks": 217,
          "midi": 60,
          "name": "C4",
          "ticks": 33360,
          "time": 34.75,
          "velocity": 0.6614173228346457
        },
        {
          "duration": 0.22604166666666714,
          "durationTicks": 217,
          "midi": 60,
          "name": "C4",
          "ticks": 33840,
          "time": 35.25,
          "velocity": 0.6614173228346457
        },
        {
          "duration": 0.22604166666666714,
          "durationTicks": 217,
          "midi": 60,
          "name": "C4",
          "ticks": 34320,
          "time": 35.75,
          "velocity": 0.6614173228346457
        },
        {
          "duration": 0.22604166666666714,
          "durationTicks": 217,
          "midi": 60,
          "name": "C4",
          "ticks": 34800,
          "time": 36.25,
          "velocity": 0.6614173228346457
        },
        {
          "duration": 0.22604166666666714,
          "durationTicks": 217,
          "midi": 60,
          "name": "C4",
          "ticks": 35280,
          "time": 36.75,
          "velocity": 0.6614173228346457
        },
        {
          "duration": 0.22604166666666714,
          "durationTicks": 217,
          "midi": 60,
          "name": "C4",
          "ticks": 35760,
          "time": 37.25,
          "velocity": 0.6614173228346457
        },
        {
          "duration": 0.22604166666666714,
          "durationTicks": 217,
          "midi": 60,
          "name": "C4",
          "ticks": 36240,
          "time": 37.75,
          "velocity": 0.6614173228346457
        },
        {
          "duration": 0.22604166666666714,
          "durationTicks": 217,
          "midi": 60,
          "name": "C4",
          "ticks": 36720,
          "time": 38.25,
          "velocity": 0.6614173228346457
        },
        {
          "duration": 0.22604166666666714,
          "durationTicks": 217,
          "midi": 60,
          "name": "C4",
          "ticks": 37200,
          "time": 38.75,
          "velocity": 0.6614173228346457
        },
        {
          "duration": 0.22604166666666714,
          "durationTicks": 217,
          "midi": 60,
          "name": "C4",
          "ticks": 37680,
          "time": 39.25,
          "velocity": 0.6614173228346457
        },
        {
          "duration": 0.22604166666666714,
          "durationTicks": 217,
          "midi": 60,
          "name": "C4",
          "ticks": 38160,
          "time": 39.75,
          "velocity": 0.6614173228346457
        },
        {
          "duration": 0.22604166666666714,
          "durationTicks": 217,
          "midi": 60,
          "name": "C4",
          "ticks": 38640,
          "time": 40.25,
          "velocity": 0.6614173228346457
        },
        {
          "duration": 0.22604166666666714,
          "durationTicks": 217,
          "midi": 60,
          "name": "C4",
          "ticks": 39120,
          "time": 40.75,
          "velocity": 0.6614173228346457
        },
        {
          "duration": 0.22604166666666714,
          "durationTicks": 217,
          "midi": 60,
          "name": "C4",
          "ticks": 40560,
          "time": 42.25,
          "velocity": 0.6614173228346457
        },
        {
          "duration": 0.22604166666666714,
          "durationTicks": 217,
          "midi": 60,
          "name": "C4",
          "ticks": 41040,
          "time": 42.75,
          "velocity": 0.6614173228346457
        },
        {
          "duration": 0.22604166666666714,
          "durationTicks": 217,
          "midi": 60,
          "name": "C4",
          "ticks": 41520,
          "time": 43.25,
          "velocity": 0.6614173228346457
        },
        {
          "duration": 0.22604166666666714,
          "durationTicks": 217,
          "midi": 60,
          "name": "C4",
          "ticks": 42000,
          "time": 43.75,
          "velocity": 0.6614173228346457
        },
        {
          "duration": 0.22604166666666714,
          "durationTicks": 217,
          "midi": 60,
          "name": "C4",
          "ticks": 42480,
          "time": 44.25,
          "velocity": 0.6614173228346457
        },
        {
          "duration": 0.22604166666666714,
          "durationTicks": 217,
          "midi": 60,
          "name": "C4",
          "ticks": 42960,
          "time": 44.75,
          "velocity": 0.6614173228346457
        },
        {
          "duration": 0.22604166666666714,
          "durationTicks": 217,
          "midi": 60,
          "name": "C4",
          "ticks": 43440,
          "time": 45.25,
          "velocity": 0.6614173228346457
        },
        {
          "duration": 0.22604166666666714,
          "durationTicks": 217,
          "midi": 60,
          "name": "C4",
          "ticks": 43920,
          "time": 45.75,
          "velocity": 0.6614173228346457
        },
        {
          "duration": 0.22604166666666714,
          "durationTicks": 217,
          "midi": 60,
          "name": "C4",
          "ticks": 44400,
          "time": 46.25,
          "velocity": 0.6614173228346457
        },
        {
          "duration": 0.22604166666666714,
          "durationTicks": 217,
          "midi": 60,
          "name": "C4",
          "ticks": 44880,
          "time": 46.75,
          "velocity": 0.6614173228346457
        },
        {
          "duration": 0.22604166666666714,
          "durationTicks": 217,
          "midi": 60,
          "name": "C4",
          "ticks": 45360,
          "time": 47.25,
          "velocity": 0.6614173228346457
        },
        {
          "duration": 0.22604166666666714,
          "durationTicks": 217,
          "midi": 60,
          "name": "C4",
          "ticks": 45840,
          "time": 47.75,
          "velocity": 0.6614173228346457
        },
        {
          "duration": 0.22604166666666714,
          "durationTicks": 217,
          "midi": 60,
          "name": "C4",
          "ticks": 46320,
          "time": 48.25,
          "velocity": 0.6614173228346457
        },
        {
          "duration": 0.22604166666666714,
          "durationTicks": 217,
          "midi": 60,
          "name": "C4",
          "ticks": 46800,
          "time": 48.75,
          "velocity": 0.6614173228346457
        }
      ],
      "endOfTrackTicks": 47040
    },
    {
      "channel": 0,
      "controlChanges": {},
      "pitchBends": [],
      "instrument": {
        "family": "piano",
        "name": "acoustic grand piano",
        "number": 0
      },
      "name": "clap b 1",
      "notes": [
        {
          "duration": 0.125,
          "durationTicks": 120,
          "midi": 39,
          "name": "D#2",
          "ticks": 21601,
          "time": 22.501041666666666,
          "velocity": 0.7244094488188977
        },
        {
          "duration": 0.125,
          "durationTicks": 120,
          "midi": 39,
          "name": "D#2",
          "ticks": 22561,
          "time": 23.501041666666666,
          "velocity": 0.7244094488188977
        },
        {
          "duration": 0.125,
          "durationTicks": 120,
          "midi": 39,
          "name": "D#2",
          "ticks": 23521,
          "time": 24.501041666666666,
          "velocity": 0.7244094488188977
        },
        {
          "duration": 0.125,
          "durationTicks": 120,
          "midi": 39,
          "name": "D#2",
          "ticks": 24481,
          "time": 25.501041666666666,
          "velocity": 0.7244094488188977
        },
        {
          "duration": 0.125,
          "durationTicks": 120,
          "midi": 39,
          "name": "D#2",
          "ticks": 25441,
          "time": 26.501041666666666,
          "velocity": 0.7244094488188977
        },
        {
          "duration": 0.125,
          "durationTicks": 120,
          "midi": 39,
          "name": "D#2",
          "ticks": 26401,
          "time": 27.501041666666666,
          "velocity": 0.7244094488188977
        },
        {
          "duration": 0.125,
          "durationTicks": 120,
          "midi": 39,
          "name": "D#2",
          "ticks": 27361,
          "time": 28.501041666666666,
          "velocity": 0.7244094488188977
        },
        {
          "duration": 0.125,
          "durationTicks": 120,
          "midi": 39,
          "name": "D#2",
          "ticks": 28321,
          "time": 29.501041666666666,
          "velocity": 0.7244094488188977
        },
        {
          "duration": 0.125,
          "durationTicks": 120,
          "midi": 39,
          "name": "D#2",
          "ticks": 29281,
          "time": 30.501041666666666,
          "velocity": 0.7244094488188977
        },
        {
          "duration": 0.125,
          "durationTicks": 120,
          "midi": 39,
          "name": "D#2",
          "ticks": 30241,
          "time": 31.501041666666666,
          "velocity": 0.7244094488188977
        },
        {
          "duration": 0.125,
          "durationTicks": 120,
          "midi": 39,
          "name": "D#2",
          "ticks": 33121,
          "time": 34.501041666666666,
          "velocity": 0.7244094488188977
        },
        {
          "duration": 0.125,
          "durationTicks": 120,
          "midi": 39,
          "name": "D#2",
          "ticks": 34081,
          "time": 35.501041666666666,
          "velocity": 0.7244094488188977
        },
        {
          "duration": 0.125,
          "durationTicks": 120,
          "midi": 39,
          "name": "D#2",
          "ticks": 35041,
          "time": 36.501041666666666,
          "velocity": 0.7244094488188977
        },
        {
          "duration": 0.125,
          "durationTicks": 120,
          "midi": 39,
          "name": "D#2",
          "ticks": 36001,
          "time": 37.501041666666666,
          "velocity": 0.7244094488188977
        },
        {
          "duration": 0.125,
          "durationTicks": 120,
          "midi": 39,
          "name": "D#2",
          "ticks": 36961,
          "time": 38.501041666666666,
          "velocity": 0.7244094488188977
        },
        {
          "duration": 0.125,
          "durationTicks": 120,
          "midi": 39,
          "name": "D#2",
          "ticks": 37921,
          "time": 39.501041666666666,
          "velocity": 0.7244094488188977
        },
        {
          "duration": 0.125,
          "durationTicks": 120,
          "midi": 39,
          "name": "D#2",
          "ticks": 38881,
          "time": 40.501041666666666,
          "velocity": 0.7244094488188977
        },
        {
          "duration": 0.125,
          "durationTicks": 120,
          "midi": 39,
          "name": "D#2",
          "ticks": 40801,
          "time": 42.501041666666666,
          "velocity": 0.7244094488188977
        },
        {
          "duration": 0.125,
          "durationTicks": 120,
          "midi": 39,
          "name": "D#2",
          "ticks": 41761,
          "time": 43.501041666666666,
          "velocity": 0.7244094488188977
        },
        {
          "duration": 0.125,
          "durationTicks": 120,
          "midi": 39,
          "name": "D#2",
          "ticks": 42721,
          "time": 44.501041666666666,
          "velocity": 0.7244094488188977
        },
        {
          "duration": 0.125,
          "durationTicks": 120,
          "midi": 39,
          "name": "D#2",
          "ticks": 43681,
          "time": 45.501041666666666,
          "velocity": 0.7244094488188977
        },
        {
          "duration": 0.125,
          "durationTicks": 120,
          "midi": 39,
          "name": "D#2",
          "ticks": 44641,
          "time": 46.501041666666666,
          "velocity": 0.7244094488188977
        },
        {
          "duration": 0.125,
          "durationTicks": 120,
          "midi": 39,
          "name": "D#2",
          "ticks": 45601,
          "time": 47.501041666666666,
          "velocity": 0.7244094488188977
        },
        {
          "duration": 0.125,
          "durationTicks": 120,
          "midi": 39,
          "name": "D#2",
          "ticks": 46561,
          "time": 48.501041666666666,
          "velocity": 0.7244094488188977
        }
      ],
      "endOfTrackTicks": 47040
    },
    {
      "channel": 0,
      "controlChanges": {},
      "pitchBends": [],
      "instrument": {
        "family": "piano",
        "name": "acoustic grand piano",
        "number": 0
      },
      "name": "maracas 8",
      "notes": [
        {
          "duration": 1,
          "durationTicks": 960,
          "midi": 82,
          "name": "A#5",
          "ticks": 24960,
          "time": 26,
          "velocity": 0.9606299212598425
        },
        {
          "duration": 1,
          "durationTicks": 960,
          "midi": 82,
          "name": "A#5",
          "ticks": 25920,
          "time": 27,
          "velocity": 0.9606299212598425
        },
        {
          "duration": 1,
          "durationTicks": 960,
          "midi": 82,
          "name": "A#5",
          "ticks": 26880,
          "time": 28,
          "velocity": 0.9606299212598425
        },
        {
          "duration": 1,
          "durationTicks": 960,
          "midi": 82,
          "name": "A#5",
          "ticks": 27840,
          "time": 29,
          "velocity": 0.9606299212598425
        },
        {
          "duration": 1,
          "durationTicks": 960,
          "midi": 82,
          "name": "A#5",
          "ticks": 28800,
          "time": 30,
          "velocity": 0.9606299212598425
        },
        {
          "duration": 1,
          "durationTicks": 960,
          "midi": 82,
          "name": "A#5",
          "ticks": 29760,
          "time": 31,
          "velocity": 0.9606299212598425
        },
        {
          "duration": 1,
          "durationTicks": 960,
          "midi": 82,
          "name": "A#5",
          "ticks": 30720,
          "time": 32,
          "velocity": 0.9606299212598425
        },
        {
          "duration": 1,
          "durationTicks": 960,
          "midi": 82,
          "name": "A#5",
          "ticks": 32640,
          "time": 34,
          "velocity": 0.9606299212598425
        },
        {
          "duration": 1,
          "durationTicks": 960,
          "midi": 82,
          "name": "A#5",
          "ticks": 33600,
          "time": 35,
          "velocity": 0.9606299212598425
        },
        {
          "duration": 1,
          "durationTicks": 960,
          "midi": 82,
          "name": "A#5",
          "ticks": 34560,
          "time": 36,
          "velocity": 0.9606299212598425
        },
        {
          "duration": 1,
          "durationTicks": 960,
          "midi": 82,
          "name": "A#5",
          "ticks": 35520,
          "time": 37,
          "velocity": 0.9606299212598425
        },
        {
          "duration": 1,
          "durationTicks": 960,
          "midi": 82,
          "name": "A#5",
          "ticks": 36480,
          "time": 38,
          "velocity": 0.9606299212598425
        },
        {
          "duration": 1,
          "durationTicks": 960,
          "midi": 82,
          "name": "A#5",
          "ticks": 37440,
          "time": 39,
          "velocity": 0.9606299212598425
        },
        {
          "duration": 1,
          "durationTicks": 960,
          "midi": 82,
          "name": "A#5",
          "ticks": 38400,
          "time": 40,
          "velocity": 0.9606299212598425
        },
        {
          "duration": 1,
          "durationTicks": 960,
          "midi": 82,
          "name": "A#5",
          "ticks": 39360,
          "time": 41,
          "velocity": 0.9606299212598425
        },
        {
          "duration": 1,
          "durationTicks": 960,
          "midi": 82,
          "name": "A#5",
          "ticks": 40320,
          "time": 42,
          "velocity": 0.9606299212598425
        },
        {
          "duration": 1,
          "durationTicks": 960,
          "midi": 82,
          "name": "A#5",
          "ticks": 41280,
          "time": 43,
          "velocity": 0.9606299212598425
        },
        {
          "duration": 1,
          "durationTicks": 960,
          "midi": 82,
          "name": "A#5",
          "ticks": 42240,
          "time": 44,
          "velocity": 0.9606299212598425
        },
        {
          "duration": 1,
          "durationTicks": 960,
          "midi": 82,
          "name": "A#5",
          "ticks": 43200,
          "time": 45,
          "velocity": 0.9606299212598425
        },
        {
          "duration": 1,
          "durationTicks": 960,
          "midi": 82,
          "name": "A#5",
          "ticks": 44160,
          "time": 46,
          "velocity": 0.9606299212598425
        },
        {
          "duration": 1,
          "durationTicks": 960,
          "midi": 82,
          "name": "A#5",
          "ticks": 45120,
          "time": 47,
          "velocity": 0.9606299212598425
        },
        {
          "duration": 1,
          "durationTicks": 960,
          "midi": 82,
          "name": "A#5",
          "ticks": 46080,
          "time": 48,
          "velocity": 0.9606299212598425
        }
      ],
      "endOfTrackTicks": 47040
    },
    {
      "channel": 0,
      "controlChanges": {},
      "pitchBends": [],
      "instrument": {
        "family": "piano",
        "name": "acoustic grand piano",
        "number": 0
      },
      "name": "porte coul voit",
      "notes": [
        {
          "duration": 9,
          "durationTicks": 8640,
          "midi": 82,
          "name": "A#5",
          "ticks": 30240,
          "time": 31.5,
          "velocity": 0.9606299212598425
        }
      ],
      "endOfTrackTicks": 38880
    },
    {
      "channel": 0,
      "controlChanges": {},
      "pitchBends": [],
      "instrument": {
        "family": "piano",
        "name": "acoustic grand piano",
        "number": 0
      },
      "name": "meule metal",
      "notes": [
        {
          "duration": 9,
          "durationTicks": 8640,
          "midi": 82,
          "name": "A#5",
          "ticks": 30240,
          "time": 31.5,
          "velocity": 0.9606299212598425
        },
        {
          "duration": 9,
          "durationTicks": 8640,
          "midi": 82,
          "name": "A#5",
          "ticks": 32640,
          "time": 34,
          "velocity": 0.9606299212598425
        },
        {
          "duration": 9,
          "durationTicks": 8640,
          "midi": 82,
          "name": "A#5",
          "ticks": 34560,
          "time": 36,
          "velocity": 0.9606299212598425
        },
        {
          "duration": 9,
          "durationTicks": 8640,
          "midi": 82,
          "name": "A#5",
          "ticks": 36480,
          "time": 38,
          "velocity": 0.9606299212598425
        },
        {
          "duration": 9,
          "durationTicks": 8640,
          "midi": 82,
          "name": "A#5",
          "ticks": 38400,
          "time": 40,
          "velocity": 0.9606299212598425
        },
        {
          "duration": 9,
          "durationTicks": 8640,
          "midi": 82,
          "name": "A#5",
          "ticks": 40320,
          "time": 42,
          "velocity": 0.9606299212598425
        },
        {
          "duration": 9,
          "durationTicks": 8640,
          "midi": 82,
          "name": "A#5",
          "ticks": 42240,
          "time": 44,
          "velocity": 0.9606299212598425
        },
        {
          "duration": 9,
          "durationTicks": 8640,
          "midi": 82,
          "name": "A#5",
          "ticks": 44160,
          "time": 46,
          "velocity": 0.9606299212598425
        },
        {
          "duration": 9,
          "durationTicks": 8640,
          "midi": 82,
          "name": "A#5",
          "ticks": 46080,
          "time": 48,
          "velocity": 0.9606299212598425
        }
      ],
      "endOfTrackTicks": 54720
    },
    {
      "channel": 0,
      "controlChanges": {},
      "pitchBends": [],
      "instrument": {
        "family": "piano",
        "name": "acoustic grand piano",
        "number": 0
      },
      "name": "porte voiture",
      "notes": [
        {
          "duration": 9,
          "durationTicks": 8640,
          "midi": 82,
          "name": "A#5",
          "ticks": 33120,
          "time": 34.5,
          "velocity": 0.9606299212598425
        },
        {
          "duration": 9,
          "durationTicks": 8640,
          "midi": 82,
          "name": "A#5",
          "ticks": 34080,
          "time": 35.5,
          "velocity": 0.9606299212598425
        },
        {
          "duration": 9,
          "durationTicks": 8640,
          "midi": 82,
          "name": "A#5",
          "ticks": 35040,
          "time": 36.5,
          "velocity": 0.9606299212598425
        },
        {
          "duration": 9,
          "durationTicks": 8640,
          "midi": 82,
          "name": "A#5",
          "ticks": 36000,
          "time": 37.5,
          "velocity": 0.9606299212598425
        },
        {
          "duration": 9,
          "durationTicks": 8640,
          "midi": 82,
          "name": "A#5",
          "ticks": 36960,
          "time": 38.5,
          "velocity": 0.9606299212598425
        },
        {
          "duration": 9,
          "durationTicks": 8640,
          "midi": 82,
          "name": "A#5",
          "ticks": 37920,
          "time": 39.5,
          "velocity": 0.9606299212598425
        },
        {
          "duration": 9,
          "durationTicks": 8640,
          "midi": 82,
          "name": "A#5",
          "ticks": 38880,
          "time": 40.5,
          "velocity": 0.9606299212598425
        },
        {
          "duration": 9,
          "durationTicks": 8640,
          "midi": 82,
          "name": "A#5",
          "ticks": 40800,
          "time": 42.5,
          "velocity": 0.9606299212598425
        },
        {
          "duration": 9,
          "durationTicks": 8640,
          "midi": 82,
          "name": "A#5",
          "ticks": 41760,
          "time": 43.5,
          "velocity": 0.9606299212598425
        },
        {
          "duration": 9,
          "durationTicks": 8640,
          "midi": 82,
          "name": "A#5",
          "ticks": 42720,
          "time": 44.5,
          "velocity": 0.9606299212598425
        },
        {
          "duration": 9,
          "durationTicks": 8640,
          "midi": 82,
          "name": "A#5",
          "ticks": 43680,
          "time": 45.5,
          "velocity": 0.9606299212598425
        },
        {
          "duration": 9,
          "durationTicks": 8640,
          "midi": 82,
          "name": "A#5",
          "ticks": 44640,
          "time": 46.5,
          "velocity": 0.9606299212598425
        },
        {
          "duration": 9,
          "durationTicks": 8640,
          "midi": 82,
          "name": "A#5",
          "ticks": 45600,
          "time": 47.5,
          "velocity": 0.9606299212598425
        },
        {
          "duration": 9,
          "durationTicks": 8640,
          "midi": 82,
          "name": "A#5",
          "ticks": 46560,
          "time": 48.5,
          "velocity": 0.9606299212598425
        }
      ],
      "endOfTrackTicks": 55200
    },
    {
      "channel": 0,
      "controlChanges": {},
      "pitchBends": [],
      "instrument": {
        "family": "piano",
        "name": "acoustic grand piano",
        "number": 0
      },
      "name": "pieds 02",
      "notes": [
        {
          "duration": 9,
          "durationTicks": 8640,
          "midi": 82,
          "name": "A#5",
          "ticks": 32640,
          "time": 34,
          "velocity": 0.9606299212598425
        },
        {
          "duration": 9,
          "durationTicks": 8640,
          "midi": 82,
          "name": "A#5",
          "ticks": 34560,
          "time": 36,
          "velocity": 0.9606299212598425
        },
        {
          "duration": 9,
          "durationTicks": 8640,
          "midi": 82,
          "name": "A#5",
          "ticks": 36480,
          "time": 38,
          "velocity": 0.9606299212598425
        },
        {
          "duration": 9,
          "durationTicks": 8640,
          "midi": 82,
          "name": "A#5",
          "ticks": 38400,
          "time": 40,
          "velocity": 0.9606299212598425
        },
        {
          "duration": 9,
          "durationTicks": 8640,
          "midi": 82,
          "name": "A#5",
          "ticks": 40320,
          "time": 42,
          "velocity": 0.9606299212598425
        },
        {
          "duration": 9,
          "durationTicks": 8640,
          "midi": 82,
          "name": "A#5",
          "ticks": 42240,
          "time": 44,
          "velocity": 0.9606299212598425
        },
        {
          "duration": 9,
          "durationTicks": 8640,
          "midi": 82,
          "name": "A#5",
          "ticks": 44160,
          "time": 46,
          "velocity": 0.9606299212598425
        },
        {
          "duration": 9,
          "durationTicks": 8640,
          "midi": 82,
          "name": "A#5",
          "ticks": 46080,
          "time": 48,
          "velocity": 0.9606299212598425
        }
      ],
      "endOfTrackTicks": 54720
    },
    {
      "channel": 0,
      "controlChanges": {},
      "pitchBends": [],
      "instrument": {
        "family": "piano",
        "name": "acoustic grand piano",
        "number": 0
      },
      "name": "pieds 01",
      "notes": [
        {
          "duration": 9,
          "durationTicks": 8640,
          "midi": 82,
          "name": "A#5",
          "ticks": 32640,
          "time": 34,
          "velocity": 0.9606299212598425
        },
        {
          "duration": 9,
          "durationTicks": 8640,
          "midi": 82,
          "name": "A#5",
          "ticks": 34560,
          "time": 36,
          "velocity": 0.9606299212598425
        },
        {
          "duration": 9,
          "durationTicks": 8640,
          "midi": 82,
          "name": "A#5",
          "ticks": 36480,
          "time": 38,
          "velocity": 0.9606299212598425
        },
        {
          "duration": 9,
          "durationTicks": 8640,
          "midi": 82,
          "name": "A#5",
          "ticks": 38400,
          "time": 40,
          "velocity": 0.9606299212598425
        },
        {
          "duration": 9,
          "durationTicks": 8640,
          "midi": 82,
          "name": "A#5",
          "ticks": 40320,
          "time": 42,
          "velocity": 0.9606299212598425
        },
        {
          "duration": 9,
          "durationTicks": 8640,
          "midi": 82,
          "name": "A#5",
          "ticks": 42240,
          "time": 44,
          "velocity": 0.9606299212598425
        },
        {
          "duration": 9,
          "durationTicks": 8640,
          "midi": 82,
          "name": "A#5",
          "ticks": 44160,
          "time": 46,
          "velocity": 0.9606299212598425
        },
        {
          "duration": 9,
          "durationTicks": 8640,
          "midi": 82,
          "name": "A#5",
          "ticks": 46080,
          "time": 48,
          "velocity": 0.9606299212598425
        }
      ],
      "endOfTrackTicks": 54720
    },
    {
      "channel": 0,
      "controlChanges": {},
      "pitchBends": [],
      "instrument": {
        "family": "piano",
        "name": "acoustic grand piano",
        "number": 0
      },
      "name": "kick a1",
      "notes": [
        {
          "duration": 1,
          "durationTicks": 960,
          "midi": 36,
          "name": "C2",
          "ticks": 32640,
          "time": 34,
          "velocity": 0.8503937007874016
        },
        {
          "duration": 1,
          "durationTicks": 960,
          "midi": 36,
          "name": "C2",
          "ticks": 33600,
          "time": 35,
          "velocity": 0.8503937007874016
        },
        {
          "duration": 1,
          "durationTicks": 960,
          "midi": 36,
          "name": "C2",
          "ticks": 34560,
          "time": 36,
          "velocity": 0.8503937007874016
        },
        {
          "duration": 1,
          "durationTicks": 960,
          "midi": 36,
          "name": "C2",
          "ticks": 35520,
          "time": 37,
          "velocity": 0.8503937007874016
        },
        {
          "duration": 1,
          "durationTicks": 960,
          "midi": 36,
          "name": "C2",
          "ticks": 36480,
          "time": 38,
          "velocity": 0.8503937007874016
        },
        {
          "duration": 1,
          "durationTicks": 960,
          "midi": 36,
          "name": "C2",
          "ticks": 37440,
          "time": 39,
          "velocity": 0.8503937007874016
        },
        {
          "duration": 1,
          "durationTicks": 960,
          "midi": 36,
          "name": "C2",
          "ticks": 38400,
          "time": 40,
          "velocity": 0.8503937007874016
        },
        {
          "duration": 1,
          "durationTicks": 960,
          "midi": 36,
          "name": "C2",
          "ticks": 39360,
          "time": 41,
          "velocity": 0.8503937007874016
        },
        {
          "duration": 0.59375,
          "durationTicks": 570,
          "midi": 36,
          "name": "C2",
          "ticks": 40320,
          "time": 42,
          "velocity": 0.8503937007874016
        },
        {
          "duration": 0.59375,
          "durationTicks": 570,
          "midi": 36,
          "name": "C2",
          "ticks": 40800,
          "time": 42.5,
          "velocity": 0.8503937007874016
        },
        {
          "duration": 0.59375,
          "durationTicks": 570,
          "midi": 36,
          "name": "C2",
          "ticks": 41280,
          "time": 43,
          "velocity": 0.8503937007874016
        },
        {
          "duration": 0.59375,
          "durationTicks": 570,
          "midi": 36,
          "name": "C2",
          "ticks": 41760,
          "time": 43.5,
          "velocity": 0.8503937007874016
        },
        {
          "duration": 0.59375,
          "durationTicks": 570,
          "midi": 36,
          "name": "C2",
          "ticks": 42240,
          "time": 44,
          "velocity": 0.8503937007874016
        },
        {
          "duration": 0.59375,
          "durationTicks": 570,
          "midi": 36,
          "name": "C2",
          "ticks": 42720,
          "time": 44.5,
          "velocity": 0.8503937007874016
        },
        {
          "duration": 0.59375,
          "durationTicks": 570,
          "midi": 36,
          "name": "C2",
          "ticks": 43200,
          "time": 45,
          "velocity": 0.8503937007874016
        },
        {
          "duration": 0.59375,
          "durationTicks": 570,
          "midi": 36,
          "name": "C2",
          "ticks": 43680,
          "time": 45.5,
          "velocity": 0.8503937007874016
        },
        {
          "duration": 0.59375,
          "durationTicks": 570,
          "midi": 36,
          "name": "C2",
          "ticks": 44160,
          "time": 46,
          "velocity": 0.8503937007874016
        },
        {
          "duration": 0.59375,
          "durationTicks": 570,
          "midi": 36,
          "name": "C2",
          "ticks": 44640,
          "time": 46.5,
          "velocity": 0.8503937007874016
        },
        {
          "duration": 0.59375,
          "durationTicks": 570,
          "midi": 36,
          "name": "C2",
          "ticks": 45120,
          "time": 47,
          "velocity": 0.8503937007874016
        },
        {
          "duration": 0.59375,
          "durationTicks": 570,
          "midi": 36,
          "name": "C2",
          "ticks": 45600,
          "time": 47.5,
          "velocity": 0.8503937007874016
        },
        {
          "duration": 0.59375,
          "durationTicks": 570,
          "midi": 36,
          "name": "C2",
          "ticks": 46080,
          "time": 48,
          "velocity": 0.8503937007874016
        },
        {
          "duration": 0.59375,
          "durationTicks": 570,
          "midi": 36,
          "name": "C2",
          "ticks": 46560,
          "time": 48.5,
          "velocity": 0.8503937007874016
        },
        {
          "duration": 0.59375,
          "durationTicks": 570,
          "midi": 36,
          "name": "C2",
          "ticks": 47040,
          "time": 49,
          "velocity": 0.8503937007874016
        }
      ],
      "endOfTrackTicks": 47610
    },
    {
      "channel": 0,
      "controlChanges": {},
      "pitchBends": [],
      "instrument": {
        "family": "piano",
        "name": "acoustic grand piano",
        "number": 0
      },
      "name": "kick b2",
      "notes": [
        {
          "duration": 0.4906250000000014,
          "durationTicks": 471,
          "midi": 36,
          "name": "C2",
          "ticks": 32640,
          "time": 34,
          "velocity": 0.9212598425196851
        },
        {
          "duration": 0.5,
          "durationTicks": 480,
          "midi": 36,
          "name": "C2",
          "ticks": 33120,
          "time": 34.5,
          "velocity": 0.9212598425196851
        },
        {
          "duration": 0.4906250000000014,
          "durationTicks": 471,
          "midi": 36,
          "name": "C2",
          "ticks": 33600,
          "time": 35,
          "velocity": 0.9212598425196851
        },
        {
          "duration": 0.5,
          "durationTicks": 480,
          "midi": 36,
          "name": "C2",
          "ticks": 34080,
          "time": 35.5,
          "velocity": 0.9212598425196851
        },
        {
          "duration": 0.4906250000000014,
          "durationTicks": 471,
          "midi": 36,
          "name": "C2",
          "ticks": 34560,
          "time": 36,
          "velocity": 0.9212598425196851
        },
        {
          "duration": 0.5,
          "durationTicks": 480,
          "midi": 36,
          "name": "C2",
          "ticks": 35040,
          "time": 36.5,
          "velocity": 0.9212598425196851
        },
        {
          "duration": 0.4906250000000014,
          "durationTicks": 471,
          "midi": 36,
          "name": "C2",
          "ticks": 35520,
          "time": 37,
          "velocity": 0.9212598425196851
        },
        {
          "duration": 0.5,
          "durationTicks": 480,
          "midi": 36,
          "name": "C2",
          "ticks": 36000,
          "time": 37.5,
          "velocity": 0.9212598425196851
        },
        {
          "duration": 0.4906250000000014,
          "durationTicks": 471,
          "midi": 36,
          "name": "C2",
          "ticks": 36480,
          "time": 38,
          "velocity": 0.9212598425196851
        },
        {
          "duration": 0.5,
          "durationTicks": 480,
          "midi": 36,
          "name": "C2",
          "ticks": 36960,
          "time": 38.5,
          "velocity": 0.9212598425196851
        },
        {
          "duration": 0.4906250000000014,
          "durationTicks": 471,
          "midi": 36,
          "name": "C2",
          "ticks": 37440,
          "time": 39,
          "velocity": 0.9212598425196851
        },
        {
          "duration": 0.5,
          "durationTicks": 480,
          "midi": 36,
          "name": "C2",
          "ticks": 37920,
          "time": 39.5,
          "velocity": 0.9212598425196851
        },
        {
          "duration": 0.4906250000000014,
          "durationTicks": 471,
          "midi": 36,
          "name": "C2",
          "ticks": 38400,
          "time": 40,
          "velocity": 0.9212598425196851
        },
        {
          "duration": 0.5,
          "durationTicks": 480,
          "midi": 36,
          "name": "C2",
          "ticks": 38880,
          "time": 40.5,
          "velocity": 0.9212598425196851
        },
        {
          "duration": 0.4906250000000014,
          "durationTicks": 471,
          "midi": 36,
          "name": "C2",
          "ticks": 39360,
          "time": 41,
          "velocity": 0.9212598425196851
        },
        {
          "duration": 0.4906250000000014,
          "durationTicks": 471,
          "midi": 36,
          "name": "C2",
          "ticks": 40320,
          "time": 42,
          "velocity": 0.9212598425196851
        },
        {
          "duration": 0.5,
          "durationTicks": 480,
          "midi": 36,
          "name": "C2",
          "ticks": 40800,
          "time": 42.5,
          "velocity": 0.9212598425196851
        },
        {
          "duration": 0.4906250000000014,
          "durationTicks": 471,
          "midi": 36,
          "name": "C2",
          "ticks": 41280,
          "time": 43,
          "velocity": 0.9212598425196851
        },
        {
          "duration": 0.5,
          "durationTicks": 480,
          "midi": 36,
          "name": "C2",
          "ticks": 41760,
          "time": 43.5,
          "velocity": 0.9212598425196851
        },
        {
          "duration": 0.4906250000000014,
          "durationTicks": 471,
          "midi": 36,
          "name": "C2",
          "ticks": 42240,
          "time": 44,
          "velocity": 0.9212598425196851
        },
        {
          "duration": 0.5,
          "durationTicks": 480,
          "midi": 36,
          "name": "C2",
          "ticks": 42720,
          "time": 44.5,
          "velocity": 0.9212598425196851
        },
        {
          "duration": 0.4906250000000014,
          "durationTicks": 471,
          "midi": 36,
          "name": "C2",
          "ticks": 43200,
          "time": 45,
          "velocity": 0.9212598425196851
        },
        {
          "duration": 0.5,
          "durationTicks": 480,
          "midi": 36,
          "name": "C2",
          "ticks": 43680,
          "time": 45.5,
          "velocity": 0.9212598425196851
        },
        {
          "duration": 0.4906250000000014,
          "durationTicks": 471,
          "midi": 36,
          "name": "C2",
          "ticks": 44160,
          "time": 46,
          "velocity": 0.9212598425196851
        },
        {
          "duration": 0.5,
          "durationTicks": 480,
          "midi": 36,
          "name": "C2",
          "ticks": 44640,
          "time": 46.5,
          "velocity": 0.9212598425196851
        },
        {
          "duration": 0.4906250000000014,
          "durationTicks": 471,
          "midi": 36,
          "name": "C2",
          "ticks": 45120,
          "time": 47,
          "velocity": 0.9212598425196851
        },
        {
          "duration": 0.5,
          "durationTicks": 480,
          "midi": 36,
          "name": "C2",
          "ticks": 45600,
          "time": 47.5,
          "velocity": 0.9212598425196851
        },
        {
          "duration": 0.4906250000000014,
          "durationTicks": 471,
          "midi": 36,
          "name": "C2",
          "ticks": 46080,
          "time": 48,
          "velocity": 0.9212598425196851
        },
        {
          "duration": 0.5,
          "durationTicks": 480,
          "midi": 36,
          "name": "C2",
          "ticks": 46560,
          "time": 48.5,
          "velocity": 0.9212598425196851
        },
        {
          "duration": 0.4906250000000014,
          "durationTicks": 471,
          "midi": 36,
          "name": "C2",
          "ticks": 47040,
          "time": 49,
          "velocity": 0.9212598425196851
        }
      ],
      "endOfTrackTicks": 47511
    },
    {
      "channel": 0,
      "controlChanges": {},
      "pitchBends": [],
      "instrument": {
        "family": "piano",
        "name": "acoustic grand piano",
        "number": 0
      },
      "name": "snare 1",
      "notes": [
        {
          "duration": 0.10312499999999858,
          "durationTicks": 99,
          "midi": 40,
          "name": "E2",
          "ticks": 31940,
          "time": 33.270833333333336,
          "velocity": 0.8031496062992126
        },
        {
          "duration": 0.0989583333333357,
          "durationTicks": 95,
          "midi": 40,
          "name": "E2",
          "ticks": 32185,
          "time": 33.526041666666664,
          "velocity": 0.7322834645669292
        },
        {
          "duration": 0.2708333333333357,
          "durationTicks": 260,
          "midi": 40,
          "name": "E2",
          "ticks": 32418,
          "time": 33.76875,
          "velocity": 0.8031496062992126
        },
        {
          "duration": 0.5,
          "durationTicks": 480,
          "midi": 40,
          "name": "E2",
          "ticks": 33120,
          "time": 34.5,
          "velocity": 0.9212598425196851
        },
        {
          "duration": 0.5,
          "durationTicks": 480,
          "midi": 40,
          "name": "E2",
          "ticks": 34080,
          "time": 35.5,
          "velocity": 0.9212598425196851
        },
        {
          "duration": 0.5,
          "durationTicks": 480,
          "midi": 40,
          "name": "E2",
          "ticks": 35040,
          "time": 36.5,
          "velocity": 0.9212598425196851
        },
        {
          "duration": 0.5,
          "durationTicks": 480,
          "midi": 40,
          "name": "E2",
          "ticks": 36000,
          "time": 37.5,
          "velocity": 0.9212598425196851
        },
        {
          "duration": 0.5,
          "durationTicks": 480,
          "midi": 40,
          "name": "E2",
          "ticks": 36960,
          "time": 38.5,
          "velocity": 0.9212598425196851
        },
        {
          "duration": 0.5,
          "durationTicks": 480,
          "midi": 40,
          "name": "E2",
          "ticks": 37920,
          "time": 39.5,
          "velocity": 0.9212598425196851
        },
        {
          "duration": 0.5,
          "durationTicks": 480,
          "midi": 40,
          "name": "E2",
          "ticks": 38880,
          "time": 40.5,
          "velocity": 0.9212598425196851
        },
        {
          "duration": 0.5,
          "durationTicks": 480,
          "midi": 40,
          "name": "E2",
          "ticks": 40800,
          "time": 42.5,
          "velocity": 0.9212598425196851
        },
        {
          "duration": 0.5,
          "durationTicks": 480,
          "midi": 40,
          "name": "E2",
          "ticks": 41760,
          "time": 43.5,
          "velocity": 0.9212598425196851
        },
        {
          "duration": 0.5,
          "durationTicks": 480,
          "midi": 40,
          "name": "E2",
          "ticks": 42720,
          "time": 44.5,
          "velocity": 0.9212598425196851
        },
        {
          "duration": 0.5,
          "durationTicks": 480,
          "midi": 40,
          "name": "E2",
          "ticks": 43680,
          "time": 45.5,
          "velocity": 0.9212598425196851
        },
        {
          "duration": 0.5,
          "durationTicks": 480,
          "midi": 40,
          "name": "E2",
          "ticks": 44640,
          "time": 46.5,
          "velocity": 0.9212598425196851
        },
        {
          "duration": 0.5,
          "durationTicks": 480,
          "midi": 40,
          "name": "E2",
          "ticks": 45600,
          "time": 47.5,
          "velocity": 0.9212598425196851
        },
        {
          "duration": 0.5,
          "durationTicks": 480,
          "midi": 40,
          "name": "E2",
          "ticks": 46560,
          "time": 48.5,
          "velocity": 0.9212598425196851
        }
      ],
      "endOfTrackTicks": 47040
    },
    {
      "channel": 0,
      "controlChanges": {},
      "pitchBends": [],
      "instrument": {
        "family": "piano",
        "name": "acoustic grand piano",
        "number": 0
      },
      "name": "cowbell",
      "notes": [
        {
          "duration": 9,
          "durationTicks": 8640,
          "midi": 82,
          "name": "A#5",
          "ticks": 40320,
          "time": 42,
          "velocity": 0.9606299212598425
        }
      ],
      "endOfTrackTicks": 48960
    },
    {
      "channel": 0,
      "controlChanges": {},
      "pitchBends": [],
      "instrument": {
        "family": "piano",
        "name": "acoustic grand piano",
        "number": 0
      },
      "name": "cowbell",
      "notes": [
        {
          "duration": 0.5,
          "durationTicks": 480,
          "midi": 56,
          "name": "G#3",
          "ticks": 40320,
          "time": 42,
          "velocity": 0.9212598425196851
        },
        {
          "duration": 0.5,
          "durationTicks": 480,
          "midi": 56,
          "name": "G#3",
          "ticks": 40800,
          "time": 42.5,
          "velocity": 0.9212598425196851
        },
        {
          "duration": 0.5,
          "durationTicks": 480,
          "midi": 56,
          "name": "G#3",
          "ticks": 41280,
          "time": 43,
          "velocity": 0.9212598425196851
        },
        {
          "duration": 0.5,
          "durationTicks": 480,
          "midi": 56,
          "name": "G#3",
          "ticks": 41760,
          "time": 43.5,
          "velocity": 0.9212598425196851
        },
        {
          "duration": 0.5,
          "durationTicks": 480,
          "midi": 56,
          "name": "G#3",
          "ticks": 42240,
          "time": 44,
          "velocity": 0.9212598425196851
        },
        {
          "duration": 0.5,
          "durationTicks": 480,
          "midi": 56,
          "name": "G#3",
          "ticks": 42720,
          "time": 44.5,
          "velocity": 0.9212598425196851
        },
        {
          "duration": 0.5,
          "durationTicks": 480,
          "midi": 56,
          "name": "G#3",
          "ticks": 43200,
          "time": 45,
          "velocity": 0.9212598425196851
        },
        {
          "duration": 0.5,
          "durationTicks": 480,
          "midi": 56,
          "name": "G#3",
          "ticks": 43680,
          "time": 45.5,
          "velocity": 0.9212598425196851
        },
        {
          "duration": 0.5,
          "durationTicks": 480,
          "midi": 56,
          "name": "G#3",
          "ticks": 44160,
          "time": 46,
          "velocity": 0.9212598425196851
        },
        {
          "duration": 0.5,
          "durationTicks": 480,
          "midi": 56,
          "name": "G#3",
          "ticks": 44640,
          "time": 46.5,
          "velocity": 0.9212598425196851
        },
        {
          "duration": 0.5,
          "durationTicks": 480,
          "midi": 56,
          "name": "G#3",
          "ticks": 45120,
          "time": 47,
          "velocity": 0.9212598425196851
        },
        {
          "duration": 0.5,
          "durationTicks": 480,
          "midi": 56,
          "name": "G#3",
          "ticks": 45600,
          "time": 47.5,
          "velocity": 0.9212598425196851
        },
        {
          "duration": 0.5,
          "durationTicks": 480,
          "midi": 56,
          "name": "G#3",
          "ticks": 46080,
          "time": 48,
          "velocity": 0.9212598425196851
        },
        {
          "duration": 0.5,
          "durationTicks": 480,
          "midi": 56,
          "name": "G#3",
          "ticks": 46560,
          "time": 48.5,
          "velocity": 0.9212598425196851
        },
        {
          "duration": 0.5,
          "durationTicks": 480,
          "midi": 56,
          "name": "G#3",
          "ticks": 47040,
          "time": 49,
          "velocity": 0.9212598425196851
        }
      ],
      "endOfTrackTicks": 47520
    },
    {
      "channel": 0,
      "controlChanges": {},
      "pitchBends": [],
      "instrument": {
        "family": "piano",
        "name": "acoustic grand piano",
        "number": 0
      },
      "name": "crash fin reverb",
      "notes": [
        {
          "duration": 9,
          "durationTicks": 8640,
          "midi": 82,
          "name": "A#5",
          "ticks": 47040,
          "time": 49,
          "velocity": 0.9606299212598425
        }
      ],
      "endOfTrackTicks": 55680
    },
    {
      "channel": 0,
      "controlChanges": {},
      "pitchBends": [],
      "instrument": {
        "family": "piano",
        "name": "acoustic grand piano",
        "number": 0
      },
      "name": "piano melo",
      "notes": [
        {
          "duration": 9,
          "durationTicks": 8640,
          "midi": 82,
          "name": "A#5",
          "ticks": 32640,
          "time": 34,
          "velocity": 0.9606299212598425
        },
        {
          "duration": 9,
          "durationTicks": 8640,
          "midi": 82,
          "name": "A#5",
          "ticks": 40320,
          "time": 42,
          "velocity": 0.9606299212598425
        }
      ],
      "endOfTrackTicks": 48960
    },
    {
      "channel": 0,
      "controlChanges": {},
      "pitchBends": [],
      "instrument": {
        "family": "piano",
        "name": "acoustic grand piano",
        "number": 0
      },
      "name": "mains libres",
      "notes": [
        {
          "duration": 9,
          "durationTicks": 8640,
          "midi": 82,
          "name": "A#5",
          "ticks": 30720,
          "time": 32,
          "velocity": 0.9606299212598425
        },
        {
          "duration": 17.5,
          "durationTicks": 16800,
          "midi": 82,
          "name": "A#5",
          "ticks": 40320,
          "time": 42,
          "velocity": 0.9606299212598425
        }
      ],
      "endOfTrackTicks": 57120
    },
    {
      "channel": 0,
      "controlChanges": {},
      "pitchBends": [],
      "instrument": {
        "family": "piano",
        "name": "acoustic grand piano",
        "number": 0
      },
      "name": "beat leger",
      "notes": [
        {
          "duration": 9,
          "durationTicks": 8640,
          "midi": 82,
          "name": "A#5",
          "ticks": 32640,
          "time": 34,
          "velocity": 0.9606299212598425
        },
        {
          "duration": 9,
          "durationTicks": 8640,
          "midi": 82,
          "name": "A#5",
          "ticks": 40320,
          "time": 42,
          "velocity": 0.9606299212598425
        }
      ],
      "endOfTrackTicks": 48960
    },
    {
      "channel": 0,
      "controlChanges": {},
      "pitchBends": [],
      "instrument": {
        "family": "piano",
        "name": "acoustic grand piano",
        "number": 0
      },
      "name": "sms",
      "notes": [
        {
          "duration": 9,
          "durationTicks": 8640,
          "midi": 82,
          "name": "A#5",
          "ticks": 39840,
          "time": 41.5,
          "velocity": 0.9606299212598425
        }
      ],
      "endOfTrackTicks": 48480
    },
    {
      "channel": 0,
      "controlChanges": {},
      "pitchBends": [],
      "instrument": {
        "family": "piano",
        "name": "acoustic grand piano",
        "number": 0
      },
      "name": "drum impro",
      "notes": [
        {
          "duration": 9,
          "durationTicks": 8640,
          "midi": 82,
          "name": "A#5",
          "ticks": 40320,
          "time": 42,
          "velocity": 0.9606299212598425
        }
      ],
      "endOfTrackTicks": 48960
    },
    {
      "channel": 0,
      "controlChanges": {},
      "pitchBends": [],
      "instrument": {
        "family": "piano",
        "name": "acoustic grand piano",
        "number": 0
      },
      "name": "snare fin",
      "notes": [
        {
          "duration": 1.1458333333333357,
          "durationTicks": 1100,
          "midi": 38,
          "name": "D2",
          "ticks": 46080,
          "time": 48,
          "velocity": 0.6377952755905512
        }
      ],
      "endOfTrackTicks": 47400
    }
  ]
}