{
  "header": {
    "keySignatures": [
      {
        "key": "C",
        "scale": "major",
        "ticks": 0
      }
    ],
    "meta": [
      {
        "text": "Marqueur ##",
        "ticks": 26880,
        "type": "marker"
      }
    ],
    "name": "",
    "ppq": 480,
    "tempos": [
      {
        "bpm": 120,
        "ticks": 0
      }
    ],
    "timeSignatures": [
      {
        "ticks": 0,
        "timeSignature": [
          4,
          4
        ],
        "measures": 0
      }
    ]
  },
  "tracks": [
    {
      "channel": 0,
      "controlChanges": {},
      "pitchBends": [],
      "instrument": {
        "family": "piano",
        "name": "acoustic grand piano",
        "number": 0
      },
      "name": "Claypot Percussion 01",
      "notes": [
        {
          "duration": 4,
          "durationTicks": 3840,
          "midi": 76,
          "name": "E5",
          "ticks": 0,
          "time": 0,
          "velocity": 0.9448818897637795
        }
      ],
      "endOfTrackTicks": 3840
    },
    {
      "channel": 0,
      "controlChanges": {},
      "pitchBends": [],
      "instrument": {
        "family": "piano",
        "name": "acoustic grand piano",
        "number": 0
      },
      "name": "Claypot Percussion 01",
      "notes": [
        {
          "duration": 2,
          "durationTicks": 1920,
          "midi": 77,
          "name": "F5",
          "ticks": 3840,
          "time": 4,
          "velocity": 0.9448818897637795
        }
      ],
      "endOfTrackTicks": 5760
    },
    {
      "channel": 0,
      "controlChanges": {},
      "pitchBends": [],
      "instrument": {
        "family": "piano",
        "name": "acoustic grand piano",
        "number": 0
      },
      "name": "Claypot Percussion 01",
      "notes": [
        {
          "duration": 2,
          "durationTicks": 1920,
          "midi": 77,
          "name": "F5",
          "ticks": 5760,
          "time": 6,
          "velocity": 0.9448818897637795
        }
      ],
      "endOfTrackTicks": 7680
    },
    {
      "channel": 0,
      "controlChanges": {},
      "pitchBends": [],
      "instrument": {
        "family": "piano",
        "name": "acoustic grand piano",
        "number": 0
      },
      "name": "Claypot Percussion 01",
      "notes": [
        {
          "duration": 2,
          "durationTicks": 1920,
          "midi": 77,
          "name": "F5",
          "ticks": 7680,
          "time": 8,
          "velocity": 0.9448818897637795
        }
      ],
      "endOfTrackTicks": 9600
    },
    {
      "channel": 0,
      "controlChanges": {},
      "pitchBends": [],
      "instrument": {
        "family": "piano",
        "name": "acoustic grand piano",
        "number": 0
      },
      "name": "Claypot Percussion 01",
      "notes": [
        {
          "duration": 2,
          "durationTicks": 1920,
          "midi": 77,
          "name": "F5",
          "ticks": 9600,
          "time": 10,
          "velocity": 0.9448818897637795
        }
      ],
      "endOfTrackTicks": 11520
    },
    {
      "channel": 0,
      "controlChanges": {},
      "pitchBends": [],
      "instrument": {
        "family": "piano",
        "name": "acoustic grand piano",
        "number": 0
      },
      "name": "Claypot Percussion 01",
      "notes": [
        {
          "duration": 2,
          "durationTicks": 1920,
          "midi": 77,
          "name": "F5",
          "ticks": 11520,
          "time": 12,
          "velocity": 0.9448818897637795
        }
      ],
      "endOfTrackTicks": 13440
    },
    {
      "channel": 0,
      "controlChanges": {},
      "pitchBends": [],
      "instrument": {
        "family": "piano",
        "name": "acoustic grand piano",
        "number": 0
      },
      "name": "Claypot Percussion 01",
      "notes": [
        {
          "duration": 2,
          "durationTicks": 1920,
          "midi": 77,
          "name": "F5",
          "ticks": 13440,
          "time": 14,
          "velocity": 0.9448818897637795
        }
      ],
      "endOfTrackTicks": 15360
    },
    {
      "channel": 0,
      "controlChanges": {},
      "pitchBends": [],
      "instrument": {
        "family": "piano",
        "name": "acoustic grand piano",
        "number": 0
      },
      "name": "Claypot Percussion 01",
      "notes": [
        {
          "duration": 2,
          "durationTicks": 1920,
          "midi": 77,
          "name": "F5",
          "ticks": 15360,
          "time": 16,
          "velocity": 0.9448818897637795
        }
      ],
      "endOfTrackTicks": 17280
    },
    {
      "channel": 0,
      "controlChanges": {},
      "pitchBends": [],
      "instrument": {
        "family": "piano",
        "name": "acoustic grand piano",
        "number": 0
      },
      "name": "Claypot Percussion 01",
      "notes": [
        {
          "duration": 2,
          "durationTicks": 1920,
          "midi": 77,
          "name": "F5",
          "ticks": 17280,
          "time": 18,
          "velocity": 0.9448818897637795
        }
      ],
      "endOfTrackTicks": 19200
    },
    {
      "channel": 0,
      "controlChanges": {},
      "pitchBends": [],
      "instrument": {
        "family": "piano",
        "name": "acoustic grand piano",
        "number": 0
      },
      "name": "Claypot Percussion 01",
      "notes": [
        {
          "duration": 2,
          "durationTicks": 1920,
          "midi": 77,
          "name": "F5",
          "ticks": 19200,
          "time": 20,
          "velocity": 0.9448818897637795
        }
      ],
      "endOfTrackTicks": 21120
    },
    {
      "channel": 0,
      "controlChanges": {},
      "pitchBends": [],
      "instrument": {
        "family": "piano",
        "name": "acoustic grand piano",
        "number": 0
      },
      "name": "Claypot Percussion 01",
      "notes": [
        {
          "duration": 2,
          "durationTicks": 1920,
          "midi": 77,
          "name": "F5",
          "ticks": 21120,
          "time": 22,
          "velocity": 0.9448818897637795
        }
      ],
      "endOfTrackTicks": 23040
    },
    {
      "channel": 0,
      "controlChanges": {},
      "pitchBends": [],
      "instrument": {
        "family": "piano",
        "name": "acoustic grand piano",
        "number": 0
      },
      "name": "Claypot Percussion 01",
      "notes": [
        {
          "duration": 2,
          "durationTicks": 1920,
          "midi": 77,
          "name": "F5",
          "ticks": 23040,
          "time": 24,
          "velocity": 0.9448818897637795
        }
      ],
      "endOfTrackTicks": 24960
    },
    {
      "channel": 0,
      "controlChanges": {},
      "pitchBends": [],
      "instrument": {
        "family": "piano",
        "name": "acoustic grand piano",
        "number": 0
      },
      "name": "Claypot Percussion 01",
      "notes": [
        {
          "duration": 2,
          "durationTicks": 1920,
          "midi": 77,
          "name": "F5",
          "ticks": 24960,
          "time": 26,
          "velocity": 0.9448818897637795
        }
      ],
      "endOfTrackTicks": 26880
    },
    {
      "channel": 0,
      "controlChanges": {},
      "pitchBends": [],
      "instrument": {
        "family": "piano",
        "name": "acoustic grand piano",
        "number": 0
      },
      "name": "Claypot Percussion 01",
      "notes": [
        {
          "duration": 2,
          "durationTicks": 1920,
          "midi": 77,
          "name": "F5",
          "ticks": 26880,
          "time": 28,
          "velocity": 0.9448818897637795
        }
      ],
      "endOfTrackTicks": 28800
    },
    {
      "channel": 0,
      "controlChanges": {},
      "pitchBends": [],
      "instrument": {
        "family": "piano",
        "name": "acoustic grand piano",
        "number": 0
      },
      "name": "Claypot Percussion 01",
      "notes": [
        {
          "duration": 2,
          "durationTicks": 1920,
          "midi": 77,
          "name": "F5",
          "ticks": 28800,
          "time": 30,
          "velocity": 0.9448818897637795
        }
      ],
      "endOfTrackTicks": 30720
    },
    {
      "channel": 0,
      "controlChanges": {},
      "pitchBends": [],
      "instrument": {
        "family": "piano",
        "name": "acoustic grand piano",
        "number": 0
      },
      "name": "Claypot Percussion 01",
      "notes": [
        {
          "duration": 2,
          "durationTicks": 1920,
          "midi": 77,
          "name": "F5",
          "ticks": 30720,
          "time": 32,
          "velocity": 0.9448818897637795
        }
      ],
      "endOfTrackTicks": 32640
    },
    {
      "channel": 0,
      "controlChanges": {},
      "pitchBends": [],
      "instrument": {
        "family": "piano",
        "name": "acoustic grand piano",
        "number": 0
      },
      "name": "Claypot Percussion 01",
      "notes": [
        {
          "duration": 2,
          "durationTicks": 1920,
          "midi": 77,
          "name": "F5",
          "ticks": 32640,
          "time": 34,
          "velocity": 0.9448818897637795
        }
      ],
      "endOfTrackTicks": 34560
    },
    {
      "channel": 0,
      "controlChanges": {},
      "pitchBends": [],
      "instrument": {
        "family": "piano",
        "name": "acoustic grand piano",
        "number": 0
      },
      "name": "Claypot Percussion 01",
      "notes": [
        {
          "duration": 2,
          "durationTicks": 1920,
          "midi": 77,
          "name": "F5",
          "ticks": 34560,
          "time": 36,
          "velocity": 0.9448818897637795
        }
      ],
      "endOfTrackTicks": 36480
    },
    {
      "channel": 0,
      "controlChanges": {},
      "pitchBends": [],
      "instrument": {
        "family": "piano",
        "name": "acoustic grand piano",
        "number": 0
      },
      "name": "Claypot Percussion 01",
      "notes": [
        {
          "duration": 2,
          "durationTicks": 1920,
          "midi": 77,
          "name": "F5",
          "ticks": 36480,
          "time": 38,
          "velocity": 0.9448818897637795
        }
      ],
      "endOfTrackTicks": 38400
    },
    {
      "channel": 0,
      "controlChanges": {},
      "pitchBends": [],
      "instrument": {
        "family": "piano",
        "name": "acoustic grand piano",
        "number": 0
      },
      "name": "Claypot Percussion 01",
      "notes": [
        {
          "duration": 2,
          "durationTicks": 1920,
          "midi": 77,
          "name": "F5",
          "ticks": 38400,
          "time": 40,
          "velocity": 0.9448818897637795
        }
      ],
      "endOfTrackTicks": 40320
    },
    {
      "channel": 0,
      "controlChanges": {},
      "pitchBends": [],
      "instrument": {
        "family": "piano",
        "name": "acoustic grand piano",
        "number": 0
      },
      "name": "Claypot Percussion 01",
      "notes": [
        {
          "duration": 0.1666666666666643,
          "durationTicks": 160,
          "midi": 77,
          "name": "F5",
          "ticks": 40320,
          "time": 42,
          "velocity": 0.9448818897637795
        },
        {
          "duration": 0.1666666666666643,
          "durationTicks": 160,
          "midi": 77,
          "name": "F5",
          "ticks": 40800,
          "time": 42.5,
          "velocity": 0.9448818897637795
        },
        {
          "duration": 0.1666666666666643,
          "durationTicks": 160,
          "midi": 77,
          "name": "F5",
          "ticks": 41280,
          "time": 43,
          "velocity": 0.9448818897637795
        },
        {
          "duration": 0.1666666666666643,
          "durationTicks": 160,
          "midi": 77,
          "name": "F5",
          "ticks": 41760,
          "time": 43.5,
          "velocity": 0.9448818897637795
        }
      ],
      "endOfTrackTicks": 42240
    },
    {
      "channel": 0,
      "controlChanges": {},
      "pitchBends": [],
      "instrument": {
        "family": "piano",
        "name": "acoustic grand piano",
        "number": 0
      },
      "name": "Claypot Percussion 01",
      "notes": [
        {
          "duration": 0.1666666666666643,
          "durationTicks": 160,
          "midi": 77,
          "name": "F5",
          "ticks": 42240,
          "time": 44,
          "velocity": 0.9448818897637795
        },
        {
          "duration": 0.1666666666666643,
          "durationTicks": 160,
          "midi": 77,
          "name": "F5",
          "ticks": 42720,
          "time": 44.5,
          "velocity": 0.9448818897637795
        },
        {
          "duration": 0.1666666666666643,
          "durationTicks": 160,
          "midi": 77,
          "name": "F5",
          "ticks": 43200,
          "time": 45,
          "velocity": 0.9448818897637795
        },
        {
          "duration": 0.1666666666666643,
          "durationTicks": 160,
          "midi": 77,
          "name": "F5",
          "ticks": 43680,
          "time": 45.5,
          "velocity": 0.9448818897637795
        }
      ],
      "endOfTrackTicks": 43840
    },
    {
      "channel": 0,
      "controlChanges": {},
      "pitchBends": [],
      "instrument": {
        "family": "piano",
        "name": "acoustic grand piano",
        "number": 0
      },
      "name": "Claypot Percussion 01",
      "notes": [
        {
          "duration": 0.1666666666666643,
          "durationTicks": 160,
          "midi": 77,
          "name": "F5",
          "ticks": 44160,
          "time": 46,
          "velocity": 0.9448818897637795
        },
        {
          "duration": 0.1666666666666643,
          "durationTicks": 160,
          "midi": 77,
          "name": "F5",
          "ticks": 44640,
          "time": 46.5,
          "velocity": 0.9448818897637795
        },
        {
          "duration": 0.1666666666666643,
          "durationTicks": 160,
          "midi": 77,
          "name": "F5",
          "ticks": 45120,
          "time": 47,
          "velocity": 0.9448818897637795
        },
        {
          "duration": 0.1666666666666643,
          "durationTicks": 160,
          "midi": 77,
          "name": "F5",
          "ticks": 45600,
          "time": 47.5,
          "velocity": 0.9448818897637795
        }
      ],
      "endOfTrackTicks": 45760
    },
    {
      "channel": 0,
      "controlChanges": {},
      "pitchBends": [],
      "instrument": {
        "family": "piano",
        "name": "acoustic grand piano",
        "number": 0
      },
      "name": "Claypot Percussion 01",
      "notes": [
        {
          "duration": 0.1666666666666643,
          "durationTicks": 160,
          "midi": 77,
          "name": "F5",
          "ticks": 46080,
          "time": 48,
          "velocity": 0.9448818897637795
        },
        {
          "duration": 0.1666666666666643,
          "durationTicks": 160,
          "midi": 77,
          "name": "F5",
          "ticks": 46560,
          "time": 48.5,
          "velocity": 0.9448818897637795
        },
        {
          "duration": 0.1666666666666643,
          "durationTicks": 160,
          "midi": 77,
          "name": "F5",
          "ticks": 47040,
          "time": 49,
          "velocity": 0.9448818897637795
        },
        {
          "duration": 0.1666666666666643,
          "durationTicks": 160,
          "midi": 77,
          "name": "F5",
          "ticks": 47520,
          "time": 49.5,
          "velocity": 0.9448818897637795
        }
      ],
      "endOfTrackTicks": 47680
    },
    {
      "channel": 0,
      "controlChanges": {},
      "pitchBends": [],
      "instrument": {
        "family": "piano",
        "name": "acoustic grand piano",
        "number": 0
      },
      "name": "Membrane",
      "notes": [
        {
          "duration": 2,
          "durationTicks": 1920,
          "midi": 55,
          "name": "G3",
          "ticks": 9600,
          "time": 10,
          "velocity": 0.9212598425196851
        },
        {
          "duration": 0.2624999999999993,
          "durationTicks": 252,
          "midi": 55,
          "name": "G3",
          "ticks": 11520,
          "time": 12,
          "velocity": 0.9212598425196851
        },
        {
          "duration": 0.12083333333333357,
          "durationTicks": 116,
          "midi": 55,
          "name": "G3",
          "ticks": 11820,
          "time": 12.3125,
          "velocity": 0.8503937007874016
        },
        {
          "duration": 0.1437500000000007,
          "durationTicks": 138,
          "midi": 55,
          "name": "G3",
          "ticks": 12180,
          "time": 12.6875,
          "velocity": 0.9212598425196851
        },
        {
          "duration": 0.7635416666666668,
          "durationTicks": 733,
          "midi": 55,
          "name": "G3",
          "ticks": 12420,
          "time": 12.9375,
          "velocity": 0.9212598425196851
        },
        {
          "duration": 0.2489583333333325,
          "durationTicks": 239,
          "midi": 55,
          "name": "G3",
          "ticks": 13440,
          "time": 14,
          "velocity": 0.9212598425196851
        },
        {
          "duration": 0.13124999999999964,
          "durationTicks": 126,
          "midi": 55,
          "name": "G3",
          "ticks": 13800,
          "time": 14.375,
          "velocity": 0.9212598425196851
        },
        {
          "duration": 0.11770833333333286,
          "durationTicks": 113,
          "midi": 55,
          "name": "G3",
          "ticks": 14100,
          "time": 14.6875,
          "velocity": 0.9212598425196851
        },
        {
          "duration": 0.8145833333333332,
          "durationTicks": 782,
          "midi": 55,
          "name": "G3",
          "ticks": 14340,
          "time": 14.9375,
          "velocity": 0.8503937007874016
        },
        {
          "duration": 0.20833333333333215,
          "durationTicks": 200,
          "midi": 55,
          "name": "G3",
          "ticks": 15360,
          "time": 16,
          "velocity": 0.9212598425196851
        },
        {
          "duration": 0.15625,
          "durationTicks": 150,
          "midi": 55,
          "name": "G3",
          "ticks": 15720,
          "time": 16.375,
          "velocity": 0.8503937007874016
        },
        {
          "duration": 0.12916666666666643,
          "durationTicks": 124,
          "midi": 55,
          "name": "G3",
          "ticks": 16020,
          "time": 16.6875,
          "velocity": 0.9212598425196851
        },
        {
          "duration": 0.8229166666666679,
          "durationTicks": 790,
          "midi": 55,
          "name": "G3",
          "ticks": 16320,
          "time": 17,
          "velocity": 0.8503937007874016
        },
        {
          "duration": 0.25416666666666643,
          "durationTicks": 244,
          "midi": 55,
          "name": "G3",
          "ticks": 17280,
          "time": 18,
          "velocity": 0.9212598425196851
        },
        {
          "duration": 0.127083333333335,
          "durationTicks": 122,
          "midi": 55,
          "name": "G3",
          "ticks": 17640,
          "time": 18.375,
          "velocity": 0.9212598425196851
        },
        {
          "duration": 0.10624999999999929,
          "durationTicks": 102,
          "midi": 55,
          "name": "G3",
          "ticks": 18000,
          "time": 18.75,
          "velocity": 0.9212598425196851
        },
        {
          "duration": 0.7593749999999986,
          "durationTicks": 729,
          "midi": 55,
          "name": "G3",
          "ticks": 18240,
          "time": 19,
          "velocity": 0.9212598425196851
        },
        {
          "duration": 0.19791666666666785,
          "durationTicks": 190,
          "midi": 55,
          "name": "G3",
          "ticks": 19200,
          "time": 20,
          "velocity": 0.9212598425196851
        },
        {
          "duration": 0.14687500000000142,
          "durationTicks": 141,
          "midi": 55,
          "name": "G3",
          "ticks": 19560,
          "time": 20.375,
          "velocity": 0.9212598425196851
        },
        {
          "duration": 0.11666666666666714,
          "durationTicks": 112,
          "midi": 55,
          "name": "G3",
          "ticks": 19860,
          "time": 20.6875,
          "velocity": 0.9212598425196851
        },
        {
          "duration": 0.8218749999999986,
          "durationTicks": 789,
          "midi": 55,
          "name": "G3",
          "ticks": 20160,
          "time": 21,
          "velocity": 0.9212598425196851
        },
        {
          "duration": 0.252083333333335,
          "durationTicks": 242,
          "midi": 55,
          "name": "G3",
          "ticks": 21120,
          "time": 22,
          "velocity": 0.9212598425196851
        },
        {
          "duration": 0.1437500000000007,
          "durationTicks": 138,
          "midi": 55,
          "name": "G3",
          "ticks": 21480,
          "time": 22.375,
          "velocity": 0.9212598425196851
        },
        {
          "duration": 0.14479166666666643,
          "durationTicks": 139,
          "midi": 55,
          "name": "G3",
          "ticks": 21840,
          "time": 22.75,
          "velocity": 0.9212598425196851
        },
        {
          "duration": 0.7843750000000007,
          "durationTicks": 753,
          "midi": 55,
          "name": "G3",
          "ticks": 22080,
          "time": 23,
          "velocity": 0.8503937007874016
        },
        {
          "duration": 0.22812499999999858,
          "durationTicks": 219,
          "midi": 55,
          "name": "G3",
          "ticks": 23040,
          "time": 24,
          "velocity": 0.8503937007874016
        },
        {
          "duration": 0.13437499999999858,
          "durationTicks": 129,
          "midi": 55,
          "name": "G3",
          "ticks": 23400,
          "time": 24.375,
          "velocity": 0.8503937007874016
        },
        {
          "duration": 0.1281250000000007,
          "durationTicks": 123,
          "midi": 55,
          "name": "G3",
          "ticks": 23700,
          "time": 24.6875,
          "velocity": 0.9212598425196851
        },
        {
          "duration": 0.9135416666666671,
          "durationTicks": 877,
          "midi": 55,
          "name": "G3",
          "ticks": 24000,
          "time": 25,
          "velocity": 0.9212598425196851
        }
      ],
      "endOfTrackTicks": 24877
    },
    {
      "channel": 0,
      "controlChanges": {},
      "pitchBends": [],
      "instrument": {
        "family": "piano",
        "name": "acoustic grand piano",
        "number": 0
      },
      "name": "Membrane",
      "notes": [
        {
          "duration": 2,
          "durationTicks": 1920,
          "midi": 55,
          "name": "G3",
          "ticks": 11520,
          "time": 12,
          "velocity": 0.9212598425196851
        },
        {
          "duration": 0.2624999999999993,
          "durationTicks": 252,
          "midi": 55,
          "name": "G3",
          "ticks": 13440,
          "time": 14,
          "velocity": 0.9212598425196851
        },
        {
          "duration": 0.12083333333333357,
          "durationTicks": 116,
          "midi": 55,
          "name": "G3",
          "ticks": 13740,
          "time": 14.3125,
          "velocity": 0.8503937007874016
        },
        {
          "duration": 0.1437500000000007,
          "durationTicks": 138,
          "midi": 55,
          "name": "G3",
          "ticks": 14100,
          "time": 14.6875,
          "velocity": 0.9212598425196851
        },
        {
          "duration": 0.7635416666666668,
          "durationTicks": 733,
          "midi": 55,
          "name": "G3",
          "ticks": 14340,
          "time": 14.9375,
          "velocity": 0.9212598425196851
        },
        {
          "duration": 0.24895833333333428,
          "durationTicks": 239,
          "midi": 55,
          "name": "G3",
          "ticks": 15360,
          "time": 16,
          "velocity": 0.9212598425196851
        },
        {
          "duration": 0.13125000000000142,
          "durationTicks": 126,
          "midi": 55,
          "name": "G3",
          "ticks": 15720,
          "time": 16.375,
          "velocity": 0.9212598425196851
        },
        {
          "duration": 0.11770833333333286,
          "durationTicks": 113,
          "midi": 55,
          "name": "G3",
          "ticks": 16020,
          "time": 16.6875,
          "velocity": 0.9212598425196851
        },
        {
          "duration": 0.814583333333335,
          "durationTicks": 782,
          "midi": 55,
          "name": "G3",
          "ticks": 16260,
          "time": 16.9375,
          "velocity": 0.8503937007874016
        },
        {
          "duration": 0.20833333333333215,
          "durationTicks": 200,
          "midi": 55,
          "name": "G3",
          "ticks": 17280,
          "time": 18,
          "velocity": 0.9212598425196851
        },
        {
          "duration": 0.15625,
          "durationTicks": 150,
          "midi": 55,
          "name": "G3",
          "ticks": 17640,
          "time": 18.375,
          "velocity": 0.8503937007874016
        },
        {
          "duration": 0.12916666666666643,
          "durationTicks": 124,
          "midi": 55,
          "name": "G3",
          "ticks": 17940,
          "time": 18.6875,
          "velocity": 0.9212598425196851
        },
        {
          "duration": 0.8229166666666679,
          "durationTicks": 790,
          "midi": 55,
          "name": "G3",
          "ticks": 18240,
          "time": 19,
          "velocity": 0.8503937007874016
        },
        {
          "duration": 0.25416666666666643,
          "durationTicks": 244,
          "midi": 55,
          "name": "G3",
          "ticks": 19200,
          "time": 20,
          "velocity": 0.9212598425196851
        },
        {
          "duration": 0.127083333333335,
          "durationTicks": 122,
          "midi": 55,
          "name": "G3",
          "ticks": 19560,
          "time": 20.375,
          "velocity": 0.9212598425196851
        },
        {
          "duration": 0.10624999999999929,
          "durationTicks": 102,
          "midi": 55,
          "name": "G3",
          "ticks": 19920,
          "time": 20.75,
          "velocity": 0.9212598425196851
        },
        {
          "duration": 0.7593749999999986,
          "durationTicks": 729,
          "midi": 55,
          "name": "G3",
          "ticks": 20160,
          "time": 21,
          "velocity": 0.9212598425196851
        },
        {
          "duration": 0.19791666666666785,
          "durationTicks": 190,
          "midi": 55,
          "name": "G3",
          "ticks": 21120,
          "time": 22,
          "velocity": 0.9212598425196851
        },
        {
          "duration": 0.14687500000000142,
          "durationTicks": 141,
          "midi": 55,
          "name": "G3",
          "ticks": 21480,
          "time": 22.375,
          "velocity": 0.9212598425196851
        },
        {
          "duration": 0.11666666666666714,
          "durationTicks": 112,
          "midi": 55,
          "name": "G3",
          "ticks": 21780,
          "time": 22.6875,
          "velocity": 0.9212598425196851
        },
        {
          "duration": 0.8218749999999986,
          "durationTicks": 789,
          "midi": 55,
          "name": "G3",
          "ticks": 22080,
          "time": 23,
          "velocity": 0.9212598425196851
        },
        {
          "duration": 0.252083333333335,
          "durationTicks": 242,
          "midi": 55,
          "name": "G3",
          "ticks": 23040,
          "time": 24,
          "velocity": 0.9212598425196851
        },
        {
          "duration": 0.1437500000000007,
          "durationTicks": 138,
          "midi": 55,
          "name": "G3",
          "ticks": 23400,
          "time": 24.375,
          "velocity": 0.9212598425196851
        },
        {
          "duration": 0.14479166666666643,
          "durationTicks": 139,
          "midi": 55,
          "name": "G3",
          "ticks": 23760,
          "time": 24.75,
          "velocity": 0.9212598425196851
        },
        {
          "duration": 0.7843750000000007,
          "durationTicks": 753,
          "midi": 55,
          "name": "G3",
          "ticks": 24000,
          "time": 25,
          "velocity": 0.8503937007874016
        },
        {
          "duration": 0.22812499999999858,
          "durationTicks": 219,
          "midi": 55,
          "name": "G3",
          "ticks": 24960,
          "time": 26,
          "velocity": 0.8503937007874016
        },
        {
          "duration": 0.13437499999999858,
          "durationTicks": 129,
          "midi": 55,
          "name": "G3",
          "ticks": 25320,
          "time": 26.375,
          "velocity": 0.8503937007874016
        },
        {
          "duration": 0.1281250000000007,
          "durationTicks": 123,
          "midi": 55,
          "name": "G3",
          "ticks": 25620,
          "time": 26.6875,
          "velocity": 0.9212598425196851
        },
        {
          "duration": 0.9135416666666671,
          "durationTicks": 877,
          "midi": 55,
          "name": "G3",
          "ticks": 25920,
          "time": 27,
          "velocity": 0.9212598425196851
        }
      ],
      "endOfTrackTicks": 26797
    },
    {
      "channel": 0,
      "controlChanges": {},
      "pitchBends": [],
      "instrument": {
        "family": "piano",
        "name": "acoustic grand piano",
        "number": 0
      },
      "name": "Membrane",
      "notes": [
        {
          "duration": 2,
          "durationTicks": 1920,
          "midi": 55,
          "name": "G3",
          "ticks": 13440,
          "time": 14,
          "velocity": 0.9212598425196851
        },
        {
          "duration": 0.2624999999999993,
          "durationTicks": 252,
          "midi": 55,
          "name": "G3",
          "ticks": 15360,
          "time": 16,
          "velocity": 0.9212598425196851
        },
        {
          "duration": 0.12083333333333357,
          "durationTicks": 116,
          "midi": 55,
          "name": "G3",
          "ticks": 15660,
          "time": 16.3125,
          "velocity": 0.8503937007874016
        },
        {
          "duration": 0.1437500000000007,
          "durationTicks": 138,
          "midi": 55,
          "name": "G3",
          "ticks": 16020,
          "time": 16.6875,
          "velocity": 0.9212598425196851
        },
        {
          "duration": 0.763541666666665,
          "durationTicks": 733,
          "midi": 55,
          "name": "G3",
          "ticks": 16260,
          "time": 16.9375,
          "velocity": 0.9212598425196851
        },
        {
          "duration": 0.24895833333333428,
          "durationTicks": 239,
          "midi": 55,
          "name": "G3",
          "ticks": 17280,
          "time": 18,
          "velocity": 0.9212598425196851
        },
        {
          "duration": 0.13125000000000142,
          "durationTicks": 126,
          "midi": 55,
          "name": "G3",
          "ticks": 17640,
          "time": 18.375,
          "velocity": 0.9212598425196851
        },
        {
          "duration": 0.11770833333333286,
          "durationTicks": 113,
          "midi": 55,
          "name": "G3",
          "ticks": 17940,
          "time": 18.6875,
          "velocity": 0.9212598425196851
        },
        {
          "duration": 0.814583333333335,
          "durationTicks": 782,
          "midi": 55,
          "name": "G3",
          "ticks": 18180,
          "time": 18.9375,
          "velocity": 0.8503937007874016
        },
        {
          "duration": 0.20833333333333215,
          "durationTicks": 200,
          "midi": 55,
          "name": "G3",
          "ticks": 19200,
          "time": 20,
          "velocity": 0.9212598425196851
        },
        {
          "duration": 0.15625,
          "durationTicks": 150,
          "midi": 55,
          "name": "G3",
          "ticks": 19560,
          "time": 20.375,
          "velocity": 0.8503937007874016
        },
        {
          "duration": 0.12916666666666643,
          "durationTicks": 124,
          "midi": 55,
          "name": "G3",
          "ticks": 19860,
          "time": 20.6875,
          "velocity": 0.9212598425196851
        },
        {
          "duration": 0.8229166666666679,
          "durationTicks": 790,
          "midi": 55,
          "name": "G3",
          "ticks": 20160,
          "time": 21,
          "velocity": 0.8503937007874016
        },
        {
          "duration": 0.25416666666666643,
          "durationTicks": 244,
          "midi": 55,
          "name": "G3",
          "ticks": 21120,
          "time": 22,
          "velocity": 0.9212598425196851
        },
        {
          "duration": 0.127083333333335,
          "durationTicks": 122,
          "midi": 55,
          "name": "G3",
          "ticks": 21480,
          "time": 22.375,
          "velocity": 0.9212598425196851
        },
        {
          "duration": 0.10624999999999929,
          "durationTicks": 102,
          "midi": 55,
          "name": "G3",
          "ticks": 21840,
          "time": 22.75,
          "velocity": 0.9212598425196851
        },
        {
          "duration": 0.7593749999999986,
          "durationTicks": 729,
          "midi": 55,
          "name": "G3",
          "ticks": 22080,
          "time": 23,
          "velocity": 0.9212598425196851
        },
        {
          "duration": 0.19791666666666785,
          "durationTicks": 190,
          "midi": 55,
          "name": "G3",
          "ticks": 23040,
          "time": 24,
          "velocity": 0.9212598425196851
        },
        {
          "duration": 0.14687500000000142,
          "durationTicks": 141,
          "midi": 55,
          "name": "G3",
          "ticks": 23400,
          "time": 24.375,
          "velocity": 0.9212598425196851
        },
        {
          "duration": 0.11666666666666714,
          "durationTicks": 112,
          "midi": 55,
          "name": "G3",
          "ticks": 23700,
          "time": 24.6875,
          "velocity": 0.9212598425196851
        },
        {
          "duration": 0.8218749999999986,
          "durationTicks": 789,
          "midi": 55,
          "name": "G3",
          "ticks": 24000,
          "time": 25,
          "velocity": 0.9212598425196851
        },
        {
          "duration": 0.252083333333335,
          "durationTicks": 242,
          "midi": 55,
          "name": "G3",
          "ticks": 24960,
          "time": 26,
          "velocity": 0.9212598425196851
        },
        {
          "duration": 0.1437500000000007,
          "durationTicks": 138,
          "midi": 55,
          "name": "G3",
          "ticks": 25320,
          "time": 26.375,
          "velocity": 0.9212598425196851
        },
        {
          "duration": 0.14479166666666643,
          "durationTicks": 139,
          "midi": 55,
          "name": "G3",
          "ticks": 25680,
          "time": 26.75,
          "velocity": 0.9212598425196851
        },
        {
          "duration": 0.7843750000000007,
          "durationTicks": 753,
          "midi": 55,
          "name": "G3",
          "ticks": 25920,
          "time": 27,
          "velocity": 0.8503937007874016
        },
        {
          "duration": 0.22812499999999858,
          "durationTicks": 219,
          "midi": 55,
          "name": "G3",
          "ticks": 26880,
          "time": 28,
          "velocity": 0.8503937007874016
        },
        {
          "duration": 0.13437499999999858,
          "durationTicks": 129,
          "midi": 55,
          "name": "G3",
          "ticks": 27240,
          "time": 28.375,
          "velocity": 0.8503937007874016
        },
        {
          "duration": 0.1281250000000007,
          "durationTicks": 123,
          "midi": 55,
          "name": "G3",
          "ticks": 27540,
          "time": 28.6875,
          "velocity": 0.9212598425196851
        },
        {
          "duration": 0.9135416666666671,
          "durationTicks": 877,
          "midi": 55,
          "name": "G3",
          "ticks": 27840,
          "time": 29,
          "velocity": 0.9212598425196851
        }
      ],
      "endOfTrackTicks": 28717
    },
    {
      "channel": 0,
      "controlChanges": {},
      "pitchBends": [],
      "instrument": {
        "family": "piano",
        "name": "acoustic grand piano",
        "number": 0
      },
      "name": "Membrane",
      "notes": [
        {
          "duration": 2,
          "durationTicks": 1920,
          "midi": 55,
          "name": "G3",
          "ticks": 15360,
          "time": 16,
          "velocity": 0.9212598425196851
        },
        {
          "duration": 0.2624999999999993,
          "durationTicks": 252,
          "midi": 55,
          "name": "G3",
          "ticks": 17280,
          "time": 18,
          "velocity": 0.9212598425196851
        },
        {
          "duration": 0.12083333333333357,
          "durationTicks": 116,
          "midi": 55,
          "name": "G3",
          "ticks": 17580,
          "time": 18.3125,
          "velocity": 0.8503937007874016
        },
        {
          "duration": 0.1437500000000007,
          "durationTicks": 138,
          "midi": 55,
          "name": "G3",
          "ticks": 17940,
          "time": 18.6875,
          "velocity": 0.9212598425196851
        },
        {
          "duration": 0.763541666666665,
          "durationTicks": 733,
          "midi": 55,
          "name": "G3",
          "ticks": 18180,
          "time": 18.9375,
          "velocity": 0.9212598425196851
        },
        {
          "duration": 0.24895833333333428,
          "durationTicks": 239,
          "midi": 55,
          "name": "G3",
          "ticks": 19200,
          "time": 20,
          "velocity": 0.9212598425196851
        },
        {
          "duration": 0.13125000000000142,
          "durationTicks": 126,
          "midi": 55,
          "name": "G3",
          "ticks": 19560,
          "time": 20.375,
          "velocity": 0.9212598425196851
        },
        {
          "duration": 0.11770833333333286,
          "durationTicks": 113,
          "midi": 55,
          "name": "G3",
          "ticks": 19860,
          "time": 20.6875,
          "velocity": 0.9212598425196851
        },
        {
          "duration": 0.814583333333335,
          "durationTicks": 782,
          "midi": 55,
          "name": "G3",
          "ticks": 20100,
          "time": 20.9375,
          "velocity": 0.8503937007874016
        },
        {
          "duration": 0.20833333333333215,
          "durationTicks": 200,
          "midi": 55,
          "name": "G3",
          "ticks": 21120,
          "time": 22,
          "velocity": 0.9212598425196851
        },
        {
          "duration": 0.15625,
          "durationTicks": 150,
          "midi": 55,
          "name": "G3",
          "ticks": 21480,
          "time": 22.375,
          "velocity": 0.8503937007874016
        },
        {
          "duration": 0.12916666666666643,
          "durationTicks": 124,
          "midi": 55,
          "name": "G3",
          "ticks": 21780,
          "time": 22.6875,
          "velocity": 0.9212598425196851
        },
        {
          "duration": 0.8229166666666679,
          "durationTicks": 790,
          "midi": 55,
          "name": "G3",
          "ticks": 22080,
          "time": 23,
          "velocity": 0.8503937007874016
        },
        {
          "duration": 0.25416666666666643,
          "durationTicks": 244,
          "midi": 55,
          "name": "G3",
          "ticks": 23040,
          "time": 24,
          "velocity": 0.9212598425196851
        },
        {
          "duration": 0.127083333333335,
          "durationTicks": 122,
          "midi": 55,
          "name": "G3",
          "ticks": 23400,
          "time": 24.375,
          "velocity": 0.9212598425196851
        },
        {
          "duration": 0.10624999999999929,
          "durationTicks": 102,
          "midi": 55,
          "name": "G3",
          "ticks": 23760,
          "time": 24.75,
          "velocity": 0.9212598425196851
        },
        {
          "duration": 0.7593749999999986,
          "durationTicks": 729,
          "midi": 55,
          "name": "G3",
          "ticks": 24000,
          "time": 25,
          "velocity": 0.9212598425196851
        },
        {
          "duration": 0.19791666666666785,
          "durationTicks": 190,
          "midi": 55,
          "name": "G3",
          "ticks": 24960,
          "time": 26,
          "velocity": 0.9212598425196851
        },
        {
          "duration": 0.14687500000000142,
          "durationTicks": 141,
          "midi": 55,
          "name": "G3",
          "ticks": 25320,
          "time": 26.375,
          "velocity": 0.9212598425196851
        },
        {
          "duration": 0.11666666666666714,
          "durationTicks": 112,
          "midi": 55,
          "name": "G3",
          "ticks": 25620,
          "time": 26.6875,
          "velocity": 0.9212598425196851
        },
        {
          "duration": 0.8218749999999986,
          "durationTicks": 789,
          "midi": 55,
          "name": "G3",
          "ticks": 25920,
          "time": 27,
          "velocity": 0.9212598425196851
        },
        {
          "duration": 0.252083333333335,
          "durationTicks": 242,
          "midi": 55,
          "name": "G3",
          "ticks": 26880,
          "time": 28,
          "velocity": 0.9212598425196851
        },
        {
          "duration": 0.1437500000000007,
          "durationTicks": 138,
          "midi": 55,
          "name": "G3",
          "ticks": 27240,
          "time": 28.375,
          "velocity": 0.9212598425196851
        },
        {
          "duration": 0.14479166666666643,
          "durationTicks": 139,
          "midi": 55,
          "name": "G3",
          "ticks": 27600,
          "time": 28.75,
          "velocity": 0.9212598425196851
        },
        {
          "duration": 0.7843750000000007,
          "durationTicks": 753,
          "midi": 55,
          "name": "G3",
          "ticks": 27840,
          "time": 29,
          "velocity": 0.8503937007874016
        },
        {
          "duration": 0.22812499999999858,
          "durationTicks": 219,
          "midi": 55,
          "name": "G3",
          "ticks": 28800,
          "time": 30,
          "velocity": 0.8503937007874016
        },
        {
          "duration": 0.13437499999999858,
          "durationTicks": 129,
          "midi": 55,
          "name": "G3",
          "ticks": 29160,
          "time": 30.375,
          "velocity": 0.8503937007874016
        },
        {
          "duration": 0.1281250000000007,
          "durationTicks": 123,
          "midi": 55,
          "name": "G3",
          "ticks": 29460,
          "time": 30.6875,
          "velocity": 0.9212598425196851
        },
        {
          "duration": 0.9135416666666671,
          "durationTicks": 877,
          "midi": 55,
          "name": "G3",
          "ticks": 29760,
          "time": 31,
          "velocity": 0.9212598425196851
        }
      ],
      "endOfTrackTicks": 30637
    },
    {
      "channel": 0,
      "controlChanges": {},
      "pitchBends": [],
      "instrument": {
        "family": "piano",
        "name": "acoustic grand piano",
        "number": 0
      },
      "name": "Membrane",
      "notes": [
        {
          "duration": 2,
          "durationTicks": 1920,
          "midi": 55,
          "name": "G3",
          "ticks": 17280,
          "time": 18,
          "velocity": 0.9212598425196851
        },
        {
          "duration": 0.2624999999999993,
          "durationTicks": 252,
          "midi": 55,
          "name": "G3",
          "ticks": 19200,
          "time": 20,
          "velocity": 0.9212598425196851
        },
        {
          "duration": 0.12083333333333357,
          "durationTicks": 116,
          "midi": 55,
          "name": "G3",
          "ticks": 19500,
          "time": 20.3125,
          "velocity": 0.8503937007874016
        },
        {
          "duration": 0.1437500000000007,
          "durationTicks": 138,
          "midi": 55,
          "name": "G3",
          "ticks": 19860,
          "time": 20.6875,
          "velocity": 0.9212598425196851
        },
        {
          "duration": 0.763541666666665,
          "durationTicks": 733,
          "midi": 55,
          "name": "G3",
          "ticks": 20100,
          "time": 20.9375,
          "velocity": 0.9212598425196851
        },
        {
          "duration": 0.24895833333333428,
          "durationTicks": 239,
          "midi": 55,
          "name": "G3",
          "ticks": 21120,
          "time": 22,
          "velocity": 0.9212598425196851
        },
        {
          "duration": 0.13125000000000142,
          "durationTicks": 126,
          "midi": 55,
          "name": "G3",
          "ticks": 21480,
          "time": 22.375,
          "velocity": 0.9212598425196851
        },
        {
          "duration": 0.11770833333333286,
          "durationTicks": 113,
          "midi": 55,
          "name": "G3",
          "ticks": 21780,
          "time": 22.6875,
          "velocity": 0.9212598425196851
        },
        {
          "duration": 0.814583333333335,
          "durationTicks": 782,
          "midi": 55,
          "name": "G3",
          "ticks": 22020,
          "time": 22.9375,
          "velocity": 0.8503937007874016
        },
        {
          "duration": 0.20833333333333215,
          "durationTicks": 200,
          "midi": 55,
          "name": "G3",
          "ticks": 23040,
          "time": 24,
          "velocity": 0.9212598425196851
        },
        {
          "duration": 0.15625,
          "durationTicks": 150,
          "midi": 55,
          "name": "G3",
          "ticks": 23400,
          "time": 24.375,
          "velocity": 0.8503937007874016
        },
        {
          "duration": 0.12916666666666643,
          "durationTicks": 124,
          "midi": 55,
          "name": "G3",
          "ticks": 23700,
          "time": 24.6875,
          "velocity": 0.9212598425196851
        },
        {
          "duration": 0.8229166666666679,
          "durationTicks": 790,
          "midi": 55,
          "name": "G3",
          "ticks": 24000,
          "time": 25,
          "velocity": 0.8503937007874016
        },
        {
          "duration": 0.25416666666666643,
          "durationTicks": 244,
          "midi": 55,
          "name": "G3",
          "ticks": 24960,
          "time": 26,
          "velocity": 0.9212598425196851
        },
        {
          "duration": 0.127083333333335,
          "durationTicks": 122,
          "midi": 55,
          "name": "G3",
          "ticks": 25320,
          "time": 26.375,
          "velocity": 0.9212598425196851
        },
        {
          "duration": 0.10624999999999929,
          "durationTicks": 102,
          "midi": 55,
          "name": "G3",
          "ticks": 25680,
          "time": 26.75,
          "velocity": 0.9212598425196851
        },
        {
          "duration": 0.7593749999999986,
          "durationTicks": 729,
          "midi": 55,
          "name": "G3",
          "ticks": 25920,
          "time": 27,
          "velocity": 0.9212598425196851
        },
        {
          "duration": 0.19791666666666785,
          "durationTicks": 190,
          "midi": 55,
          "name": "G3",
          "ticks": 26880,
          "time": 28,
          "velocity": 0.9212598425196851
        },
        {
          "duration": 0.14687500000000142,
          "durationTicks": 141,
          "midi": 55,
          "name": "G3",
          "ticks": 27240,
          "time": 28.375,
          "velocity": 0.9212598425196851
        },
        {
          "duration": 0.11666666666666714,
          "durationTicks": 112,
          "midi": 55,
          "name": "G3",
          "ticks": 27540,
          "time": 28.6875,
          "velocity": 0.9212598425196851
        },
        {
          "duration": 0.8218749999999986,
          "durationTicks": 789,
          "midi": 55,
          "name": "G3",
          "ticks": 27840,
          "time": 29,
          "velocity": 0.9212598425196851
        },
        {
          "duration": 0.252083333333335,
          "durationTicks": 242,
          "midi": 55,
          "name": "G3",
          "ticks": 28800,
          "time": 30,
          "velocity": 0.9212598425196851
        },
        {
          "duration": 0.1437500000000007,
          "durationTicks": 138,
          "midi": 55,
          "name": "G3",
          "ticks": 29160,
          "time": 30.375,
          "velocity": 0.9212598425196851
        },
        {
          "duration": 0.14479166666666643,
          "durationTicks": 139,
          "midi": 55,
          "name": "G3",
          "ticks": 29520,
          "time": 30.75,
          "velocity": 0.9212598425196851
        },
        {
          "duration": 0.7843750000000007,
          "durationTicks": 753,
          "midi": 55,
          "name": "G3",
          "ticks": 29760,
          "time": 31,
          "velocity": 0.8503937007874016
        },
        {
          "duration": 0.22812499999999858,
          "durationTicks": 219,
          "midi": 55,
          "name": "G3",
          "ticks": 30720,
          "time": 32,
          "velocity": 0.8503937007874016
        },
        {
          "duration": 0.13437499999999858,
          "durationTicks": 129,
          "midi": 55,
          "name": "G3",
          "ticks": 31080,
          "time": 32.375,
          "velocity": 0.8503937007874016
        },
        {
          "duration": 0.12812499999999716,
          "durationTicks": 123,
          "midi": 55,
          "name": "G3",
          "ticks": 31380,
          "time": 32.6875,
          "velocity": 0.9212598425196851
        },
        {
          "duration": 0.9135416666666671,
          "durationTicks": 877,
          "midi": 55,
          "name": "G3",
          "ticks": 31680,
          "time": 33,
          "velocity": 0.9212598425196851
        }
      ],
      "endOfTrackTicks": 32557
    },
    {
      "channel": 0,
      "controlChanges": {},
      "pitchBends": [],
      "instrument": {
        "family": "piano",
        "name": "acoustic grand piano",
        "number": 0
      },
      "name": "Membrane",
      "notes": [
        {
          "duration": 2,
          "durationTicks": 1920,
          "midi": 55,
          "name": "G3",
          "ticks": 19200,
          "time": 20,
          "velocity": 0.9212598425196851
        },
        {
          "duration": 0.2624999999999993,
          "durationTicks": 252,
          "midi": 55,
          "name": "G3",
          "ticks": 21120,
          "time": 22,
          "velocity": 0.9212598425196851
        },
        {
          "duration": 0.12083333333333357,
          "durationTicks": 116,
          "midi": 55,
          "name": "G3",
          "ticks": 21420,
          "time": 22.3125,
          "velocity": 0.8503937007874016
        },
        {
          "duration": 0.1437500000000007,
          "durationTicks": 138,
          "midi": 55,
          "name": "G3",
          "ticks": 21780,
          "time": 22.6875,
          "velocity": 0.9212598425196851
        },
        {
          "duration": 0.763541666666665,
          "durationTicks": 733,
          "midi": 55,
          "name": "G3",
          "ticks": 22020,
          "time": 22.9375,
          "velocity": 0.9212598425196851
        },
        {
          "duration": 0.24895833333333428,
          "durationTicks": 239,
          "midi": 55,
          "name": "G3",
          "ticks": 23040,
          "time": 24,
          "velocity": 0.9212598425196851
        },
        {
          "duration": 0.13125000000000142,
          "durationTicks": 126,
          "midi": 55,
          "name": "G3",
          "ticks": 23400,
          "time": 24.375,
          "velocity": 0.9212598425196851
        },
        {
          "duration": 0.11770833333333286,
          "durationTicks": 113,
          "midi": 55,
          "name": "G3",
          "ticks": 23700,
          "time": 24.6875,
          "velocity": 0.9212598425196851
        },
        {
          "duration": 0.814583333333335,
          "durationTicks": 782,
          "midi": 55,
          "name": "G3",
          "ticks": 23940,
          "time": 24.9375,
          "velocity": 0.8503937007874016
        },
        {
          "duration": 0.20833333333333215,
          "durationTicks": 200,
          "midi": 55,
          "name": "G3",
          "ticks": 24960,
          "time": 26,
          "velocity": 0.9212598425196851
        },
        {
          "duration": 0.15625,
          "durationTicks": 150,
          "midi": 55,
          "name": "G3",
          "ticks": 25320,
          "time": 26.375,
          "velocity": 0.8503937007874016
        },
        {
          "duration": 0.12916666666666643,
          "durationTicks": 124,
          "midi": 55,
          "name": "G3",
          "ticks": 25620,
          "time": 26.6875,
          "velocity": 0.9212598425196851
        },
        {
          "duration": 0.8229166666666679,
          "durationTicks": 790,
          "midi": 55,
          "name": "G3",
          "ticks": 25920,
          "time": 27,
          "velocity": 0.8503937007874016
        },
        {
          "duration": 0.25416666666666643,
          "durationTicks": 244,
          "midi": 55,
          "name": "G3",
          "ticks": 26880,
          "time": 28,
          "velocity": 0.9212598425196851
        },
        {
          "duration": 0.127083333333335,
          "durationTicks": 122,
          "midi": 55,
          "name": "G3",
          "ticks": 27240,
          "time": 28.375,
          "velocity": 0.9212598425196851
        },
        {
          "duration": 0.10624999999999929,
          "durationTicks": 102,
          "midi": 55,
          "name": "G3",
          "ticks": 27600,
          "time": 28.75,
          "velocity": 0.9212598425196851
        },
        {
          "duration": 0.7593749999999986,
          "durationTicks": 729,
          "midi": 55,
          "name": "G3",
          "ticks": 27840,
          "time": 29,
          "velocity": 0.9212598425196851
        },
        {
          "duration": 0.19791666666666785,
          "durationTicks": 190,
          "midi": 55,
          "name": "G3",
          "ticks": 28800,
          "time": 30,
          "velocity": 0.9212598425196851
        },
        {
          "duration": 0.14687500000000142,
          "durationTicks": 141,
          "midi": 55,
          "name": "G3",
          "ticks": 29160,
          "time": 30.375,
          "velocity": 0.9212598425196851
        },
        {
          "duration": 0.11666666666666714,
          "durationTicks": 112,
          "midi": 55,
          "name": "G3",
          "ticks": 29460,
          "time": 30.6875,
          "velocity": 0.9212598425196851
        },
        {
          "duration": 0.8218749999999986,
          "durationTicks": 789,
          "midi": 55,
          "name": "G3",
          "ticks": 29760,
          "time": 31,
          "velocity": 0.9212598425196851
        },
        {
          "duration": 0.25208333333333144,
          "durationTicks": 242,
          "midi": 55,
          "name": "G3",
          "ticks": 30720,
          "time": 32,
          "velocity": 0.9212598425196851
        },
        {
          "duration": 0.14374999999999716,
          "durationTicks": 138,
          "midi": 55,
          "name": "G3",
          "ticks": 31080,
          "time": 32.375,
          "velocity": 0.9212598425196851
        },
        {
          "duration": 0.14479166666666998,
          "durationTicks": 139,
          "midi": 55,
          "name": "G3",
          "ticks": 31440,
          "time": 32.75,
          "velocity": 0.9212598425196851
        },
        {
          "duration": 0.7843749999999972,
          "durationTicks": 753,
          "midi": 55,
          "name": "G3",
          "ticks": 31680,
          "time": 33,
          "velocity": 0.8503937007874016
        },
        {
          "duration": 0.22812499999999858,
          "durationTicks": 219,
          "midi": 55,
          "name": "G3",
          "ticks": 32640,
          "time": 34,
          "velocity": 0.8503937007874016
        },
        {
          "duration": 0.13437499999999858,
          "durationTicks": 129,
          "midi": 55,
          "name": "G3",
          "ticks": 33000,
          "time": 34.375,
          "velocity": 0.8503937007874016
        },
        {
          "duration": 0.12812499999999716,
          "durationTicks": 123,
          "midi": 55,
          "name": "G3",
          "ticks": 33300,
          "time": 34.6875,
          "velocity": 0.9212598425196851
        },
        {
          "duration": 0.9135416666666671,
          "durationTicks": 877,
          "midi": 55,
          "name": "G3",
          "ticks": 33600,
          "time": 35,
          "velocity": 0.9212598425196851
        }
      ],
      "endOfTrackTicks": 34477
    },
    {
      "channel": 0,
      "controlChanges": {},
      "pitchBends": [],
      "instrument": {
        "family": "piano",
        "name": "acoustic grand piano",
        "number": 0
      },
      "name": "Membrane",
      "notes": [
        {
          "duration": 2,
          "durationTicks": 1920,
          "midi": 55,
          "name": "G3",
          "ticks": 21120,
          "time": 22,
          "velocity": 0.9212598425196851
        },
        {
          "duration": 0.2624999999999993,
          "durationTicks": 252,
          "midi": 55,
          "name": "G3",
          "ticks": 23040,
          "time": 24,
          "velocity": 0.9212598425196851
        },
        {
          "duration": 0.12083333333333357,
          "durationTicks": 116,
          "midi": 55,
          "name": "G3",
          "ticks": 23340,
          "time": 24.3125,
          "velocity": 0.8503937007874016
        },
        {
          "duration": 0.1437500000000007,
          "durationTicks": 138,
          "midi": 55,
          "name": "G3",
          "ticks": 23700,
          "time": 24.6875,
          "velocity": 0.9212598425196851
        },
        {
          "duration": 0.763541666666665,
          "durationTicks": 733,
          "midi": 55,
          "name": "G3",
          "ticks": 23940,
          "time": 24.9375,
          "velocity": 0.9212598425196851
        },
        {
          "duration": 0.24895833333333428,
          "durationTicks": 239,
          "midi": 55,
          "name": "G3",
          "ticks": 24960,
          "time": 26,
          "velocity": 0.9212598425196851
        },
        {
          "duration": 0.13125000000000142,
          "durationTicks": 126,
          "midi": 55,
          "name": "G3",
          "ticks": 25320,
          "time": 26.375,
          "velocity": 0.9212598425196851
        },
        {
          "duration": 0.11770833333333286,
          "durationTicks": 113,
          "midi": 55,
          "name": "G3",
          "ticks": 25620,
          "time": 26.6875,
          "velocity": 0.9212598425196851
        },
        {
          "duration": 0.814583333333335,
          "durationTicks": 782,
          "midi": 55,
          "name": "G3",
          "ticks": 25860,
          "time": 26.9375,
          "velocity": 0.8503937007874016
        },
        {
          "duration": 0.20833333333333215,
          "durationTicks": 200,
          "midi": 55,
          "name": "G3",
          "ticks": 26880,
          "time": 28,
          "velocity": 0.9212598425196851
        },
        {
          "duration": 0.15625,
          "durationTicks": 150,
          "midi": 55,
          "name": "G3",
          "ticks": 27240,
          "time": 28.375,
          "velocity": 0.8503937007874016
        },
        {
          "duration": 0.12916666666666643,
          "durationTicks": 124,
          "midi": 55,
          "name": "G3",
          "ticks": 27540,
          "time": 28.6875,
          "velocity": 0.9212598425196851
        },
        {
          "duration": 0.8229166666666679,
          "durationTicks": 790,
          "midi": 55,
          "name": "G3",
          "ticks": 27840,
          "time": 29,
          "velocity": 0.8503937007874016
        },
        {
          "duration": 0.25416666666666643,
          "durationTicks": 244,
          "midi": 55,
          "name": "G3",
          "ticks": 28800,
          "time": 30,
          "velocity": 0.9212598425196851
        },
        {
          "duration": 0.127083333333335,
          "durationTicks": 122,
          "midi": 55,
          "name": "G3",
          "ticks": 29160,
          "time": 30.375,
          "velocity": 0.9212598425196851
        },
        {
          "duration": 0.10624999999999929,
          "durationTicks": 102,
          "midi": 55,
          "name": "G3",
          "ticks": 29520,
          "time": 30.75,
          "velocity": 0.9212598425196851
        },
        {
          "duration": 0.7593749999999986,
          "durationTicks": 729,
          "midi": 55,
          "name": "G3",
          "ticks": 29760,
          "time": 31,
          "velocity": 0.9212598425196851
        },
        {
          "duration": 0.1979166666666643,
          "durationTicks": 190,
          "midi": 55,
          "name": "G3",
          "ticks": 30720,
          "time": 32,
          "velocity": 0.9212598425196851
        },
        {
          "duration": 0.14687500000000142,
          "durationTicks": 141,
          "midi": 55,
          "name": "G3",
          "ticks": 31080,
          "time": 32.375,
          "velocity": 0.9212598425196851
        },
        {
          "duration": 0.11666666666666714,
          "durationTicks": 112,
          "midi": 55,
          "name": "G3",
          "ticks": 31380,
          "time": 32.6875,
          "velocity": 0.9212598425196851
        },
        {
          "duration": 0.8218749999999986,
          "durationTicks": 789,
          "midi": 55,
          "name": "G3",
          "ticks": 31680,
          "time": 33,
          "velocity": 0.9212598425196851
        },
        {
          "duration": 0.25208333333333144,
          "durationTicks": 242,
          "midi": 55,
          "name": "G3",
          "ticks": 32640,
          "time": 34,
          "velocity": 0.9212598425196851
        },
        {
          "duration": 0.14374999999999716,
          "durationTicks": 138,
          "midi": 55,
          "name": "G3",
          "ticks": 33000,
          "time": 34.375,
          "velocity": 0.9212598425196851
        },
        {
          "duration": 0.14479166666666998,
          "durationTicks": 139,
          "midi": 55,
          "name": "G3",
          "ticks": 33360,
          "time": 34.75,
          "velocity": 0.9212598425196851
        },
        {
          "duration": 0.7843749999999972,
          "durationTicks": 753,
          "midi": 55,
          "name": "G3",
          "ticks": 33600,
          "time": 35,
          "velocity": 0.8503937007874016
        },
        {
          "duration": 0.22812499999999858,
          "durationTicks": 219,
          "midi": 55,
          "name": "G3",
          "ticks": 34560,
          "time": 36,
          "velocity": 0.8503937007874016
        },
        {
          "duration": 0.13437499999999858,
          "durationTicks": 129,
          "midi": 55,
          "name": "G3",
          "ticks": 34920,
          "time": 36.375,
          "velocity": 0.8503937007874016
        },
        {
          "duration": 0.12812499999999716,
          "durationTicks": 123,
          "midi": 55,
          "name": "G3",
          "ticks": 35220,
          "time": 36.6875,
          "velocity": 0.9212598425196851
        },
        {
          "duration": 0.9135416666666671,
          "durationTicks": 877,
          "midi": 55,
          "name": "G3",
          "ticks": 35520,
          "time": 37,
          "velocity": 0.9212598425196851
        }
      ],
      "endOfTrackTicks": 36397
    },
    {
      "channel": 0,
      "controlChanges": {},
      "pitchBends": [],
      "instrument": {
        "family": "piano",
        "name": "acoustic grand piano",
        "number": 0
      },
      "name": "Membrane",
      "notes": [
        {
          "duration": 2,
          "durationTicks": 1920,
          "midi": 55,
          "name": "G3",
          "ticks": 23040,
          "time": 24,
          "velocity": 0.9212598425196851
        },
        {
          "duration": 0.2624999999999993,
          "durationTicks": 252,
          "midi": 55,
          "name": "G3",
          "ticks": 24960,
          "time": 26,
          "velocity": 0.9212598425196851
        },
        {
          "duration": 0.12083333333333357,
          "durationTicks": 116,
          "midi": 55,
          "name": "G3",
          "ticks": 25260,
          "time": 26.3125,
          "velocity": 0.8503937007874016
        },
        {
          "duration": 0.1437500000000007,
          "durationTicks": 138,
          "midi": 55,
          "name": "G3",
          "ticks": 25620,
          "time": 26.6875,
          "velocity": 0.9212598425196851
        },
        {
          "duration": 0.763541666666665,
          "durationTicks": 733,
          "midi": 55,
          "name": "G3",
          "ticks": 25860,
          "time": 26.9375,
          "velocity": 0.9212598425196851
        },
        {
          "duration": 0.24895833333333428,
          "durationTicks": 239,
          "midi": 55,
          "name": "G3",
          "ticks": 26880,
          "time": 28,
          "velocity": 0.9212598425196851
        },
        {
          "duration": 0.13125000000000142,
          "durationTicks": 126,
          "midi": 55,
          "name": "G3",
          "ticks": 27240,
          "time": 28.375,
          "velocity": 0.9212598425196851
        },
        {
          "duration": 0.11770833333333286,
          "durationTicks": 113,
          "midi": 55,
          "name": "G3",
          "ticks": 27540,
          "time": 28.6875,
          "velocity": 0.9212598425196851
        },
        {
          "duration": 0.814583333333335,
          "durationTicks": 782,
          "midi": 55,
          "name": "G3",
          "ticks": 27780,
          "time": 28.9375,
          "velocity": 0.8503937007874016
        },
        {
          "duration": 0.20833333333333215,
          "durationTicks": 200,
          "midi": 55,
          "name": "G3",
          "ticks": 28800,
          "time": 30,
          "velocity": 0.9212598425196851
        },
        {
          "duration": 0.15625,
          "durationTicks": 150,
          "midi": 55,
          "name": "G3",
          "ticks": 29160,
          "time": 30.375,
          "velocity": 0.8503937007874016
        },
        {
          "duration": 0.12916666666666643,
          "durationTicks": 124,
          "midi": 55,
          "name": "G3",
          "ticks": 29460,
          "time": 30.6875,
          "velocity": 0.9212598425196851
        },
        {
          "duration": 0.8229166666666679,
          "durationTicks": 790,
          "midi": 55,
          "name": "G3",
          "ticks": 29760,
          "time": 31,
          "velocity": 0.8503937007874016
        },
        {
          "duration": 0.25416666666667,
          "durationTicks": 244,
          "midi": 55,
          "name": "G3",
          "ticks": 30720,
          "time": 32,
          "velocity": 0.9212598425196851
        },
        {
          "duration": 0.12708333333333144,
          "durationTicks": 122,
          "midi": 55,
          "name": "G3",
          "ticks": 31080,
          "time": 32.375,
          "velocity": 0.9212598425196851
        },
        {
          "duration": 0.10625000000000284,
          "durationTicks": 102,
          "midi": 55,
          "name": "G3",
          "ticks": 31440,
          "time": 32.75,
          "velocity": 0.9212598425196851
        },
        {
          "duration": 0.7593749999999986,
          "durationTicks": 729,
          "midi": 55,
          "name": "G3",
          "ticks": 31680,
          "time": 33,
          "velocity": 0.9212598425196851
        },
        {
          "duration": 0.1979166666666643,
          "durationTicks": 190,
          "midi": 55,
          "name": "G3",
          "ticks": 32640,
          "time": 34,
          "velocity": 0.9212598425196851
        },
        {
          "duration": 0.14687500000000142,
          "durationTicks": 141,
          "midi": 55,
          "name": "G3",
          "ticks": 33000,
          "time": 34.375,
          "velocity": 0.9212598425196851
        },
        {
          "duration": 0.11666666666666714,
          "durationTicks": 112,
          "midi": 55,
          "name": "G3",
          "ticks": 33300,
          "time": 34.6875,
          "velocity": 0.9212598425196851
        },
        {
          "duration": 0.8218749999999986,
          "durationTicks": 789,
          "midi": 55,
          "name": "G3",
          "ticks": 33600,
          "time": 35,
          "velocity": 0.9212598425196851
        },
        {
          "duration": 0.25208333333333144,
          "durationTicks": 242,
          "midi": 55,
          "name": "G3",
          "ticks": 34560,
          "time": 36,
          "velocity": 0.9212598425196851
        },
        {
          "duration": 0.14374999999999716,
          "durationTicks": 138,
          "midi": 55,
          "name": "G3",
          "ticks": 34920,
          "time": 36.375,
          "velocity": 0.9212598425196851
        },
        {
          "duration": 0.14479166666666998,
          "durationTicks": 139,
          "midi": 55,
          "name": "G3",
          "ticks": 35280,
          "time": 36.75,
          "velocity": 0.9212598425196851
        },
        {
          "duration": 0.7843749999999972,
          "durationTicks": 753,
          "midi": 55,
          "name": "G3",
          "ticks": 35520,
          "time": 37,
          "velocity": 0.8503937007874016
        },
        {
          "duration": 0.22812499999999858,
          "durationTicks": 219,
          "midi": 55,
          "name": "G3",
          "ticks": 36480,
          "time": 38,
          "velocity": 0.8503937007874016
        },
        {
          "duration": 0.13437499999999858,
          "durationTicks": 129,
          "midi": 55,
          "name": "G3",
          "ticks": 36840,
          "time": 38.375,
          "velocity": 0.8503937007874016
        },
        {
          "duration": 0.12812499999999716,
          "durationTicks": 123,
          "midi": 55,
          "name": "G3",
          "ticks": 37140,
          "time": 38.6875,
          "velocity": 0.9212598425196851
        },
        {
          "duration": 0.9135416666666671,
          "durationTicks": 877,
          "midi": 55,
          "name": "G3",
          "ticks": 37440,
          "time": 39,
          "velocity": 0.9212598425196851
        }
      ],
      "endOfTrackTicks": 38317
    },
    {
      "channel": 0,
      "controlChanges": {},
      "pitchBends": [],
      "instrument": {
        "family": "piano",
        "name": "acoustic grand piano",
        "number": 0
      },
      "name": "Membrane",
      "notes": [
        {
          "duration": 2,
          "durationTicks": 1920,
          "midi": 55,
          "name": "G3",
          "ticks": 24960,
          "time": 26,
          "velocity": 0.9212598425196851
        },
        {
          "duration": 0.2624999999999993,
          "durationTicks": 252,
          "midi": 55,
          "name": "G3",
          "ticks": 26880,
          "time": 28,
          "velocity": 0.9212598425196851
        },
        {
          "duration": 0.12083333333333357,
          "durationTicks": 116,
          "midi": 55,
          "name": "G3",
          "ticks": 27180,
          "time": 28.3125,
          "velocity": 0.8503937007874016
        },
        {
          "duration": 0.1437500000000007,
          "durationTicks": 138,
          "midi": 55,
          "name": "G3",
          "ticks": 27540,
          "time": 28.6875,
          "velocity": 0.9212598425196851
        },
        {
          "duration": 0.763541666666665,
          "durationTicks": 733,
          "midi": 55,
          "name": "G3",
          "ticks": 27780,
          "time": 28.9375,
          "velocity": 0.9212598425196851
        },
        {
          "duration": 0.24895833333333428,
          "durationTicks": 239,
          "midi": 55,
          "name": "G3",
          "ticks": 28800,
          "time": 30,
          "velocity": 0.9212598425196851
        },
        {
          "duration": 0.13125000000000142,
          "durationTicks": 126,
          "midi": 55,
          "name": "G3",
          "ticks": 29160,
          "time": 30.375,
          "velocity": 0.9212598425196851
        },
        {
          "duration": 0.11770833333333286,
          "durationTicks": 113,
          "midi": 55,
          "name": "G3",
          "ticks": 29460,
          "time": 30.6875,
          "velocity": 0.9212598425196851
        },
        {
          "duration": 0.814583333333335,
          "durationTicks": 782,
          "midi": 55,
          "name": "G3",
          "ticks": 29700,
          "time": 30.9375,
          "velocity": 0.8503937007874016
        },
        {
          "duration": 0.2083333333333357,
          "durationTicks": 200,
          "midi": 55,
          "name": "G3",
          "ticks": 30720,
          "time": 32,
          "velocity": 0.9212598425196851
        },
        {
          "duration": 0.15625,
          "durationTicks": 150,
          "midi": 55,
          "name": "G3",
          "ticks": 31080,
          "time": 32.375,
          "velocity": 0.8503937007874016
        },
        {
          "duration": 0.12916666666666998,
          "durationTicks": 124,
          "midi": 55,
          "name": "G3",
          "ticks": 31380,
          "time": 32.6875,
          "velocity": 0.9212598425196851
        },
        {
          "duration": 0.8229166666666643,
          "durationTicks": 790,
          "midi": 55,
          "name": "G3",
          "ticks": 31680,
          "time": 33,
          "velocity": 0.8503937007874016
        },
        {
          "duration": 0.25416666666667,
          "durationTicks": 244,
          "midi": 55,
          "name": "G3",
          "ticks": 32640,
          "time": 34,
          "velocity": 0.9212598425196851
        },
        {
          "duration": 0.12708333333333144,
          "durationTicks": 122,
          "midi": 55,
          "name": "G3",
          "ticks": 33000,
          "time": 34.375,
          "velocity": 0.9212598425196851
        },
        {
          "duration": 0.10625000000000284,
          "durationTicks": 102,
          "midi": 55,
          "name": "G3",
          "ticks": 33360,
          "time": 34.75,
          "velocity": 0.9212598425196851
        },
        {
          "duration": 0.7593749999999986,
          "durationTicks": 729,
          "midi": 55,
          "name": "G3",
          "ticks": 33600,
          "time": 35,
          "velocity": 0.9212598425196851
        },
        {
          "duration": 0.1979166666666643,
          "durationTicks": 190,
          "midi": 55,
          "name": "G3",
          "ticks": 34560,
          "time": 36,
          "velocity": 0.9212598425196851
        },
        {
          "duration": 0.14687500000000142,
          "durationTicks": 141,
          "midi": 55,
          "name": "G3",
          "ticks": 34920,
          "time": 36.375,
          "velocity": 0.9212598425196851
        },
        {
          "duration": 0.11666666666666714,
          "durationTicks": 112,
          "midi": 55,
          "name": "G3",
          "ticks": 35220,
          "time": 36.6875,
          "velocity": 0.9212598425196851
        },
        {
          "duration": 0.8218749999999986,
          "durationTicks": 789,
          "midi": 55,
          "name": "G3",
          "ticks": 35520,
          "time": 37,
          "velocity": 0.9212598425196851
        },
        {
          "duration": 0.25208333333333144,
          "durationTicks": 242,
          "midi": 55,
          "name": "G3",
          "ticks": 36480,
          "time": 38,
          "velocity": 0.9212598425196851
        },
        {
          "duration": 0.14374999999999716,
          "durationTicks": 138,
          "midi": 55,
          "name": "G3",
          "ticks": 36840,
          "time": 38.375,
          "velocity": 0.9212598425196851
        },
        {
          "duration": 0.14479166666666998,
          "durationTicks": 139,
          "midi": 55,
          "name": "G3",
          "ticks": 37200,
          "time": 38.75,
          "velocity": 0.9212598425196851
        },
        {
          "duration": 0.7843749999999972,
          "durationTicks": 753,
          "midi": 55,
          "name": "G3",
          "ticks": 37440,
          "time": 39,
          "velocity": 0.8503937007874016
        },
        {
          "duration": 0.22812499999999858,
          "durationTicks": 219,
          "midi": 55,
          "name": "G3",
          "ticks": 38400,
          "time": 40,
          "velocity": 0.8503937007874016
        },
        {
          "duration": 0.13437499999999858,
          "durationTicks": 129,
          "midi": 55,
          "name": "G3",
          "ticks": 38760,
          "time": 40.375,
          "velocity": 0.8503937007874016
        },
        {
          "duration": 0.12812499999999716,
          "durationTicks": 123,
          "midi": 55,
          "name": "G3",
          "ticks": 39060,
          "time": 40.6875,
          "velocity": 0.9212598425196851
        },
        {
          "duration": 0.9135416666666671,
          "durationTicks": 877,
          "midi": 55,
          "name": "G3",
          "ticks": 39360,
          "time": 41,
          "velocity": 0.9212598425196851
        }
      ],
      "endOfTrackTicks": 40237
    },
    {
      "channel": 0,
      "controlChanges": {},
      "pitchBends": [],
      "instrument": {
        "family": "piano",
        "name": "acoustic grand piano",
        "number": 0
      },
      "name": "Membrane",
      "notes": [
        {
          "duration": 2,
          "durationTicks": 1920,
          "midi": 55,
          "name": "G3",
          "ticks": 26880,
          "time": 28,
          "velocity": 0.9212598425196851
        },
        {
          "duration": 0.2624999999999993,
          "durationTicks": 252,
          "midi": 55,
          "name": "G3",
          "ticks": 28800,
          "time": 30,
          "velocity": 0.9212598425196851
        },
        {
          "duration": 0.12083333333333357,
          "durationTicks": 116,
          "midi": 55,
          "name": "G3",
          "ticks": 29100,
          "time": 30.3125,
          "velocity": 0.8503937007874016
        },
        {
          "duration": 0.1437500000000007,
          "durationTicks": 138,
          "midi": 55,
          "name": "G3",
          "ticks": 29460,
          "time": 30.6875,
          "velocity": 0.9212598425196851
        },
        {
          "duration": 0.763541666666665,
          "durationTicks": 733,
          "midi": 55,
          "name": "G3",
          "ticks": 29700,
          "time": 30.9375,
          "velocity": 0.9212598425196851
        },
        {
          "duration": 0.24895833333333428,
          "durationTicks": 239,
          "midi": 55,
          "name": "G3",
          "ticks": 30720,
          "time": 32,
          "velocity": 0.9212598425196851
        },
        {
          "duration": 0.13125000000000142,
          "durationTicks": 126,
          "midi": 55,
          "name": "G3",
          "ticks": 31080,
          "time": 32.375,
          "velocity": 0.9212598425196851
        },
        {
          "duration": 0.11770833333333286,
          "durationTicks": 113,
          "midi": 55,
          "name": "G3",
          "ticks": 31380,
          "time": 32.6875,
          "velocity": 0.9212598425196851
        },
        {
          "duration": 0.8145833333333314,
          "durationTicks": 782,
          "midi": 55,
          "name": "G3",
          "ticks": 31620,
          "time": 32.9375,
          "velocity": 0.8503937007874016
        },
        {
          "duration": 0.2083333333333357,
          "durationTicks": 200,
          "midi": 55,
          "name": "G3",
          "ticks": 32640,
          "time": 34,
          "velocity": 0.9212598425196851
        },
        {
          "duration": 0.15625,
          "durationTicks": 150,
          "midi": 55,
          "name": "G3",
          "ticks": 33000,
          "time": 34.375,
          "velocity": 0.8503937007874016
        },
        {
          "duration": 0.12916666666666998,
          "durationTicks": 124,
          "midi": 55,
          "name": "G3",
          "ticks": 33300,
          "time": 34.6875,
          "velocity": 0.9212598425196851
        },
        {
          "duration": 0.8229166666666643,
          "durationTicks": 790,
          "midi": 55,
          "name": "G3",
          "ticks": 33600,
          "time": 35,
          "velocity": 0.8503937007874016
        },
        {
          "duration": 0.25416666666667,
          "durationTicks": 244,
          "midi": 55,
          "name": "G3",
          "ticks": 34560,
          "time": 36,
          "velocity": 0.9212598425196851
        },
        {
          "duration": 0.12708333333333144,
          "durationTicks": 122,
          "midi": 55,
          "name": "G3",
          "ticks": 34920,
          "time": 36.375,
          "velocity": 0.9212598425196851
        },
        {
          "duration": 0.10625000000000284,
          "durationTicks": 102,
          "midi": 55,
          "name": "G3",
          "ticks": 35280,
          "time": 36.75,
          "velocity": 0.9212598425196851
        },
        {
          "duration": 0.7593749999999986,
          "durationTicks": 729,
          "midi": 55,
          "name": "G3",
          "ticks": 35520,
          "time": 37,
          "velocity": 0.9212598425196851
        },
        {
          "duration": 0.1979166666666643,
          "durationTicks": 190,
          "midi": 55,
          "name": "G3",
          "ticks": 36480,
          "time": 38,
          "velocity": 0.9212598425196851
        },
        {
          "duration": 0.14687500000000142,
          "durationTicks": 141,
          "midi": 55,
          "name": "G3",
          "ticks": 36840,
          "time": 38.375,
          "velocity": 0.9212598425196851
        },
        {
          "duration": 0.11666666666666714,
          "durationTicks": 112,
          "midi": 55,
          "name": "G3",
          "ticks": 37140,
          "time": 38.6875,
          "velocity": 0.9212598425196851
        },
        {
          "duration": 0.8218749999999986,
          "durationTicks": 789,
          "midi": 55,
          "name": "G3",
          "ticks": 37440,
          "time": 39,
          "velocity": 0.9212598425196851
        },
        {
          "duration": 0.25208333333333144,
          "durationTicks": 242,
          "midi": 55,
          "name": "G3",
          "ticks": 38400,
          "time": 40,
          "velocity": 0.9212598425196851
        },
        {
          "duration": 0.14374999999999716,
          "durationTicks": 138,
          "midi": 55,
          "name": "G3",
          "ticks": 38760,
          "time": 40.375,
          "velocity": 0.9212598425196851
        },
        {
          "duration": 0.14479166666666998,
          "durationTicks": 139,
          "midi": 55,
          "name": "G3",
          "ticks": 39120,
          "time": 40.75,
          "velocity": 0.9212598425196851
        },
        {
          "duration": 0.7843749999999972,
          "durationTicks": 753,
          "midi": 55,
          "name": "G3",
          "ticks": 39360,
          "time": 41,
          "velocity": 0.8503937007874016
        },
        {
          "duration": 0.22812499999999858,
          "durationTicks": 219,
          "midi": 55,
          "name": "G3",
          "ticks": 40320,
          "time": 42,
          "velocity": 0.8503937007874016
        },
        {
          "duration": 0.13437499999999858,
          "durationTicks": 129,
          "midi": 55,
          "name": "G3",
          "ticks": 40680,
          "time": 42.375,
          "velocity": 0.8503937007874016
        },
        {
          "duration": 0.12812499999999716,
          "durationTicks": 123,
          "midi": 55,
          "name": "G3",
          "ticks": 40980,
          "time": 42.6875,
          "velocity": 0.9212598425196851
        },
        {
          "duration": 0.9135416666666671,
          "durationTicks": 877,
          "midi": 55,
          "name": "G3",
          "ticks": 41280,
          "time": 43,
          "velocity": 0.9212598425196851
        }
      ],
      "endOfTrackTicks": 42157
    },
    {
      "channel": 0,
      "controlChanges": {},
      "pitchBends": [],
      "instrument": {
        "family": "piano",
        "name": "acoustic grand piano",
        "number": 0
      },
      "name": "Membrane",
      "notes": [
        {
          "duration": 2,
          "durationTicks": 1920,
          "midi": 55,
          "name": "G3",
          "ticks": 28800,
          "time": 30,
          "velocity": 0.9212598425196851
        },
        {
          "duration": 0.26250000000000284,
          "durationTicks": 252,
          "midi": 55,
          "name": "G3",
          "ticks": 30720,
          "time": 32,
          "velocity": 0.9212598425196851
        },
        {
          "duration": 0.12083333333333002,
          "durationTicks": 116,
          "midi": 55,
          "name": "G3",
          "ticks": 31020,
          "time": 32.3125,
          "velocity": 0.8503937007874016
        },
        {
          "duration": 0.14374999999999716,
          "durationTicks": 138,
          "midi": 55,
          "name": "G3",
          "ticks": 31380,
          "time": 32.6875,
          "velocity": 0.9212598425196851
        },
        {
          "duration": 0.7635416666666686,
          "durationTicks": 733,
          "midi": 55,
          "name": "G3",
          "ticks": 31620,
          "time": 32.9375,
          "velocity": 0.9212598425196851
        },
        {
          "duration": 0.24895833333333428,
          "durationTicks": 239,
          "midi": 55,
          "name": "G3",
          "ticks": 32640,
          "time": 34,
          "velocity": 0.9212598425196851
        },
        {
          "duration": 0.13125000000000142,
          "durationTicks": 126,
          "midi": 55,
          "name": "G3",
          "ticks": 33000,
          "time": 34.375,
          "velocity": 0.9212598425196851
        },
        {
          "duration": 0.11770833333333286,
          "durationTicks": 113,
          "midi": 55,
          "name": "G3",
          "ticks": 33300,
          "time": 34.6875,
          "velocity": 0.9212598425196851
        },
        {
          "duration": 0.8145833333333314,
          "durationTicks": 782,
          "midi": 55,
          "name": "G3",
          "ticks": 33540,
          "time": 34.9375,
          "velocity": 0.8503937007874016
        },
        {
          "duration": 0.2083333333333357,
          "durationTicks": 200,
          "midi": 55,
          "name": "G3",
          "ticks": 34560,
          "time": 36,
          "velocity": 0.9212598425196851
        },
        {
          "duration": 0.15625,
          "durationTicks": 150,
          "midi": 55,
          "name": "G3",
          "ticks": 34920,
          "time": 36.375,
          "velocity": 0.8503937007874016
        },
        {
          "duration": 0.12916666666666998,
          "durationTicks": 124,
          "midi": 55,
          "name": "G3",
          "ticks": 35220,
          "time": 36.6875,
          "velocity": 0.9212598425196851
        },
        {
          "duration": 0.8229166666666643,
          "durationTicks": 790,
          "midi": 55,
          "name": "G3",
          "ticks": 35520,
          "time": 37,
          "velocity": 0.8503937007874016
        },
        {
          "duration": 0.25416666666667,
          "durationTicks": 244,
          "midi": 55,
          "name": "G3",
          "ticks": 36480,
          "time": 38,
          "velocity": 0.9212598425196851
        },
        {
          "duration": 0.12708333333333144,
          "durationTicks": 122,
          "midi": 55,
          "name": "G3",
          "ticks": 36840,
          "time": 38.375,
          "velocity": 0.9212598425196851
        },
        {
          "duration": 0.10625000000000284,
          "durationTicks": 102,
          "midi": 55,
          "name": "G3",
          "ticks": 37200,
          "time": 38.75,
          "velocity": 0.9212598425196851
        },
        {
          "duration": 0.7593749999999986,
          "durationTicks": 729,
          "midi": 55,
          "name": "G3",
          "ticks": 37440,
          "time": 39,
          "velocity": 0.9212598425196851
        },
        {
          "duration": 0.1979166666666643,
          "durationTicks": 190,
          "midi": 55,
          "name": "G3",
          "ticks": 38400,
          "time": 40,
          "velocity": 0.9212598425196851
        },
        {
          "duration": 0.14687500000000142,
          "durationTicks": 141,
          "midi": 55,
          "name": "G3",
          "ticks": 38760,
          "time": 40.375,
          "velocity": 0.9212598425196851
        },
        {
          "duration": 0.11666666666666714,
          "durationTicks": 112,
          "midi": 55,
          "name": "G3",
          "ticks": 39060,
          "time": 40.6875,
          "velocity": 0.9212598425196851
        },
        {
          "duration": 0.8218749999999986,
          "durationTicks": 789,
          "midi": 55,
          "name": "G3",
          "ticks": 39360,
          "time": 41,
          "velocity": 0.9212598425196851
        },
        {
          "duration": 0.25208333333333144,
          "durationTicks": 242,
          "midi": 55,
          "name": "G3",
          "ticks": 40320,
          "time": 42,
          "velocity": 0.9212598425196851
        },
        {
          "duration": 0.14374999999999716,
          "durationTicks": 138,
          "midi": 55,
          "name": "G3",
          "ticks": 40680,
          "time": 42.375,
          "velocity": 0.9212598425196851
        },
        {
          "duration": 0.14479166666666998,
          "durationTicks": 139,
          "midi": 55,
          "name": "G3",
          "ticks": 41040,
          "time": 42.75,
          "velocity": 0.9212598425196851
        },
        {
          "duration": 0.7843749999999972,
          "durationTicks": 753,
          "midi": 55,
          "name": "G3",
          "ticks": 41280,
          "time": 43,
          "velocity": 0.8503937007874016
        },
        {
          "duration": 0.22812499999999858,
          "durationTicks": 219,
          "midi": 55,
          "name": "G3",
          "ticks": 42240,
          "time": 44,
          "velocity": 0.8503937007874016
        },
        {
          "duration": 0.13437499999999858,
          "durationTicks": 129,
          "midi": 55,
          "name": "G3",
          "ticks": 42600,
          "time": 44.375,
          "velocity": 0.8503937007874016
        },
        {
          "duration": 0.12812499999999716,
          "durationTicks": 123,
          "midi": 55,
          "name": "G3",
          "ticks": 42900,
          "time": 44.6875,
          "velocity": 0.9212598425196851
        },
        {
          "duration": 0.9135416666666671,
          "durationTicks": 877,
          "midi": 55,
          "name": "G3",
          "ticks": 43200,
          "time": 45,
          "velocity": 0.9212598425196851
        }
      ],
      "endOfTrackTicks": 44077
    },
    {
      "channel": 0,
      "controlChanges": {},
      "pitchBends": [],
      "instrument": {
        "family": "piano",
        "name": "acoustic grand piano",
        "number": 0
      },
      "name": "Membrane",
      "notes": [
        {
          "duration": 2,
          "durationTicks": 1920,
          "midi": 55,
          "name": "G3",
          "ticks": 32640,
          "time": 34,
          "velocity": 0.9212598425196851
        },
        {
          "duration": 0.26250000000000284,
          "durationTicks": 252,
          "midi": 55,
          "name": "G3",
          "ticks": 34560,
          "time": 36,
          "velocity": 0.9212598425196851
        },
        {
          "duration": 0.12083333333333002,
          "durationTicks": 116,
          "midi": 55,
          "name": "G3",
          "ticks": 34860,
          "time": 36.3125,
          "velocity": 0.8503937007874016
        },
        {
          "duration": 0.14374999999999716,
          "durationTicks": 138,
          "midi": 55,
          "name": "G3",
          "ticks": 35220,
          "time": 36.6875,
          "velocity": 0.9212598425196851
        },
        {
          "duration": 0.7635416666666686,
          "durationTicks": 733,
          "midi": 55,
          "name": "G3",
          "ticks": 35460,
          "time": 36.9375,
          "velocity": 0.9212598425196851
        },
        {
          "duration": 0.24895833333333428,
          "durationTicks": 239,
          "midi": 55,
          "name": "G3",
          "ticks": 36480,
          "time": 38,
          "velocity": 0.9212598425196851
        },
        {
          "duration": 0.13125000000000142,
          "durationTicks": 126,
          "midi": 55,
          "name": "G3",
          "ticks": 36840,
          "time": 38.375,
          "velocity": 0.9212598425196851
        },
        {
          "duration": 0.11770833333333286,
          "durationTicks": 113,
          "midi": 55,
          "name": "G3",
          "ticks": 37140,
          "time": 38.6875,
          "velocity": 0.9212598425196851
        },
        {
          "duration": 0.8145833333333314,
          "durationTicks": 782,
          "midi": 55,
          "name": "G3",
          "ticks": 37380,
          "time": 38.9375,
          "velocity": 0.8503937007874016
        },
        {
          "duration": 0.2083333333333357,
          "durationTicks": 200,
          "midi": 55,
          "name": "G3",
          "ticks": 38400,
          "time": 40,
          "velocity": 0.9212598425196851
        },
        {
          "duration": 0.15625,
          "durationTicks": 150,
          "midi": 55,
          "name": "G3",
          "ticks": 38760,
          "time": 40.375,
          "velocity": 0.8503937007874016
        },
        {
          "duration": 0.12916666666666998,
          "durationTicks": 124,
          "midi": 55,
          "name": "G3",
          "ticks": 39060,
          "time": 40.6875,
          "velocity": 0.9212598425196851
        },
        {
          "duration": 0.8229166666666643,
          "durationTicks": 790,
          "midi": 55,
          "name": "G3",
          "ticks": 39360,
          "time": 41,
          "velocity": 0.8503937007874016
        }
      ],
      "endOfTrackTicks": 40150
    },
    {
      "channel": 0,
      "controlChanges": {},
      "pitchBends": [],
      "instrument": {
        "family": "piano",
        "name": "acoustic grand piano",
        "number": 0
      },
      "name": "Membrane",
      "notes": [
        {
          "duration": 2,
          "durationTicks": 1920,
          "midi": 55,
          "name": "G3",
          "ticks": 34560,
          "time": 36,
          "velocity": 0.9212598425196851
        },
        {
          "duration": 0.26250000000000284,
          "durationTicks": 252,
          "midi": 55,
          "name": "G3",
          "ticks": 36480,
          "time": 38,
          "velocity": 0.9212598425196851
        },
        {
          "duration": 0.12083333333333002,
          "durationTicks": 116,
          "midi": 55,
          "name": "G3",
          "ticks": 36780,
          "time": 38.3125,
          "velocity": 0.8503937007874016
        },
        {
          "duration": 0.14374999999999716,
          "durationTicks": 138,
          "midi": 55,
          "name": "G3",
          "ticks": 37140,
          "time": 38.6875,
          "velocity": 0.9212598425196851
        },
        {
          "duration": 0.7635416666666686,
          "durationTicks": 733,
          "midi": 55,
          "name": "G3",
          "ticks": 37380,
          "time": 38.9375,
          "velocity": 0.9212598425196851
        },
        {
          "duration": 0.24895833333333428,
          "durationTicks": 239,
          "midi": 55,
          "name": "G3",
          "ticks": 38400,
          "time": 40,
          "velocity": 0.9212598425196851
        },
        {
          "duration": 0.13125000000000142,
          "durationTicks": 126,
          "midi": 55,
          "name": "G3",
          "ticks": 38760,
          "time": 40.375,
          "velocity": 0.9212598425196851
        },
        {
          "duration": 0.11770833333333286,
          "durationTicks": 113,
          "midi": 55,
          "name": "G3",
          "ticks": 39060,
          "time": 40.6875,
          "velocity": 0.9212598425196851
        },
        {
          "duration": 0.8145833333333314,
          "durationTicks": 782,
          "midi": 55,
          "name": "G3",
          "ticks": 39300,
          "time": 40.9375,
          "velocity": 0.8503937007874016
        },
        {
          "duration": 0.2083333333333357,
          "durationTicks": 200,
          "midi": 55,
          "name": "G3",
          "ticks": 40320,
          "time": 42,
          "velocity": 0.9212598425196851
        },
        {
          "duration": 0.15625,
          "durationTicks": 150,
          "midi": 55,
          "name": "G3",
          "ticks": 40680,
          "time": 42.375,
          "velocity": 0.8503937007874016
        },
        {
          "duration": 0.12916666666666998,
          "durationTicks": 124,
          "midi": 55,
          "name": "G3",
          "ticks": 40980,
          "time": 42.6875,
          "velocity": 0.9212598425196851
        },
        {
          "duration": 0.8229166666666643,
          "durationTicks": 790,
          "midi": 55,
          "name": "G3",
          "ticks": 41280,
          "time": 43,
          "velocity": 0.8503937007874016
        }
      ],
      "endOfTrackTicks": 42070
    },
    {
      "channel": 0,
      "controlChanges": {},
      "pitchBends": [],
      "instrument": {
        "family": "piano",
        "name": "acoustic grand piano",
        "number": 0
      },
      "name": "Membrane",
      "notes": [
        {
          "duration": 2,
          "durationTicks": 1920,
          "midi": 55,
          "name": "G3",
          "ticks": 36480,
          "time": 38,
          "velocity": 0.9212598425196851
        },
        {
          "duration": 0.26250000000000284,
          "durationTicks": 252,
          "midi": 55,
          "name": "G3",
          "ticks": 38400,
          "time": 40,
          "velocity": 0.9212598425196851
        },
        {
          "duration": 0.12083333333333002,
          "durationTicks": 116,
          "midi": 55,
          "name": "G3",
          "ticks": 38700,
          "time": 40.3125,
          "velocity": 0.8503937007874016
        },
        {
          "duration": 0.14374999999999716,
          "durationTicks": 138,
          "midi": 55,
          "name": "G3",
          "ticks": 39060,
          "time": 40.6875,
          "velocity": 0.9212598425196851
        },
        {
          "duration": 0.7635416666666686,
          "durationTicks": 733,
          "midi": 55,
          "name": "G3",
          "ticks": 39300,
          "time": 40.9375,
          "velocity": 0.9212598425196851
        },
        {
          "duration": 0.24895833333333428,
          "durationTicks": 239,
          "midi": 55,
          "name": "G3",
          "ticks": 40320,
          "time": 42,
          "velocity": 0.9212598425196851
        },
        {
          "duration": 0.13125000000000142,
          "durationTicks": 126,
          "midi": 55,
          "name": "G3",
          "ticks": 40680,
          "time": 42.375,
          "velocity": 0.9212598425196851
        },
        {
          "duration": 0.11770833333333286,
          "durationTicks": 113,
          "midi": 55,
          "name": "G3",
          "ticks": 40980,
          "time": 42.6875,
          "velocity": 0.9212598425196851
        },
        {
          "duration": 0.8145833333333314,
          "durationTicks": 782,
          "midi": 55,
          "name": "G3",
          "ticks": 41220,
          "time": 42.9375,
          "velocity": 0.8503937007874016
        },
        {
          "duration": 0.2083333333333357,
          "durationTicks": 200,
          "midi": 55,
          "name": "G3",
          "ticks": 42240,
          "time": 44,
          "velocity": 0.9212598425196851
        },
        {
          "duration": 0.15625,
          "durationTicks": 150,
          "midi": 55,
          "name": "G3",
          "ticks": 42600,
          "time": 44.375,
          "velocity": 0.8503937007874016
        },
        {
          "duration": 0.12916666666666998,
          "durationTicks": 124,
          "midi": 55,
          "name": "G3",
          "ticks": 42900,
          "time": 44.6875,
          "velocity": 0.9212598425196851
        },
        {
          "duration": 0.8229166666666643,
          "durationTicks": 790,
          "midi": 55,
          "name": "G3",
          "ticks": 43200,
          "time": 45,
          "velocity": 0.8503937007874016
        }
      ],
      "endOfTrackTicks": 43990
    },
    {
      "channel": 0,
      "controlChanges": {},
      "pitchBends": [],
      "instrument": {
        "family": "piano",
        "name": "acoustic grand piano",
        "number": 0
      },
      "name": "Membrane",
      "notes": [
        {
          "duration": 2,
          "durationTicks": 1920,
          "midi": 55,
          "name": "G3",
          "ticks": 38400,
          "time": 40,
          "velocity": 0.9212598425196851
        },
        {
          "duration": 0.26250000000000284,
          "durationTicks": 252,
          "midi": 55,
          "name": "G3",
          "ticks": 40320,
          "time": 42,
          "velocity": 0.9212598425196851
        },
        {
          "duration": 0.12083333333333002,
          "durationTicks": 116,
          "midi": 55,
          "name": "G3",
          "ticks": 40620,
          "time": 42.3125,
          "velocity": 0.8503937007874016
        },
        {
          "duration": 0.14374999999999716,
          "durationTicks": 138,
          "midi": 55,
          "name": "G3",
          "ticks": 40980,
          "time": 42.6875,
          "velocity": 0.9212598425196851
        },
        {
          "duration": 0.7635416666666686,
          "durationTicks": 733,
          "midi": 55,
          "name": "G3",
          "ticks": 41220,
          "time": 42.9375,
          "velocity": 0.9212598425196851
        },
        {
          "duration": 0.24895833333333428,
          "durationTicks": 239,
          "midi": 55,
          "name": "G3",
          "ticks": 42240,
          "time": 44,
          "velocity": 0.9212598425196851
        },
        {
          "duration": 0.13125000000000142,
          "durationTicks": 126,
          "midi": 55,
          "name": "G3",
          "ticks": 42600,
          "time": 44.375,
          "velocity": 0.9212598425196851
        },
        {
          "duration": 0.11770833333333286,
          "durationTicks": 113,
          "midi": 55,
          "name": "G3",
          "ticks": 42900,
          "time": 44.6875,
          "velocity": 0.9212598425196851
        },
        {
          "duration": 0.8145833333333314,
          "durationTicks": 782,
          "midi": 55,
          "name": "G3",
          "ticks": 43140,
          "time": 44.9375,
          "velocity": 0.8503937007874016
        },
        {
          "duration": 0.2083333333333357,
          "durationTicks": 200,
          "midi": 55,
          "name": "G3",
          "ticks": 44160,
          "time": 46,
          "velocity": 0.9212598425196851
        },
        {
          "duration": 0.15625,
          "durationTicks": 150,
          "midi": 55,
          "name": "G3",
          "ticks": 44520,
          "time": 46.375,
          "velocity": 0.8503937007874016
        },
        {
          "duration": 0.12916666666666998,
          "durationTicks": 124,
          "midi": 55,
          "name": "G3",
          "ticks": 44820,
          "time": 46.6875,
          "velocity": 0.9212598425196851
        },
        {
          "duration": 0.8229166666666643,
          "durationTicks": 790,
          "midi": 55,
          "name": "G3",
          "ticks": 45120,
          "time": 47,
          "velocity": 0.8503937007874016
        }
      ],
      "endOfTrackTicks": 45910
    },
    {
      "channel": 0,
      "controlChanges": {},
      "pitchBends": [],
      "instrument": {
        "family": "piano",
        "name": "acoustic grand piano",
        "number": 0
      },
      "name": "Membrane",
      "notes": [
        {
          "duration": 2,
          "durationTicks": 1920,
          "midi": 55,
          "name": "G3",
          "ticks": 40320,
          "time": 42,
          "velocity": 0.9212598425196851
        },
        {
          "duration": 0.26250000000000284,
          "durationTicks": 252,
          "midi": 55,
          "name": "G3",
          "ticks": 42240,
          "time": 44,
          "velocity": 0.9212598425196851
        },
        {
          "duration": 0.12083333333333002,
          "durationTicks": 116,
          "midi": 55,
          "name": "G3",
          "ticks": 42540,
          "time": 44.3125,
          "velocity": 0.8503937007874016
        },
        {
          "duration": 0.14374999999999716,
          "durationTicks": 138,
          "midi": 55,
          "name": "G3",
          "ticks": 42900,
          "time": 44.6875,
          "velocity": 0.9212598425196851
        },
        {
          "duration": 0.7635416666666686,
          "durationTicks": 733,
          "midi": 55,
          "name": "G3",
          "ticks": 43140,
          "time": 44.9375,
          "velocity": 0.9212598425196851
        },
        {
          "duration": 0.24895833333333428,
          "durationTicks": 239,
          "midi": 55,
          "name": "G3",
          "ticks": 44160,
          "time": 46,
          "velocity": 0.9212598425196851
        },
        {
          "duration": 0.13125000000000142,
          "durationTicks": 126,
          "midi": 55,
          "name": "G3",
          "ticks": 44520,
          "time": 46.375,
          "velocity": 0.9212598425196851
        },
        {
          "duration": 0.11770833333333286,
          "durationTicks": 113,
          "midi": 55,
          "name": "G3",
          "ticks": 44820,
          "time": 46.6875,
          "velocity": 0.9212598425196851
        },
        {
          "duration": 0.8145833333333314,
          "durationTicks": 782,
          "midi": 55,
          "name": "G3",
          "ticks": 45060,
          "time": 46.9375,
          "velocity": 0.8503937007874016
        },
        {
          "duration": 0.2083333333333357,
          "durationTicks": 200,
          "midi": 55,
          "name": "G3",
          "ticks": 46080,
          "time": 48,
          "velocity": 0.9212598425196851
        },
        {
          "duration": 0.15625,
          "durationTicks": 150,
          "midi": 55,
          "name": "G3",
          "ticks": 46440,
          "time": 48.375,
          "velocity": 0.8503937007874016
        },
        {
          "duration": 0.12916666666666998,
          "durationTicks": 124,
          "midi": 55,
          "name": "G3",
          "ticks": 46740,
          "time": 48.6875,
          "velocity": 0.9212598425196851
        }
      ],
      "endOfTrackTicks": 46864
    },
    {
      "channel": 0,
      "controlChanges": {},
      "pitchBends": [],
      "instrument": {
        "family": "piano",
        "name": "acoustic grand piano",
        "number": 0
      },
      "name": "Membrane",
      "notes": [
        {
          "duration": 2,
          "durationTicks": 1920,
          "midi": 55,
          "name": "G3",
          "ticks": 42240,
          "time": 44,
          "velocity": 0.9212598425196851
        },
        {
          "duration": 0.26250000000000284,
          "durationTicks": 252,
          "midi": 55,
          "name": "G3",
          "ticks": 44160,
          "time": 46,
          "velocity": 0.9212598425196851
        },
        {
          "duration": 0.12083333333333002,
          "durationTicks": 116,
          "midi": 55,
          "name": "G3",
          "ticks": 44460,
          "time": 46.3125,
          "velocity": 0.8503937007874016
        },
        {
          "duration": 0.14374999999999716,
          "durationTicks": 138,
          "midi": 55,
          "name": "G3",
          "ticks": 44820,
          "time": 46.6875,
          "velocity": 0.9212598425196851
        },
        {
          "duration": 0.7635416666666686,
          "durationTicks": 733,
          "midi": 55,
          "name": "G3",
          "ticks": 45060,
          "time": 46.9375,
          "velocity": 0.9212598425196851
        },
        {
          "duration": 0.24895833333333428,
          "durationTicks": 239,
          "midi": 55,
          "name": "G3",
          "ticks": 46080,
          "time": 48,
          "velocity": 0.9212598425196851
        },
        {
          "duration": 0.13125000000000142,
          "durationTicks": 126,
          "midi": 55,
          "name": "G3",
          "ticks": 46440,
          "time": 48.375,
          "velocity": 0.9212598425196851
        },
        {
          "duration": 0.11770833333333286,
          "durationTicks": 113,
          "midi": 55,
          "name": "G3",
          "ticks": 46740,
          "time": 48.6875,
          "velocity": 0.9212598425196851
        },
        {
          "duration": 0.8145833333333314,
          "durationTicks": 782,
          "midi": 55,
          "name": "G3",
          "ticks": 46980,
          "time": 48.9375,
          "velocity": 0.8503937007874016
        },
        {
          "duration": 0.2083333333333357,
          "durationTicks": 200,
          "midi": 55,
          "name": "G3",
          "ticks": 48000,
          "time": 50,
          "velocity": 0.9212598425196851
        },
        {
          "duration": 0.15625,
          "durationTicks": 150,
          "midi": 55,
          "name": "G3",
          "ticks": 48360,
          "time": 50.375,
          "velocity": 0.8503937007874016
        },
        {
          "duration": 0.12916666666666998,
          "durationTicks": 124,
          "midi": 55,
          "name": "G3",
          "ticks": 48660,
          "time": 50.6875,
          "velocity": 0.9212598425196851
        }
      ],
      "endOfTrackTicks": 48784
    },
    {
      "channel": 0,
      "controlChanges": {},
      "pitchBends": [],
      "instrument": {
        "family": "piano",
        "name": "acoustic grand piano",
        "number": 0
      },
      "name": "Membrane",
      "notes": [
        {
          "duration": 2,
          "durationTicks": 1920,
          "midi": 55,
          "name": "G3",
          "ticks": 44160,
          "time": 46,
          "velocity": 0.9212598425196851
        },
        {
          "duration": 0.26250000000000284,
          "durationTicks": 252,
          "midi": 55,
          "name": "G3",
          "ticks": 46080,
          "time": 48,
          "velocity": 0.9212598425196851
        },
        {
          "duration": 0.12083333333333002,
          "durationTicks": 116,
          "midi": 55,
          "name": "G3",
          "ticks": 46380,
          "time": 48.3125,
          "velocity": 0.8503937007874016
        },
        {
          "duration": 0.14374999999999716,
          "durationTicks": 138,
          "midi": 55,
          "name": "G3",
          "ticks": 46740,
          "time": 48.6875,
          "velocity": 0.9212598425196851
        },
        {
          "duration": 0.7635416666666686,
          "durationTicks": 733,
          "midi": 55,
          "name": "G3",
          "ticks": 46980,
          "time": 48.9375,
          "velocity": 0.9212598425196851
        },
        {
          "duration": 0.24895833333333428,
          "durationTicks": 239,
          "midi": 55,
          "name": "G3",
          "ticks": 48000,
          "time": 50,
          "velocity": 0.9212598425196851
        },
        {
          "duration": 0.13125000000000142,
          "durationTicks": 126,
          "midi": 55,
          "name": "G3",
          "ticks": 48360,
          "time": 50.375,
          "velocity": 0.9212598425196851
        },
        {
          "duration": 0.11770833333333286,
          "durationTicks": 113,
          "midi": 55,
          "name": "G3",
          "ticks": 48660,
          "time": 50.6875,
          "velocity": 0.9212598425196851
        },
        {
          "duration": 0.8145833333333314,
          "durationTicks": 782,
          "midi": 55,
          "name": "G3",
          "ticks": 48900,
          "time": 50.9375,
          "velocity": 0.8503937007874016
        },
        {
          "duration": 0.2083333333333357,
          "durationTicks": 200,
          "midi": 55,
          "name": "G3",
          "ticks": 49920,
          "time": 52,
          "velocity": 0.9212598425196851
        },
        {
          "duration": 0.15625,
          "durationTicks": 150,
          "midi": 55,
          "name": "G3",
          "ticks": 50280,
          "time": 52.375,
          "velocity": 0.8503937007874016
        },
        {
          "duration": 0.12916666666666998,
          "durationTicks": 124,
          "midi": 55,
          "name": "G3",
          "ticks": 50580,
          "time": 52.6875,
          "velocity": 0.9212598425196851
        }
      ],
      "endOfTrackTicks": 50704
    },
    {
      "channel": 0,
      "controlChanges": {},
      "pitchBends": [],
      "instrument": {
        "family": "piano",
        "name": "acoustic grand piano",
        "number": 0
      },
      "name": "Membrane",
      "notes": [
        {
          "duration": 2,
          "durationTicks": 1920,
          "midi": 55,
          "name": "G3",
          "ticks": 46080,
          "time": 48,
          "velocity": 0.9212598425196851
        },
        {
          "duration": 0.26250000000000284,
          "durationTicks": 252,
          "midi": 55,
          "name": "G3",
          "ticks": 48000,
          "time": 50,
          "velocity": 0.9212598425196851
        },
        {
          "duration": 0.12083333333333002,
          "durationTicks": 116,
          "midi": 55,
          "name": "G3",
          "ticks": 48300,
          "time": 50.3125,
          "velocity": 0.8503937007874016
        },
        {
          "duration": 0.14374999999999716,
          "durationTicks": 138,
          "midi": 55,
          "name": "G3",
          "ticks": 48660,
          "time": 50.6875,
          "velocity": 0.9212598425196851
        },
        {
          "duration": 0.7635416666666686,
          "durationTicks": 733,
          "midi": 55,
          "name": "G3",
          "ticks": 48900,
          "time": 50.9375,
          "velocity": 0.9212598425196851
        },
        {
          "duration": 0.24895833333333428,
          "durationTicks": 239,
          "midi": 55,
          "name": "G3",
          "ticks": 49920,
          "time": 52,
          "velocity": 0.9212598425196851
        },
        {
          "duration": 0.13125000000000142,
          "durationTicks": 126,
          "midi": 55,
          "name": "G3",
          "ticks": 50280,
          "time": 52.375,
          "velocity": 0.9212598425196851
        },
        {
          "duration": 0.11770833333333286,
          "durationTicks": 113,
          "midi": 55,
          "name": "G3",
          "ticks": 50580,
          "time": 52.6875,
          "velocity": 0.9212598425196851
        },
        {
          "duration": 0.8145833333333314,
          "durationTicks": 782,
          "midi": 55,
          "name": "G3",
          "ticks": 50820,
          "time": 52.9375,
          "velocity": 0.8503937007874016
        },
        {
          "duration": 0.2083333333333357,
          "durationTicks": 200,
          "midi": 55,
          "name": "G3",
          "ticks": 51840,
          "time": 54,
          "velocity": 0.9212598425196851
        },
        {
          "duration": 0.15625,
          "durationTicks": 150,
          "midi": 55,
          "name": "G3",
          "ticks": 52200,
          "time": 54.375,
          "velocity": 0.8503937007874016
        },
        {
          "duration": 0.12916666666666998,
          "durationTicks": 124,
          "midi": 55,
          "name": "G3",
          "ticks": 52500,
          "time": 54.6875,
          "velocity": 0.9212598425196851
        }
      ],
      "endOfTrackTicks": 52624
    },
    {
      "channel": 0,
      "controlChanges": {},
      "pitchBends": [],
      "instrument": {
        "family": "piano",
        "name": "acoustic grand piano",
        "number": 0
      },
      "name": "Metal Machine",
      "notes": [
        {
          "duration": 1,
          "durationTicks": 960,
          "midi": 55,
          "name": "G3",
          "ticks": 24960,
          "time": 26,
          "velocity": 0.6850393700787402
        }
      ],
      "endOfTrackTicks": 25920
    },
    {
      "channel": 0,
      "controlChanges": {},
      "pitchBends": [],
      "instrument": {
        "family": "piano",
        "name": "acoustic grand piano",
        "number": 0
      },
      "name": "Metal Machine",
      "notes": [
        {
          "duration": 1.0010416666666657,
          "durationTicks": 961,
          "midi": 55,
          "name": "G3",
          "ticks": 25919,
          "time": 26.998958333333334,
          "velocity": 0.6850393700787402
        }
      ],
      "endOfTrackTicks": 26880
    },
    {
      "channel": 0,
      "controlChanges": {},
      "pitchBends": [],
      "instrument": {
        "family": "piano",
        "name": "acoustic grand piano",
        "number": 0
      },
      "name": "Metal Machine",
      "notes": [
        {
          "duration": 1.0010416666666657,
          "durationTicks": 961,
          "midi": 55,
          "name": "G3",
          "ticks": 26879,
          "time": 27.998958333333334,
          "velocity": 0.6850393700787402
        }
      ],
      "endOfTrackTicks": 27840
    },
    {
      "channel": 0,
      "controlChanges": {},
      "pitchBends": [],
      "instrument": {
        "family": "piano",
        "name": "acoustic grand piano",
        "number": 0
      },
      "name": "Metal Machine",
      "notes": [
        {
          "duration": 1.0010416666666657,
          "durationTicks": 961,
          "midi": 55,
          "name": "G3",
          "ticks": 27839,
          "time": 28.998958333333334,
          "velocity": 0.6850393700787402
        }
      ],
      "endOfTrackTicks": 28800
    },
    {
      "channel": 0,
      "controlChanges": {},
      "pitchBends": [],
      "instrument": {
        "family": "piano",
        "name": "acoustic grand piano",
        "number": 0
      },
      "name": "Metal Machine",
      "notes": [
        {
          "duration": 1.0010416666666657,
          "durationTicks": 961,
          "midi": 55,
          "name": "G3",
          "ticks": 28799,
          "time": 29.998958333333334,
          "velocity": 0.6850393700787402
        }
      ],
      "endOfTrackTicks": 29760
    },
    {
      "channel": 0,
      "controlChanges": {},
      "pitchBends": [],
      "instrument": {
        "family": "piano",
        "name": "acoustic grand piano",
        "number": 0
      },
      "name": "Metal Machine",
      "notes": [
        {
          "duration": 1.0010416666666657,
          "durationTicks": 961,
          "midi": 55,
          "name": "G3",
          "ticks": 29759,
          "time": 30.998958333333334,
          "velocity": 0.6850393700787402
        }
      ],
      "endOfTrackTicks": 30720
    },
    {
      "channel": 0,
      "controlChanges": {},
      "pitchBends": [],
      "instrument": {
        "family": "piano",
        "name": "acoustic grand piano",
        "number": 0
      },
      "name": "Metal Machine",
      "notes": [
        {
          "duration": 1,
          "durationTicks": 960,
          "midi": 55,
          "name": "G3",
          "ticks": 32640,
          "time": 34,
          "velocity": 0.6850393700787402
        }
      ],
      "endOfTrackTicks": 33600
    },
    {
      "channel": 0,
      "controlChanges": {},
      "pitchBends": [],
      "instrument": {
        "family": "piano",
        "name": "acoustic grand piano",
        "number": 0
      },
      "name": "Metal Machine",
      "notes": [
        {
          "duration": 1.0010416666666657,
          "durationTicks": 961,
          "midi": 55,
          "name": "G3",
          "ticks": 33599,
          "time": 34.998958333333334,
          "velocity": 0.6850393700787402
        }
      ],
      "endOfTrackTicks": 34560
    },
    {
      "channel": 0,
      "controlChanges": {},
      "pitchBends": [],
      "instrument": {
        "family": "piano",
        "name": "acoustic grand piano",
        "number": 0
      },
      "name": "Metal Machine",
      "notes": [
        {
          "duration": 1.0010416666666657,
          "durationTicks": 961,
          "midi": 55,
          "name": "G3",
          "ticks": 34559,
          "time": 35.998958333333334,
          "velocity": 0.6850393700787402
        }
      ],
      "endOfTrackTicks": 35520
    },
    {
      "channel": 0,
      "controlChanges": {},
      "pitchBends": [],
      "instrument": {
        "family": "piano",
        "name": "acoustic grand piano",
        "number": 0
      },
      "name": "Metal Machine",
      "notes": [
        {
          "duration": 1.0010416666666657,
          "durationTicks": 961,
          "midi": 55,
          "name": "G3",
          "ticks": 35519,
          "time": 36.998958333333334,
          "velocity": 0.6850393700787402
        }
      ],
      "endOfTrackTicks": 36480
    },
    {
      "channel": 0,
      "controlChanges": {},
      "pitchBends": [],
      "instrument": {
        "family": "piano",
        "name": "acoustic grand piano",
        "number": 0
      },
      "name": "Metal Machine",
      "notes": [
        {
          "duration": 1.0010416666666657,
          "durationTicks": 961,
          "midi": 55,
          "name": "G3",
          "ticks": 36479,
          "time": 37.998958333333334,
          "velocity": 0.6850393700787402
        }
      ],
      "endOfTrackTicks": 37440
    },
    {
      "channel": 0,
      "controlChanges": {},
      "pitchBends": [],
      "instrument": {
        "family": "piano",
        "name": "acoustic grand piano",
        "number": 0
      },
      "name": "Metal Machine",
      "notes": [
        {
          "duration": 1.0010416666666657,
          "durationTicks": 961,
          "midi": 55,
          "name": "G3",
          "ticks": 37439,
          "time": 38.998958333333334,
          "velocity": 0.6850393700787402
        }
      ],
      "endOfTrackTicks": 38400
    },
    {
      "channel": 0,
      "controlChanges": {},
      "pitchBends": [],
      "instrument": {
        "family": "piano",
        "name": "acoustic grand piano",
        "number": 0
      },
      "name": "Metal Machine",
      "notes": [
        {
          "duration": 1.0010416666666657,
          "durationTicks": 961,
          "midi": 55,
          "name": "G3",
          "ticks": 38399,
          "time": 39.998958333333334,
          "velocity": 0.6850393700787402
        }
      ],
      "endOfTrackTicks": 39360
    },
    {
      "channel": 0,
      "controlChanges": {},
      "pitchBends": [],
      "instrument": {
        "family": "piano",
        "name": "acoustic grand piano",
        "number": 0
      },
      "name": "Metal Machine",
      "notes": [
        {
          "duration": 1,
          "durationTicks": 960,
          "midi": 55,
          "name": "G3",
          "ticks": 40320,
          "time": 42,
          "velocity": 0.6850393700787402
        }
      ],
      "endOfTrackTicks": 41280
    },
    {
      "channel": 0,
      "controlChanges": {},
      "pitchBends": [],
      "instrument": {
        "family": "piano",
        "name": "acoustic grand piano",
        "number": 0
      },
      "name": "Metal Machine",
      "notes": [
        {
          "duration": 1.0010416666666657,
          "durationTicks": 961,
          "midi": 55,
          "name": "G3",
          "ticks": 41279,
          "time": 42.998958333333334,
          "velocity": 0.6850393700787402
        }
      ],
      "endOfTrackTicks": 42240
    },
    {
      "channel": 0,
      "controlChanges": {},
      "pitchBends": [],
      "instrument": {
        "family": "piano",
        "name": "acoustic grand piano",
        "number": 0
      },
      "name": "Metal Machine",
      "notes": [
        {
          "duration": 1.0010416666666657,
          "durationTicks": 961,
          "midi": 55,
          "name": "G3",
          "ticks": 42239,
          "time": 43.998958333333334,
          "velocity": 0.6850393700787402
        }
      ],
      "endOfTrackTicks": 43200
    },
    {
      "channel": 0,
      "controlChanges": {},
      "pitchBends": [],
      "instrument": {
        "family": "piano",
        "name": "acoustic grand piano",
        "number": 0
      },
      "name": "Metal Machine",
      "notes": [
        {
          "duration": 1.0010416666666657,
          "durationTicks": 961,
          "midi": 55,
          "name": "G3",
          "ticks": 43199,
          "time": 44.998958333333334,
          "velocity": 0.6850393700787402
        }
      ],
      "endOfTrackTicks": 44160
    },
    {
      "channel": 0,
      "controlChanges": {},
      "pitchBends": [],
      "instrument": {
        "family": "piano",
        "name": "acoustic grand piano",
        "number": 0
      },
      "name": "Metal Machine",
      "notes": [
        {
          "duration": 1.0010416666666657,
          "durationTicks": 961,
          "midi": 55,
          "name": "G3",
          "ticks": 44159,
          "time": 45.998958333333334,
          "velocity": 0.6850393700787402
        }
      ],
      "endOfTrackTicks": 45120
    },
    {
      "channel": 0,
      "controlChanges": {},
      "pitchBends": [],
      "instrument": {
        "family": "piano",
        "name": "acoustic grand piano",
        "number": 0
      },
      "name": "Metal Machine",
      "notes": [
        {
          "duration": 1.0010416666666657,
          "durationTicks": 961,
          "midi": 55,
          "name": "G3",
          "ticks": 45119,
          "time": 46.998958333333334,
          "velocity": 0.6850393700787402
        }
      ],
      "endOfTrackTicks": 46080
    },
    {
      "channel": 0,
      "controlChanges": {},
      "pitchBends": [],
      "instrument": {
        "family": "piano",
        "name": "acoustic grand piano",
        "number": 0
      },
      "name": "Metal Machine",
      "notes": [
        {
          "duration": 1.0010416666666657,
          "durationTicks": 961,
          "midi": 55,
          "name": "G3",
          "ticks": 46079,
          "time": 47.998958333333334,
          "velocity": 0.6850393700787402
        }
      ],
      "endOfTrackTicks": 47040
    },
    {
      "channel": 0,
      "controlChanges": {},
      "pitchBends": [],
      "instrument": {
        "family": "piano",
        "name": "acoustic grand piano",
        "number": 0
      },
      "name": "Metal Machine",
      "notes": [
        {
          "duration": 1,
          "durationTicks": 960,
          "midi": 55,
          "name": "G3",
          "ticks": 5760,
          "time": 6,
          "velocity": 0.6850393700787402
        }
      ],
      "endOfTrackTicks": 6720
    },
    {
      "channel": 0,
      "controlChanges": {},
      "pitchBends": [],
      "instrument": {
        "family": "piano",
        "name": "acoustic grand piano",
        "number": 0
      },
      "name": "Metal Machine",
      "notes": [
        {
          "duration": 1.0010416666666666,
          "durationTicks": 961,
          "midi": 55,
          "name": "G3",
          "ticks": 6719,
          "time": 6.998958333333333,
          "velocity": 0.6850393700787402
        }
      ],
      "endOfTrackTicks": 7680
    },
    {
      "channel": 0,
      "controlChanges": {},
      "pitchBends": [],
      "instrument": {
        "family": "piano",
        "name": "acoustic grand piano",
        "number": 0
      },
      "name": "Metal Machine",
      "notes": [
        {
          "duration": 1.0010416666666666,
          "durationTicks": 961,
          "midi": 55,
          "name": "G3",
          "ticks": 7679,
          "time": 7.998958333333333,
          "velocity": 0.6850393700787402
        }
      ],
      "endOfTrackTicks": 8640
    },
    {
      "channel": 0,
      "controlChanges": {},
      "pitchBends": [],
      "instrument": {
        "family": "piano",
        "name": "acoustic grand piano",
        "number": 0
      },
      "name": "Metal Machine",
      "notes": [
        {
          "duration": 1.0010416666666675,
          "durationTicks": 961,
          "midi": 55,
          "name": "G3",
          "ticks": 8639,
          "time": 8.998958333333333,
          "velocity": 0.6850393700787402
        }
      ],
      "endOfTrackTicks": 9600
    },
    {
      "channel": 0,
      "controlChanges": {},
      "pitchBends": [],
      "instrument": {
        "family": "piano",
        "name": "acoustic grand piano",
        "number": 0
      },
      "name": "Metal Machine",
      "notes": [
        {
          "duration": 1.0010416666666675,
          "durationTicks": 961,
          "midi": 55,
          "name": "G3",
          "ticks": 9599,
          "time": 9.998958333333333,
          "velocity": 0.6850393700787402
        }
      ],
      "endOfTrackTicks": 10560
    },
    {
      "channel": 0,
      "controlChanges": {},
      "pitchBends": [],
      "instrument": {
        "family": "piano",
        "name": "acoustic grand piano",
        "number": 0
      },
      "name": "Metal Machine",
      "notes": [
        {
          "duration": 1.0010416666666675,
          "durationTicks": 961,
          "midi": 55,
          "name": "G3",
          "ticks": 10559,
          "time": 10.998958333333333,
          "velocity": 0.6850393700787402
        }
      ],
      "endOfTrackTicks": 11520
    },
    {
      "channel": 0,
      "controlChanges": {},
      "pitchBends": [],
      "instrument": {
        "family": "piano",
        "name": "acoustic grand piano",
        "number": 0
      },
      "name": "Metal Machine",
      "notes": [
        {
          "duration": 1.0010416666666675,
          "durationTicks": 961,
          "midi": 55,
          "name": "G3",
          "ticks": 11519,
          "time": 11.998958333333333,
          "velocity": 0.6850393700787402
        }
      ],
      "endOfTrackTicks": 12480
    },
    {
      "channel": 0,
      "controlChanges": {},
      "pitchBends": [],
      "instrument": {
        "family": "piano",
        "name": "acoustic grand piano",
        "number": 0
      },
      "name": "Metal Machine",
      "notes": [
        {
          "duration": 1.0010416666666675,
          "durationTicks": 961,
          "midi": 55,
          "name": "G3",
          "ticks": 12479,
          "time": 12.998958333333333,
          "velocity": 0.6850393700787402
        }
      ],
      "endOfTrackTicks": 13440
    },
    {
      "channel": 0,
      "controlChanges": {},
      "pitchBends": [],
      "instrument": {
        "family": "piano",
        "name": "acoustic grand piano",
        "number": 0
      },
      "name": "Metal Machine",
      "notes": [
        {
          "duration": 1.0010416666666675,
          "durationTicks": 961,
          "midi": 55,
          "name": "G3",
          "ticks": 13439,
          "time": 13.998958333333333,
          "velocity": 0.6850393700787402
        }
      ],
      "endOfTrackTicks": 14400
    },
    {
      "channel": 0,
      "controlChanges": {},
      "pitchBends": [],
      "instrument": {
        "family": "piano",
        "name": "acoustic grand piano",
        "number": 0
      },
      "name": "Metal Machine",
      "notes": [
        {
          "duration": 1.0010416666666675,
          "durationTicks": 961,
          "midi": 55,
          "name": "G3",
          "ticks": 14399,
          "time": 14.998958333333333,
          "velocity": 0.6850393700787402
        }
      ],
      "endOfTrackTicks": 15360
    },
    {
      "channel": 0,
      "controlChanges": {},
      "pitchBends": [],
      "instrument": {
        "family": "piano",
        "name": "acoustic grand piano",
        "number": 0
      },
      "name": "Metal Machine",
      "notes": [
        {
          "duration": 1.0010416666666675,
          "durationTicks": 961,
          "midi": 55,
          "name": "G3",
          "ticks": 15359,
          "time": 15.998958333333333,
          "velocity": 0.6850393700787402
        }
      ],
      "endOfTrackTicks": 16320
    },
    {
      "channel": 0,
      "controlChanges": {},
      "pitchBends": [],
      "instrument": {
        "family": "piano",
        "name": "acoustic grand piano",
        "number": 0
      },
      "name": "Metal Machine",
      "notes": [
        {
          "duration": 1.0010416666666657,
          "durationTicks": 961,
          "midi": 55,
          "name": "G3",
          "ticks": 16319,
          "time": 16.998958333333334,
          "velocity": 0.6850393700787402
        }
      ],
      "endOfTrackTicks": 17280
    },
    {
      "channel": 0,
      "controlChanges": {},
      "pitchBends": [],
      "instrument": {
        "family": "piano",
        "name": "acoustic grand piano",
        "number": 0
      },
      "name": "Metal Machine",
      "notes": [
        {
          "duration": 1.0010416666666657,
          "durationTicks": 961,
          "midi": 55,
          "name": "G3",
          "ticks": 17279,
          "time": 17.998958333333334,
          "velocity": 0.6850393700787402
        }
      ],
      "endOfTrackTicks": 18240
    },
    {
      "channel": 0,
      "controlChanges": {},
      "pitchBends": [],
      "instrument": {
        "family": "piano",
        "name": "acoustic grand piano",
        "number": 0
      },
      "name": "Metal Machine",
      "notes": [
        {
          "duration": 1.0010416666666657,
          "durationTicks": 961,
          "midi": 55,
          "name": "G3",
          "ticks": 18239,
          "time": 18.998958333333334,
          "velocity": 0.6850393700787402
        }
      ],
      "endOfTrackTicks": 19200
    },
    {
      "channel": 0,
      "controlChanges": {},
      "pitchBends": [],
      "instrument": {
        "family": "piano",
        "name": "acoustic grand piano",
        "number": 0
      },
      "name": "Metal Machine",
      "notes": [
        {
          "duration": 1.0010416666666657,
          "durationTicks": 961,
          "midi": 55,
          "name": "G3",
          "ticks": 19199,
          "time": 19.998958333333334,
          "velocity": 0.6850393700787402
        }
      ],
      "endOfTrackTicks": 20160
    },
    {
      "channel": 0,
      "controlChanges": {},
      "pitchBends": [],
      "instrument": {
        "family": "piano",
        "name": "acoustic grand piano",
        "number": 0
      },
      "name": "Metal Machine",
      "notes": [
        {
          "duration": 1.0010416666666657,
          "durationTicks": 961,
          "midi": 55,
          "name": "G3",
          "ticks": 20159,
          "time": 20.998958333333334,
          "velocity": 0.6850393700787402
        }
      ],
      "endOfTrackTicks": 21120
    },
    {
      "channel": 0,
      "controlChanges": {},
      "pitchBends": [],
      "instrument": {
        "family": "piano",
        "name": "acoustic grand piano",
        "number": 0
      },
      "name": "Metal Machine",
      "notes": [
        {
          "duration": 1.0010416666666657,
          "durationTicks": 961,
          "midi": 55,
          "name": "G3",
          "ticks": 21119,
          "time": 21.998958333333334,
          "velocity": 0.6850393700787402
        }
      ],
      "endOfTrackTicks": 22080
    },
    {
      "channel": 0,
      "controlChanges": {},
      "pitchBends": [],
      "instrument": {
        "family": "piano",
        "name": "acoustic grand piano",
        "number": 0
      },
      "name": "Metal Machine",
      "notes": [
        {
          "duration": 1.0010416666666657,
          "durationTicks": 961,
          "midi": 55,
          "name": "G3",
          "ticks": 22079,
          "time": 22.998958333333334,
          "velocity": 0.6850393700787402
        }
      ],
      "endOfTrackTicks": 23040
    },
    {
      "channel": 0,
      "controlChanges": {},
      "pitchBends": [],
      "instrument": {
        "family": "piano",
        "name": "acoustic grand piano",
        "number": 0
      },
      "name": "Metal Machine",
      "notes": [
        {
          "duration": 1.0010416666666657,
          "durationTicks": 961,
          "midi": 55,
          "name": "G3",
          "ticks": 23039,
          "time": 23.998958333333334,
          "velocity": 0.6850393700787402
        }
      ],
      "endOfTrackTicks": 24000
    },
    {
      "channel": 0,
      "controlChanges": {},
      "pitchBends": [],
      "instrument": {
        "family": "piano",
        "name": "acoustic grand piano",
        "number": 0
      },
      "name": "Metal Machine",
      "notes": [
        {
          "duration": 1.0010416666666657,
          "durationTicks": 961,
          "midi": 55,
          "name": "G3",
          "ticks": 23999,
          "time": 24.998958333333334,
          "velocity": 0.6850393700787402
        }
      ],
      "endOfTrackTicks": 24960
    },
    {
      "channel": 0,
      "controlChanges": {},
      "pitchBends": [],
      "instrument": {
        "family": "piano",
        "name": "acoustic grand piano",
        "number": 0
      },
      "name": "Finn  -  Shaker 16th Downbeat",
      "notes": [
        {
          "duration": 0.125,
          "durationTicks": 120,
          "midi": 59,
          "name": "B3",
          "ticks": 13443,
          "time": 14.003125,
          "velocity": 0.968503937007874
        }
      ],
      "endOfTrackTicks": 13920
    },
    {
      "channel": 0,
      "controlChanges": {},
      "pitchBends": [],
      "instrument": {
        "family": "piano",
        "name": "acoustic grand piano",
        "number": 0
      },
      "name": "Finn  -  Shaker 16th Downbeat",
      "notes": [
        {
          "duration": 0.125,
          "durationTicks": 120,
          "midi": 59,
          "name": "B3",
          "ticks": 13923,
          "time": 14.503125,
          "velocity": 0.968503937007874
        }
      ],
      "endOfTrackTicks": 14043
    },
    {
      "channel": 0,
      "controlChanges": {},
      "pitchBends": [],
      "instrument": {
        "family": "piano",
        "name": "acoustic grand piano",
        "number": 0
      },
      "name": "Finn  -  Shaker 16th Downbeat",
      "notes": [
        {
          "duration": 0.125,
          "durationTicks": 120,
          "midi": 59,
          "name": "B3",
          "ticks": 14403,
          "time": 15.003125,
          "velocity": 0.968503937007874
        }
      ],
      "endOfTrackTicks": 14523
    },
    {
      "channel": 0,
      "controlChanges": {},
      "pitchBends": [],
      "instrument": {
        "family": "piano",
        "name": "acoustic grand piano",
        "number": 0
      },
      "name": "Finn  -  Shaker 16th Downbeat",
      "notes": [
        {
          "duration": 0.125,
          "durationTicks": 120,
          "midi": 59,
          "name": "B3",
          "ticks": 14883,
          "time": 15.503125,
          "velocity": 0.968503937007874
        }
      ],
      "endOfTrackTicks": 15003
    },
    {
      "channel": 0,
      "controlChanges": {},
      "pitchBends": [],
      "instrument": {
        "family": "piano",
        "name": "acoustic grand piano",
        "number": 0
      },
      "name": "Finn  -  Shaker 16th Downbeat",
      "notes": [
        {
          "duration": 0.125,
          "durationTicks": 120,
          "midi": 59,
          "name": "B3",
          "ticks": 15363,
          "time": 16.003125,
          "velocity": 0.968503937007874
        }
      ],
      "endOfTrackTicks": 15483
    },
    {
      "channel": 0,
      "controlChanges": {},
      "pitchBends": [],
      "instrument": {
        "family": "piano",
        "name": "acoustic grand piano",
        "number": 0
      },
      "name": "Finn  -  Shaker 16th Downbeat",
      "notes": [
        {
          "duration": 0.125,
          "durationTicks": 120,
          "midi": 59,
          "name": "B3",
          "ticks": 15843,
          "time": 16.503125,
          "velocity": 0.968503937007874
        }
      ],
      "endOfTrackTicks": 15963
    },
    {
      "channel": 0,
      "controlChanges": {},
      "pitchBends": [],
      "instrument": {
        "family": "piano",
        "name": "acoustic grand piano",
        "number": 0
      },
      "name": "Finn  -  Shaker 16th Downbeat",
      "notes": [
        {
          "duration": 0.125,
          "durationTicks": 120,
          "midi": 59,
          "name": "B3",
          "ticks": 16323,
          "time": 17.003125,
          "velocity": 0.968503937007874
        }
      ],
      "endOfTrackTicks": 16443
    },
    {
      "channel": 0,
      "controlChanges": {},
      "pitchBends": [],
      "instrument": {
        "family": "piano",
        "name": "acoustic grand piano",
        "number": 0
      },
      "name": "Finn  -  Shaker 16th Downbeat",
      "notes": [
        {
          "duration": 0.125,
          "durationTicks": 120,
          "midi": 59,
          "name": "B3",
          "ticks": 16803,
          "time": 17.503125,
          "velocity": 0.968503937007874
        }
      ],
      "endOfTrackTicks": 16923
    },
    {
      "channel": 0,
      "controlChanges": {},
      "pitchBends": [],
      "instrument": {
        "family": "piano",
        "name": "acoustic grand piano",
        "number": 0
      },
      "name": "Finn  -  Shaker 16th Downbeat",
      "notes": [
        {
          "duration": 0.125,
          "durationTicks": 120,
          "midi": 59,
          "name": "B3",
          "ticks": 17283,
          "time": 18.003125,
          "velocity": 0.968503937007874
        }
      ],
      "endOfTrackTicks": 17403
    },
    {
      "channel": 0,
      "controlChanges": {},
      "pitchBends": [],
      "instrument": {
        "family": "piano",
        "name": "acoustic grand piano",
        "number": 0
      },
      "name": "Finn  -  Shaker 16th Downbeat",
      "notes": [
        {
          "duration": 0.125,
          "durationTicks": 120,
          "midi": 59,
          "name": "B3",
          "ticks": 17763,
          "time": 18.503125,
          "velocity": 0.968503937007874
        }
      ],
      "endOfTrackTicks": 17883
    },
    {
      "channel": 0,
      "controlChanges": {},
      "pitchBends": [],
      "instrument": {
        "family": "piano",
        "name": "acoustic grand piano",
        "number": 0
      },
      "name": "Finn  -  Shaker 16th Downbeat",
      "notes": [
        {
          "duration": 0.125,
          "durationTicks": 120,
          "midi": 59,
          "name": "B3",
          "ticks": 18243,
          "time": 19.003125,
          "velocity": 0.968503937007874
        }
      ],
      "endOfTrackTicks": 18363
    },
    {
      "channel": 0,
      "controlChanges": {},
      "pitchBends": [],
      "instrument": {
        "family": "piano",
        "name": "acoustic grand piano",
        "number": 0
      },
      "name": "Finn  -  Shaker 16th Downbeat",
      "notes": [
        {
          "duration": 0.125,
          "durationTicks": 120,
          "midi": 59,
          "name": "B3",
          "ticks": 18723,
          "time": 19.503125,
          "velocity": 0.968503937007874
        }
      ],
      "endOfTrackTicks": 18843
    },
    {
      "channel": 0,
      "controlChanges": {},
      "pitchBends": [],
      "instrument": {
        "family": "piano",
        "name": "acoustic grand piano",
        "number": 0
      },
      "name": "Finn  -  Shaker 16th Downbeat",
      "notes": [
        {
          "duration": 0.125,
          "durationTicks": 120,
          "midi": 59,
          "name": "B3",
          "ticks": 19203,
          "time": 20.003125,
          "velocity": 0.968503937007874
        }
      ],
      "endOfTrackTicks": 19323
    },
    {
      "channel": 0,
      "controlChanges": {},
      "pitchBends": [],
      "instrument": {
        "family": "piano",
        "name": "acoustic grand piano",
        "number": 0
      },
      "name": "Finn  -  Shaker 16th Downbeat",
      "notes": [
        {
          "duration": 0.125,
          "durationTicks": 120,
          "midi": 59,
          "name": "B3",
          "ticks": 19683,
          "time": 20.503125,
          "velocity": 0.968503937007874
        }
      ],
      "endOfTrackTicks": 19803
    },
    {
      "channel": 0,
      "controlChanges": {},
      "pitchBends": [],
      "instrument": {
        "family": "piano",
        "name": "acoustic grand piano",
        "number": 0
      },
      "name": "Finn  -  Shaker 16th Downbeat",
      "notes": [
        {
          "duration": 0.125,
          "durationTicks": 120,
          "midi": 59,
          "name": "B3",
          "ticks": 20163,
          "time": 21.003125,
          "velocity": 0.968503937007874
        }
      ],
      "endOfTrackTicks": 20283
    },
    {
      "channel": 0,
      "controlChanges": {},
      "pitchBends": [],
      "instrument": {
        "family": "piano",
        "name": "acoustic grand piano",
        "number": 0
      },
      "name": "Finn  -  Shaker 16th Downbeat",
      "notes": [
        {
          "duration": 0.125,
          "durationTicks": 120,
          "midi": 59,
          "name": "B3",
          "ticks": 20643,
          "time": 21.503125,
          "velocity": 0.968503937007874
        }
      ],
      "endOfTrackTicks": 20763
    },
    {
      "channel": 0,
      "controlChanges": {},
      "pitchBends": [],
      "instrument": {
        "family": "piano",
        "name": "acoustic grand piano",
        "number": 0
      },
      "name": "Finn  -  Shaker 16th Downbeat",
      "notes": [
        {
          "duration": 0.125,
          "durationTicks": 120,
          "midi": 59,
          "name": "B3",
          "ticks": 21123,
          "time": 22.003125,
          "velocity": 0.968503937007874
        }
      ],
      "endOfTrackTicks": 21243
    },
    {
      "channel": 0,
      "controlChanges": {},
      "pitchBends": [],
      "instrument": {
        "family": "piano",
        "name": "acoustic grand piano",
        "number": 0
      },
      "name": "Finn  -  Shaker 16th Downbeat",
      "notes": [
        {
          "duration": 0.125,
          "durationTicks": 120,
          "midi": 59,
          "name": "B3",
          "ticks": 21603,
          "time": 22.503125,
          "velocity": 0.968503937007874
        }
      ],
      "endOfTrackTicks": 21723
    },
    {
      "channel": 0,
      "controlChanges": {},
      "pitchBends": [],
      "instrument": {
        "family": "piano",
        "name": "acoustic grand piano",
        "number": 0
      },
      "name": "Finn  -  Shaker 16th Downbeat",
      "notes": [
        {
          "duration": 0.125,
          "durationTicks": 120,
          "midi": 59,
          "name": "B3",
          "ticks": 22083,
          "time": 23.003125,
          "velocity": 0.968503937007874
        }
      ],
      "endOfTrackTicks": 22203
    },
    {
      "channel": 0,
      "controlChanges": {},
      "pitchBends": [],
      "instrument": {
        "family": "piano",
        "name": "acoustic grand piano",
        "number": 0
      },
      "name": "Finn  -  Shaker 16th Downbeat",
      "notes": [
        {
          "duration": 0.125,
          "durationTicks": 120,
          "midi": 59,
          "name": "B3",
          "ticks": 22563,
          "time": 23.503125,
          "velocity": 0.968503937007874
        }
      ],
      "endOfTrackTicks": 22683
    },
    {
      "channel": 0,
      "controlChanges": {},
      "pitchBends": [],
      "instrument": {
        "family": "piano",
        "name": "acoustic grand piano",
        "number": 0
      },
      "name": "Finn  -  Shaker 16th Downbeat",
      "notes": [
        {
          "duration": 0.125,
          "durationTicks": 120,
          "midi": 59,
          "name": "B3",
          "ticks": 23043,
          "time": 24.003125,
          "velocity": 0.968503937007874
        }
      ],
      "endOfTrackTicks": 23163
    },
    {
      "channel": 0,
      "controlChanges": {},
      "pitchBends": [],
      "instrument": {
        "family": "piano",
        "name": "acoustic grand piano",
        "number": 0
      },
      "name": "Finn  -  Shaker 16th Downbeat",
      "notes": [
        {
          "duration": 0.125,
          "durationTicks": 120,
          "midi": 59,
          "name": "B3",
          "ticks": 23523,
          "time": 24.503125,
          "velocity": 0.968503937007874
        }
      ],
      "endOfTrackTicks": 23643
    },
    {
      "channel": 0,
      "controlChanges": {},
      "pitchBends": [],
      "instrument": {
        "family": "piano",
        "name": "acoustic grand piano",
        "number": 0
      },
      "name": "Finn  -  Shaker 16th Downbeat",
      "notes": [
        {
          "duration": 0.125,
          "durationTicks": 120,
          "midi": 59,
          "name": "B3",
          "ticks": 24003,
          "time": 25.003125,
          "velocity": 0.968503937007874
        }
      ],
      "endOfTrackTicks": 24123
    },
    {
      "channel": 0,
      "controlChanges": {},
      "pitchBends": [],
      "instrument": {
        "family": "piano",
        "name": "acoustic grand piano",
        "number": 0
      },
      "name": "Finn  -  Shaker 16th Downbeat",
      "notes": [
        {
          "duration": 0.125,
          "durationTicks": 120,
          "midi": 59,
          "name": "B3",
          "ticks": 24483,
          "time": 25.503125,
          "velocity": 0.968503937007874
        }
      ],
      "endOfTrackTicks": 24603
    },
    {
      "channel": 0,
      "controlChanges": {},
      "pitchBends": [],
      "instrument": {
        "family": "piano",
        "name": "acoustic grand piano",
        "number": 0
      },
      "name": "Finn  -  Shaker 16th Downbeat",
      "notes": [
        {
          "duration": 0.125,
          "durationTicks": 120,
          "midi": 59,
          "name": "B3",
          "ticks": 24963,
          "time": 26.003125,
          "velocity": 0.968503937007874
        }
      ],
      "endOfTrackTicks": 25083
    },
    {
      "channel": 0,
      "controlChanges": {},
      "pitchBends": [],
      "instrument": {
        "family": "piano",
        "name": "acoustic grand piano",
        "number": 0
      },
      "name": "Finn  -  Shaker 16th Downbeat",
      "notes": [
        {
          "duration": 0.125,
          "durationTicks": 120,
          "midi": 59,
          "name": "B3",
          "ticks": 25443,
          "time": 26.503125,
          "velocity": 0.968503937007874
        }
      ],
      "endOfTrackTicks": 25563
    },
    {
      "channel": 0,
      "controlChanges": {},
      "pitchBends": [],
      "instrument": {
        "family": "piano",
        "name": "acoustic grand piano",
        "number": 0
      },
      "name": "Finn  -  Shaker 16th Downbeat",
      "notes": [
        {
          "duration": 0.125,
          "durationTicks": 120,
          "midi": 59,
          "name": "B3",
          "ticks": 25923,
          "time": 27.003125,
          "velocity": 0.968503937007874
        }
      ],
      "endOfTrackTicks": 26043
    },
    {
      "channel": 0,
      "controlChanges": {},
      "pitchBends": [],
      "instrument": {
        "family": "piano",
        "name": "acoustic grand piano",
        "number": 0
      },
      "name": "Finn  -  Shaker 16th Downbeat",
      "notes": [
        {
          "duration": 0.125,
          "durationTicks": 120,
          "midi": 59,
          "name": "B3",
          "ticks": 26403,
          "time": 27.503125,
          "velocity": 0.968503937007874
        }
      ],
      "endOfTrackTicks": 26523
    },
    {
      "channel": 0,
      "controlChanges": {},
      "pitchBends": [],
      "instrument": {
        "family": "piano",
        "name": "acoustic grand piano",
        "number": 0
      },
      "name": "Finn  -  Shaker 16th Downbeat",
      "notes": [
        {
          "duration": 0.125,
          "durationTicks": 120,
          "midi": 59,
          "name": "B3",
          "ticks": 26883,
          "time": 28.003125,
          "velocity": 0.968503937007874
        }
      ],
      "endOfTrackTicks": 27003
    },
    {
      "channel": 0,
      "controlChanges": {},
      "pitchBends": [],
      "instrument": {
        "family": "piano",
        "name": "acoustic grand piano",
        "number": 0
      },
      "name": "Finn  -  Shaker 16th Downbeat",
      "notes": [
        {
          "duration": 0.125,
          "durationTicks": 120,
          "midi": 59,
          "name": "B3",
          "ticks": 27363,
          "time": 28.503125,
          "velocity": 0.968503937007874
        }
      ],
      "endOfTrackTicks": 27483
    },
    {
      "channel": 0,
      "controlChanges": {},
      "pitchBends": [],
      "instrument": {
        "family": "piano",
        "name": "acoustic grand piano",
        "number": 0
      },
      "name": "Finn  -  Shaker 16th Downbeat",
      "notes": [
        {
          "duration": 0.125,
          "durationTicks": 120,
          "midi": 59,
          "name": "B3",
          "ticks": 27843,
          "time": 29.003125,
          "velocity": 0.968503937007874
        }
      ],
      "endOfTrackTicks": 27963
    },
    {
      "channel": 0,
      "controlChanges": {},
      "pitchBends": [],
      "instrument": {
        "family": "piano",
        "name": "acoustic grand piano",
        "number": 0
      },
      "name": "Finn  -  Shaker 16th Downbeat",
      "notes": [
        {
          "duration": 0.125,
          "durationTicks": 120,
          "midi": 59,
          "name": "B3",
          "ticks": 28323,
          "time": 29.503125,
          "velocity": 0.968503937007874
        }
      ],
      "endOfTrackTicks": 28443
    },
    {
      "channel": 0,
      "controlChanges": {},
      "pitchBends": [],
      "instrument": {
        "family": "piano",
        "name": "acoustic grand piano",
        "number": 0
      },
      "name": "Finn  -  Shaker 16th Downbeat",
      "notes": [
        {
          "duration": 0.125,
          "durationTicks": 120,
          "midi": 59,
          "name": "B3",
          "ticks": 28803,
          "time": 30.003125,
          "velocity": 0.968503937007874
        }
      ],
      "endOfTrackTicks": 28923
    },
    {
      "channel": 0,
      "controlChanges": {},
      "pitchBends": [],
      "instrument": {
        "family": "piano",
        "name": "acoustic grand piano",
        "number": 0
      },
      "name": "Finn  -  Shaker 16th Downbeat",
      "notes": [
        {
          "duration": 0.125,
          "durationTicks": 120,
          "midi": 59,
          "name": "B3",
          "ticks": 29283,
          "time": 30.503125,
          "velocity": 0.968503937007874
        }
      ],
      "endOfTrackTicks": 29403
    },
    {
      "channel": 0,
      "controlChanges": {},
      "pitchBends": [],
      "instrument": {
        "family": "piano",
        "name": "acoustic grand piano",
        "number": 0
      },
      "name": "Finn  -  Shaker 16th Downbeat",
      "notes": [
        {
          "duration": 0.125,
          "durationTicks": 120,
          "midi": 59,
          "name": "B3",
          "ticks": 29763,
          "time": 31.003125,
          "velocity": 0.968503937007874
        }
      ],
      "endOfTrackTicks": 29883
    },
    {
      "channel": 0,
      "controlChanges": {},
      "pitchBends": [],
      "instrument": {
        "family": "piano",
        "name": "acoustic grand piano",
        "number": 0
      },
      "name": "Finn  -  Shaker 16th Downbeat",
      "notes": [
        {
          "duration": 0.125,
          "durationTicks": 120,
          "midi": 59,
          "name": "B3",
          "ticks": 30243,
          "time": 31.503125,
          "velocity": 0.968503937007874
        }
      ],
      "endOfTrackTicks": 30363
    },
    {
      "channel": 0,
      "controlChanges": {},
      "pitchBends": [],
      "instrument": {
        "family": "piano",
        "name": "acoustic grand piano",
        "number": 0
      },
      "name": "Finn  -  Shaker 16th Downbeat",
      "notes": [
        {
          "duration": 0.125,
          "durationTicks": 120,
          "midi": 59,
          "name": "B3",
          "ticks": 32643,
          "time": 34.003125,
          "velocity": 0.968503937007874
        }
      ],
      "endOfTrackTicks": 33120
    },
    {
      "channel": 0,
      "controlChanges": {},
      "pitchBends": [],
      "instrument": {
        "family": "piano",
        "name": "acoustic grand piano",
        "number": 0
      },
      "name": "Finn  -  Shaker 16th Downbeat",
      "notes": [
        {
          "duration": 0.125,
          "durationTicks": 120,
          "midi": 59,
          "name": "B3",
          "ticks": 33123,
          "time": 34.503125,
          "velocity": 0.968503937007874
        }
      ],
      "endOfTrackTicks": 33243
    },
    {
      "channel": 0,
      "controlChanges": {},
      "pitchBends": [],
      "instrument": {
        "family": "piano",
        "name": "acoustic grand piano",
        "number": 0
      },
      "name": "Finn  -  Shaker 16th Downbeat",
      "notes": [
        {
          "duration": 0.125,
          "durationTicks": 120,
          "midi": 59,
          "name": "B3",
          "ticks": 33603,
          "time": 35.003125,
          "velocity": 0.968503937007874
        }
      ],
      "endOfTrackTicks": 33723
    },
    {
      "channel": 0,
      "controlChanges": {},
      "pitchBends": [],
      "instrument": {
        "family": "piano",
        "name": "acoustic grand piano",
        "number": 0
      },
      "name": "Finn  -  Shaker 16th Downbeat",
      "notes": [
        {
          "duration": 0.125,
          "durationTicks": 120,
          "midi": 59,
          "name": "B3",
          "ticks": 34083,
          "time": 35.503125,
          "velocity": 0.968503937007874
        }
      ],
      "endOfTrackTicks": 34203
    },
    {
      "channel": 0,
      "controlChanges": {},
      "pitchBends": [],
      "instrument": {
        "family": "piano",
        "name": "acoustic grand piano",
        "number": 0
      },
      "name": "Finn  -  Shaker 16th Downbeat",
      "notes": [
        {
          "duration": 0.125,
          "durationTicks": 120,
          "midi": 59,
          "name": "B3",
          "ticks": 34563,
          "time": 36.003125,
          "velocity": 0.968503937007874
        }
      ],
      "endOfTrackTicks": 34683
    },
    {
      "channel": 0,
      "controlChanges": {},
      "pitchBends": [],
      "instrument": {
        "family": "piano",
        "name": "acoustic grand piano",
        "number": 0
      },
      "name": "Finn  -  Shaker 16th Downbeat",
      "notes": [
        {
          "duration": 0.125,
          "durationTicks": 120,
          "midi": 59,
          "name": "B3",
          "ticks": 35043,
          "time": 36.503125,
          "velocity": 0.968503937007874
        }
      ],
      "endOfTrackTicks": 35163
    },
    {
      "channel": 0,
      "controlChanges": {},
      "pitchBends": [],
      "instrument": {
        "family": "piano",
        "name": "acoustic grand piano",
        "number": 0
      },
      "name": "Finn  -  Shaker 16th Downbeat",
      "notes": [
        {
          "duration": 0.125,
          "durationTicks": 120,
          "midi": 59,
          "name": "B3",
          "ticks": 35523,
          "time": 37.003125,
          "velocity": 0.968503937007874
        }
      ],
      "endOfTrackTicks": 35643
    },
    {
      "channel": 0,
      "controlChanges": {},
      "pitchBends": [],
      "instrument": {
        "family": "piano",
        "name": "acoustic grand piano",
        "number": 0
      },
      "name": "Finn  -  Shaker 16th Downbeat",
      "notes": [
        {
          "duration": 0.125,
          "durationTicks": 120,
          "midi": 59,
          "name": "B3",
          "ticks": 36003,
          "time": 37.503125,
          "velocity": 0.968503937007874
        }
      ],
      "endOfTrackTicks": 36123
    },
    {
      "channel": 0,
      "controlChanges": {},
      "pitchBends": [],
      "instrument": {
        "family": "piano",
        "name": "acoustic grand piano",
        "number": 0
      },
      "name": "Finn  -  Shaker 16th Downbeat",
      "notes": [
        {
          "duration": 0.125,
          "durationTicks": 120,
          "midi": 59,
          "name": "B3",
          "ticks": 36483,
          "time": 38.003125,
          "velocity": 0.968503937007874
        }
      ],
      "endOfTrackTicks": 36603
    },
    {
      "channel": 0,
      "controlChanges": {},
      "pitchBends": [],
      "instrument": {
        "family": "piano",
        "name": "acoustic grand piano",
        "number": 0
      },
      "name": "Finn  -  Shaker 16th Downbeat",
      "notes": [
        {
          "duration": 0.125,
          "durationTicks": 120,
          "midi": 59,
          "name": "B3",
          "ticks": 36963,
          "time": 38.503125,
          "velocity": 0.968503937007874
        }
      ],
      "endOfTrackTicks": 37083
    },
    {
      "channel": 0,
      "controlChanges": {},
      "pitchBends": [],
      "instrument": {
        "family": "piano",
        "name": "acoustic grand piano",
        "number": 0
      },
      "name": "Finn  -  Shaker 16th Downbeat",
      "notes": [
        {
          "duration": 0.125,
          "durationTicks": 120,
          "midi": 59,
          "name": "B3",
          "ticks": 37443,
          "time": 39.003125,
          "velocity": 0.968503937007874
        }
      ],
      "endOfTrackTicks": 37563
    },
    {
      "channel": 0,
      "controlChanges": {},
      "pitchBends": [],
      "instrument": {
        "family": "piano",
        "name": "acoustic grand piano",
        "number": 0
      },
      "name": "Finn  -  Shaker 16th Downbeat",
      "notes": [
        {
          "duration": 0.125,
          "durationTicks": 120,
          "midi": 59,
          "name": "B3",
          "ticks": 37923,
          "time": 39.503125,
          "velocity": 0.968503937007874
        }
      ],
      "endOfTrackTicks": 38043
    },
    {
      "channel": 0,
      "controlChanges": {},
      "pitchBends": [],
      "instrument": {
        "family": "piano",
        "name": "acoustic grand piano",
        "number": 0
      },
      "name": "Finn  -  Shaker 16th Downbeat",
      "notes": [
        {
          "duration": 0.125,
          "durationTicks": 120,
          "midi": 59,
          "name": "B3",
          "ticks": 38403,
          "time": 40.003125,
          "velocity": 0.968503937007874
        }
      ],
      "endOfTrackTicks": 38523
    },
    {
      "channel": 0,
      "controlChanges": {},
      "pitchBends": [],
      "instrument": {
        "family": "piano",
        "name": "acoustic grand piano",
        "number": 0
      },
      "name": "Finn  -  Shaker 16th Downbeat",
      "notes": [
        {
          "duration": 0.125,
          "durationTicks": 120,
          "midi": 59,
          "name": "B3",
          "ticks": 38883,
          "time": 40.503125,
          "velocity": 0.968503937007874
        }
      ],
      "endOfTrackTicks": 39003
    },
    {
      "channel": 0,
      "controlChanges": {},
      "pitchBends": [],
      "instrument": {
        "family": "piano",
        "name": "acoustic grand piano",
        "number": 0
      },
      "name": "Finn  -  Shaker 16th Downbeat",
      "notes": [
        {
          "duration": 0.125,
          "durationTicks": 120,
          "midi": 59,
          "name": "B3",
          "ticks": 39363,
          "time": 41.003125,
          "velocity": 0.968503937007874
        }
      ],
      "endOfTrackTicks": 39483
    },
    {
      "channel": 0,
      "controlChanges": {},
      "pitchBends": [],
      "instrument": {
        "family": "piano",
        "name": "acoustic grand piano",
        "number": 0
      },
      "name": "Finn  -  Shaker 16th Downbeat",
      "notes": [
        {
          "duration": 0.125,
          "durationTicks": 120,
          "midi": 59,
          "name": "B3",
          "ticks": 40323,
          "time": 42.003125,
          "velocity": 0.968503937007874
        }
      ],
      "endOfTrackTicks": 40800
    },
    {
      "channel": 0,
      "controlChanges": {},
      "pitchBends": [],
      "instrument": {
        "family": "piano",
        "name": "acoustic grand piano",
        "number": 0
      },
      "name": "Finn  -  Shaker 16th Downbeat",
      "notes": [
        {
          "duration": 0.125,
          "durationTicks": 120,
          "midi": 59,
          "name": "B3",
          "ticks": 40803,
          "time": 42.503125,
          "velocity": 0.968503937007874
        }
      ],
      "endOfTrackTicks": 40923
    },
    {
      "channel": 0,
      "controlChanges": {},
      "pitchBends": [],
      "instrument": {
        "family": "piano",
        "name": "acoustic grand piano",
        "number": 0
      },
      "name": "Finn  -  Shaker 16th Downbeat",
      "notes": [
        {
          "duration": 0.125,
          "durationTicks": 120,
          "midi": 59,
          "name": "B3",
          "ticks": 41283,
          "time": 43.003125,
          "velocity": 0.968503937007874
        }
      ],
      "endOfTrackTicks": 41403
    },
    {
      "channel": 0,
      "controlChanges": {},
      "pitchBends": [],
      "instrument": {
        "family": "piano",
        "name": "acoustic grand piano",
        "number": 0
      },
      "name": "Finn  -  Shaker 16th Downbeat",
      "notes": [
        {
          "duration": 0.125,
          "durationTicks": 120,
          "midi": 59,
          "name": "B3",
          "ticks": 41763,
          "time": 43.503125,
          "velocity": 0.968503937007874
        }
      ],
      "endOfTrackTicks": 41883
    },
    {
      "channel": 0,
      "controlChanges": {},
      "pitchBends": [],
      "instrument": {
        "family": "piano",
        "name": "acoustic grand piano",
        "number": 0
      },
      "name": "Finn  -  Shaker 16th Downbeat",
      "notes": [
        {
          "duration": 0.125,
          "durationTicks": 120,
          "midi": 59,
          "name": "B3",
          "ticks": 42243,
          "time": 44.003125,
          "velocity": 0.968503937007874
        }
      ],
      "endOfTrackTicks": 42363
    },
    {
      "channel": 0,
      "controlChanges": {},
      "pitchBends": [],
      "instrument": {
        "family": "piano",
        "name": "acoustic grand piano",
        "number": 0
      },
      "name": "Finn  -  Shaker 16th Downbeat",
      "notes": [
        {
          "duration": 0.125,
          "durationTicks": 120,
          "midi": 59,
          "name": "B3",
          "ticks": 42723,
          "time": 44.503125,
          "velocity": 0.968503937007874
        }
      ],
      "endOfTrackTicks": 42843
    },
    {
      "channel": 0,
      "controlChanges": {},
      "pitchBends": [],
      "instrument": {
        "family": "piano",
        "name": "acoustic grand piano",
        "number": 0
      },
      "name": "Finn  -  Shaker 16th Downbeat",
      "notes": [
        {
          "duration": 0.125,
          "durationTicks": 120,
          "midi": 59,
          "name": "B3",
          "ticks": 43203,
          "time": 45.003125,
          "velocity": 0.968503937007874
        }
      ],
      "endOfTrackTicks": 43323
    },
    {
      "channel": 0,
      "controlChanges": {},
      "pitchBends": [],
      "instrument": {
        "family": "piano",
        "name": "acoustic grand piano",
        "number": 0
      },
      "name": "Finn  -  Shaker 16th Downbeat",
      "notes": [
        {
          "duration": 0.125,
          "durationTicks": 120,
          "midi": 59,
          "name": "B3",
          "ticks": 43683,
          "time": 45.503125,
          "velocity": 0.968503937007874
        }
      ],
      "endOfTrackTicks": 43803
    },
    {
      "channel": 0,
      "controlChanges": {},
      "pitchBends": [],
      "instrument": {
        "family": "piano",
        "name": "acoustic grand piano",
        "number": 0
      },
      "name": "Finn  -  Shaker 16th Downbeat",
      "notes": [
        {
          "duration": 0.125,
          "durationTicks": 120,
          "midi": 59,
          "name": "B3",
          "ticks": 44163,
          "time": 46.003125,
          "velocity": 0.968503937007874
        }
      ],
      "endOfTrackTicks": 44283
    },
    {
      "channel": 0,
      "controlChanges": {},
      "pitchBends": [],
      "instrument": {
        "family": "piano",
        "name": "acoustic grand piano",
        "number": 0
      },
      "name": "Finn  -  Shaker 16th Downbeat",
      "notes": [
        {
          "duration": 0.125,
          "durationTicks": 120,
          "midi": 59,
          "name": "B3",
          "ticks": 44643,
          "time": 46.503125,
          "velocity": 0.968503937007874
        }
      ],
      "endOfTrackTicks": 44763
    },
    {
      "channel": 0,
      "controlChanges": {},
      "pitchBends": [],
      "instrument": {
        "family": "piano",
        "name": "acoustic grand piano",
        "number": 0
      },
      "name": "Finn  -  Shaker 16th Downbeat",
      "notes": [
        {
          "duration": 0.125,
          "durationTicks": 120,
          "midi": 59,
          "name": "B3",
          "ticks": 45123,
          "time": 47.003125,
          "velocity": 0.968503937007874
        }
      ],
      "endOfTrackTicks": 45243
    },
    {
      "channel": 0,
      "controlChanges": {},
      "pitchBends": [],
      "instrument": {
        "family": "piano",
        "name": "acoustic grand piano",
        "number": 0
      },
      "name": "Finn  -  Shaker 16th Downbeat",
      "notes": [
        {
          "duration": 0.125,
          "durationTicks": 120,
          "midi": 59,
          "name": "B3",
          "ticks": 45603,
          "time": 47.503125,
          "velocity": 0.968503937007874
        }
      ],
      "endOfTrackTicks": 45723
    },
    {
      "channel": 0,
      "controlChanges": {},
      "pitchBends": [],
      "instrument": {
        "family": "piano",
        "name": "acoustic grand piano",
        "number": 0
      },
      "name": "Finn  -  Shaker 16th Downbeat",
      "notes": [
        {
          "duration": 0.125,
          "durationTicks": 120,
          "midi": 59,
          "name": "B3",
          "ticks": 46083,
          "time": 48.003125,
          "velocity": 0.968503937007874
        }
      ],
      "endOfTrackTicks": 46203
    },
    {
      "channel": 0,
      "controlChanges": {},
      "pitchBends": [],
      "instrument": {
        "family": "piano",
        "name": "acoustic grand piano",
        "number": 0
      },
      "name": "Finn  -  Shaker 16th Downbeat",
      "notes": [
        {
          "duration": 0.125,
          "durationTicks": 120,
          "midi": 59,
          "name": "B3",
          "ticks": 46563,
          "time": 48.503125,
          "velocity": 0.968503937007874
        }
      ],
      "endOfTrackTicks": 46683
    },
    {
      "channel": 0,
      "controlChanges": {},
      "pitchBends": [],
      "instrument": {
        "family": "piano",
        "name": "acoustic grand piano",
        "number": 0
      },
      "name": "Finn  -  Shaker 16th Downbeat",
      "notes": [
        {
          "duration": 0.125,
          "durationTicks": 120,
          "midi": 59,
          "name": "B3",
          "ticks": 17283,
          "time": 18.003125,
          "velocity": 0.968503937007874
        }
      ],
      "endOfTrackTicks": 19200
    },
    {
      "channel": 0,
      "controlChanges": {},
      "pitchBends": [],
      "instrument": {
        "family": "piano",
        "name": "acoustic grand piano",
        "number": 0
      },
      "name": "Finn  -  Shaker 16th Downbeat",
      "notes": [
        {
          "duration": 0.125,
          "durationTicks": 120,
          "midi": 59,
          "name": "B3",
          "ticks": 19203,
          "time": 20.003125,
          "velocity": 0.968503937007874
        }
      ],
      "endOfTrackTicks": 19323
    },
    {
      "channel": 0,
      "controlChanges": {},
      "pitchBends": [],
      "instrument": {
        "family": "piano",
        "name": "acoustic grand piano",
        "number": 0
      },
      "name": "Finn  -  Shaker 16th Downbeat",
      "notes": [
        {
          "duration": 0.125,
          "durationTicks": 120,
          "midi": 59,
          "name": "B3",
          "ticks": 21123,
          "time": 22.003125,
          "velocity": 0.968503937007874
        }
      ],
      "endOfTrackTicks": 21243
    },
    {
      "channel": 0,
      "controlChanges": {},
      "pitchBends": [],
      "instrument": {
        "family": "piano",
        "name": "acoustic grand piano",
        "number": 0
      },
      "name": "Finn  -  Shaker 16th Downbeat",
      "notes": [
        {
          "duration": 0.125,
          "durationTicks": 120,
          "midi": 59,
          "name": "B3",
          "ticks": 23043,
          "time": 24.003125,
          "velocity": 0.968503937007874
        }
      ],
      "endOfTrackTicks": 23163
    },
    {
      "channel": 0,
      "controlChanges": {},
      "pitchBends": [],
      "instrument": {
        "family": "piano",
        "name": "acoustic grand piano",
        "number": 0
      },
      "name": "Finn  -  Shaker 16th Downbeat",
      "notes": [
        {
          "duration": 0.125,
          "durationTicks": 120,
          "midi": 59,
          "name": "B3",
          "ticks": 24963,
          "time": 26.003125,
          "velocity": 0.968503937007874
        }
      ],
      "endOfTrackTicks": 25083
    },
    {
      "channel": 0,
      "controlChanges": {},
      "pitchBends": [],
      "instrument": {
        "family": "piano",
        "name": "acoustic grand piano",
        "number": 0
      },
      "name": "Finn  -  Shaker 16th Downbeat",
      "notes": [
        {
          "duration": 0.125,
          "durationTicks": 120,
          "midi": 59,
          "name": "B3",
          "ticks": 26883,
          "time": 28.003125,
          "velocity": 0.968503937007874
        }
      ],
      "endOfTrackTicks": 27003
    },
    {
      "channel": 0,
      "controlChanges": {},
      "pitchBends": [],
      "instrument": {
        "family": "piano",
        "name": "acoustic grand piano",
        "number": 0
      },
      "name": "Finn  -  Shaker 16th Downbeat",
      "notes": [
        {
          "duration": 0.125,
          "durationTicks": 120,
          "midi": 59,
          "name": "B3",
          "ticks": 28803,
          "time": 30.003125,
          "velocity": 0.968503937007874
        }
      ],
      "endOfTrackTicks": 28923
    },
    {
      "channel": 0,
      "controlChanges": {},
      "pitchBends": [],
      "instrument": {
        "family": "piano",
        "name": "acoustic grand piano",
        "number": 0
      },
      "name": "Finn  -  Shaker 16th Downbeat",
      "notes": [
        {
          "duration": 0.125,
          "durationTicks": 120,
          "midi": 59,
          "name": "B3",
          "ticks": 32643,
          "time": 34.003125,
          "velocity": 0.968503937007874
        }
      ],
      "endOfTrackTicks": 34560
    },
    {
      "channel": 0,
      "controlChanges": {},
      "pitchBends": [],
      "instrument": {
        "family": "piano",
        "name": "acoustic grand piano",
        "number": 0
      },
      "name": "Finn  -  Shaker 16th Downbeat",
      "notes": [
        {
          "duration": 0.125,
          "durationTicks": 120,
          "midi": 59,
          "name": "B3",
          "ticks": 34563,
          "time": 36.003125,
          "velocity": 0.968503937007874
        }
      ],
      "endOfTrackTicks": 34683
    },
    {
      "channel": 0,
      "controlChanges": {},
      "pitchBends": [],
      "instrument": {
        "family": "piano",
        "name": "acoustic grand piano",
        "number": 0
      },
      "name": "Finn  -  Shaker 16th Downbeat",
      "notes": [
        {
          "duration": 0.125,
          "durationTicks": 120,
          "midi": 59,
          "name": "B3",
          "ticks": 36483,
          "time": 38.003125,
          "velocity": 0.968503937007874
        }
      ],
      "endOfTrackTicks": 36603
    },
    {
      "channel": 0,
      "controlChanges": {},
      "pitchBends": [],
      "instrument": {
        "family": "piano",
        "name": "acoustic grand piano",
        "number": 0
      },
      "name": "Finn  -  Shaker 16th Downbeat",
      "notes": [
        {
          "duration": 0.125,
          "durationTicks": 120,
          "midi": 59,
          "name": "B3",
          "ticks": 38403,
          "time": 40.003125,
          "velocity": 0.968503937007874
        }
      ],
      "endOfTrackTicks": 38523
    },
    {
      "channel": 0,
      "controlChanges": {},
      "pitchBends": [],
      "instrument": {
        "family": "piano",
        "name": "acoustic grand piano",
        "number": 0
      },
      "name": "Finn  -  Shaker 16th Downbeat",
      "notes": [
        {
          "duration": 0.125,
          "durationTicks": 120,
          "midi": 59,
          "name": "B3",
          "ticks": 40323,
          "time": 42.003125,
          "velocity": 0.968503937007874
        }
      ],
      "endOfTrackTicks": 42240
    },
    {
      "channel": 0,
      "controlChanges": {},
      "pitchBends": [],
      "instrument": {
        "family": "piano",
        "name": "acoustic grand piano",
        "number": 0
      },
      "name": "Finn  -  Shaker 16th Downbeat",
      "notes": [
        {
          "duration": 0.125,
          "durationTicks": 120,
          "midi": 59,
          "name": "B3",
          "ticks": 42243,
          "time": 44.003125,
          "velocity": 0.968503937007874
        }
      ],
      "endOfTrackTicks": 42363
    },
    {
      "channel": 0,
      "controlChanges": {},
      "pitchBends": [],
      "instrument": {
        "family": "piano",
        "name": "acoustic grand piano",
        "number": 0
      },
      "name": "Finn  -  Shaker 16th Downbeat",
      "notes": [
        {
          "duration": 0.125,
          "durationTicks": 120,
          "midi": 59,
          "name": "B3",
          "ticks": 44163,
          "time": 46.003125,
          "velocity": 0.968503937007874
        }
      ],
      "endOfTrackTicks": 44283
    },
    {
      "channel": 0,
      "controlChanges": {},
      "pitchBends": [],
      "instrument": {
        "family": "piano",
        "name": "acoustic grand piano",
        "number": 0
      },
      "name": "Finn  -  Shaker 16th Downbeat",
      "notes": [
        {
          "duration": 0.125,
          "durationTicks": 120,
          "midi": 59,
          "name": "B3",
          "ticks": 46083,
          "time": 48.003125,
          "velocity": 0.968503937007874
        }
      ],
      "endOfTrackTicks": 46203
    },
    {
      "channel": 0,
      "controlChanges": {},
      "pitchBends": [],
      "instrument": {
        "family": "piano",
        "name": "acoustic grand piano",
        "number": 0
      },
      "name": "Shaker 19",
      "notes": [
        {
          "duration": 9,
          "durationTicks": 8640,
          "midi": 82,
          "name": "A#5",
          "ticks": 9120,
          "time": 9.5,
          "velocity": 0.9606299212598425
        }
      ],
      "endOfTrackTicks": 17760
    },
    {
      "channel": 0,
      "controlChanges": {},
      "pitchBends": [],
      "instrument": {
        "family": "piano",
        "name": "acoustic grand piano",
        "number": 0
      },
      "name": "Shaker 19",
      "notes": [
        {
          "duration": 9,
          "durationTicks": 8640,
          "midi": 82,
          "name": "A#5",
          "ticks": 11040,
          "time": 11.5,
          "velocity": 0.9606299212598425
        }
      ],
      "endOfTrackTicks": 19680
    },
    {
      "channel": 0,
      "controlChanges": {},
      "pitchBends": [],
      "instrument": {
        "family": "piano",
        "name": "acoustic grand piano",
        "number": 0
      },
      "name": "Shaker 19",
      "notes": [
        {
          "duration": 9,
          "durationTicks": 8640,
          "midi": 82,
          "name": "A#5",
          "ticks": 12960,
          "time": 13.5,
          "velocity": 0.9606299212598425
        }
      ],
      "endOfTrackTicks": 21600
    },
    {
      "channel": 0,
      "controlChanges": {},
      "pitchBends": [],
      "instrument": {
        "family": "piano",
        "name": "acoustic grand piano",
        "number": 0
      },
      "name": "Shaker 19",
      "notes": [
        {
          "duration": 9,
          "durationTicks": 8640,
          "midi": 82,
          "name": "A#5",
          "ticks": 13920,
          "time": 14.5,
          "velocity": 0.9606299212598425
        }
      ],
      "endOfTrackTicks": 22560
    },
    {
      "channel": 0,
      "controlChanges": {},
      "pitchBends": [],
      "instrument": {
        "family": "piano",
        "name": "acoustic grand piano",
        "number": 0
      },
      "name": "Shaker 19",
      "notes": [
        {
          "duration": 9,
          "durationTicks": 8640,
          "midi": 82,
          "name": "A#5",
          "ticks": 14880,
          "time": 15.5,
          "velocity": 0.9606299212598425
        }
      ],
      "endOfTrackTicks": 23520
    },
    {
      "channel": 0,
      "controlChanges": {},
      "pitchBends": [],
      "instrument": {
        "family": "piano",
        "name": "acoustic grand piano",
        "number": 0
      },
      "name": "Shaker 19",
      "notes": [
        {
          "duration": 9,
          "durationTicks": 8640,
          "midi": 82,
          "name": "A#5",
          "ticks": 15840,
          "time": 16.5,
          "velocity": 0.9606299212598425
        }
      ],
      "endOfTrackTicks": 24480
    },
    {
      "channel": 0,
      "controlChanges": {},
      "pitchBends": [],
      "instrument": {
        "family": "piano",
        "name": "acoustic grand piano",
        "number": 0
      },
      "name": "Shaker 19",
      "notes": [
        {
          "duration": 9,
          "durationTicks": 8640,
          "midi": 82,
          "name": "A#5",
          "ticks": 16800,
          "time": 17.5,
          "velocity": 0.9606299212598425
        }
      ],
      "endOfTrackTicks": 25440
    },
    {
      "channel": 0,
      "controlChanges": {},
      "pitchBends": [],
      "instrument": {
        "family": "piano",
        "name": "acoustic grand piano",
        "number": 0
      },
      "name": "Shaker 19",
      "notes": [
        {
          "duration": 9,
          "durationTicks": 8640,
          "midi": 82,
          "name": "A#5",
          "ticks": 17760,
          "time": 18.5,
          "velocity": 0.9606299212598425
        }
      ],
      "endOfTrackTicks": 26400
    },
    {
      "channel": 0,
      "controlChanges": {},
      "pitchBends": [],
      "instrument": {
        "family": "piano",
        "name": "acoustic grand piano",
        "number": 0
      },
      "name": "Shaker 19",
      "notes": [
        {
          "duration": 9,
          "durationTicks": 8640,
          "midi": 82,
          "name": "A#5",
          "ticks": 18720,
          "time": 19.5,
          "velocity": 0.9606299212598425
        }
      ],
      "endOfTrackTicks": 27360
    },
    {
      "channel": 0,
      "controlChanges": {},
      "pitchBends": [],
      "instrument": {
        "family": "piano",
        "name": "acoustic grand piano",
        "number": 0
      },
      "name": "Shaker 19",
      "notes": [
        {
          "duration": 9,
          "durationTicks": 8640,
          "midi": 82,
          "name": "A#5",
          "ticks": 19680,
          "time": 20.5,
          "velocity": 0.9606299212598425
        }
      ],
      "endOfTrackTicks": 28320
    },
    {
      "channel": 0,
      "controlChanges": {},
      "pitchBends": [],
      "instrument": {
        "family": "piano",
        "name": "acoustic grand piano",
        "number": 0
      },
      "name": "Shaker 19",
      "notes": [
        {
          "duration": 9,
          "durationTicks": 8640,
          "midi": 82,
          "name": "A#5",
          "ticks": 20640,
          "time": 21.5,
          "velocity": 0.9606299212598425
        }
      ],
      "endOfTrackTicks": 29280
    },
    {
      "channel": 0,
      "controlChanges": {},
      "pitchBends": [],
      "instrument": {
        "family": "piano",
        "name": "acoustic grand piano",
        "number": 0
      },
      "name": "Shaker 19",
      "notes": [
        {
          "duration": 9,
          "durationTicks": 8640,
          "midi": 82,
          "name": "A#5",
          "ticks": 21600,
          "time": 22.5,
          "velocity": 0.9606299212598425
        }
      ],
      "endOfTrackTicks": 30240
    },
    {
      "channel": 0,
      "controlChanges": {},
      "pitchBends": [],
      "instrument": {
        "family": "piano",
        "name": "acoustic grand piano",
        "number": 0
      },
      "name": "Shaker 19",
      "notes": [
        {
          "duration": 9,
          "durationTicks": 8640,
          "midi": 82,
          "name": "A#5",
          "ticks": 22560,
          "time": 23.5,
          "velocity": 0.9606299212598425
        }
      ],
      "endOfTrackTicks": 31200
    },
    {
      "channel": 0,
      "controlChanges": {},
      "pitchBends": [],
      "instrument": {
        "family": "piano",
        "name": "acoustic grand piano",
        "number": 0
      },
      "name": "Shaker 19",
      "notes": [
        {
          "duration": 9,
          "durationTicks": 8640,
          "midi": 82,
          "name": "A#5",
          "ticks": 23520,
          "time": 24.5,
          "velocity": 0.9606299212598425
        }
      ],
      "endOfTrackTicks": 32160
    },
    {
      "channel": 0,
      "controlChanges": {},
      "pitchBends": [],
      "instrument": {
        "family": "piano",
        "name": "acoustic grand piano",
        "number": 0
      },
      "name": "Shaker 19",
      "notes": [
        {
          "duration": 9,
          "durationTicks": 8640,
          "midi": 82,
          "name": "A#5",
          "ticks": 24480,
          "time": 25.5,
          "velocity": 0.9606299212598425
        }
      ],
      "endOfTrackTicks": 33120
    },
    {
      "channel": 0,
      "controlChanges": {},
      "pitchBends": [],
      "instrument": {
        "family": "piano",
        "name": "acoustic grand piano",
        "number": 0
      },
      "name": "Shaker 19",
      "notes": [
        {
          "duration": 9,
          "durationTicks": 8640,
          "midi": 82,
          "name": "A#5",
          "ticks": 25440,
          "time": 26.5,
          "velocity": 0.9606299212598425
        }
      ],
      "endOfTrackTicks": 34080
    },
    {
      "channel": 0,
      "controlChanges": {},
      "pitchBends": [],
      "instrument": {
        "family": "piano",
        "name": "acoustic grand piano",
        "number": 0
      },
      "name": "Shaker 19",
      "notes": [
        {
          "duration": 9,
          "durationTicks": 8640,
          "midi": 82,
          "name": "A#5",
          "ticks": 26400,
          "time": 27.5,
          "velocity": 0.9606299212598425
        }
      ],
      "endOfTrackTicks": 35040
    },
    {
      "channel": 0,
      "controlChanges": {},
      "pitchBends": [],
      "instrument": {
        "family": "piano",
        "name": "acoustic grand piano",
        "number": 0
      },
      "name": "Shaker 19",
      "notes": [
        {
          "duration": 9,
          "durationTicks": 8640,
          "midi": 82,
          "name": "A#5",
          "ticks": 27360,
          "time": 28.5,
          "velocity": 0.9606299212598425
        }
      ],
      "endOfTrackTicks": 36000
    },
    {
      "channel": 0,
      "controlChanges": {},
      "pitchBends": [],
      "instrument": {
        "family": "piano",
        "name": "acoustic grand piano",
        "number": 0
      },
      "name": "Shaker 19",
      "notes": [
        {
          "duration": 9,
          "durationTicks": 8640,
          "midi": 82,
          "name": "A#5",
          "ticks": 28320,
          "time": 29.5,
          "velocity": 0.9606299212598425
        }
      ],
      "endOfTrackTicks": 36960
    },
    {
      "channel": 0,
      "controlChanges": {},
      "pitchBends": [],
      "instrument": {
        "family": "piano",
        "name": "acoustic grand piano",
        "number": 0
      },
      "name": "Shaker 19",
      "notes": [
        {
          "duration": 9,
          "durationTicks": 8640,
          "midi": 82,
          "name": "A#5",
          "ticks": 29280,
          "time": 30.5,
          "velocity": 0.9606299212598425
        }
      ],
      "endOfTrackTicks": 37920
    },
    {
      "channel": 0,
      "controlChanges": {},
      "pitchBends": [],
      "instrument": {
        "family": "piano",
        "name": "acoustic grand piano",
        "number": 0
      },
      "name": "Shaker 19",
      "notes": [
        {
          "duration": 9,
          "durationTicks": 8640,
          "midi": 82,
          "name": "A#5",
          "ticks": 30240,
          "time": 31.5,
          "velocity": 0.9606299212598425
        }
      ],
      "endOfTrackTicks": 38880
    },
    {
      "channel": 0,
      "controlChanges": {},
      "pitchBends": [],
      "instrument": {
        "family": "piano",
        "name": "acoustic grand piano",
        "number": 0
      },
      "name": "Shaker 19",
      "notes": [
        {
          "duration": 9,
          "durationTicks": 8640,
          "midi": 82,
          "name": "A#5",
          "ticks": 33120,
          "time": 34.5,
          "velocity": 0.9606299212598425
        }
      ],
      "endOfTrackTicks": 41760
    },
    {
      "channel": 0,
      "controlChanges": {},
      "pitchBends": [],
      "instrument": {
        "family": "piano",
        "name": "acoustic grand piano",
        "number": 0
      },
      "name": "Shaker 19",
      "notes": [
        {
          "duration": 9,
          "durationTicks": 8640,
          "midi": 82,
          "name": "A#5",
          "ticks": 34080,
          "time": 35.5,
          "velocity": 0.9606299212598425
        }
      ],
      "endOfTrackTicks": 42720
    },
    {
      "channel": 0,
      "controlChanges": {},
      "pitchBends": [],
      "instrument": {
        "family": "piano",
        "name": "acoustic grand piano",
        "number": 0
      },
      "name": "Shaker 19",
      "notes": [
        {
          "duration": 9,
          "durationTicks": 8640,
          "midi": 82,
          "name": "A#5",
          "ticks": 35040,
          "time": 36.5,
          "velocity": 0.9606299212598425
        }
      ],
      "endOfTrackTicks": 43680
    },
    {
      "channel": 0,
      "controlChanges": {},
      "pitchBends": [],
      "instrument": {
        "family": "piano",
        "name": "acoustic grand piano",
        "number": 0
      },
      "name": "Shaker 19",
      "notes": [
        {
          "duration": 9,
          "durationTicks": 8640,
          "midi": 82,
          "name": "A#5",
          "ticks": 36000,
          "time": 37.5,
          "velocity": 0.9606299212598425
        }
      ],
      "endOfTrackTicks": 44640
    },
    {
      "channel": 0,
      "controlChanges": {},
      "pitchBends": [],
      "instrument": {
        "family": "piano",
        "name": "acoustic grand piano",
        "number": 0
      },
      "name": "Shaker 19",
      "notes": [
        {
          "duration": 9,
          "durationTicks": 8640,
          "midi": 82,
          "name": "A#5",
          "ticks": 36960,
          "time": 38.5,
          "velocity": 0.9606299212598425
        }
      ],
      "endOfTrackTicks": 45600
    },
    {
      "channel": 0,
      "controlChanges": {},
      "pitchBends": [],
      "instrument": {
        "family": "piano",
        "name": "acoustic grand piano",
        "number": 0
      },
      "name": "Shaker 19",
      "notes": [
        {
          "duration": 9,
          "durationTicks": 8640,
          "midi": 82,
          "name": "A#5",
          "ticks": 37920,
          "time": 39.5,
          "velocity": 0.9606299212598425
        }
      ],
      "endOfTrackTicks": 46560
    },
    {
      "channel": 0,
      "controlChanges": {},
      "pitchBends": [],
      "instrument": {
        "family": "piano",
        "name": "acoustic grand piano",
        "number": 0
      },
      "name": "Shaker 19",
      "notes": [
        {
          "duration": 9,
          "durationTicks": 8640,
          "midi": 82,
          "name": "A#5",
          "ticks": 38880,
          "time": 40.5,
          "velocity": 0.9606299212598425
        }
      ],
      "endOfTrackTicks": 47520
    },
    {
      "channel": 0,
      "controlChanges": {},
      "pitchBends": [],
      "instrument": {
        "family": "piano",
        "name": "acoustic grand piano",
        "number": 0
      },
      "name": "Shaker 19",
      "notes": [
        {
          "duration": 9,
          "durationTicks": 8640,
          "midi": 82,
          "name": "A#5",
          "ticks": 39840,
          "time": 41.5,
          "velocity": 0.9606299212598425
        }
      ],
      "endOfTrackTicks": 48480
    },
    {
      "channel": 0,
      "controlChanges": {},
      "pitchBends": [],
      "instrument": {
        "family": "piano",
        "name": "acoustic grand piano",
        "number": 0
      },
      "name": "Shaker 19",
      "notes": [
        {
          "duration": 9,
          "durationTicks": 8640,
          "midi": 82,
          "name": "A#5",
          "ticks": 40800,
          "time": 42.5,
          "velocity": 0.9606299212598425
        }
      ],
      "endOfTrackTicks": 49440
    },
    {
      "channel": 0,
      "controlChanges": {},
      "pitchBends": [],
      "instrument": {
        "family": "piano",
        "name": "acoustic grand piano",
        "number": 0
      },
      "name": "Shaker 19",
      "notes": [
        {
          "duration": 9,
          "durationTicks": 8640,
          "midi": 82,
          "name": "A#5",
          "ticks": 41760,
          "time": 43.5,
          "velocity": 0.9606299212598425
        }
      ],
      "endOfTrackTicks": 50400
    },
    {
      "channel": 0,
      "controlChanges": {},
      "pitchBends": [],
      "instrument": {
        "family": "piano",
        "name": "acoustic grand piano",
        "number": 0
      },
      "name": "Shaker 19",
      "notes": [
        {
          "duration": 9,
          "durationTicks": 8640,
          "midi": 82,
          "name": "A#5",
          "ticks": 42720,
          "time": 44.5,
          "velocity": 0.9606299212598425
        }
      ],
      "endOfTrackTicks": 51360
    },
    {
      "channel": 0,
      "controlChanges": {},
      "pitchBends": [],
      "instrument": {
        "family": "piano",
        "name": "acoustic grand piano",
        "number": 0
      },
      "name": "Shaker 19",
      "notes": [
        {
          "duration": 9,
          "durationTicks": 8640,
          "midi": 82,
          "name": "A#5",
          "ticks": 43680,
          "time": 45.5,
          "velocity": 0.9606299212598425
        }
      ],
      "endOfTrackTicks": 52320
    },
    {
      "channel": 0,
      "controlChanges": {},
      "pitchBends": [],
      "instrument": {
        "family": "piano",
        "name": "acoustic grand piano",
        "number": 0
      },
      "name": "Shaker 19",
      "notes": [
        {
          "duration": 9,
          "durationTicks": 8640,
          "midi": 82,
          "name": "A#5",
          "ticks": 44640,
          "time": 46.5,
          "velocity": 0.9606299212598425
        }
      ],
      "endOfTrackTicks": 53280
    },
    {
      "channel": 0,
      "controlChanges": {},
      "pitchBends": [],
      "instrument": {
        "family": "piano",
        "name": "acoustic grand piano",
        "number": 0
      },
      "name": "Shaker 19",
      "notes": [
        {
          "duration": 9,
          "durationTicks": 8640,
          "midi": 82,
          "name": "A#5",
          "ticks": 45600,
          "time": 47.5,
          "velocity": 0.9606299212598425
        }
      ],
      "endOfTrackTicks": 54240
    },
    {
      "channel": 0,
      "controlChanges": {},
      "pitchBends": [],
      "instrument": {
        "family": "piano",
        "name": "acoustic grand piano",
        "number": 0
      },
      "name": "Shaker 19",
      "notes": [
        {
          "duration": 9,
          "durationTicks": 8640,
          "midi": 82,
          "name": "A#5",
          "ticks": 46560,
          "time": 48.5,
          "velocity": 0.9606299212598425
        }
      ],
      "endOfTrackTicks": 55200
    },
    {
      "channel": 0,
      "controlChanges": {},
      "pitchBends": [],
      "instrument": {
        "family": "piano",
        "name": "acoustic grand piano",
        "number": 0
      },
      "name": "Shaker",
      "notes": [
        {
          "duration": 2,
          "durationTicks": 1920,
          "midi": 67,
          "name": "G4",
          "ticks": 11520,
          "time": 12,
          "velocity": 0.7322834645669292
        }
      ],
      "endOfTrackTicks": 13440
    },
    {
      "channel": 0,
      "controlChanges": {},
      "pitchBends": [],
      "instrument": {
        "family": "piano",
        "name": "acoustic grand piano",
        "number": 0
      },
      "name": "Shaker",
      "notes": [
        {
          "duration": 2,
          "durationTicks": 1920,
          "midi": 67,
          "name": "G4",
          "ticks": 13440,
          "time": 14,
          "velocity": 0.7322834645669292
        }
      ],
      "endOfTrackTicks": 15360
    },
    {
      "channel": 0,
      "controlChanges": {},
      "pitchBends": [],
      "instrument": {
        "family": "piano",
        "name": "acoustic grand piano",
        "number": 0
      },
      "name": "Shaker",
      "notes": [
        {
          "duration": 2,
          "durationTicks": 1920,
          "midi": 67,
          "name": "G4",
          "ticks": 15360,
          "time": 16,
          "velocity": 0.7322834645669292
        }
      ],
      "endOfTrackTicks": 17280
    },
    {
      "channel": 0,
      "controlChanges": {},
      "pitchBends": [],
      "instrument": {
        "family": "piano",
        "name": "acoustic grand piano",
        "number": 0
      },
      "name": "Shaker",
      "notes": [
        {
          "duration": 2,
          "durationTicks": 1920,
          "midi": 67,
          "name": "G4",
          "ticks": 17280,
          "time": 18,
          "velocity": 0.7322834645669292
        }
      ],
      "endOfTrackTicks": 19200
    },
    {
      "channel": 0,
      "controlChanges": {},
      "pitchBends": [],
      "instrument": {
        "family": "piano",
        "name": "acoustic grand piano",
        "number": 0
      },
      "name": "Shaker",
      "notes": [
        {
          "duration": 2,
          "durationTicks": 1920,
          "midi": 67,
          "name": "G4",
          "ticks": 19200,
          "time": 20,
          "velocity": 0.7322834645669292
        }
      ],
      "endOfTrackTicks": 21120
    },
    {
      "channel": 0,
      "controlChanges": {},
      "pitchBends": [],
      "instrument": {
        "family": "piano",
        "name": "acoustic grand piano",
        "number": 0
      },
      "name": "Shaker",
      "notes": [
        {
          "duration": 2,
          "durationTicks": 1920,
          "midi": 67,
          "name": "G4",
          "ticks": 21120,
          "time": 22,
          "velocity": 0.7322834645669292
        }
      ],
      "endOfTrackTicks": 23040
    },
    {
      "channel": 0,
      "controlChanges": {},
      "pitchBends": [],
      "instrument": {
        "family": "piano",
        "name": "acoustic grand piano",
        "number": 0
      },
      "name": "Shaker",
      "notes": [
        {
          "duration": 2,
          "durationTicks": 1920,
          "midi": 67,
          "name": "G4",
          "ticks": 23040,
          "time": 24,
          "velocity": 0.7322834645669292
        }
      ],
      "endOfTrackTicks": 24960
    },
    {
      "channel": 0,
      "controlChanges": {},
      "pitchBends": [],
      "instrument": {
        "family": "piano",
        "name": "acoustic grand piano",
        "number": 0
      },
      "name": "Shaker",
      "notes": [
        {
          "duration": 2,
          "durationTicks": 1920,
          "midi": 67,
          "name": "G4",
          "ticks": 24960,
          "time": 26,
          "velocity": 0.7322834645669292
        }
      ],
      "endOfTrackTicks": 26880
    },
    {
      "channel": 0,
      "controlChanges": {},
      "pitchBends": [],
      "instrument": {
        "family": "piano",
        "name": "acoustic grand piano",
        "number": 0
      },
      "name": "Shaker",
      "notes": [
        {
          "duration": 2,
          "durationTicks": 1920,
          "midi": 67,
          "name": "G4",
          "ticks": 26880,
          "time": 28,
          "velocity": 0.7322834645669292
        }
      ],
      "endOfTrackTicks": 28800
    },
    {
      "channel": 0,
      "controlChanges": {},
      "pitchBends": [],
      "instrument": {
        "family": "piano",
        "name": "acoustic grand piano",
        "number": 0
      },
      "name": "Shaker",
      "notes": [
        {
          "duration": 2,
          "durationTicks": 1920,
          "midi": 67,
          "name": "G4",
          "ticks": 28800,
          "time": 30,
          "velocity": 0.7322834645669292
        }
      ],
      "endOfTrackTicks": 30720
    },
    {
      "channel": 0,
      "controlChanges": {},
      "pitchBends": [],
      "instrument": {
        "family": "piano",
        "name": "acoustic grand piano",
        "number": 0
      },
      "name": "Shaker",
      "notes": [
        {
          "duration": 0.171875,
          "durationTicks": 165,
          "midi": 67,
          "name": "G4",
          "ticks": 32640,
          "time": 34,
          "velocity": 0.7322834645669292
        }
      ],
      "endOfTrackTicks": 33120
    },
    {
      "channel": 0,
      "controlChanges": {},
      "pitchBends": [],
      "instrument": {
        "family": "piano",
        "name": "acoustic grand piano",
        "number": 0
      },
      "name": "Shaker",
      "notes": [
        {
          "duration": 0.171875,
          "durationTicks": 165,
          "midi": 67,
          "name": "G4",
          "ticks": 33120,
          "time": 34.5,
          "velocity": 0.7322834645669292
        }
      ],
      "endOfTrackTicks": 33285
    },
    {
      "channel": 0,
      "controlChanges": {},
      "pitchBends": [],
      "instrument": {
        "family": "piano",
        "name": "acoustic grand piano",
        "number": 0
      },
      "name": "Shaker",
      "notes": [
        {
          "duration": 0.171875,
          "durationTicks": 165,
          "midi": 67,
          "name": "G4",
          "ticks": 33600,
          "time": 35,
          "velocity": 0.7322834645669292
        }
      ],
      "endOfTrackTicks": 33765
    },
    {
      "channel": 0,
      "controlChanges": {},
      "pitchBends": [],
      "instrument": {
        "family": "piano",
        "name": "acoustic grand piano",
        "number": 0
      },
      "name": "Shaker",
      "notes": [
        {
          "duration": 0.171875,
          "durationTicks": 165,
          "midi": 67,
          "name": "G4",
          "ticks": 34080,
          "time": 35.5,
          "velocity": 0.7322834645669292
        }
      ],
      "endOfTrackTicks": 34245
    },
    {
      "channel": 0,
      "controlChanges": {},
      "pitchBends": [],
      "instrument": {
        "family": "piano",
        "name": "acoustic grand piano",
        "number": 0
      },
      "name": "Shaker",
      "notes": [
        {
          "duration": 0.171875,
          "durationTicks": 165,
          "midi": 67,
          "name": "G4",
          "ticks": 34560,
          "time": 36,
          "velocity": 0.7322834645669292
        }
      ],
      "endOfTrackTicks": 34725
    },
    {
      "channel": 0,
      "controlChanges": {},
      "pitchBends": [],
      "instrument": {
        "family": "piano",
        "name": "acoustic grand piano",
        "number": 0
      },
      "name": "Shaker",
      "notes": [
        {
          "duration": 0.171875,
          "durationTicks": 165,
          "midi": 67,
          "name": "G4",
          "ticks": 35040,
          "time": 36.5,
          "velocity": 0.7322834645669292
        }
      ],
      "endOfTrackTicks": 35205
    },
    {
      "channel": 0,
      "controlChanges": {},
      "pitchBends": [],
      "instrument": {
        "family": "piano",
        "name": "acoustic grand piano",
        "number": 0
      },
      "name": "Shaker",
      "notes": [
        {
          "duration": 0.171875,
          "durationTicks": 165,
          "midi": 67,
          "name": "G4",
          "ticks": 35520,
          "time": 37,
          "velocity": 0.7322834645669292
        }
      ],
      "endOfTrackTicks": 35685
    },
    {
      "channel": 0,
      "controlChanges": {},
      "pitchBends": [],
      "instrument": {
        "family": "piano",
        "name": "acoustic grand piano",
        "number": 0
      },
      "name": "Shaker",
      "notes": [
        {
          "duration": 0.171875,
          "durationTicks": 165,
          "midi": 67,
          "name": "G4",
          "ticks": 36000,
          "time": 37.5,
          "velocity": 0.7322834645669292
        }
      ],
      "endOfTrackTicks": 36165
    },
    {
      "channel": 0,
      "controlChanges": {},
      "pitchBends": [],
      "instrument": {
        "family": "piano",
        "name": "acoustic grand piano",
        "number": 0
      },
      "name": "Shaker",
      "notes": [
        {
          "duration": 0.171875,
          "durationTicks": 165,
          "midi": 67,
          "name": "G4",
          "ticks": 36480,
          "time": 38,
          "velocity": 0.7322834645669292
        }
      ],
      "endOfTrackTicks": 36645
    },
    {
      "channel": 0,
      "controlChanges": {},
      "pitchBends": [],
      "instrument": {
        "family": "piano",
        "name": "acoustic grand piano",
        "number": 0
      },
      "name": "Shaker",
      "notes": [
        {
          "duration": 0.171875,
          "durationTicks": 165,
          "midi": 67,
          "name": "G4",
          "ticks": 36960,
          "time": 38.5,
          "velocity": 0.7322834645669292
        }
      ],
      "endOfTrackTicks": 37125
    },
    {
      "channel": 0,
      "controlChanges": {},
      "pitchBends": [],
      "instrument": {
        "family": "piano",
        "name": "acoustic grand piano",
        "number": 0
      },
      "name": "Shaker",
      "notes": [
        {
          "duration": 0.171875,
          "durationTicks": 165,
          "midi": 67,
          "name": "G4",
          "ticks": 37440,
          "time": 39,
          "velocity": 0.7322834645669292
        }
      ],
      "endOfTrackTicks": 37605
    },
    {
      "channel": 0,
      "controlChanges": {},
      "pitchBends": [],
      "instrument": {
        "family": "piano",
        "name": "acoustic grand piano",
        "number": 0
      },
      "name": "Shaker",
      "notes": [
        {
          "duration": 0.171875,
          "durationTicks": 165,
          "midi": 67,
          "name": "G4",
          "ticks": 37920,
          "time": 39.5,
          "velocity": 0.7322834645669292
        }
      ],
      "endOfTrackTicks": 38085
    },
    {
      "channel": 0,
      "controlChanges": {},
      "pitchBends": [],
      "instrument": {
        "family": "piano",
        "name": "acoustic grand piano",
        "number": 0
      },
      "name": "Shaker",
      "notes": [
        {
          "duration": 0.171875,
          "durationTicks": 165,
          "midi": 67,
          "name": "G4",
          "ticks": 38400,
          "time": 40,
          "velocity": 0.7322834645669292
        }
      ],
      "endOfTrackTicks": 38565
    },
    {
      "channel": 0,
      "controlChanges": {},
      "pitchBends": [],
      "instrument": {
        "family": "piano",
        "name": "acoustic grand piano",
        "number": 0
      },
      "name": "Shaker",
      "notes": [
        {
          "duration": 0.171875,
          "durationTicks": 165,
          "midi": 67,
          "name": "G4",
          "ticks": 38880,
          "time": 40.5,
          "velocity": 0.7322834645669292
        }
      ],
      "endOfTrackTicks": 39045
    },
    {
      "channel": 0,
      "controlChanges": {},
      "pitchBends": [],
      "instrument": {
        "family": "piano",
        "name": "acoustic grand piano",
        "number": 0
      },
      "name": "Shaker",
      "notes": [
        {
          "duration": 0.171875,
          "durationTicks": 165,
          "midi": 67,
          "name": "G4",
          "ticks": 39360,
          "time": 41,
          "velocity": 0.7322834645669292
        }
      ],
      "endOfTrackTicks": 39525
    },
    {
      "channel": 0,
      "controlChanges": {},
      "pitchBends": [],
      "instrument": {
        "family": "piano",
        "name": "acoustic grand piano",
        "number": 0
      },
      "name": "Shaker",
      "notes": [
        {
          "duration": 0.171875,
          "durationTicks": 165,
          "midi": 67,
          "name": "G4",
          "ticks": 40320,
          "time": 42,
          "velocity": 0.7322834645669292
        }
      ],
      "endOfTrackTicks": 40800
    },
    {
      "channel": 0,
      "controlChanges": {},
      "pitchBends": [],
      "instrument": {
        "family": "piano",
        "name": "acoustic grand piano",
        "number": 0
      },
      "name": "Shaker",
      "notes": [
        {
          "duration": 0.171875,
          "durationTicks": 165,
          "midi": 67,
          "name": "G4",
          "ticks": 40800,
          "time": 42.5,
          "velocity": 0.7322834645669292
        }
      ],
      "endOfTrackTicks": 40965
    },
    {
      "channel": 0,
      "controlChanges": {},
      "pitchBends": [],
      "instrument": {
        "family": "piano",
        "name": "acoustic grand piano",
        "number": 0
      },
      "name": "Shaker",
      "notes": [
        {
          "duration": 0.171875,
          "durationTicks": 165,
          "midi": 67,
          "name": "G4",
          "ticks": 41280,
          "time": 43,
          "velocity": 0.7322834645669292
        }
      ],
      "endOfTrackTicks": 41445
    },
    {
      "channel": 0,
      "controlChanges": {},
      "pitchBends": [],
      "instrument": {
        "family": "piano",
        "name": "acoustic grand piano",
        "number": 0
      },
      "name": "Shaker",
      "notes": [
        {
          "duration": 0.171875,
          "durationTicks": 165,
          "midi": 67,
          "name": "G4",
          "ticks": 41760,
          "time": 43.5,
          "velocity": 0.7322834645669292
        }
      ],
      "endOfTrackTicks": 41925
    },
    {
      "channel": 0,
      "controlChanges": {},
      "pitchBends": [],
      "instrument": {
        "family": "piano",
        "name": "acoustic grand piano",
        "number": 0
      },
      "name": "Shaker",
      "notes": [
        {
          "duration": 0.171875,
          "durationTicks": 165,
          "midi": 67,
          "name": "G4",
          "ticks": 42240,
          "time": 44,
          "velocity": 0.7322834645669292
        }
      ],
      "endOfTrackTicks": 42405
    },
    {
      "channel": 0,
      "controlChanges": {},
      "pitchBends": [],
      "instrument": {
        "family": "piano",
        "name": "acoustic grand piano",
        "number": 0
      },
      "name": "Shaker",
      "notes": [
        {
          "duration": 0.171875,
          "durationTicks": 165,
          "midi": 67,
          "name": "G4",
          "ticks": 42720,
          "time": 44.5,
          "velocity": 0.7322834645669292
        }
      ],
      "endOfTrackTicks": 42885
    },
    {
      "channel": 0,
      "controlChanges": {},
      "pitchBends": [],
      "instrument": {
        "family": "piano",
        "name": "acoustic grand piano",
        "number": 0
      },
      "name": "Shaker",
      "notes": [
        {
          "duration": 0.171875,
          "durationTicks": 165,
          "midi": 67,
          "name": "G4",
          "ticks": 43200,
          "time": 45,
          "velocity": 0.7322834645669292
        }
      ],
      "endOfTrackTicks": 43365
    },
    {
      "channel": 0,
      "controlChanges": {},
      "pitchBends": [],
      "instrument": {
        "family": "piano",
        "name": "acoustic grand piano",
        "number": 0
      },
      "name": "Shaker",
      "notes": [
        {
          "duration": 0.171875,
          "durationTicks": 165,
          "midi": 67,
          "name": "G4",
          "ticks": 43680,
          "time": 45.5,
          "velocity": 0.7322834645669292
        }
      ],
      "endOfTrackTicks": 43845
    },
    {
      "channel": 0,
      "controlChanges": {},
      "pitchBends": [],
      "instrument": {
        "family": "piano",
        "name": "acoustic grand piano",
        "number": 0
      },
      "name": "Shaker",
      "notes": [
        {
          "duration": 0.171875,
          "durationTicks": 165,
          "midi": 67,
          "name": "G4",
          "ticks": 44160,
          "time": 46,
          "velocity": 0.7322834645669292
        }
      ],
      "endOfTrackTicks": 44325
    },
    {
      "channel": 0,
      "controlChanges": {},
      "pitchBends": [],
      "instrument": {
        "family": "piano",
        "name": "acoustic grand piano",
        "number": 0
      },
      "name": "Shaker",
      "notes": [
        {
          "duration": 0.171875,
          "durationTicks": 165,
          "midi": 67,
          "name": "G4",
          "ticks": 44640,
          "time": 46.5,
          "velocity": 0.7322834645669292
        }
      ],
      "endOfTrackTicks": 44805
    },
    {
      "channel": 0,
      "controlChanges": {},
      "pitchBends": [],
      "instrument": {
        "family": "piano",
        "name": "acoustic grand piano",
        "number": 0
      },
      "name": "Shaker",
      "notes": [
        {
          "duration": 0.171875,
          "durationTicks": 165,
          "midi": 67,
          "name": "G4",
          "ticks": 45120,
          "time": 47,
          "velocity": 0.7322834645669292
        }
      ],
      "endOfTrackTicks": 45285
    },
    {
      "channel": 0,
      "controlChanges": {},
      "pitchBends": [],
      "instrument": {
        "family": "piano",
        "name": "acoustic grand piano",
        "number": 0
      },
      "name": "Shaker",
      "notes": [
        {
          "duration": 0.171875,
          "durationTicks": 165,
          "midi": 67,
          "name": "G4",
          "ticks": 45600,
          "time": 47.5,
          "velocity": 0.7322834645669292
        }
      ],
      "endOfTrackTicks": 45765
    },
    {
      "channel": 0,
      "controlChanges": {},
      "pitchBends": [],
      "instrument": {
        "family": "piano",
        "name": "acoustic grand piano",
        "number": 0
      },
      "name": "Shaker",
      "notes": [
        {
          "duration": 0.171875,
          "durationTicks": 165,
          "midi": 67,
          "name": "G4",
          "ticks": 46080,
          "time": 48,
          "velocity": 0.7322834645669292
        }
      ],
      "endOfTrackTicks": 46245
    },
    {
      "channel": 0,
      "controlChanges": {},
      "pitchBends": [],
      "instrument": {
        "family": "piano",
        "name": "acoustic grand piano",
        "number": 0
      },
      "name": "Shaker",
      "notes": [
        {
          "duration": 0.171875,
          "durationTicks": 165,
          "midi": 67,
          "name": "G4",
          "ticks": 46560,
          "time": 48.5,
          "velocity": 0.7322834645669292
        }
      ],
      "endOfTrackTicks": 46725
    },
    {
      "channel": 0,
      "controlChanges": {},
      "pitchBends": [],
      "instrument": {
        "family": "piano",
        "name": "acoustic grand piano",
        "number": 0
      },
      "name": "Funky Pop Drum 03",
      "notes": [
        {
          "duration": 0.5,
          "durationTicks": 480,
          "midi": 78,
          "name": "F#5",
          "ticks": 12960,
          "time": 13.5,
          "velocity": 0.9212598425196851
        }
      ],
      "endOfTrackTicks": 13440
    },
    {
      "channel": 0,
      "controlChanges": {},
      "pitchBends": [],
      "instrument": {
        "family": "piano",
        "name": "acoustic grand piano",
        "number": 0
      },
      "name": "Funky Pop Drum 03",
      "notes": [
        {
          "duration": 0.5,
          "durationTicks": 480,
          "midi": 78,
          "name": "F#5",
          "ticks": 16800,
          "time": 17.5,
          "velocity": 0.9212598425196851
        }
      ],
      "endOfTrackTicks": 17280
    },
    {
      "channel": 0,
      "controlChanges": {},
      "pitchBends": [],
      "instrument": {
        "family": "piano",
        "name": "acoustic grand piano",
        "number": 0
      },
      "name": "Funky Pop Drum 03",
      "notes": [
        {
          "duration": 0.5,
          "durationTicks": 480,
          "midi": 78,
          "name": "F#5",
          "ticks": 20640,
          "time": 21.5,
          "velocity": 0.9212598425196851
        }
      ],
      "endOfTrackTicks": 21120
    },
    {
      "channel": 0,
      "controlChanges": {},
      "pitchBends": [],
      "instrument": {
        "family": "piano",
        "name": "acoustic grand piano",
        "number": 0
      },
      "name": "Funky Pop Drum 03",
      "notes": [
        {
          "duration": 0.5,
          "durationTicks": 480,
          "midi": 78,
          "name": "F#5",
          "ticks": 24480,
          "time": 25.5,
          "velocity": 0.9212598425196851
        }
      ],
      "endOfTrackTicks": 24960
    },
    {
      "channel": 0,
      "controlChanges": {},
      "pitchBends": [],
      "instrument": {
        "family": "piano",
        "name": "acoustic grand piano",
        "number": 0
      },
      "name": "Funky Pop Drum 03",
      "notes": [
        {
          "duration": 0.5,
          "durationTicks": 480,
          "midi": 78,
          "name": "F#5",
          "ticks": 28320,
          "time": 29.5,
          "velocity": 0.9212598425196851
        }
      ],
      "endOfTrackTicks": 28800
    },
    {
      "channel": 0,
      "controlChanges": {},
      "pitchBends": [],
      "instrument": {
        "family": "piano",
        "name": "acoustic grand piano",
        "number": 0
      },
      "name": "Funky Pop Drum 03",
      "notes": [
        {
          "duration": 0.5,
          "durationTicks": 480,
          "midi": 78,
          "name": "F#5",
          "ticks": 32160,
          "time": 33.5,
          "velocity": 0.9212598425196851
        }
      ],
      "endOfTrackTicks": 32640
    },
    {
      "channel": 0,
      "controlChanges": {},
      "pitchBends": [],
      "instrument": {
        "family": "piano",
        "name": "acoustic grand piano",
        "number": 0
      },
      "name": "Funky Pop Drum 03",
      "notes": [
        {
          "duration": 0.5,
          "durationTicks": 480,
          "midi": 78,
          "name": "F#5",
          "ticks": 34200,
          "time": 35.625,
          "velocity": 0.9212598425196851
        }
      ],
      "endOfTrackTicks": 34680
    },
    {
      "channel": 0,
      "controlChanges": {},
      "pitchBends": [],
      "instrument": {
        "family": "piano",
        "name": "acoustic grand piano",
        "number": 0
      },
      "name": "Funky Pop Drum 03",
      "notes": [
        {
          "duration": 0.5,
          "durationTicks": 480,
          "midi": 78,
          "name": "F#5",
          "ticks": 36000,
          "time": 37.5,
          "velocity": 0.9212598425196851
        }
      ],
      "endOfTrackTicks": 36480
    },
    {
      "channel": 0,
      "controlChanges": {},
      "pitchBends": [],
      "instrument": {
        "family": "piano",
        "name": "acoustic grand piano",
        "number": 0
      },
      "name": "Funky Pop Drum 03",
      "notes": [
        {
          "duration": 0.5,
          "durationTicks": 480,
          "midi": 78,
          "name": "F#5",
          "ticks": 38040,
          "time": 39.625,
          "velocity": 0.9212598425196851
        }
      ],
      "endOfTrackTicks": 38520
    },
    {
      "channel": 0,
      "controlChanges": {},
      "pitchBends": [],
      "instrument": {
        "family": "piano",
        "name": "acoustic grand piano",
        "number": 0
      },
      "name": "Funky Pop Drum 03",
      "notes": [
        {
          "duration": 0.5,
          "durationTicks": 480,
          "midi": 78,
          "name": "F#5",
          "ticks": 41760,
          "time": 43.5,
          "velocity": 0.9212598425196851
        }
      ],
      "endOfTrackTicks": 42240
    },
    {
      "channel": 0,
      "controlChanges": {},
      "pitchBends": [],
      "instrument": {
        "family": "piano",
        "name": "acoustic grand piano",
        "number": 0
      },
      "name": "Funky Pop Drum 03",
      "notes": [
        {
          "duration": 0.5,
          "durationTicks": 480,
          "midi": 78,
          "name": "F#5",
          "ticks": 43800,
          "time": 45.625,
          "velocity": 0.9212598425196851
        }
      ],
      "endOfTrackTicks": 44280
    },
    {
      "channel": 0,
      "controlChanges": {},
      "pitchBends": [],
      "instrument": {
        "family": "piano",
        "name": "acoustic grand piano",
        "number": 0
      },
      "name": "Funky Pop Drum 03",
      "notes": [
        {
          "duration": 0.5,
          "durationTicks": 480,
          "midi": 78,
          "name": "F#5",
          "ticks": 45600,
          "time": 47.5,
          "velocity": 0.9212598425196851
        }
      ],
      "endOfTrackTicks": 46080
    },
    {
      "channel": 0,
      "controlChanges": {},
      "pitchBends": [],
      "instrument": {
        "family": "piano",
        "name": "acoustic grand piano",
        "number": 0
      },
      "name": "Lo-Fi Ride Beat",
      "notes": [
        {
          "duration": 1,
          "durationTicks": 960,
          "midi": 51,
          "name": "D#3",
          "ticks": 15360,
          "time": 16,
          "velocity": 0.2204724409448819
        }
      ],
      "endOfTrackTicks": 16320
    },
    {
      "channel": 0,
      "controlChanges": {},
      "pitchBends": [],
      "instrument": {
        "family": "piano",
        "name": "acoustic grand piano",
        "number": 0
      },
      "name": "Lo-Fi Ride Beat",
      "notes": [
        {
          "duration": 1,
          "durationTicks": 960,
          "midi": 51,
          "name": "D#3",
          "ticks": 19200,
          "time": 20,
          "velocity": 0.2204724409448819
        }
      ],
      "endOfTrackTicks": 20160
    },
    {
      "channel": 0,
      "controlChanges": {},
      "pitchBends": [],
      "instrument": {
        "family": "piano",
        "name": "acoustic grand piano",
        "number": 0
      },
      "name": "Lo-Fi Ride Beat",
      "notes": [
        {
          "duration": 1,
          "durationTicks": 960,
          "midi": 51,
          "name": "D#3",
          "ticks": 23040,
          "time": 24,
          "velocity": 0.2204724409448819
        }
      ],
      "endOfTrackTicks": 24000
    },
    {
      "channel": 0,
      "controlChanges": {},
      "pitchBends": [],
      "instrument": {
        "family": "piano",
        "name": "acoustic grand piano",
        "number": 0
      },
      "name": "Lo-Fi Ride Beat",
      "notes": [
        {
          "duration": 1,
          "durationTicks": 960,
          "midi": 51,
          "name": "D#3",
          "ticks": 26880,
          "time": 28,
          "velocity": 0.2204724409448819
        }
      ],
      "endOfTrackTicks": 27840
    },
    {
      "channel": 0,
      "controlChanges": {},
      "pitchBends": [],
      "instrument": {
        "family": "piano",
        "name": "acoustic grand piano",
        "number": 0
      },
      "name": "Lo-Fi Ride Beat",
      "notes": [
        {
          "duration": 1,
          "durationTicks": 960,
          "midi": 51,
          "name": "D#3",
          "ticks": 30720,
          "time": 32,
          "velocity": 0.2204724409448819
        }
      ],
      "endOfTrackTicks": 31680
    },
    {
      "channel": 0,
      "controlChanges": {},
      "pitchBends": [],
      "instrument": {
        "family": "piano",
        "name": "acoustic grand piano",
        "number": 0
      },
      "name": "Lo-Fi Ride Beat",
      "notes": [
        {
          "duration": 1,
          "durationTicks": 960,
          "midi": 51,
          "name": "D#3",
          "ticks": 32640,
          "time": 34,
          "velocity": 0.2204724409448819
        }
      ],
      "endOfTrackTicks": 33600
    },
    {
      "channel": 0,
      "controlChanges": {},
      "pitchBends": [],
      "instrument": {
        "family": "piano",
        "name": "acoustic grand piano",
        "number": 0
      },
      "name": "Lo-Fi Ride Beat",
      "notes": [
        {
          "duration": 1,
          "durationTicks": 960,
          "midi": 51,
          "name": "D#3",
          "ticks": 33120,
          "time": 34.5,
          "velocity": 0.2204724409448819
        }
      ],
      "endOfTrackTicks": 34080
    },
    {
      "channel": 0,
      "controlChanges": {},
      "pitchBends": [],
      "instrument": {
        "family": "piano",
        "name": "acoustic grand piano",
        "number": 0
      },
      "name": "Lo-Fi Ride Beat",
      "notes": [
        {
          "duration": 1,
          "durationTicks": 960,
          "midi": 51,
          "name": "D#3",
          "ticks": 33600,
          "time": 35,
          "velocity": 0.2204724409448819
        }
      ],
      "endOfTrackTicks": 34560
    },
    {
      "channel": 0,
      "controlChanges": {},
      "pitchBends": [],
      "instrument": {
        "family": "piano",
        "name": "acoustic grand piano",
        "number": 0
      },
      "name": "Lo-Fi Ride Beat",
      "notes": [
        {
          "duration": 1,
          "durationTicks": 960,
          "midi": 51,
          "name": "D#3",
          "ticks": 34080,
          "time": 35.5,
          "velocity": 0.2204724409448819
        }
      ],
      "endOfTrackTicks": 35040
    },
    {
      "channel": 0,
      "controlChanges": {},
      "pitchBends": [],
      "instrument": {
        "family": "piano",
        "name": "acoustic grand piano",
        "number": 0
      },
      "name": "Lo-Fi Ride Beat",
      "notes": [
        {
          "duration": 1,
          "durationTicks": 960,
          "midi": 51,
          "name": "D#3",
          "ticks": 34560,
          "time": 36,
          "velocity": 0.2204724409448819
        }
      ],
      "endOfTrackTicks": 35520
    },
    {
      "channel": 0,
      "controlChanges": {},
      "pitchBends": [],
      "instrument": {
        "family": "piano",
        "name": "acoustic grand piano",
        "number": 0
      },
      "name": "Lo-Fi Ride Beat",
      "notes": [
        {
          "duration": 1,
          "durationTicks": 960,
          "midi": 51,
          "name": "D#3",
          "ticks": 35040,
          "time": 36.5,
          "velocity": 0.2204724409448819
        }
      ],
      "endOfTrackTicks": 36000
    },
    {
      "channel": 0,
      "controlChanges": {},
      "pitchBends": [],
      "instrument": {
        "family": "piano",
        "name": "acoustic grand piano",
        "number": 0
      },
      "name": "Lo-Fi Ride Beat",
      "notes": [
        {
          "duration": 1,
          "durationTicks": 960,
          "midi": 51,
          "name": "D#3",
          "ticks": 35520,
          "time": 37,
          "velocity": 0.2204724409448819
        }
      ],
      "endOfTrackTicks": 36480
    },
    {
      "channel": 0,
      "controlChanges": {},
      "pitchBends": [],
      "instrument": {
        "family": "piano",
        "name": "acoustic grand piano",
        "number": 0
      },
      "name": "Lo-Fi Ride Beat",
      "notes": [
        {
          "duration": 1,
          "durationTicks": 960,
          "midi": 51,
          "name": "D#3",
          "ticks": 36000,
          "time": 37.5,
          "velocity": 0.2204724409448819
        }
      ],
      "endOfTrackTicks": 36960
    },
    {
      "channel": 0,
      "controlChanges": {},
      "pitchBends": [],
      "instrument": {
        "family": "piano",
        "name": "acoustic grand piano",
        "number": 0
      },
      "name": "Lo-Fi Ride Beat",
      "notes": [
        {
          "duration": 1,
          "durationTicks": 960,
          "midi": 51,
          "name": "D#3",
          "ticks": 36480,
          "time": 38,
          "velocity": 0.2204724409448819
        }
      ],
      "endOfTrackTicks": 37440
    },
    {
      "channel": 0,
      "controlChanges": {},
      "pitchBends": [],
      "instrument": {
        "family": "piano",
        "name": "acoustic grand piano",
        "number": 0
      },
      "name": "Lo-Fi Ride Beat",
      "notes": [
        {
          "duration": 1,
          "durationTicks": 960,
          "midi": 51,
          "name": "D#3",
          "ticks": 36960,
          "time": 38.5,
          "velocity": 0.2204724409448819
        }
      ],
      "endOfTrackTicks": 37920
    },
    {
      "channel": 0,
      "controlChanges": {},
      "pitchBends": [],
      "instrument": {
        "family": "piano",
        "name": "acoustic grand piano",
        "number": 0
      },
      "name": "Lo-Fi Ride Beat",
      "notes": [
        {
          "duration": 1,
          "durationTicks": 960,
          "midi": 51,
          "name": "D#3",
          "ticks": 37440,
          "time": 39,
          "velocity": 0.2204724409448819
        }
      ],
      "endOfTrackTicks": 38400
    },
    {
      "channel": 0,
      "controlChanges": {},
      "pitchBends": [],
      "instrument": {
        "family": "piano",
        "name": "acoustic grand piano",
        "number": 0
      },
      "name": "Lo-Fi Ride Beat",
      "notes": [
        {
          "duration": 1,
          "durationTicks": 960,
          "midi": 51,
          "name": "D#3",
          "ticks": 37920,
          "time": 39.5,
          "velocity": 0.2204724409448819
        }
      ],
      "endOfTrackTicks": 38880
    },
    {
      "channel": 0,
      "controlChanges": {},
      "pitchBends": [],
      "instrument": {
        "family": "piano",
        "name": "acoustic grand piano",
        "number": 0
      },
      "name": "Lo-Fi Ride Beat",
      "notes": [
        {
          "duration": 1,
          "durationTicks": 960,
          "midi": 51,
          "name": "D#3",
          "ticks": 38400,
          "time": 40,
          "velocity": 0.2204724409448819
        }
      ],
      "endOfTrackTicks": 39360
    },
    {
      "channel": 0,
      "controlChanges": {},
      "pitchBends": [],
      "instrument": {
        "family": "piano",
        "name": "acoustic grand piano",
        "number": 0
      },
      "name": "Lo-Fi Ride Beat",
      "notes": [
        {
          "duration": 1,
          "durationTicks": 960,
          "midi": 51,
          "name": "D#3",
          "ticks": 38880,
          "time": 40.5,
          "velocity": 0.2204724409448819
        }
      ],
      "endOfTrackTicks": 39840
    },
    {
      "channel": 0,
      "controlChanges": {},
      "pitchBends": [],
      "instrument": {
        "family": "piano",
        "name": "acoustic grand piano",
        "number": 0
      },
      "name": "Lo-Fi Ride Beat",
      "notes": [
        {
          "duration": 1,
          "durationTicks": 960,
          "midi": 51,
          "name": "D#3",
          "ticks": 39360,
          "time": 41,
          "velocity": 0.2204724409448819
        }
      ],
      "endOfTrackTicks": 40320
    },
    {
      "channel": 0,
      "controlChanges": {},
      "pitchBends": [],
      "instrument": {
        "family": "piano",
        "name": "acoustic grand piano",
        "number": 0
      },
      "name": "Lo-Fi Ride Beat",
      "notes": [
        {
          "duration": 1,
          "durationTicks": 960,
          "midi": 51,
          "name": "D#3",
          "ticks": 40320,
          "time": 42,
          "velocity": 0.2204724409448819
        }
      ],
      "endOfTrackTicks": 41280
    },
    {
      "channel": 0,
      "controlChanges": {},
      "pitchBends": [],
      "instrument": {
        "family": "piano",
        "name": "acoustic grand piano",
        "number": 0
      },
      "name": "Lo-Fi Ride Beat",
      "notes": [
        {
          "duration": 1,
          "durationTicks": 960,
          "midi": 51,
          "name": "D#3",
          "ticks": 40800,
          "time": 42.5,
          "velocity": 0.2204724409448819
        }
      ],
      "endOfTrackTicks": 41760
    },
    {
      "channel": 0,
      "controlChanges": {},
      "pitchBends": [],
      "instrument": {
        "family": "piano",
        "name": "acoustic grand piano",
        "number": 0
      },
      "name": "Lo-Fi Ride Beat",
      "notes": [
        {
          "duration": 1,
          "durationTicks": 960,
          "midi": 51,
          "name": "D#3",
          "ticks": 41280,
          "time": 43,
          "velocity": 0.2204724409448819
        }
      ],
      "endOfTrackTicks": 42240
    },
    {
      "channel": 0,
      "controlChanges": {},
      "pitchBends": [],
      "instrument": {
        "family": "piano",
        "name": "acoustic grand piano",
        "number": 0
      },
      "name": "Lo-Fi Ride Beat",
      "notes": [
        {
          "duration": 1,
          "durationTicks": 960,
          "midi": 51,
          "name": "D#3",
          "ticks": 41760,
          "time": 43.5,
          "velocity": 0.2204724409448819
        }
      ],
      "endOfTrackTicks": 42720
    },
    {
      "channel": 0,
      "controlChanges": {},
      "pitchBends": [],
      "instrument": {
        "family": "piano",
        "name": "acoustic grand piano",
        "number": 0
      },
      "name": "Lo-Fi Ride Beat",
      "notes": [
        {
          "duration": 1,
          "durationTicks": 960,
          "midi": 51,
          "name": "D#3",
          "ticks": 42240,
          "time": 44,
          "velocity": 0.2204724409448819
        }
      ],
      "endOfTrackTicks": 43200
    },
    {
      "channel": 0,
      "controlChanges": {},
      "pitchBends": [],
      "instrument": {
        "family": "piano",
        "name": "acoustic grand piano",
        "number": 0
      },
      "name": "Lo-Fi Ride Beat",
      "notes": [
        {
          "duration": 1,
          "durationTicks": 960,
          "midi": 51,
          "name": "D#3",
          "ticks": 42720,
          "time": 44.5,
          "velocity": 0.2204724409448819
        }
      ],
      "endOfTrackTicks": 43680
    },
    {
      "channel": 0,
      "controlChanges": {},
      "pitchBends": [],
      "instrument": {
        "family": "piano",
        "name": "acoustic grand piano",
        "number": 0
      },
      "name": "Lo-Fi Ride Beat",
      "notes": [
        {
          "duration": 1,
          "durationTicks": 960,
          "midi": 51,
          "name": "D#3",
          "ticks": 43200,
          "time": 45,
          "velocity": 0.2204724409448819
        }
      ],
      "endOfTrackTicks": 44160
    },
    {
      "channel": 0,
      "controlChanges": {},
      "pitchBends": [],
      "instrument": {
        "family": "piano",
        "name": "acoustic grand piano",
        "number": 0
      },
      "name": "Lo-Fi Ride Beat",
      "notes": [
        {
          "duration": 1,
          "durationTicks": 960,
          "midi": 51,
          "name": "D#3",
          "ticks": 43680,
          "time": 45.5,
          "velocity": 0.2204724409448819
        }
      ],
      "endOfTrackTicks": 44640
    },
    {
      "channel": 0,
      "controlChanges": {},
      "pitchBends": [],
      "instrument": {
        "family": "piano",
        "name": "acoustic grand piano",
        "number": 0
      },
      "name": "Lo-Fi Ride Beat",
      "notes": [
        {
          "duration": 1,
          "durationTicks": 960,
          "midi": 51,
          "name": "D#3",
          "ticks": 44160,
          "time": 46,
          "velocity": 0.2204724409448819
        }
      ],
      "endOfTrackTicks": 45120
    },
    {
      "channel": 0,
      "controlChanges": {},
      "pitchBends": [],
      "instrument": {
        "family": "piano",
        "name": "acoustic grand piano",
        "number": 0
      },
      "name": "Lo-Fi Ride Beat",
      "notes": [
        {
          "duration": 1,
          "durationTicks": 960,
          "midi": 51,
          "name": "D#3",
          "ticks": 44640,
          "time": 46.5,
          "velocity": 0.2204724409448819
        }
      ],
      "endOfTrackTicks": 45600
    },
    {
      "channel": 0,
      "controlChanges": {},
      "pitchBends": [],
      "instrument": {
        "family": "piano",
        "name": "acoustic grand piano",
        "number": 0
      },
      "name": "Lo-Fi Ride Beat",
      "notes": [
        {
          "duration": 1,
          "durationTicks": 960,
          "midi": 51,
          "name": "D#3",
          "ticks": 45120,
          "time": 47,
          "velocity": 0.2204724409448819
        }
      ],
      "endOfTrackTicks": 46080
    },
    {
      "channel": 0,
      "controlChanges": {},
      "pitchBends": [],
      "instrument": {
        "family": "piano",
        "name": "acoustic grand piano",
        "number": 0
      },
      "name": "Lo-Fi Ride Beat",
      "notes": [
        {
          "duration": 1,
          "durationTicks": 960,
          "midi": 51,
          "name": "D#3",
          "ticks": 45600,
          "time": 47.5,
          "velocity": 0.2204724409448819
        }
      ],
      "endOfTrackTicks": 46560
    },
    {
      "channel": 0,
      "controlChanges": {},
      "pitchBends": [],
      "instrument": {
        "family": "piano",
        "name": "acoustic grand piano",
        "number": 0
      },
      "name": "Lo-Fi Ride Beat",
      "notes": [
        {
          "duration": 1,
          "durationTicks": 960,
          "midi": 51,
          "name": "D#3",
          "ticks": 46080,
          "time": 48,
          "velocity": 0.2204724409448819
        }
      ],
      "endOfTrackTicks": 47040
    },
    {
      "channel": 0,
      "controlChanges": {},
      "pitchBends": [],
      "instrument": {
        "family": "piano",
        "name": "acoustic grand piano",
        "number": 0
      },
      "name": "Lo-Fi Ride Beat",
      "notes": [
        {
          "duration": 1,
          "durationTicks": 960,
          "midi": 51,
          "name": "D#3",
          "ticks": 46560,
          "time": 48.5,
          "velocity": 0.2204724409448819
        }
      ],
      "endOfTrackTicks": 47520
    },
    {
      "channel": 0,
      "controlChanges": {},
      "pitchBends": [],
      "instrument": {
        "family": "piano",
        "name": "acoustic grand piano",
        "number": 0
      },
      "name": "Sharp Hi-Hat",
      "notes": [
        {
          "duration": 0.5,
          "durationTicks": 480,
          "midi": 59,
          "name": "B3",
          "ticks": 18480,
          "time": 19.25,
          "velocity": 0.8031496062992126
        },
        {
          "duration": 0.5218750000000014,
          "durationTicks": 501,
          "midi": 59,
          "name": "B3",
          "ticks": 18960,
          "time": 19.75,
          "velocity": 0.8031496062992126
        }
      ],
      "endOfTrackTicks": 21120
    },
    {
      "channel": 0,
      "controlChanges": {},
      "pitchBends": [],
      "instrument": {
        "family": "piano",
        "name": "acoustic grand piano",
        "number": 0
      },
      "name": "Sharp Hi-Hat",
      "notes": [
        {
          "duration": 0.5,
          "durationTicks": 480,
          "midi": 59,
          "name": "B3",
          "ticks": 22320,
          "time": 23.25,
          "velocity": 0.8031496062992126
        },
        {
          "duration": 0.5218750000000014,
          "durationTicks": 501,
          "midi": 59,
          "name": "B3",
          "ticks": 22800,
          "time": 23.75,
          "velocity": 0.8031496062992126
        }
      ],
      "endOfTrackTicks": 23301
    },
    {
      "channel": 0,
      "controlChanges": {},
      "pitchBends": [],
      "instrument": {
        "family": "piano",
        "name": "acoustic grand piano",
        "number": 0
      },
      "name": "Sharp Hi-Hat",
      "notes": [
        {
          "duration": 0.5,
          "durationTicks": 480,
          "midi": 59,
          "name": "B3",
          "ticks": 26160,
          "time": 27.25,
          "velocity": 0.8031496062992126
        },
        {
          "duration": 0.5218750000000014,
          "durationTicks": 501,
          "midi": 59,
          "name": "B3",
          "ticks": 26640,
          "time": 27.75,
          "velocity": 0.8031496062992126
        }
      ],
      "endOfTrackTicks": 27141
    },
    {
      "channel": 0,
      "controlChanges": {},
      "pitchBends": [],
      "instrument": {
        "family": "piano",
        "name": "acoustic grand piano",
        "number": 0
      },
      "name": "Sharp Hi-Hat",
      "notes": [
        {
          "duration": 0.5,
          "durationTicks": 480,
          "midi": 59,
          "name": "B3",
          "ticks": 30000,
          "time": 31.25,
          "velocity": 0.8031496062992126
        },
        {
          "duration": 0.5218750000000014,
          "durationTicks": 501,
          "midi": 59,
          "name": "B3",
          "ticks": 30480,
          "time": 31.75,
          "velocity": 0.8031496062992126
        }
      ],
      "endOfTrackTicks": 30981
    },
    {
      "channel": 0,
      "controlChanges": {},
      "pitchBends": [],
      "instrument": {
        "family": "piano",
        "name": "acoustic grand piano",
        "number": 0
      },
      "name": "Sharp Hi-Hat",
      "notes": [
        {
          "duration": 0.5,
          "durationTicks": 480,
          "midi": 59,
          "name": "B3",
          "ticks": 35760,
          "time": 37.25,
          "velocity": 0.8031496062992126
        },
        {
          "duration": 0.5218750000000014,
          "durationTicks": 501,
          "midi": 59,
          "name": "B3",
          "ticks": 36240,
          "time": 37.75,
          "velocity": 0.8031496062992126
        }
      ],
      "endOfTrackTicks": 39600
    },
    {
      "channel": 0,
      "controlChanges": {},
      "pitchBends": [],
      "instrument": {
        "family": "piano",
        "name": "acoustic grand piano",
        "number": 0
      },
      "name": "Sharp Hi-Hat",
      "notes": [
        {
          "duration": 0.5,
          "durationTicks": 480,
          "midi": 59,
          "name": "B3",
          "ticks": 43440,
          "time": 45.25,
          "velocity": 0.8031496062992126
        },
        {
          "duration": 0.5218750000000014,
          "durationTicks": 501,
          "midi": 59,
          "name": "B3",
          "ticks": 43920,
          "time": 45.75,
          "velocity": 0.8031496062992126
        }
      ],
      "endOfTrackTicks": 46080
    },
    {
      "channel": 0,
      "controlChanges": {},
      "pitchBends": [],
      "instrument": {
        "family": "piano",
        "name": "acoustic grand piano",
        "number": 0
      },
      "name": "Shaker 19",
      "notes": [
        {
          "duration": 2,
          "durationTicks": 1920,
          "midi": 82,
          "name": "A#5",
          "ticks": 32640,
          "time": 34,
          "velocity": 0.9606299212598425
        }
      ],
      "endOfTrackTicks": 34560
    },
    {
      "channel": 0,
      "controlChanges": {},
      "pitchBends": [],
      "instrument": {
        "family": "piano",
        "name": "acoustic grand piano",
        "number": 0
      },
      "name": "Shaker 19",
      "notes": [
        {
          "duration": 2,
          "durationTicks": 1920,
          "midi": 82,
          "name": "A#5",
          "ticks": 34560,
          "time": 36,
          "velocity": 0.9606299212598425
        }
      ],
      "endOfTrackTicks": 36480
    },
    {
      "channel": 0,
      "controlChanges": {},
      "pitchBends": [],
      "instrument": {
        "family": "piano",
        "name": "acoustic grand piano",
        "number": 0
      },
      "name": "Shaker 19",
      "notes": [
        {
          "duration": 2,
          "durationTicks": 1920,
          "midi": 82,
          "name": "A#5",
          "ticks": 36480,
          "time": 38,
          "velocity": 0.9606299212598425
        }
      ],
      "endOfTrackTicks": 38400
    },
    {
      "channel": 0,
      "controlChanges": {},
      "pitchBends": [],
      "instrument": {
        "family": "piano",
        "name": "acoustic grand piano",
        "number": 0
      },
      "name": "Shaker 19",
      "notes": [
        {
          "duration": 2,
          "durationTicks": 1920,
          "midi": 82,
          "name": "A#5",
          "ticks": 38400,
          "time": 40,
          "velocity": 0.9606299212598425
        }
      ],
      "endOfTrackTicks": 40320
    },
    {
      "channel": 0,
      "controlChanges": {},
      "pitchBends": [],
      "instrument": {
        "family": "piano",
        "name": "acoustic grand piano",
        "number": 0
      },
      "name": "Shaker 19",
      "notes": [
        {
          "duration": 2,
          "durationTicks": 1920,
          "midi": 82,
          "name": "A#5",
          "ticks": 40320,
          "time": 42,
          "velocity": 0.9606299212598425
        }
      ],
      "endOfTrackTicks": 42240
    },
    {
      "channel": 0,
      "controlChanges": {},
      "pitchBends": [],
      "instrument": {
        "family": "piano",
        "name": "acoustic grand piano",
        "number": 0
      },
      "name": "Shaker 19",
      "notes": [
        {
          "duration": 2,
          "durationTicks": 1920,
          "midi": 82,
          "name": "A#5",
          "ticks": 42240,
          "time": 44,
          "velocity": 0.9606299212598425
        }
      ],
      "endOfTrackTicks": 44160
    },
    {
      "channel": 0,
      "controlChanges": {},
      "pitchBends": [],
      "instrument": {
        "family": "piano",
        "name": "acoustic grand piano",
        "number": 0
      },
      "name": "Shaker 19",
      "notes": [
        {
          "duration": 2,
          "durationTicks": 1920,
          "midi": 82,
          "name": "A#5",
          "ticks": 44160,
          "time": 46,
          "velocity": 0.9606299212598425
        }
      ],
      "endOfTrackTicks": 46080
    },
    {
      "channel": 0,
      "controlChanges": {},
      "pitchBends": [],
      "instrument": {
        "family": "piano",
        "name": "acoustic grand piano",
        "number": 0
      },
      "name": "Shaker 19",
      "notes": [
        {
          "duration": 1,
          "durationTicks": 960,
          "midi": 82,
          "name": "A#5",
          "ticks": 46080,
          "time": 48,
          "velocity": 0.9606299212598425
        }
      ],
      "endOfTrackTicks": 47040
    },
    {
      "channel": 0,
      "controlChanges": {},
      "pitchBends": [],
      "instrument": {
        "family": "piano",
        "name": "acoustic grand piano",
        "number": 0
      },
      "name": "Shaker 19",
      "notes": [
        {
          "duration": 17.5,
          "durationTicks": 16800,
          "midi": 59,
          "name": "B3",
          "ticks": 47040,
          "time": 49,
          "velocity": 0.9606299212598425
        }
      ],
      "endOfTrackTicks": 63840
    },
    {
      "channel": 0,
      "controlChanges": {},
      "pitchBends": [],
      "instrument": {
        "family": "piano",
        "name": "acoustic grand piano",
        "number": 0
      },
      "name": "80s Pop Beat 08",
      "notes": [
        {
          "duration": 1.9864583333333314,
          "durationTicks": 1907,
          "midi": 59,
          "name": "B3",
          "ticks": 32653,
          "time": 34.01354166666667,
          "velocity": 0.7637795275590551
        },
        {
          "duration": 0.5124999999999957,
          "durationTicks": 492,
          "midi": 59,
          "name": "B3",
          "ticks": 34558,
          "time": 35.99791666666667,
          "velocity": 0.7322834645669292
        },
        {
          "duration": 0.4958333333333371,
          "durationTicks": 476,
          "midi": 59,
          "name": "B3",
          "ticks": 34921,
          "time": 36.376041666666666,
          "velocity": 0.6692913385826772
        },
        {
          "duration": 0.3604166666666657,
          "durationTicks": 346,
          "midi": 59,
          "name": "B3",
          "ticks": 35275,
          "time": 36.744791666666664,
          "velocity": 0.7086614173228346
        },
        {
          "duration": 0.34583333333333144,
          "durationTicks": 332,
          "midi": 59,
          "name": "B3",
          "ticks": 35517,
          "time": 36.996875,
          "velocity": 0.6377952755905512
        },
        {
          "duration": 0.34687500000000426,
          "durationTicks": 333,
          "midi": 59,
          "name": "B3",
          "ticks": 35754,
          "time": 37.24375,
          "velocity": 0.6299212598425197
        },
        {
          "duration": 0.36770833333333286,
          "durationTicks": 353,
          "midi": 59,
          "name": "B3",
          "ticks": 35994,
          "time": 37.49375,
          "velocity": 0.6062992125984252
        },
        {
          "duration": 0.25416666666667,
          "durationTicks": 244,
          "midi": 59,
          "name": "B3",
          "ticks": 36236,
          "time": 37.74583333333333,
          "velocity": 0.5669291338582677
        },
        {
          "duration": 0.203125,
          "durationTicks": 195,
          "midi": 59,
          "name": "B3",
          "ticks": 36479,
          "time": 37.998958333333334,
          "velocity": 0.7007874015748031
        },
        {
          "duration": 0.12291666666666856,
          "durationTicks": 118,
          "midi": 59,
          "name": "B3",
          "ticks": 36841,
          "time": 38.376041666666666,
          "velocity": 0.6614173228346457
        },
        {
          "duration": 0.12187500000000284,
          "durationTicks": 117,
          "midi": 59,
          "name": "B3",
          "ticks": 37195,
          "time": 38.744791666666664,
          "velocity": 0.6299212598425197
        },
        {
          "duration": 0.11666666666666714,
          "durationTicks": 112,
          "midi": 59,
          "name": "B3",
          "ticks": 37436,
          "time": 38.99583333333333,
          "velocity": 0.6062992125984252
        },
        {
          "duration": 0.10833333333333428,
          "durationTicks": 104,
          "midi": 59,
          "name": "B3",
          "ticks": 37675,
          "time": 39.244791666666664,
          "velocity": 0.5905511811023622
        },
        {
          "duration": 0.11666666666666714,
          "durationTicks": 112,
          "midi": 59,
          "name": "B3",
          "ticks": 37915,
          "time": 39.494791666666664,
          "velocity": 0.6299212598425197
        },
        {
          "duration": 0.10625000000000284,
          "durationTicks": 102,
          "midi": 59,
          "name": "B3",
          "ticks": 38155,
          "time": 39.744791666666664,
          "velocity": 0.6299212598425197
        },
        {
          "duration": 0.18854166666666572,
          "durationTicks": 181,
          "midi": 59,
          "name": "B3",
          "ticks": 38399,
          "time": 39.998958333333334,
          "velocity": 0.7086614173228346
        },
        {
          "duration": 0.1302083333333357,
          "durationTicks": 125,
          "midi": 59,
          "name": "B3",
          "ticks": 38761,
          "time": 40.376041666666666,
          "velocity": 0.7007874015748031
        },
        {
          "duration": 0.09062500000000284,
          "durationTicks": 87,
          "midi": 59,
          "name": "B3",
          "ticks": 39114,
          "time": 40.74375,
          "velocity": 0.7559055118110236
        },
        {
          "duration": 0.08541666666666714,
          "durationTicks": 82,
          "midi": 59,
          "name": "B3",
          "ticks": 39355,
          "time": 40.994791666666664,
          "velocity": 0.6692913385826772
        },
        {
          "duration": 0.09166666666666856,
          "durationTicks": 88,
          "midi": 59,
          "name": "B3",
          "ticks": 39594,
          "time": 41.24375,
          "velocity": 0.7637795275590551
        }
      ],
      "endOfTrackTicks": 39682
    },
    {
      "channel": 0,
      "controlChanges": {},
      "pitchBends": [],
      "instrument": {
        "family": "piano",
        "name": "acoustic grand piano",
        "number": 0
      },
      "name": "80s Pop Beat 08",
      "notes": [
        {
          "duration": 1.9864583333333314,
          "durationTicks": 1907,
          "midi": 59,
          "name": "B3",
          "ticks": 34573,
          "time": 36.01354166666667,
          "velocity": 0.7637795275590551
        },
        {
          "duration": 0.5124999999999957,
          "durationTicks": 492,
          "midi": 59,
          "name": "B3",
          "ticks": 36478,
          "time": 37.99791666666667,
          "velocity": 0.7322834645669292
        },
        {
          "duration": 0.4958333333333371,
          "durationTicks": 476,
          "midi": 59,
          "name": "B3",
          "ticks": 36841,
          "time": 38.376041666666666,
          "velocity": 0.6692913385826772
        },
        {
          "duration": 0.3604166666666657,
          "durationTicks": 346,
          "midi": 59,
          "name": "B3",
          "ticks": 37195,
          "time": 38.744791666666664,
          "velocity": 0.7086614173228346
        },
        {
          "duration": 0.34583333333333144,
          "durationTicks": 332,
          "midi": 59,
          "name": "B3",
          "ticks": 37437,
          "time": 38.996875,
          "velocity": 0.6377952755905512
        },
        {
          "duration": 0.34687500000000426,
          "durationTicks": 333,
          "midi": 59,
          "name": "B3",
          "ticks": 37674,
          "time": 39.24375,
          "velocity": 0.6299212598425197
        },
        {
          "duration": 0.36770833333333286,
          "durationTicks": 353,
          "midi": 59,
          "name": "B3",
          "ticks": 37914,
          "time": 39.49375,
          "velocity": 0.6062992125984252
        },
        {
          "duration": 0.25416666666667,
          "durationTicks": 244,
          "midi": 59,
          "name": "B3",
          "ticks": 38156,
          "time": 39.74583333333333,
          "velocity": 0.5669291338582677
        },
        {
          "duration": 0.203125,
          "durationTicks": 195,
          "midi": 59,
          "name": "B3",
          "ticks": 38399,
          "time": 39.998958333333334,
          "velocity": 0.7007874015748031
        },
        {
          "duration": 0.12291666666666856,
          "durationTicks": 118,
          "midi": 59,
          "name": "B3",
          "ticks": 38761,
          "time": 40.376041666666666,
          "velocity": 0.6614173228346457
        },
        {
          "duration": 0.12187500000000284,
          "durationTicks": 117,
          "midi": 59,
          "name": "B3",
          "ticks": 39115,
          "time": 40.744791666666664,
          "velocity": 0.6299212598425197
        },
        {
          "duration": 0.11666666666666714,
          "durationTicks": 112,
          "midi": 59,
          "name": "B3",
          "ticks": 39356,
          "time": 40.99583333333333,
          "velocity": 0.6062992125984252
        },
        {
          "duration": 0.10833333333333428,
          "durationTicks": 104,
          "midi": 59,
          "name": "B3",
          "ticks": 39595,
          "time": 41.244791666666664,
          "velocity": 0.5905511811023622
        },
        {
          "duration": 0.11666666666666714,
          "durationTicks": 112,
          "midi": 59,
          "name": "B3",
          "ticks": 39835,
          "time": 41.494791666666664,
          "velocity": 0.6299212598425197
        },
        {
          "duration": 0.10625000000000284,
          "durationTicks": 102,
          "midi": 59,
          "name": "B3",
          "ticks": 40075,
          "time": 41.744791666666664,
          "velocity": 0.6299212598425197
        },
        {
          "duration": 0.18854166666666572,
          "durationTicks": 181,
          "midi": 59,
          "name": "B3",
          "ticks": 40319,
          "time": 41.998958333333334,
          "velocity": 0.7086614173228346
        },
        {
          "duration": 0.1302083333333357,
          "durationTicks": 125,
          "midi": 59,
          "name": "B3",
          "ticks": 40681,
          "time": 42.376041666666666,
          "velocity": 0.7007874015748031
        },
        {
          "duration": 0.09062500000000284,
          "durationTicks": 87,
          "midi": 59,
          "name": "B3",
          "ticks": 41034,
          "time": 42.74375,
          "velocity": 0.7559055118110236
        },
        {
          "duration": 0.08541666666666714,
          "durationTicks": 82,
          "midi": 59,
          "name": "B3",
          "ticks": 41275,
          "time": 42.994791666666664,
          "velocity": 0.6692913385826772
        },
        {
          "duration": 0.09166666666666856,
          "durationTicks": 88,
          "midi": 59,
          "name": "B3",
          "ticks": 41514,
          "time": 43.24375,
          "velocity": 0.7637795275590551
        }
      ],
      "endOfTrackTicks": 41602
    },
    {
      "channel": 0,
      "controlChanges": {},
      "pitchBends": [],
      "instrument": {
        "family": "piano",
        "name": "acoustic grand piano",
        "number": 0
      },
      "name": "80s Pop Beat 08",
      "notes": [
        {
          "duration": 1.9864583333333314,
          "durationTicks": 1907,
          "midi": 59,
          "name": "B3",
          "ticks": 36493,
          "time": 38.01354166666667,
          "velocity": 0.7637795275590551
        },
        {
          "duration": 0.5124999999999957,
          "durationTicks": 492,
          "midi": 59,
          "name": "B3",
          "ticks": 38398,
          "time": 39.99791666666667,
          "velocity": 0.7322834645669292
        },
        {
          "duration": 0.4958333333333371,
          "durationTicks": 476,
          "midi": 59,
          "name": "B3",
          "ticks": 38761,
          "time": 40.376041666666666,
          "velocity": 0.6692913385826772
        },
        {
          "duration": 0.3604166666666657,
          "durationTicks": 346,
          "midi": 59,
          "name": "B3",
          "ticks": 39115,
          "time": 40.744791666666664,
          "velocity": 0.7086614173228346
        },
        {
          "duration": 0.34583333333333144,
          "durationTicks": 332,
          "midi": 59,
          "name": "B3",
          "ticks": 39357,
          "time": 40.996875,
          "velocity": 0.6377952755905512
        },
        {
          "duration": 0.34687500000000426,
          "durationTicks": 333,
          "midi": 59,
          "name": "B3",
          "ticks": 39594,
          "time": 41.24375,
          "velocity": 0.6299212598425197
        },
        {
          "duration": 0.36770833333333286,
          "durationTicks": 353,
          "midi": 59,
          "name": "B3",
          "ticks": 39834,
          "time": 41.49375,
          "velocity": 0.6062992125984252
        },
        {
          "duration": 0.25416666666667,
          "durationTicks": 244,
          "midi": 59,
          "name": "B3",
          "ticks": 40076,
          "time": 41.74583333333333,
          "velocity": 0.5669291338582677
        },
        {
          "duration": 0.203125,
          "durationTicks": 195,
          "midi": 59,
          "name": "B3",
          "ticks": 40319,
          "time": 41.998958333333334,
          "velocity": 0.7007874015748031
        },
        {
          "duration": 0.12291666666666856,
          "durationTicks": 118,
          "midi": 59,
          "name": "B3",
          "ticks": 40681,
          "time": 42.376041666666666,
          "velocity": 0.6614173228346457
        },
        {
          "duration": 0.12187500000000284,
          "durationTicks": 117,
          "midi": 59,
          "name": "B3",
          "ticks": 41035,
          "time": 42.744791666666664,
          "velocity": 0.6299212598425197
        },
        {
          "duration": 0.11666666666666714,
          "durationTicks": 112,
          "midi": 59,
          "name": "B3",
          "ticks": 41276,
          "time": 42.99583333333333,
          "velocity": 0.6062992125984252
        },
        {
          "duration": 0.10833333333333428,
          "durationTicks": 104,
          "midi": 59,
          "name": "B3",
          "ticks": 41515,
          "time": 43.244791666666664,
          "velocity": 0.5905511811023622
        },
        {
          "duration": 0.11666666666666714,
          "durationTicks": 112,
          "midi": 59,
          "name": "B3",
          "ticks": 41755,
          "time": 43.494791666666664,
          "velocity": 0.6299212598425197
        },
        {
          "duration": 0.10625000000000284,
          "durationTicks": 102,
          "midi": 59,
          "name": "B3",
          "ticks": 41995,
          "time": 43.744791666666664,
          "velocity": 0.6299212598425197
        },
        {
          "duration": 0.18854166666666572,
          "durationTicks": 181,
          "midi": 59,
          "name": "B3",
          "ticks": 42239,
          "time": 43.998958333333334,
          "velocity": 0.7086614173228346
        },
        {
          "duration": 0.1302083333333357,
          "durationTicks": 125,
          "midi": 59,
          "name": "B3",
          "ticks": 42601,
          "time": 44.376041666666666,
          "velocity": 0.7007874015748031
        },
        {
          "duration": 0.09062500000000284,
          "durationTicks": 87,
          "midi": 59,
          "name": "B3",
          "ticks": 42954,
          "time": 44.74375,
          "velocity": 0.7559055118110236
        },
        {
          "duration": 0.08541666666666714,
          "durationTicks": 82,
          "midi": 59,
          "name": "B3",
          "ticks": 43195,
          "time": 44.994791666666664,
          "velocity": 0.6692913385826772
        },
        {
          "duration": 0.09166666666666856,
          "durationTicks": 88,
          "midi": 59,
          "name": "B3",
          "ticks": 43434,
          "time": 45.24375,
          "velocity": 0.7637795275590551
        }
      ],
      "endOfTrackTicks": 43522
    },
    {
      "channel": 0,
      "controlChanges": {},
      "pitchBends": [],
      "instrument": {
        "family": "piano",
        "name": "acoustic grand piano",
        "number": 0
      },
      "name": "80s Pop Beat 08",
      "notes": [
        {
          "duration": 1.9864583333333314,
          "durationTicks": 1907,
          "midi": 59,
          "name": "B3",
          "ticks": 38413,
          "time": 40.01354166666667,
          "velocity": 0.7637795275590551
        },
        {
          "duration": 0.5124999999999957,
          "durationTicks": 492,
          "midi": 59,
          "name": "B3",
          "ticks": 40318,
          "time": 41.99791666666667,
          "velocity": 0.7322834645669292
        },
        {
          "duration": 0.4958333333333371,
          "durationTicks": 476,
          "midi": 59,
          "name": "B3",
          "ticks": 40681,
          "time": 42.376041666666666,
          "velocity": 0.6692913385826772
        },
        {
          "duration": 0.3604166666666657,
          "durationTicks": 346,
          "midi": 59,
          "name": "B3",
          "ticks": 41035,
          "time": 42.744791666666664,
          "velocity": 0.7086614173228346
        },
        {
          "duration": 0.34583333333333144,
          "durationTicks": 332,
          "midi": 59,
          "name": "B3",
          "ticks": 41277,
          "time": 42.996875,
          "velocity": 0.6377952755905512
        },
        {
          "duration": 0.34687500000000426,
          "durationTicks": 333,
          "midi": 59,
          "name": "B3",
          "ticks": 41514,
          "time": 43.24375,
          "velocity": 0.6299212598425197
        },
        {
          "duration": 0.36770833333333286,
          "durationTicks": 353,
          "midi": 59,
          "name": "B3",
          "ticks": 41754,
          "time": 43.49375,
          "velocity": 0.6062992125984252
        },
        {
          "duration": 0.25416666666667,
          "durationTicks": 244,
          "midi": 59,
          "name": "B3",
          "ticks": 41996,
          "time": 43.74583333333333,
          "velocity": 0.5669291338582677
        },
        {
          "duration": 0.203125,
          "durationTicks": 195,
          "midi": 59,
          "name": "B3",
          "ticks": 42239,
          "time": 43.998958333333334,
          "velocity": 0.7007874015748031
        },
        {
          "duration": 0.12291666666666856,
          "durationTicks": 118,
          "midi": 59,
          "name": "B3",
          "ticks": 42601,
          "time": 44.376041666666666,
          "velocity": 0.6614173228346457
        },
        {
          "duration": 0.12187500000000284,
          "durationTicks": 117,
          "midi": 59,
          "name": "B3",
          "ticks": 42955,
          "time": 44.744791666666664,
          "velocity": 0.6299212598425197
        },
        {
          "duration": 0.11666666666666714,
          "durationTicks": 112,
          "midi": 59,
          "name": "B3",
          "ticks": 43196,
          "time": 44.99583333333333,
          "velocity": 0.6062992125984252
        },
        {
          "duration": 0.10833333333333428,
          "durationTicks": 104,
          "midi": 59,
          "name": "B3",
          "ticks": 43435,
          "time": 45.244791666666664,
          "velocity": 0.5905511811023622
        },
        {
          "duration": 0.11666666666666714,
          "durationTicks": 112,
          "midi": 59,
          "name": "B3",
          "ticks": 43675,
          "time": 45.494791666666664,
          "velocity": 0.6299212598425197
        },
        {
          "duration": 0.10625000000000284,
          "durationTicks": 102,
          "midi": 59,
          "name": "B3",
          "ticks": 43915,
          "time": 45.744791666666664,
          "velocity": 0.6299212598425197
        },
        {
          "duration": 0.18854166666666572,
          "durationTicks": 181,
          "midi": 59,
          "name": "B3",
          "ticks": 44159,
          "time": 45.998958333333334,
          "velocity": 0.7086614173228346
        },
        {
          "duration": 0.1302083333333357,
          "durationTicks": 125,
          "midi": 59,
          "name": "B3",
          "ticks": 44521,
          "time": 46.376041666666666,
          "velocity": 0.7007874015748031
        },
        {
          "duration": 0.09062500000000284,
          "durationTicks": 87,
          "midi": 59,
          "name": "B3",
          "ticks": 44874,
          "time": 46.74375,
          "velocity": 0.7559055118110236
        },
        {
          "duration": 0.08541666666666714,
          "durationTicks": 82,
          "midi": 59,
          "name": "B3",
          "ticks": 45115,
          "time": 46.994791666666664,
          "velocity": 0.6692913385826772
        },
        {
          "duration": 0.09166666666666856,
          "durationTicks": 88,
          "midi": 59,
          "name": "B3",
          "ticks": 45354,
          "time": 47.24375,
          "velocity": 0.7637795275590551
        }
      ],
      "endOfTrackTicks": 45442
    },
    {
      "channel": 0,
      "controlChanges": {},
      "pitchBends": [],
      "instrument": {
        "family": "piano",
        "name": "acoustic grand piano",
        "number": 0
      },
      "name": "80s Pop Beat 08",
      "notes": [
        {
          "duration": 1.9864583333333314,
          "durationTicks": 1907,
          "midi": 59,
          "name": "B3",
          "ticks": 40333,
          "time": 42.01354166666667,
          "velocity": 0.7637795275590551
        },
        {
          "duration": 0.5124999999999957,
          "durationTicks": 492,
          "midi": 59,
          "name": "B3",
          "ticks": 42238,
          "time": 43.99791666666667,
          "velocity": 0.7322834645669292
        },
        {
          "duration": 0.4958333333333371,
          "durationTicks": 476,
          "midi": 59,
          "name": "B3",
          "ticks": 42601,
          "time": 44.376041666666666,
          "velocity": 0.6692913385826772
        },
        {
          "duration": 0.3604166666666657,
          "durationTicks": 346,
          "midi": 59,
          "name": "B3",
          "ticks": 42955,
          "time": 44.744791666666664,
          "velocity": 0.7086614173228346
        },
        {
          "duration": 0.34583333333333144,
          "durationTicks": 332,
          "midi": 59,
          "name": "B3",
          "ticks": 43197,
          "time": 44.996875,
          "velocity": 0.6377952755905512
        },
        {
          "duration": 0.34687500000000426,
          "durationTicks": 333,
          "midi": 59,
          "name": "B3",
          "ticks": 43434,
          "time": 45.24375,
          "velocity": 0.6299212598425197
        },
        {
          "duration": 0.36770833333333286,
          "durationTicks": 353,
          "midi": 59,
          "name": "B3",
          "ticks": 43674,
          "time": 45.49375,
          "velocity": 0.6062992125984252
        },
        {
          "duration": 0.25416666666667,
          "durationTicks": 244,
          "midi": 59,
          "name": "B3",
          "ticks": 43916,
          "time": 45.74583333333333,
          "velocity": 0.5669291338582677
        },
        {
          "duration": 0.203125,
          "durationTicks": 195,
          "midi": 59,
          "name": "B3",
          "ticks": 44159,
          "time": 45.998958333333334,
          "velocity": 0.7007874015748031
        },
        {
          "duration": 0.12291666666666856,
          "durationTicks": 118,
          "midi": 59,
          "name": "B3",
          "ticks": 44521,
          "time": 46.376041666666666,
          "velocity": 0.6614173228346457
        },
        {
          "duration": 0.12187500000000284,
          "durationTicks": 117,
          "midi": 59,
          "name": "B3",
          "ticks": 44875,
          "time": 46.744791666666664,
          "velocity": 0.6299212598425197
        },
        {
          "duration": 0.11666666666666714,
          "durationTicks": 112,
          "midi": 59,
          "name": "B3",
          "ticks": 45116,
          "time": 46.99583333333333,
          "velocity": 0.6062992125984252
        },
        {
          "duration": 0.10833333333333428,
          "durationTicks": 104,
          "midi": 59,
          "name": "B3",
          "ticks": 45355,
          "time": 47.244791666666664,
          "velocity": 0.5905511811023622
        },
        {
          "duration": 0.11666666666666714,
          "durationTicks": 112,
          "midi": 59,
          "name": "B3",
          "ticks": 45595,
          "time": 47.494791666666664,
          "velocity": 0.6299212598425197
        },
        {
          "duration": 0.10625000000000284,
          "durationTicks": 102,
          "midi": 59,
          "name": "B3",
          "ticks": 45835,
          "time": 47.744791666666664,
          "velocity": 0.6299212598425197
        },
        {
          "duration": 0.18854166666666572,
          "durationTicks": 181,
          "midi": 59,
          "name": "B3",
          "ticks": 46079,
          "time": 47.998958333333334,
          "velocity": 0.7086614173228346
        },
        {
          "duration": 0.1302083333333357,
          "durationTicks": 125,
          "midi": 59,
          "name": "B3",
          "ticks": 46441,
          "time": 48.376041666666666,
          "velocity": 0.7007874015748031
        },
        {
          "duration": 0.09062500000000284,
          "durationTicks": 87,
          "midi": 59,
          "name": "B3",
          "ticks": 46794,
          "time": 48.74375,
          "velocity": 0.7559055118110236
        },
        {
          "duration": 0.08541666666666714,
          "durationTicks": 82,
          "midi": 59,
          "name": "B3",
          "ticks": 47035,
          "time": 48.994791666666664,
          "velocity": 0.6692913385826772
        }
      ],
      "endOfTrackTicks": 47117
    },
    {
      "channel": 0,
      "controlChanges": {},
      "pitchBends": [],
      "instrument": {
        "family": "piano",
        "name": "acoustic grand piano",
        "number": 0
      },
      "name": "80s Pop Beat 08",
      "notes": [
        {
          "duration": 1.9864583333333314,
          "durationTicks": 1907,
          "midi": 59,
          "name": "B3",
          "ticks": 42253,
          "time": 44.01354166666667,
          "velocity": 0.7637795275590551
        },
        {
          "duration": 0.5124999999999957,
          "durationTicks": 492,
          "midi": 59,
          "name": "B3",
          "ticks": 44158,
          "time": 45.99791666666667,
          "velocity": 0.7322834645669292
        },
        {
          "duration": 0.4958333333333371,
          "durationTicks": 476,
          "midi": 59,
          "name": "B3",
          "ticks": 44521,
          "time": 46.376041666666666,
          "velocity": 0.6692913385826772
        },
        {
          "duration": 0.3604166666666657,
          "durationTicks": 346,
          "midi": 59,
          "name": "B3",
          "ticks": 44875,
          "time": 46.744791666666664,
          "velocity": 0.7086614173228346
        },
        {
          "duration": 0.34583333333333144,
          "durationTicks": 332,
          "midi": 59,
          "name": "B3",
          "ticks": 45117,
          "time": 46.996875,
          "velocity": 0.6377952755905512
        },
        {
          "duration": 0.34687500000000426,
          "durationTicks": 333,
          "midi": 59,
          "name": "B3",
          "ticks": 45354,
          "time": 47.24375,
          "velocity": 0.6299212598425197
        },
        {
          "duration": 0.36770833333333286,
          "durationTicks": 353,
          "midi": 59,
          "name": "B3",
          "ticks": 45594,
          "time": 47.49375,
          "velocity": 0.6062992125984252
        },
        {
          "duration": 0.25416666666667,
          "durationTicks": 244,
          "midi": 59,
          "name": "B3",
          "ticks": 45836,
          "time": 47.74583333333333,
          "velocity": 0.5669291338582677
        },
        {
          "duration": 0.203125,
          "durationTicks": 195,
          "midi": 59,
          "name": "B3",
          "ticks": 46079,
          "time": 47.998958333333334,
          "velocity": 0.7007874015748031
        },
        {
          "duration": 0.12291666666666856,
          "durationTicks": 118,
          "midi": 59,
          "name": "B3",
          "ticks": 46441,
          "time": 48.376041666666666,
          "velocity": 0.6614173228346457
        },
        {
          "duration": 0.12187500000000284,
          "durationTicks": 117,
          "midi": 59,
          "name": "B3",
          "ticks": 46795,
          "time": 48.744791666666664,
          "velocity": 0.6299212598425197
        },
        {
          "duration": 0.11666666666666714,
          "durationTicks": 112,
          "midi": 59,
          "name": "B3",
          "ticks": 47036,
          "time": 48.99583333333333,
          "velocity": 0.6062992125984252
        },
        {
          "duration": 0.10833333333333428,
          "durationTicks": 104,
          "midi": 59,
          "name": "B3",
          "ticks": 47275,
          "time": 49.244791666666664,
          "velocity": 0.5905511811023622
        },
        {
          "duration": 0.11666666666666714,
          "durationTicks": 112,
          "midi": 59,
          "name": "B3",
          "ticks": 47515,
          "time": 49.494791666666664,
          "velocity": 0.6299212598425197
        },
        {
          "duration": 0.10625000000000284,
          "durationTicks": 102,
          "midi": 59,
          "name": "B3",
          "ticks": 47755,
          "time": 49.744791666666664,
          "velocity": 0.6299212598425197
        },
        {
          "duration": 0.18854166666666572,
          "durationTicks": 181,
          "midi": 59,
          "name": "B3",
          "ticks": 47999,
          "time": 49.998958333333334,
          "velocity": 0.7086614173228346
        },
        {
          "duration": 0.1302083333333357,
          "durationTicks": 125,
          "midi": 59,
          "name": "B3",
          "ticks": 48361,
          "time": 50.376041666666666,
          "velocity": 0.7007874015748031
        },
        {
          "duration": 0.09062500000000284,
          "durationTicks": 87,
          "midi": 59,
          "name": "B3",
          "ticks": 48714,
          "time": 50.74375,
          "velocity": 0.7559055118110236
        },
        {
          "duration": 0.08541666666666714,
          "durationTicks": 82,
          "midi": 59,
          "name": "B3",
          "ticks": 48955,
          "time": 50.994791666666664,
          "velocity": 0.6692913385826772
        }
      ],
      "endOfTrackTicks": 49037
    },
    {
      "channel": 0,
      "controlChanges": {},
      "pitchBends": [],
      "instrument": {
        "family": "piano",
        "name": "acoustic grand piano",
        "number": 0
      },
      "name": "80s Pop Beat 08",
      "notes": [
        {
          "duration": 1.9864583333333314,
          "durationTicks": 1907,
          "midi": 59,
          "name": "B3",
          "ticks": 44173,
          "time": 46.01354166666667,
          "velocity": 0.7637795275590551
        },
        {
          "duration": 0.5124999999999957,
          "durationTicks": 492,
          "midi": 59,
          "name": "B3",
          "ticks": 46078,
          "time": 47.99791666666667,
          "velocity": 0.7322834645669292
        },
        {
          "duration": 0.4958333333333371,
          "durationTicks": 476,
          "midi": 59,
          "name": "B3",
          "ticks": 46441,
          "time": 48.376041666666666,
          "velocity": 0.6692913385826772
        },
        {
          "duration": 0.3604166666666657,
          "durationTicks": 346,
          "midi": 59,
          "name": "B3",
          "ticks": 46795,
          "time": 48.744791666666664,
          "velocity": 0.7086614173228346
        },
        {
          "duration": 0.34583333333333144,
          "durationTicks": 332,
          "midi": 59,
          "name": "B3",
          "ticks": 47037,
          "time": 48.996875,
          "velocity": 0.6377952755905512
        },
        {
          "duration": 0.34687500000000426,
          "durationTicks": 333,
          "midi": 59,
          "name": "B3",
          "ticks": 47274,
          "time": 49.24375,
          "velocity": 0.6299212598425197
        },
        {
          "duration": 0.36770833333333286,
          "durationTicks": 353,
          "midi": 59,
          "name": "B3",
          "ticks": 47514,
          "time": 49.49375,
          "velocity": 0.6062992125984252
        },
        {
          "duration": 0.25416666666667,
          "durationTicks": 244,
          "midi": 59,
          "name": "B3",
          "ticks": 47756,
          "time": 49.74583333333333,
          "velocity": 0.5669291338582677
        },
        {
          "duration": 0.203125,
          "durationTicks": 195,
          "midi": 59,
          "name": "B3",
          "ticks": 47999,
          "time": 49.998958333333334,
          "velocity": 0.7007874015748031
        },
        {
          "duration": 0.12291666666666856,
          "durationTicks": 118,
          "midi": 59,
          "name": "B3",
          "ticks": 48361,
          "time": 50.376041666666666,
          "velocity": 0.6614173228346457
        },
        {
          "duration": 0.12187500000000284,
          "durationTicks": 117,
          "midi": 59,
          "name": "B3",
          "ticks": 48715,
          "time": 50.744791666666664,
          "velocity": 0.6299212598425197
        },
        {
          "duration": 0.11666666666666714,
          "durationTicks": 112,
          "midi": 59,
          "name": "B3",
          "ticks": 48956,
          "time": 50.99583333333333,
          "velocity": 0.6062992125984252
        },
        {
          "duration": 0.10833333333333428,
          "durationTicks": 104,
          "midi": 59,
          "name": "B3",
          "ticks": 49195,
          "time": 51.244791666666664,
          "velocity": 0.5905511811023622
        },
        {
          "duration": 0.11666666666666714,
          "durationTicks": 112,
          "midi": 59,
          "name": "B3",
          "ticks": 49435,
          "time": 51.494791666666664,
          "velocity": 0.6299212598425197
        },
        {
          "duration": 0.10625000000000284,
          "durationTicks": 102,
          "midi": 59,
          "name": "B3",
          "ticks": 49675,
          "time": 51.744791666666664,
          "velocity": 0.6299212598425197
        },
        {
          "duration": 0.18854166666666572,
          "durationTicks": 181,
          "midi": 59,
          "name": "B3",
          "ticks": 49919,
          "time": 51.998958333333334,
          "velocity": 0.7086614173228346
        },
        {
          "duration": 0.1302083333333357,
          "durationTicks": 125,
          "midi": 59,
          "name": "B3",
          "ticks": 50281,
          "time": 52.376041666666666,
          "velocity": 0.7007874015748031
        },
        {
          "duration": 0.09062500000000284,
          "durationTicks": 87,
          "midi": 59,
          "name": "B3",
          "ticks": 50634,
          "time": 52.74375,
          "velocity": 0.7559055118110236
        },
        {
          "duration": 0.08541666666666714,
          "durationTicks": 82,
          "midi": 59,
          "name": "B3",
          "ticks": 50875,
          "time": 52.994791666666664,
          "velocity": 0.6692913385826772
        }
      ],
      "endOfTrackTicks": 50957
    },
    {
      "channel": 0,
      "controlChanges": {},
      "pitchBends": [],
      "instrument": {
        "family": "piano",
        "name": "acoustic grand piano",
        "number": 0
      },
      "name": "80s Pop Beat 08",
      "notes": [
        {
          "duration": 1.9864583333333314,
          "durationTicks": 1907,
          "midi": 59,
          "name": "B3",
          "ticks": 46093,
          "time": 48.01354166666667,
          "velocity": 0.7637795275590551
        },
        {
          "duration": 0.5124999999999957,
          "durationTicks": 492,
          "midi": 59,
          "name": "B3",
          "ticks": 47998,
          "time": 49.99791666666667,
          "velocity": 0.7322834645669292
        },
        {
          "duration": 0.4958333333333371,
          "durationTicks": 476,
          "midi": 59,
          "name": "B3",
          "ticks": 48361,
          "time": 50.376041666666666,
          "velocity": 0.6692913385826772
        },
        {
          "duration": 0.3604166666666657,
          "durationTicks": 346,
          "midi": 59,
          "name": "B3",
          "ticks": 48715,
          "time": 50.744791666666664,
          "velocity": 0.7086614173228346
        },
        {
          "duration": 0.34583333333333144,
          "durationTicks": 332,
          "midi": 59,
          "name": "B3",
          "ticks": 48957,
          "time": 50.996875,
          "velocity": 0.6377952755905512
        },
        {
          "duration": 0.34687500000000426,
          "durationTicks": 333,
          "midi": 59,
          "name": "B3",
          "ticks": 49194,
          "time": 51.24375,
          "velocity": 0.6299212598425197
        },
        {
          "duration": 0.36770833333333286,
          "durationTicks": 353,
          "midi": 59,
          "name": "B3",
          "ticks": 49434,
          "time": 51.49375,
          "velocity": 0.6062992125984252
        },
        {
          "duration": 0.25416666666667,
          "durationTicks": 244,
          "midi": 59,
          "name": "B3",
          "ticks": 49676,
          "time": 51.74583333333333,
          "velocity": 0.5669291338582677
        },
        {
          "duration": 0.203125,
          "durationTicks": 195,
          "midi": 59,
          "name": "B3",
          "ticks": 49919,
          "time": 51.998958333333334,
          "velocity": 0.7007874015748031
        },
        {
          "duration": 0.12291666666666856,
          "durationTicks": 118,
          "midi": 59,
          "name": "B3",
          "ticks": 50281,
          "time": 52.376041666666666,
          "velocity": 0.6614173228346457
        },
        {
          "duration": 0.12187500000000284,
          "durationTicks": 117,
          "midi": 59,
          "name": "B3",
          "ticks": 50635,
          "time": 52.744791666666664,
          "velocity": 0.6299212598425197
        },
        {
          "duration": 0.11666666666666714,
          "durationTicks": 112,
          "midi": 59,
          "name": "B3",
          "ticks": 50876,
          "time": 52.99583333333333,
          "velocity": 0.6062992125984252
        },
        {
          "duration": 0.10833333333333428,
          "durationTicks": 104,
          "midi": 59,
          "name": "B3",
          "ticks": 51115,
          "time": 53.244791666666664,
          "velocity": 0.5905511811023622
        },
        {
          "duration": 0.11666666666666714,
          "durationTicks": 112,
          "midi": 59,
          "name": "B3",
          "ticks": 51355,
          "time": 53.494791666666664,
          "velocity": 0.6299212598425197
        },
        {
          "duration": 0.10625000000000284,
          "durationTicks": 102,
          "midi": 59,
          "name": "B3",
          "ticks": 51595,
          "time": 53.744791666666664,
          "velocity": 0.6299212598425197
        },
        {
          "duration": 0.18854166666666572,
          "durationTicks": 181,
          "midi": 59,
          "name": "B3",
          "ticks": 51839,
          "time": 53.998958333333334,
          "velocity": 0.7086614173228346
        },
        {
          "duration": 0.1302083333333357,
          "durationTicks": 125,
          "midi": 59,
          "name": "B3",
          "ticks": 52201,
          "time": 54.376041666666666,
          "velocity": 0.7007874015748031
        },
        {
          "duration": 0.09062500000000284,
          "durationTicks": 87,
          "midi": 59,
          "name": "B3",
          "ticks": 52554,
          "time": 54.74375,
          "velocity": 0.7559055118110236
        },
        {
          "duration": 0.08541666666666714,
          "durationTicks": 82,
          "midi": 59,
          "name": "B3",
          "ticks": 52795,
          "time": 54.994791666666664,
          "velocity": 0.6692913385826772
        }
      ],
      "endOfTrackTicks": 52877
    },
    {
      "channel": 0,
      "controlChanges": {},
      "pitchBends": [],
      "instrument": {
        "family": "piano",
        "name": "acoustic grand piano",
        "number": 0
      },
      "name": "Metal Machine",
      "notes": [],
      "endOfTrackTicks": 960
    },
    {
      "channel": 0,
      "controlChanges": {},
      "pitchBends": [],
      "instrument": {
        "family": "piano",
        "name": "acoustic grand piano",
        "number": 0
      },
      "name": "Metal Machine",
      "notes": [],
      "endOfTrackTicks": 960
    },
    {
      "channel": 0,
      "controlChanges": {},
      "pitchBends": [],
      "instrument": {
        "family": "piano",
        "name": "acoustic grand piano",
        "number": 0
      },
      "name": "Metal Machine",
      "notes": [],
      "endOfTrackTicks": 960
    },
    {
      "channel": 0,
      "controlChanges": {},
      "pitchBends": [],
      "instrument": {
        "family": "piano",
        "name": "acoustic grand piano",
        "number": 0
      },
      "name": "Metal Machine",
      "notes": [],
      "endOfTrackTicks": 960
    },
    {
      "channel": 0,
      "controlChanges": {},
      "pitchBends": [],
      "instrument": {
        "family": "piano",
        "name": "acoustic grand piano",
        "number": 0
      },
      "name": "Metal Machine",
      "notes": [],
      "endOfTrackTicks": 960
    },
    {
      "channel": 0,
      "controlChanges": {},
      "pitchBends": [],
      "instrument": {
        "family": "piano",
        "name": "acoustic grand piano",
        "number": 0
      },
      "name": "Metal Machine",
      "notes": [],
      "endOfTrackTicks": 960
    },
    {
      "channel": 0,
      "controlChanges": {},
      "pitchBends": [],
      "instrument": {
        "family": "piano",
        "name": "acoustic grand piano",
        "number": 0
      },
      "name": "Metal Machine",
      "notes": [],
      "endOfTrackTicks": 960
    },
    {
      "channel": 0,
      "controlChanges": {},
      "pitchBends": [],
      "instrument": {
        "family": "piano",
        "name": "acoustic grand piano",
        "number": 0
      },
      "name": "Metal Machine",
      "notes": [],
      "endOfTrackTicks": 960
    },
    {
      "channel": 0,
      "controlChanges": {},
      "pitchBends": [],
      "instrument": {
        "family": "piano",
        "name": "acoustic grand piano",
        "number": 0
      },
      "name": "Metal Machine",
      "notes": [],
      "endOfTrackTicks": 960
    },
    {
      "channel": 0,
      "controlChanges": {},
      "pitchBends": [],
      "instrument": {
        "family": "piano",
        "name": "acoustic grand piano",
        "number": 0
      },
      "name": "Metal Machine",
      "notes": [],
      "endOfTrackTicks": 960
    },
    {
      "channel": 0,
      "controlChanges": {},
      "pitchBends": [],
      "instrument": {
        "family": "piano",
        "name": "acoustic grand piano",
        "number": 0
      },
      "name": "Metal Machine",
      "notes": [],
      "endOfTrackTicks": 960
    },
    {
      "channel": 0,
      "controlChanges": {},
      "pitchBends": [],
      "instrument": {
        "family": "piano",
        "name": "acoustic grand piano",
        "number": 0
      },
      "name": "Metal Machine",
      "notes": [],
      "endOfTrackTicks": 960
    },
    {
      "channel": 0,
      "controlChanges": {},
      "pitchBends": [],
      "instrument": {
        "family": "piano",
        "name": "acoustic grand piano",
        "number": 0
      },
      "name": "Metal Machine",
      "notes": [],
      "endOfTrackTicks": 960
    },
    {
      "channel": 0,
      "controlChanges": {},
      "pitchBends": [],
      "instrument": {
        "family": "piano",
        "name": "acoustic grand piano",
        "number": 0
      },
      "name": "Metal Machine",
      "notes": [],
      "endOfTrackTicks": 960
    },
    {
      "channel": 0,
      "controlChanges": {},
      "pitchBends": [],
      "instrument": {
        "family": "piano",
        "name": "acoustic grand piano",
        "number": 0
      },
      "name": "Metal Machine",
      "notes": [],
      "endOfTrackTicks": 960
    },
    {
      "channel": 0,
      "controlChanges": {},
      "pitchBends": [],
      "instrument": {
        "family": "piano",
        "name": "acoustic grand piano",
        "number": 0
      },
      "name": "Metal Machine",
      "notes": [],
      "endOfTrackTicks": 960
    },
    {
      "channel": 0,
      "controlChanges": {},
      "pitchBends": [],
      "instrument": {
        "family": "piano",
        "name": "acoustic grand piano",
        "number": 0
      },
      "name": "Metal Machine",
      "notes": [],
      "endOfTrackTicks": 960
    },
    {
      "channel": 0,
      "controlChanges": {},
      "pitchBends": [],
      "instrument": {
        "family": "piano",
        "name": "acoustic grand piano",
        "number": 0
      },
      "name": "Metal Machine",
      "notes": [],
      "endOfTrackTicks": 960
    },
    {
      "channel": 0,
      "controlChanges": {},
      "pitchBends": [],
      "instrument": {
        "family": "piano",
        "name": "acoustic grand piano",
        "number": 0
      },
      "name": "Human Clap",
      "notes": [
        {
          "duration": 0.22604166666666714,
          "durationTicks": 217,
          "midi": 60,
          "name": "C4",
          "ticks": 32880,
          "time": 34.25,
          "velocity": 0.6614173228346457
        },
        {
          "duration": 0.18020833333333286,
          "durationTicks": 173,
          "midi": 60,
          "name": "C4",
          "ticks": 33360,
          "time": 34.75,
          "velocity": 0.6614173228346457
        },
        {
          "duration": 0.18333333333333002,
          "durationTicks": 176,
          "midi": 60,
          "name": "C4",
          "ticks": 33840,
          "time": 35.25,
          "velocity": 0.6614173228346457
        },
        {
          "duration": 0.20520833333333144,
          "durationTicks": 197,
          "midi": 60,
          "name": "C4",
          "ticks": 34320,
          "time": 35.75,
          "velocity": 0.6614173228346457
        },
        {
          "duration": 0.21666666666666856,
          "durationTicks": 208,
          "midi": 60,
          "name": "C4",
          "ticks": 34800,
          "time": 36.25,
          "velocity": 0.6850393700787402
        },
        {
          "duration": 0.1979166666666643,
          "durationTicks": 190,
          "midi": 60,
          "name": "C4",
          "ticks": 35280,
          "time": 36.75,
          "velocity": 0.6850393700787402
        },
        {
          "duration": 0.21041666666666714,
          "durationTicks": 202,
          "midi": 60,
          "name": "C4",
          "ticks": 35760,
          "time": 37.25,
          "velocity": 0.6850393700787402
        },
        {
          "duration": 0.22187499999999716,
          "durationTicks": 213,
          "midi": 60,
          "name": "C4",
          "ticks": 36240,
          "time": 37.75,
          "velocity": 0.6850393700787402
        }
      ],
      "endOfTrackTicks": 36453
    },
    {
      "channel": 0,
      "controlChanges": {},
      "pitchBends": [],
      "instrument": {
        "family": "piano",
        "name": "acoustic grand piano",
        "number": 0
      },
      "name": "Human Clap",
      "notes": [
        {
          "duration": 0.22604166666666714,
          "durationTicks": 217,
          "midi": 60,
          "name": "C4",
          "ticks": 33360,
          "time": 34.75,
          "velocity": 0.6614173228346457
        },
        {
          "duration": 0.18020833333333286,
          "durationTicks": 173,
          "midi": 60,
          "name": "C4",
          "ticks": 33840,
          "time": 35.25,
          "velocity": 0.6614173228346457
        },
        {
          "duration": 0.18333333333333002,
          "durationTicks": 176,
          "midi": 60,
          "name": "C4",
          "ticks": 34320,
          "time": 35.75,
          "velocity": 0.6614173228346457
        },
        {
          "duration": 0.20520833333333144,
          "durationTicks": 197,
          "midi": 60,
          "name": "C4",
          "ticks": 34800,
          "time": 36.25,
          "velocity": 0.6614173228346457
        },
        {
          "duration": 0.21666666666666856,
          "durationTicks": 208,
          "midi": 60,
          "name": "C4",
          "ticks": 35280,
          "time": 36.75,
          "velocity": 0.6850393700787402
        },
        {
          "duration": 0.1979166666666643,
          "durationTicks": 190,
          "midi": 60,
          "name": "C4",
          "ticks": 35760,
          "time": 37.25,
          "velocity": 0.6850393700787402
        },
        {
          "duration": 0.21041666666666714,
          "durationTicks": 202,
          "midi": 60,
          "name": "C4",
          "ticks": 36240,
          "time": 37.75,
          "velocity": 0.6850393700787402
        },
        {
          "duration": 0.22187499999999716,
          "durationTicks": 213,
          "midi": 60,
          "name": "C4",
          "ticks": 36720,
          "time": 38.25,
          "velocity": 0.6850393700787402
        }
      ],
      "endOfTrackTicks": 36933
    },
    {
      "channel": 0,
      "controlChanges": {},
      "pitchBends": [],
      "instrument": {
        "family": "piano",
        "name": "acoustic grand piano",
        "number": 0
      },
      "name": "Human Clap",
      "notes": [
        {
          "duration": 0.22604166666666714,
          "durationTicks": 217,
          "midi": 60,
          "name": "C4",
          "ticks": 33840,
          "time": 35.25,
          "velocity": 0.6614173228346457
        },
        {
          "duration": 0.18020833333333286,
          "durationTicks": 173,
          "midi": 60,
          "name": "C4",
          "ticks": 34320,
          "time": 35.75,
          "velocity": 0.6614173228346457
        },
        {
          "duration": 0.18333333333333002,
          "durationTicks": 176,
          "midi": 60,
          "name": "C4",
          "ticks": 34800,
          "time": 36.25,
          "velocity": 0.6614173228346457
        },
        {
          "duration": 0.20520833333333144,
          "durationTicks": 197,
          "midi": 60,
          "name": "C4",
          "ticks": 35280,
          "time": 36.75,
          "velocity": 0.6614173228346457
        },
        {
          "duration": 0.21666666666666856,
          "durationTicks": 208,
          "midi": 60,
          "name": "C4",
          "ticks": 35760,
          "time": 37.25,
          "velocity": 0.6850393700787402
        },
        {
          "duration": 0.1979166666666643,
          "durationTicks": 190,
          "midi": 60,
          "name": "C4",
          "ticks": 36240,
          "time": 37.75,
          "velocity": 0.6850393700787402
        },
        {
          "duration": 0.21041666666666714,
          "durationTicks": 202,
          "midi": 60,
          "name": "C4",
          "ticks": 36720,
          "time": 38.25,
          "velocity": 0.6850393700787402
        },
        {
          "duration": 0.22187499999999716,
          "durationTicks": 213,
          "midi": 60,
          "name": "C4",
          "ticks": 37200,
          "time": 38.75,
          "velocity": 0.6850393700787402
        }
      ],
      "endOfTrackTicks": 37413
    },
    {
      "channel": 0,
      "controlChanges": {},
      "pitchBends": [],
      "instrument": {
        "family": "piano",
        "name": "acoustic grand piano",
        "number": 0
      },
      "name": "Human Clap",
      "notes": [
        {
          "duration": 0.22604166666666714,
          "durationTicks": 217,
          "midi": 60,
          "name": "C4",
          "ticks": 34320,
          "time": 35.75,
          "velocity": 0.6614173228346457
        },
        {
          "duration": 0.18020833333333286,
          "durationTicks": 173,
          "midi": 60,
          "name": "C4",
          "ticks": 34800,
          "time": 36.25,
          "velocity": 0.6614173228346457
        },
        {
          "duration": 0.18333333333333002,
          "durationTicks": 176,
          "midi": 60,
          "name": "C4",
          "ticks": 35280,
          "time": 36.75,
          "velocity": 0.6614173228346457
        },
        {
          "duration": 0.20520833333333144,
          "durationTicks": 197,
          "midi": 60,
          "name": "C4",
          "ticks": 35760,
          "time": 37.25,
          "velocity": 0.6614173228346457
        },
        {
          "duration": 0.21666666666666856,
          "durationTicks": 208,
          "midi": 60,
          "name": "C4",
          "ticks": 36240,
          "time": 37.75,
          "velocity": 0.6850393700787402
        },
        {
          "duration": 0.1979166666666643,
          "durationTicks": 190,
          "midi": 60,
          "name": "C4",
          "ticks": 36720,
          "time": 38.25,
          "velocity": 0.6850393700787402
        },
        {
          "duration": 0.21041666666666714,
          "durationTicks": 202,
          "midi": 60,
          "name": "C4",
          "ticks": 37200,
          "time": 38.75,
          "velocity": 0.6850393700787402
        },
        {
          "duration": 0.22187499999999716,
          "durationTicks": 213,
          "midi": 60,
          "name": "C4",
          "ticks": 37680,
          "time": 39.25,
          "velocity": 0.6850393700787402
        }
      ],
      "endOfTrackTicks": 37893
    },
    {
      "channel": 0,
      "controlChanges": {},
      "pitchBends": [],
      "instrument": {
        "family": "piano",
        "name": "acoustic grand piano",
        "number": 0
      },
      "name": "Human Clap",
      "notes": [
        {
          "duration": 0.22604166666666714,
          "durationTicks": 217,
          "midi": 60,
          "name": "C4",
          "ticks": 34800,
          "time": 36.25,
          "velocity": 0.6614173228346457
        },
        {
          "duration": 0.18020833333333286,
          "durationTicks": 173,
          "midi": 60,
          "name": "C4",
          "ticks": 35280,
          "time": 36.75,
          "velocity": 0.6614173228346457
        },
        {
          "duration": 0.18333333333333002,
          "durationTicks": 176,
          "midi": 60,
          "name": "C4",
          "ticks": 35760,
          "time": 37.25,
          "velocity": 0.6614173228346457
        },
        {
          "duration": 0.20520833333333144,
          "durationTicks": 197,
          "midi": 60,
          "name": "C4",
          "ticks": 36240,
          "time": 37.75,
          "velocity": 0.6614173228346457
        },
        {
          "duration": 0.21666666666666856,
          "durationTicks": 208,
          "midi": 60,
          "name": "C4",
          "ticks": 36720,
          "time": 38.25,
          "velocity": 0.6850393700787402
        },
        {
          "duration": 0.1979166666666643,
          "durationTicks": 190,
          "midi": 60,
          "name": "C4",
          "ticks": 37200,
          "time": 38.75,
          "velocity": 0.6850393700787402
        },
        {
          "duration": 0.21041666666666714,
          "durationTicks": 202,
          "midi": 60,
          "name": "C4",
          "ticks": 37680,
          "time": 39.25,
          "velocity": 0.6850393700787402
        },
        {
          "duration": 0.22187499999999716,
          "durationTicks": 213,
          "midi": 60,
          "name": "C4",
          "ticks": 38160,
          "time": 39.75,
          "velocity": 0.6850393700787402
        }
      ],
      "endOfTrackTicks": 38373
    },
    {
      "channel": 0,
      "controlChanges": {},
      "pitchBends": [],
      "instrument": {
        "family": "piano",
        "name": "acoustic grand piano",
        "number": 0
      },
      "name": "Human Clap",
      "notes": [
        {
          "duration": 0.22604166666666714,
          "durationTicks": 217,
          "midi": 60,
          "name": "C4",
          "ticks": 35280,
          "time": 36.75,
          "velocity": 0.6614173228346457
        },
        {
          "duration": 0.18020833333333286,
          "durationTicks": 173,
          "midi": 60,
          "name": "C4",
          "ticks": 35760,
          "time": 37.25,
          "velocity": 0.6614173228346457
        },
        {
          "duration": 0.18333333333333002,
          "durationTicks": 176,
          "midi": 60,
          "name": "C4",
          "ticks": 36240,
          "time": 37.75,
          "velocity": 0.6614173228346457
        },
        {
          "duration": 0.20520833333333144,
          "durationTicks": 197,
          "midi": 60,
          "name": "C4",
          "ticks": 36720,
          "time": 38.25,
          "velocity": 0.6614173228346457
        },
        {
          "duration": 0.21666666666666856,
          "durationTicks": 208,
          "midi": 60,
          "name": "C4",
          "ticks": 37200,
          "time": 38.75,
          "velocity": 0.6850393700787402
        },
        {
          "duration": 0.1979166666666643,
          "durationTicks": 190,
          "midi": 60,
          "name": "C4",
          "ticks": 37680,
          "time": 39.25,
          "velocity": 0.6850393700787402
        },
        {
          "duration": 0.21041666666666714,
          "durationTicks": 202,
          "midi": 60,
          "name": "C4",
          "ticks": 38160,
          "time": 39.75,
          "velocity": 0.6850393700787402
        },
        {
          "duration": 0.22187499999999716,
          "durationTicks": 213,
          "midi": 60,
          "name": "C4",
          "ticks": 38640,
          "time": 40.25,
          "velocity": 0.6850393700787402
        }
      ],
      "endOfTrackTicks": 38853
    },
    {
      "channel": 0,
      "controlChanges": {},
      "pitchBends": [],
      "instrument": {
        "family": "piano",
        "name": "acoustic grand piano",
        "number": 0
      },
      "name": "Human Clap",
      "notes": [
        {
          "duration": 0.22604166666666714,
          "durationTicks": 217,
          "midi": 60,
          "name": "C4",
          "ticks": 35760,
          "time": 37.25,
          "velocity": 0.6614173228346457
        },
        {
          "duration": 0.18020833333333286,
          "durationTicks": 173,
          "midi": 60,
          "name": "C4",
          "ticks": 36240,
          "time": 37.75,
          "velocity": 0.6614173228346457
        },
        {
          "duration": 0.18333333333333002,
          "durationTicks": 176,
          "midi": 60,
          "name": "C4",
          "ticks": 36720,
          "time": 38.25,
          "velocity": 0.6614173228346457
        },
        {
          "duration": 0.20520833333333144,
          "durationTicks": 197,
          "midi": 60,
          "name": "C4",
          "ticks": 37200,
          "time": 38.75,
          "velocity": 0.6614173228346457
        },
        {
          "duration": 0.21666666666666856,
          "durationTicks": 208,
          "midi": 60,
          "name": "C4",
          "ticks": 37680,
          "time": 39.25,
          "velocity": 0.6850393700787402
        },
        {
          "duration": 0.1979166666666643,
          "durationTicks": 190,
          "midi": 60,
          "name": "C4",
          "ticks": 38160,
          "time": 39.75,
          "velocity": 0.6850393700787402
        },
        {
          "duration": 0.21041666666666714,
          "durationTicks": 202,
          "midi": 60,
          "name": "C4",
          "ticks": 38640,
          "time": 40.25,
          "velocity": 0.6850393700787402
        },
        {
          "duration": 0.22187499999999716,
          "durationTicks": 213,
          "midi": 60,
          "name": "C4",
          "ticks": 39120,
          "time": 40.75,
          "velocity": 0.6850393700787402
        }
      ],
      "endOfTrackTicks": 39333
    },
    {
      "channel": 0,
      "controlChanges": {},
      "pitchBends": [],
      "instrument": {
        "family": "piano",
        "name": "acoustic grand piano",
        "number": 0
      },
      "name": "Human Clap",
      "notes": [
        {
          "duration": 0.22604166666666714,
          "durationTicks": 217,
          "midi": 60,
          "name": "C4",
          "ticks": 36240,
          "time": 37.75,
          "velocity": 0.6614173228346457
        },
        {
          "duration": 0.18020833333333286,
          "durationTicks": 173,
          "midi": 60,
          "name": "C4",
          "ticks": 36720,
          "time": 38.25,
          "velocity": 0.6614173228346457
        },
        {
          "duration": 0.18333333333333002,
          "durationTicks": 176,
          "midi": 60,
          "name": "C4",
          "ticks": 37200,
          "time": 38.75,
          "velocity": 0.6614173228346457
        },
        {
          "duration": 0.20520833333333144,
          "durationTicks": 197,
          "midi": 60,
          "name": "C4",
          "ticks": 37680,
          "time": 39.25,
          "velocity": 0.6614173228346457
        },
        {
          "duration": 0.21666666666666856,
          "durationTicks": 208,
          "midi": 60,
          "name": "C4",
          "ticks": 38160,
          "time": 39.75,
          "velocity": 0.6850393700787402
        },
        {
          "duration": 0.1979166666666643,
          "durationTicks": 190,
          "midi": 60,
          "name": "C4",
          "ticks": 38640,
          "time": 40.25,
          "velocity": 0.6850393700787402
        },
        {
          "duration": 0.21041666666666714,
          "durationTicks": 202,
          "midi": 60,
          "name": "C4",
          "ticks": 39120,
          "time": 40.75,
          "velocity": 0.6850393700787402
        },
        {
          "duration": 0.22187499999999716,
          "durationTicks": 213,
          "midi": 60,
          "name": "C4",
          "ticks": 39600,
          "time": 41.25,
          "velocity": 0.6850393700787402
        }
      ],
      "endOfTrackTicks": 39813
    },
    {
      "channel": 0,
      "controlChanges": {},
      "pitchBends": [],
      "instrument": {
        "family": "piano",
        "name": "acoustic grand piano",
        "number": 0
      },
      "name": "Human Clap",
      "notes": [
        {
          "duration": 0.22604166666666714,
          "durationTicks": 217,
          "midi": 60,
          "name": "C4",
          "ticks": 36720,
          "time": 38.25,
          "velocity": 0.6614173228346457
        },
        {
          "duration": 0.18020833333333286,
          "durationTicks": 173,
          "midi": 60,
          "name": "C4",
          "ticks": 37200,
          "time": 38.75,
          "velocity": 0.6614173228346457
        },
        {
          "duration": 0.18333333333333002,
          "durationTicks": 176,
          "midi": 60,
          "name": "C4",
          "ticks": 37680,
          "time": 39.25,
          "velocity": 0.6614173228346457
        },
        {
          "duration": 0.20520833333333144,
          "durationTicks": 197,
          "midi": 60,
          "name": "C4",
          "ticks": 38160,
          "time": 39.75,
          "velocity": 0.6614173228346457
        },
        {
          "duration": 0.21666666666666856,
          "durationTicks": 208,
          "midi": 60,
          "name": "C4",
          "ticks": 38640,
          "time": 40.25,
          "velocity": 0.6850393700787402
        },
        {
          "duration": 0.1979166666666643,
          "durationTicks": 190,
          "midi": 60,
          "name": "C4",
          "ticks": 39120,
          "time": 40.75,
          "velocity": 0.6850393700787402
        },
        {
          "duration": 0.21041666666666714,
          "durationTicks": 202,
          "midi": 60,
          "name": "C4",
          "ticks": 39600,
          "time": 41.25,
          "velocity": 0.6850393700787402
        },
        {
          "duration": 0.22187499999999716,
          "durationTicks": 213,
          "midi": 60,
          "name": "C4",
          "ticks": 40080,
          "time": 41.75,
          "velocity": 0.6850393700787402
        }
      ],
      "endOfTrackTicks": 40293
    },
    {
      "channel": 0,
      "controlChanges": {},
      "pitchBends": [],
      "instrument": {
        "family": "piano",
        "name": "acoustic grand piano",
        "number": 0
      },
      "name": "Human Clap",
      "notes": [
        {
          "duration": 0.22604166666666714,
          "durationTicks": 217,
          "midi": 60,
          "name": "C4",
          "ticks": 37200,
          "time": 38.75,
          "velocity": 0.6614173228346457
        },
        {
          "duration": 0.18020833333333286,
          "durationTicks": 173,
          "midi": 60,
          "name": "C4",
          "ticks": 37680,
          "time": 39.25,
          "velocity": 0.6614173228346457
        },
        {
          "duration": 0.18333333333333002,
          "durationTicks": 176,
          "midi": 60,
          "name": "C4",
          "ticks": 38160,
          "time": 39.75,
          "velocity": 0.6614173228346457
        },
        {
          "duration": 0.20520833333333144,
          "durationTicks": 197,
          "midi": 60,
          "name": "C4",
          "ticks": 38640,
          "time": 40.25,
          "velocity": 0.6614173228346457
        },
        {
          "duration": 0.21666666666666856,
          "durationTicks": 208,
          "midi": 60,
          "name": "C4",
          "ticks": 39120,
          "time": 40.75,
          "velocity": 0.6850393700787402
        },
        {
          "duration": 0.1979166666666643,
          "durationTicks": 190,
          "midi": 60,
          "name": "C4",
          "ticks": 39600,
          "time": 41.25,
          "velocity": 0.6850393700787402
        },
        {
          "duration": 0.21041666666666714,
          "durationTicks": 202,
          "midi": 60,
          "name": "C4",
          "ticks": 40080,
          "time": 41.75,
          "velocity": 0.6850393700787402
        },
        {
          "duration": 0.22187499999999716,
          "durationTicks": 213,
          "midi": 60,
          "name": "C4",
          "ticks": 40560,
          "time": 42.25,
          "velocity": 0.6850393700787402
        }
      ],
      "endOfTrackTicks": 40773
    },
    {
      "channel": 0,
      "controlChanges": {},
      "pitchBends": [],
      "instrument": {
        "family": "piano",
        "name": "acoustic grand piano",
        "number": 0
      },
      "name": "Human Clap",
      "notes": [
        {
          "duration": 0.22604166666666714,
          "durationTicks": 217,
          "midi": 60,
          "name": "C4",
          "ticks": 37680,
          "time": 39.25,
          "velocity": 0.6614173228346457
        },
        {
          "duration": 0.18020833333333286,
          "durationTicks": 173,
          "midi": 60,
          "name": "C4",
          "ticks": 38160,
          "time": 39.75,
          "velocity": 0.6614173228346457
        },
        {
          "duration": 0.18333333333333002,
          "durationTicks": 176,
          "midi": 60,
          "name": "C4",
          "ticks": 38640,
          "time": 40.25,
          "velocity": 0.6614173228346457
        },
        {
          "duration": 0.20520833333333144,
          "durationTicks": 197,
          "midi": 60,
          "name": "C4",
          "ticks": 39120,
          "time": 40.75,
          "velocity": 0.6614173228346457
        },
        {
          "duration": 0.21666666666666856,
          "durationTicks": 208,
          "midi": 60,
          "name": "C4",
          "ticks": 39600,
          "time": 41.25,
          "velocity": 0.6850393700787402
        },
        {
          "duration": 0.1979166666666643,
          "durationTicks": 190,
          "midi": 60,
          "name": "C4",
          "ticks": 40080,
          "time": 41.75,
          "velocity": 0.6850393700787402
        },
        {
          "duration": 0.21041666666666714,
          "durationTicks": 202,
          "midi": 60,
          "name": "C4",
          "ticks": 40560,
          "time": 42.25,
          "velocity": 0.6850393700787402
        },
        {
          "duration": 0.22187499999999716,
          "durationTicks": 213,
          "midi": 60,
          "name": "C4",
          "ticks": 41040,
          "time": 42.75,
          "velocity": 0.6850393700787402
        }
      ],
      "endOfTrackTicks": 41253
    },
    {
      "channel": 0,
      "controlChanges": {},
      "pitchBends": [],
      "instrument": {
        "family": "piano",
        "name": "acoustic grand piano",
        "number": 0
      },
      "name": "Human Clap",
      "notes": [
        {
          "duration": 0.22604166666666714,
          "durationTicks": 217,
          "midi": 60,
          "name": "C4",
          "ticks": 38160,
          "time": 39.75,
          "velocity": 0.6614173228346457
        },
        {
          "duration": 0.18020833333333286,
          "durationTicks": 173,
          "midi": 60,
          "name": "C4",
          "ticks": 38640,
          "time": 40.25,
          "velocity": 0.6614173228346457
        },
        {
          "duration": 0.18333333333333002,
          "durationTicks": 176,
          "midi": 60,
          "name": "C4",
          "ticks": 39120,
          "time": 40.75,
          "velocity": 0.6614173228346457
        },
        {
          "duration": 0.20520833333333144,
          "durationTicks": 197,
          "midi": 60,
          "name": "C4",
          "ticks": 39600,
          "time": 41.25,
          "velocity": 0.6614173228346457
        },
        {
          "duration": 0.21666666666666856,
          "durationTicks": 208,
          "midi": 60,
          "name": "C4",
          "ticks": 40080,
          "time": 41.75,
          "velocity": 0.6850393700787402
        },
        {
          "duration": 0.1979166666666643,
          "durationTicks": 190,
          "midi": 60,
          "name": "C4",
          "ticks": 40560,
          "time": 42.25,
          "velocity": 0.6850393700787402
        },
        {
          "duration": 0.21041666666666714,
          "durationTicks": 202,
          "midi": 60,
          "name": "C4",
          "ticks": 41040,
          "time": 42.75,
          "velocity": 0.6850393700787402
        },
        {
          "duration": 0.22187499999999716,
          "durationTicks": 213,
          "midi": 60,
          "name": "C4",
          "ticks": 41520,
          "time": 43.25,
          "velocity": 0.6850393700787402
        }
      ],
      "endOfTrackTicks": 41733
    },
    {
      "channel": 0,
      "controlChanges": {},
      "pitchBends": [],
      "instrument": {
        "family": "piano",
        "name": "acoustic grand piano",
        "number": 0
      },
      "name": "Human Clap",
      "notes": [
        {
          "duration": 0.22604166666666714,
          "durationTicks": 217,
          "midi": 60,
          "name": "C4",
          "ticks": 38640,
          "time": 40.25,
          "velocity": 0.6614173228346457
        },
        {
          "duration": 0.18020833333333286,
          "durationTicks": 173,
          "midi": 60,
          "name": "C4",
          "ticks": 39120,
          "time": 40.75,
          "velocity": 0.6614173228346457
        },
        {
          "duration": 0.18333333333333002,
          "durationTicks": 176,
          "midi": 60,
          "name": "C4",
          "ticks": 39600,
          "time": 41.25,
          "velocity": 0.6614173228346457
        },
        {
          "duration": 0.20520833333333144,
          "durationTicks": 197,
          "midi": 60,
          "name": "C4",
          "ticks": 40080,
          "time": 41.75,
          "velocity": 0.6614173228346457
        },
        {
          "duration": 0.21666666666666856,
          "durationTicks": 208,
          "midi": 60,
          "name": "C4",
          "ticks": 40560,
          "time": 42.25,
          "velocity": 0.6850393700787402
        },
        {
          "duration": 0.1979166666666643,
          "durationTicks": 190,
          "midi": 60,
          "name": "C4",
          "ticks": 41040,
          "time": 42.75,
          "velocity": 0.6850393700787402
        },
        {
          "duration": 0.21041666666666714,
          "durationTicks": 202,
          "midi": 60,
          "name": "C4",
          "ticks": 41520,
          "time": 43.25,
          "velocity": 0.6850393700787402
        },
        {
          "duration": 0.22187499999999716,
          "durationTicks": 213,
          "midi": 60,
          "name": "C4",
          "ticks": 42000,
          "time": 43.75,
          "velocity": 0.6850393700787402
        }
      ],
      "endOfTrackTicks": 42213
    },
    {
      "channel": 0,
      "controlChanges": {},
      "pitchBends": [],
      "instrument": {
        "family": "piano",
        "name": "acoustic grand piano",
        "number": 0
      },
      "name": "Human Clap",
      "notes": [
        {
          "duration": 0.22604166666666714,
          "durationTicks": 217,
          "midi": 60,
          "name": "C4",
          "ticks": 39120,
          "time": 40.75,
          "velocity": 0.6614173228346457
        },
        {
          "duration": 0.18020833333333286,
          "durationTicks": 173,
          "midi": 60,
          "name": "C4",
          "ticks": 39600,
          "time": 41.25,
          "velocity": 0.6614173228346457
        },
        {
          "duration": 0.18333333333333002,
          "durationTicks": 176,
          "midi": 60,
          "name": "C4",
          "ticks": 40080,
          "time": 41.75,
          "velocity": 0.6614173228346457
        },
        {
          "duration": 0.20520833333333144,
          "durationTicks": 197,
          "midi": 60,
          "name": "C4",
          "ticks": 40560,
          "time": 42.25,
          "velocity": 0.6614173228346457
        },
        {
          "duration": 0.21666666666666856,
          "durationTicks": 208,
          "midi": 60,
          "name": "C4",
          "ticks": 41040,
          "time": 42.75,
          "velocity": 0.6850393700787402
        },
        {
          "duration": 0.1979166666666643,
          "durationTicks": 190,
          "midi": 60,
          "name": "C4",
          "ticks": 41520,
          "time": 43.25,
          "velocity": 0.6850393700787402
        },
        {
          "duration": 0.21041666666666714,
          "durationTicks": 202,
          "midi": 60,
          "name": "C4",
          "ticks": 42000,
          "time": 43.75,
          "velocity": 0.6850393700787402
        },
        {
          "duration": 0.22187499999999716,
          "durationTicks": 213,
          "midi": 60,
          "name": "C4",
          "ticks": 42480,
          "time": 44.25,
          "velocity": 0.6850393700787402
        }
      ],
      "endOfTrackTicks": 42693
    },
    {
      "channel": 0,
      "controlChanges": {},
      "pitchBends": [],
      "instrument": {
        "family": "piano",
        "name": "acoustic grand piano",
        "number": 0
      },
      "name": "Human Clap",
      "notes": [
        {
          "duration": 0.22604166666666714,
          "durationTicks": 217,
          "midi": 60,
          "name": "C4",
          "ticks": 39600,
          "time": 41.25,
          "velocity": 0.6614173228346457
        },
        {
          "duration": 0.18020833333333286,
          "durationTicks": 173,
          "midi": 60,
          "name": "C4",
          "ticks": 40080,
          "time": 41.75,
          "velocity": 0.6614173228346457
        },
        {
          "duration": 0.18333333333333002,
          "durationTicks": 176,
          "midi": 60,
          "name": "C4",
          "ticks": 40560,
          "time": 42.25,
          "velocity": 0.6614173228346457
        },
        {
          "duration": 0.20520833333333144,
          "durationTicks": 197,
          "midi": 60,
          "name": "C4",
          "ticks": 41040,
          "time": 42.75,
          "velocity": 0.6614173228346457
        },
        {
          "duration": 0.21666666666666856,
          "durationTicks": 208,
          "midi": 60,
          "name": "C4",
          "ticks": 41520,
          "time": 43.25,
          "velocity": 0.6850393700787402
        },
        {
          "duration": 0.1979166666666643,
          "durationTicks": 190,
          "midi": 60,
          "name": "C4",
          "ticks": 42000,
          "time": 43.75,
          "velocity": 0.6850393700787402
        },
        {
          "duration": 0.21041666666666714,
          "durationTicks": 202,
          "midi": 60,
          "name": "C4",
          "ticks": 42480,
          "time": 44.25,
          "velocity": 0.6850393700787402
        },
        {
          "duration": 0.22187499999999716,
          "durationTicks": 213,
          "midi": 60,
          "name": "C4",
          "ticks": 42960,
          "time": 44.75,
          "velocity": 0.6850393700787402
        }
      ],
      "endOfTrackTicks": 43173
    },
    {
      "channel": 0,
      "controlChanges": {},
      "pitchBends": [],
      "instrument": {
        "family": "piano",
        "name": "acoustic grand piano",
        "number": 0
      },
      "name": "Human Clap",
      "notes": [
        {
          "duration": 0.22604166666666714,
          "durationTicks": 217,
          "midi": 60,
          "name": "C4",
          "ticks": 40560,
          "time": 42.25,
          "velocity": 0.6614173228346457
        },
        {
          "duration": 0.18020833333333286,
          "durationTicks": 173,
          "midi": 60,
          "name": "C4",
          "ticks": 41040,
          "time": 42.75,
          "velocity": 0.6614173228346457
        },
        {
          "duration": 0.18333333333333002,
          "durationTicks": 176,
          "midi": 60,
          "name": "C4",
          "ticks": 41520,
          "time": 43.25,
          "velocity": 0.6614173228346457
        },
        {
          "duration": 0.20520833333333144,
          "durationTicks": 197,
          "midi": 60,
          "name": "C4",
          "ticks": 42000,
          "time": 43.75,
          "velocity": 0.6614173228346457
        },
        {
          "duration": 0.21666666666666856,
          "durationTicks": 208,
          "midi": 60,
          "name": "C4",
          "ticks": 42480,
          "time": 44.25,
          "velocity": 0.6850393700787402
        },
        {
          "duration": 0.1979166666666643,
          "durationTicks": 190,
          "midi": 60,
          "name": "C4",
          "ticks": 42960,
          "time": 44.75,
          "velocity": 0.6850393700787402
        },
        {
          "duration": 0.21041666666666714,
          "durationTicks": 202,
          "midi": 60,
          "name": "C4",
          "ticks": 43440,
          "time": 45.25,
          "velocity": 0.6850393700787402
        },
        {
          "duration": 0.22187499999999716,
          "durationTicks": 213,
          "midi": 60,
          "name": "C4",
          "ticks": 43920,
          "time": 45.75,
          "velocity": 0.6850393700787402
        }
      ],
      "endOfTrackTicks": 44133
    },
    {
      "channel": 0,
      "controlChanges": {},
      "pitchBends": [],
      "instrument": {
        "family": "piano",
        "name": "acoustic grand piano",
        "number": 0
      },
      "name": "Human Clap",
      "notes": [
        {
          "duration": 0.22604166666666714,
          "durationTicks": 217,
          "midi": 60,
          "name": "C4",
          "ticks": 41040,
          "time": 42.75,
          "velocity": 0.6614173228346457
        },
        {
          "duration": 0.18020833333333286,
          "durationTicks": 173,
          "midi": 60,
          "name": "C4",
          "ticks": 41520,
          "time": 43.25,
          "velocity": 0.6614173228346457
        },
        {
          "duration": 0.18333333333333002,
          "durationTicks": 176,
          "midi": 60,
          "name": "C4",
          "ticks": 42000,
          "time": 43.75,
          "velocity": 0.6614173228346457
        },
        {
          "duration": 0.20520833333333144,
          "durationTicks": 197,
          "midi": 60,
          "name": "C4",
          "ticks": 42480,
          "time": 44.25,
          "velocity": 0.6614173228346457
        },
        {
          "duration": 0.21666666666666856,
          "durationTicks": 208,
          "midi": 60,
          "name": "C4",
          "ticks": 42960,
          "time": 44.75,
          "velocity": 0.6850393700787402
        },
        {
          "duration": 0.1979166666666643,
          "durationTicks": 190,
          "midi": 60,
          "name": "C4",
          "ticks": 43440,
          "time": 45.25,
          "velocity": 0.6850393700787402
        },
        {
          "duration": 0.21041666666666714,
          "durationTicks": 202,
          "midi": 60,
          "name": "C4",
          "ticks": 43920,
          "time": 45.75,
          "velocity": 0.6850393700787402
        },
        {
          "duration": 0.22187499999999716,
          "durationTicks": 213,
          "midi": 60,
          "name": "C4",
          "ticks": 44400,
          "time": 46.25,
          "velocity": 0.6850393700787402
        }
      ],
      "endOfTrackTicks": 44613
    },
    {
      "channel": 0,
      "controlChanges": {},
      "pitchBends": [],
      "instrument": {
        "family": "piano",
        "name": "acoustic grand piano",
        "number": 0
      },
      "name": "Human Clap",
      "notes": [
        {
          "duration": 0.22604166666666714,
          "durationTicks": 217,
          "midi": 60,
          "name": "C4",
          "ticks": 41520,
          "time": 43.25,
          "velocity": 0.6614173228346457
        },
        {
          "duration": 0.18020833333333286,
          "durationTicks": 173,
          "midi": 60,
          "name": "C4",
          "ticks": 42000,
          "time": 43.75,
          "velocity": 0.6614173228346457
        },
        {
          "duration": 0.18333333333333002,
          "durationTicks": 176,
          "midi": 60,
          "name": "C4",
          "ticks": 42480,
          "time": 44.25,
          "velocity": 0.6614173228346457
        },
        {
          "duration": 0.20520833333333144,
          "durationTicks": 197,
          "midi": 60,
          "name": "C4",
          "ticks": 42960,
          "time": 44.75,
          "velocity": 0.6614173228346457
        },
        {
          "duration": 0.21666666666666856,
          "durationTicks": 208,
          "midi": 60,
          "name": "C4",
          "ticks": 43440,
          "time": 45.25,
          "velocity": 0.6850393700787402
        },
        {
          "duration": 0.1979166666666643,
          "durationTicks": 190,
          "midi": 60,
          "name": "C4",
          "ticks": 43920,
          "time": 45.75,
          "velocity": 0.6850393700787402
        },
        {
          "duration": 0.21041666666666714,
          "durationTicks": 202,
          "midi": 60,
          "name": "C4",
          "ticks": 44400,
          "time": 46.25,
          "velocity": 0.6850393700787402
        },
        {
          "duration": 0.22187499999999716,
          "durationTicks": 213,
          "midi": 60,
          "name": "C4",
          "ticks": 44880,
          "time": 46.75,
          "velocity": 0.6850393700787402
        }
      ],
      "endOfTrackTicks": 45093
    },
    {
      "channel": 0,
      "controlChanges": {},
      "pitchBends": [],
      "instrument": {
        "family": "piano",
        "name": "acoustic grand piano",
        "number": 0
      },
      "name": "Human Clap",
      "notes": [
        {
          "duration": 0.22604166666666714,
          "durationTicks": 217,
          "midi": 60,
          "name": "C4",
          "ticks": 42000,
          "time": 43.75,
          "velocity": 0.6614173228346457
        },
        {
          "duration": 0.18020833333333286,
          "durationTicks": 173,
          "midi": 60,
          "name": "C4",
          "ticks": 42480,
          "time": 44.25,
          "velocity": 0.6614173228346457
        },
        {
          "duration": 0.18333333333333002,
          "durationTicks": 176,
          "midi": 60,
          "name": "C4",
          "ticks": 42960,
          "time": 44.75,
          "velocity": 0.6614173228346457
        },
        {
          "duration": 0.20520833333333144,
          "durationTicks": 197,
          "midi": 60,
          "name": "C4",
          "ticks": 43440,
          "time": 45.25,
          "velocity": 0.6614173228346457
        },
        {
          "duration": 0.21666666666666856,
          "durationTicks": 208,
          "midi": 60,
          "name": "C4",
          "ticks": 43920,
          "time": 45.75,
          "velocity": 0.6850393700787402
        },
        {
          "duration": 0.1979166666666643,
          "durationTicks": 190,
          "midi": 60,
          "name": "C4",
          "ticks": 44400,
          "time": 46.25,
          "velocity": 0.6850393700787402
        },
        {
          "duration": 0.21041666666666714,
          "durationTicks": 202,
          "midi": 60,
          "name": "C4",
          "ticks": 44880,
          "time": 46.75,
          "velocity": 0.6850393700787402
        },
        {
          "duration": 0.22187499999999716,
          "durationTicks": 213,
          "midi": 60,
          "name": "C4",
          "ticks": 45360,
          "time": 47.25,
          "velocity": 0.6850393700787402
        }
      ],
      "endOfTrackTicks": 45573
    },
    {
      "channel": 0,
      "controlChanges": {},
      "pitchBends": [],
      "instrument": {
        "family": "piano",
        "name": "acoustic grand piano",
        "number": 0
      },
      "name": "Human Clap",
      "notes": [
        {
          "duration": 0.22604166666666714,
          "durationTicks": 217,
          "midi": 60,
          "name": "C4",
          "ticks": 42480,
          "time": 44.25,
          "velocity": 0.6614173228346457
        },
        {
          "duration": 0.18020833333333286,
          "durationTicks": 173,
          "midi": 60,
          "name": "C4",
          "ticks": 42960,
          "time": 44.75,
          "velocity": 0.6614173228346457
        },
        {
          "duration": 0.18333333333333002,
          "durationTicks": 176,
          "midi": 60,
          "name": "C4",
          "ticks": 43440,
          "time": 45.25,
          "velocity": 0.6614173228346457
        },
        {
          "duration": 0.20520833333333144,
          "durationTicks": 197,
          "midi": 60,
          "name": "C4",
          "ticks": 43920,
          "time": 45.75,
          "velocity": 0.6614173228346457
        },
        {
          "duration": 0.21666666666666856,
          "durationTicks": 208,
          "midi": 60,
          "name": "C4",
          "ticks": 44400,
          "time": 46.25,
          "velocity": 0.6850393700787402
        },
        {
          "duration": 0.1979166666666643,
          "durationTicks": 190,
          "midi": 60,
          "name": "C4",
          "ticks": 44880,
          "time": 46.75,
          "velocity": 0.6850393700787402
        },
        {
          "duration": 0.21041666666666714,
          "durationTicks": 202,
          "midi": 60,
          "name": "C4",
          "ticks": 45360,
          "time": 47.25,
          "velocity": 0.6850393700787402
        },
        {
          "duration": 0.22187499999999716,
          "durationTicks": 213,
          "midi": 60,
          "name": "C4",
          "ticks": 45840,
          "time": 47.75,
          "velocity": 0.6850393700787402
        }
      ],
      "endOfTrackTicks": 46053
    },
    {
      "channel": 0,
      "controlChanges": {},
      "pitchBends": [],
      "instrument": {
        "family": "piano",
        "name": "acoustic grand piano",
        "number": 0
      },
      "name": "Human Clap",
      "notes": [
        {
          "duration": 0.22604166666666714,
          "durationTicks": 217,
          "midi": 60,
          "name": "C4",
          "ticks": 42960,
          "time": 44.75,
          "velocity": 0.6614173228346457
        },
        {
          "duration": 0.18020833333333286,
          "durationTicks": 173,
          "midi": 60,
          "name": "C4",
          "ticks": 43440,
          "time": 45.25,
          "velocity": 0.6614173228346457
        },
        {
          "duration": 0.18333333333333002,
          "durationTicks": 176,
          "midi": 60,
          "name": "C4",
          "ticks": 43920,
          "time": 45.75,
          "velocity": 0.6614173228346457
        },
        {
          "duration": 0.20520833333333144,
          "durationTicks": 197,
          "midi": 60,
          "name": "C4",
          "ticks": 44400,
          "time": 46.25,
          "velocity": 0.6614173228346457
        },
        {
          "duration": 0.21666666666666856,
          "durationTicks": 208,
          "midi": 60,
          "name": "C4",
          "ticks": 44880,
          "time": 46.75,
          "velocity": 0.6850393700787402
        },
        {
          "duration": 0.1979166666666643,
          "durationTicks": 190,
          "midi": 60,
          "name": "C4",
          "ticks": 45360,
          "time": 47.25,
          "velocity": 0.6850393700787402
        },
        {
          "duration": 0.21041666666666714,
          "durationTicks": 202,
          "midi": 60,
          "name": "C4",
          "ticks": 45840,
          "time": 47.75,
          "velocity": 0.6850393700787402
        },
        {
          "duration": 0.22187499999999716,
          "durationTicks": 213,
          "midi": 60,
          "name": "C4",
          "ticks": 46320,
          "time": 48.25,
          "velocity": 0.6850393700787402
        }
      ],
      "endOfTrackTicks": 46533
    },
    {
      "channel": 0,
      "controlChanges": {},
      "pitchBends": [],
      "instrument": {
        "family": "piano",
        "name": "acoustic grand piano",
        "number": 0
      },
      "name": "Human Clap",
      "notes": [
        {
          "duration": 0.22604166666666714,
          "durationTicks": 217,
          "midi": 60,
          "name": "C4",
          "ticks": 43440,
          "time": 45.25,
          "velocity": 0.6614173228346457
        },
        {
          "duration": 0.18020833333333286,
          "durationTicks": 173,
          "midi": 60,
          "name": "C4",
          "ticks": 43920,
          "time": 45.75,
          "velocity": 0.6614173228346457
        },
        {
          "duration": 0.18333333333333002,
          "durationTicks": 176,
          "midi": 60,
          "name": "C4",
          "ticks": 44400,
          "time": 46.25,
          "velocity": 0.6614173228346457
        },
        {
          "duration": 0.20520833333333144,
          "durationTicks": 197,
          "midi": 60,
          "name": "C4",
          "ticks": 44880,
          "time": 46.75,
          "velocity": 0.6614173228346457
        },
        {
          "duration": 0.21666666666666856,
          "durationTicks": 208,
          "midi": 60,
          "name": "C4",
          "ticks": 45360,
          "time": 47.25,
          "velocity": 0.6850393700787402
        },
        {
          "duration": 0.1979166666666643,
          "durationTicks": 190,
          "midi": 60,
          "name": "C4",
          "ticks": 45840,
          "time": 47.75,
          "velocity": 0.6850393700787402
        },
        {
          "duration": 0.21041666666666714,
          "durationTicks": 202,
          "midi": 60,
          "name": "C4",
          "ticks": 46320,
          "time": 48.25,
          "velocity": 0.6850393700787402
        },
        {
          "duration": 0.22187499999999716,
          "durationTicks": 213,
          "midi": 60,
          "name": "C4",
          "ticks": 46800,
          "time": 48.75,
          "velocity": 0.6850393700787402
        }
      ],
      "endOfTrackTicks": 47013
    },
    {
      "channel": 0,
      "controlChanges": {},
      "pitchBends": [],
      "instrument": {
        "family": "piano",
        "name": "acoustic grand piano",
        "number": 0
      },
      "name": "Human Clap",
      "notes": [
        {
          "duration": 0.22604166666666714,
          "durationTicks": 217,
          "midi": 60,
          "name": "C4",
          "ticks": 43920,
          "time": 45.75,
          "velocity": 0.6614173228346457
        },
        {
          "duration": 0.18020833333333286,
          "durationTicks": 173,
          "midi": 60,
          "name": "C4",
          "ticks": 44400,
          "time": 46.25,
          "velocity": 0.6614173228346457
        },
        {
          "duration": 0.18333333333333002,
          "durationTicks": 176,
          "midi": 60,
          "name": "C4",
          "ticks": 44880,
          "time": 46.75,
          "velocity": 0.6614173228346457
        },
        {
          "duration": 0.20520833333333144,
          "durationTicks": 197,
          "midi": 60,
          "name": "C4",
          "ticks": 45360,
          "time": 47.25,
          "velocity": 0.6614173228346457
        },
        {
          "duration": 0.21666666666666856,
          "durationTicks": 208,
          "midi": 60,
          "name": "C4",
          "ticks": 45840,
          "time": 47.75,
          "velocity": 0.6850393700787402
        },
        {
          "duration": 0.1979166666666643,
          "durationTicks": 190,
          "midi": 60,
          "name": "C4",
          "ticks": 46320,
          "time": 48.25,
          "velocity": 0.6850393700787402
        },
        {
          "duration": 0.21041666666666714,
          "durationTicks": 202,
          "midi": 60,
          "name": "C4",
          "ticks": 46800,
          "time": 48.75,
          "velocity": 0.6850393700787402
        },
        {
          "duration": 0.22187499999999716,
          "durationTicks": 213,
          "midi": 60,
          "name": "C4",
          "ticks": 47280,
          "time": 49.25,
          "velocity": 0.6850393700787402
        }
      ],
      "endOfTrackTicks": 47493
    },
    {
      "channel": 0,
      "controlChanges": {},
      "pitchBends": [],
      "instrument": {
        "family": "piano",
        "name": "acoustic grand piano",
        "number": 0
      },
      "name": "Human Clap",
      "notes": [
        {
          "duration": 0.22604166666666714,
          "durationTicks": 217,
          "midi": 60,
          "name": "C4",
          "ticks": 44400,
          "time": 46.25,
          "velocity": 0.6614173228346457
        },
        {
          "duration": 0.18020833333333286,
          "durationTicks": 173,
          "midi": 60,
          "name": "C4",
          "ticks": 44880,
          "time": 46.75,
          "velocity": 0.6614173228346457
        },
        {
          "duration": 0.18333333333333002,
          "durationTicks": 176,
          "midi": 60,
          "name": "C4",
          "ticks": 45360,
          "time": 47.25,
          "velocity": 0.6614173228346457
        },
        {
          "duration": 0.20520833333333144,
          "durationTicks": 197,
          "midi": 60,
          "name": "C4",
          "ticks": 45840,
          "time": 47.75,
          "velocity": 0.6614173228346457
        },
        {
          "duration": 0.21666666666666856,
          "durationTicks": 208,
          "midi": 60,
          "name": "C4",
          "ticks": 46320,
          "time": 48.25,
          "velocity": 0.6850393700787402
        },
        {
          "duration": 0.1979166666666643,
          "durationTicks": 190,
          "midi": 60,
          "name": "C4",
          "ticks": 46800,
          "time": 48.75,
          "velocity": 0.6850393700787402
        },
        {
          "duration": 0.21041666666666714,
          "durationTicks": 202,
          "midi": 60,
          "name": "C4",
          "ticks": 47280,
          "time": 49.25,
          "velocity": 0.6850393700787402
        },
        {
          "duration": 0.22187499999999716,
          "durationTicks": 213,
          "midi": 60,
          "name": "C4",
          "ticks": 47760,
          "time": 49.75,
          "velocity": 0.6850393700787402
        }
      ],
      "endOfTrackTicks": 47973
    },
    {
      "channel": 0,
      "controlChanges": {},
      "pitchBends": [],
      "instrument": {
        "family": "piano",
        "name": "acoustic grand piano",
        "number": 0
      },
      "name": "Human Clap",
      "notes": [
        {
          "duration": 0.22604166666666714,
          "durationTicks": 217,
          "midi": 60,
          "name": "C4",
          "ticks": 44880,
          "time": 46.75,
          "velocity": 0.6614173228346457
        },
        {
          "duration": 0.18020833333333286,
          "durationTicks": 173,
          "midi": 60,
          "name": "C4",
          "ticks": 45360,
          "time": 47.25,
          "velocity": 0.6614173228346457
        },
        {
          "duration": 0.18333333333333002,
          "durationTicks": 176,
          "midi": 60,
          "name": "C4",
          "ticks": 45840,
          "time": 47.75,
          "velocity": 0.6614173228346457
        },
        {
          "duration": 0.20520833333333144,
          "durationTicks": 197,
          "midi": 60,
          "name": "C4",
          "ticks": 46320,
          "time": 48.25,
          "velocity": 0.6614173228346457
        },
        {
          "duration": 0.21666666666666856,
          "durationTicks": 208,
          "midi": 60,
          "name": "C4",
          "ticks": 46800,
          "time": 48.75,
          "velocity": 0.6850393700787402
        },
        {
          "duration": 0.1979166666666643,
          "durationTicks": 190,
          "midi": 60,
          "name": "C4",
          "ticks": 47280,
          "time": 49.25,
          "velocity": 0.6850393700787402
        },
        {
          "duration": 0.21041666666666714,
          "durationTicks": 202,
          "midi": 60,
          "name": "C4",
          "ticks": 47760,
          "time": 49.75,
          "velocity": 0.6850393700787402
        },
        {
          "duration": 0.22187499999999716,
          "durationTicks": 213,
          "midi": 60,
          "name": "C4",
          "ticks": 48240,
          "time": 50.25,
          "velocity": 0.6850393700787402
        }
      ],
      "endOfTrackTicks": 48453
    },
    {
      "channel": 0,
      "controlChanges": {},
      "pitchBends": [],
      "instrument": {
        "family": "piano",
        "name": "acoustic grand piano",
        "number": 0
      },
      "name": "Human Clap",
      "notes": [
        {
          "duration": 0.22604166666666714,
          "durationTicks": 217,
          "midi": 60,
          "name": "C4",
          "ticks": 45360,
          "time": 47.25,
          "velocity": 0.6614173228346457
        },
        {
          "duration": 0.18020833333333286,
          "durationTicks": 173,
          "midi": 60,
          "name": "C4",
          "ticks": 45840,
          "time": 47.75,
          "velocity": 0.6614173228346457
        },
        {
          "duration": 0.18333333333333002,
          "durationTicks": 176,
          "midi": 60,
          "name": "C4",
          "ticks": 46320,
          "time": 48.25,
          "velocity": 0.6614173228346457
        },
        {
          "duration": 0.20520833333333144,
          "durationTicks": 197,
          "midi": 60,
          "name": "C4",
          "ticks": 46800,
          "time": 48.75,
          "velocity": 0.6614173228346457
        },
        {
          "duration": 0.21666666666666856,
          "durationTicks": 208,
          "midi": 60,
          "name": "C4",
          "ticks": 47280,
          "time": 49.25,
          "velocity": 0.6850393700787402
        },
        {
          "duration": 0.1979166666666643,
          "durationTicks": 190,
          "midi": 60,
          "name": "C4",
          "ticks": 47760,
          "time": 49.75,
          "velocity": 0.6850393700787402
        },
        {
          "duration": 0.21041666666666714,
          "durationTicks": 202,
          "midi": 60,
          "name": "C4",
          "ticks": 48240,
          "time": 50.25,
          "velocity": 0.6850393700787402
        },
        {
          "duration": 0.22187499999999716,
          "durationTicks": 213,
          "midi": 60,
          "name": "C4",
          "ticks": 48720,
          "time": 50.75,
          "velocity": 0.6850393700787402
        }
      ],
      "endOfTrackTicks": 48933
    },
    {
      "channel": 0,
      "controlChanges": {},
      "pitchBends": [],
      "instrument": {
        "family": "piano",
        "name": "acoustic grand piano",
        "number": 0
      },
      "name": "Human Clap",
      "notes": [
        {
          "duration": 0.22604166666666714,
          "durationTicks": 217,
          "midi": 60,
          "name": "C4",
          "ticks": 45840,
          "time": 47.75,
          "velocity": 0.6614173228346457
        },
        {
          "duration": 0.18020833333333286,
          "durationTicks": 173,
          "midi": 60,
          "name": "C4",
          "ticks": 46320,
          "time": 48.25,
          "velocity": 0.6614173228346457
        },
        {
          "duration": 0.18333333333333002,
          "durationTicks": 176,
          "midi": 60,
          "name": "C4",
          "ticks": 46800,
          "time": 48.75,
          "velocity": 0.6614173228346457
        },
        {
          "duration": 0.20520833333333144,
          "durationTicks": 197,
          "midi": 60,
          "name": "C4",
          "ticks": 47280,
          "time": 49.25,
          "velocity": 0.6614173228346457
        },
        {
          "duration": 0.21666666666666856,
          "durationTicks": 208,
          "midi": 60,
          "name": "C4",
          "ticks": 47760,
          "time": 49.75,
          "velocity": 0.6850393700787402
        },
        {
          "duration": 0.1979166666666643,
          "durationTicks": 190,
          "midi": 60,
          "name": "C4",
          "ticks": 48240,
          "time": 50.25,
          "velocity": 0.6850393700787402
        },
        {
          "duration": 0.21041666666666714,
          "durationTicks": 202,
          "midi": 60,
          "name": "C4",
          "ticks": 48720,
          "time": 50.75,
          "velocity": 0.6850393700787402
        },
        {
          "duration": 0.22187499999999716,
          "durationTicks": 213,
          "midi": 60,
          "name": "C4",
          "ticks": 49200,
          "time": 51.25,
          "velocity": 0.6850393700787402
        }
      ],
      "endOfTrackTicks": 49413
    },
    {
      "channel": 0,
      "controlChanges": {},
      "pitchBends": [],
      "instrument": {
        "family": "piano",
        "name": "acoustic grand piano",
        "number": 0
      },
      "name": "Human Clap",
      "notes": [
        {
          "duration": 0.22604166666666714,
          "durationTicks": 217,
          "midi": 60,
          "name": "C4",
          "ticks": 46320,
          "time": 48.25,
          "velocity": 0.6614173228346457
        },
        {
          "duration": 0.18020833333333286,
          "durationTicks": 173,
          "midi": 60,
          "name": "C4",
          "ticks": 46800,
          "time": 48.75,
          "velocity": 0.6614173228346457
        },
        {
          "duration": 0.18333333333333002,
          "durationTicks": 176,
          "midi": 60,
          "name": "C4",
          "ticks": 47280,
          "time": 49.25,
          "velocity": 0.6614173228346457
        },
        {
          "duration": 0.20520833333333144,
          "durationTicks": 197,
          "midi": 60,
          "name": "C4",
          "ticks": 47760,
          "time": 49.75,
          "velocity": 0.6614173228346457
        },
        {
          "duration": 0.21666666666666856,
          "durationTicks": 208,
          "midi": 60,
          "name": "C4",
          "ticks": 48240,
          "time": 50.25,
          "velocity": 0.6850393700787402
        },
        {
          "duration": 0.1979166666666643,
          "durationTicks": 190,
          "midi": 60,
          "name": "C4",
          "ticks": 48720,
          "time": 50.75,
          "velocity": 0.6850393700787402
        },
        {
          "duration": 0.21041666666666714,
          "durationTicks": 202,
          "midi": 60,
          "name": "C4",
          "ticks": 49200,
          "time": 51.25,
          "velocity": 0.6850393700787402
        },
        {
          "duration": 0.22187499999999716,
          "durationTicks": 213,
          "midi": 60,
          "name": "C4",
          "ticks": 49680,
          "time": 51.75,
          "velocity": 0.6850393700787402
        }
      ],
      "endOfTrackTicks": 49893
    },
    {
      "channel": 0,
      "controlChanges": {},
      "pitchBends": [],
      "instrument": {
        "family": "piano",
        "name": "acoustic grand piano",
        "number": 0
      },
      "name": "Human Clap",
      "notes": [
        {
          "duration": 0.22604166666666714,
          "durationTicks": 217,
          "midi": 60,
          "name": "C4",
          "ticks": 46800,
          "time": 48.75,
          "velocity": 0.6614173228346457
        },
        {
          "duration": 0.18020833333333286,
          "durationTicks": 173,
          "midi": 60,
          "name": "C4",
          "ticks": 47280,
          "time": 49.25,
          "velocity": 0.6614173228346457
        },
        {
          "duration": 0.18333333333333002,
          "durationTicks": 176,
          "midi": 60,
          "name": "C4",
          "ticks": 47760,
          "time": 49.75,
          "velocity": 0.6614173228346457
        },
        {
          "duration": 0.20520833333333144,
          "durationTicks": 197,
          "midi": 60,
          "name": "C4",
          "ticks": 48240,
          "time": 50.25,
          "velocity": 0.6614173228346457
        },
        {
          "duration": 0.21666666666666856,
          "durationTicks": 208,
          "midi": 60,
          "name": "C4",
          "ticks": 48720,
          "time": 50.75,
          "velocity": 0.6850393700787402
        },
        {
          "duration": 0.1979166666666643,
          "durationTicks": 190,
          "midi": 60,
          "name": "C4",
          "ticks": 49200,
          "time": 51.25,
          "velocity": 0.6850393700787402
        },
        {
          "duration": 0.21041666666666714,
          "durationTicks": 202,
          "midi": 60,
          "name": "C4",
          "ticks": 49680,
          "time": 51.75,
          "velocity": 0.6850393700787402
        },
        {
          "duration": 0.22187499999999716,
          "durationTicks": 213,
          "midi": 60,
          "name": "C4",
          "ticks": 50160,
          "time": 52.25,
          "velocity": 0.6850393700787402
        }
      ],
      "endOfTrackTicks": 50373
    },
    {
      "channel": 0,
      "controlChanges": {},
      "pitchBends": [],
      "instrument": {
        "family": "piano",
        "name": "acoustic grand piano",
        "number": 0
      },
      "name": "Finn  -  Snap",
      "notes": [
        {
          "duration": 0.125,
          "durationTicks": 120,
          "midi": 39,
          "name": "D#2",
          "ticks": 21601,
          "time": 22.501041666666666,
          "velocity": 0.7244094488188977
        },
        {
          "duration": 0.125,
          "durationTicks": 120,
          "midi": 39,
          "name": "D#2",
          "ticks": 22561,
          "time": 23.501041666666666,
          "velocity": 0.7244094488188977
        },
        {
          "duration": 0.125,
          "durationTicks": 120,
          "midi": 39,
          "name": "D#2",
          "ticks": 23521,
          "time": 24.501041666666666,
          "velocity": 0.7244094488188977
        },
        {
          "duration": 0.125,
          "durationTicks": 120,
          "midi": 39,
          "name": "D#2",
          "ticks": 24481,
          "time": 25.501041666666666,
          "velocity": 0.7244094488188977
        }
      ],
      "endOfTrackTicks": 24960
    },
    {
      "channel": 0,
      "controlChanges": {},
      "pitchBends": [],
      "instrument": {
        "family": "piano",
        "name": "acoustic grand piano",
        "number": 0
      },
      "name": "Finn  -  Snap",
      "notes": [
        {
          "duration": 0.125,
          "durationTicks": 120,
          "midi": 39,
          "name": "D#2",
          "ticks": 25441,
          "time": 26.501041666666666,
          "velocity": 0.7244094488188977
        },
        {
          "duration": 0.125,
          "durationTicks": 120,
          "midi": 39,
          "name": "D#2",
          "ticks": 26401,
          "time": 27.501041666666666,
          "velocity": 0.7244094488188977
        },
        {
          "duration": 0.125,
          "durationTicks": 120,
          "midi": 39,
          "name": "D#2",
          "ticks": 27361,
          "time": 28.501041666666666,
          "velocity": 0.7244094488188977
        },
        {
          "duration": 0.125,
          "durationTicks": 120,
          "midi": 39,
          "name": "D#2",
          "ticks": 28321,
          "time": 29.501041666666666,
          "velocity": 0.7244094488188977
        }
      ],
      "endOfTrackTicks": 28441
    },
    {
      "channel": 0,
      "controlChanges": {},
      "pitchBends": [],
      "instrument": {
        "family": "piano",
        "name": "acoustic grand piano",
        "number": 0
      },
      "name": "Finn  -  Snap",
      "notes": [
        {
          "duration": 0.125,
          "durationTicks": 120,
          "midi": 39,
          "name": "D#2",
          "ticks": 29281,
          "time": 30.501041666666666,
          "velocity": 0.7244094488188977
        },
        {
          "duration": 0.125,
          "durationTicks": 120,
          "midi": 39,
          "name": "D#2",
          "ticks": 30241,
          "time": 31.501041666666666,
          "velocity": 0.7244094488188977
        },
        {
          "duration": 0.125,
          "durationTicks": 120,
          "midi": 39,
          "name": "D#2",
          "ticks": 31201,
          "time": 32.501041666666666,
          "velocity": 0.7244094488188977
        },
        {
          "duration": 0.125,
          "durationTicks": 120,
          "midi": 39,
          "name": "D#2",
          "ticks": 32161,
          "time": 33.501041666666666,
          "velocity": 0.7244094488188977
        }
      ],
      "endOfTrackTicks": 32281
    },
    {
      "channel": 0,
      "controlChanges": {},
      "pitchBends": [],
      "instrument": {
        "family": "piano",
        "name": "acoustic grand piano",
        "number": 0
      },
      "name": "Finn  -  Snap",
      "notes": [
        {
          "duration": 0.125,
          "durationTicks": 120,
          "midi": 39,
          "name": "D#2",
          "ticks": 33121,
          "time": 34.501041666666666,
          "velocity": 0.7244094488188977
        },
        {
          "duration": 0.125,
          "durationTicks": 120,
          "midi": 39,
          "name": "D#2",
          "ticks": 34081,
          "time": 35.501041666666666,
          "velocity": 0.7244094488188977
        },
        {
          "duration": 0.125,
          "durationTicks": 120,
          "midi": 39,
          "name": "D#2",
          "ticks": 35041,
          "time": 36.501041666666666,
          "velocity": 0.7244094488188977
        },
        {
          "duration": 0.125,
          "durationTicks": 120,
          "midi": 39,
          "name": "D#2",
          "ticks": 36001,
          "time": 37.501041666666666,
          "velocity": 0.7244094488188977
        }
      ],
      "endOfTrackTicks": 36121
    },
    {
      "channel": 0,
      "controlChanges": {},
      "pitchBends": [],
      "instrument": {
        "family": "piano",
        "name": "acoustic grand piano",
        "number": 0
      },
      "name": "Finn  -  Snap",
      "notes": [
        {
          "duration": 0.125,
          "durationTicks": 120,
          "midi": 39,
          "name": "D#2",
          "ticks": 34081,
          "time": 35.501041666666666,
          "velocity": 0.7244094488188977
        },
        {
          "duration": 0.125,
          "durationTicks": 120,
          "midi": 39,
          "name": "D#2",
          "ticks": 35041,
          "time": 36.501041666666666,
          "velocity": 0.7244094488188977
        },
        {
          "duration": 0.125,
          "durationTicks": 120,
          "midi": 39,
          "name": "D#2",
          "ticks": 36001,
          "time": 37.501041666666666,
          "velocity": 0.7244094488188977
        },
        {
          "duration": 0.125,
          "durationTicks": 120,
          "midi": 39,
          "name": "D#2",
          "ticks": 36961,
          "time": 38.501041666666666,
          "velocity": 0.7244094488188977
        }
      ],
      "endOfTrackTicks": 37081
    },
    {
      "channel": 0,
      "controlChanges": {},
      "pitchBends": [],
      "instrument": {
        "family": "piano",
        "name": "acoustic grand piano",
        "number": 0
      },
      "name": "Finn  -  Snap",
      "notes": [
        {
          "duration": 0.125,
          "durationTicks": 120,
          "midi": 39,
          "name": "D#2",
          "ticks": 35041,
          "time": 36.501041666666666,
          "velocity": 0.7244094488188977
        },
        {
          "duration": 0.125,
          "durationTicks": 120,
          "midi": 39,
          "name": "D#2",
          "ticks": 36001,
          "time": 37.501041666666666,
          "velocity": 0.7244094488188977
        },
        {
          "duration": 0.125,
          "durationTicks": 120,
          "midi": 39,
          "name": "D#2",
          "ticks": 36961,
          "time": 38.501041666666666,
          "velocity": 0.7244094488188977
        },
        {
          "duration": 0.125,
          "durationTicks": 120,
          "midi": 39,
          "name": "D#2",
          "ticks": 37921,
          "time": 39.501041666666666,
          "velocity": 0.7244094488188977
        }
      ],
      "endOfTrackTicks": 38041
    },
    {
      "channel": 0,
      "controlChanges": {},
      "pitchBends": [],
      "instrument": {
        "family": "piano",
        "name": "acoustic grand piano",
        "number": 0
      },
      "name": "Finn  -  Snap",
      "notes": [
        {
          "duration": 0.125,
          "durationTicks": 120,
          "midi": 39,
          "name": "D#2",
          "ticks": 36001,
          "time": 37.501041666666666,
          "velocity": 0.7244094488188977
        },
        {
          "duration": 0.125,
          "durationTicks": 120,
          "midi": 39,
          "name": "D#2",
          "ticks": 36961,
          "time": 38.501041666666666,
          "velocity": 0.7244094488188977
        },
        {
          "duration": 0.125,
          "durationTicks": 120,
          "midi": 39,
          "name": "D#2",
          "ticks": 37921,
          "time": 39.501041666666666,
          "velocity": 0.7244094488188977
        },
        {
          "duration": 0.125,
          "durationTicks": 120,
          "midi": 39,
          "name": "D#2",
          "ticks": 38881,
          "time": 40.501041666666666,
          "velocity": 0.7244094488188977
        }
      ],
      "endOfTrackTicks": 39001
    },
    {
      "channel": 0,
      "controlChanges": {},
      "pitchBends": [],
      "instrument": {
        "family": "piano",
        "name": "acoustic grand piano",
        "number": 0
      },
      "name": "Finn  -  Snap",
      "notes": [
        {
          "duration": 0.125,
          "durationTicks": 120,
          "midi": 39,
          "name": "D#2",
          "ticks": 36961,
          "time": 38.501041666666666,
          "velocity": 0.7244094488188977
        },
        {
          "duration": 0.125,
          "durationTicks": 120,
          "midi": 39,
          "name": "D#2",
          "ticks": 37921,
          "time": 39.501041666666666,
          "velocity": 0.7244094488188977
        },
        {
          "duration": 0.125,
          "durationTicks": 120,
          "midi": 39,
          "name": "D#2",
          "ticks": 38881,
          "time": 40.501041666666666,
          "velocity": 0.7244094488188977
        },
        {
          "duration": 0.125,
          "durationTicks": 120,
          "midi": 39,
          "name": "D#2",
          "ticks": 39841,
          "time": 41.501041666666666,
          "velocity": 0.7244094488188977
        }
      ],
      "endOfTrackTicks": 39961
    },
    {
      "channel": 0,
      "controlChanges": {},
      "pitchBends": [],
      "instrument": {
        "family": "piano",
        "name": "acoustic grand piano",
        "number": 0
      },
      "name": "Finn  -  Snap",
      "notes": [
        {
          "duration": 0.125,
          "durationTicks": 120,
          "midi": 39,
          "name": "D#2",
          "ticks": 37921,
          "time": 39.501041666666666,
          "velocity": 0.7244094488188977
        },
        {
          "duration": 0.125,
          "durationTicks": 120,
          "midi": 39,
          "name": "D#2",
          "ticks": 38881,
          "time": 40.501041666666666,
          "velocity": 0.7244094488188977
        },
        {
          "duration": 0.125,
          "durationTicks": 120,
          "midi": 39,
          "name": "D#2",
          "ticks": 39841,
          "time": 41.501041666666666,
          "velocity": 0.7244094488188977
        },
        {
          "duration": 0.125,
          "durationTicks": 120,
          "midi": 39,
          "name": "D#2",
          "ticks": 40801,
          "time": 42.501041666666666,
          "velocity": 0.7244094488188977
        }
      ],
      "endOfTrackTicks": 40921
    },
    {
      "channel": 0,
      "controlChanges": {},
      "pitchBends": [],
      "instrument": {
        "family": "piano",
        "name": "acoustic grand piano",
        "number": 0
      },
      "name": "Finn  -  Snap",
      "notes": [
        {
          "duration": 0.125,
          "durationTicks": 120,
          "midi": 39,
          "name": "D#2",
          "ticks": 38881,
          "time": 40.501041666666666,
          "velocity": 0.7244094488188977
        },
        {
          "duration": 0.125,
          "durationTicks": 120,
          "midi": 39,
          "name": "D#2",
          "ticks": 39841,
          "time": 41.501041666666666,
          "velocity": 0.7244094488188977
        },
        {
          "duration": 0.125,
          "durationTicks": 120,
          "midi": 39,
          "name": "D#2",
          "ticks": 40801,
          "time": 42.501041666666666,
          "velocity": 0.7244094488188977
        },
        {
          "duration": 0.125,
          "durationTicks": 120,
          "midi": 39,
          "name": "D#2",
          "ticks": 41761,
          "time": 43.501041666666666,
          "velocity": 0.7244094488188977
        }
      ],
      "endOfTrackTicks": 41881
    },
    {
      "channel": 0,
      "controlChanges": {},
      "pitchBends": [],
      "instrument": {
        "family": "piano",
        "name": "acoustic grand piano",
        "number": 0
      },
      "name": "Finn  -  Snap",
      "notes": [
        {
          "duration": 0.125,
          "durationTicks": 120,
          "midi": 39,
          "name": "D#2",
          "ticks": 39841,
          "time": 41.501041666666666,
          "velocity": 0.7244094488188977
        },
        {
          "duration": 0.125,
          "durationTicks": 120,
          "midi": 39,
          "name": "D#2",
          "ticks": 40801,
          "time": 42.501041666666666,
          "velocity": 0.7244094488188977
        },
        {
          "duration": 0.125,
          "durationTicks": 120,
          "midi": 39,
          "name": "D#2",
          "ticks": 41761,
          "time": 43.501041666666666,
          "velocity": 0.7244094488188977
        },
        {
          "duration": 0.125,
          "durationTicks": 120,
          "midi": 39,
          "name": "D#2",
          "ticks": 42721,
          "time": 44.501041666666666,
          "velocity": 0.7244094488188977
        }
      ],
      "endOfTrackTicks": 42841
    },
    {
      "channel": 0,
      "controlChanges": {},
      "pitchBends": [],
      "instrument": {
        "family": "piano",
        "name": "acoustic grand piano",
        "number": 0
      },
      "name": "Finn  -  Snap",
      "notes": [
        {
          "duration": 0.125,
          "durationTicks": 120,
          "midi": 39,
          "name": "D#2",
          "ticks": 40801,
          "time": 42.501041666666666,
          "velocity": 0.7244094488188977
        },
        {
          "duration": 0.125,
          "durationTicks": 120,
          "midi": 39,
          "name": "D#2",
          "ticks": 41761,
          "time": 43.501041666666666,
          "velocity": 0.7244094488188977
        },
        {
          "duration": 0.125,
          "durationTicks": 120,
          "midi": 39,
          "name": "D#2",
          "ticks": 42721,
          "time": 44.501041666666666,
          "velocity": 0.7244094488188977
        },
        {
          "duration": 0.125,
          "durationTicks": 120,
          "midi": 39,
          "name": "D#2",
          "ticks": 43681,
          "time": 45.501041666666666,
          "velocity": 0.7244094488188977
        }
      ],
      "endOfTrackTicks": 43801
    },
    {
      "channel": 0,
      "controlChanges": {},
      "pitchBends": [],
      "instrument": {
        "family": "piano",
        "name": "acoustic grand piano",
        "number": 0
      },
      "name": "Finn  -  Snap",
      "notes": [
        {
          "duration": 0.125,
          "durationTicks": 120,
          "midi": 39,
          "name": "D#2",
          "ticks": 41761,
          "time": 43.501041666666666,
          "velocity": 0.7244094488188977
        },
        {
          "duration": 0.125,
          "durationTicks": 120,
          "midi": 39,
          "name": "D#2",
          "ticks": 42721,
          "time": 44.501041666666666,
          "velocity": 0.7244094488188977
        },
        {
          "duration": 0.125,
          "durationTicks": 120,
          "midi": 39,
          "name": "D#2",
          "ticks": 43681,
          "time": 45.501041666666666,
          "velocity": 0.7244094488188977
        },
        {
          "duration": 0.125,
          "durationTicks": 120,
          "midi": 39,
          "name": "D#2",
          "ticks": 44641,
          "time": 46.501041666666666,
          "velocity": 0.7244094488188977
        }
      ],
      "endOfTrackTicks": 44761
    },
    {
      "channel": 0,
      "controlChanges": {},
      "pitchBends": [],
      "instrument": {
        "family": "piano",
        "name": "acoustic grand piano",
        "number": 0
      },
      "name": "Finn  -  Snap",
      "notes": [
        {
          "duration": 0.125,
          "durationTicks": 120,
          "midi": 39,
          "name": "D#2",
          "ticks": 42721,
          "time": 44.501041666666666,
          "velocity": 0.7244094488188977
        },
        {
          "duration": 0.125,
          "durationTicks": 120,
          "midi": 39,
          "name": "D#2",
          "ticks": 43681,
          "time": 45.501041666666666,
          "velocity": 0.7244094488188977
        },
        {
          "duration": 0.125,
          "durationTicks": 120,
          "midi": 39,
          "name": "D#2",
          "ticks": 44641,
          "time": 46.501041666666666,
          "velocity": 0.7244094488188977
        },
        {
          "duration": 0.125,
          "durationTicks": 120,
          "midi": 39,
          "name": "D#2",
          "ticks": 45601,
          "time": 47.501041666666666,
          "velocity": 0.7244094488188977
        }
      ],
      "endOfTrackTicks": 45721
    },
    {
      "channel": 0,
      "controlChanges": {},
      "pitchBends": [],
      "instrument": {
        "family": "piano",
        "name": "acoustic grand piano",
        "number": 0
      },
      "name": "Finn  -  Snap",
      "notes": [
        {
          "duration": 0.125,
          "durationTicks": 120,
          "midi": 39,
          "name": "D#2",
          "ticks": 43681,
          "time": 45.501041666666666,
          "velocity": 0.7244094488188977
        },
        {
          "duration": 0.125,
          "durationTicks": 120,
          "midi": 39,
          "name": "D#2",
          "ticks": 44641,
          "time": 46.501041666666666,
          "velocity": 0.7244094488188977
        },
        {
          "duration": 0.125,
          "durationTicks": 120,
          "midi": 39,
          "name": "D#2",
          "ticks": 45601,
          "time": 47.501041666666666,
          "velocity": 0.7244094488188977
        },
        {
          "duration": 0.125,
          "durationTicks": 120,
          "midi": 39,
          "name": "D#2",
          "ticks": 46561,
          "time": 48.501041666666666,
          "velocity": 0.7244094488188977
        }
      ],
      "endOfTrackTicks": 46681
    },
    {
      "channel": 0,
      "controlChanges": {},
      "pitchBends": [],
      "instrument": {
        "family": "piano",
        "name": "acoustic grand piano",
        "number": 0
      },
      "name": "Finn  -  Snap",
      "notes": [
        {
          "duration": 0.125,
          "durationTicks": 120,
          "midi": 39,
          "name": "D#2",
          "ticks": 44641,
          "time": 46.501041666666666,
          "velocity": 0.7244094488188977
        },
        {
          "duration": 0.125,
          "durationTicks": 120,
          "midi": 39,
          "name": "D#2",
          "ticks": 45601,
          "time": 47.501041666666666,
          "velocity": 0.7244094488188977
        },
        {
          "duration": 0.125,
          "durationTicks": 120,
          "midi": 39,
          "name": "D#2",
          "ticks": 46561,
          "time": 48.501041666666666,
          "velocity": 0.7244094488188977
        },
        {
          "duration": 0.125,
          "durationTicks": 120,
          "midi": 39,
          "name": "D#2",
          "ticks": 47521,
          "time": 49.501041666666666,
          "velocity": 0.7244094488188977
        }
      ],
      "endOfTrackTicks": 47641
    },
    {
      "channel": 0,
      "controlChanges": {},
      "pitchBends": [],
      "instrument": {
        "family": "piano",
        "name": "acoustic grand piano",
        "number": 0
      },
      "name": "Finn  -  Snap",
      "notes": [
        {
          "duration": 0.125,
          "durationTicks": 120,
          "midi": 39,
          "name": "D#2",
          "ticks": 45601,
          "time": 47.501041666666666,
          "velocity": 0.7244094488188977
        },
        {
          "duration": 0.125,
          "durationTicks": 120,
          "midi": 39,
          "name": "D#2",
          "ticks": 46561,
          "time": 48.501041666666666,
          "velocity": 0.7244094488188977
        },
        {
          "duration": 0.125,
          "durationTicks": 120,
          "midi": 39,
          "name": "D#2",
          "ticks": 47521,
          "time": 49.501041666666666,
          "velocity": 0.7244094488188977
        },
        {
          "duration": 0.125,
          "durationTicks": 120,
          "midi": 39,
          "name": "D#2",
          "ticks": 48481,
          "time": 50.501041666666666,
          "velocity": 0.7244094488188977
        }
      ],
      "endOfTrackTicks": 48601
    },
    {
      "channel": 0,
      "controlChanges": {},
      "pitchBends": [],
      "instrument": {
        "family": "piano",
        "name": "acoustic grand piano",
        "number": 0
      },
      "name": "Finn  -  Snap",
      "notes": [
        {
          "duration": 0.125,
          "durationTicks": 120,
          "midi": 39,
          "name": "D#2",
          "ticks": 46561,
          "time": 48.501041666666666,
          "velocity": 0.7244094488188977
        },
        {
          "duration": 0.125,
          "durationTicks": 120,
          "midi": 39,
          "name": "D#2",
          "ticks": 47521,
          "time": 49.501041666666666,
          "velocity": 0.7244094488188977
        },
        {
          "duration": 0.125,
          "durationTicks": 120,
          "midi": 39,
          "name": "D#2",
          "ticks": 48481,
          "time": 50.501041666666666,
          "velocity": 0.7244094488188977
        },
        {
          "duration": 0.125,
          "durationTicks": 120,
          "midi": 39,
          "name": "D#2",
          "ticks": 49441,
          "time": 51.501041666666666,
          "velocity": 0.7244094488188977
        }
      ],
      "endOfTrackTicks": 49561
    },
    {
      "channel": 0,
      "controlChanges": {},
      "pitchBends": [],
      "instrument": {
        "family": "piano",
        "name": "acoustic grand piano",
        "number": 0
      },
      "name": "Shaker 19",
      "notes": [
        {
          "duration": 1,
          "durationTicks": 960,
          "midi": 82,
          "name": "A#5",
          "ticks": 24960,
          "time": 26,
          "velocity": 0.9606299212598425
        },
        {
          "duration": 0.10000000000000142,
          "durationTicks": 96,
          "midi": 82,
          "name": "A#5",
          "ticks": 25920,
          "time": 27,
          "velocity": 0.8976377952755905
        },
        {
          "duration": 0.04791666666666572,
          "durationTicks": 46,
          "midi": 82,
          "name": "A#5",
          "ticks": 26040,
          "time": 27.125,
          "velocity": 0.5039370078740157
        },
        {
          "duration": 0.05624999999999858,
          "durationTicks": 54,
          "midi": 82,
          "name": "A#5",
          "ticks": 26160,
          "time": 27.25,
          "velocity": 0.4251968503937008
        },
        {
          "duration": 0.03750000000000142,
          "durationTicks": 36,
          "midi": 82,
          "name": "A#5",
          "ticks": 26280,
          "time": 27.375,
          "velocity": 0.4409448818897638
        },
        {
          "duration": 0.09479166666666572,
          "durationTicks": 91,
          "midi": 82,
          "name": "A#5",
          "ticks": 26400,
          "time": 27.5,
          "velocity": 0.937007874015748
        },
        {
          "duration": 0.05520833333333286,
          "durationTicks": 53,
          "midi": 82,
          "name": "A#5",
          "ticks": 26520,
          "time": 27.625,
          "velocity": 0.5669291338582677
        },
        {
          "duration": 0.06354166666666572,
          "durationTicks": 61,
          "midi": 82,
          "name": "A#5",
          "ticks": 26640,
          "time": 27.75,
          "velocity": 0.5511811023622047
        },
        {
          "duration": 0.06770833333333215,
          "durationTicks": 65,
          "midi": 82,
          "name": "A#5",
          "ticks": 26760,
          "time": 27.875,
          "velocity": 0.6614173228346457
        }
      ],
      "endOfTrackTicks": 26825
    },
    {
      "channel": 0,
      "controlChanges": {},
      "pitchBends": [],
      "instrument": {
        "family": "piano",
        "name": "acoustic grand piano",
        "number": 0
      },
      "name": "Shaker 19",
      "notes": [
        {
          "duration": 1,
          "durationTicks": 960,
          "midi": 82,
          "name": "A#5",
          "ticks": 25920,
          "time": 27,
          "velocity": 0.9606299212598425
        },
        {
          "duration": 0.10000000000000142,
          "durationTicks": 96,
          "midi": 82,
          "name": "A#5",
          "ticks": 26880,
          "time": 28,
          "velocity": 0.8976377952755905
        },
        {
          "duration": 0.04791666666666572,
          "durationTicks": 46,
          "midi": 82,
          "name": "A#5",
          "ticks": 27000,
          "time": 28.125,
          "velocity": 0.5039370078740157
        },
        {
          "duration": 0.05624999999999858,
          "durationTicks": 54,
          "midi": 82,
          "name": "A#5",
          "ticks": 27120,
          "time": 28.25,
          "velocity": 0.4251968503937008
        },
        {
          "duration": 0.03750000000000142,
          "durationTicks": 36,
          "midi": 82,
          "name": "A#5",
          "ticks": 27240,
          "time": 28.375,
          "velocity": 0.4409448818897638
        },
        {
          "duration": 0.09479166666666572,
          "durationTicks": 91,
          "midi": 82,
          "name": "A#5",
          "ticks": 27360,
          "time": 28.5,
          "velocity": 0.937007874015748
        },
        {
          "duration": 0.05520833333333286,
          "durationTicks": 53,
          "midi": 82,
          "name": "A#5",
          "ticks": 27480,
          "time": 28.625,
          "velocity": 0.5669291338582677
        },
        {
          "duration": 0.06354166666666572,
          "durationTicks": 61,
          "midi": 82,
          "name": "A#5",
          "ticks": 27600,
          "time": 28.75,
          "velocity": 0.5511811023622047
        },
        {
          "duration": 0.06770833333333215,
          "durationTicks": 65,
          "midi": 82,
          "name": "A#5",
          "ticks": 27720,
          "time": 28.875,
          "velocity": 0.6614173228346457
        }
      ],
      "endOfTrackTicks": 27785
    },
    {
      "channel": 0,
      "controlChanges": {},
      "pitchBends": [],
      "instrument": {
        "family": "piano",
        "name": "acoustic grand piano",
        "number": 0
      },
      "name": "Shaker 19",
      "notes": [
        {
          "duration": 1,
          "durationTicks": 960,
          "midi": 82,
          "name": "A#5",
          "ticks": 26880,
          "time": 28,
          "velocity": 0.9606299212598425
        },
        {
          "duration": 0.10000000000000142,
          "durationTicks": 96,
          "midi": 82,
          "name": "A#5",
          "ticks": 27840,
          "time": 29,
          "velocity": 0.8976377952755905
        },
        {
          "duration": 0.04791666666666572,
          "durationTicks": 46,
          "midi": 82,
          "name": "A#5",
          "ticks": 27960,
          "time": 29.125,
          "velocity": 0.5039370078740157
        },
        {
          "duration": 0.05624999999999858,
          "durationTicks": 54,
          "midi": 82,
          "name": "A#5",
          "ticks": 28080,
          "time": 29.25,
          "velocity": 0.4251968503937008
        },
        {
          "duration": 0.03750000000000142,
          "durationTicks": 36,
          "midi": 82,
          "name": "A#5",
          "ticks": 28200,
          "time": 29.375,
          "velocity": 0.4409448818897638
        },
        {
          "duration": 0.09479166666666572,
          "durationTicks": 91,
          "midi": 82,
          "name": "A#5",
          "ticks": 28320,
          "time": 29.5,
          "velocity": 0.937007874015748
        },
        {
          "duration": 0.05520833333333286,
          "durationTicks": 53,
          "midi": 82,
          "name": "A#5",
          "ticks": 28440,
          "time": 29.625,
          "velocity": 0.5669291338582677
        },
        {
          "duration": 0.06354166666666572,
          "durationTicks": 61,
          "midi": 82,
          "name": "A#5",
          "ticks": 28560,
          "time": 29.75,
          "velocity": 0.5511811023622047
        },
        {
          "duration": 0.06770833333333215,
          "durationTicks": 65,
          "midi": 82,
          "name": "A#5",
          "ticks": 28680,
          "time": 29.875,
          "velocity": 0.6614173228346457
        }
      ],
      "endOfTrackTicks": 28745
    },
    {
      "channel": 0,
      "controlChanges": {},
      "pitchBends": [],
      "instrument": {
        "family": "piano",
        "name": "acoustic grand piano",
        "number": 0
      },
      "name": "Shaker 19",
      "notes": [
        {
          "duration": 1,
          "durationTicks": 960,
          "midi": 82,
          "name": "A#5",
          "ticks": 27840,
          "time": 29,
          "velocity": 0.9606299212598425
        },
        {
          "duration": 0.10000000000000142,
          "durationTicks": 96,
          "midi": 82,
          "name": "A#5",
          "ticks": 28800,
          "time": 30,
          "velocity": 0.8976377952755905
        },
        {
          "duration": 0.04791666666666572,
          "durationTicks": 46,
          "midi": 82,
          "name": "A#5",
          "ticks": 28920,
          "time": 30.125,
          "velocity": 0.5039370078740157
        },
        {
          "duration": 0.05624999999999858,
          "durationTicks": 54,
          "midi": 82,
          "name": "A#5",
          "ticks": 29040,
          "time": 30.25,
          "velocity": 0.4251968503937008
        },
        {
          "duration": 0.03750000000000142,
          "durationTicks": 36,
          "midi": 82,
          "name": "A#5",
          "ticks": 29160,
          "time": 30.375,
          "velocity": 0.4409448818897638
        },
        {
          "duration": 0.09479166666666572,
          "durationTicks": 91,
          "midi": 82,
          "name": "A#5",
          "ticks": 29280,
          "time": 30.5,
          "velocity": 0.937007874015748
        },
        {
          "duration": 0.05520833333333286,
          "durationTicks": 53,
          "midi": 82,
          "name": "A#5",
          "ticks": 29400,
          "time": 30.625,
          "velocity": 0.5669291338582677
        },
        {
          "duration": 0.06354166666666572,
          "durationTicks": 61,
          "midi": 82,
          "name": "A#5",
          "ticks": 29520,
          "time": 30.75,
          "velocity": 0.5511811023622047
        },
        {
          "duration": 0.06770833333333215,
          "durationTicks": 65,
          "midi": 82,
          "name": "A#5",
          "ticks": 29640,
          "time": 30.875,
          "velocity": 0.6614173228346457
        }
      ],
      "endOfTrackTicks": 29705
    },
    {
      "channel": 0,
      "controlChanges": {},
      "pitchBends": [],
      "instrument": {
        "family": "piano",
        "name": "acoustic grand piano",
        "number": 0
      },
      "name": "Shaker 19",
      "notes": [
        {
          "duration": 1,
          "durationTicks": 960,
          "midi": 82,
          "name": "A#5",
          "ticks": 28800,
          "time": 30,
          "velocity": 0.9606299212598425
        },
        {
          "duration": 0.10000000000000142,
          "durationTicks": 96,
          "midi": 82,
          "name": "A#5",
          "ticks": 29760,
          "time": 31,
          "velocity": 0.8976377952755905
        },
        {
          "duration": 0.04791666666666572,
          "durationTicks": 46,
          "midi": 82,
          "name": "A#5",
          "ticks": 29880,
          "time": 31.125,
          "velocity": 0.5039370078740157
        },
        {
          "duration": 0.05624999999999858,
          "durationTicks": 54,
          "midi": 82,
          "name": "A#5",
          "ticks": 30000,
          "time": 31.25,
          "velocity": 0.4251968503937008
        },
        {
          "duration": 0.03750000000000142,
          "durationTicks": 36,
          "midi": 82,
          "name": "A#5",
          "ticks": 30120,
          "time": 31.375,
          "velocity": 0.4409448818897638
        },
        {
          "duration": 0.09479166666666572,
          "durationTicks": 91,
          "midi": 82,
          "name": "A#5",
          "ticks": 30240,
          "time": 31.5,
          "velocity": 0.937007874015748
        },
        {
          "duration": 0.05520833333333286,
          "durationTicks": 53,
          "midi": 82,
          "name": "A#5",
          "ticks": 30360,
          "time": 31.625,
          "velocity": 0.5669291338582677
        },
        {
          "duration": 0.06354166666666572,
          "durationTicks": 61,
          "midi": 82,
          "name": "A#5",
          "ticks": 30480,
          "time": 31.75,
          "velocity": 0.5511811023622047
        },
        {
          "duration": 0.06770833333333215,
          "durationTicks": 65,
          "midi": 82,
          "name": "A#5",
          "ticks": 30600,
          "time": 31.875,
          "velocity": 0.6614173228346457
        }
      ],
      "endOfTrackTicks": 30665
    },
    {
      "channel": 0,
      "controlChanges": {},
      "pitchBends": [],
      "instrument": {
        "family": "piano",
        "name": "acoustic grand piano",
        "number": 0
      },
      "name": "Shaker 19",
      "notes": [
        {
          "duration": 1,
          "durationTicks": 960,
          "midi": 82,
          "name": "A#5",
          "ticks": 29760,
          "time": 31,
          "velocity": 0.9606299212598425
        },
        {
          "duration": 0.10000000000000142,
          "durationTicks": 96,
          "midi": 82,
          "name": "A#5",
          "ticks": 30720,
          "time": 32,
          "velocity": 0.8976377952755905
        },
        {
          "duration": 0.04791666666666572,
          "durationTicks": 46,
          "midi": 82,
          "name": "A#5",
          "ticks": 30840,
          "time": 32.125,
          "velocity": 0.5039370078740157
        },
        {
          "duration": 0.05624999999999858,
          "durationTicks": 54,
          "midi": 82,
          "name": "A#5",
          "ticks": 30960,
          "time": 32.25,
          "velocity": 0.4251968503937008
        },
        {
          "duration": 0.03750000000000142,
          "durationTicks": 36,
          "midi": 82,
          "name": "A#5",
          "ticks": 31080,
          "time": 32.375,
          "velocity": 0.4409448818897638
        },
        {
          "duration": 0.09479166666666572,
          "durationTicks": 91,
          "midi": 82,
          "name": "A#5",
          "ticks": 31200,
          "time": 32.5,
          "velocity": 0.937007874015748
        },
        {
          "duration": 0.05520833333333286,
          "durationTicks": 53,
          "midi": 82,
          "name": "A#5",
          "ticks": 31320,
          "time": 32.625,
          "velocity": 0.5669291338582677
        },
        {
          "duration": 0.06354166666666572,
          "durationTicks": 61,
          "midi": 82,
          "name": "A#5",
          "ticks": 31440,
          "time": 32.75,
          "velocity": 0.5511811023622047
        },
        {
          "duration": 0.0677083333333357,
          "durationTicks": 65,
          "midi": 82,
          "name": "A#5",
          "ticks": 31560,
          "time": 32.875,
          "velocity": 0.6614173228346457
        }
      ],
      "endOfTrackTicks": 31625
    },
    {
      "channel": 0,
      "controlChanges": {},
      "pitchBends": [],
      "instrument": {
        "family": "piano",
        "name": "acoustic grand piano",
        "number": 0
      },
      "name": "Shaker 19",
      "notes": [
        {
          "duration": 1,
          "durationTicks": 960,
          "midi": 82,
          "name": "A#5",
          "ticks": 30720,
          "time": 32,
          "velocity": 0.9606299212598425
        },
        {
          "duration": 0.10000000000000142,
          "durationTicks": 96,
          "midi": 82,
          "name": "A#5",
          "ticks": 31680,
          "time": 33,
          "velocity": 0.8976377952755905
        },
        {
          "duration": 0.04791666666666572,
          "durationTicks": 46,
          "midi": 82,
          "name": "A#5",
          "ticks": 31800,
          "time": 33.125,
          "velocity": 0.5039370078740157
        },
        {
          "duration": 0.05624999999999858,
          "durationTicks": 54,
          "midi": 82,
          "name": "A#5",
          "ticks": 31920,
          "time": 33.25,
          "velocity": 0.4251968503937008
        },
        {
          "duration": 0.03750000000000142,
          "durationTicks": 36,
          "midi": 82,
          "name": "A#5",
          "ticks": 32040,
          "time": 33.375,
          "velocity": 0.4409448818897638
        },
        {
          "duration": 0.09479166666666572,
          "durationTicks": 91,
          "midi": 82,
          "name": "A#5",
          "ticks": 32160,
          "time": 33.5,
          "velocity": 0.937007874015748
        },
        {
          "duration": 0.05520833333333286,
          "durationTicks": 53,
          "midi": 82,
          "name": "A#5",
          "ticks": 32280,
          "time": 33.625,
          "velocity": 0.5669291338582677
        },
        {
          "duration": 0.06354166666666572,
          "durationTicks": 61,
          "midi": 82,
          "name": "A#5",
          "ticks": 32400,
          "time": 33.75,
          "velocity": 0.5511811023622047
        },
        {
          "duration": 0.0677083333333357,
          "durationTicks": 65,
          "midi": 82,
          "name": "A#5",
          "ticks": 32520,
          "time": 33.875,
          "velocity": 0.6614173228346457
        }
      ],
      "endOfTrackTicks": 32585
    },
    {
      "channel": 0,
      "controlChanges": {},
      "pitchBends": [],
      "instrument": {
        "family": "piano",
        "name": "acoustic grand piano",
        "number": 0
      },
      "name": "Shaker 19",
      "notes": [
        {
          "duration": 1,
          "durationTicks": 960,
          "midi": 82,
          "name": "A#5",
          "ticks": 32640,
          "time": 34,
          "velocity": 0.9606299212598425
        },
        {
          "duration": 0.10000000000000142,
          "durationTicks": 96,
          "midi": 82,
          "name": "A#5",
          "ticks": 33600,
          "time": 35,
          "velocity": 0.8976377952755905
        },
        {
          "duration": 0.04791666666666572,
          "durationTicks": 46,
          "midi": 82,
          "name": "A#5",
          "ticks": 33720,
          "time": 35.125,
          "velocity": 0.5039370078740157
        },
        {
          "duration": 0.05624999999999858,
          "durationTicks": 54,
          "midi": 82,
          "name": "A#5",
          "ticks": 33840,
          "time": 35.25,
          "velocity": 0.4251968503937008
        },
        {
          "duration": 0.03750000000000142,
          "durationTicks": 36,
          "midi": 82,
          "name": "A#5",
          "ticks": 33960,
          "time": 35.375,
          "velocity": 0.4409448818897638
        },
        {
          "duration": 0.09479166666666572,
          "durationTicks": 91,
          "midi": 82,
          "name": "A#5",
          "ticks": 34080,
          "time": 35.5,
          "velocity": 0.937007874015748
        },
        {
          "duration": 0.05520833333333286,
          "durationTicks": 53,
          "midi": 82,
          "name": "A#5",
          "ticks": 34200,
          "time": 35.625,
          "velocity": 0.5669291338582677
        },
        {
          "duration": 0.06354166666666572,
          "durationTicks": 61,
          "midi": 82,
          "name": "A#5",
          "ticks": 34320,
          "time": 35.75,
          "velocity": 0.5511811023622047
        },
        {
          "duration": 0.0677083333333357,
          "durationTicks": 65,
          "midi": 82,
          "name": "A#5",
          "ticks": 34440,
          "time": 35.875,
          "velocity": 0.6614173228346457
        }
      ],
      "endOfTrackTicks": 34505
    },
    {
      "channel": 0,
      "controlChanges": {},
      "pitchBends": [],
      "instrument": {
        "family": "piano",
        "name": "acoustic grand piano",
        "number": 0
      },
      "name": "Shaker 19",
      "notes": [
        {
          "duration": 1,
          "durationTicks": 960,
          "midi": 82,
          "name": "A#5",
          "ticks": 33600,
          "time": 35,
          "velocity": 0.9606299212598425
        },
        {
          "duration": 0.10000000000000142,
          "durationTicks": 96,
          "midi": 82,
          "name": "A#5",
          "ticks": 34560,
          "time": 36,
          "velocity": 0.8976377952755905
        },
        {
          "duration": 0.04791666666666572,
          "durationTicks": 46,
          "midi": 82,
          "name": "A#5",
          "ticks": 34680,
          "time": 36.125,
          "velocity": 0.5039370078740157
        },
        {
          "duration": 0.05624999999999858,
          "durationTicks": 54,
          "midi": 82,
          "name": "A#5",
          "ticks": 34800,
          "time": 36.25,
          "velocity": 0.4251968503937008
        },
        {
          "duration": 0.03750000000000142,
          "durationTicks": 36,
          "midi": 82,
          "name": "A#5",
          "ticks": 34920,
          "time": 36.375,
          "velocity": 0.4409448818897638
        },
        {
          "duration": 0.09479166666666572,
          "durationTicks": 91,
          "midi": 82,
          "name": "A#5",
          "ticks": 35040,
          "time": 36.5,
          "velocity": 0.937007874015748
        },
        {
          "duration": 0.05520833333333286,
          "durationTicks": 53,
          "midi": 82,
          "name": "A#5",
          "ticks": 35160,
          "time": 36.625,
          "velocity": 0.5669291338582677
        },
        {
          "duration": 0.06354166666666572,
          "durationTicks": 61,
          "midi": 82,
          "name": "A#5",
          "ticks": 35280,
          "time": 36.75,
          "velocity": 0.5511811023622047
        },
        {
          "duration": 0.0677083333333357,
          "durationTicks": 65,
          "midi": 82,
          "name": "A#5",
          "ticks": 35400,
          "time": 36.875,
          "velocity": 0.6614173228346457
        }
      ],
      "endOfTrackTicks": 35465
    },
    {
      "channel": 0,
      "controlChanges": {},
      "pitchBends": [],
      "instrument": {
        "family": "piano",
        "name": "acoustic grand piano",
        "number": 0
      },
      "name": "Shaker 19",
      "notes": [
        {
          "duration": 1,
          "durationTicks": 960,
          "midi": 82,
          "name": "A#5",
          "ticks": 34560,
          "time": 36,
          "velocity": 0.9606299212598425
        },
        {
          "duration": 0.10000000000000142,
          "durationTicks": 96,
          "midi": 82,
          "name": "A#5",
          "ticks": 35520,
          "time": 37,
          "velocity": 0.8976377952755905
        },
        {
          "duration": 0.04791666666666572,
          "durationTicks": 46,
          "midi": 82,
          "name": "A#5",
          "ticks": 35640,
          "time": 37.125,
          "velocity": 0.5039370078740157
        },
        {
          "duration": 0.05624999999999858,
          "durationTicks": 54,
          "midi": 82,
          "name": "A#5",
          "ticks": 35760,
          "time": 37.25,
          "velocity": 0.4251968503937008
        },
        {
          "duration": 0.03750000000000142,
          "durationTicks": 36,
          "midi": 82,
          "name": "A#5",
          "ticks": 35880,
          "time": 37.375,
          "velocity": 0.4409448818897638
        },
        {
          "duration": 0.09479166666666572,
          "durationTicks": 91,
          "midi": 82,
          "name": "A#5",
          "ticks": 36000,
          "time": 37.5,
          "velocity": 0.937007874015748
        },
        {
          "duration": 0.05520833333333286,
          "durationTicks": 53,
          "midi": 82,
          "name": "A#5",
          "ticks": 36120,
          "time": 37.625,
          "velocity": 0.5669291338582677
        },
        {
          "duration": 0.06354166666666572,
          "durationTicks": 61,
          "midi": 82,
          "name": "A#5",
          "ticks": 36240,
          "time": 37.75,
          "velocity": 0.5511811023622047
        },
        {
          "duration": 0.0677083333333357,
          "durationTicks": 65,
          "midi": 82,
          "name": "A#5",
          "ticks": 36360,
          "time": 37.875,
          "velocity": 0.6614173228346457
        }
      ],
      "endOfTrackTicks": 36425
    },
    {
      "channel": 0,
      "controlChanges": {},
      "pitchBends": [],
      "instrument": {
        "family": "piano",
        "name": "acoustic grand piano",
        "number": 0
      },
      "name": "Shaker 19",
      "notes": [
        {
          "duration": 1,
          "durationTicks": 960,
          "midi": 82,
          "name": "A#5",
          "ticks": 35520,
          "time": 37,
          "velocity": 0.9606299212598425
        },
        {
          "duration": 0.10000000000000142,
          "durationTicks": 96,
          "midi": 82,
          "name": "A#5",
          "ticks": 36480,
          "time": 38,
          "velocity": 0.8976377952755905
        },
        {
          "duration": 0.04791666666666572,
          "durationTicks": 46,
          "midi": 82,
          "name": "A#5",
          "ticks": 36600,
          "time": 38.125,
          "velocity": 0.5039370078740157
        },
        {
          "duration": 0.05624999999999858,
          "durationTicks": 54,
          "midi": 82,
          "name": "A#5",
          "ticks": 36720,
          "time": 38.25,
          "velocity": 0.4251968503937008
        },
        {
          "duration": 0.03750000000000142,
          "durationTicks": 36,
          "midi": 82,
          "name": "A#5",
          "ticks": 36840,
          "time": 38.375,
          "velocity": 0.4409448818897638
        },
        {
          "duration": 0.09479166666666572,
          "durationTicks": 91,
          "midi": 82,
          "name": "A#5",
          "ticks": 36960,
          "time": 38.5,
          "velocity": 0.937007874015748
        },
        {
          "duration": 0.05520833333333286,
          "durationTicks": 53,
          "midi": 82,
          "name": "A#5",
          "ticks": 37080,
          "time": 38.625,
          "velocity": 0.5669291338582677
        },
        {
          "duration": 0.06354166666666572,
          "durationTicks": 61,
          "midi": 82,
          "name": "A#5",
          "ticks": 37200,
          "time": 38.75,
          "velocity": 0.5511811023622047
        },
        {
          "duration": 0.0677083333333357,
          "durationTicks": 65,
          "midi": 82,
          "name": "A#5",
          "ticks": 37320,
          "time": 38.875,
          "velocity": 0.6614173228346457
        }
      ],
      "endOfTrackTicks": 37385
    },
    {
      "channel": 0,
      "controlChanges": {},
      "pitchBends": [],
      "instrument": {
        "family": "piano",
        "name": "acoustic grand piano",
        "number": 0
      },
      "name": "Shaker 19",
      "notes": [
        {
          "duration": 1,
          "durationTicks": 960,
          "midi": 82,
          "name": "A#5",
          "ticks": 36480,
          "time": 38,
          "velocity": 0.9606299212598425
        },
        {
          "duration": 0.10000000000000142,
          "durationTicks": 96,
          "midi": 82,
          "name": "A#5",
          "ticks": 37440,
          "time": 39,
          "velocity": 0.8976377952755905
        },
        {
          "duration": 0.04791666666666572,
          "durationTicks": 46,
          "midi": 82,
          "name": "A#5",
          "ticks": 37560,
          "time": 39.125,
          "velocity": 0.5039370078740157
        },
        {
          "duration": 0.05624999999999858,
          "durationTicks": 54,
          "midi": 82,
          "name": "A#5",
          "ticks": 37680,
          "time": 39.25,
          "velocity": 0.4251968503937008
        },
        {
          "duration": 0.03750000000000142,
          "durationTicks": 36,
          "midi": 82,
          "name": "A#5",
          "ticks": 37800,
          "time": 39.375,
          "velocity": 0.4409448818897638
        },
        {
          "duration": 0.09479166666666572,
          "durationTicks": 91,
          "midi": 82,
          "name": "A#5",
          "ticks": 37920,
          "time": 39.5,
          "velocity": 0.937007874015748
        },
        {
          "duration": 0.05520833333333286,
          "durationTicks": 53,
          "midi": 82,
          "name": "A#5",
          "ticks": 38040,
          "time": 39.625,
          "velocity": 0.5669291338582677
        },
        {
          "duration": 0.06354166666666572,
          "durationTicks": 61,
          "midi": 82,
          "name": "A#5",
          "ticks": 38160,
          "time": 39.75,
          "velocity": 0.5511811023622047
        },
        {
          "duration": 0.0677083333333357,
          "durationTicks": 65,
          "midi": 82,
          "name": "A#5",
          "ticks": 38280,
          "time": 39.875,
          "velocity": 0.6614173228346457
        }
      ],
      "endOfTrackTicks": 38345
    },
    {
      "channel": 0,
      "controlChanges": {},
      "pitchBends": [],
      "instrument": {
        "family": "piano",
        "name": "acoustic grand piano",
        "number": 0
      },
      "name": "Shaker 19",
      "notes": [
        {
          "duration": 1,
          "durationTicks": 960,
          "midi": 82,
          "name": "A#5",
          "ticks": 37440,
          "time": 39,
          "velocity": 0.9606299212598425
        },
        {
          "duration": 0.10000000000000142,
          "durationTicks": 96,
          "midi": 82,
          "name": "A#5",
          "ticks": 38400,
          "time": 40,
          "velocity": 0.8976377952755905
        },
        {
          "duration": 0.04791666666666572,
          "durationTicks": 46,
          "midi": 82,
          "name": "A#5",
          "ticks": 38520,
          "time": 40.125,
          "velocity": 0.5039370078740157
        },
        {
          "duration": 0.05624999999999858,
          "durationTicks": 54,
          "midi": 82,
          "name": "A#5",
          "ticks": 38640,
          "time": 40.25,
          "velocity": 0.4251968503937008
        },
        {
          "duration": 0.03750000000000142,
          "durationTicks": 36,
          "midi": 82,
          "name": "A#5",
          "ticks": 38760,
          "time": 40.375,
          "velocity": 0.4409448818897638
        },
        {
          "duration": 0.09479166666666572,
          "durationTicks": 91,
          "midi": 82,
          "name": "A#5",
          "ticks": 38880,
          "time": 40.5,
          "velocity": 0.937007874015748
        },
        {
          "duration": 0.05520833333333286,
          "durationTicks": 53,
          "midi": 82,
          "name": "A#5",
          "ticks": 39000,
          "time": 40.625,
          "velocity": 0.5669291338582677
        },
        {
          "duration": 0.06354166666666572,
          "durationTicks": 61,
          "midi": 82,
          "name": "A#5",
          "ticks": 39120,
          "time": 40.75,
          "velocity": 0.5511811023622047
        },
        {
          "duration": 0.0677083333333357,
          "durationTicks": 65,
          "midi": 82,
          "name": "A#5",
          "ticks": 39240,
          "time": 40.875,
          "velocity": 0.6614173228346457
        }
      ],
      "endOfTrackTicks": 39305
    },
    {
      "channel": 0,
      "controlChanges": {},
      "pitchBends": [],
      "instrument": {
        "family": "piano",
        "name": "acoustic grand piano",
        "number": 0
      },
      "name": "Shaker 19",
      "notes": [
        {
          "duration": 1,
          "durationTicks": 960,
          "midi": 82,
          "name": "A#5",
          "ticks": 38400,
          "time": 40,
          "velocity": 0.9606299212598425
        },
        {
          "duration": 0.10000000000000142,
          "durationTicks": 96,
          "midi": 82,
          "name": "A#5",
          "ticks": 39360,
          "time": 41,
          "velocity": 0.8976377952755905
        },
        {
          "duration": 0.04791666666666572,
          "durationTicks": 46,
          "midi": 82,
          "name": "A#5",
          "ticks": 39480,
          "time": 41.125,
          "velocity": 0.5039370078740157
        },
        {
          "duration": 0.05624999999999858,
          "durationTicks": 54,
          "midi": 82,
          "name": "A#5",
          "ticks": 39600,
          "time": 41.25,
          "velocity": 0.4251968503937008
        },
        {
          "duration": 0.03750000000000142,
          "durationTicks": 36,
          "midi": 82,
          "name": "A#5",
          "ticks": 39720,
          "time": 41.375,
          "velocity": 0.4409448818897638
        },
        {
          "duration": 0.09479166666666572,
          "durationTicks": 91,
          "midi": 82,
          "name": "A#5",
          "ticks": 39840,
          "time": 41.5,
          "velocity": 0.937007874015748
        },
        {
          "duration": 0.05520833333333286,
          "durationTicks": 53,
          "midi": 82,
          "name": "A#5",
          "ticks": 39960,
          "time": 41.625,
          "velocity": 0.5669291338582677
        },
        {
          "duration": 0.06354166666666572,
          "durationTicks": 61,
          "midi": 82,
          "name": "A#5",
          "ticks": 40080,
          "time": 41.75,
          "velocity": 0.5511811023622047
        },
        {
          "duration": 0.0677083333333357,
          "durationTicks": 65,
          "midi": 82,
          "name": "A#5",
          "ticks": 40200,
          "time": 41.875,
          "velocity": 0.6614173228346457
        }
      ],
      "endOfTrackTicks": 40265
    },
    {
      "channel": 0,
      "controlChanges": {},
      "pitchBends": [],
      "instrument": {
        "family": "piano",
        "name": "acoustic grand piano",
        "number": 0
      },
      "name": "Shaker 19",
      "notes": [
        {
          "duration": 1,
          "durationTicks": 960,
          "midi": 82,
          "name": "A#5",
          "ticks": 39360,
          "time": 41,
          "velocity": 0.9606299212598425
        },
        {
          "duration": 0.10000000000000142,
          "durationTicks": 96,
          "midi": 82,
          "name": "A#5",
          "ticks": 40320,
          "time": 42,
          "velocity": 0.8976377952755905
        },
        {
          "duration": 0.04791666666666572,
          "durationTicks": 46,
          "midi": 82,
          "name": "A#5",
          "ticks": 40440,
          "time": 42.125,
          "velocity": 0.5039370078740157
        },
        {
          "duration": 0.05624999999999858,
          "durationTicks": 54,
          "midi": 82,
          "name": "A#5",
          "ticks": 40560,
          "time": 42.25,
          "velocity": 0.4251968503937008
        },
        {
          "duration": 0.03750000000000142,
          "durationTicks": 36,
          "midi": 82,
          "name": "A#5",
          "ticks": 40680,
          "time": 42.375,
          "velocity": 0.4409448818897638
        },
        {
          "duration": 0.09479166666666572,
          "durationTicks": 91,
          "midi": 82,
          "name": "A#5",
          "ticks": 40800,
          "time": 42.5,
          "velocity": 0.937007874015748
        },
        {
          "duration": 0.05520833333333286,
          "durationTicks": 53,
          "midi": 82,
          "name": "A#5",
          "ticks": 40920,
          "time": 42.625,
          "velocity": 0.5669291338582677
        },
        {
          "duration": 0.06354166666666572,
          "durationTicks": 61,
          "midi": 82,
          "name": "A#5",
          "ticks": 41040,
          "time": 42.75,
          "velocity": 0.5511811023622047
        },
        {
          "duration": 0.0677083333333357,
          "durationTicks": 65,
          "midi": 82,
          "name": "A#5",
          "ticks": 41160,
          "time": 42.875,
          "velocity": 0.6614173228346457
        }
      ],
      "endOfTrackTicks": 41225
    },
    {
      "channel": 0,
      "controlChanges": {},
      "pitchBends": [],
      "instrument": {
        "family": "piano",
        "name": "acoustic grand piano",
        "number": 0
      },
      "name": "Shaker 19",
      "notes": [
        {
          "duration": 1,
          "durationTicks": 960,
          "midi": 82,
          "name": "A#5",
          "ticks": 40320,
          "time": 42,
          "velocity": 0.9606299212598425
        },
        {
          "duration": 0.10000000000000142,
          "durationTicks": 96,
          "midi": 82,
          "name": "A#5",
          "ticks": 41280,
          "time": 43,
          "velocity": 0.8976377952755905
        },
        {
          "duration": 0.04791666666666572,
          "durationTicks": 46,
          "midi": 82,
          "name": "A#5",
          "ticks": 41400,
          "time": 43.125,
          "velocity": 0.5039370078740157
        },
        {
          "duration": 0.05624999999999858,
          "durationTicks": 54,
          "midi": 82,
          "name": "A#5",
          "ticks": 41520,
          "time": 43.25,
          "velocity": 0.4251968503937008
        },
        {
          "duration": 0.03750000000000142,
          "durationTicks": 36,
          "midi": 82,
          "name": "A#5",
          "ticks": 41640,
          "time": 43.375,
          "velocity": 0.4409448818897638
        },
        {
          "duration": 0.09479166666666572,
          "durationTicks": 91,
          "midi": 82,
          "name": "A#5",
          "ticks": 41760,
          "time": 43.5,
          "velocity": 0.937007874015748
        },
        {
          "duration": 0.05520833333333286,
          "durationTicks": 53,
          "midi": 82,
          "name": "A#5",
          "ticks": 41880,
          "time": 43.625,
          "velocity": 0.5669291338582677
        },
        {
          "duration": 0.06354166666666572,
          "durationTicks": 61,
          "midi": 82,
          "name": "A#5",
          "ticks": 42000,
          "time": 43.75,
          "velocity": 0.5511811023622047
        },
        {
          "duration": 0.0677083333333357,
          "durationTicks": 65,
          "midi": 82,
          "name": "A#5",
          "ticks": 42120,
          "time": 43.875,
          "velocity": 0.6614173228346457
        }
      ],
      "endOfTrackTicks": 42185
    },
    {
      "channel": 0,
      "controlChanges": {},
      "pitchBends": [],
      "instrument": {
        "family": "piano",
        "name": "acoustic grand piano",
        "number": 0
      },
      "name": "Shaker 19",
      "notes": [
        {
          "duration": 1,
          "durationTicks": 960,
          "midi": 82,
          "name": "A#5",
          "ticks": 41280,
          "time": 43,
          "velocity": 0.9606299212598425
        },
        {
          "duration": 0.10000000000000142,
          "durationTicks": 96,
          "midi": 82,
          "name": "A#5",
          "ticks": 42240,
          "time": 44,
          "velocity": 0.8976377952755905
        },
        {
          "duration": 0.04791666666666572,
          "durationTicks": 46,
          "midi": 82,
          "name": "A#5",
          "ticks": 42360,
          "time": 44.125,
          "velocity": 0.5039370078740157
        },
        {
          "duration": 0.05624999999999858,
          "durationTicks": 54,
          "midi": 82,
          "name": "A#5",
          "ticks": 42480,
          "time": 44.25,
          "velocity": 0.4251968503937008
        },
        {
          "duration": 0.03750000000000142,
          "durationTicks": 36,
          "midi": 82,
          "name": "A#5",
          "ticks": 42600,
          "time": 44.375,
          "velocity": 0.4409448818897638
        },
        {
          "duration": 0.09479166666666572,
          "durationTicks": 91,
          "midi": 82,
          "name": "A#5",
          "ticks": 42720,
          "time": 44.5,
          "velocity": 0.937007874015748
        },
        {
          "duration": 0.05520833333333286,
          "durationTicks": 53,
          "midi": 82,
          "name": "A#5",
          "ticks": 42840,
          "time": 44.625,
          "velocity": 0.5669291338582677
        },
        {
          "duration": 0.06354166666666572,
          "durationTicks": 61,
          "midi": 82,
          "name": "A#5",
          "ticks": 42960,
          "time": 44.75,
          "velocity": 0.5511811023622047
        },
        {
          "duration": 0.0677083333333357,
          "durationTicks": 65,
          "midi": 82,
          "name": "A#5",
          "ticks": 43080,
          "time": 44.875,
          "velocity": 0.6614173228346457
        }
      ],
      "endOfTrackTicks": 43145
    },
    {
      "channel": 0,
      "controlChanges": {},
      "pitchBends": [],
      "instrument": {
        "family": "piano",
        "name": "acoustic grand piano",
        "number": 0
      },
      "name": "Shaker 19",
      "notes": [
        {
          "duration": 1,
          "durationTicks": 960,
          "midi": 82,
          "name": "A#5",
          "ticks": 42240,
          "time": 44,
          "velocity": 0.9606299212598425
        },
        {
          "duration": 0.10000000000000142,
          "durationTicks": 96,
          "midi": 82,
          "name": "A#5",
          "ticks": 43200,
          "time": 45,
          "velocity": 0.8976377952755905
        },
        {
          "duration": 0.04791666666666572,
          "durationTicks": 46,
          "midi": 82,
          "name": "A#5",
          "ticks": 43320,
          "time": 45.125,
          "velocity": 0.5039370078740157
        },
        {
          "duration": 0.05624999999999858,
          "durationTicks": 54,
          "midi": 82,
          "name": "A#5",
          "ticks": 43440,
          "time": 45.25,
          "velocity": 0.4251968503937008
        },
        {
          "duration": 0.03750000000000142,
          "durationTicks": 36,
          "midi": 82,
          "name": "A#5",
          "ticks": 43560,
          "time": 45.375,
          "velocity": 0.4409448818897638
        },
        {
          "duration": 0.09479166666666572,
          "durationTicks": 91,
          "midi": 82,
          "name": "A#5",
          "ticks": 43680,
          "time": 45.5,
          "velocity": 0.937007874015748
        },
        {
          "duration": 0.05520833333333286,
          "durationTicks": 53,
          "midi": 82,
          "name": "A#5",
          "ticks": 43800,
          "time": 45.625,
          "velocity": 0.5669291338582677
        },
        {
          "duration": 0.06354166666666572,
          "durationTicks": 61,
          "midi": 82,
          "name": "A#5",
          "ticks": 43920,
          "time": 45.75,
          "velocity": 0.5511811023622047
        },
        {
          "duration": 0.0677083333333357,
          "durationTicks": 65,
          "midi": 82,
          "name": "A#5",
          "ticks": 44040,
          "time": 45.875,
          "velocity": 0.6614173228346457
        }
      ],
      "endOfTrackTicks": 44105
    },
    {
      "channel": 0,
      "controlChanges": {},
      "pitchBends": [],
      "instrument": {
        "family": "piano",
        "name": "acoustic grand piano",
        "number": 0
      },
      "name": "Shaker 19",
      "notes": [
        {
          "duration": 1,
          "durationTicks": 960,
          "midi": 82,
          "name": "A#5",
          "ticks": 43200,
          "time": 45,
          "velocity": 0.9606299212598425
        },
        {
          "duration": 0.10000000000000142,
          "durationTicks": 96,
          "midi": 82,
          "name": "A#5",
          "ticks": 44160,
          "time": 46,
          "velocity": 0.8976377952755905
        },
        {
          "duration": 0.04791666666666572,
          "durationTicks": 46,
          "midi": 82,
          "name": "A#5",
          "ticks": 44280,
          "time": 46.125,
          "velocity": 0.5039370078740157
        },
        {
          "duration": 0.05624999999999858,
          "durationTicks": 54,
          "midi": 82,
          "name": "A#5",
          "ticks": 44400,
          "time": 46.25,
          "velocity": 0.4251968503937008
        },
        {
          "duration": 0.03750000000000142,
          "durationTicks": 36,
          "midi": 82,
          "name": "A#5",
          "ticks": 44520,
          "time": 46.375,
          "velocity": 0.4409448818897638
        },
        {
          "duration": 0.09479166666666572,
          "durationTicks": 91,
          "midi": 82,
          "name": "A#5",
          "ticks": 44640,
          "time": 46.5,
          "velocity": 0.937007874015748
        },
        {
          "duration": 0.05520833333333286,
          "durationTicks": 53,
          "midi": 82,
          "name": "A#5",
          "ticks": 44760,
          "time": 46.625,
          "velocity": 0.5669291338582677
        },
        {
          "duration": 0.06354166666666572,
          "durationTicks": 61,
          "midi": 82,
          "name": "A#5",
          "ticks": 44880,
          "time": 46.75,
          "velocity": 0.5511811023622047
        },
        {
          "duration": 0.0677083333333357,
          "durationTicks": 65,
          "midi": 82,
          "name": "A#5",
          "ticks": 45000,
          "time": 46.875,
          "velocity": 0.6614173228346457
        }
      ],
      "endOfTrackTicks": 45065
    },
    {
      "channel": 0,
      "controlChanges": {},
      "pitchBends": [],
      "instrument": {
        "family": "piano",
        "name": "acoustic grand piano",
        "number": 0
      },
      "name": "Shaker 19",
      "notes": [
        {
          "duration": 1,
          "durationTicks": 960,
          "midi": 82,
          "name": "A#5",
          "ticks": 44160,
          "time": 46,
          "velocity": 0.9606299212598425
        },
        {
          "duration": 0.10000000000000142,
          "durationTicks": 96,
          "midi": 82,
          "name": "A#5",
          "ticks": 45120,
          "time": 47,
          "velocity": 0.8976377952755905
        },
        {
          "duration": 0.04791666666666572,
          "durationTicks": 46,
          "midi": 82,
          "name": "A#5",
          "ticks": 45240,
          "time": 47.125,
          "velocity": 0.5039370078740157
        },
        {
          "duration": 0.05624999999999858,
          "durationTicks": 54,
          "midi": 82,
          "name": "A#5",
          "ticks": 45360,
          "time": 47.25,
          "velocity": 0.4251968503937008
        },
        {
          "duration": 0.03750000000000142,
          "durationTicks": 36,
          "midi": 82,
          "name": "A#5",
          "ticks": 45480,
          "time": 47.375,
          "velocity": 0.4409448818897638
        },
        {
          "duration": 0.09479166666666572,
          "durationTicks": 91,
          "midi": 82,
          "name": "A#5",
          "ticks": 45600,
          "time": 47.5,
          "velocity": 0.937007874015748
        },
        {
          "duration": 0.05520833333333286,
          "durationTicks": 53,
          "midi": 82,
          "name": "A#5",
          "ticks": 45720,
          "time": 47.625,
          "velocity": 0.5669291338582677
        },
        {
          "duration": 0.06354166666666572,
          "durationTicks": 61,
          "midi": 82,
          "name": "A#5",
          "ticks": 45840,
          "time": 47.75,
          "velocity": 0.5511811023622047
        },
        {
          "duration": 0.0677083333333357,
          "durationTicks": 65,
          "midi": 82,
          "name": "A#5",
          "ticks": 45960,
          "time": 47.875,
          "velocity": 0.6614173228346457
        }
      ],
      "endOfTrackTicks": 46025
    },
    {
      "channel": 0,
      "controlChanges": {},
      "pitchBends": [],
      "instrument": {
        "family": "piano",
        "name": "acoustic grand piano",
        "number": 0
      },
      "name": "Shaker 19",
      "notes": [
        {
          "duration": 1,
          "durationTicks": 960,
          "midi": 82,
          "name": "A#5",
          "ticks": 45120,
          "time": 47,
          "velocity": 0.9606299212598425
        },
        {
          "duration": 0.10000000000000142,
          "durationTicks": 96,
          "midi": 82,
          "name": "A#5",
          "ticks": 46080,
          "time": 48,
          "velocity": 0.8976377952755905
        },
        {
          "duration": 0.04791666666666572,
          "durationTicks": 46,
          "midi": 82,
          "name": "A#5",
          "ticks": 46200,
          "time": 48.125,
          "velocity": 0.5039370078740157
        },
        {
          "duration": 0.05624999999999858,
          "durationTicks": 54,
          "midi": 82,
          "name": "A#5",
          "ticks": 46320,
          "time": 48.25,
          "velocity": 0.4251968503937008
        },
        {
          "duration": 0.03750000000000142,
          "durationTicks": 36,
          "midi": 82,
          "name": "A#5",
          "ticks": 46440,
          "time": 48.375,
          "velocity": 0.4409448818897638
        },
        {
          "duration": 0.09479166666666572,
          "durationTicks": 91,
          "midi": 82,
          "name": "A#5",
          "ticks": 46560,
          "time": 48.5,
          "velocity": 0.937007874015748
        },
        {
          "duration": 0.05520833333333286,
          "durationTicks": 53,
          "midi": 82,
          "name": "A#5",
          "ticks": 46680,
          "time": 48.625,
          "velocity": 0.5669291338582677
        },
        {
          "duration": 0.06354166666666572,
          "durationTicks": 61,
          "midi": 82,
          "name": "A#5",
          "ticks": 46800,
          "time": 48.75,
          "velocity": 0.5511811023622047
        },
        {
          "duration": 0.0677083333333357,
          "durationTicks": 65,
          "midi": 82,
          "name": "A#5",
          "ticks": 46920,
          "time": 48.875,
          "velocity": 0.6614173228346457
        }
      ],
      "endOfTrackTicks": 46985
    },
    {
      "channel": 0,
      "controlChanges": {},
      "pitchBends": [],
      "instrument": {
        "family": "piano",
        "name": "acoustic grand piano",
        "number": 0
      },
      "name": "Shaker 19",
      "notes": [
        {
          "duration": 1,
          "durationTicks": 960,
          "midi": 82,
          "name": "A#5",
          "ticks": 46080,
          "time": 48,
          "velocity": 0.9606299212598425
        },
        {
          "duration": 0.10000000000000142,
          "durationTicks": 96,
          "midi": 82,
          "name": "A#5",
          "ticks": 47040,
          "time": 49,
          "velocity": 0.8976377952755905
        },
        {
          "duration": 0.04791666666666572,
          "durationTicks": 46,
          "midi": 82,
          "name": "A#5",
          "ticks": 47160,
          "time": 49.125,
          "velocity": 0.5039370078740157
        },
        {
          "duration": 0.05624999999999858,
          "durationTicks": 54,
          "midi": 82,
          "name": "A#5",
          "ticks": 47280,
          "time": 49.25,
          "velocity": 0.4251968503937008
        },
        {
          "duration": 0.03750000000000142,
          "durationTicks": 36,
          "midi": 82,
          "name": "A#5",
          "ticks": 47400,
          "time": 49.375,
          "velocity": 0.4409448818897638
        },
        {
          "duration": 0.09479166666666572,
          "durationTicks": 91,
          "midi": 82,
          "name": "A#5",
          "ticks": 47520,
          "time": 49.5,
          "velocity": 0.937007874015748
        },
        {
          "duration": 0.05520833333333286,
          "durationTicks": 53,
          "midi": 82,
          "name": "A#5",
          "ticks": 47640,
          "time": 49.625,
          "velocity": 0.5669291338582677
        },
        {
          "duration": 0.06354166666666572,
          "durationTicks": 61,
          "midi": 82,
          "name": "A#5",
          "ticks": 47760,
          "time": 49.75,
          "velocity": 0.5511811023622047
        },
        {
          "duration": 0.0677083333333357,
          "durationTicks": 65,
          "midi": 82,
          "name": "A#5",
          "ticks": 47880,
          "time": 49.875,
          "velocity": 0.6614173228346457
        }
      ],
      "endOfTrackTicks": 47945
    },
    {
      "channel": 0,
      "controlChanges": {},
      "pitchBends": [],
      "instrument": {
        "family": "piano",
        "name": "acoustic grand piano",
        "number": 0
      },
      "name": "Shaker 19",
      "notes": [
        {
          "duration": 9,
          "durationTicks": 8640,
          "midi": 82,
          "name": "A#5",
          "ticks": 30240,
          "time": 31.5,
          "velocity": 0.9606299212598425
        }
      ],
      "endOfTrackTicks": 38880
    },
    {
      "channel": 0,
      "controlChanges": {},
      "pitchBends": [],
      "instrument": {
        "family": "piano",
        "name": "acoustic grand piano",
        "number": 0
      },
      "name": "Shaker 19",
      "notes": [
        {
          "duration": 9,
          "durationTicks": 8640,
          "midi": 82,
          "name": "A#5",
          "ticks": 30240,
          "time": 31.5,
          "velocity": 0.9606299212598425
        }
      ],
      "endOfTrackTicks": 38880
    },
    {
      "channel": 0,
      "controlChanges": {},
      "pitchBends": [],
      "instrument": {
        "family": "piano",
        "name": "acoustic grand piano",
        "number": 0
      },
      "name": "Shaker 19",
      "notes": [
        {
          "duration": 9,
          "durationTicks": 8640,
          "midi": 82,
          "name": "A#5",
          "ticks": 32640,
          "time": 34,
          "velocity": 0.9606299212598425
        }
      ],
      "endOfTrackTicks": 41280
    },
    {
      "channel": 0,
      "controlChanges": {},
      "pitchBends": [],
      "instrument": {
        "family": "piano",
        "name": "acoustic grand piano",
        "number": 0
      },
      "name": "Shaker 19",
      "notes": [
        {
          "duration": 9,
          "durationTicks": 8640,
          "midi": 82,
          "name": "A#5",
          "ticks": 34560,
          "time": 36,
          "velocity": 0.9606299212598425
        }
      ],
      "endOfTrackTicks": 43200
    },
    {
      "channel": 0,
      "controlChanges": {},
      "pitchBends": [],
      "instrument": {
        "family": "piano",
        "name": "acoustic grand piano",
        "number": 0
      },
      "name": "Shaker 19",
      "notes": [
        {
          "duration": 9,
          "durationTicks": 8640,
          "midi": 82,
          "name": "A#5",
          "ticks": 36480,
          "time": 38,
          "velocity": 0.9606299212598425
        }
      ],
      "endOfTrackTicks": 45120
    },
    {
      "channel": 0,
      "controlChanges": {},
      "pitchBends": [],
      "instrument": {
        "family": "piano",
        "name": "acoustic grand piano",
        "number": 0
      },
      "name": "Shaker 19",
      "notes": [
        {
          "duration": 9,
          "durationTicks": 8640,
          "midi": 82,
          "name": "A#5",
          "ticks": 38400,
          "time": 40,
          "velocity": 0.9606299212598425
        }
      ],
      "endOfTrackTicks": 47040
    },
    {
      "channel": 0,
      "controlChanges": {},
      "pitchBends": [],
      "instrument": {
        "family": "piano",
        "name": "acoustic grand piano",
        "number": 0
      },
      "name": "Shaker 19",
      "notes": [
        {
          "duration": 9,
          "durationTicks": 8640,
          "midi": 82,
          "name": "A#5",
          "ticks": 40320,
          "time": 42,
          "velocity": 0.9606299212598425
        }
      ],
      "endOfTrackTicks": 48960
    },
    {
      "channel": 0,
      "controlChanges": {},
      "pitchBends": [],
      "instrument": {
        "family": "piano",
        "name": "acoustic grand piano",
        "number": 0
      },
      "name": "Shaker 19",
      "notes": [
        {
          "duration": 9,
          "durationTicks": 8640,
          "midi": 82,
          "name": "A#5",
          "ticks": 42240,
          "time": 44,
          "velocity": 0.9606299212598425
        }
      ],
      "endOfTrackTicks": 50880
    },
    {
      "channel": 0,
      "controlChanges": {},
      "pitchBends": [],
      "instrument": {
        "family": "piano",
        "name": "acoustic grand piano",
        "number": 0
      },
      "name": "Shaker 19",
      "notes": [
        {
          "duration": 9,
          "durationTicks": 8640,
          "midi": 82,
          "name": "A#5",
          "ticks": 44160,
          "time": 46,
          "velocity": 0.9606299212598425
        }
      ],
      "endOfTrackTicks": 52800
    },
    {
      "channel": 0,
      "controlChanges": {},
      "pitchBends": [],
      "instrument": {
        "family": "piano",
        "name": "acoustic grand piano",
        "number": 0
      },
      "name": "Shaker 19",
      "notes": [
        {
          "duration": 9,
          "durationTicks": 8640,
          "midi": 82,
          "name": "A#5",
          "ticks": 46080,
          "time": 48,
          "velocity": 0.9606299212598425
        }
      ],
      "endOfTrackTicks": 54720
    },
    {
      "channel": 0,
      "controlChanges": {},
      "pitchBends": [],
      "instrument": {
        "family": "piano",
        "name": "acoustic grand piano",
        "number": 0
      },
      "name": "Shaker 19",
      "notes": [
        {
          "duration": 9,
          "durationTicks": 8640,
          "midi": 82,
          "name": "A#5",
          "ticks": 33120,
          "time": 34.5,
          "velocity": 0.9606299212598425
        }
      ],
      "endOfTrackTicks": 41760
    },
    {
      "channel": 0,
      "controlChanges": {},
      "pitchBends": [],
      "instrument": {
        "family": "piano",
        "name": "acoustic grand piano",
        "number": 0
      },
      "name": "Shaker 19",
      "notes": [
        {
          "duration": 9,
          "durationTicks": 8640,
          "midi": 82,
          "name": "A#5",
          "ticks": 34080,
          "time": 35.5,
          "velocity": 0.9606299212598425
        }
      ],
      "endOfTrackTicks": 42720
    },
    {
      "channel": 0,
      "controlChanges": {},
      "pitchBends": [],
      "instrument": {
        "family": "piano",
        "name": "acoustic grand piano",
        "number": 0
      },
      "name": "Shaker 19",
      "notes": [
        {
          "duration": 9,
          "durationTicks": 8640,
          "midi": 82,
          "name": "A#5",
          "ticks": 35040,
          "time": 36.5,
          "velocity": 0.9606299212598425
        }
      ],
      "endOfTrackTicks": 43680
    },
    {
      "channel": 0,
      "controlChanges": {},
      "pitchBends": [],
      "instrument": {
        "family": "piano",
        "name": "acoustic grand piano",
        "number": 0
      },
      "name": "Shaker 19",
      "notes": [
        {
          "duration": 9,
          "durationTicks": 8640,
          "midi": 82,
          "name": "A#5",
          "ticks": 36000,
          "time": 37.5,
          "velocity": 0.9606299212598425
        }
      ],
      "endOfTrackTicks": 44640
    },
    {
      "channel": 0,
      "controlChanges": {},
      "pitchBends": [],
      "instrument": {
        "family": "piano",
        "name": "acoustic grand piano",
        "number": 0
      },
      "name": "Shaker 19",
      "notes": [
        {
          "duration": 9,
          "durationTicks": 8640,
          "midi": 82,
          "name": "A#5",
          "ticks": 36960,
          "time": 38.5,
          "velocity": 0.9606299212598425
        }
      ],
      "endOfTrackTicks": 45600
    },
    {
      "channel": 0,
      "controlChanges": {},
      "pitchBends": [],
      "instrument": {
        "family": "piano",
        "name": "acoustic grand piano",
        "number": 0
      },
      "name": "Shaker 19",
      "notes": [
        {
          "duration": 9,
          "durationTicks": 8640,
          "midi": 82,
          "name": "A#5",
          "ticks": 37920,
          "time": 39.5,
          "velocity": 0.9606299212598425
        }
      ],
      "endOfTrackTicks": 46560
    },
    {
      "channel": 0,
      "controlChanges": {},
      "pitchBends": [],
      "instrument": {
        "family": "piano",
        "name": "acoustic grand piano",
        "number": 0
      },
      "name": "Shaker 19",
      "notes": [
        {
          "duration": 9,
          "durationTicks": 8640,
          "midi": 82,
          "name": "A#5",
          "ticks": 38880,
          "time": 40.5,
          "velocity": 0.9606299212598425
        }
      ],
      "endOfTrackTicks": 47520
    },
    {
      "channel": 0,
      "controlChanges": {},
      "pitchBends": [],
      "instrument": {
        "family": "piano",
        "name": "acoustic grand piano",
        "number": 0
      },
      "name": "Shaker 19",
      "notes": [
        {
          "duration": 9,
          "durationTicks": 8640,
          "midi": 82,
          "name": "A#5",
          "ticks": 39840,
          "time": 41.5,
          "velocity": 0.9606299212598425
        }
      ],
      "endOfTrackTicks": 48480
    },
    {
      "channel": 0,
      "controlChanges": {},
      "pitchBends": [],
      "instrument": {
        "family": "piano",
        "name": "acoustic grand piano",
        "number": 0
      },
      "name": "Shaker 19",
      "notes": [
        {
          "duration": 9,
          "durationTicks": 8640,
          "midi": 82,
          "name": "A#5",
          "ticks": 40800,
          "time": 42.5,
          "velocity": 0.9606299212598425
        }
      ],
      "endOfTrackTicks": 49440
    },
    {
      "channel": 0,
      "controlChanges": {},
      "pitchBends": [],
      "instrument": {
        "family": "piano",
        "name": "acoustic grand piano",
        "number": 0
      },
      "name": "Shaker 19",
      "notes": [
        {
          "duration": 9,
          "durationTicks": 8640,
          "midi": 82,
          "name": "A#5",
          "ticks": 41760,
          "time": 43.5,
          "velocity": 0.9606299212598425
        }
      ],
      "endOfTrackTicks": 50400
    },
    {
      "channel": 0,
      "controlChanges": {},
      "pitchBends": [],
      "instrument": {
        "family": "piano",
        "name": "acoustic grand piano",
        "number": 0
      },
      "name": "Shaker 19",
      "notes": [
        {
          "duration": 9,
          "durationTicks": 8640,
          "midi": 82,
          "name": "A#5",
          "ticks": 42720,
          "time": 44.5,
          "velocity": 0.9606299212598425
        }
      ],
      "endOfTrackTicks": 51360
    },
    {
      "channel": 0,
      "controlChanges": {},
      "pitchBends": [],
      "instrument": {
        "family": "piano",
        "name": "acoustic grand piano",
        "number": 0
      },
      "name": "Shaker 19",
      "notes": [
        {
          "duration": 9,
          "durationTicks": 8640,
          "midi": 82,
          "name": "A#5",
          "ticks": 43680,
          "time": 45.5,
          "velocity": 0.9606299212598425
        }
      ],
      "endOfTrackTicks": 52320
    },
    {
      "channel": 0,
      "controlChanges": {},
      "pitchBends": [],
      "instrument": {
        "family": "piano",
        "name": "acoustic grand piano",
        "number": 0
      },
      "name": "Shaker 19",
      "notes": [
        {
          "duration": 9,
          "durationTicks": 8640,
          "midi": 82,
          "name": "A#5",
          "ticks": 44640,
          "time": 46.5,
          "velocity": 0.9606299212598425
        }
      ],
      "endOfTrackTicks": 53280
    },
    {
      "channel": 0,
      "controlChanges": {},
      "pitchBends": [],
      "instrument": {
        "family": "piano",
        "name": "acoustic grand piano",
        "number": 0
      },
      "name": "Shaker 19",
      "notes": [
        {
          "duration": 9,
          "durationTicks": 8640,
          "midi": 82,
          "name": "A#5",
          "ticks": 45600,
          "time": 47.5,
          "velocity": 0.9606299212598425
        }
      ],
      "endOfTrackTicks": 54240
    },
    {
      "channel": 0,
      "controlChanges": {},
      "pitchBends": [],
      "instrument": {
        "family": "piano",
        "name": "acoustic grand piano",
        "number": 0
      },
      "name": "Shaker 19",
      "notes": [
        {
          "duration": 9,
          "durationTicks": 8640,
          "midi": 82,
          "name": "A#5",
          "ticks": 46560,
          "time": 48.5,
          "velocity": 0.9606299212598425
        }
      ],
      "endOfTrackTicks": 55200
    },
    {
      "channel": 0,
      "controlChanges": {},
      "pitchBends": [],
      "instrument": {
        "family": "piano",
        "name": "acoustic grand piano",
        "number": 0
      },
      "name": "Shaker 19",
      "notes": [
        {
          "duration": 9,
          "durationTicks": 8640,
          "midi": 82,
          "name": "A#5",
          "ticks": 32640,
          "time": 34,
          "velocity": 0.9606299212598425
        }
      ],
      "endOfTrackTicks": 41280
    },
    {
      "channel": 0,
      "controlChanges": {},
      "pitchBends": [],
      "instrument": {
        "family": "piano",
        "name": "acoustic grand piano",
        "number": 0
      },
      "name": "Shaker 19",
      "notes": [
        {
          "duration": 9,
          "durationTicks": 8640,
          "midi": 82,
          "name": "A#5",
          "ticks": 34560,
          "time": 36,
          "velocity": 0.9606299212598425
        }
      ],
      "endOfTrackTicks": 43200
    },
    {
      "channel": 0,
      "controlChanges": {},
      "pitchBends": [],
      "instrument": {
        "family": "piano",
        "name": "acoustic grand piano",
        "number": 0
      },
      "name": "Shaker 19",
      "notes": [
        {
          "duration": 9,
          "durationTicks": 8640,
          "midi": 82,
          "name": "A#5",
          "ticks": 36480,
          "time": 38,
          "velocity": 0.9606299212598425
        }
      ],
      "endOfTrackTicks": 45120
    },
    {
      "channel": 0,
      "controlChanges": {},
      "pitchBends": [],
      "instrument": {
        "family": "piano",
        "name": "acoustic grand piano",
        "number": 0
      },
      "name": "Shaker 19",
      "notes": [
        {
          "duration": 9,
          "durationTicks": 8640,
          "midi": 82,
          "name": "A#5",
          "ticks": 38400,
          "time": 40,
          "velocity": 0.9606299212598425
        }
      ],
      "endOfTrackTicks": 47040
    },
    {
      "channel": 0,
      "controlChanges": {},
      "pitchBends": [],
      "instrument": {
        "family": "piano",
        "name": "acoustic grand piano",
        "number": 0
      },
      "name": "Shaker 19",
      "notes": [
        {
          "duration": 9,
          "durationTicks": 8640,
          "midi": 82,
          "name": "A#5",
          "ticks": 40320,
          "time": 42,
          "velocity": 0.9606299212598425
        }
      ],
      "endOfTrackTicks": 48960
    },
    {
      "channel": 0,
      "controlChanges": {},
      "pitchBends": [],
      "instrument": {
        "family": "piano",
        "name": "acoustic grand piano",
        "number": 0
      },
      "name": "Shaker 19",
      "notes": [
        {
          "duration": 9,
          "durationTicks": 8640,
          "midi": 82,
          "name": "A#5",
          "ticks": 42240,
          "time": 44,
          "velocity": 0.9606299212598425
        }
      ],
      "endOfTrackTicks": 50880
    },
    {
      "channel": 0,
      "controlChanges": {},
      "pitchBends": [],
      "instrument": {
        "family": "piano",
        "name": "acoustic grand piano",
        "number": 0
      },
      "name": "Shaker 19",
      "notes": [
        {
          "duration": 9,
          "durationTicks": 8640,
          "midi": 82,
          "name": "A#5",
          "ticks": 44160,
          "time": 46,
          "velocity": 0.9606299212598425
        }
      ],
      "endOfTrackTicks": 52800
    },
    {
      "channel": 0,
      "controlChanges": {},
      "pitchBends": [],
      "instrument": {
        "family": "piano",
        "name": "acoustic grand piano",
        "number": 0
      },
      "name": "Shaker 19",
      "notes": [
        {
          "duration": 9,
          "durationTicks": 8640,
          "midi": 82,
          "name": "A#5",
          "ticks": 46080,
          "time": 48,
          "velocity": 0.9606299212598425
        }
      ],
      "endOfTrackTicks": 54720
    },
    {
      "channel": 0,
      "controlChanges": {},
      "pitchBends": [],
      "instrument": {
        "family": "piano",
        "name": "acoustic grand piano",
        "number": 0
      },
      "name": "Shaker 19",
      "notes": [
        {
          "duration": 9,
          "durationTicks": 8640,
          "midi": 82,
          "name": "A#5",
          "ticks": 32640,
          "time": 34,
          "velocity": 0.9606299212598425
        }
      ],
      "endOfTrackTicks": 41280
    },
    {
      "channel": 0,
      "controlChanges": {},
      "pitchBends": [],
      "instrument": {
        "family": "piano",
        "name": "acoustic grand piano",
        "number": 0
      },
      "name": "Shaker 19",
      "notes": [
        {
          "duration": 9,
          "durationTicks": 8640,
          "midi": 82,
          "name": "A#5",
          "ticks": 34560,
          "time": 36,
          "velocity": 0.9606299212598425
        }
      ],
      "endOfTrackTicks": 43200
    },
    {
      "channel": 0,
      "controlChanges": {},
      "pitchBends": [],
      "instrument": {
        "family": "piano",
        "name": "acoustic grand piano",
        "number": 0
      },
      "name": "Shaker 19",
      "notes": [
        {
          "duration": 9,
          "durationTicks": 8640,
          "midi": 82,
          "name": "A#5",
          "ticks": 36480,
          "time": 38,
          "velocity": 0.9606299212598425
        }
      ],
      "endOfTrackTicks": 45120
    },
    {
      "channel": 0,
      "controlChanges": {},
      "pitchBends": [],
      "instrument": {
        "family": "piano",
        "name": "acoustic grand piano",
        "number": 0
      },
      "name": "Shaker 19",
      "notes": [
        {
          "duration": 9,
          "durationTicks": 8640,
          "midi": 82,
          "name": "A#5",
          "ticks": 38400,
          "time": 40,
          "velocity": 0.9606299212598425
        }
      ],
      "endOfTrackTicks": 47040
    },
    {
      "channel": 0,
      "controlChanges": {},
      "pitchBends": [],
      "instrument": {
        "family": "piano",
        "name": "acoustic grand piano",
        "number": 0
      },
      "name": "Shaker 19",
      "notes": [
        {
          "duration": 9,
          "durationTicks": 8640,
          "midi": 82,
          "name": "A#5",
          "ticks": 40320,
          "time": 42,
          "velocity": 0.9606299212598425
        }
      ],
      "endOfTrackTicks": 48960
    },
    {
      "channel": 0,
      "controlChanges": {},
      "pitchBends": [],
      "instrument": {
        "family": "piano",
        "name": "acoustic grand piano",
        "number": 0
      },
      "name": "Shaker 19",
      "notes": [
        {
          "duration": 9,
          "durationTicks": 8640,
          "midi": 82,
          "name": "A#5",
          "ticks": 42240,
          "time": 44,
          "velocity": 0.9606299212598425
        }
      ],
      "endOfTrackTicks": 50880
    },
    {
      "channel": 0,
      "controlChanges": {},
      "pitchBends": [],
      "instrument": {
        "family": "piano",
        "name": "acoustic grand piano",
        "number": 0
      },
      "name": "Shaker 19",
      "notes": [
        {
          "duration": 9,
          "durationTicks": 8640,
          "midi": 82,
          "name": "A#5",
          "ticks": 44160,
          "time": 46,
          "velocity": 0.9606299212598425
        }
      ],
      "endOfTrackTicks": 52800
    },
    {
      "channel": 0,
      "controlChanges": {},
      "pitchBends": [],
      "instrument": {
        "family": "piano",
        "name": "acoustic grand piano",
        "number": 0
      },
      "name": "Shaker 19",
      "notes": [
        {
          "duration": 9,
          "durationTicks": 8640,
          "midi": 82,
          "name": "A#5",
          "ticks": 46080,
          "time": 48,
          "velocity": 0.9606299212598425
        }
      ],
      "endOfTrackTicks": 54720
    },
    {
      "channel": 0,
      "controlChanges": {},
      "pitchBends": [],
      "instrument": {
        "family": "piano",
        "name": "acoustic grand piano",
        "number": 0
      },
      "name": "Heavy Kick",
      "notes": [
        {
          "duration": 1,
          "durationTicks": 960,
          "midi": 36,
          "name": "C2",
          "ticks": 32640,
          "time": 34,
          "velocity": 0.8503937007874016
        }
      ],
      "endOfTrackTicks": 33600
    },
    {
      "channel": 0,
      "controlChanges": {},
      "pitchBends": [],
      "instrument": {
        "family": "piano",
        "name": "acoustic grand piano",
        "number": 0
      },
      "name": "Heavy Kick",
      "notes": [
        {
          "duration": 1,
          "durationTicks": 960,
          "midi": 36,
          "name": "C2",
          "ticks": 33600,
          "time": 35,
          "velocity": 0.8503937007874016
        }
      ],
      "endOfTrackTicks": 34560
    },
    {
      "channel": 0,
      "controlChanges": {},
      "pitchBends": [],
      "instrument": {
        "family": "piano",
        "name": "acoustic grand piano",
        "number": 0
      },
      "name": "Heavy Kick",
      "notes": [
        {
          "duration": 1,
          "durationTicks": 960,
          "midi": 36,
          "name": "C2",
          "ticks": 34560,
          "time": 36,
          "velocity": 0.8503937007874016
        }
      ],
      "endOfTrackTicks": 35520
    },
    {
      "channel": 0,
      "controlChanges": {},
      "pitchBends": [],
      "instrument": {
        "family": "piano",
        "name": "acoustic grand piano",
        "number": 0
      },
      "name": "Heavy Kick",
      "notes": [
        {
          "duration": 1,
          "durationTicks": 960,
          "midi": 36,
          "name": "C2",
          "ticks": 35520,
          "time": 37,
          "velocity": 0.8503937007874016
        }
      ],
      "endOfTrackTicks": 36480
    },
    {
      "channel": 0,
      "controlChanges": {},
      "pitchBends": [],
      "instrument": {
        "family": "piano",
        "name": "acoustic grand piano",
        "number": 0
      },
      "name": "Heavy Kick",
      "notes": [
        {
          "duration": 1,
          "durationTicks": 960,
          "midi": 36,
          "name": "C2",
          "ticks": 36480,
          "time": 38,
          "velocity": 0.8503937007874016
        }
      ],
      "endOfTrackTicks": 37440
    },
    {
      "channel": 0,
      "controlChanges": {},
      "pitchBends": [],
      "instrument": {
        "family": "piano",
        "name": "acoustic grand piano",
        "number": 0
      },
      "name": "Heavy Kick",
      "notes": [
        {
          "duration": 1,
          "durationTicks": 960,
          "midi": 36,
          "name": "C2",
          "ticks": 37440,
          "time": 39,
          "velocity": 0.8503937007874016
        }
      ],
      "endOfTrackTicks": 38400
    },
    {
      "channel": 0,
      "controlChanges": {},
      "pitchBends": [],
      "instrument": {
        "family": "piano",
        "name": "acoustic grand piano",
        "number": 0
      },
      "name": "Heavy Kick",
      "notes": [
        {
          "duration": 1,
          "durationTicks": 960,
          "midi": 36,
          "name": "C2",
          "ticks": 38400,
          "time": 40,
          "velocity": 0.8503937007874016
        }
      ],
      "endOfTrackTicks": 39360
    },
    {
      "channel": 0,
      "controlChanges": {},
      "pitchBends": [],
      "instrument": {
        "family": "piano",
        "name": "acoustic grand piano",
        "number": 0
      },
      "name": "Heavy Kick",
      "notes": [
        {
          "duration": 1,
          "durationTicks": 960,
          "midi": 36,
          "name": "C2",
          "ticks": 39360,
          "time": 41,
          "velocity": 0.8503937007874016
        }
      ],
      "endOfTrackTicks": 40320
    },
    {
      "channel": 0,
      "controlChanges": {},
      "pitchBends": [],
      "instrument": {
        "family": "piano",
        "name": "acoustic grand piano",
        "number": 0
      },
      "name": "Heavy Kick",
      "notes": [
        {
          "duration": 0.59375,
          "durationTicks": 570,
          "midi": 36,
          "name": "C2",
          "ticks": 40320,
          "time": 42,
          "velocity": 0.8503937007874016
        }
      ],
      "endOfTrackTicks": 40890
    },
    {
      "channel": 0,
      "controlChanges": {},
      "pitchBends": [],
      "instrument": {
        "family": "piano",
        "name": "acoustic grand piano",
        "number": 0
      },
      "name": "Heavy Kick",
      "notes": [
        {
          "duration": 0.59375,
          "durationTicks": 570,
          "midi": 36,
          "name": "C2",
          "ticks": 40800,
          "time": 42.5,
          "velocity": 0.8503937007874016
        }
      ],
      "endOfTrackTicks": 41370
    },
    {
      "channel": 0,
      "controlChanges": {},
      "pitchBends": [],
      "instrument": {
        "family": "piano",
        "name": "acoustic grand piano",
        "number": 0
      },
      "name": "Heavy Kick",
      "notes": [
        {
          "duration": 0.59375,
          "durationTicks": 570,
          "midi": 36,
          "name": "C2",
          "ticks": 41280,
          "time": 43,
          "velocity": 0.8503937007874016
        }
      ],
      "endOfTrackTicks": 41850
    },
    {
      "channel": 0,
      "controlChanges": {},
      "pitchBends": [],
      "instrument": {
        "family": "piano",
        "name": "acoustic grand piano",
        "number": 0
      },
      "name": "Heavy Kick",
      "notes": [
        {
          "duration": 0.59375,
          "durationTicks": 570,
          "midi": 36,
          "name": "C2",
          "ticks": 41760,
          "time": 43.5,
          "velocity": 0.8503937007874016
        }
      ],
      "endOfTrackTicks": 42330
    },
    {
      "channel": 0,
      "controlChanges": {},
      "pitchBends": [],
      "instrument": {
        "family": "piano",
        "name": "acoustic grand piano",
        "number": 0
      },
      "name": "Heavy Kick",
      "notes": [
        {
          "duration": 0.59375,
          "durationTicks": 570,
          "midi": 36,
          "name": "C2",
          "ticks": 42240,
          "time": 44,
          "velocity": 0.8503937007874016
        }
      ],
      "endOfTrackTicks": 42810
    },
    {
      "channel": 0,
      "controlChanges": {},
      "pitchBends": [],
      "instrument": {
        "family": "piano",
        "name": "acoustic grand piano",
        "number": 0
      },
      "name": "Heavy Kick",
      "notes": [
        {
          "duration": 0.59375,
          "durationTicks": 570,
          "midi": 36,
          "name": "C2",
          "ticks": 42720,
          "time": 44.5,
          "velocity": 0.8503937007874016
        }
      ],
      "endOfTrackTicks": 43290
    },
    {
      "channel": 0,
      "controlChanges": {},
      "pitchBends": [],
      "instrument": {
        "family": "piano",
        "name": "acoustic grand piano",
        "number": 0
      },
      "name": "Heavy Kick",
      "notes": [
        {
          "duration": 0.59375,
          "durationTicks": 570,
          "midi": 36,
          "name": "C2",
          "ticks": 43200,
          "time": 45,
          "velocity": 0.8503937007874016
        }
      ],
      "endOfTrackTicks": 43770
    },
    {
      "channel": 0,
      "controlChanges": {},
      "pitchBends": [],
      "instrument": {
        "family": "piano",
        "name": "acoustic grand piano",
        "number": 0
      },
      "name": "Heavy Kick",
      "notes": [
        {
          "duration": 0.59375,
          "durationTicks": 570,
          "midi": 36,
          "name": "C2",
          "ticks": 43680,
          "time": 45.5,
          "velocity": 0.8503937007874016
        }
      ],
      "endOfTrackTicks": 44250
    },
    {
      "channel": 0,
      "controlChanges": {},
      "pitchBends": [],
      "instrument": {
        "family": "piano",
        "name": "acoustic grand piano",
        "number": 0
      },
      "name": "Heavy Kick",
      "notes": [
        {
          "duration": 0.59375,
          "durationTicks": 570,
          "midi": 36,
          "name": "C2",
          "ticks": 44160,
          "time": 46,
          "velocity": 0.8503937007874016
        }
      ],
      "endOfTrackTicks": 44730
    },
    {
      "channel": 0,
      "controlChanges": {},
      "pitchBends": [],
      "instrument": {
        "family": "piano",
        "name": "acoustic grand piano",
        "number": 0
      },
      "name": "Heavy Kick",
      "notes": [
        {
          "duration": 0.59375,
          "durationTicks": 570,
          "midi": 36,
          "name": "C2",
          "ticks": 44640,
          "time": 46.5,
          "velocity": 0.8503937007874016
        }
      ],
      "endOfTrackTicks": 45210
    },
    {
      "channel": 0,
      "controlChanges": {},
      "pitchBends": [],
      "instrument": {
        "family": "piano",
        "name": "acoustic grand piano",
        "number": 0
      },
      "name": "Heavy Kick",
      "notes": [
        {
          "duration": 0.59375,
          "durationTicks": 570,
          "midi": 36,
          "name": "C2",
          "ticks": 45120,
          "time": 47,
          "velocity": 0.8503937007874016
        }
      ],
      "endOfTrackTicks": 45690
    },
    {
      "channel": 0,
      "controlChanges": {},
      "pitchBends": [],
      "instrument": {
        "family": "piano",
        "name": "acoustic grand piano",
        "number": 0
      },
      "name": "Heavy Kick",
      "notes": [
        {
          "duration": 0.59375,
          "durationTicks": 570,
          "midi": 36,
          "name": "C2",
          "ticks": 45600,
          "time": 47.5,
          "velocity": 0.8503937007874016
        }
      ],
      "endOfTrackTicks": 46170
    },
    {
      "channel": 0,
      "controlChanges": {},
      "pitchBends": [],
      "instrument": {
        "family": "piano",
        "name": "acoustic grand piano",
        "number": 0
      },
      "name": "Heavy Kick",
      "notes": [
        {
          "duration": 0.59375,
          "durationTicks": 570,
          "midi": 36,
          "name": "C2",
          "ticks": 46080,
          "time": 48,
          "velocity": 0.8503937007874016
        }
      ],
      "endOfTrackTicks": 46650
    },
    {
      "channel": 0,
      "controlChanges": {},
      "pitchBends": [],
      "instrument": {
        "family": "piano",
        "name": "acoustic grand piano",
        "number": 0
      },
      "name": "Heavy Kick",
      "notes": [
        {
          "duration": 0.59375,
          "durationTicks": 570,
          "midi": 36,
          "name": "C2",
          "ticks": 46560,
          "time": 48.5,
          "velocity": 0.8503937007874016
        }
      ],
      "endOfTrackTicks": 47130
    },
    {
      "channel": 0,
      "controlChanges": {},
      "pitchBends": [],
      "instrument": {
        "family": "piano",
        "name": "acoustic grand piano",
        "number": 0
      },
      "name": "Heavy Kick",
      "notes": [
        {
          "duration": 0.59375,
          "durationTicks": 570,
          "midi": 36,
          "name": "C2",
          "ticks": 47040,
          "time": 49,
          "velocity": 0.8503937007874016
        }
      ],
      "endOfTrackTicks": 47610
    },
    {
      "channel": 0,
      "controlChanges": {},
      "pitchBends": [],
      "instrument": {
        "family": "piano",
        "name": "acoustic grand piano",
        "number": 0
      },
      "name": "Retro Rock Kit",
      "notes": [
        {
          "duration": 0.4906250000000014,
          "durationTicks": 471,
          "midi": 36,
          "name": "C2",
          "ticks": 32640,
          "time": 34,
          "velocity": 0.9212598425196851
        },
        {
          "duration": 0.5,
          "durationTicks": 480,
          "midi": 36,
          "name": "C2",
          "ticks": 33120,
          "time": 34.5,
          "velocity": 0.9212598425196851
        }
      ],
      "endOfTrackTicks": 33600
    },
    {
      "channel": 0,
      "controlChanges": {},
      "pitchBends": [],
      "instrument": {
        "family": "piano",
        "name": "acoustic grand piano",
        "number": 0
      },
      "name": "Retro Rock Kit",
      "notes": [
        {
          "duration": 0.4906250000000014,
          "durationTicks": 471,
          "midi": 36,
          "name": "C2",
          "ticks": 33600,
          "time": 35,
          "velocity": 0.9212598425196851
        },
        {
          "duration": 0.5,
          "durationTicks": 480,
          "midi": 36,
          "name": "C2",
          "ticks": 34080,
          "time": 35.5,
          "velocity": 0.9212598425196851
        }
      ],
      "endOfTrackTicks": 34560
    },
    {
      "channel": 0,
      "controlChanges": {},
      "pitchBends": [],
      "instrument": {
        "family": "piano",
        "name": "acoustic grand piano",
        "number": 0
      },
      "name": "Retro Rock Kit",
      "notes": [
        {
          "duration": 0.4906250000000014,
          "durationTicks": 471,
          "midi": 36,
          "name": "C2",
          "ticks": 34560,
          "time": 36,
          "velocity": 0.9212598425196851
        },
        {
          "duration": 0.5,
          "durationTicks": 480,
          "midi": 36,
          "name": "C2",
          "ticks": 35040,
          "time": 36.5,
          "velocity": 0.9212598425196851
        }
      ],
      "endOfTrackTicks": 35520
    },
    {
      "channel": 0,
      "controlChanges": {},
      "pitchBends": [],
      "instrument": {
        "family": "piano",
        "name": "acoustic grand piano",
        "number": 0
      },
      "name": "Retro Rock Kit",
      "notes": [
        {
          "duration": 0.4906250000000014,
          "durationTicks": 471,
          "midi": 36,
          "name": "C2",
          "ticks": 35520,
          "time": 37,
          "velocity": 0.9212598425196851
        },
        {
          "duration": 0.5,
          "durationTicks": 480,
          "midi": 36,
          "name": "C2",
          "ticks": 36000,
          "time": 37.5,
          "velocity": 0.9212598425196851
        }
      ],
      "endOfTrackTicks": 36480
    },
    {
      "channel": 0,
      "controlChanges": {},
      "pitchBends": [],
      "instrument": {
        "family": "piano",
        "name": "acoustic grand piano",
        "number": 0
      },
      "name": "Retro Rock Kit",
      "notes": [
        {
          "duration": 0.4906250000000014,
          "durationTicks": 471,
          "midi": 36,
          "name": "C2",
          "ticks": 36480,
          "time": 38,
          "velocity": 0.9212598425196851
        },
        {
          "duration": 0.5,
          "durationTicks": 480,
          "midi": 36,
          "name": "C2",
          "ticks": 36960,
          "time": 38.5,
          "velocity": 0.9212598425196851
        }
      ],
      "endOfTrackTicks": 37440
    },
    {
      "channel": 0,
      "controlChanges": {},
      "pitchBends": [],
      "instrument": {
        "family": "piano",
        "name": "acoustic grand piano",
        "number": 0
      },
      "name": "Retro Rock Kit",
      "notes": [
        {
          "duration": 0.4906250000000014,
          "durationTicks": 471,
          "midi": 36,
          "name": "C2",
          "ticks": 37440,
          "time": 39,
          "velocity": 0.9212598425196851
        },
        {
          "duration": 0.5,
          "durationTicks": 480,
          "midi": 36,
          "name": "C2",
          "ticks": 37920,
          "time": 39.5,
          "velocity": 0.9212598425196851
        }
      ],
      "endOfTrackTicks": 38400
    },
    {
      "channel": 0,
      "controlChanges": {},
      "pitchBends": [],
      "instrument": {
        "family": "piano",
        "name": "acoustic grand piano",
        "number": 0
      },
      "name": "Retro Rock Kit",
      "notes": [
        {
          "duration": 0.4906250000000014,
          "durationTicks": 471,
          "midi": 36,
          "name": "C2",
          "ticks": 38400,
          "time": 40,
          "velocity": 0.9212598425196851
        },
        {
          "duration": 0.5,
          "durationTicks": 480,
          "midi": 36,
          "name": "C2",
          "ticks": 38880,
          "time": 40.5,
          "velocity": 0.9212598425196851
        }
      ],
      "endOfTrackTicks": 39360
    },
    {
      "channel": 0,
      "controlChanges": {},
      "pitchBends": [],
      "instrument": {
        "family": "piano",
        "name": "acoustic grand piano",
        "number": 0
      },
      "name": "Retro Rock Kit",
      "notes": [
        {
          "duration": 0.4906250000000014,
          "durationTicks": 471,
          "midi": 36,
          "name": "C2",
          "ticks": 39360,
          "time": 41,
          "velocity": 0.9212598425196851
        },
        {
          "duration": 0.5,
          "durationTicks": 480,
          "midi": 36,
          "name": "C2",
          "ticks": 39840,
          "time": 41.5,
          "velocity": 0.9212598425196851
        }
      ],
      "endOfTrackTicks": 40320
    },
    {
      "channel": 0,
      "controlChanges": {},
      "pitchBends": [],
      "instrument": {
        "family": "piano",
        "name": "acoustic grand piano",
        "number": 0
      },
      "name": "Retro Rock Kit",
      "notes": [
        {
          "duration": 0.4906250000000014,
          "durationTicks": 471,
          "midi": 36,
          "name": "C2",
          "ticks": 40320,
          "time": 42,
          "velocity": 0.9212598425196851
        },
        {
          "duration": 0.5,
          "durationTicks": 480,
          "midi": 36,
          "name": "C2",
          "ticks": 40800,
          "time": 42.5,
          "velocity": 0.9212598425196851
        }
      ],
      "endOfTrackTicks": 41280
    },
    {
      "channel": 0,
      "controlChanges": {},
      "pitchBends": [],
      "instrument": {
        "family": "piano",
        "name": "acoustic grand piano",
        "number": 0
      },
      "name": "Retro Rock Kit",
      "notes": [
        {
          "duration": 0.4906250000000014,
          "durationTicks": 471,
          "midi": 36,
          "name": "C2",
          "ticks": 41280,
          "time": 43,
          "velocity": 0.9212598425196851
        },
        {
          "duration": 0.5,
          "durationTicks": 480,
          "midi": 36,
          "name": "C2",
          "ticks": 41760,
          "time": 43.5,
          "velocity": 0.9212598425196851
        }
      ],
      "endOfTrackTicks": 42240
    },
    {
      "channel": 0,
      "controlChanges": {},
      "pitchBends": [],
      "instrument": {
        "family": "piano",
        "name": "acoustic grand piano",
        "number": 0
      },
      "name": "Retro Rock Kit",
      "notes": [
        {
          "duration": 0.4906250000000014,
          "durationTicks": 471,
          "midi": 36,
          "name": "C2",
          "ticks": 42240,
          "time": 44,
          "velocity": 0.9212598425196851
        },
        {
          "duration": 0.5,
          "durationTicks": 480,
          "midi": 36,
          "name": "C2",
          "ticks": 42720,
          "time": 44.5,
          "velocity": 0.9212598425196851
        }
      ],
      "endOfTrackTicks": 43200
    },
    {
      "channel": 0,
      "controlChanges": {},
      "pitchBends": [],
      "instrument": {
        "family": "piano",
        "name": "acoustic grand piano",
        "number": 0
      },
      "name": "Retro Rock Kit",
      "notes": [
        {
          "duration": 0.4906250000000014,
          "durationTicks": 471,
          "midi": 36,
          "name": "C2",
          "ticks": 43200,
          "time": 45,
          "velocity": 0.9212598425196851
        },
        {
          "duration": 0.5,
          "durationTicks": 480,
          "midi": 36,
          "name": "C2",
          "ticks": 43680,
          "time": 45.5,
          "velocity": 0.9212598425196851
        }
      ],
      "endOfTrackTicks": 44160
    },
    {
      "channel": 0,
      "controlChanges": {},
      "pitchBends": [],
      "instrument": {
        "family": "piano",
        "name": "acoustic grand piano",
        "number": 0
      },
      "name": "Retro Rock Kit",
      "notes": [
        {
          "duration": 0.4906250000000014,
          "durationTicks": 471,
          "midi": 36,
          "name": "C2",
          "ticks": 44160,
          "time": 46,
          "velocity": 0.9212598425196851
        },
        {
          "duration": 0.5,
          "durationTicks": 480,
          "midi": 36,
          "name": "C2",
          "ticks": 44640,
          "time": 46.5,
          "velocity": 0.9212598425196851
        }
      ],
      "endOfTrackTicks": 45120
    },
    {
      "channel": 0,
      "controlChanges": {},
      "pitchBends": [],
      "instrument": {
        "family": "piano",
        "name": "acoustic grand piano",
        "number": 0
      },
      "name": "Retro Rock Kit",
      "notes": [
        {
          "duration": 0.4906250000000014,
          "durationTicks": 471,
          "midi": 36,
          "name": "C2",
          "ticks": 45120,
          "time": 47,
          "velocity": 0.9212598425196851
        },
        {
          "duration": 0.5,
          "durationTicks": 480,
          "midi": 36,
          "name": "C2",
          "ticks": 45600,
          "time": 47.5,
          "velocity": 0.9212598425196851
        }
      ],
      "endOfTrackTicks": 46080
    },
    {
      "channel": 0,
      "controlChanges": {},
      "pitchBends": [],
      "instrument": {
        "family": "piano",
        "name": "acoustic grand piano",
        "number": 0
      },
      "name": "Retro Rock Kit",
      "notes": [
        {
          "duration": 0.4906250000000014,
          "durationTicks": 471,
          "midi": 36,
          "name": "C2",
          "ticks": 46080,
          "time": 48,
          "velocity": 0.9212598425196851
        },
        {
          "duration": 0.5,
          "durationTicks": 480,
          "midi": 36,
          "name": "C2",
          "ticks": 46560,
          "time": 48.5,
          "velocity": 0.9212598425196851
        }
      ],
      "endOfTrackTicks": 47040
    },
    {
      "channel": 0,
      "controlChanges": {},
      "pitchBends": [],
      "instrument": {
        "family": "piano",
        "name": "acoustic grand piano",
        "number": 0
      },
      "name": "Retro Rock Kit",
      "notes": [
        {
          "duration": 0.4906250000000014,
          "durationTicks": 471,
          "midi": 36,
          "name": "C2",
          "ticks": 47040,
          "time": 49,
          "velocity": 0.9212598425196851
        },
        {
          "duration": 0.5,
          "durationTicks": 480,
          "midi": 36,
          "name": "C2",
          "ticks": 47520,
          "time": 49.5,
          "velocity": 0.9212598425196851
        }
      ],
      "endOfTrackTicks": 48000
    },
    {
      "channel": 0,
      "controlChanges": {},
      "pitchBends": [],
      "instrument": {
        "family": "piano",
        "name": "acoustic grand piano",
        "number": 0
      },
      "name": "Retro Rock Kit",
      "notes": [
        {
          "duration": 0.5,
          "durationTicks": 480,
          "midi": 40,
          "name": "E2",
          "ticks": 33120,
          "time": 34.5,
          "velocity": 0.9212598425196851
        },
        {
          "duration": 0.7312500000000028,
          "durationTicks": 702,
          "midi": 40,
          "name": "E2",
          "ticks": 34080,
          "time": 35.5,
          "velocity": 0.968503937007874
        },
        {
          "duration": 0.6333333333333329,
          "durationTicks": 608,
          "midi": 40,
          "name": "E2",
          "ticks": 35040,
          "time": 36.5,
          "velocity": 0.968503937007874
        },
        {
          "duration": 0.7239583333333357,
          "durationTicks": 695,
          "midi": 40,
          "name": "E2",
          "ticks": 36000,
          "time": 37.5,
          "velocity": 0.968503937007874
        },
        {
          "duration": 0.7406250000000014,
          "durationTicks": 711,
          "midi": 40,
          "name": "E2",
          "ticks": 36960,
          "time": 38.5,
          "velocity": 0.9212598425196851
        },
        {
          "duration": 0.7635416666666686,
          "durationTicks": 733,
          "midi": 40,
          "name": "E2",
          "ticks": 37920,
          "time": 39.5,
          "velocity": 0.968503937007874
        },
        {
          "duration": 0.5614583333333343,
          "durationTicks": 539,
          "midi": 40,
          "name": "E2",
          "ticks": 38880,
          "time": 40.5,
          "velocity": 0.968503937007874
        }
      ],
      "endOfTrackTicks": 39419
    },
    {
      "channel": 0,
      "controlChanges": {},
      "pitchBends": [],
      "instrument": {
        "family": "piano",
        "name": "acoustic grand piano",
        "number": 0
      },
      "name": "Retro Rock Kit",
      "notes": [
        {
          "duration": 0.5,
          "durationTicks": 480,
          "midi": 40,
          "name": "E2",
          "ticks": 34080,
          "time": 35.5,
          "velocity": 0.9212598425196851
        },
        {
          "duration": 0.7312500000000028,
          "durationTicks": 702,
          "midi": 40,
          "name": "E2",
          "ticks": 35040,
          "time": 36.5,
          "velocity": 0.968503937007874
        },
        {
          "duration": 0.6333333333333329,
          "durationTicks": 608,
          "midi": 40,
          "name": "E2",
          "ticks": 36000,
          "time": 37.5,
          "velocity": 0.968503937007874
        },
        {
          "duration": 0.7239583333333357,
          "durationTicks": 695,
          "midi": 40,
          "name": "E2",
          "ticks": 36960,
          "time": 38.5,
          "velocity": 0.968503937007874
        },
        {
          "duration": 0.7406250000000014,
          "durationTicks": 711,
          "midi": 40,
          "name": "E2",
          "ticks": 37920,
          "time": 39.5,
          "velocity": 0.9212598425196851
        },
        {
          "duration": 0.7635416666666686,
          "durationTicks": 733,
          "midi": 40,
          "name": "E2",
          "ticks": 38880,
          "time": 40.5,
          "velocity": 0.968503937007874
        },
        {
          "duration": 0.5614583333333343,
          "durationTicks": 539,
          "midi": 40,
          "name": "E2",
          "ticks": 39840,
          "time": 41.5,
          "velocity": 0.968503937007874
        }
      ],
      "endOfTrackTicks": 40379
    },
    {
      "channel": 0,
      "controlChanges": {},
      "pitchBends": [],
      "instrument": {
        "family": "piano",
        "name": "acoustic grand piano",
        "number": 0
      },
      "name": "Retro Rock Kit",
      "notes": [
        {
          "duration": 0.5,
          "durationTicks": 480,
          "midi": 40,
          "name": "E2",
          "ticks": 35040,
          "time": 36.5,
          "velocity": 0.9212598425196851
        },
        {
          "duration": 0.7312500000000028,
          "durationTicks": 702,
          "midi": 40,
          "name": "E2",
          "ticks": 36000,
          "time": 37.5,
          "velocity": 0.968503937007874
        },
        {
          "duration": 0.6333333333333329,
          "durationTicks": 608,
          "midi": 40,
          "name": "E2",
          "ticks": 36960,
          "time": 38.5,
          "velocity": 0.968503937007874
        },
        {
          "duration": 0.7239583333333357,
          "durationTicks": 695,
          "midi": 40,
          "name": "E2",
          "ticks": 37920,
          "time": 39.5,
          "velocity": 0.968503937007874
        },
        {
          "duration": 0.7406250000000014,
          "durationTicks": 711,
          "midi": 40,
          "name": "E2",
          "ticks": 38880,
          "time": 40.5,
          "velocity": 0.9212598425196851
        },
        {
          "duration": 0.7635416666666686,
          "durationTicks": 733,
          "midi": 40,
          "name": "E2",
          "ticks": 39840,
          "time": 41.5,
          "velocity": 0.968503937007874
        },
        {
          "duration": 0.5614583333333343,
          "durationTicks": 539,
          "midi": 40,
          "name": "E2",
          "ticks": 40800,
          "time": 42.5,
          "velocity": 0.968503937007874
        }
      ],
      "endOfTrackTicks": 41339
    },
    {
      "channel": 0,
      "controlChanges": {},
      "pitchBends": [],
      "instrument": {
        "family": "piano",
        "name": "acoustic grand piano",
        "number": 0
      },
      "name": "Retro Rock Kit",
      "notes": [
        {
          "duration": 0.5,
          "durationTicks": 480,
          "midi": 40,
          "name": "E2",
          "ticks": 36000,
          "time": 37.5,
          "velocity": 0.9212598425196851
        },
        {
          "duration": 0.7312500000000028,
          "durationTicks": 702,
          "midi": 40,
          "name": "E2",
          "ticks": 36960,
          "time": 38.5,
          "velocity": 0.968503937007874
        },
        {
          "duration": 0.6333333333333329,
          "durationTicks": 608,
          "midi": 40,
          "name": "E2",
          "ticks": 37920,
          "time": 39.5,
          "velocity": 0.968503937007874
        },
        {
          "duration": 0.7239583333333357,
          "durationTicks": 695,
          "midi": 40,
          "name": "E2",
          "ticks": 38880,
          "time": 40.5,
          "velocity": 0.968503937007874
        },
        {
          "duration": 0.7406250000000014,
          "durationTicks": 711,
          "midi": 40,
          "name": "E2",
          "ticks": 39840,
          "time": 41.5,
          "velocity": 0.9212598425196851
        },
        {
          "duration": 0.7635416666666686,
          "durationTicks": 733,
          "midi": 40,
          "name": "E2",
          "ticks": 40800,
          "time": 42.5,
          "velocity": 0.968503937007874
        },
        {
          "duration": 0.5614583333333343,
          "durationTicks": 539,
          "midi": 40,
          "name": "E2",
          "ticks": 41760,
          "time": 43.5,
          "velocity": 0.968503937007874
        }
      ],
      "endOfTrackTicks": 42299
    },
    {
      "channel": 0,
      "controlChanges": {},
      "pitchBends": [],
      "instrument": {
        "family": "piano",
        "name": "acoustic grand piano",
        "number": 0
      },
      "name": "Retro Rock Kit",
      "notes": [
        {
          "duration": 0.5,
          "durationTicks": 480,
          "midi": 40,
          "name": "E2",
          "ticks": 36960,
          "time": 38.5,
          "velocity": 0.9212598425196851
        },
        {
          "duration": 0.7312500000000028,
          "durationTicks": 702,
          "midi": 40,
          "name": "E2",
          "ticks": 37920,
          "time": 39.5,
          "velocity": 0.968503937007874
        },
        {
          "duration": 0.6333333333333329,
          "durationTicks": 608,
          "midi": 40,
          "name": "E2",
          "ticks": 38880,
          "time": 40.5,
          "velocity": 0.968503937007874
        },
        {
          "duration": 0.7239583333333357,
          "durationTicks": 695,
          "midi": 40,
          "name": "E2",
          "ticks": 39840,
          "time": 41.5,
          "velocity": 0.968503937007874
        },
        {
          "duration": 0.7406250000000014,
          "durationTicks": 711,
          "midi": 40,
          "name": "E2",
          "ticks": 40800,
          "time": 42.5,
          "velocity": 0.9212598425196851
        },
        {
          "duration": 0.7635416666666686,
          "durationTicks": 733,
          "midi": 40,
          "name": "E2",
          "ticks": 41760,
          "time": 43.5,
          "velocity": 0.968503937007874
        },
        {
          "duration": 0.5614583333333343,
          "durationTicks": 539,
          "midi": 40,
          "name": "E2",
          "ticks": 42720,
          "time": 44.5,
          "velocity": 0.968503937007874
        }
      ],
      "endOfTrackTicks": 43259
    },
    {
      "channel": 0,
      "controlChanges": {},
      "pitchBends": [],
      "instrument": {
        "family": "piano",
        "name": "acoustic grand piano",
        "number": 0
      },
      "name": "Retro Rock Kit",
      "notes": [
        {
          "duration": 0.5,
          "durationTicks": 480,
          "midi": 40,
          "name": "E2",
          "ticks": 37920,
          "time": 39.5,
          "velocity": 0.9212598425196851
        },
        {
          "duration": 0.7312500000000028,
          "durationTicks": 702,
          "midi": 40,
          "name": "E2",
          "ticks": 38880,
          "time": 40.5,
          "velocity": 0.968503937007874
        },
        {
          "duration": 0.6333333333333329,
          "durationTicks": 608,
          "midi": 40,
          "name": "E2",
          "ticks": 39840,
          "time": 41.5,
          "velocity": 0.968503937007874
        },
        {
          "duration": 0.7239583333333357,
          "durationTicks": 695,
          "midi": 40,
          "name": "E2",
          "ticks": 40800,
          "time": 42.5,
          "velocity": 0.968503937007874
        },
        {
          "duration": 0.7406250000000014,
          "durationTicks": 711,
          "midi": 40,
          "name": "E2",
          "ticks": 41760,
          "time": 43.5,
          "velocity": 0.9212598425196851
        },
        {
          "duration": 0.7635416666666686,
          "durationTicks": 733,
          "midi": 40,
          "name": "E2",
          "ticks": 42720,
          "time": 44.5,
          "velocity": 0.968503937007874
        },
        {
          "duration": 0.5614583333333343,
          "durationTicks": 539,
          "midi": 40,
          "name": "E2",
          "ticks": 43680,
          "time": 45.5,
          "velocity": 0.968503937007874
        }
      ],
      "endOfTrackTicks": 44219
    },
    {
      "channel": 0,
      "controlChanges": {},
      "pitchBends": [],
      "instrument": {
        "family": "piano",
        "name": "acoustic grand piano",
        "number": 0
      },
      "name": "Retro Rock Kit",
      "notes": [
        {
          "duration": 0.5,
          "durationTicks": 480,
          "midi": 40,
          "name": "E2",
          "ticks": 38880,
          "time": 40.5,
          "velocity": 0.9212598425196851
        },
        {
          "duration": 0.7312500000000028,
          "durationTicks": 702,
          "midi": 40,
          "name": "E2",
          "ticks": 39840,
          "time": 41.5,
          "velocity": 0.968503937007874
        },
        {
          "duration": 0.6333333333333329,
          "durationTicks": 608,
          "midi": 40,
          "name": "E2",
          "ticks": 40800,
          "time": 42.5,
          "velocity": 0.968503937007874
        },
        {
          "duration": 0.7239583333333357,
          "durationTicks": 695,
          "midi": 40,
          "name": "E2",
          "ticks": 41760,
          "time": 43.5,
          "velocity": 0.968503937007874
        },
        {
          "duration": 0.7406250000000014,
          "durationTicks": 711,
          "midi": 40,
          "name": "E2",
          "ticks": 42720,
          "time": 44.5,
          "velocity": 0.9212598425196851
        },
        {
          "duration": 0.7635416666666686,
          "durationTicks": 733,
          "midi": 40,
          "name": "E2",
          "ticks": 43680,
          "time": 45.5,
          "velocity": 0.968503937007874
        },
        {
          "duration": 0.5614583333333343,
          "durationTicks": 539,
          "midi": 40,
          "name": "E2",
          "ticks": 44640,
          "time": 46.5,
          "velocity": 0.968503937007874
        }
      ],
      "endOfTrackTicks": 45179
    },
    {
      "channel": 0,
      "controlChanges": {},
      "pitchBends": [],
      "instrument": {
        "family": "piano",
        "name": "acoustic grand piano",
        "number": 0
      },
      "name": "Retro Rock Kit",
      "notes": [
        {
          "duration": 0.5,
          "durationTicks": 480,
          "midi": 40,
          "name": "E2",
          "ticks": 39840,
          "time": 41.5,
          "velocity": 0.9212598425196851
        },
        {
          "duration": 0.7312500000000028,
          "durationTicks": 702,
          "midi": 40,
          "name": "E2",
          "ticks": 40800,
          "time": 42.5,
          "velocity": 0.968503937007874
        },
        {
          "duration": 0.6333333333333329,
          "durationTicks": 608,
          "midi": 40,
          "name": "E2",
          "ticks": 41760,
          "time": 43.5,
          "velocity": 0.968503937007874
        },
        {
          "duration": 0.7239583333333357,
          "durationTicks": 695,
          "midi": 40,
          "name": "E2",
          "ticks": 42720,
          "time": 44.5,
          "velocity": 0.968503937007874
        },
        {
          "duration": 0.7406250000000014,
          "durationTicks": 711,
          "midi": 40,
          "name": "E2",
          "ticks": 43680,
          "time": 45.5,
          "velocity": 0.9212598425196851
        },
        {
          "duration": 0.7635416666666686,
          "durationTicks": 733,
          "midi": 40,
          "name": "E2",
          "ticks": 44640,
          "time": 46.5,
          "velocity": 0.968503937007874
        },
        {
          "duration": 0.5614583333333343,
          "durationTicks": 539,
          "midi": 40,
          "name": "E2",
          "ticks": 45600,
          "time": 47.5,
          "velocity": 0.968503937007874
        }
      ],
      "endOfTrackTicks": 46139
    },
    {
      "channel": 0,
      "controlChanges": {},
      "pitchBends": [],
      "instrument": {
        "family": "piano",
        "name": "acoustic grand piano",
        "number": 0
      },
      "name": "Retro Rock Kit",
      "notes": [
        {
          "duration": 0.5,
          "durationTicks": 480,
          "midi": 40,
          "name": "E2",
          "ticks": 40800,
          "time": 42.5,
          "velocity": 0.9212598425196851
        },
        {
          "duration": 0.7312500000000028,
          "durationTicks": 702,
          "midi": 40,
          "name": "E2",
          "ticks": 41760,
          "time": 43.5,
          "velocity": 0.968503937007874
        },
        {
          "duration": 0.6333333333333329,
          "durationTicks": 608,
          "midi": 40,
          "name": "E2",
          "ticks": 42720,
          "time": 44.5,
          "velocity": 0.968503937007874
        },
        {
          "duration": 0.7239583333333357,
          "durationTicks": 695,
          "midi": 40,
          "name": "E2",
          "ticks": 43680,
          "time": 45.5,
          "velocity": 0.968503937007874
        },
        {
          "duration": 0.7406250000000014,
          "durationTicks": 711,
          "midi": 40,
          "name": "E2",
          "ticks": 44640,
          "time": 46.5,
          "velocity": 0.9212598425196851
        },
        {
          "duration": 0.4375,
          "durationTicks": 420,
          "midi": 40,
          "name": "E2",
          "ticks": 45600,
          "time": 47.5,
          "velocity": 0.968503937007874
        },
        {
          "duration": 0.125,
          "durationTicks": 120,
          "midi": 40,
          "name": "E2",
          "ticks": 46080,
          "time": 48,
          "velocity": 0.4645669291338583
        },
        {
          "duration": 0.125,
          "durationTicks": 120,
          "midi": 40,
          "name": "E2",
          "ticks": 46200,
          "time": 48.125,
          "velocity": 0.4645669291338583
        },
        {
          "duration": 0.125,
          "durationTicks": 120,
          "midi": 40,
          "name": "E2",
          "ticks": 46320,
          "time": 48.25,
          "velocity": 0.6535433070866141
        }
      ],
      "endOfTrackTicks": 46440
    },
    {
      "channel": 0,
      "controlChanges": {},
      "pitchBends": [],
      "instrument": {
        "family": "piano",
        "name": "acoustic grand piano",
        "number": 0
      },
      "name": "Retro Rock Kit",
      "notes": [
        {
          "duration": 0.5,
          "durationTicks": 480,
          "midi": 40,
          "name": "E2",
          "ticks": 41760,
          "time": 43.5,
          "velocity": 0.9212598425196851
        },
        {
          "duration": 0.7312500000000028,
          "durationTicks": 702,
          "midi": 40,
          "name": "E2",
          "ticks": 42720,
          "time": 44.5,
          "velocity": 0.968503937007874
        },
        {
          "duration": 0.6333333333333329,
          "durationTicks": 608,
          "midi": 40,
          "name": "E2",
          "ticks": 43680,
          "time": 45.5,
          "velocity": 0.968503937007874
        },
        {
          "duration": 0.7239583333333357,
          "durationTicks": 695,
          "midi": 40,
          "name": "E2",
          "ticks": 44640,
          "time": 46.5,
          "velocity": 0.968503937007874
        },
        {
          "duration": 0.7406250000000014,
          "durationTicks": 711,
          "midi": 40,
          "name": "E2",
          "ticks": 45600,
          "time": 47.5,
          "velocity": 0.9212598425196851
        },
        {
          "duration": 0.4375,
          "durationTicks": 420,
          "midi": 40,
          "name": "E2",
          "ticks": 46560,
          "time": 48.5,
          "velocity": 0.968503937007874
        },
        {
          "duration": 0.125,
          "durationTicks": 120,
          "midi": 40,
          "name": "E2",
          "ticks": 47040,
          "time": 49,
          "velocity": 0.4645669291338583
        },
        {
          "duration": 0.125,
          "durationTicks": 120,
          "midi": 40,
          "name": "E2",
          "ticks": 47160,
          "time": 49.125,
          "velocity": 0.4645669291338583
        },
        {
          "duration": 0.125,
          "durationTicks": 120,
          "midi": 40,
          "name": "E2",
          "ticks": 47280,
          "time": 49.25,
          "velocity": 0.6535433070866141
        }
      ],
      "endOfTrackTicks": 47400
    },
    {
      "channel": 0,
      "controlChanges": {},
      "pitchBends": [],
      "instrument": {
        "family": "piano",
        "name": "acoustic grand piano",
        "number": 0
      },
      "name": "Retro Rock Kit",
      "notes": [
        {
          "duration": 0.5,
          "durationTicks": 480,
          "midi": 40,
          "name": "E2",
          "ticks": 42720,
          "time": 44.5,
          "velocity": 0.9212598425196851
        },
        {
          "duration": 0.7312500000000028,
          "durationTicks": 702,
          "midi": 40,
          "name": "E2",
          "ticks": 43680,
          "time": 45.5,
          "velocity": 0.968503937007874
        },
        {
          "duration": 0.6333333333333329,
          "durationTicks": 608,
          "midi": 40,
          "name": "E2",
          "ticks": 44640,
          "time": 46.5,
          "velocity": 0.968503937007874
        },
        {
          "duration": 0.7239583333333357,
          "durationTicks": 695,
          "midi": 40,
          "name": "E2",
          "ticks": 45600,
          "time": 47.5,
          "velocity": 0.968503937007874
        },
        {
          "duration": 0.7406250000000014,
          "durationTicks": 711,
          "midi": 40,
          "name": "E2",
          "ticks": 46560,
          "time": 48.5,
          "velocity": 0.9212598425196851
        },
        {
          "duration": 0.4375,
          "durationTicks": 420,
          "midi": 40,
          "name": "E2",
          "ticks": 47520,
          "time": 49.5,
          "velocity": 0.968503937007874
        },
        {
          "duration": 0.125,
          "durationTicks": 120,
          "midi": 40,
          "name": "E2",
          "ticks": 48000,
          "time": 50,
          "velocity": 0.4645669291338583
        },
        {
          "duration": 0.125,
          "durationTicks": 120,
          "midi": 40,
          "name": "E2",
          "ticks": 48120,
          "time": 50.125,
          "velocity": 0.4645669291338583
        },
        {
          "duration": 0.125,
          "durationTicks": 120,
          "midi": 40,
          "name": "E2",
          "ticks": 48240,
          "time": 50.25,
          "velocity": 0.6535433070866141
        }
      ],
      "endOfTrackTicks": 48360
    },
    {
      "channel": 0,
      "controlChanges": {},
      "pitchBends": [],
      "instrument": {
        "family": "piano",
        "name": "acoustic grand piano",
        "number": 0
      },
      "name": "Retro Rock Kit",
      "notes": [
        {
          "duration": 0.5,
          "durationTicks": 480,
          "midi": 40,
          "name": "E2",
          "ticks": 43680,
          "time": 45.5,
          "velocity": 0.9212598425196851
        },
        {
          "duration": 0.7312500000000028,
          "durationTicks": 702,
          "midi": 40,
          "name": "E2",
          "ticks": 44640,
          "time": 46.5,
          "velocity": 0.968503937007874
        },
        {
          "duration": 0.6333333333333329,
          "durationTicks": 608,
          "midi": 40,
          "name": "E2",
          "ticks": 45600,
          "time": 47.5,
          "velocity": 0.968503937007874
        },
        {
          "duration": 0.7239583333333357,
          "durationTicks": 695,
          "midi": 40,
          "name": "E2",
          "ticks": 46560,
          "time": 48.5,
          "velocity": 0.968503937007874
        },
        {
          "duration": 0.7406250000000014,
          "durationTicks": 711,
          "midi": 40,
          "name": "E2",
          "ticks": 47520,
          "time": 49.5,
          "velocity": 0.9212598425196851
        },
        {
          "duration": 0.4375,
          "durationTicks": 420,
          "midi": 40,
          "name": "E2",
          "ticks": 48480,
          "time": 50.5,
          "velocity": 0.968503937007874
        },
        {
          "duration": 0.125,
          "durationTicks": 120,
          "midi": 40,
          "name": "E2",
          "ticks": 48960,
          "time": 51,
          "velocity": 0.4645669291338583
        },
        {
          "duration": 0.125,
          "durationTicks": 120,
          "midi": 40,
          "name": "E2",
          "ticks": 49080,
          "time": 51.125,
          "velocity": 0.4645669291338583
        },
        {
          "duration": 0.125,
          "durationTicks": 120,
          "midi": 40,
          "name": "E2",
          "ticks": 49200,
          "time": 51.25,
          "velocity": 0.6535433070866141
        }
      ],
      "endOfTrackTicks": 49320
    },
    {
      "channel": 0,
      "controlChanges": {},
      "pitchBends": [],
      "instrument": {
        "family": "piano",
        "name": "acoustic grand piano",
        "number": 0
      },
      "name": "Retro Rock Kit",
      "notes": [
        {
          "duration": 0.5,
          "durationTicks": 480,
          "midi": 40,
          "name": "E2",
          "ticks": 44640,
          "time": 46.5,
          "velocity": 0.9212598425196851
        },
        {
          "duration": 0.7312500000000028,
          "durationTicks": 702,
          "midi": 40,
          "name": "E2",
          "ticks": 45600,
          "time": 47.5,
          "velocity": 0.968503937007874
        },
        {
          "duration": 0.6333333333333329,
          "durationTicks": 608,
          "midi": 40,
          "name": "E2",
          "ticks": 46560,
          "time": 48.5,
          "velocity": 0.968503937007874
        },
        {
          "duration": 0.7239583333333357,
          "durationTicks": 695,
          "midi": 40,
          "name": "E2",
          "ticks": 47520,
          "time": 49.5,
          "velocity": 0.968503937007874
        },
        {
          "duration": 0.7406250000000014,
          "durationTicks": 711,
          "midi": 40,
          "name": "E2",
          "ticks": 48480,
          "time": 50.5,
          "velocity": 0.9212598425196851
        },
        {
          "duration": 0.4375,
          "durationTicks": 420,
          "midi": 40,
          "name": "E2",
          "ticks": 49440,
          "time": 51.5,
          "velocity": 0.968503937007874
        },
        {
          "duration": 0.125,
          "durationTicks": 120,
          "midi": 40,
          "name": "E2",
          "ticks": 49920,
          "time": 52,
          "velocity": 0.4645669291338583
        },
        {
          "duration": 0.125,
          "durationTicks": 120,
          "midi": 40,
          "name": "E2",
          "ticks": 50040,
          "time": 52.125,
          "velocity": 0.4645669291338583
        },
        {
          "duration": 0.125,
          "durationTicks": 120,
          "midi": 40,
          "name": "E2",
          "ticks": 50160,
          "time": 52.25,
          "velocity": 0.6535433070866141
        }
      ],
      "endOfTrackTicks": 50280
    },
    {
      "channel": 0,
      "controlChanges": {},
      "pitchBends": [],
      "instrument": {
        "family": "piano",
        "name": "acoustic grand piano",
        "number": 0
      },
      "name": "Retro Rock Kit",
      "notes": [
        {
          "duration": 0.5,
          "durationTicks": 480,
          "midi": 40,
          "name": "E2",
          "ticks": 45600,
          "time": 47.5,
          "velocity": 0.9212598425196851
        },
        {
          "duration": 0.7312500000000028,
          "durationTicks": 702,
          "midi": 40,
          "name": "E2",
          "ticks": 46560,
          "time": 48.5,
          "velocity": 0.968503937007874
        },
        {
          "duration": 0.6333333333333329,
          "durationTicks": 608,
          "midi": 40,
          "name": "E2",
          "ticks": 47520,
          "time": 49.5,
          "velocity": 0.968503937007874
        },
        {
          "duration": 0.7239583333333357,
          "durationTicks": 695,
          "midi": 40,
          "name": "E2",
          "ticks": 48480,
          "time": 50.5,
          "velocity": 0.968503937007874
        },
        {
          "duration": 0.7406250000000014,
          "durationTicks": 711,
          "midi": 40,
          "name": "E2",
          "ticks": 49440,
          "time": 51.5,
          "velocity": 0.9212598425196851
        },
        {
          "duration": 0.4375,
          "durationTicks": 420,
          "midi": 40,
          "name": "E2",
          "ticks": 50400,
          "time": 52.5,
          "velocity": 0.968503937007874
        },
        {
          "duration": 0.125,
          "durationTicks": 120,
          "midi": 40,
          "name": "E2",
          "ticks": 50880,
          "time": 53,
          "velocity": 0.4645669291338583
        },
        {
          "duration": 0.125,
          "durationTicks": 120,
          "midi": 40,
          "name": "E2",
          "ticks": 51000,
          "time": 53.125,
          "velocity": 0.4645669291338583
        },
        {
          "duration": 0.125,
          "durationTicks": 120,
          "midi": 40,
          "name": "E2",
          "ticks": 51120,
          "time": 53.25,
          "velocity": 0.6535433070866141
        }
      ],
      "endOfTrackTicks": 51240
    },
    {
      "channel": 0,
      "controlChanges": {},
      "pitchBends": [],
      "instrument": {
        "family": "piano",
        "name": "acoustic grand piano",
        "number": 0
      },
      "name": "Retro Rock Kit",
      "notes": [
        {
          "duration": 0.5,
          "durationTicks": 480,
          "midi": 40,
          "name": "E2",
          "ticks": 46560,
          "time": 48.5,
          "velocity": 0.9212598425196851
        },
        {
          "duration": 0.7312500000000028,
          "durationTicks": 702,
          "midi": 40,
          "name": "E2",
          "ticks": 47520,
          "time": 49.5,
          "velocity": 0.968503937007874
        },
        {
          "duration": 0.6333333333333329,
          "durationTicks": 608,
          "midi": 40,
          "name": "E2",
          "ticks": 48480,
          "time": 50.5,
          "velocity": 0.968503937007874
        },
        {
          "duration": 0.7239583333333357,
          "durationTicks": 695,
          "midi": 40,
          "name": "E2",
          "ticks": 49440,
          "time": 51.5,
          "velocity": 0.968503937007874
        },
        {
          "duration": 0.7406250000000014,
          "durationTicks": 711,
          "midi": 40,
          "name": "E2",
          "ticks": 50400,
          "time": 52.5,
          "velocity": 0.9212598425196851
        },
        {
          "duration": 0.4375,
          "durationTicks": 420,
          "midi": 40,
          "name": "E2",
          "ticks": 51360,
          "time": 53.5,
          "velocity": 0.968503937007874
        },
        {
          "duration": 0.125,
          "durationTicks": 120,
          "midi": 40,
          "name": "E2",
          "ticks": 51840,
          "time": 54,
          "velocity": 0.4645669291338583
        },
        {
          "duration": 0.125,
          "durationTicks": 120,
          "midi": 40,
          "name": "E2",
          "ticks": 51960,
          "time": 54.125,
          "velocity": 0.4645669291338583
        },
        {
          "duration": 0.125,
          "durationTicks": 120,
          "midi": 40,
          "name": "E2",
          "ticks": 52080,
          "time": 54.25,
          "velocity": 0.6535433070866141
        }
      ],
      "endOfTrackTicks": 52200
    },
    {
      "channel": 0,
      "controlChanges": {},
      "pitchBends": [],
      "instrument": {
        "family": "piano",
        "name": "acoustic grand piano",
        "number": 0
      },
      "name": "Shaker 19",
      "notes": [
        {
          "duration": 9,
          "durationTicks": 8640,
          "midi": 82,
          "name": "A#5",
          "ticks": 40320,
          "time": 42,
          "velocity": 0.9606299212598425
        }
      ],
      "endOfTrackTicks": 48960
    },
    {
      "channel": 0,
      "controlChanges": {},
      "pitchBends": [],
      "instrument": {
        "family": "piano",
        "name": "acoustic grand piano",
        "number": 0
      },
      "name": "Shaker 19",
      "notes": [
        {
          "duration": 9,
          "durationTicks": 8640,
          "midi": 82,
          "name": "A#5",
          "ticks": 47040,
          "time": 49,
          "velocity": 0.9606299212598425
        }
      ],
      "endOfTrackTicks": 55680
    },
    {
      "channel": 0,
      "controlChanges": {},
      "pitchBends": [],
      "instrument": {
        "family": "piano",
        "name": "acoustic grand piano",
        "number": 0
      },
      "name": "Shaker 19",
      "notes": [
        {
          "duration": 9,
          "durationTicks": 8640,
          "midi": 82,
          "name": "A#5",
          "ticks": 32640,
          "time": 34,
          "velocity": 0.9606299212598425
        }
      ],
      "endOfTrackTicks": 41280
    },
    {
      "channel": 0,
      "controlChanges": {},
      "pitchBends": [],
      "instrument": {
        "family": "piano",
        "name": "acoustic grand piano",
        "number": 0
      },
      "name": "Shaker 19",
      "notes": [
        {
          "duration": 9,
          "durationTicks": 8640,
          "midi": 82,
          "name": "A#5",
          "ticks": 40320,
          "time": 42,
          "velocity": 0.9606299212598425
        }
      ],
      "endOfTrackTicks": 48960
    },
    {
      "channel": 0,
      "controlChanges": {},
      "pitchBends": [],
      "instrument": {
        "family": "piano",
        "name": "acoustic grand piano",
        "number": 0
      },
      "name": "Shaker 19",
      "notes": [
        {
          "duration": 9,
          "durationTicks": 8640,
          "midi": 82,
          "name": "A#5",
          "ticks": 30720,
          "time": 32,
          "velocity": 0.9606299212598425
        }
      ],
      "endOfTrackTicks": 39600
    },
    {
      "channel": 0,
      "controlChanges": {},
      "pitchBends": [],
      "instrument": {
        "family": "piano",
        "name": "acoustic grand piano",
        "number": 0
      },
      "name": "Shaker 19",
      "notes": [
        {
          "duration": 17.5,
          "durationTicks": 16800,
          "midi": 82,
          "name": "A#5",
          "ticks": 40320,
          "time": 42,
          "velocity": 0.9606299212598425
        }
      ],
      "endOfTrackTicks": 57120
    },
    {
      "channel": 0,
      "controlChanges": {},
      "pitchBends": [],
      "instrument": {
        "family": "piano",
        "name": "acoustic grand piano",
        "number": 0
      },
      "name": "Shaker 19",
      "notes": [
        {
          "duration": 9,
          "durationTicks": 8640,
          "midi": 82,
          "name": "A#5",
          "ticks": 32640,
          "time": 34,
          "velocity": 0.9606299212598425
        }
      ],
      "endOfTrackTicks": 41280
    },
    {
      "channel": 0,
      "controlChanges": {},
      "pitchBends": [],
      "instrument": {
        "family": "piano",
        "name": "acoustic grand piano",
        "number": 0
      },
      "name": "Shaker 19",
      "notes": [
        {
          "duration": 9,
          "durationTicks": 8640,
          "midi": 82,
          "name": "A#5",
          "ticks": 40320,
          "time": 42,
          "velocity": 0.9606299212598425
        }
      ],
      "endOfTrackTicks": 48960
    },
    {
      "channel": 0,
      "controlChanges": {},
      "pitchBends": [],
      "instrument": {
        "family": "piano",
        "name": "acoustic grand piano",
        "number": 0
      },
      "name": "Shaker 19",
      "notes": [
        {
          "duration": 9,
          "durationTicks": 8640,
          "midi": 82,
          "name": "A#5",
          "ticks": 39840,
          "time": 41.5,
          "velocity": 0.9606299212598425
        }
      ],
      "endOfTrackTicks": 48480
    },
    {
      "channel": 0,
      "controlChanges": {},
      "pitchBends": [],
      "instrument": {
        "family": "piano",
        "name": "acoustic grand piano",
        "number": 0
      },
      "name": "Shaker 19",
      "notes": [
        {
          "duration": 9,
          "durationTicks": 8640,
          "midi": 82,
          "name": "A#5",
          "ticks": 40320,
          "time": 42,
          "velocity": 0.9606299212598425
        }
      ],
      "endOfTrackTicks": 48960
    },
    {
      "channel": 0,
      "controlChanges": {},
      "pitchBends": [],
      "instrument": {
        "family": "piano",
        "name": "acoustic grand piano",
        "number": 0
      },
      "name": "Southern Rock Drums 05",
      "notes": [
        {
          "duration": 1.1458333333333357,
          "durationTicks": 1100,
          "midi": 38,
          "name": "D2",
          "ticks": 46080,
          "time": 48,
          "velocity": 0.6377952755905512
        }
      ],
      "endOfTrackTicks": 47400
    }
  ]
}